G75*
G70*
%OFA0B0*%
%FSLAX24Y24*%
%IPPOS*%
%LPD*%
%AMOC8*
5,1,8,0,0,1.08239X$1,22.5*
%
%ADD10C,0.0100*%
%ADD11C,0.0000*%
D10*
X026003Y001726D02*
X026003Y009600D01*
X026005Y009677D01*
X026011Y009754D01*
X026020Y009831D01*
X026033Y009907D01*
X026050Y009983D01*
X026071Y010057D01*
X026095Y010131D01*
X026123Y010203D01*
X026154Y010273D01*
X026189Y010342D01*
X026227Y010410D01*
X026268Y010475D01*
X026313Y010538D01*
X026361Y010599D01*
X026411Y010658D01*
X026464Y010714D01*
X026520Y010767D01*
X026579Y010817D01*
X026640Y010865D01*
X026703Y010910D01*
X026768Y010951D01*
X026836Y010989D01*
X026905Y011024D01*
X026975Y011055D01*
X027047Y011083D01*
X027121Y011107D01*
X027195Y011128D01*
X027271Y011145D01*
X027347Y011158D01*
X027424Y011167D01*
X027501Y011173D01*
X027578Y011175D01*
X073247Y011175D01*
X073324Y011173D01*
X073401Y011167D01*
X073478Y011158D01*
X073554Y011145D01*
X073630Y011128D01*
X073704Y011107D01*
X073778Y011083D01*
X073850Y011055D01*
X073920Y011024D01*
X073989Y010989D01*
X074057Y010951D01*
X074122Y010910D01*
X074185Y010865D01*
X074246Y010817D01*
X074305Y010767D01*
X074361Y010714D01*
X074414Y010658D01*
X074464Y010599D01*
X074512Y010538D01*
X074557Y010475D01*
X074598Y010410D01*
X074636Y010342D01*
X074671Y010273D01*
X074702Y010203D01*
X074730Y010131D01*
X074754Y010057D01*
X074775Y009983D01*
X074792Y009907D01*
X074805Y009831D01*
X074814Y009754D01*
X074820Y009677D01*
X074822Y009600D01*
X074822Y001726D01*
X074820Y001649D01*
X074814Y001572D01*
X074805Y001495D01*
X074792Y001419D01*
X074775Y001343D01*
X074754Y001269D01*
X074730Y001195D01*
X074702Y001123D01*
X074671Y001053D01*
X074636Y000984D01*
X074598Y000916D01*
X074557Y000851D01*
X074512Y000788D01*
X074464Y000727D01*
X074414Y000668D01*
X074361Y000612D01*
X074305Y000559D01*
X074246Y000509D01*
X074185Y000461D01*
X074122Y000416D01*
X074057Y000375D01*
X073989Y000337D01*
X073920Y000302D01*
X073850Y000271D01*
X073778Y000243D01*
X073704Y000219D01*
X073630Y000198D01*
X073554Y000181D01*
X073478Y000168D01*
X073401Y000159D01*
X073324Y000153D01*
X073247Y000151D01*
X027578Y000151D01*
X027501Y000153D01*
X027424Y000159D01*
X027347Y000168D01*
X027271Y000181D01*
X027195Y000198D01*
X027121Y000219D01*
X027047Y000243D01*
X026975Y000271D01*
X026905Y000302D01*
X026836Y000337D01*
X026768Y000375D01*
X026703Y000416D01*
X026640Y000461D01*
X026579Y000509D01*
X026520Y000559D01*
X026464Y000612D01*
X026411Y000668D01*
X026361Y000727D01*
X026313Y000788D01*
X026268Y000851D01*
X026227Y000916D01*
X026189Y000984D01*
X026154Y001053D01*
X026123Y001123D01*
X026095Y001195D01*
X026071Y001269D01*
X026050Y001343D01*
X026033Y001419D01*
X026020Y001495D01*
X026011Y001572D01*
X026005Y001649D01*
X026003Y001726D01*
D11*
X028099Y001135D02*
X028101Y001178D01*
X028107Y001220D01*
X028117Y001262D01*
X028130Y001302D01*
X028148Y001341D01*
X028168Y001379D01*
X028193Y001414D01*
X028220Y001447D01*
X028250Y001477D01*
X028283Y001504D01*
X028318Y001529D01*
X028356Y001549D01*
X028395Y001567D01*
X028435Y001580D01*
X028477Y001590D01*
X028519Y001596D01*
X028562Y001598D01*
X028605Y001596D01*
X028647Y001590D01*
X028689Y001580D01*
X028729Y001567D01*
X028768Y001549D01*
X028806Y001529D01*
X028841Y001504D01*
X028874Y001477D01*
X028904Y001447D01*
X028931Y001414D01*
X028956Y001379D01*
X028976Y001341D01*
X028994Y001302D01*
X029007Y001262D01*
X029017Y001220D01*
X029023Y001178D01*
X029025Y001135D01*
X029023Y001092D01*
X029017Y001050D01*
X029007Y001008D01*
X028994Y000968D01*
X028976Y000929D01*
X028956Y000891D01*
X028931Y000856D01*
X028904Y000823D01*
X028874Y000793D01*
X028841Y000766D01*
X028806Y000741D01*
X028768Y000721D01*
X028729Y000703D01*
X028689Y000690D01*
X028647Y000680D01*
X028605Y000674D01*
X028562Y000672D01*
X028519Y000674D01*
X028477Y000680D01*
X028435Y000690D01*
X028395Y000703D01*
X028356Y000721D01*
X028318Y000741D01*
X028283Y000766D01*
X028250Y000793D01*
X028220Y000823D01*
X028193Y000856D01*
X028168Y000891D01*
X028148Y000929D01*
X028130Y000968D01*
X028117Y001008D01*
X028107Y001050D01*
X028101Y001092D01*
X028099Y001135D01*
X034005Y001135D02*
X034007Y001178D01*
X034013Y001220D01*
X034023Y001262D01*
X034036Y001302D01*
X034054Y001341D01*
X034074Y001379D01*
X034099Y001414D01*
X034126Y001447D01*
X034156Y001477D01*
X034189Y001504D01*
X034224Y001529D01*
X034262Y001549D01*
X034301Y001567D01*
X034341Y001580D01*
X034383Y001590D01*
X034425Y001596D01*
X034468Y001598D01*
X034511Y001596D01*
X034553Y001590D01*
X034595Y001580D01*
X034635Y001567D01*
X034674Y001549D01*
X034712Y001529D01*
X034747Y001504D01*
X034780Y001477D01*
X034810Y001447D01*
X034837Y001414D01*
X034862Y001379D01*
X034882Y001341D01*
X034900Y001302D01*
X034913Y001262D01*
X034923Y001220D01*
X034929Y001178D01*
X034931Y001135D01*
X034929Y001092D01*
X034923Y001050D01*
X034913Y001008D01*
X034900Y000968D01*
X034882Y000929D01*
X034862Y000891D01*
X034837Y000856D01*
X034810Y000823D01*
X034780Y000793D01*
X034747Y000766D01*
X034712Y000741D01*
X034674Y000721D01*
X034635Y000703D01*
X034595Y000690D01*
X034553Y000680D01*
X034511Y000674D01*
X034468Y000672D01*
X034425Y000674D01*
X034383Y000680D01*
X034341Y000690D01*
X034301Y000703D01*
X034262Y000721D01*
X034224Y000741D01*
X034189Y000766D01*
X034156Y000793D01*
X034126Y000823D01*
X034099Y000856D01*
X034074Y000891D01*
X034054Y000929D01*
X034036Y000968D01*
X034023Y001008D01*
X034013Y001050D01*
X034007Y001092D01*
X034005Y001135D01*
X036761Y001135D02*
X036763Y001178D01*
X036769Y001220D01*
X036779Y001262D01*
X036792Y001302D01*
X036810Y001341D01*
X036830Y001379D01*
X036855Y001414D01*
X036882Y001447D01*
X036912Y001477D01*
X036945Y001504D01*
X036980Y001529D01*
X037018Y001549D01*
X037057Y001567D01*
X037097Y001580D01*
X037139Y001590D01*
X037181Y001596D01*
X037224Y001598D01*
X037267Y001596D01*
X037309Y001590D01*
X037351Y001580D01*
X037391Y001567D01*
X037430Y001549D01*
X037468Y001529D01*
X037503Y001504D01*
X037536Y001477D01*
X037566Y001447D01*
X037593Y001414D01*
X037618Y001379D01*
X037638Y001341D01*
X037656Y001302D01*
X037669Y001262D01*
X037679Y001220D01*
X037685Y001178D01*
X037687Y001135D01*
X037685Y001092D01*
X037679Y001050D01*
X037669Y001008D01*
X037656Y000968D01*
X037638Y000929D01*
X037618Y000891D01*
X037593Y000856D01*
X037566Y000823D01*
X037536Y000793D01*
X037503Y000766D01*
X037468Y000741D01*
X037430Y000721D01*
X037391Y000703D01*
X037351Y000690D01*
X037309Y000680D01*
X037267Y000674D01*
X037224Y000672D01*
X037181Y000674D01*
X037139Y000680D01*
X037097Y000690D01*
X037057Y000703D01*
X037018Y000721D01*
X036980Y000741D01*
X036945Y000766D01*
X036912Y000793D01*
X036882Y000823D01*
X036855Y000856D01*
X036830Y000891D01*
X036810Y000929D01*
X036792Y000968D01*
X036779Y001008D01*
X036769Y001050D01*
X036763Y001092D01*
X036761Y001135D01*
X042666Y001135D02*
X042668Y001178D01*
X042674Y001220D01*
X042684Y001262D01*
X042697Y001302D01*
X042715Y001341D01*
X042735Y001379D01*
X042760Y001414D01*
X042787Y001447D01*
X042817Y001477D01*
X042850Y001504D01*
X042885Y001529D01*
X042923Y001549D01*
X042962Y001567D01*
X043002Y001580D01*
X043044Y001590D01*
X043086Y001596D01*
X043129Y001598D01*
X043172Y001596D01*
X043214Y001590D01*
X043256Y001580D01*
X043296Y001567D01*
X043335Y001549D01*
X043373Y001529D01*
X043408Y001504D01*
X043441Y001477D01*
X043471Y001447D01*
X043498Y001414D01*
X043523Y001379D01*
X043543Y001341D01*
X043561Y001302D01*
X043574Y001262D01*
X043584Y001220D01*
X043590Y001178D01*
X043592Y001135D01*
X043590Y001092D01*
X043584Y001050D01*
X043574Y001008D01*
X043561Y000968D01*
X043543Y000929D01*
X043523Y000891D01*
X043498Y000856D01*
X043471Y000823D01*
X043441Y000793D01*
X043408Y000766D01*
X043373Y000741D01*
X043335Y000721D01*
X043296Y000703D01*
X043256Y000690D01*
X043214Y000680D01*
X043172Y000674D01*
X043129Y000672D01*
X043086Y000674D01*
X043044Y000680D01*
X043002Y000690D01*
X042962Y000703D01*
X042923Y000721D01*
X042885Y000741D01*
X042850Y000766D01*
X042817Y000793D01*
X042787Y000823D01*
X042760Y000856D01*
X042735Y000891D01*
X042715Y000929D01*
X042697Y000968D01*
X042684Y001008D01*
X042674Y001050D01*
X042668Y001092D01*
X042666Y001135D01*
X045422Y001135D02*
X045424Y001178D01*
X045430Y001220D01*
X045440Y001262D01*
X045453Y001302D01*
X045471Y001341D01*
X045491Y001379D01*
X045516Y001414D01*
X045543Y001447D01*
X045573Y001477D01*
X045606Y001504D01*
X045641Y001529D01*
X045679Y001549D01*
X045718Y001567D01*
X045758Y001580D01*
X045800Y001590D01*
X045842Y001596D01*
X045885Y001598D01*
X045928Y001596D01*
X045970Y001590D01*
X046012Y001580D01*
X046052Y001567D01*
X046091Y001549D01*
X046129Y001529D01*
X046164Y001504D01*
X046197Y001477D01*
X046227Y001447D01*
X046254Y001414D01*
X046279Y001379D01*
X046299Y001341D01*
X046317Y001302D01*
X046330Y001262D01*
X046340Y001220D01*
X046346Y001178D01*
X046348Y001135D01*
X046346Y001092D01*
X046340Y001050D01*
X046330Y001008D01*
X046317Y000968D01*
X046299Y000929D01*
X046279Y000891D01*
X046254Y000856D01*
X046227Y000823D01*
X046197Y000793D01*
X046164Y000766D01*
X046129Y000741D01*
X046091Y000721D01*
X046052Y000703D01*
X046012Y000690D01*
X045970Y000680D01*
X045928Y000674D01*
X045885Y000672D01*
X045842Y000674D01*
X045800Y000680D01*
X045758Y000690D01*
X045718Y000703D01*
X045679Y000721D01*
X045641Y000741D01*
X045606Y000766D01*
X045573Y000793D01*
X045543Y000823D01*
X045516Y000856D01*
X045491Y000891D01*
X045471Y000929D01*
X045453Y000968D01*
X045440Y001008D01*
X045430Y001050D01*
X045424Y001092D01*
X045422Y001135D01*
X045334Y003694D02*
X045336Y003741D01*
X045342Y003787D01*
X045352Y003833D01*
X045365Y003878D01*
X045383Y003921D01*
X045404Y003963D01*
X045428Y004003D01*
X045456Y004040D01*
X045487Y004075D01*
X045521Y004108D01*
X045557Y004137D01*
X045596Y004163D01*
X045637Y004186D01*
X045680Y004205D01*
X045724Y004221D01*
X045769Y004233D01*
X045815Y004241D01*
X045862Y004245D01*
X045908Y004245D01*
X045955Y004241D01*
X046001Y004233D01*
X046046Y004221D01*
X046090Y004205D01*
X046133Y004186D01*
X046174Y004163D01*
X046213Y004137D01*
X046249Y004108D01*
X046283Y004075D01*
X046314Y004040D01*
X046342Y004003D01*
X046366Y003963D01*
X046387Y003921D01*
X046405Y003878D01*
X046418Y003833D01*
X046428Y003787D01*
X046434Y003741D01*
X046436Y003694D01*
X046434Y003647D01*
X046428Y003601D01*
X046418Y003555D01*
X046405Y003510D01*
X046387Y003467D01*
X046366Y003425D01*
X046342Y003385D01*
X046314Y003348D01*
X046283Y003313D01*
X046249Y003280D01*
X046213Y003251D01*
X046174Y003225D01*
X046133Y003202D01*
X046090Y003183D01*
X046046Y003167D01*
X046001Y003155D01*
X045955Y003147D01*
X045908Y003143D01*
X045862Y003143D01*
X045815Y003147D01*
X045769Y003155D01*
X045724Y003167D01*
X045680Y003183D01*
X045637Y003202D01*
X045596Y003225D01*
X045557Y003251D01*
X045521Y003280D01*
X045487Y003313D01*
X045456Y003348D01*
X045428Y003385D01*
X045404Y003425D01*
X045383Y003467D01*
X045365Y003510D01*
X045352Y003555D01*
X045342Y003601D01*
X045336Y003647D01*
X045334Y003694D01*
X042578Y003694D02*
X042580Y003741D01*
X042586Y003787D01*
X042596Y003833D01*
X042609Y003878D01*
X042627Y003921D01*
X042648Y003963D01*
X042672Y004003D01*
X042700Y004040D01*
X042731Y004075D01*
X042765Y004108D01*
X042801Y004137D01*
X042840Y004163D01*
X042881Y004186D01*
X042924Y004205D01*
X042968Y004221D01*
X043013Y004233D01*
X043059Y004241D01*
X043106Y004245D01*
X043152Y004245D01*
X043199Y004241D01*
X043245Y004233D01*
X043290Y004221D01*
X043334Y004205D01*
X043377Y004186D01*
X043418Y004163D01*
X043457Y004137D01*
X043493Y004108D01*
X043527Y004075D01*
X043558Y004040D01*
X043586Y004003D01*
X043610Y003963D01*
X043631Y003921D01*
X043649Y003878D01*
X043662Y003833D01*
X043672Y003787D01*
X043678Y003741D01*
X043680Y003694D01*
X043678Y003647D01*
X043672Y003601D01*
X043662Y003555D01*
X043649Y003510D01*
X043631Y003467D01*
X043610Y003425D01*
X043586Y003385D01*
X043558Y003348D01*
X043527Y003313D01*
X043493Y003280D01*
X043457Y003251D01*
X043418Y003225D01*
X043377Y003202D01*
X043334Y003183D01*
X043290Y003167D01*
X043245Y003155D01*
X043199Y003147D01*
X043152Y003143D01*
X043106Y003143D01*
X043059Y003147D01*
X043013Y003155D01*
X042968Y003167D01*
X042924Y003183D01*
X042881Y003202D01*
X042840Y003225D01*
X042801Y003251D01*
X042765Y003280D01*
X042731Y003313D01*
X042700Y003348D01*
X042672Y003385D01*
X042648Y003425D01*
X042627Y003467D01*
X042609Y003510D01*
X042596Y003555D01*
X042586Y003601D01*
X042580Y003647D01*
X042578Y003694D01*
X036673Y003694D02*
X036675Y003741D01*
X036681Y003787D01*
X036691Y003833D01*
X036704Y003878D01*
X036722Y003921D01*
X036743Y003963D01*
X036767Y004003D01*
X036795Y004040D01*
X036826Y004075D01*
X036860Y004108D01*
X036896Y004137D01*
X036935Y004163D01*
X036976Y004186D01*
X037019Y004205D01*
X037063Y004221D01*
X037108Y004233D01*
X037154Y004241D01*
X037201Y004245D01*
X037247Y004245D01*
X037294Y004241D01*
X037340Y004233D01*
X037385Y004221D01*
X037429Y004205D01*
X037472Y004186D01*
X037513Y004163D01*
X037552Y004137D01*
X037588Y004108D01*
X037622Y004075D01*
X037653Y004040D01*
X037681Y004003D01*
X037705Y003963D01*
X037726Y003921D01*
X037744Y003878D01*
X037757Y003833D01*
X037767Y003787D01*
X037773Y003741D01*
X037775Y003694D01*
X037773Y003647D01*
X037767Y003601D01*
X037757Y003555D01*
X037744Y003510D01*
X037726Y003467D01*
X037705Y003425D01*
X037681Y003385D01*
X037653Y003348D01*
X037622Y003313D01*
X037588Y003280D01*
X037552Y003251D01*
X037513Y003225D01*
X037472Y003202D01*
X037429Y003183D01*
X037385Y003167D01*
X037340Y003155D01*
X037294Y003147D01*
X037247Y003143D01*
X037201Y003143D01*
X037154Y003147D01*
X037108Y003155D01*
X037063Y003167D01*
X037019Y003183D01*
X036976Y003202D01*
X036935Y003225D01*
X036896Y003251D01*
X036860Y003280D01*
X036826Y003313D01*
X036795Y003348D01*
X036767Y003385D01*
X036743Y003425D01*
X036722Y003467D01*
X036704Y003510D01*
X036691Y003555D01*
X036681Y003601D01*
X036675Y003647D01*
X036673Y003694D01*
X033917Y003694D02*
X033919Y003741D01*
X033925Y003787D01*
X033935Y003833D01*
X033948Y003878D01*
X033966Y003921D01*
X033987Y003963D01*
X034011Y004003D01*
X034039Y004040D01*
X034070Y004075D01*
X034104Y004108D01*
X034140Y004137D01*
X034179Y004163D01*
X034220Y004186D01*
X034263Y004205D01*
X034307Y004221D01*
X034352Y004233D01*
X034398Y004241D01*
X034445Y004245D01*
X034491Y004245D01*
X034538Y004241D01*
X034584Y004233D01*
X034629Y004221D01*
X034673Y004205D01*
X034716Y004186D01*
X034757Y004163D01*
X034796Y004137D01*
X034832Y004108D01*
X034866Y004075D01*
X034897Y004040D01*
X034925Y004003D01*
X034949Y003963D01*
X034970Y003921D01*
X034988Y003878D01*
X035001Y003833D01*
X035011Y003787D01*
X035017Y003741D01*
X035019Y003694D01*
X035017Y003647D01*
X035011Y003601D01*
X035001Y003555D01*
X034988Y003510D01*
X034970Y003467D01*
X034949Y003425D01*
X034925Y003385D01*
X034897Y003348D01*
X034866Y003313D01*
X034832Y003280D01*
X034796Y003251D01*
X034757Y003225D01*
X034716Y003202D01*
X034673Y003183D01*
X034629Y003167D01*
X034584Y003155D01*
X034538Y003147D01*
X034491Y003143D01*
X034445Y003143D01*
X034398Y003147D01*
X034352Y003155D01*
X034307Y003167D01*
X034263Y003183D01*
X034220Y003202D01*
X034179Y003225D01*
X034140Y003251D01*
X034104Y003280D01*
X034070Y003313D01*
X034039Y003348D01*
X034011Y003385D01*
X033987Y003425D01*
X033966Y003467D01*
X033948Y003510D01*
X033935Y003555D01*
X033925Y003601D01*
X033919Y003647D01*
X033917Y003694D01*
X028011Y003694D02*
X028013Y003741D01*
X028019Y003787D01*
X028029Y003833D01*
X028042Y003878D01*
X028060Y003921D01*
X028081Y003963D01*
X028105Y004003D01*
X028133Y004040D01*
X028164Y004075D01*
X028198Y004108D01*
X028234Y004137D01*
X028273Y004163D01*
X028314Y004186D01*
X028357Y004205D01*
X028401Y004221D01*
X028446Y004233D01*
X028492Y004241D01*
X028539Y004245D01*
X028585Y004245D01*
X028632Y004241D01*
X028678Y004233D01*
X028723Y004221D01*
X028767Y004205D01*
X028810Y004186D01*
X028851Y004163D01*
X028890Y004137D01*
X028926Y004108D01*
X028960Y004075D01*
X028991Y004040D01*
X029019Y004003D01*
X029043Y003963D01*
X029064Y003921D01*
X029082Y003878D01*
X029095Y003833D01*
X029105Y003787D01*
X029111Y003741D01*
X029113Y003694D01*
X029111Y003647D01*
X029105Y003601D01*
X029095Y003555D01*
X029082Y003510D01*
X029064Y003467D01*
X029043Y003425D01*
X029019Y003385D01*
X028991Y003348D01*
X028960Y003313D01*
X028926Y003280D01*
X028890Y003251D01*
X028851Y003225D01*
X028810Y003202D01*
X028767Y003183D01*
X028723Y003167D01*
X028678Y003155D01*
X028632Y003147D01*
X028585Y003143D01*
X028539Y003143D01*
X028492Y003147D01*
X028446Y003155D01*
X028401Y003167D01*
X028357Y003183D01*
X028314Y003202D01*
X028273Y003225D01*
X028234Y003251D01*
X028198Y003280D01*
X028164Y003313D01*
X028133Y003348D01*
X028105Y003385D01*
X028081Y003425D01*
X028060Y003467D01*
X028042Y003510D01*
X028029Y003555D01*
X028019Y003601D01*
X028013Y003647D01*
X028011Y003694D01*
X030982Y008419D02*
X030984Y008462D01*
X030990Y008505D01*
X031000Y008547D01*
X031013Y008588D01*
X031030Y008627D01*
X031051Y008665D01*
X031075Y008701D01*
X031102Y008735D01*
X031132Y008765D01*
X031165Y008793D01*
X031201Y008818D01*
X031238Y008840D01*
X031277Y008858D01*
X031318Y008872D01*
X031360Y008883D01*
X031402Y008890D01*
X031445Y008893D01*
X031488Y008892D01*
X031531Y008887D01*
X031573Y008878D01*
X031615Y008866D01*
X031655Y008849D01*
X031693Y008829D01*
X031729Y008806D01*
X031763Y008780D01*
X031795Y008750D01*
X031824Y008718D01*
X031849Y008683D01*
X031872Y008647D01*
X031891Y008608D01*
X031906Y008568D01*
X031918Y008526D01*
X031926Y008484D01*
X031930Y008441D01*
X031930Y008397D01*
X031926Y008354D01*
X031918Y008312D01*
X031906Y008270D01*
X031891Y008230D01*
X031872Y008191D01*
X031849Y008155D01*
X031824Y008120D01*
X031795Y008088D01*
X031763Y008058D01*
X031729Y008032D01*
X031693Y008009D01*
X031655Y007989D01*
X031615Y007972D01*
X031573Y007960D01*
X031531Y007951D01*
X031488Y007946D01*
X031445Y007945D01*
X031402Y007948D01*
X031360Y007955D01*
X031318Y007966D01*
X031277Y007980D01*
X031238Y007998D01*
X031201Y008020D01*
X031165Y008045D01*
X031132Y008073D01*
X031102Y008103D01*
X031075Y008137D01*
X031051Y008173D01*
X031030Y008211D01*
X031013Y008250D01*
X031000Y008291D01*
X030990Y008333D01*
X030984Y008376D01*
X030982Y008419D01*
X035037Y008419D02*
X035039Y008462D01*
X035045Y008505D01*
X035055Y008547D01*
X035068Y008588D01*
X035085Y008627D01*
X035106Y008665D01*
X035130Y008701D01*
X035157Y008735D01*
X035187Y008765D01*
X035220Y008793D01*
X035256Y008818D01*
X035293Y008840D01*
X035332Y008858D01*
X035373Y008872D01*
X035415Y008883D01*
X035457Y008890D01*
X035500Y008893D01*
X035543Y008892D01*
X035586Y008887D01*
X035628Y008878D01*
X035670Y008866D01*
X035710Y008849D01*
X035748Y008829D01*
X035784Y008806D01*
X035818Y008780D01*
X035850Y008750D01*
X035879Y008718D01*
X035904Y008683D01*
X035927Y008647D01*
X035946Y008608D01*
X035961Y008568D01*
X035973Y008526D01*
X035981Y008484D01*
X035985Y008441D01*
X035985Y008397D01*
X035981Y008354D01*
X035973Y008312D01*
X035961Y008270D01*
X035946Y008230D01*
X035927Y008191D01*
X035904Y008155D01*
X035879Y008120D01*
X035850Y008088D01*
X035818Y008058D01*
X035784Y008032D01*
X035748Y008009D01*
X035710Y007989D01*
X035670Y007972D01*
X035628Y007960D01*
X035586Y007951D01*
X035543Y007946D01*
X035500Y007945D01*
X035457Y007948D01*
X035415Y007955D01*
X035373Y007966D01*
X035332Y007980D01*
X035293Y007998D01*
X035256Y008020D01*
X035220Y008045D01*
X035187Y008073D01*
X035157Y008103D01*
X035130Y008137D01*
X035106Y008173D01*
X035085Y008211D01*
X035068Y008250D01*
X035055Y008291D01*
X035045Y008333D01*
X035039Y008376D01*
X035037Y008419D01*
X036494Y008419D02*
X036496Y008462D01*
X036502Y008505D01*
X036512Y008547D01*
X036525Y008588D01*
X036542Y008627D01*
X036563Y008665D01*
X036587Y008701D01*
X036614Y008735D01*
X036644Y008765D01*
X036677Y008793D01*
X036713Y008818D01*
X036750Y008840D01*
X036789Y008858D01*
X036830Y008872D01*
X036872Y008883D01*
X036914Y008890D01*
X036957Y008893D01*
X037000Y008892D01*
X037043Y008887D01*
X037085Y008878D01*
X037127Y008866D01*
X037167Y008849D01*
X037205Y008829D01*
X037241Y008806D01*
X037275Y008780D01*
X037307Y008750D01*
X037336Y008718D01*
X037361Y008683D01*
X037384Y008647D01*
X037403Y008608D01*
X037418Y008568D01*
X037430Y008526D01*
X037438Y008484D01*
X037442Y008441D01*
X037442Y008397D01*
X037438Y008354D01*
X037430Y008312D01*
X037418Y008270D01*
X037403Y008230D01*
X037384Y008191D01*
X037361Y008155D01*
X037336Y008120D01*
X037307Y008088D01*
X037275Y008058D01*
X037241Y008032D01*
X037205Y008009D01*
X037167Y007989D01*
X037127Y007972D01*
X037085Y007960D01*
X037043Y007951D01*
X037000Y007946D01*
X036957Y007945D01*
X036914Y007948D01*
X036872Y007955D01*
X036830Y007966D01*
X036789Y007980D01*
X036750Y007998D01*
X036713Y008020D01*
X036677Y008045D01*
X036644Y008073D01*
X036614Y008103D01*
X036587Y008137D01*
X036563Y008173D01*
X036542Y008211D01*
X036525Y008250D01*
X036512Y008291D01*
X036502Y008333D01*
X036496Y008376D01*
X036494Y008419D01*
X040549Y008419D02*
X040551Y008462D01*
X040557Y008505D01*
X040567Y008547D01*
X040580Y008588D01*
X040597Y008627D01*
X040618Y008665D01*
X040642Y008701D01*
X040669Y008735D01*
X040699Y008765D01*
X040732Y008793D01*
X040768Y008818D01*
X040805Y008840D01*
X040844Y008858D01*
X040885Y008872D01*
X040927Y008883D01*
X040969Y008890D01*
X041012Y008893D01*
X041055Y008892D01*
X041098Y008887D01*
X041140Y008878D01*
X041182Y008866D01*
X041222Y008849D01*
X041260Y008829D01*
X041296Y008806D01*
X041330Y008780D01*
X041362Y008750D01*
X041391Y008718D01*
X041416Y008683D01*
X041439Y008647D01*
X041458Y008608D01*
X041473Y008568D01*
X041485Y008526D01*
X041493Y008484D01*
X041497Y008441D01*
X041497Y008397D01*
X041493Y008354D01*
X041485Y008312D01*
X041473Y008270D01*
X041458Y008230D01*
X041439Y008191D01*
X041416Y008155D01*
X041391Y008120D01*
X041362Y008088D01*
X041330Y008058D01*
X041296Y008032D01*
X041260Y008009D01*
X041222Y007989D01*
X041182Y007972D01*
X041140Y007960D01*
X041098Y007951D01*
X041055Y007946D01*
X041012Y007945D01*
X040969Y007948D01*
X040927Y007955D01*
X040885Y007966D01*
X040844Y007980D01*
X040805Y007998D01*
X040768Y008020D01*
X040732Y008045D01*
X040699Y008073D01*
X040669Y008103D01*
X040642Y008137D01*
X040618Y008173D01*
X040597Y008211D01*
X040580Y008250D01*
X040567Y008291D01*
X040557Y008333D01*
X040551Y008376D01*
X040549Y008419D01*
X042006Y008419D02*
X042008Y008462D01*
X042014Y008505D01*
X042024Y008547D01*
X042037Y008588D01*
X042054Y008627D01*
X042075Y008665D01*
X042099Y008701D01*
X042126Y008735D01*
X042156Y008765D01*
X042189Y008793D01*
X042225Y008818D01*
X042262Y008840D01*
X042301Y008858D01*
X042342Y008872D01*
X042384Y008883D01*
X042426Y008890D01*
X042469Y008893D01*
X042512Y008892D01*
X042555Y008887D01*
X042597Y008878D01*
X042639Y008866D01*
X042679Y008849D01*
X042717Y008829D01*
X042753Y008806D01*
X042787Y008780D01*
X042819Y008750D01*
X042848Y008718D01*
X042873Y008683D01*
X042896Y008647D01*
X042915Y008608D01*
X042930Y008568D01*
X042942Y008526D01*
X042950Y008484D01*
X042954Y008441D01*
X042954Y008397D01*
X042950Y008354D01*
X042942Y008312D01*
X042930Y008270D01*
X042915Y008230D01*
X042896Y008191D01*
X042873Y008155D01*
X042848Y008120D01*
X042819Y008088D01*
X042787Y008058D01*
X042753Y008032D01*
X042717Y008009D01*
X042679Y007989D01*
X042639Y007972D01*
X042597Y007960D01*
X042555Y007951D01*
X042512Y007946D01*
X042469Y007945D01*
X042426Y007948D01*
X042384Y007955D01*
X042342Y007966D01*
X042301Y007980D01*
X042262Y007998D01*
X042225Y008020D01*
X042189Y008045D01*
X042156Y008073D01*
X042126Y008103D01*
X042099Y008137D01*
X042075Y008173D01*
X042054Y008211D01*
X042037Y008250D01*
X042024Y008291D01*
X042014Y008333D01*
X042008Y008376D01*
X042006Y008419D01*
X046061Y008419D02*
X046063Y008462D01*
X046069Y008505D01*
X046079Y008547D01*
X046092Y008588D01*
X046109Y008627D01*
X046130Y008665D01*
X046154Y008701D01*
X046181Y008735D01*
X046211Y008765D01*
X046244Y008793D01*
X046280Y008818D01*
X046317Y008840D01*
X046356Y008858D01*
X046397Y008872D01*
X046439Y008883D01*
X046481Y008890D01*
X046524Y008893D01*
X046567Y008892D01*
X046610Y008887D01*
X046652Y008878D01*
X046694Y008866D01*
X046734Y008849D01*
X046772Y008829D01*
X046808Y008806D01*
X046842Y008780D01*
X046874Y008750D01*
X046903Y008718D01*
X046928Y008683D01*
X046951Y008647D01*
X046970Y008608D01*
X046985Y008568D01*
X046997Y008526D01*
X047005Y008484D01*
X047009Y008441D01*
X047009Y008397D01*
X047005Y008354D01*
X046997Y008312D01*
X046985Y008270D01*
X046970Y008230D01*
X046951Y008191D01*
X046928Y008155D01*
X046903Y008120D01*
X046874Y008088D01*
X046842Y008058D01*
X046808Y008032D01*
X046772Y008009D01*
X046734Y007989D01*
X046694Y007972D01*
X046652Y007960D01*
X046610Y007951D01*
X046567Y007946D01*
X046524Y007945D01*
X046481Y007948D01*
X046439Y007955D01*
X046397Y007966D01*
X046356Y007980D01*
X046317Y007998D01*
X046280Y008020D01*
X046244Y008045D01*
X046211Y008073D01*
X046181Y008103D01*
X046154Y008137D01*
X046130Y008173D01*
X046109Y008211D01*
X046092Y008250D01*
X046079Y008291D01*
X046069Y008333D01*
X046063Y008376D01*
X046061Y008419D01*
X047517Y008419D02*
X047519Y008462D01*
X047525Y008505D01*
X047535Y008547D01*
X047548Y008588D01*
X047565Y008627D01*
X047586Y008665D01*
X047610Y008701D01*
X047637Y008735D01*
X047667Y008765D01*
X047700Y008793D01*
X047736Y008818D01*
X047773Y008840D01*
X047812Y008858D01*
X047853Y008872D01*
X047895Y008883D01*
X047937Y008890D01*
X047980Y008893D01*
X048023Y008892D01*
X048066Y008887D01*
X048108Y008878D01*
X048150Y008866D01*
X048190Y008849D01*
X048228Y008829D01*
X048264Y008806D01*
X048298Y008780D01*
X048330Y008750D01*
X048359Y008718D01*
X048384Y008683D01*
X048407Y008647D01*
X048426Y008608D01*
X048441Y008568D01*
X048453Y008526D01*
X048461Y008484D01*
X048465Y008441D01*
X048465Y008397D01*
X048461Y008354D01*
X048453Y008312D01*
X048441Y008270D01*
X048426Y008230D01*
X048407Y008191D01*
X048384Y008155D01*
X048359Y008120D01*
X048330Y008088D01*
X048298Y008058D01*
X048264Y008032D01*
X048228Y008009D01*
X048190Y007989D01*
X048150Y007972D01*
X048108Y007960D01*
X048066Y007951D01*
X048023Y007946D01*
X047980Y007945D01*
X047937Y007948D01*
X047895Y007955D01*
X047853Y007966D01*
X047812Y007980D01*
X047773Y007998D01*
X047736Y008020D01*
X047700Y008045D01*
X047667Y008073D01*
X047637Y008103D01*
X047610Y008137D01*
X047586Y008173D01*
X047565Y008211D01*
X047548Y008250D01*
X047535Y008291D01*
X047525Y008333D01*
X047519Y008376D01*
X047517Y008419D01*
X051572Y008419D02*
X051574Y008462D01*
X051580Y008505D01*
X051590Y008547D01*
X051603Y008588D01*
X051620Y008627D01*
X051641Y008665D01*
X051665Y008701D01*
X051692Y008735D01*
X051722Y008765D01*
X051755Y008793D01*
X051791Y008818D01*
X051828Y008840D01*
X051867Y008858D01*
X051908Y008872D01*
X051950Y008883D01*
X051992Y008890D01*
X052035Y008893D01*
X052078Y008892D01*
X052121Y008887D01*
X052163Y008878D01*
X052205Y008866D01*
X052245Y008849D01*
X052283Y008829D01*
X052319Y008806D01*
X052353Y008780D01*
X052385Y008750D01*
X052414Y008718D01*
X052439Y008683D01*
X052462Y008647D01*
X052481Y008608D01*
X052496Y008568D01*
X052508Y008526D01*
X052516Y008484D01*
X052520Y008441D01*
X052520Y008397D01*
X052516Y008354D01*
X052508Y008312D01*
X052496Y008270D01*
X052481Y008230D01*
X052462Y008191D01*
X052439Y008155D01*
X052414Y008120D01*
X052385Y008088D01*
X052353Y008058D01*
X052319Y008032D01*
X052283Y008009D01*
X052245Y007989D01*
X052205Y007972D01*
X052163Y007960D01*
X052121Y007951D01*
X052078Y007946D01*
X052035Y007945D01*
X051992Y007948D01*
X051950Y007955D01*
X051908Y007966D01*
X051867Y007980D01*
X051828Y007998D01*
X051791Y008020D01*
X051755Y008045D01*
X051722Y008073D01*
X051692Y008103D01*
X051665Y008137D01*
X051641Y008173D01*
X051620Y008211D01*
X051603Y008250D01*
X051590Y008291D01*
X051580Y008333D01*
X051574Y008376D01*
X051572Y008419D01*
X053029Y008419D02*
X053031Y008462D01*
X053037Y008505D01*
X053047Y008547D01*
X053060Y008588D01*
X053077Y008627D01*
X053098Y008665D01*
X053122Y008701D01*
X053149Y008735D01*
X053179Y008765D01*
X053212Y008793D01*
X053248Y008818D01*
X053285Y008840D01*
X053324Y008858D01*
X053365Y008872D01*
X053407Y008883D01*
X053449Y008890D01*
X053492Y008893D01*
X053535Y008892D01*
X053578Y008887D01*
X053620Y008878D01*
X053662Y008866D01*
X053702Y008849D01*
X053740Y008829D01*
X053776Y008806D01*
X053810Y008780D01*
X053842Y008750D01*
X053871Y008718D01*
X053896Y008683D01*
X053919Y008647D01*
X053938Y008608D01*
X053953Y008568D01*
X053965Y008526D01*
X053973Y008484D01*
X053977Y008441D01*
X053977Y008397D01*
X053973Y008354D01*
X053965Y008312D01*
X053953Y008270D01*
X053938Y008230D01*
X053919Y008191D01*
X053896Y008155D01*
X053871Y008120D01*
X053842Y008088D01*
X053810Y008058D01*
X053776Y008032D01*
X053740Y008009D01*
X053702Y007989D01*
X053662Y007972D01*
X053620Y007960D01*
X053578Y007951D01*
X053535Y007946D01*
X053492Y007945D01*
X053449Y007948D01*
X053407Y007955D01*
X053365Y007966D01*
X053324Y007980D01*
X053285Y007998D01*
X053248Y008020D01*
X053212Y008045D01*
X053179Y008073D01*
X053149Y008103D01*
X053122Y008137D01*
X053098Y008173D01*
X053077Y008211D01*
X053060Y008250D01*
X053047Y008291D01*
X053037Y008333D01*
X053031Y008376D01*
X053029Y008419D01*
X057084Y008419D02*
X057086Y008462D01*
X057092Y008505D01*
X057102Y008547D01*
X057115Y008588D01*
X057132Y008627D01*
X057153Y008665D01*
X057177Y008701D01*
X057204Y008735D01*
X057234Y008765D01*
X057267Y008793D01*
X057303Y008818D01*
X057340Y008840D01*
X057379Y008858D01*
X057420Y008872D01*
X057462Y008883D01*
X057504Y008890D01*
X057547Y008893D01*
X057590Y008892D01*
X057633Y008887D01*
X057675Y008878D01*
X057717Y008866D01*
X057757Y008849D01*
X057795Y008829D01*
X057831Y008806D01*
X057865Y008780D01*
X057897Y008750D01*
X057926Y008718D01*
X057951Y008683D01*
X057974Y008647D01*
X057993Y008608D01*
X058008Y008568D01*
X058020Y008526D01*
X058028Y008484D01*
X058032Y008441D01*
X058032Y008397D01*
X058028Y008354D01*
X058020Y008312D01*
X058008Y008270D01*
X057993Y008230D01*
X057974Y008191D01*
X057951Y008155D01*
X057926Y008120D01*
X057897Y008088D01*
X057865Y008058D01*
X057831Y008032D01*
X057795Y008009D01*
X057757Y007989D01*
X057717Y007972D01*
X057675Y007960D01*
X057633Y007951D01*
X057590Y007946D01*
X057547Y007945D01*
X057504Y007948D01*
X057462Y007955D01*
X057420Y007966D01*
X057379Y007980D01*
X057340Y007998D01*
X057303Y008020D01*
X057267Y008045D01*
X057234Y008073D01*
X057204Y008103D01*
X057177Y008137D01*
X057153Y008173D01*
X057132Y008211D01*
X057115Y008250D01*
X057102Y008291D01*
X057092Y008333D01*
X057086Y008376D01*
X057084Y008419D01*
X058541Y008419D02*
X058543Y008462D01*
X058549Y008505D01*
X058559Y008547D01*
X058572Y008588D01*
X058589Y008627D01*
X058610Y008665D01*
X058634Y008701D01*
X058661Y008735D01*
X058691Y008765D01*
X058724Y008793D01*
X058760Y008818D01*
X058797Y008840D01*
X058836Y008858D01*
X058877Y008872D01*
X058919Y008883D01*
X058961Y008890D01*
X059004Y008893D01*
X059047Y008892D01*
X059090Y008887D01*
X059132Y008878D01*
X059174Y008866D01*
X059214Y008849D01*
X059252Y008829D01*
X059288Y008806D01*
X059322Y008780D01*
X059354Y008750D01*
X059383Y008718D01*
X059408Y008683D01*
X059431Y008647D01*
X059450Y008608D01*
X059465Y008568D01*
X059477Y008526D01*
X059485Y008484D01*
X059489Y008441D01*
X059489Y008397D01*
X059485Y008354D01*
X059477Y008312D01*
X059465Y008270D01*
X059450Y008230D01*
X059431Y008191D01*
X059408Y008155D01*
X059383Y008120D01*
X059354Y008088D01*
X059322Y008058D01*
X059288Y008032D01*
X059252Y008009D01*
X059214Y007989D01*
X059174Y007972D01*
X059132Y007960D01*
X059090Y007951D01*
X059047Y007946D01*
X059004Y007945D01*
X058961Y007948D01*
X058919Y007955D01*
X058877Y007966D01*
X058836Y007980D01*
X058797Y007998D01*
X058760Y008020D01*
X058724Y008045D01*
X058691Y008073D01*
X058661Y008103D01*
X058634Y008137D01*
X058610Y008173D01*
X058589Y008211D01*
X058572Y008250D01*
X058559Y008291D01*
X058549Y008333D01*
X058543Y008376D01*
X058541Y008419D01*
X062596Y008419D02*
X062598Y008462D01*
X062604Y008505D01*
X062614Y008547D01*
X062627Y008588D01*
X062644Y008627D01*
X062665Y008665D01*
X062689Y008701D01*
X062716Y008735D01*
X062746Y008765D01*
X062779Y008793D01*
X062815Y008818D01*
X062852Y008840D01*
X062891Y008858D01*
X062932Y008872D01*
X062974Y008883D01*
X063016Y008890D01*
X063059Y008893D01*
X063102Y008892D01*
X063145Y008887D01*
X063187Y008878D01*
X063229Y008866D01*
X063269Y008849D01*
X063307Y008829D01*
X063343Y008806D01*
X063377Y008780D01*
X063409Y008750D01*
X063438Y008718D01*
X063463Y008683D01*
X063486Y008647D01*
X063505Y008608D01*
X063520Y008568D01*
X063532Y008526D01*
X063540Y008484D01*
X063544Y008441D01*
X063544Y008397D01*
X063540Y008354D01*
X063532Y008312D01*
X063520Y008270D01*
X063505Y008230D01*
X063486Y008191D01*
X063463Y008155D01*
X063438Y008120D01*
X063409Y008088D01*
X063377Y008058D01*
X063343Y008032D01*
X063307Y008009D01*
X063269Y007989D01*
X063229Y007972D01*
X063187Y007960D01*
X063145Y007951D01*
X063102Y007946D01*
X063059Y007945D01*
X063016Y007948D01*
X062974Y007955D01*
X062932Y007966D01*
X062891Y007980D01*
X062852Y007998D01*
X062815Y008020D01*
X062779Y008045D01*
X062746Y008073D01*
X062716Y008103D01*
X062689Y008137D01*
X062665Y008173D01*
X062644Y008211D01*
X062627Y008250D01*
X062614Y008291D01*
X062604Y008333D01*
X062598Y008376D01*
X062596Y008419D01*
X064053Y008419D02*
X064055Y008462D01*
X064061Y008505D01*
X064071Y008547D01*
X064084Y008588D01*
X064101Y008627D01*
X064122Y008665D01*
X064146Y008701D01*
X064173Y008735D01*
X064203Y008765D01*
X064236Y008793D01*
X064272Y008818D01*
X064309Y008840D01*
X064348Y008858D01*
X064389Y008872D01*
X064431Y008883D01*
X064473Y008890D01*
X064516Y008893D01*
X064559Y008892D01*
X064602Y008887D01*
X064644Y008878D01*
X064686Y008866D01*
X064726Y008849D01*
X064764Y008829D01*
X064800Y008806D01*
X064834Y008780D01*
X064866Y008750D01*
X064895Y008718D01*
X064920Y008683D01*
X064943Y008647D01*
X064962Y008608D01*
X064977Y008568D01*
X064989Y008526D01*
X064997Y008484D01*
X065001Y008441D01*
X065001Y008397D01*
X064997Y008354D01*
X064989Y008312D01*
X064977Y008270D01*
X064962Y008230D01*
X064943Y008191D01*
X064920Y008155D01*
X064895Y008120D01*
X064866Y008088D01*
X064834Y008058D01*
X064800Y008032D01*
X064764Y008009D01*
X064726Y007989D01*
X064686Y007972D01*
X064644Y007960D01*
X064602Y007951D01*
X064559Y007946D01*
X064516Y007945D01*
X064473Y007948D01*
X064431Y007955D01*
X064389Y007966D01*
X064348Y007980D01*
X064309Y007998D01*
X064272Y008020D01*
X064236Y008045D01*
X064203Y008073D01*
X064173Y008103D01*
X064146Y008137D01*
X064122Y008173D01*
X064101Y008211D01*
X064084Y008250D01*
X064071Y008291D01*
X064061Y008333D01*
X064055Y008376D01*
X064053Y008419D01*
X068108Y008419D02*
X068110Y008462D01*
X068116Y008505D01*
X068126Y008547D01*
X068139Y008588D01*
X068156Y008627D01*
X068177Y008665D01*
X068201Y008701D01*
X068228Y008735D01*
X068258Y008765D01*
X068291Y008793D01*
X068327Y008818D01*
X068364Y008840D01*
X068403Y008858D01*
X068444Y008872D01*
X068486Y008883D01*
X068528Y008890D01*
X068571Y008893D01*
X068614Y008892D01*
X068657Y008887D01*
X068699Y008878D01*
X068741Y008866D01*
X068781Y008849D01*
X068819Y008829D01*
X068855Y008806D01*
X068889Y008780D01*
X068921Y008750D01*
X068950Y008718D01*
X068975Y008683D01*
X068998Y008647D01*
X069017Y008608D01*
X069032Y008568D01*
X069044Y008526D01*
X069052Y008484D01*
X069056Y008441D01*
X069056Y008397D01*
X069052Y008354D01*
X069044Y008312D01*
X069032Y008270D01*
X069017Y008230D01*
X068998Y008191D01*
X068975Y008155D01*
X068950Y008120D01*
X068921Y008088D01*
X068889Y008058D01*
X068855Y008032D01*
X068819Y008009D01*
X068781Y007989D01*
X068741Y007972D01*
X068699Y007960D01*
X068657Y007951D01*
X068614Y007946D01*
X068571Y007945D01*
X068528Y007948D01*
X068486Y007955D01*
X068444Y007966D01*
X068403Y007980D01*
X068364Y007998D01*
X068327Y008020D01*
X068291Y008045D01*
X068258Y008073D01*
X068228Y008103D01*
X068201Y008137D01*
X068177Y008173D01*
X068156Y008211D01*
X068139Y008250D01*
X068126Y008291D01*
X068116Y008333D01*
X068110Y008376D01*
X068108Y008419D01*
X071592Y010446D02*
X071594Y010489D01*
X071600Y010532D01*
X071610Y010574D01*
X071623Y010615D01*
X071640Y010654D01*
X071661Y010692D01*
X071685Y010728D01*
X071712Y010762D01*
X071742Y010792D01*
X071775Y010820D01*
X071811Y010845D01*
X071848Y010867D01*
X071887Y010885D01*
X071928Y010899D01*
X071970Y010910D01*
X072012Y010917D01*
X072055Y010920D01*
X072098Y010919D01*
X072141Y010914D01*
X072183Y010905D01*
X072225Y010893D01*
X072265Y010876D01*
X072303Y010856D01*
X072339Y010833D01*
X072373Y010807D01*
X072405Y010777D01*
X072434Y010745D01*
X072459Y010710D01*
X072482Y010674D01*
X072501Y010635D01*
X072516Y010595D01*
X072528Y010553D01*
X072536Y010511D01*
X072540Y010468D01*
X072540Y010424D01*
X072536Y010381D01*
X072528Y010339D01*
X072516Y010297D01*
X072501Y010257D01*
X072482Y010218D01*
X072459Y010182D01*
X072434Y010147D01*
X072405Y010115D01*
X072373Y010085D01*
X072339Y010059D01*
X072303Y010036D01*
X072265Y010016D01*
X072225Y009999D01*
X072183Y009987D01*
X072141Y009978D01*
X072098Y009973D01*
X072055Y009972D01*
X072012Y009975D01*
X071970Y009982D01*
X071928Y009993D01*
X071887Y010007D01*
X071848Y010025D01*
X071811Y010047D01*
X071775Y010072D01*
X071742Y010100D01*
X071712Y010130D01*
X071685Y010164D01*
X071661Y010200D01*
X071640Y010238D01*
X071623Y010277D01*
X071610Y010318D01*
X071600Y010360D01*
X071594Y010403D01*
X071592Y010446D01*
X071592Y006391D02*
X071594Y006434D01*
X071600Y006477D01*
X071610Y006519D01*
X071623Y006560D01*
X071640Y006599D01*
X071661Y006637D01*
X071685Y006673D01*
X071712Y006707D01*
X071742Y006737D01*
X071775Y006765D01*
X071811Y006790D01*
X071848Y006812D01*
X071887Y006830D01*
X071928Y006844D01*
X071970Y006855D01*
X072012Y006862D01*
X072055Y006865D01*
X072098Y006864D01*
X072141Y006859D01*
X072183Y006850D01*
X072225Y006838D01*
X072265Y006821D01*
X072303Y006801D01*
X072339Y006778D01*
X072373Y006752D01*
X072405Y006722D01*
X072434Y006690D01*
X072459Y006655D01*
X072482Y006619D01*
X072501Y006580D01*
X072516Y006540D01*
X072528Y006498D01*
X072536Y006456D01*
X072540Y006413D01*
X072540Y006369D01*
X072536Y006326D01*
X072528Y006284D01*
X072516Y006242D01*
X072501Y006202D01*
X072482Y006163D01*
X072459Y006127D01*
X072434Y006092D01*
X072405Y006060D01*
X072373Y006030D01*
X072339Y006004D01*
X072303Y005981D01*
X072265Y005961D01*
X072225Y005944D01*
X072183Y005932D01*
X072141Y005923D01*
X072098Y005918D01*
X072055Y005917D01*
X072012Y005920D01*
X071970Y005927D01*
X071928Y005938D01*
X071887Y005952D01*
X071848Y005970D01*
X071811Y005992D01*
X071775Y006017D01*
X071742Y006045D01*
X071712Y006075D01*
X071685Y006109D01*
X071661Y006145D01*
X071640Y006183D01*
X071623Y006222D01*
X071610Y006263D01*
X071600Y006305D01*
X071594Y006348D01*
X071592Y006391D01*
X068562Y003694D02*
X068564Y003741D01*
X068570Y003787D01*
X068580Y003833D01*
X068593Y003878D01*
X068611Y003921D01*
X068632Y003963D01*
X068656Y004003D01*
X068684Y004040D01*
X068715Y004075D01*
X068749Y004108D01*
X068785Y004137D01*
X068824Y004163D01*
X068865Y004186D01*
X068908Y004205D01*
X068952Y004221D01*
X068997Y004233D01*
X069043Y004241D01*
X069090Y004245D01*
X069136Y004245D01*
X069183Y004241D01*
X069229Y004233D01*
X069274Y004221D01*
X069318Y004205D01*
X069361Y004186D01*
X069402Y004163D01*
X069441Y004137D01*
X069477Y004108D01*
X069511Y004075D01*
X069542Y004040D01*
X069570Y004003D01*
X069594Y003963D01*
X069615Y003921D01*
X069633Y003878D01*
X069646Y003833D01*
X069656Y003787D01*
X069662Y003741D01*
X069664Y003694D01*
X069662Y003647D01*
X069656Y003601D01*
X069646Y003555D01*
X069633Y003510D01*
X069615Y003467D01*
X069594Y003425D01*
X069570Y003385D01*
X069542Y003348D01*
X069511Y003313D01*
X069477Y003280D01*
X069441Y003251D01*
X069402Y003225D01*
X069361Y003202D01*
X069318Y003183D01*
X069274Y003167D01*
X069229Y003155D01*
X069183Y003147D01*
X069136Y003143D01*
X069090Y003143D01*
X069043Y003147D01*
X068997Y003155D01*
X068952Y003167D01*
X068908Y003183D01*
X068865Y003202D01*
X068824Y003225D01*
X068785Y003251D01*
X068749Y003280D01*
X068715Y003313D01*
X068684Y003348D01*
X068656Y003385D01*
X068632Y003425D01*
X068611Y003467D01*
X068593Y003510D01*
X068580Y003555D01*
X068570Y003601D01*
X068564Y003647D01*
X068562Y003694D01*
X069565Y002907D02*
X069567Y002950D01*
X069573Y002993D01*
X069583Y003035D01*
X069596Y003076D01*
X069613Y003115D01*
X069634Y003153D01*
X069658Y003189D01*
X069685Y003223D01*
X069715Y003253D01*
X069748Y003281D01*
X069784Y003306D01*
X069821Y003328D01*
X069860Y003346D01*
X069901Y003360D01*
X069943Y003371D01*
X069985Y003378D01*
X070028Y003381D01*
X070071Y003380D01*
X070114Y003375D01*
X070156Y003366D01*
X070198Y003354D01*
X070238Y003337D01*
X070276Y003317D01*
X070312Y003294D01*
X070346Y003268D01*
X070378Y003238D01*
X070407Y003206D01*
X070432Y003171D01*
X070455Y003135D01*
X070474Y003096D01*
X070489Y003056D01*
X070501Y003014D01*
X070509Y002972D01*
X070513Y002929D01*
X070513Y002885D01*
X070509Y002842D01*
X070501Y002800D01*
X070489Y002758D01*
X070474Y002718D01*
X070455Y002679D01*
X070432Y002643D01*
X070407Y002608D01*
X070378Y002576D01*
X070346Y002546D01*
X070312Y002520D01*
X070276Y002497D01*
X070238Y002477D01*
X070198Y002460D01*
X070156Y002448D01*
X070114Y002439D01*
X070071Y002434D01*
X070028Y002433D01*
X069985Y002436D01*
X069943Y002443D01*
X069901Y002454D01*
X069860Y002468D01*
X069821Y002486D01*
X069784Y002508D01*
X069748Y002533D01*
X069715Y002561D01*
X069685Y002591D01*
X069658Y002625D01*
X069634Y002661D01*
X069613Y002699D01*
X069596Y002738D01*
X069583Y002779D01*
X069573Y002821D01*
X069567Y002864D01*
X069565Y002907D01*
X068650Y001135D02*
X068652Y001178D01*
X068658Y001220D01*
X068668Y001262D01*
X068681Y001302D01*
X068699Y001341D01*
X068719Y001379D01*
X068744Y001414D01*
X068771Y001447D01*
X068801Y001477D01*
X068834Y001504D01*
X068869Y001529D01*
X068907Y001549D01*
X068946Y001567D01*
X068986Y001580D01*
X069028Y001590D01*
X069070Y001596D01*
X069113Y001598D01*
X069156Y001596D01*
X069198Y001590D01*
X069240Y001580D01*
X069280Y001567D01*
X069319Y001549D01*
X069357Y001529D01*
X069392Y001504D01*
X069425Y001477D01*
X069455Y001447D01*
X069482Y001414D01*
X069507Y001379D01*
X069527Y001341D01*
X069545Y001302D01*
X069558Y001262D01*
X069568Y001220D01*
X069574Y001178D01*
X069576Y001135D01*
X069574Y001092D01*
X069568Y001050D01*
X069558Y001008D01*
X069545Y000968D01*
X069527Y000929D01*
X069507Y000891D01*
X069482Y000856D01*
X069455Y000823D01*
X069425Y000793D01*
X069392Y000766D01*
X069357Y000741D01*
X069319Y000721D01*
X069280Y000703D01*
X069240Y000690D01*
X069198Y000680D01*
X069156Y000674D01*
X069113Y000672D01*
X069070Y000674D01*
X069028Y000680D01*
X068986Y000690D01*
X068946Y000703D01*
X068907Y000721D01*
X068869Y000741D01*
X068834Y000766D01*
X068801Y000793D01*
X068771Y000823D01*
X068744Y000856D01*
X068719Y000891D01*
X068699Y000929D01*
X068681Y000968D01*
X068668Y001008D01*
X068658Y001050D01*
X068652Y001092D01*
X068650Y001135D01*
X062745Y001135D02*
X062747Y001178D01*
X062753Y001220D01*
X062763Y001262D01*
X062776Y001302D01*
X062794Y001341D01*
X062814Y001379D01*
X062839Y001414D01*
X062866Y001447D01*
X062896Y001477D01*
X062929Y001504D01*
X062964Y001529D01*
X063002Y001549D01*
X063041Y001567D01*
X063081Y001580D01*
X063123Y001590D01*
X063165Y001596D01*
X063208Y001598D01*
X063251Y001596D01*
X063293Y001590D01*
X063335Y001580D01*
X063375Y001567D01*
X063414Y001549D01*
X063452Y001529D01*
X063487Y001504D01*
X063520Y001477D01*
X063550Y001447D01*
X063577Y001414D01*
X063602Y001379D01*
X063622Y001341D01*
X063640Y001302D01*
X063653Y001262D01*
X063663Y001220D01*
X063669Y001178D01*
X063671Y001135D01*
X063669Y001092D01*
X063663Y001050D01*
X063653Y001008D01*
X063640Y000968D01*
X063622Y000929D01*
X063602Y000891D01*
X063577Y000856D01*
X063550Y000823D01*
X063520Y000793D01*
X063487Y000766D01*
X063452Y000741D01*
X063414Y000721D01*
X063375Y000703D01*
X063335Y000690D01*
X063293Y000680D01*
X063251Y000674D01*
X063208Y000672D01*
X063165Y000674D01*
X063123Y000680D01*
X063081Y000690D01*
X063041Y000703D01*
X063002Y000721D01*
X062964Y000741D01*
X062929Y000766D01*
X062896Y000793D01*
X062866Y000823D01*
X062839Y000856D01*
X062814Y000891D01*
X062794Y000929D01*
X062776Y000968D01*
X062763Y001008D01*
X062753Y001050D01*
X062747Y001092D01*
X062745Y001135D01*
X059989Y001135D02*
X059991Y001178D01*
X059997Y001220D01*
X060007Y001262D01*
X060020Y001302D01*
X060038Y001341D01*
X060058Y001379D01*
X060083Y001414D01*
X060110Y001447D01*
X060140Y001477D01*
X060173Y001504D01*
X060208Y001529D01*
X060246Y001549D01*
X060285Y001567D01*
X060325Y001580D01*
X060367Y001590D01*
X060409Y001596D01*
X060452Y001598D01*
X060495Y001596D01*
X060537Y001590D01*
X060579Y001580D01*
X060619Y001567D01*
X060658Y001549D01*
X060696Y001529D01*
X060731Y001504D01*
X060764Y001477D01*
X060794Y001447D01*
X060821Y001414D01*
X060846Y001379D01*
X060866Y001341D01*
X060884Y001302D01*
X060897Y001262D01*
X060907Y001220D01*
X060913Y001178D01*
X060915Y001135D01*
X060913Y001092D01*
X060907Y001050D01*
X060897Y001008D01*
X060884Y000968D01*
X060866Y000929D01*
X060846Y000891D01*
X060821Y000856D01*
X060794Y000823D01*
X060764Y000793D01*
X060731Y000766D01*
X060696Y000741D01*
X060658Y000721D01*
X060619Y000703D01*
X060579Y000690D01*
X060537Y000680D01*
X060495Y000674D01*
X060452Y000672D01*
X060409Y000674D01*
X060367Y000680D01*
X060325Y000690D01*
X060285Y000703D01*
X060246Y000721D01*
X060208Y000741D01*
X060173Y000766D01*
X060140Y000793D01*
X060110Y000823D01*
X060083Y000856D01*
X060058Y000891D01*
X060038Y000929D01*
X060020Y000968D01*
X060007Y001008D01*
X059997Y001050D01*
X059991Y001092D01*
X059989Y001135D01*
X054083Y001135D02*
X054085Y001178D01*
X054091Y001220D01*
X054101Y001262D01*
X054114Y001302D01*
X054132Y001341D01*
X054152Y001379D01*
X054177Y001414D01*
X054204Y001447D01*
X054234Y001477D01*
X054267Y001504D01*
X054302Y001529D01*
X054340Y001549D01*
X054379Y001567D01*
X054419Y001580D01*
X054461Y001590D01*
X054503Y001596D01*
X054546Y001598D01*
X054589Y001596D01*
X054631Y001590D01*
X054673Y001580D01*
X054713Y001567D01*
X054752Y001549D01*
X054790Y001529D01*
X054825Y001504D01*
X054858Y001477D01*
X054888Y001447D01*
X054915Y001414D01*
X054940Y001379D01*
X054960Y001341D01*
X054978Y001302D01*
X054991Y001262D01*
X055001Y001220D01*
X055007Y001178D01*
X055009Y001135D01*
X055007Y001092D01*
X055001Y001050D01*
X054991Y001008D01*
X054978Y000968D01*
X054960Y000929D01*
X054940Y000891D01*
X054915Y000856D01*
X054888Y000823D01*
X054858Y000793D01*
X054825Y000766D01*
X054790Y000741D01*
X054752Y000721D01*
X054713Y000703D01*
X054673Y000690D01*
X054631Y000680D01*
X054589Y000674D01*
X054546Y000672D01*
X054503Y000674D01*
X054461Y000680D01*
X054419Y000690D01*
X054379Y000703D01*
X054340Y000721D01*
X054302Y000741D01*
X054267Y000766D01*
X054234Y000793D01*
X054204Y000823D01*
X054177Y000856D01*
X054152Y000891D01*
X054132Y000929D01*
X054114Y000968D01*
X054101Y001008D01*
X054091Y001050D01*
X054085Y001092D01*
X054083Y001135D01*
X051328Y001135D02*
X051330Y001178D01*
X051336Y001220D01*
X051346Y001262D01*
X051359Y001302D01*
X051377Y001341D01*
X051397Y001379D01*
X051422Y001414D01*
X051449Y001447D01*
X051479Y001477D01*
X051512Y001504D01*
X051547Y001529D01*
X051585Y001549D01*
X051624Y001567D01*
X051664Y001580D01*
X051706Y001590D01*
X051748Y001596D01*
X051791Y001598D01*
X051834Y001596D01*
X051876Y001590D01*
X051918Y001580D01*
X051958Y001567D01*
X051997Y001549D01*
X052035Y001529D01*
X052070Y001504D01*
X052103Y001477D01*
X052133Y001447D01*
X052160Y001414D01*
X052185Y001379D01*
X052205Y001341D01*
X052223Y001302D01*
X052236Y001262D01*
X052246Y001220D01*
X052252Y001178D01*
X052254Y001135D01*
X052252Y001092D01*
X052246Y001050D01*
X052236Y001008D01*
X052223Y000968D01*
X052205Y000929D01*
X052185Y000891D01*
X052160Y000856D01*
X052133Y000823D01*
X052103Y000793D01*
X052070Y000766D01*
X052035Y000741D01*
X051997Y000721D01*
X051958Y000703D01*
X051918Y000690D01*
X051876Y000680D01*
X051834Y000674D01*
X051791Y000672D01*
X051748Y000674D01*
X051706Y000680D01*
X051664Y000690D01*
X051624Y000703D01*
X051585Y000721D01*
X051547Y000741D01*
X051512Y000766D01*
X051479Y000793D01*
X051449Y000823D01*
X051422Y000856D01*
X051397Y000891D01*
X051377Y000929D01*
X051359Y000968D01*
X051346Y001008D01*
X051336Y001050D01*
X051330Y001092D01*
X051328Y001135D01*
X051240Y003694D02*
X051242Y003741D01*
X051248Y003787D01*
X051258Y003833D01*
X051271Y003878D01*
X051289Y003921D01*
X051310Y003963D01*
X051334Y004003D01*
X051362Y004040D01*
X051393Y004075D01*
X051427Y004108D01*
X051463Y004137D01*
X051502Y004163D01*
X051543Y004186D01*
X051586Y004205D01*
X051630Y004221D01*
X051675Y004233D01*
X051721Y004241D01*
X051768Y004245D01*
X051814Y004245D01*
X051861Y004241D01*
X051907Y004233D01*
X051952Y004221D01*
X051996Y004205D01*
X052039Y004186D01*
X052080Y004163D01*
X052119Y004137D01*
X052155Y004108D01*
X052189Y004075D01*
X052220Y004040D01*
X052248Y004003D01*
X052272Y003963D01*
X052293Y003921D01*
X052311Y003878D01*
X052324Y003833D01*
X052334Y003787D01*
X052340Y003741D01*
X052342Y003694D01*
X052340Y003647D01*
X052334Y003601D01*
X052324Y003555D01*
X052311Y003510D01*
X052293Y003467D01*
X052272Y003425D01*
X052248Y003385D01*
X052220Y003348D01*
X052189Y003313D01*
X052155Y003280D01*
X052119Y003251D01*
X052080Y003225D01*
X052039Y003202D01*
X051996Y003183D01*
X051952Y003167D01*
X051907Y003155D01*
X051861Y003147D01*
X051814Y003143D01*
X051768Y003143D01*
X051721Y003147D01*
X051675Y003155D01*
X051630Y003167D01*
X051586Y003183D01*
X051543Y003202D01*
X051502Y003225D01*
X051463Y003251D01*
X051427Y003280D01*
X051393Y003313D01*
X051362Y003348D01*
X051334Y003385D01*
X051310Y003425D01*
X051289Y003467D01*
X051271Y003510D01*
X051258Y003555D01*
X051248Y003601D01*
X051242Y003647D01*
X051240Y003694D01*
X053995Y003694D02*
X053997Y003741D01*
X054003Y003787D01*
X054013Y003833D01*
X054026Y003878D01*
X054044Y003921D01*
X054065Y003963D01*
X054089Y004003D01*
X054117Y004040D01*
X054148Y004075D01*
X054182Y004108D01*
X054218Y004137D01*
X054257Y004163D01*
X054298Y004186D01*
X054341Y004205D01*
X054385Y004221D01*
X054430Y004233D01*
X054476Y004241D01*
X054523Y004245D01*
X054569Y004245D01*
X054616Y004241D01*
X054662Y004233D01*
X054707Y004221D01*
X054751Y004205D01*
X054794Y004186D01*
X054835Y004163D01*
X054874Y004137D01*
X054910Y004108D01*
X054944Y004075D01*
X054975Y004040D01*
X055003Y004003D01*
X055027Y003963D01*
X055048Y003921D01*
X055066Y003878D01*
X055079Y003833D01*
X055089Y003787D01*
X055095Y003741D01*
X055097Y003694D01*
X055095Y003647D01*
X055089Y003601D01*
X055079Y003555D01*
X055066Y003510D01*
X055048Y003467D01*
X055027Y003425D01*
X055003Y003385D01*
X054975Y003348D01*
X054944Y003313D01*
X054910Y003280D01*
X054874Y003251D01*
X054835Y003225D01*
X054794Y003202D01*
X054751Y003183D01*
X054707Y003167D01*
X054662Y003155D01*
X054616Y003147D01*
X054569Y003143D01*
X054523Y003143D01*
X054476Y003147D01*
X054430Y003155D01*
X054385Y003167D01*
X054341Y003183D01*
X054298Y003202D01*
X054257Y003225D01*
X054218Y003251D01*
X054182Y003280D01*
X054148Y003313D01*
X054117Y003348D01*
X054089Y003385D01*
X054065Y003425D01*
X054044Y003467D01*
X054026Y003510D01*
X054013Y003555D01*
X054003Y003601D01*
X053997Y003647D01*
X053995Y003694D01*
X059901Y003694D02*
X059903Y003741D01*
X059909Y003787D01*
X059919Y003833D01*
X059932Y003878D01*
X059950Y003921D01*
X059971Y003963D01*
X059995Y004003D01*
X060023Y004040D01*
X060054Y004075D01*
X060088Y004108D01*
X060124Y004137D01*
X060163Y004163D01*
X060204Y004186D01*
X060247Y004205D01*
X060291Y004221D01*
X060336Y004233D01*
X060382Y004241D01*
X060429Y004245D01*
X060475Y004245D01*
X060522Y004241D01*
X060568Y004233D01*
X060613Y004221D01*
X060657Y004205D01*
X060700Y004186D01*
X060741Y004163D01*
X060780Y004137D01*
X060816Y004108D01*
X060850Y004075D01*
X060881Y004040D01*
X060909Y004003D01*
X060933Y003963D01*
X060954Y003921D01*
X060972Y003878D01*
X060985Y003833D01*
X060995Y003787D01*
X061001Y003741D01*
X061003Y003694D01*
X061001Y003647D01*
X060995Y003601D01*
X060985Y003555D01*
X060972Y003510D01*
X060954Y003467D01*
X060933Y003425D01*
X060909Y003385D01*
X060881Y003348D01*
X060850Y003313D01*
X060816Y003280D01*
X060780Y003251D01*
X060741Y003225D01*
X060700Y003202D01*
X060657Y003183D01*
X060613Y003167D01*
X060568Y003155D01*
X060522Y003147D01*
X060475Y003143D01*
X060429Y003143D01*
X060382Y003147D01*
X060336Y003155D01*
X060291Y003167D01*
X060247Y003183D01*
X060204Y003202D01*
X060163Y003225D01*
X060124Y003251D01*
X060088Y003280D01*
X060054Y003313D01*
X060023Y003348D01*
X059995Y003385D01*
X059971Y003425D01*
X059950Y003467D01*
X059932Y003510D01*
X059919Y003555D01*
X059909Y003601D01*
X059903Y003647D01*
X059901Y003694D01*
X062657Y003694D02*
X062659Y003741D01*
X062665Y003787D01*
X062675Y003833D01*
X062688Y003878D01*
X062706Y003921D01*
X062727Y003963D01*
X062751Y004003D01*
X062779Y004040D01*
X062810Y004075D01*
X062844Y004108D01*
X062880Y004137D01*
X062919Y004163D01*
X062960Y004186D01*
X063003Y004205D01*
X063047Y004221D01*
X063092Y004233D01*
X063138Y004241D01*
X063185Y004245D01*
X063231Y004245D01*
X063278Y004241D01*
X063324Y004233D01*
X063369Y004221D01*
X063413Y004205D01*
X063456Y004186D01*
X063497Y004163D01*
X063536Y004137D01*
X063572Y004108D01*
X063606Y004075D01*
X063637Y004040D01*
X063665Y004003D01*
X063689Y003963D01*
X063710Y003921D01*
X063728Y003878D01*
X063741Y003833D01*
X063751Y003787D01*
X063757Y003741D01*
X063759Y003694D01*
X063757Y003647D01*
X063751Y003601D01*
X063741Y003555D01*
X063728Y003510D01*
X063710Y003467D01*
X063689Y003425D01*
X063665Y003385D01*
X063637Y003348D01*
X063606Y003313D01*
X063572Y003280D01*
X063536Y003251D01*
X063497Y003225D01*
X063456Y003202D01*
X063413Y003183D01*
X063369Y003167D01*
X063324Y003155D01*
X063278Y003147D01*
X063231Y003143D01*
X063185Y003143D01*
X063138Y003147D01*
X063092Y003155D01*
X063047Y003167D01*
X063003Y003183D01*
X062960Y003202D01*
X062919Y003225D01*
X062880Y003251D01*
X062844Y003280D01*
X062810Y003313D01*
X062779Y003348D01*
X062751Y003385D01*
X062727Y003425D01*
X062706Y003467D01*
X062688Y003510D01*
X062675Y003555D01*
X062665Y003601D01*
X062659Y003647D01*
X062657Y003694D01*
X073620Y002907D02*
X073622Y002950D01*
X073628Y002993D01*
X073638Y003035D01*
X073651Y003076D01*
X073668Y003115D01*
X073689Y003153D01*
X073713Y003189D01*
X073740Y003223D01*
X073770Y003253D01*
X073803Y003281D01*
X073839Y003306D01*
X073876Y003328D01*
X073915Y003346D01*
X073956Y003360D01*
X073998Y003371D01*
X074040Y003378D01*
X074083Y003381D01*
X074126Y003380D01*
X074169Y003375D01*
X074211Y003366D01*
X074253Y003354D01*
X074293Y003337D01*
X074331Y003317D01*
X074367Y003294D01*
X074401Y003268D01*
X074433Y003238D01*
X074462Y003206D01*
X074487Y003171D01*
X074510Y003135D01*
X074529Y003096D01*
X074544Y003056D01*
X074556Y003014D01*
X074564Y002972D01*
X074568Y002929D01*
X074568Y002885D01*
X074564Y002842D01*
X074556Y002800D01*
X074544Y002758D01*
X074529Y002718D01*
X074510Y002679D01*
X074487Y002643D01*
X074462Y002608D01*
X074433Y002576D01*
X074401Y002546D01*
X074367Y002520D01*
X074331Y002497D01*
X074293Y002477D01*
X074253Y002460D01*
X074211Y002448D01*
X074169Y002439D01*
X074126Y002434D01*
X074083Y002433D01*
X074040Y002436D01*
X073998Y002443D01*
X073956Y002454D01*
X073915Y002468D01*
X073876Y002486D01*
X073839Y002508D01*
X073803Y002533D01*
X073770Y002561D01*
X073740Y002591D01*
X073713Y002625D01*
X073689Y002661D01*
X073668Y002699D01*
X073651Y002738D01*
X073638Y002779D01*
X073628Y002821D01*
X073622Y002864D01*
X073620Y002907D01*
M02*
