G75*
G70*
%OFA0B0*%
%FSLAX24Y24*%
%IPPOS*%
%LPD*%
%AMOC8*
5,1,8,0,0,1.08239X$1,22.5*
%
%ADD10C,0.0100*%
%ADD11C,0.0709*%
%ADD12C,0.0000*%
%ADD13C,0.0768*%
%ADD14R,0.0500X0.1000*%
%ADD15C,0.0320*%
%ADD16C,0.0376*%
%ADD17C,0.0416*%
%ADD18C,0.0160*%
D10*
X027184Y001756D02*
X027184Y009630D01*
X027186Y009707D01*
X027192Y009784D01*
X027201Y009861D01*
X027214Y009937D01*
X027231Y010013D01*
X027252Y010087D01*
X027276Y010161D01*
X027304Y010233D01*
X027335Y010303D01*
X027370Y010372D01*
X027408Y010440D01*
X027449Y010505D01*
X027494Y010568D01*
X027542Y010629D01*
X027592Y010688D01*
X027645Y010744D01*
X027701Y010797D01*
X027760Y010847D01*
X027821Y010895D01*
X027884Y010940D01*
X027949Y010981D01*
X028017Y011019D01*
X028086Y011054D01*
X028156Y011085D01*
X028228Y011113D01*
X028302Y011137D01*
X028376Y011158D01*
X028452Y011175D01*
X028528Y011188D01*
X028605Y011197D01*
X028682Y011203D01*
X028759Y011205D01*
X077578Y011205D01*
X077662Y011194D01*
X077745Y011178D01*
X077828Y011159D01*
X077910Y011136D01*
X077990Y011109D01*
X078069Y011078D01*
X078147Y011043D01*
X078222Y011005D01*
X078296Y010963D01*
X078368Y010918D01*
X078438Y010869D01*
X078505Y010817D01*
X078569Y010762D01*
X078631Y010704D01*
X078690Y010643D01*
X078746Y010580D01*
X078799Y010513D01*
X078849Y010445D01*
X078896Y010374D01*
X078939Y010301D01*
X078978Y010225D01*
X079014Y010149D01*
X079046Y010070D01*
X079075Y009990D01*
X079099Y009909D01*
X079120Y009827D01*
X079137Y009743D01*
X079150Y009659D01*
X079158Y009575D01*
X079163Y009490D01*
X079164Y009405D01*
X079160Y009321D01*
X079153Y009236D01*
X079153Y009237D02*
X079153Y001756D01*
X079151Y001679D01*
X079145Y001602D01*
X079136Y001525D01*
X079123Y001449D01*
X079106Y001373D01*
X079085Y001299D01*
X079061Y001225D01*
X079033Y001153D01*
X079002Y001083D01*
X078967Y001014D01*
X078929Y000946D01*
X078888Y000881D01*
X078843Y000818D01*
X078795Y000757D01*
X078745Y000698D01*
X078692Y000642D01*
X078636Y000589D01*
X078577Y000539D01*
X078516Y000491D01*
X078453Y000446D01*
X078388Y000405D01*
X078320Y000367D01*
X078251Y000332D01*
X078181Y000301D01*
X078109Y000273D01*
X078035Y000249D01*
X077961Y000228D01*
X077885Y000211D01*
X077809Y000198D01*
X077732Y000189D01*
X077655Y000183D01*
X077578Y000181D01*
X028759Y000181D01*
X028682Y000183D01*
X028605Y000189D01*
X028528Y000198D01*
X028452Y000211D01*
X028376Y000228D01*
X028302Y000249D01*
X028228Y000273D01*
X028156Y000301D01*
X028086Y000332D01*
X028017Y000367D01*
X027949Y000405D01*
X027884Y000446D01*
X027821Y000491D01*
X027760Y000539D01*
X027701Y000589D01*
X027645Y000642D01*
X027592Y000698D01*
X027542Y000757D01*
X027494Y000818D01*
X027449Y000881D01*
X027408Y000946D01*
X027370Y001014D01*
X027335Y001083D01*
X027304Y001153D01*
X027276Y001225D01*
X027252Y001299D01*
X027231Y001373D01*
X027214Y001449D01*
X027201Y001525D01*
X027192Y001602D01*
X027186Y001679D01*
X027184Y001756D01*
D11*
X030819Y003029D03*
X032211Y003029D03*
X031515Y003725D03*
X032211Y004421D03*
X030819Y004421D03*
X039480Y004421D03*
X040176Y003725D03*
X040872Y004421D03*
X040872Y003029D03*
X039480Y003029D03*
X048142Y003029D03*
X049534Y003029D03*
X048838Y003725D03*
X049534Y004421D03*
X048142Y004421D03*
X056803Y004421D03*
X057499Y003725D03*
X058195Y004421D03*
X058195Y003029D03*
X056803Y003029D03*
X065465Y003029D03*
X066857Y003029D03*
X066161Y003725D03*
X066857Y004421D03*
X065465Y004421D03*
X074126Y004421D03*
X074822Y003725D03*
X075518Y004421D03*
X075518Y003029D03*
X074126Y003029D03*
D12*
X071318Y003725D02*
X071320Y003772D01*
X071326Y003818D01*
X071336Y003864D01*
X071349Y003909D01*
X071367Y003952D01*
X071388Y003994D01*
X071412Y004034D01*
X071440Y004071D01*
X071471Y004106D01*
X071505Y004139D01*
X071541Y004168D01*
X071580Y004194D01*
X071621Y004217D01*
X071664Y004236D01*
X071708Y004252D01*
X071753Y004264D01*
X071799Y004272D01*
X071846Y004276D01*
X071892Y004276D01*
X071939Y004272D01*
X071985Y004264D01*
X072030Y004252D01*
X072074Y004236D01*
X072117Y004217D01*
X072158Y004194D01*
X072197Y004168D01*
X072233Y004139D01*
X072267Y004106D01*
X072298Y004071D01*
X072326Y004034D01*
X072350Y003994D01*
X072371Y003952D01*
X072389Y003909D01*
X072402Y003864D01*
X072412Y003818D01*
X072418Y003772D01*
X072420Y003725D01*
X072418Y003678D01*
X072412Y003632D01*
X072402Y003586D01*
X072389Y003541D01*
X072371Y003498D01*
X072350Y003456D01*
X072326Y003416D01*
X072298Y003379D01*
X072267Y003344D01*
X072233Y003311D01*
X072197Y003282D01*
X072158Y003256D01*
X072117Y003233D01*
X072074Y003214D01*
X072030Y003198D01*
X071985Y003186D01*
X071939Y003178D01*
X071892Y003174D01*
X071846Y003174D01*
X071799Y003178D01*
X071753Y003186D01*
X071708Y003198D01*
X071664Y003214D01*
X071621Y003233D01*
X071580Y003256D01*
X071541Y003282D01*
X071505Y003311D01*
X071471Y003344D01*
X071440Y003379D01*
X071412Y003416D01*
X071388Y003456D01*
X071367Y003498D01*
X071349Y003541D01*
X071336Y003586D01*
X071326Y003632D01*
X071320Y003678D01*
X071318Y003725D01*
X068562Y003725D02*
X068564Y003772D01*
X068570Y003818D01*
X068580Y003864D01*
X068593Y003909D01*
X068611Y003952D01*
X068632Y003994D01*
X068656Y004034D01*
X068684Y004071D01*
X068715Y004106D01*
X068749Y004139D01*
X068785Y004168D01*
X068824Y004194D01*
X068865Y004217D01*
X068908Y004236D01*
X068952Y004252D01*
X068997Y004264D01*
X069043Y004272D01*
X069090Y004276D01*
X069136Y004276D01*
X069183Y004272D01*
X069229Y004264D01*
X069274Y004252D01*
X069318Y004236D01*
X069361Y004217D01*
X069402Y004194D01*
X069441Y004168D01*
X069477Y004139D01*
X069511Y004106D01*
X069542Y004071D01*
X069570Y004034D01*
X069594Y003994D01*
X069615Y003952D01*
X069633Y003909D01*
X069646Y003864D01*
X069656Y003818D01*
X069662Y003772D01*
X069664Y003725D01*
X069662Y003678D01*
X069656Y003632D01*
X069646Y003586D01*
X069633Y003541D01*
X069615Y003498D01*
X069594Y003456D01*
X069570Y003416D01*
X069542Y003379D01*
X069511Y003344D01*
X069477Y003311D01*
X069441Y003282D01*
X069402Y003256D01*
X069361Y003233D01*
X069318Y003214D01*
X069274Y003198D01*
X069229Y003186D01*
X069183Y003178D01*
X069136Y003174D01*
X069090Y003174D01*
X069043Y003178D01*
X068997Y003186D01*
X068952Y003198D01*
X068908Y003214D01*
X068865Y003233D01*
X068824Y003256D01*
X068785Y003282D01*
X068749Y003311D01*
X068715Y003344D01*
X068684Y003379D01*
X068656Y003416D01*
X068632Y003456D01*
X068611Y003498D01*
X068593Y003541D01*
X068580Y003586D01*
X068570Y003632D01*
X068564Y003678D01*
X068562Y003725D01*
X062657Y003725D02*
X062659Y003772D01*
X062665Y003818D01*
X062675Y003864D01*
X062688Y003909D01*
X062706Y003952D01*
X062727Y003994D01*
X062751Y004034D01*
X062779Y004071D01*
X062810Y004106D01*
X062844Y004139D01*
X062880Y004168D01*
X062919Y004194D01*
X062960Y004217D01*
X063003Y004236D01*
X063047Y004252D01*
X063092Y004264D01*
X063138Y004272D01*
X063185Y004276D01*
X063231Y004276D01*
X063278Y004272D01*
X063324Y004264D01*
X063369Y004252D01*
X063413Y004236D01*
X063456Y004217D01*
X063497Y004194D01*
X063536Y004168D01*
X063572Y004139D01*
X063606Y004106D01*
X063637Y004071D01*
X063665Y004034D01*
X063689Y003994D01*
X063710Y003952D01*
X063728Y003909D01*
X063741Y003864D01*
X063751Y003818D01*
X063757Y003772D01*
X063759Y003725D01*
X063757Y003678D01*
X063751Y003632D01*
X063741Y003586D01*
X063728Y003541D01*
X063710Y003498D01*
X063689Y003456D01*
X063665Y003416D01*
X063637Y003379D01*
X063606Y003344D01*
X063572Y003311D01*
X063536Y003282D01*
X063497Y003256D01*
X063456Y003233D01*
X063413Y003214D01*
X063369Y003198D01*
X063324Y003186D01*
X063278Y003178D01*
X063231Y003174D01*
X063185Y003174D01*
X063138Y003178D01*
X063092Y003186D01*
X063047Y003198D01*
X063003Y003214D01*
X062960Y003233D01*
X062919Y003256D01*
X062880Y003282D01*
X062844Y003311D01*
X062810Y003344D01*
X062779Y003379D01*
X062751Y003416D01*
X062727Y003456D01*
X062706Y003498D01*
X062688Y003541D01*
X062675Y003586D01*
X062665Y003632D01*
X062659Y003678D01*
X062657Y003725D01*
X059901Y003725D02*
X059903Y003772D01*
X059909Y003818D01*
X059919Y003864D01*
X059932Y003909D01*
X059950Y003952D01*
X059971Y003994D01*
X059995Y004034D01*
X060023Y004071D01*
X060054Y004106D01*
X060088Y004139D01*
X060124Y004168D01*
X060163Y004194D01*
X060204Y004217D01*
X060247Y004236D01*
X060291Y004252D01*
X060336Y004264D01*
X060382Y004272D01*
X060429Y004276D01*
X060475Y004276D01*
X060522Y004272D01*
X060568Y004264D01*
X060613Y004252D01*
X060657Y004236D01*
X060700Y004217D01*
X060741Y004194D01*
X060780Y004168D01*
X060816Y004139D01*
X060850Y004106D01*
X060881Y004071D01*
X060909Y004034D01*
X060933Y003994D01*
X060954Y003952D01*
X060972Y003909D01*
X060985Y003864D01*
X060995Y003818D01*
X061001Y003772D01*
X061003Y003725D01*
X061001Y003678D01*
X060995Y003632D01*
X060985Y003586D01*
X060972Y003541D01*
X060954Y003498D01*
X060933Y003456D01*
X060909Y003416D01*
X060881Y003379D01*
X060850Y003344D01*
X060816Y003311D01*
X060780Y003282D01*
X060741Y003256D01*
X060700Y003233D01*
X060657Y003214D01*
X060613Y003198D01*
X060568Y003186D01*
X060522Y003178D01*
X060475Y003174D01*
X060429Y003174D01*
X060382Y003178D01*
X060336Y003186D01*
X060291Y003198D01*
X060247Y003214D01*
X060204Y003233D01*
X060163Y003256D01*
X060124Y003282D01*
X060088Y003311D01*
X060054Y003344D01*
X060023Y003379D01*
X059995Y003416D01*
X059971Y003456D01*
X059950Y003498D01*
X059932Y003541D01*
X059919Y003586D01*
X059909Y003632D01*
X059903Y003678D01*
X059901Y003725D01*
X053995Y003725D02*
X053997Y003772D01*
X054003Y003818D01*
X054013Y003864D01*
X054026Y003909D01*
X054044Y003952D01*
X054065Y003994D01*
X054089Y004034D01*
X054117Y004071D01*
X054148Y004106D01*
X054182Y004139D01*
X054218Y004168D01*
X054257Y004194D01*
X054298Y004217D01*
X054341Y004236D01*
X054385Y004252D01*
X054430Y004264D01*
X054476Y004272D01*
X054523Y004276D01*
X054569Y004276D01*
X054616Y004272D01*
X054662Y004264D01*
X054707Y004252D01*
X054751Y004236D01*
X054794Y004217D01*
X054835Y004194D01*
X054874Y004168D01*
X054910Y004139D01*
X054944Y004106D01*
X054975Y004071D01*
X055003Y004034D01*
X055027Y003994D01*
X055048Y003952D01*
X055066Y003909D01*
X055079Y003864D01*
X055089Y003818D01*
X055095Y003772D01*
X055097Y003725D01*
X055095Y003678D01*
X055089Y003632D01*
X055079Y003586D01*
X055066Y003541D01*
X055048Y003498D01*
X055027Y003456D01*
X055003Y003416D01*
X054975Y003379D01*
X054944Y003344D01*
X054910Y003311D01*
X054874Y003282D01*
X054835Y003256D01*
X054794Y003233D01*
X054751Y003214D01*
X054707Y003198D01*
X054662Y003186D01*
X054616Y003178D01*
X054569Y003174D01*
X054523Y003174D01*
X054476Y003178D01*
X054430Y003186D01*
X054385Y003198D01*
X054341Y003214D01*
X054298Y003233D01*
X054257Y003256D01*
X054218Y003282D01*
X054182Y003311D01*
X054148Y003344D01*
X054117Y003379D01*
X054089Y003416D01*
X054065Y003456D01*
X054044Y003498D01*
X054026Y003541D01*
X054013Y003586D01*
X054003Y003632D01*
X053997Y003678D01*
X053995Y003725D01*
X051240Y003725D02*
X051242Y003772D01*
X051248Y003818D01*
X051258Y003864D01*
X051271Y003909D01*
X051289Y003952D01*
X051310Y003994D01*
X051334Y004034D01*
X051362Y004071D01*
X051393Y004106D01*
X051427Y004139D01*
X051463Y004168D01*
X051502Y004194D01*
X051543Y004217D01*
X051586Y004236D01*
X051630Y004252D01*
X051675Y004264D01*
X051721Y004272D01*
X051768Y004276D01*
X051814Y004276D01*
X051861Y004272D01*
X051907Y004264D01*
X051952Y004252D01*
X051996Y004236D01*
X052039Y004217D01*
X052080Y004194D01*
X052119Y004168D01*
X052155Y004139D01*
X052189Y004106D01*
X052220Y004071D01*
X052248Y004034D01*
X052272Y003994D01*
X052293Y003952D01*
X052311Y003909D01*
X052324Y003864D01*
X052334Y003818D01*
X052340Y003772D01*
X052342Y003725D01*
X052340Y003678D01*
X052334Y003632D01*
X052324Y003586D01*
X052311Y003541D01*
X052293Y003498D01*
X052272Y003456D01*
X052248Y003416D01*
X052220Y003379D01*
X052189Y003344D01*
X052155Y003311D01*
X052119Y003282D01*
X052080Y003256D01*
X052039Y003233D01*
X051996Y003214D01*
X051952Y003198D01*
X051907Y003186D01*
X051861Y003178D01*
X051814Y003174D01*
X051768Y003174D01*
X051721Y003178D01*
X051675Y003186D01*
X051630Y003198D01*
X051586Y003214D01*
X051543Y003233D01*
X051502Y003256D01*
X051463Y003282D01*
X051427Y003311D01*
X051393Y003344D01*
X051362Y003379D01*
X051334Y003416D01*
X051310Y003456D01*
X051289Y003498D01*
X051271Y003541D01*
X051258Y003586D01*
X051248Y003632D01*
X051242Y003678D01*
X051240Y003725D01*
X045334Y003725D02*
X045336Y003772D01*
X045342Y003818D01*
X045352Y003864D01*
X045365Y003909D01*
X045383Y003952D01*
X045404Y003994D01*
X045428Y004034D01*
X045456Y004071D01*
X045487Y004106D01*
X045521Y004139D01*
X045557Y004168D01*
X045596Y004194D01*
X045637Y004217D01*
X045680Y004236D01*
X045724Y004252D01*
X045769Y004264D01*
X045815Y004272D01*
X045862Y004276D01*
X045908Y004276D01*
X045955Y004272D01*
X046001Y004264D01*
X046046Y004252D01*
X046090Y004236D01*
X046133Y004217D01*
X046174Y004194D01*
X046213Y004168D01*
X046249Y004139D01*
X046283Y004106D01*
X046314Y004071D01*
X046342Y004034D01*
X046366Y003994D01*
X046387Y003952D01*
X046405Y003909D01*
X046418Y003864D01*
X046428Y003818D01*
X046434Y003772D01*
X046436Y003725D01*
X046434Y003678D01*
X046428Y003632D01*
X046418Y003586D01*
X046405Y003541D01*
X046387Y003498D01*
X046366Y003456D01*
X046342Y003416D01*
X046314Y003379D01*
X046283Y003344D01*
X046249Y003311D01*
X046213Y003282D01*
X046174Y003256D01*
X046133Y003233D01*
X046090Y003214D01*
X046046Y003198D01*
X046001Y003186D01*
X045955Y003178D01*
X045908Y003174D01*
X045862Y003174D01*
X045815Y003178D01*
X045769Y003186D01*
X045724Y003198D01*
X045680Y003214D01*
X045637Y003233D01*
X045596Y003256D01*
X045557Y003282D01*
X045521Y003311D01*
X045487Y003344D01*
X045456Y003379D01*
X045428Y003416D01*
X045404Y003456D01*
X045383Y003498D01*
X045365Y003541D01*
X045352Y003586D01*
X045342Y003632D01*
X045336Y003678D01*
X045334Y003725D01*
X042578Y003725D02*
X042580Y003772D01*
X042586Y003818D01*
X042596Y003864D01*
X042609Y003909D01*
X042627Y003952D01*
X042648Y003994D01*
X042672Y004034D01*
X042700Y004071D01*
X042731Y004106D01*
X042765Y004139D01*
X042801Y004168D01*
X042840Y004194D01*
X042881Y004217D01*
X042924Y004236D01*
X042968Y004252D01*
X043013Y004264D01*
X043059Y004272D01*
X043106Y004276D01*
X043152Y004276D01*
X043199Y004272D01*
X043245Y004264D01*
X043290Y004252D01*
X043334Y004236D01*
X043377Y004217D01*
X043418Y004194D01*
X043457Y004168D01*
X043493Y004139D01*
X043527Y004106D01*
X043558Y004071D01*
X043586Y004034D01*
X043610Y003994D01*
X043631Y003952D01*
X043649Y003909D01*
X043662Y003864D01*
X043672Y003818D01*
X043678Y003772D01*
X043680Y003725D01*
X043678Y003678D01*
X043672Y003632D01*
X043662Y003586D01*
X043649Y003541D01*
X043631Y003498D01*
X043610Y003456D01*
X043586Y003416D01*
X043558Y003379D01*
X043527Y003344D01*
X043493Y003311D01*
X043457Y003282D01*
X043418Y003256D01*
X043377Y003233D01*
X043334Y003214D01*
X043290Y003198D01*
X043245Y003186D01*
X043199Y003178D01*
X043152Y003174D01*
X043106Y003174D01*
X043059Y003178D01*
X043013Y003186D01*
X042968Y003198D01*
X042924Y003214D01*
X042881Y003233D01*
X042840Y003256D01*
X042801Y003282D01*
X042765Y003311D01*
X042731Y003344D01*
X042700Y003379D01*
X042672Y003416D01*
X042648Y003456D01*
X042627Y003498D01*
X042609Y003541D01*
X042596Y003586D01*
X042586Y003632D01*
X042580Y003678D01*
X042578Y003725D01*
X036673Y003725D02*
X036675Y003772D01*
X036681Y003818D01*
X036691Y003864D01*
X036704Y003909D01*
X036722Y003952D01*
X036743Y003994D01*
X036767Y004034D01*
X036795Y004071D01*
X036826Y004106D01*
X036860Y004139D01*
X036896Y004168D01*
X036935Y004194D01*
X036976Y004217D01*
X037019Y004236D01*
X037063Y004252D01*
X037108Y004264D01*
X037154Y004272D01*
X037201Y004276D01*
X037247Y004276D01*
X037294Y004272D01*
X037340Y004264D01*
X037385Y004252D01*
X037429Y004236D01*
X037472Y004217D01*
X037513Y004194D01*
X037552Y004168D01*
X037588Y004139D01*
X037622Y004106D01*
X037653Y004071D01*
X037681Y004034D01*
X037705Y003994D01*
X037726Y003952D01*
X037744Y003909D01*
X037757Y003864D01*
X037767Y003818D01*
X037773Y003772D01*
X037775Y003725D01*
X037773Y003678D01*
X037767Y003632D01*
X037757Y003586D01*
X037744Y003541D01*
X037726Y003498D01*
X037705Y003456D01*
X037681Y003416D01*
X037653Y003379D01*
X037622Y003344D01*
X037588Y003311D01*
X037552Y003282D01*
X037513Y003256D01*
X037472Y003233D01*
X037429Y003214D01*
X037385Y003198D01*
X037340Y003186D01*
X037294Y003178D01*
X037247Y003174D01*
X037201Y003174D01*
X037154Y003178D01*
X037108Y003186D01*
X037063Y003198D01*
X037019Y003214D01*
X036976Y003233D01*
X036935Y003256D01*
X036896Y003282D01*
X036860Y003311D01*
X036826Y003344D01*
X036795Y003379D01*
X036767Y003416D01*
X036743Y003456D01*
X036722Y003498D01*
X036704Y003541D01*
X036691Y003586D01*
X036681Y003632D01*
X036675Y003678D01*
X036673Y003725D01*
X033917Y003725D02*
X033919Y003772D01*
X033925Y003818D01*
X033935Y003864D01*
X033948Y003909D01*
X033966Y003952D01*
X033987Y003994D01*
X034011Y004034D01*
X034039Y004071D01*
X034070Y004106D01*
X034104Y004139D01*
X034140Y004168D01*
X034179Y004194D01*
X034220Y004217D01*
X034263Y004236D01*
X034307Y004252D01*
X034352Y004264D01*
X034398Y004272D01*
X034445Y004276D01*
X034491Y004276D01*
X034538Y004272D01*
X034584Y004264D01*
X034629Y004252D01*
X034673Y004236D01*
X034716Y004217D01*
X034757Y004194D01*
X034796Y004168D01*
X034832Y004139D01*
X034866Y004106D01*
X034897Y004071D01*
X034925Y004034D01*
X034949Y003994D01*
X034970Y003952D01*
X034988Y003909D01*
X035001Y003864D01*
X035011Y003818D01*
X035017Y003772D01*
X035019Y003725D01*
X035017Y003678D01*
X035011Y003632D01*
X035001Y003586D01*
X034988Y003541D01*
X034970Y003498D01*
X034949Y003456D01*
X034925Y003416D01*
X034897Y003379D01*
X034866Y003344D01*
X034832Y003311D01*
X034796Y003282D01*
X034757Y003256D01*
X034716Y003233D01*
X034673Y003214D01*
X034629Y003198D01*
X034584Y003186D01*
X034538Y003178D01*
X034491Y003174D01*
X034445Y003174D01*
X034398Y003178D01*
X034352Y003186D01*
X034307Y003198D01*
X034263Y003214D01*
X034220Y003233D01*
X034179Y003256D01*
X034140Y003282D01*
X034104Y003311D01*
X034070Y003344D01*
X034039Y003379D01*
X034011Y003416D01*
X033987Y003456D01*
X033966Y003498D01*
X033948Y003541D01*
X033935Y003586D01*
X033925Y003632D01*
X033919Y003678D01*
X033917Y003725D01*
X028011Y003725D02*
X028013Y003772D01*
X028019Y003818D01*
X028029Y003864D01*
X028042Y003909D01*
X028060Y003952D01*
X028081Y003994D01*
X028105Y004034D01*
X028133Y004071D01*
X028164Y004106D01*
X028198Y004139D01*
X028234Y004168D01*
X028273Y004194D01*
X028314Y004217D01*
X028357Y004236D01*
X028401Y004252D01*
X028446Y004264D01*
X028492Y004272D01*
X028539Y004276D01*
X028585Y004276D01*
X028632Y004272D01*
X028678Y004264D01*
X028723Y004252D01*
X028767Y004236D01*
X028810Y004217D01*
X028851Y004194D01*
X028890Y004168D01*
X028926Y004139D01*
X028960Y004106D01*
X028991Y004071D01*
X029019Y004034D01*
X029043Y003994D01*
X029064Y003952D01*
X029082Y003909D01*
X029095Y003864D01*
X029105Y003818D01*
X029111Y003772D01*
X029113Y003725D01*
X029111Y003678D01*
X029105Y003632D01*
X029095Y003586D01*
X029082Y003541D01*
X029064Y003498D01*
X029043Y003456D01*
X029019Y003416D01*
X028991Y003379D01*
X028960Y003344D01*
X028926Y003311D01*
X028890Y003282D01*
X028851Y003256D01*
X028810Y003233D01*
X028767Y003214D01*
X028723Y003198D01*
X028678Y003186D01*
X028632Y003178D01*
X028585Y003174D01*
X028539Y003174D01*
X028492Y003178D01*
X028446Y003186D01*
X028401Y003198D01*
X028357Y003214D01*
X028314Y003233D01*
X028273Y003256D01*
X028234Y003282D01*
X028198Y003311D01*
X028164Y003344D01*
X028133Y003379D01*
X028105Y003416D01*
X028081Y003456D01*
X028060Y003498D01*
X028042Y003541D01*
X028029Y003586D01*
X028019Y003632D01*
X028013Y003678D01*
X028011Y003725D01*
X028099Y001166D02*
X028101Y001209D01*
X028107Y001251D01*
X028117Y001293D01*
X028130Y001333D01*
X028148Y001372D01*
X028168Y001410D01*
X028193Y001445D01*
X028220Y001478D01*
X028250Y001508D01*
X028283Y001535D01*
X028318Y001560D01*
X028356Y001580D01*
X028395Y001598D01*
X028435Y001611D01*
X028477Y001621D01*
X028519Y001627D01*
X028562Y001629D01*
X028605Y001627D01*
X028647Y001621D01*
X028689Y001611D01*
X028729Y001598D01*
X028768Y001580D01*
X028806Y001560D01*
X028841Y001535D01*
X028874Y001508D01*
X028904Y001478D01*
X028931Y001445D01*
X028956Y001410D01*
X028976Y001372D01*
X028994Y001333D01*
X029007Y001293D01*
X029017Y001251D01*
X029023Y001209D01*
X029025Y001166D01*
X029023Y001123D01*
X029017Y001081D01*
X029007Y001039D01*
X028994Y000999D01*
X028976Y000960D01*
X028956Y000922D01*
X028931Y000887D01*
X028904Y000854D01*
X028874Y000824D01*
X028841Y000797D01*
X028806Y000772D01*
X028768Y000752D01*
X028729Y000734D01*
X028689Y000721D01*
X028647Y000711D01*
X028605Y000705D01*
X028562Y000703D01*
X028519Y000705D01*
X028477Y000711D01*
X028435Y000721D01*
X028395Y000734D01*
X028356Y000752D01*
X028318Y000772D01*
X028283Y000797D01*
X028250Y000824D01*
X028220Y000854D01*
X028193Y000887D01*
X028168Y000922D01*
X028148Y000960D01*
X028130Y000999D01*
X028117Y001039D01*
X028107Y001081D01*
X028101Y001123D01*
X028099Y001166D01*
X034005Y001166D02*
X034007Y001209D01*
X034013Y001251D01*
X034023Y001293D01*
X034036Y001333D01*
X034054Y001372D01*
X034074Y001410D01*
X034099Y001445D01*
X034126Y001478D01*
X034156Y001508D01*
X034189Y001535D01*
X034224Y001560D01*
X034262Y001580D01*
X034301Y001598D01*
X034341Y001611D01*
X034383Y001621D01*
X034425Y001627D01*
X034468Y001629D01*
X034511Y001627D01*
X034553Y001621D01*
X034595Y001611D01*
X034635Y001598D01*
X034674Y001580D01*
X034712Y001560D01*
X034747Y001535D01*
X034780Y001508D01*
X034810Y001478D01*
X034837Y001445D01*
X034862Y001410D01*
X034882Y001372D01*
X034900Y001333D01*
X034913Y001293D01*
X034923Y001251D01*
X034929Y001209D01*
X034931Y001166D01*
X034929Y001123D01*
X034923Y001081D01*
X034913Y001039D01*
X034900Y000999D01*
X034882Y000960D01*
X034862Y000922D01*
X034837Y000887D01*
X034810Y000854D01*
X034780Y000824D01*
X034747Y000797D01*
X034712Y000772D01*
X034674Y000752D01*
X034635Y000734D01*
X034595Y000721D01*
X034553Y000711D01*
X034511Y000705D01*
X034468Y000703D01*
X034425Y000705D01*
X034383Y000711D01*
X034341Y000721D01*
X034301Y000734D01*
X034262Y000752D01*
X034224Y000772D01*
X034189Y000797D01*
X034156Y000824D01*
X034126Y000854D01*
X034099Y000887D01*
X034074Y000922D01*
X034054Y000960D01*
X034036Y000999D01*
X034023Y001039D01*
X034013Y001081D01*
X034007Y001123D01*
X034005Y001166D01*
X036761Y001166D02*
X036763Y001209D01*
X036769Y001251D01*
X036779Y001293D01*
X036792Y001333D01*
X036810Y001372D01*
X036830Y001410D01*
X036855Y001445D01*
X036882Y001478D01*
X036912Y001508D01*
X036945Y001535D01*
X036980Y001560D01*
X037018Y001580D01*
X037057Y001598D01*
X037097Y001611D01*
X037139Y001621D01*
X037181Y001627D01*
X037224Y001629D01*
X037267Y001627D01*
X037309Y001621D01*
X037351Y001611D01*
X037391Y001598D01*
X037430Y001580D01*
X037468Y001560D01*
X037503Y001535D01*
X037536Y001508D01*
X037566Y001478D01*
X037593Y001445D01*
X037618Y001410D01*
X037638Y001372D01*
X037656Y001333D01*
X037669Y001293D01*
X037679Y001251D01*
X037685Y001209D01*
X037687Y001166D01*
X037685Y001123D01*
X037679Y001081D01*
X037669Y001039D01*
X037656Y000999D01*
X037638Y000960D01*
X037618Y000922D01*
X037593Y000887D01*
X037566Y000854D01*
X037536Y000824D01*
X037503Y000797D01*
X037468Y000772D01*
X037430Y000752D01*
X037391Y000734D01*
X037351Y000721D01*
X037309Y000711D01*
X037267Y000705D01*
X037224Y000703D01*
X037181Y000705D01*
X037139Y000711D01*
X037097Y000721D01*
X037057Y000734D01*
X037018Y000752D01*
X036980Y000772D01*
X036945Y000797D01*
X036912Y000824D01*
X036882Y000854D01*
X036855Y000887D01*
X036830Y000922D01*
X036810Y000960D01*
X036792Y000999D01*
X036779Y001039D01*
X036769Y001081D01*
X036763Y001123D01*
X036761Y001166D01*
X042666Y001166D02*
X042668Y001209D01*
X042674Y001251D01*
X042684Y001293D01*
X042697Y001333D01*
X042715Y001372D01*
X042735Y001410D01*
X042760Y001445D01*
X042787Y001478D01*
X042817Y001508D01*
X042850Y001535D01*
X042885Y001560D01*
X042923Y001580D01*
X042962Y001598D01*
X043002Y001611D01*
X043044Y001621D01*
X043086Y001627D01*
X043129Y001629D01*
X043172Y001627D01*
X043214Y001621D01*
X043256Y001611D01*
X043296Y001598D01*
X043335Y001580D01*
X043373Y001560D01*
X043408Y001535D01*
X043441Y001508D01*
X043471Y001478D01*
X043498Y001445D01*
X043523Y001410D01*
X043543Y001372D01*
X043561Y001333D01*
X043574Y001293D01*
X043584Y001251D01*
X043590Y001209D01*
X043592Y001166D01*
X043590Y001123D01*
X043584Y001081D01*
X043574Y001039D01*
X043561Y000999D01*
X043543Y000960D01*
X043523Y000922D01*
X043498Y000887D01*
X043471Y000854D01*
X043441Y000824D01*
X043408Y000797D01*
X043373Y000772D01*
X043335Y000752D01*
X043296Y000734D01*
X043256Y000721D01*
X043214Y000711D01*
X043172Y000705D01*
X043129Y000703D01*
X043086Y000705D01*
X043044Y000711D01*
X043002Y000721D01*
X042962Y000734D01*
X042923Y000752D01*
X042885Y000772D01*
X042850Y000797D01*
X042817Y000824D01*
X042787Y000854D01*
X042760Y000887D01*
X042735Y000922D01*
X042715Y000960D01*
X042697Y000999D01*
X042684Y001039D01*
X042674Y001081D01*
X042668Y001123D01*
X042666Y001166D01*
X045422Y001166D02*
X045424Y001209D01*
X045430Y001251D01*
X045440Y001293D01*
X045453Y001333D01*
X045471Y001372D01*
X045491Y001410D01*
X045516Y001445D01*
X045543Y001478D01*
X045573Y001508D01*
X045606Y001535D01*
X045641Y001560D01*
X045679Y001580D01*
X045718Y001598D01*
X045758Y001611D01*
X045800Y001621D01*
X045842Y001627D01*
X045885Y001629D01*
X045928Y001627D01*
X045970Y001621D01*
X046012Y001611D01*
X046052Y001598D01*
X046091Y001580D01*
X046129Y001560D01*
X046164Y001535D01*
X046197Y001508D01*
X046227Y001478D01*
X046254Y001445D01*
X046279Y001410D01*
X046299Y001372D01*
X046317Y001333D01*
X046330Y001293D01*
X046340Y001251D01*
X046346Y001209D01*
X046348Y001166D01*
X046346Y001123D01*
X046340Y001081D01*
X046330Y001039D01*
X046317Y000999D01*
X046299Y000960D01*
X046279Y000922D01*
X046254Y000887D01*
X046227Y000854D01*
X046197Y000824D01*
X046164Y000797D01*
X046129Y000772D01*
X046091Y000752D01*
X046052Y000734D01*
X046012Y000721D01*
X045970Y000711D01*
X045928Y000705D01*
X045885Y000703D01*
X045842Y000705D01*
X045800Y000711D01*
X045758Y000721D01*
X045718Y000734D01*
X045679Y000752D01*
X045641Y000772D01*
X045606Y000797D01*
X045573Y000824D01*
X045543Y000854D01*
X045516Y000887D01*
X045491Y000922D01*
X045471Y000960D01*
X045453Y000999D01*
X045440Y001039D01*
X045430Y001081D01*
X045424Y001123D01*
X045422Y001166D01*
X051328Y001166D02*
X051330Y001209D01*
X051336Y001251D01*
X051346Y001293D01*
X051359Y001333D01*
X051377Y001372D01*
X051397Y001410D01*
X051422Y001445D01*
X051449Y001478D01*
X051479Y001508D01*
X051512Y001535D01*
X051547Y001560D01*
X051585Y001580D01*
X051624Y001598D01*
X051664Y001611D01*
X051706Y001621D01*
X051748Y001627D01*
X051791Y001629D01*
X051834Y001627D01*
X051876Y001621D01*
X051918Y001611D01*
X051958Y001598D01*
X051997Y001580D01*
X052035Y001560D01*
X052070Y001535D01*
X052103Y001508D01*
X052133Y001478D01*
X052160Y001445D01*
X052185Y001410D01*
X052205Y001372D01*
X052223Y001333D01*
X052236Y001293D01*
X052246Y001251D01*
X052252Y001209D01*
X052254Y001166D01*
X052252Y001123D01*
X052246Y001081D01*
X052236Y001039D01*
X052223Y000999D01*
X052205Y000960D01*
X052185Y000922D01*
X052160Y000887D01*
X052133Y000854D01*
X052103Y000824D01*
X052070Y000797D01*
X052035Y000772D01*
X051997Y000752D01*
X051958Y000734D01*
X051918Y000721D01*
X051876Y000711D01*
X051834Y000705D01*
X051791Y000703D01*
X051748Y000705D01*
X051706Y000711D01*
X051664Y000721D01*
X051624Y000734D01*
X051585Y000752D01*
X051547Y000772D01*
X051512Y000797D01*
X051479Y000824D01*
X051449Y000854D01*
X051422Y000887D01*
X051397Y000922D01*
X051377Y000960D01*
X051359Y000999D01*
X051346Y001039D01*
X051336Y001081D01*
X051330Y001123D01*
X051328Y001166D01*
X054083Y001166D02*
X054085Y001209D01*
X054091Y001251D01*
X054101Y001293D01*
X054114Y001333D01*
X054132Y001372D01*
X054152Y001410D01*
X054177Y001445D01*
X054204Y001478D01*
X054234Y001508D01*
X054267Y001535D01*
X054302Y001560D01*
X054340Y001580D01*
X054379Y001598D01*
X054419Y001611D01*
X054461Y001621D01*
X054503Y001627D01*
X054546Y001629D01*
X054589Y001627D01*
X054631Y001621D01*
X054673Y001611D01*
X054713Y001598D01*
X054752Y001580D01*
X054790Y001560D01*
X054825Y001535D01*
X054858Y001508D01*
X054888Y001478D01*
X054915Y001445D01*
X054940Y001410D01*
X054960Y001372D01*
X054978Y001333D01*
X054991Y001293D01*
X055001Y001251D01*
X055007Y001209D01*
X055009Y001166D01*
X055007Y001123D01*
X055001Y001081D01*
X054991Y001039D01*
X054978Y000999D01*
X054960Y000960D01*
X054940Y000922D01*
X054915Y000887D01*
X054888Y000854D01*
X054858Y000824D01*
X054825Y000797D01*
X054790Y000772D01*
X054752Y000752D01*
X054713Y000734D01*
X054673Y000721D01*
X054631Y000711D01*
X054589Y000705D01*
X054546Y000703D01*
X054503Y000705D01*
X054461Y000711D01*
X054419Y000721D01*
X054379Y000734D01*
X054340Y000752D01*
X054302Y000772D01*
X054267Y000797D01*
X054234Y000824D01*
X054204Y000854D01*
X054177Y000887D01*
X054152Y000922D01*
X054132Y000960D01*
X054114Y000999D01*
X054101Y001039D01*
X054091Y001081D01*
X054085Y001123D01*
X054083Y001166D01*
X059989Y001166D02*
X059991Y001209D01*
X059997Y001251D01*
X060007Y001293D01*
X060020Y001333D01*
X060038Y001372D01*
X060058Y001410D01*
X060083Y001445D01*
X060110Y001478D01*
X060140Y001508D01*
X060173Y001535D01*
X060208Y001560D01*
X060246Y001580D01*
X060285Y001598D01*
X060325Y001611D01*
X060367Y001621D01*
X060409Y001627D01*
X060452Y001629D01*
X060495Y001627D01*
X060537Y001621D01*
X060579Y001611D01*
X060619Y001598D01*
X060658Y001580D01*
X060696Y001560D01*
X060731Y001535D01*
X060764Y001508D01*
X060794Y001478D01*
X060821Y001445D01*
X060846Y001410D01*
X060866Y001372D01*
X060884Y001333D01*
X060897Y001293D01*
X060907Y001251D01*
X060913Y001209D01*
X060915Y001166D01*
X060913Y001123D01*
X060907Y001081D01*
X060897Y001039D01*
X060884Y000999D01*
X060866Y000960D01*
X060846Y000922D01*
X060821Y000887D01*
X060794Y000854D01*
X060764Y000824D01*
X060731Y000797D01*
X060696Y000772D01*
X060658Y000752D01*
X060619Y000734D01*
X060579Y000721D01*
X060537Y000711D01*
X060495Y000705D01*
X060452Y000703D01*
X060409Y000705D01*
X060367Y000711D01*
X060325Y000721D01*
X060285Y000734D01*
X060246Y000752D01*
X060208Y000772D01*
X060173Y000797D01*
X060140Y000824D01*
X060110Y000854D01*
X060083Y000887D01*
X060058Y000922D01*
X060038Y000960D01*
X060020Y000999D01*
X060007Y001039D01*
X059997Y001081D01*
X059991Y001123D01*
X059989Y001166D01*
X062745Y001166D02*
X062747Y001209D01*
X062753Y001251D01*
X062763Y001293D01*
X062776Y001333D01*
X062794Y001372D01*
X062814Y001410D01*
X062839Y001445D01*
X062866Y001478D01*
X062896Y001508D01*
X062929Y001535D01*
X062964Y001560D01*
X063002Y001580D01*
X063041Y001598D01*
X063081Y001611D01*
X063123Y001621D01*
X063165Y001627D01*
X063208Y001629D01*
X063251Y001627D01*
X063293Y001621D01*
X063335Y001611D01*
X063375Y001598D01*
X063414Y001580D01*
X063452Y001560D01*
X063487Y001535D01*
X063520Y001508D01*
X063550Y001478D01*
X063577Y001445D01*
X063602Y001410D01*
X063622Y001372D01*
X063640Y001333D01*
X063653Y001293D01*
X063663Y001251D01*
X063669Y001209D01*
X063671Y001166D01*
X063669Y001123D01*
X063663Y001081D01*
X063653Y001039D01*
X063640Y000999D01*
X063622Y000960D01*
X063602Y000922D01*
X063577Y000887D01*
X063550Y000854D01*
X063520Y000824D01*
X063487Y000797D01*
X063452Y000772D01*
X063414Y000752D01*
X063375Y000734D01*
X063335Y000721D01*
X063293Y000711D01*
X063251Y000705D01*
X063208Y000703D01*
X063165Y000705D01*
X063123Y000711D01*
X063081Y000721D01*
X063041Y000734D01*
X063002Y000752D01*
X062964Y000772D01*
X062929Y000797D01*
X062896Y000824D01*
X062866Y000854D01*
X062839Y000887D01*
X062814Y000922D01*
X062794Y000960D01*
X062776Y000999D01*
X062763Y001039D01*
X062753Y001081D01*
X062747Y001123D01*
X062745Y001166D01*
X068650Y001166D02*
X068652Y001209D01*
X068658Y001251D01*
X068668Y001293D01*
X068681Y001333D01*
X068699Y001372D01*
X068719Y001410D01*
X068744Y001445D01*
X068771Y001478D01*
X068801Y001508D01*
X068834Y001535D01*
X068869Y001560D01*
X068907Y001580D01*
X068946Y001598D01*
X068986Y001611D01*
X069028Y001621D01*
X069070Y001627D01*
X069113Y001629D01*
X069156Y001627D01*
X069198Y001621D01*
X069240Y001611D01*
X069280Y001598D01*
X069319Y001580D01*
X069357Y001560D01*
X069392Y001535D01*
X069425Y001508D01*
X069455Y001478D01*
X069482Y001445D01*
X069507Y001410D01*
X069527Y001372D01*
X069545Y001333D01*
X069558Y001293D01*
X069568Y001251D01*
X069574Y001209D01*
X069576Y001166D01*
X069574Y001123D01*
X069568Y001081D01*
X069558Y001039D01*
X069545Y000999D01*
X069527Y000960D01*
X069507Y000922D01*
X069482Y000887D01*
X069455Y000854D01*
X069425Y000824D01*
X069392Y000797D01*
X069357Y000772D01*
X069319Y000752D01*
X069280Y000734D01*
X069240Y000721D01*
X069198Y000711D01*
X069156Y000705D01*
X069113Y000703D01*
X069070Y000705D01*
X069028Y000711D01*
X068986Y000721D01*
X068946Y000734D01*
X068907Y000752D01*
X068869Y000772D01*
X068834Y000797D01*
X068801Y000824D01*
X068771Y000854D01*
X068744Y000887D01*
X068719Y000922D01*
X068699Y000960D01*
X068681Y000999D01*
X068668Y001039D01*
X068658Y001081D01*
X068652Y001123D01*
X068650Y001166D01*
X071406Y001166D02*
X071408Y001209D01*
X071414Y001251D01*
X071424Y001293D01*
X071437Y001333D01*
X071455Y001372D01*
X071475Y001410D01*
X071500Y001445D01*
X071527Y001478D01*
X071557Y001508D01*
X071590Y001535D01*
X071625Y001560D01*
X071663Y001580D01*
X071702Y001598D01*
X071742Y001611D01*
X071784Y001621D01*
X071826Y001627D01*
X071869Y001629D01*
X071912Y001627D01*
X071954Y001621D01*
X071996Y001611D01*
X072036Y001598D01*
X072075Y001580D01*
X072113Y001560D01*
X072148Y001535D01*
X072181Y001508D01*
X072211Y001478D01*
X072238Y001445D01*
X072263Y001410D01*
X072283Y001372D01*
X072301Y001333D01*
X072314Y001293D01*
X072324Y001251D01*
X072330Y001209D01*
X072332Y001166D01*
X072330Y001123D01*
X072324Y001081D01*
X072314Y001039D01*
X072301Y000999D01*
X072283Y000960D01*
X072263Y000922D01*
X072238Y000887D01*
X072211Y000854D01*
X072181Y000824D01*
X072148Y000797D01*
X072113Y000772D01*
X072075Y000752D01*
X072036Y000734D01*
X071996Y000721D01*
X071954Y000711D01*
X071912Y000705D01*
X071869Y000703D01*
X071826Y000705D01*
X071784Y000711D01*
X071742Y000721D01*
X071702Y000734D01*
X071663Y000752D01*
X071625Y000772D01*
X071590Y000797D01*
X071557Y000824D01*
X071527Y000854D01*
X071500Y000887D01*
X071475Y000922D01*
X071455Y000960D01*
X071437Y000999D01*
X071424Y001039D01*
X071414Y001081D01*
X071408Y001123D01*
X071406Y001166D01*
X077312Y001166D02*
X077314Y001209D01*
X077320Y001251D01*
X077330Y001293D01*
X077343Y001333D01*
X077361Y001372D01*
X077381Y001410D01*
X077406Y001445D01*
X077433Y001478D01*
X077463Y001508D01*
X077496Y001535D01*
X077531Y001560D01*
X077569Y001580D01*
X077608Y001598D01*
X077648Y001611D01*
X077690Y001621D01*
X077732Y001627D01*
X077775Y001629D01*
X077818Y001627D01*
X077860Y001621D01*
X077902Y001611D01*
X077942Y001598D01*
X077981Y001580D01*
X078019Y001560D01*
X078054Y001535D01*
X078087Y001508D01*
X078117Y001478D01*
X078144Y001445D01*
X078169Y001410D01*
X078189Y001372D01*
X078207Y001333D01*
X078220Y001293D01*
X078230Y001251D01*
X078236Y001209D01*
X078238Y001166D01*
X078236Y001123D01*
X078230Y001081D01*
X078220Y001039D01*
X078207Y000999D01*
X078189Y000960D01*
X078169Y000922D01*
X078144Y000887D01*
X078117Y000854D01*
X078087Y000824D01*
X078054Y000797D01*
X078019Y000772D01*
X077981Y000752D01*
X077942Y000734D01*
X077902Y000721D01*
X077860Y000711D01*
X077818Y000705D01*
X077775Y000703D01*
X077732Y000705D01*
X077690Y000711D01*
X077648Y000721D01*
X077608Y000734D01*
X077569Y000752D01*
X077531Y000772D01*
X077496Y000797D01*
X077463Y000824D01*
X077433Y000854D01*
X077406Y000887D01*
X077381Y000922D01*
X077361Y000960D01*
X077343Y000999D01*
X077330Y001039D01*
X077320Y001081D01*
X077314Y001123D01*
X077312Y001166D01*
X077224Y003725D02*
X077226Y003772D01*
X077232Y003818D01*
X077242Y003864D01*
X077255Y003909D01*
X077273Y003952D01*
X077294Y003994D01*
X077318Y004034D01*
X077346Y004071D01*
X077377Y004106D01*
X077411Y004139D01*
X077447Y004168D01*
X077486Y004194D01*
X077527Y004217D01*
X077570Y004236D01*
X077614Y004252D01*
X077659Y004264D01*
X077705Y004272D01*
X077752Y004276D01*
X077798Y004276D01*
X077845Y004272D01*
X077891Y004264D01*
X077936Y004252D01*
X077980Y004236D01*
X078023Y004217D01*
X078064Y004194D01*
X078103Y004168D01*
X078139Y004139D01*
X078173Y004106D01*
X078204Y004071D01*
X078232Y004034D01*
X078256Y003994D01*
X078277Y003952D01*
X078295Y003909D01*
X078308Y003864D01*
X078318Y003818D01*
X078324Y003772D01*
X078326Y003725D01*
X078324Y003678D01*
X078318Y003632D01*
X078308Y003586D01*
X078295Y003541D01*
X078277Y003498D01*
X078256Y003456D01*
X078232Y003416D01*
X078204Y003379D01*
X078173Y003344D01*
X078139Y003311D01*
X078103Y003282D01*
X078064Y003256D01*
X078023Y003233D01*
X077980Y003214D01*
X077936Y003198D01*
X077891Y003186D01*
X077845Y003178D01*
X077798Y003174D01*
X077752Y003174D01*
X077705Y003178D01*
X077659Y003186D01*
X077614Y003198D01*
X077570Y003214D01*
X077527Y003233D01*
X077486Y003256D01*
X077447Y003282D01*
X077411Y003311D01*
X077377Y003344D01*
X077346Y003379D01*
X077318Y003416D01*
X077294Y003456D01*
X077273Y003498D01*
X077255Y003541D01*
X077242Y003586D01*
X077232Y003632D01*
X077226Y003678D01*
X077224Y003725D01*
X076769Y008449D02*
X076771Y008492D01*
X076777Y008535D01*
X076787Y008577D01*
X076800Y008618D01*
X076817Y008657D01*
X076838Y008695D01*
X076862Y008731D01*
X076889Y008765D01*
X076919Y008795D01*
X076952Y008823D01*
X076988Y008848D01*
X077025Y008870D01*
X077064Y008888D01*
X077105Y008902D01*
X077147Y008913D01*
X077189Y008920D01*
X077232Y008923D01*
X077275Y008922D01*
X077318Y008917D01*
X077360Y008908D01*
X077402Y008896D01*
X077442Y008879D01*
X077480Y008859D01*
X077516Y008836D01*
X077550Y008810D01*
X077582Y008780D01*
X077611Y008748D01*
X077636Y008713D01*
X077659Y008677D01*
X077678Y008638D01*
X077693Y008598D01*
X077705Y008556D01*
X077713Y008514D01*
X077717Y008471D01*
X077717Y008427D01*
X077713Y008384D01*
X077705Y008342D01*
X077693Y008300D01*
X077678Y008260D01*
X077659Y008221D01*
X077636Y008185D01*
X077611Y008150D01*
X077582Y008118D01*
X077550Y008088D01*
X077516Y008062D01*
X077480Y008039D01*
X077442Y008019D01*
X077402Y008002D01*
X077360Y007990D01*
X077318Y007981D01*
X077275Y007976D01*
X077232Y007975D01*
X077189Y007978D01*
X077147Y007985D01*
X077105Y007996D01*
X077064Y008010D01*
X077025Y008028D01*
X076988Y008050D01*
X076952Y008075D01*
X076919Y008103D01*
X076889Y008133D01*
X076862Y008167D01*
X076838Y008203D01*
X076817Y008241D01*
X076800Y008280D01*
X076787Y008321D01*
X076777Y008363D01*
X076771Y008406D01*
X076769Y008449D01*
X072714Y008449D02*
X072716Y008492D01*
X072722Y008535D01*
X072732Y008577D01*
X072745Y008618D01*
X072762Y008657D01*
X072783Y008695D01*
X072807Y008731D01*
X072834Y008765D01*
X072864Y008795D01*
X072897Y008823D01*
X072933Y008848D01*
X072970Y008870D01*
X073009Y008888D01*
X073050Y008902D01*
X073092Y008913D01*
X073134Y008920D01*
X073177Y008923D01*
X073220Y008922D01*
X073263Y008917D01*
X073305Y008908D01*
X073347Y008896D01*
X073387Y008879D01*
X073425Y008859D01*
X073461Y008836D01*
X073495Y008810D01*
X073527Y008780D01*
X073556Y008748D01*
X073581Y008713D01*
X073604Y008677D01*
X073623Y008638D01*
X073638Y008598D01*
X073650Y008556D01*
X073658Y008514D01*
X073662Y008471D01*
X073662Y008427D01*
X073658Y008384D01*
X073650Y008342D01*
X073638Y008300D01*
X073623Y008260D01*
X073604Y008221D01*
X073581Y008185D01*
X073556Y008150D01*
X073527Y008118D01*
X073495Y008088D01*
X073461Y008062D01*
X073425Y008039D01*
X073387Y008019D01*
X073347Y008002D01*
X073305Y007990D01*
X073263Y007981D01*
X073220Y007976D01*
X073177Y007975D01*
X073134Y007978D01*
X073092Y007985D01*
X073050Y007996D01*
X073009Y008010D01*
X072970Y008028D01*
X072933Y008050D01*
X072897Y008075D01*
X072864Y008103D01*
X072834Y008133D01*
X072807Y008167D01*
X072783Y008203D01*
X072762Y008241D01*
X072745Y008280D01*
X072732Y008321D01*
X072722Y008363D01*
X072716Y008406D01*
X072714Y008449D01*
X071257Y008449D02*
X071259Y008492D01*
X071265Y008535D01*
X071275Y008577D01*
X071288Y008618D01*
X071305Y008657D01*
X071326Y008695D01*
X071350Y008731D01*
X071377Y008765D01*
X071407Y008795D01*
X071440Y008823D01*
X071476Y008848D01*
X071513Y008870D01*
X071552Y008888D01*
X071593Y008902D01*
X071635Y008913D01*
X071677Y008920D01*
X071720Y008923D01*
X071763Y008922D01*
X071806Y008917D01*
X071848Y008908D01*
X071890Y008896D01*
X071930Y008879D01*
X071968Y008859D01*
X072004Y008836D01*
X072038Y008810D01*
X072070Y008780D01*
X072099Y008748D01*
X072124Y008713D01*
X072147Y008677D01*
X072166Y008638D01*
X072181Y008598D01*
X072193Y008556D01*
X072201Y008514D01*
X072205Y008471D01*
X072205Y008427D01*
X072201Y008384D01*
X072193Y008342D01*
X072181Y008300D01*
X072166Y008260D01*
X072147Y008221D01*
X072124Y008185D01*
X072099Y008150D01*
X072070Y008118D01*
X072038Y008088D01*
X072004Y008062D01*
X071968Y008039D01*
X071930Y008019D01*
X071890Y008002D01*
X071848Y007990D01*
X071806Y007981D01*
X071763Y007976D01*
X071720Y007975D01*
X071677Y007978D01*
X071635Y007985D01*
X071593Y007996D01*
X071552Y008010D01*
X071513Y008028D01*
X071476Y008050D01*
X071440Y008075D01*
X071407Y008103D01*
X071377Y008133D01*
X071350Y008167D01*
X071326Y008203D01*
X071305Y008241D01*
X071288Y008280D01*
X071275Y008321D01*
X071265Y008363D01*
X071259Y008406D01*
X071257Y008449D01*
X067202Y008449D02*
X067204Y008492D01*
X067210Y008535D01*
X067220Y008577D01*
X067233Y008618D01*
X067250Y008657D01*
X067271Y008695D01*
X067295Y008731D01*
X067322Y008765D01*
X067352Y008795D01*
X067385Y008823D01*
X067421Y008848D01*
X067458Y008870D01*
X067497Y008888D01*
X067538Y008902D01*
X067580Y008913D01*
X067622Y008920D01*
X067665Y008923D01*
X067708Y008922D01*
X067751Y008917D01*
X067793Y008908D01*
X067835Y008896D01*
X067875Y008879D01*
X067913Y008859D01*
X067949Y008836D01*
X067983Y008810D01*
X068015Y008780D01*
X068044Y008748D01*
X068069Y008713D01*
X068092Y008677D01*
X068111Y008638D01*
X068126Y008598D01*
X068138Y008556D01*
X068146Y008514D01*
X068150Y008471D01*
X068150Y008427D01*
X068146Y008384D01*
X068138Y008342D01*
X068126Y008300D01*
X068111Y008260D01*
X068092Y008221D01*
X068069Y008185D01*
X068044Y008150D01*
X068015Y008118D01*
X067983Y008088D01*
X067949Y008062D01*
X067913Y008039D01*
X067875Y008019D01*
X067835Y008002D01*
X067793Y007990D01*
X067751Y007981D01*
X067708Y007976D01*
X067665Y007975D01*
X067622Y007978D01*
X067580Y007985D01*
X067538Y007996D01*
X067497Y008010D01*
X067458Y008028D01*
X067421Y008050D01*
X067385Y008075D01*
X067352Y008103D01*
X067322Y008133D01*
X067295Y008167D01*
X067271Y008203D01*
X067250Y008241D01*
X067233Y008280D01*
X067220Y008321D01*
X067210Y008363D01*
X067204Y008406D01*
X067202Y008449D01*
X065746Y008449D02*
X065748Y008492D01*
X065754Y008535D01*
X065764Y008577D01*
X065777Y008618D01*
X065794Y008657D01*
X065815Y008695D01*
X065839Y008731D01*
X065866Y008765D01*
X065896Y008795D01*
X065929Y008823D01*
X065965Y008848D01*
X066002Y008870D01*
X066041Y008888D01*
X066082Y008902D01*
X066124Y008913D01*
X066166Y008920D01*
X066209Y008923D01*
X066252Y008922D01*
X066295Y008917D01*
X066337Y008908D01*
X066379Y008896D01*
X066419Y008879D01*
X066457Y008859D01*
X066493Y008836D01*
X066527Y008810D01*
X066559Y008780D01*
X066588Y008748D01*
X066613Y008713D01*
X066636Y008677D01*
X066655Y008638D01*
X066670Y008598D01*
X066682Y008556D01*
X066690Y008514D01*
X066694Y008471D01*
X066694Y008427D01*
X066690Y008384D01*
X066682Y008342D01*
X066670Y008300D01*
X066655Y008260D01*
X066636Y008221D01*
X066613Y008185D01*
X066588Y008150D01*
X066559Y008118D01*
X066527Y008088D01*
X066493Y008062D01*
X066457Y008039D01*
X066419Y008019D01*
X066379Y008002D01*
X066337Y007990D01*
X066295Y007981D01*
X066252Y007976D01*
X066209Y007975D01*
X066166Y007978D01*
X066124Y007985D01*
X066082Y007996D01*
X066041Y008010D01*
X066002Y008028D01*
X065965Y008050D01*
X065929Y008075D01*
X065896Y008103D01*
X065866Y008133D01*
X065839Y008167D01*
X065815Y008203D01*
X065794Y008241D01*
X065777Y008280D01*
X065764Y008321D01*
X065754Y008363D01*
X065748Y008406D01*
X065746Y008449D01*
X061691Y008449D02*
X061693Y008492D01*
X061699Y008535D01*
X061709Y008577D01*
X061722Y008618D01*
X061739Y008657D01*
X061760Y008695D01*
X061784Y008731D01*
X061811Y008765D01*
X061841Y008795D01*
X061874Y008823D01*
X061910Y008848D01*
X061947Y008870D01*
X061986Y008888D01*
X062027Y008902D01*
X062069Y008913D01*
X062111Y008920D01*
X062154Y008923D01*
X062197Y008922D01*
X062240Y008917D01*
X062282Y008908D01*
X062324Y008896D01*
X062364Y008879D01*
X062402Y008859D01*
X062438Y008836D01*
X062472Y008810D01*
X062504Y008780D01*
X062533Y008748D01*
X062558Y008713D01*
X062581Y008677D01*
X062600Y008638D01*
X062615Y008598D01*
X062627Y008556D01*
X062635Y008514D01*
X062639Y008471D01*
X062639Y008427D01*
X062635Y008384D01*
X062627Y008342D01*
X062615Y008300D01*
X062600Y008260D01*
X062581Y008221D01*
X062558Y008185D01*
X062533Y008150D01*
X062504Y008118D01*
X062472Y008088D01*
X062438Y008062D01*
X062402Y008039D01*
X062364Y008019D01*
X062324Y008002D01*
X062282Y007990D01*
X062240Y007981D01*
X062197Y007976D01*
X062154Y007975D01*
X062111Y007978D01*
X062069Y007985D01*
X062027Y007996D01*
X061986Y008010D01*
X061947Y008028D01*
X061910Y008050D01*
X061874Y008075D01*
X061841Y008103D01*
X061811Y008133D01*
X061784Y008167D01*
X061760Y008203D01*
X061739Y008241D01*
X061722Y008280D01*
X061709Y008321D01*
X061699Y008363D01*
X061693Y008406D01*
X061691Y008449D01*
X060234Y008449D02*
X060236Y008492D01*
X060242Y008535D01*
X060252Y008577D01*
X060265Y008618D01*
X060282Y008657D01*
X060303Y008695D01*
X060327Y008731D01*
X060354Y008765D01*
X060384Y008795D01*
X060417Y008823D01*
X060453Y008848D01*
X060490Y008870D01*
X060529Y008888D01*
X060570Y008902D01*
X060612Y008913D01*
X060654Y008920D01*
X060697Y008923D01*
X060740Y008922D01*
X060783Y008917D01*
X060825Y008908D01*
X060867Y008896D01*
X060907Y008879D01*
X060945Y008859D01*
X060981Y008836D01*
X061015Y008810D01*
X061047Y008780D01*
X061076Y008748D01*
X061101Y008713D01*
X061124Y008677D01*
X061143Y008638D01*
X061158Y008598D01*
X061170Y008556D01*
X061178Y008514D01*
X061182Y008471D01*
X061182Y008427D01*
X061178Y008384D01*
X061170Y008342D01*
X061158Y008300D01*
X061143Y008260D01*
X061124Y008221D01*
X061101Y008185D01*
X061076Y008150D01*
X061047Y008118D01*
X061015Y008088D01*
X060981Y008062D01*
X060945Y008039D01*
X060907Y008019D01*
X060867Y008002D01*
X060825Y007990D01*
X060783Y007981D01*
X060740Y007976D01*
X060697Y007975D01*
X060654Y007978D01*
X060612Y007985D01*
X060570Y007996D01*
X060529Y008010D01*
X060490Y008028D01*
X060453Y008050D01*
X060417Y008075D01*
X060384Y008103D01*
X060354Y008133D01*
X060327Y008167D01*
X060303Y008203D01*
X060282Y008241D01*
X060265Y008280D01*
X060252Y008321D01*
X060242Y008363D01*
X060236Y008406D01*
X060234Y008449D01*
X056179Y008449D02*
X056181Y008492D01*
X056187Y008535D01*
X056197Y008577D01*
X056210Y008618D01*
X056227Y008657D01*
X056248Y008695D01*
X056272Y008731D01*
X056299Y008765D01*
X056329Y008795D01*
X056362Y008823D01*
X056398Y008848D01*
X056435Y008870D01*
X056474Y008888D01*
X056515Y008902D01*
X056557Y008913D01*
X056599Y008920D01*
X056642Y008923D01*
X056685Y008922D01*
X056728Y008917D01*
X056770Y008908D01*
X056812Y008896D01*
X056852Y008879D01*
X056890Y008859D01*
X056926Y008836D01*
X056960Y008810D01*
X056992Y008780D01*
X057021Y008748D01*
X057046Y008713D01*
X057069Y008677D01*
X057088Y008638D01*
X057103Y008598D01*
X057115Y008556D01*
X057123Y008514D01*
X057127Y008471D01*
X057127Y008427D01*
X057123Y008384D01*
X057115Y008342D01*
X057103Y008300D01*
X057088Y008260D01*
X057069Y008221D01*
X057046Y008185D01*
X057021Y008150D01*
X056992Y008118D01*
X056960Y008088D01*
X056926Y008062D01*
X056890Y008039D01*
X056852Y008019D01*
X056812Y008002D01*
X056770Y007990D01*
X056728Y007981D01*
X056685Y007976D01*
X056642Y007975D01*
X056599Y007978D01*
X056557Y007985D01*
X056515Y007996D01*
X056474Y008010D01*
X056435Y008028D01*
X056398Y008050D01*
X056362Y008075D01*
X056329Y008103D01*
X056299Y008133D01*
X056272Y008167D01*
X056248Y008203D01*
X056227Y008241D01*
X056210Y008280D01*
X056197Y008321D01*
X056187Y008363D01*
X056181Y008406D01*
X056179Y008449D01*
X054722Y008449D02*
X054724Y008492D01*
X054730Y008535D01*
X054740Y008577D01*
X054753Y008618D01*
X054770Y008657D01*
X054791Y008695D01*
X054815Y008731D01*
X054842Y008765D01*
X054872Y008795D01*
X054905Y008823D01*
X054941Y008848D01*
X054978Y008870D01*
X055017Y008888D01*
X055058Y008902D01*
X055100Y008913D01*
X055142Y008920D01*
X055185Y008923D01*
X055228Y008922D01*
X055271Y008917D01*
X055313Y008908D01*
X055355Y008896D01*
X055395Y008879D01*
X055433Y008859D01*
X055469Y008836D01*
X055503Y008810D01*
X055535Y008780D01*
X055564Y008748D01*
X055589Y008713D01*
X055612Y008677D01*
X055631Y008638D01*
X055646Y008598D01*
X055658Y008556D01*
X055666Y008514D01*
X055670Y008471D01*
X055670Y008427D01*
X055666Y008384D01*
X055658Y008342D01*
X055646Y008300D01*
X055631Y008260D01*
X055612Y008221D01*
X055589Y008185D01*
X055564Y008150D01*
X055535Y008118D01*
X055503Y008088D01*
X055469Y008062D01*
X055433Y008039D01*
X055395Y008019D01*
X055355Y008002D01*
X055313Y007990D01*
X055271Y007981D01*
X055228Y007976D01*
X055185Y007975D01*
X055142Y007978D01*
X055100Y007985D01*
X055058Y007996D01*
X055017Y008010D01*
X054978Y008028D01*
X054941Y008050D01*
X054905Y008075D01*
X054872Y008103D01*
X054842Y008133D01*
X054815Y008167D01*
X054791Y008203D01*
X054770Y008241D01*
X054753Y008280D01*
X054740Y008321D01*
X054730Y008363D01*
X054724Y008406D01*
X054722Y008449D01*
X050667Y008449D02*
X050669Y008492D01*
X050675Y008535D01*
X050685Y008577D01*
X050698Y008618D01*
X050715Y008657D01*
X050736Y008695D01*
X050760Y008731D01*
X050787Y008765D01*
X050817Y008795D01*
X050850Y008823D01*
X050886Y008848D01*
X050923Y008870D01*
X050962Y008888D01*
X051003Y008902D01*
X051045Y008913D01*
X051087Y008920D01*
X051130Y008923D01*
X051173Y008922D01*
X051216Y008917D01*
X051258Y008908D01*
X051300Y008896D01*
X051340Y008879D01*
X051378Y008859D01*
X051414Y008836D01*
X051448Y008810D01*
X051480Y008780D01*
X051509Y008748D01*
X051534Y008713D01*
X051557Y008677D01*
X051576Y008638D01*
X051591Y008598D01*
X051603Y008556D01*
X051611Y008514D01*
X051615Y008471D01*
X051615Y008427D01*
X051611Y008384D01*
X051603Y008342D01*
X051591Y008300D01*
X051576Y008260D01*
X051557Y008221D01*
X051534Y008185D01*
X051509Y008150D01*
X051480Y008118D01*
X051448Y008088D01*
X051414Y008062D01*
X051378Y008039D01*
X051340Y008019D01*
X051300Y008002D01*
X051258Y007990D01*
X051216Y007981D01*
X051173Y007976D01*
X051130Y007975D01*
X051087Y007978D01*
X051045Y007985D01*
X051003Y007996D01*
X050962Y008010D01*
X050923Y008028D01*
X050886Y008050D01*
X050850Y008075D01*
X050817Y008103D01*
X050787Y008133D01*
X050760Y008167D01*
X050736Y008203D01*
X050715Y008241D01*
X050698Y008280D01*
X050685Y008321D01*
X050675Y008363D01*
X050669Y008406D01*
X050667Y008449D01*
X049210Y008449D02*
X049212Y008492D01*
X049218Y008535D01*
X049228Y008577D01*
X049241Y008618D01*
X049258Y008657D01*
X049279Y008695D01*
X049303Y008731D01*
X049330Y008765D01*
X049360Y008795D01*
X049393Y008823D01*
X049429Y008848D01*
X049466Y008870D01*
X049505Y008888D01*
X049546Y008902D01*
X049588Y008913D01*
X049630Y008920D01*
X049673Y008923D01*
X049716Y008922D01*
X049759Y008917D01*
X049801Y008908D01*
X049843Y008896D01*
X049883Y008879D01*
X049921Y008859D01*
X049957Y008836D01*
X049991Y008810D01*
X050023Y008780D01*
X050052Y008748D01*
X050077Y008713D01*
X050100Y008677D01*
X050119Y008638D01*
X050134Y008598D01*
X050146Y008556D01*
X050154Y008514D01*
X050158Y008471D01*
X050158Y008427D01*
X050154Y008384D01*
X050146Y008342D01*
X050134Y008300D01*
X050119Y008260D01*
X050100Y008221D01*
X050077Y008185D01*
X050052Y008150D01*
X050023Y008118D01*
X049991Y008088D01*
X049957Y008062D01*
X049921Y008039D01*
X049883Y008019D01*
X049843Y008002D01*
X049801Y007990D01*
X049759Y007981D01*
X049716Y007976D01*
X049673Y007975D01*
X049630Y007978D01*
X049588Y007985D01*
X049546Y007996D01*
X049505Y008010D01*
X049466Y008028D01*
X049429Y008050D01*
X049393Y008075D01*
X049360Y008103D01*
X049330Y008133D01*
X049303Y008167D01*
X049279Y008203D01*
X049258Y008241D01*
X049241Y008280D01*
X049228Y008321D01*
X049218Y008363D01*
X049212Y008406D01*
X049210Y008449D01*
X045155Y008449D02*
X045157Y008492D01*
X045163Y008535D01*
X045173Y008577D01*
X045186Y008618D01*
X045203Y008657D01*
X045224Y008695D01*
X045248Y008731D01*
X045275Y008765D01*
X045305Y008795D01*
X045338Y008823D01*
X045374Y008848D01*
X045411Y008870D01*
X045450Y008888D01*
X045491Y008902D01*
X045533Y008913D01*
X045575Y008920D01*
X045618Y008923D01*
X045661Y008922D01*
X045704Y008917D01*
X045746Y008908D01*
X045788Y008896D01*
X045828Y008879D01*
X045866Y008859D01*
X045902Y008836D01*
X045936Y008810D01*
X045968Y008780D01*
X045997Y008748D01*
X046022Y008713D01*
X046045Y008677D01*
X046064Y008638D01*
X046079Y008598D01*
X046091Y008556D01*
X046099Y008514D01*
X046103Y008471D01*
X046103Y008427D01*
X046099Y008384D01*
X046091Y008342D01*
X046079Y008300D01*
X046064Y008260D01*
X046045Y008221D01*
X046022Y008185D01*
X045997Y008150D01*
X045968Y008118D01*
X045936Y008088D01*
X045902Y008062D01*
X045866Y008039D01*
X045828Y008019D01*
X045788Y008002D01*
X045746Y007990D01*
X045704Y007981D01*
X045661Y007976D01*
X045618Y007975D01*
X045575Y007978D01*
X045533Y007985D01*
X045491Y007996D01*
X045450Y008010D01*
X045411Y008028D01*
X045374Y008050D01*
X045338Y008075D01*
X045305Y008103D01*
X045275Y008133D01*
X045248Y008167D01*
X045224Y008203D01*
X045203Y008241D01*
X045186Y008280D01*
X045173Y008321D01*
X045163Y008363D01*
X045157Y008406D01*
X045155Y008449D01*
X043698Y008449D02*
X043700Y008492D01*
X043706Y008535D01*
X043716Y008577D01*
X043729Y008618D01*
X043746Y008657D01*
X043767Y008695D01*
X043791Y008731D01*
X043818Y008765D01*
X043848Y008795D01*
X043881Y008823D01*
X043917Y008848D01*
X043954Y008870D01*
X043993Y008888D01*
X044034Y008902D01*
X044076Y008913D01*
X044118Y008920D01*
X044161Y008923D01*
X044204Y008922D01*
X044247Y008917D01*
X044289Y008908D01*
X044331Y008896D01*
X044371Y008879D01*
X044409Y008859D01*
X044445Y008836D01*
X044479Y008810D01*
X044511Y008780D01*
X044540Y008748D01*
X044565Y008713D01*
X044588Y008677D01*
X044607Y008638D01*
X044622Y008598D01*
X044634Y008556D01*
X044642Y008514D01*
X044646Y008471D01*
X044646Y008427D01*
X044642Y008384D01*
X044634Y008342D01*
X044622Y008300D01*
X044607Y008260D01*
X044588Y008221D01*
X044565Y008185D01*
X044540Y008150D01*
X044511Y008118D01*
X044479Y008088D01*
X044445Y008062D01*
X044409Y008039D01*
X044371Y008019D01*
X044331Y008002D01*
X044289Y007990D01*
X044247Y007981D01*
X044204Y007976D01*
X044161Y007975D01*
X044118Y007978D01*
X044076Y007985D01*
X044034Y007996D01*
X043993Y008010D01*
X043954Y008028D01*
X043917Y008050D01*
X043881Y008075D01*
X043848Y008103D01*
X043818Y008133D01*
X043791Y008167D01*
X043767Y008203D01*
X043746Y008241D01*
X043729Y008280D01*
X043716Y008321D01*
X043706Y008363D01*
X043700Y008406D01*
X043698Y008449D01*
X039643Y008449D02*
X039645Y008492D01*
X039651Y008535D01*
X039661Y008577D01*
X039674Y008618D01*
X039691Y008657D01*
X039712Y008695D01*
X039736Y008731D01*
X039763Y008765D01*
X039793Y008795D01*
X039826Y008823D01*
X039862Y008848D01*
X039899Y008870D01*
X039938Y008888D01*
X039979Y008902D01*
X040021Y008913D01*
X040063Y008920D01*
X040106Y008923D01*
X040149Y008922D01*
X040192Y008917D01*
X040234Y008908D01*
X040276Y008896D01*
X040316Y008879D01*
X040354Y008859D01*
X040390Y008836D01*
X040424Y008810D01*
X040456Y008780D01*
X040485Y008748D01*
X040510Y008713D01*
X040533Y008677D01*
X040552Y008638D01*
X040567Y008598D01*
X040579Y008556D01*
X040587Y008514D01*
X040591Y008471D01*
X040591Y008427D01*
X040587Y008384D01*
X040579Y008342D01*
X040567Y008300D01*
X040552Y008260D01*
X040533Y008221D01*
X040510Y008185D01*
X040485Y008150D01*
X040456Y008118D01*
X040424Y008088D01*
X040390Y008062D01*
X040354Y008039D01*
X040316Y008019D01*
X040276Y008002D01*
X040234Y007990D01*
X040192Y007981D01*
X040149Y007976D01*
X040106Y007975D01*
X040063Y007978D01*
X040021Y007985D01*
X039979Y007996D01*
X039938Y008010D01*
X039899Y008028D01*
X039862Y008050D01*
X039826Y008075D01*
X039793Y008103D01*
X039763Y008133D01*
X039736Y008167D01*
X039712Y008203D01*
X039691Y008241D01*
X039674Y008280D01*
X039661Y008321D01*
X039651Y008363D01*
X039645Y008406D01*
X039643Y008449D01*
X038187Y008449D02*
X038189Y008492D01*
X038195Y008535D01*
X038205Y008577D01*
X038218Y008618D01*
X038235Y008657D01*
X038256Y008695D01*
X038280Y008731D01*
X038307Y008765D01*
X038337Y008795D01*
X038370Y008823D01*
X038406Y008848D01*
X038443Y008870D01*
X038482Y008888D01*
X038523Y008902D01*
X038565Y008913D01*
X038607Y008920D01*
X038650Y008923D01*
X038693Y008922D01*
X038736Y008917D01*
X038778Y008908D01*
X038820Y008896D01*
X038860Y008879D01*
X038898Y008859D01*
X038934Y008836D01*
X038968Y008810D01*
X039000Y008780D01*
X039029Y008748D01*
X039054Y008713D01*
X039077Y008677D01*
X039096Y008638D01*
X039111Y008598D01*
X039123Y008556D01*
X039131Y008514D01*
X039135Y008471D01*
X039135Y008427D01*
X039131Y008384D01*
X039123Y008342D01*
X039111Y008300D01*
X039096Y008260D01*
X039077Y008221D01*
X039054Y008185D01*
X039029Y008150D01*
X039000Y008118D01*
X038968Y008088D01*
X038934Y008062D01*
X038898Y008039D01*
X038860Y008019D01*
X038820Y008002D01*
X038778Y007990D01*
X038736Y007981D01*
X038693Y007976D01*
X038650Y007975D01*
X038607Y007978D01*
X038565Y007985D01*
X038523Y007996D01*
X038482Y008010D01*
X038443Y008028D01*
X038406Y008050D01*
X038370Y008075D01*
X038337Y008103D01*
X038307Y008133D01*
X038280Y008167D01*
X038256Y008203D01*
X038235Y008241D01*
X038218Y008280D01*
X038205Y008321D01*
X038195Y008363D01*
X038189Y008406D01*
X038187Y008449D01*
X034132Y008449D02*
X034134Y008492D01*
X034140Y008535D01*
X034150Y008577D01*
X034163Y008618D01*
X034180Y008657D01*
X034201Y008695D01*
X034225Y008731D01*
X034252Y008765D01*
X034282Y008795D01*
X034315Y008823D01*
X034351Y008848D01*
X034388Y008870D01*
X034427Y008888D01*
X034468Y008902D01*
X034510Y008913D01*
X034552Y008920D01*
X034595Y008923D01*
X034638Y008922D01*
X034681Y008917D01*
X034723Y008908D01*
X034765Y008896D01*
X034805Y008879D01*
X034843Y008859D01*
X034879Y008836D01*
X034913Y008810D01*
X034945Y008780D01*
X034974Y008748D01*
X034999Y008713D01*
X035022Y008677D01*
X035041Y008638D01*
X035056Y008598D01*
X035068Y008556D01*
X035076Y008514D01*
X035080Y008471D01*
X035080Y008427D01*
X035076Y008384D01*
X035068Y008342D01*
X035056Y008300D01*
X035041Y008260D01*
X035022Y008221D01*
X034999Y008185D01*
X034974Y008150D01*
X034945Y008118D01*
X034913Y008088D01*
X034879Y008062D01*
X034843Y008039D01*
X034805Y008019D01*
X034765Y008002D01*
X034723Y007990D01*
X034681Y007981D01*
X034638Y007976D01*
X034595Y007975D01*
X034552Y007978D01*
X034510Y007985D01*
X034468Y007996D01*
X034427Y008010D01*
X034388Y008028D01*
X034351Y008050D01*
X034315Y008075D01*
X034282Y008103D01*
X034252Y008133D01*
X034225Y008167D01*
X034201Y008203D01*
X034180Y008241D01*
X034163Y008280D01*
X034150Y008321D01*
X034140Y008363D01*
X034134Y008406D01*
X034132Y008449D01*
X032675Y008449D02*
X032677Y008492D01*
X032683Y008535D01*
X032693Y008577D01*
X032706Y008618D01*
X032723Y008657D01*
X032744Y008695D01*
X032768Y008731D01*
X032795Y008765D01*
X032825Y008795D01*
X032858Y008823D01*
X032894Y008848D01*
X032931Y008870D01*
X032970Y008888D01*
X033011Y008902D01*
X033053Y008913D01*
X033095Y008920D01*
X033138Y008923D01*
X033181Y008922D01*
X033224Y008917D01*
X033266Y008908D01*
X033308Y008896D01*
X033348Y008879D01*
X033386Y008859D01*
X033422Y008836D01*
X033456Y008810D01*
X033488Y008780D01*
X033517Y008748D01*
X033542Y008713D01*
X033565Y008677D01*
X033584Y008638D01*
X033599Y008598D01*
X033611Y008556D01*
X033619Y008514D01*
X033623Y008471D01*
X033623Y008427D01*
X033619Y008384D01*
X033611Y008342D01*
X033599Y008300D01*
X033584Y008260D01*
X033565Y008221D01*
X033542Y008185D01*
X033517Y008150D01*
X033488Y008118D01*
X033456Y008088D01*
X033422Y008062D01*
X033386Y008039D01*
X033348Y008019D01*
X033308Y008002D01*
X033266Y007990D01*
X033224Y007981D01*
X033181Y007976D01*
X033138Y007975D01*
X033095Y007978D01*
X033053Y007985D01*
X033011Y007996D01*
X032970Y008010D01*
X032931Y008028D01*
X032894Y008050D01*
X032858Y008075D01*
X032825Y008103D01*
X032795Y008133D01*
X032768Y008167D01*
X032744Y008203D01*
X032723Y008241D01*
X032706Y008280D01*
X032693Y008321D01*
X032683Y008363D01*
X032677Y008406D01*
X032675Y008449D01*
X028620Y008449D02*
X028622Y008492D01*
X028628Y008535D01*
X028638Y008577D01*
X028651Y008618D01*
X028668Y008657D01*
X028689Y008695D01*
X028713Y008731D01*
X028740Y008765D01*
X028770Y008795D01*
X028803Y008823D01*
X028839Y008848D01*
X028876Y008870D01*
X028915Y008888D01*
X028956Y008902D01*
X028998Y008913D01*
X029040Y008920D01*
X029083Y008923D01*
X029126Y008922D01*
X029169Y008917D01*
X029211Y008908D01*
X029253Y008896D01*
X029293Y008879D01*
X029331Y008859D01*
X029367Y008836D01*
X029401Y008810D01*
X029433Y008780D01*
X029462Y008748D01*
X029487Y008713D01*
X029510Y008677D01*
X029529Y008638D01*
X029544Y008598D01*
X029556Y008556D01*
X029564Y008514D01*
X029568Y008471D01*
X029568Y008427D01*
X029564Y008384D01*
X029556Y008342D01*
X029544Y008300D01*
X029529Y008260D01*
X029510Y008221D01*
X029487Y008185D01*
X029462Y008150D01*
X029433Y008118D01*
X029401Y008088D01*
X029367Y008062D01*
X029331Y008039D01*
X029293Y008019D01*
X029253Y008002D01*
X029211Y007990D01*
X029169Y007981D01*
X029126Y007976D01*
X029083Y007975D01*
X029040Y007978D01*
X028998Y007985D01*
X028956Y007996D01*
X028915Y008010D01*
X028876Y008028D01*
X028839Y008050D01*
X028803Y008075D01*
X028770Y008103D01*
X028740Y008133D01*
X028713Y008167D01*
X028689Y008203D01*
X028668Y008241D01*
X028651Y008280D01*
X028638Y008321D01*
X028628Y008363D01*
X028622Y008406D01*
X028620Y008449D01*
D13*
X031515Y000693D03*
X040176Y000693D03*
X048838Y000693D03*
X057499Y000693D03*
X066161Y000693D03*
X074822Y000693D03*
D14*
X075216Y006599D03*
X074035Y006599D03*
X076397Y006599D03*
X070885Y006599D03*
X069704Y006599D03*
X068523Y006599D03*
X065373Y006599D03*
X064192Y006599D03*
X063011Y006599D03*
X059861Y006599D03*
X058680Y006599D03*
X057499Y006599D03*
X054350Y006599D03*
X053169Y006599D03*
X051987Y006599D03*
X048838Y006599D03*
X047657Y006599D03*
X046476Y006599D03*
X043326Y006599D03*
X042145Y006599D03*
X040964Y006599D03*
X037814Y006599D03*
X036633Y006599D03*
X035452Y006599D03*
X032302Y006599D03*
X031121Y006599D03*
X029940Y006599D03*
X029940Y010299D03*
X031121Y010299D03*
X032302Y010299D03*
X035452Y010299D03*
X036633Y010299D03*
X037814Y010299D03*
X040964Y010299D03*
X042145Y010299D03*
X043326Y010299D03*
X046476Y010299D03*
X047657Y010299D03*
X048838Y010299D03*
X051987Y010299D03*
X053169Y010299D03*
X054350Y010299D03*
X057499Y010299D03*
X058680Y010299D03*
X059861Y010299D03*
X063011Y010299D03*
X064192Y010299D03*
X065373Y010299D03*
X068523Y010299D03*
X069704Y010299D03*
X070885Y010299D03*
X074035Y010299D03*
X075216Y010299D03*
X076397Y010299D03*
D15*
X076515Y010418D01*
X077184Y010418D01*
X075216Y010299D02*
X075216Y009237D01*
X075216Y008843D01*
X074035Y007662D01*
X074035Y006599D01*
X075216Y006599D02*
X075216Y007662D01*
X076397Y006599D02*
X076397Y006087D01*
X076003Y005693D01*
X071279Y005693D01*
X070885Y006087D01*
X070885Y006599D01*
X070885Y006087D02*
X070098Y005300D01*
X066161Y005300D01*
X065373Y006087D01*
X065373Y006599D01*
X064192Y006599D02*
X064192Y007662D01*
X064192Y008843D02*
X063011Y007662D01*
X063011Y006599D01*
X060649Y006481D02*
X059980Y006481D01*
X059861Y006599D01*
X058680Y006599D02*
X058680Y007662D01*
X057499Y007662D02*
X057499Y006599D01*
X055137Y006481D02*
X054468Y006481D01*
X054350Y006599D01*
X053169Y006599D02*
X053169Y007662D01*
X053169Y008843D02*
X051987Y007662D01*
X051987Y006599D01*
X049625Y006481D02*
X048956Y006481D01*
X048838Y006599D01*
X047657Y006599D02*
X047657Y007662D01*
X047657Y008843D02*
X046476Y007662D01*
X046476Y006599D01*
X044113Y006481D02*
X043444Y006481D01*
X043326Y006599D01*
X042145Y006599D02*
X042145Y007662D01*
X042145Y008843D02*
X040964Y007662D01*
X040964Y006599D01*
X038602Y006481D02*
X037933Y006481D01*
X037814Y006599D01*
X036633Y006599D02*
X036633Y007662D01*
X036633Y008843D02*
X035452Y007662D01*
X035452Y006599D01*
X033090Y006481D02*
X032421Y006481D01*
X032302Y006599D01*
X032302Y005693D01*
X033090Y004906D01*
X033090Y003725D01*
X032394Y003029D01*
X032211Y003029D01*
X032605Y003029D01*
X033090Y002544D01*
X038208Y002544D01*
X038602Y002150D01*
X039994Y002150D01*
X040872Y003029D01*
X041266Y003029D01*
X041751Y002544D01*
X046869Y002544D01*
X047263Y002150D01*
X048838Y002150D01*
X049534Y002846D01*
X049534Y003029D01*
X049927Y003029D01*
X050413Y002544D01*
X055531Y002544D01*
X055924Y002150D01*
X057316Y002150D01*
X058195Y003029D01*
X058680Y002544D01*
X064192Y002544D01*
X064586Y002150D01*
X066161Y002150D01*
X066857Y002846D01*
X066857Y003029D01*
X075518Y003029D02*
X076397Y003908D01*
X076397Y006087D01*
X069704Y006599D02*
X069704Y007662D01*
X069704Y008843D02*
X068523Y007662D01*
X068523Y006599D01*
X069704Y008843D02*
X069704Y009237D01*
X069704Y010299D01*
X070885Y010299D02*
X071004Y010418D01*
X071672Y010418D01*
X066161Y010418D02*
X065492Y010418D01*
X065373Y010299D01*
X064192Y010299D02*
X064192Y009237D01*
X064192Y008843D01*
X060649Y010418D02*
X059980Y010418D01*
X059861Y010299D01*
X058680Y010299D02*
X058680Y009237D01*
X058680Y008843D01*
X057499Y007662D01*
X053169Y008843D02*
X053169Y009237D01*
X053169Y010299D01*
X054350Y010299D02*
X054468Y010418D01*
X055137Y010418D01*
X049625Y010418D02*
X048956Y010418D01*
X048838Y010299D01*
X047657Y010299D02*
X047657Y009237D01*
X047657Y008843D01*
X044113Y010418D02*
X043444Y010418D01*
X043326Y010299D01*
X042145Y010299D02*
X042145Y009237D01*
X042145Y008843D01*
X038602Y010418D02*
X037933Y010418D01*
X037814Y010299D01*
X036633Y010299D02*
X036633Y009237D01*
X036633Y008843D01*
X033090Y010418D02*
X032421Y010418D01*
X032302Y010299D01*
X031121Y010299D02*
X031121Y009237D01*
X031121Y008843D01*
X029940Y007662D01*
X029940Y006599D01*
X029940Y005300D01*
X029940Y003908D01*
X030819Y003029D01*
X031515Y003725D02*
X031515Y004906D01*
X031121Y005300D01*
X031121Y006599D01*
X031121Y007268D01*
X031515Y007662D01*
D16*
X031515Y007662D03*
X033090Y006481D03*
X036633Y007662D03*
X038602Y006481D03*
X042145Y007662D03*
X044113Y006481D03*
X047657Y007662D03*
X049625Y006481D03*
X053169Y007662D03*
X055137Y006481D03*
X058680Y007662D03*
X060649Y006481D03*
X064192Y007662D03*
X064192Y009237D03*
X066161Y010418D03*
X069704Y009237D03*
X071672Y010418D03*
X075216Y009237D03*
X077184Y010418D03*
X075216Y007662D03*
X069704Y007662D03*
X060649Y010418D03*
X058680Y009237D03*
X055137Y010418D03*
X053169Y009237D03*
X049625Y010418D03*
X047657Y009237D03*
X044113Y010418D03*
X042145Y009237D03*
X038602Y010418D03*
X036633Y009237D03*
X033090Y010418D03*
X031121Y009237D03*
D17*
X029940Y005300D03*
D18*
X029580Y005496D02*
X029532Y005381D01*
X029532Y005218D01*
X029580Y005103D01*
X029580Y003979D01*
X029580Y003836D01*
X029635Y003704D01*
X030265Y003074D01*
X030265Y002918D01*
X030349Y002715D01*
X030505Y002559D01*
X030709Y002474D01*
X030929Y002474D01*
X031133Y002559D01*
X031289Y002715D01*
X031373Y002918D01*
X031373Y003139D01*
X031351Y003193D01*
X031405Y003170D01*
X031625Y003170D01*
X031679Y003193D01*
X031657Y003139D01*
X031657Y002918D01*
X031741Y002715D01*
X031897Y002559D01*
X032101Y002474D01*
X032321Y002474D01*
X032525Y002559D01*
X032545Y002579D01*
X032785Y002340D01*
X032886Y002238D01*
X033018Y002184D01*
X038059Y002184D01*
X038296Y001946D01*
X038398Y001845D01*
X038530Y001790D01*
X039922Y001790D01*
X040065Y001790D01*
X040197Y001845D01*
X040827Y002474D01*
X040983Y002474D01*
X041186Y002559D01*
X041207Y002579D01*
X041446Y002340D01*
X041446Y002340D01*
X041547Y002238D01*
X041680Y002184D01*
X046720Y002184D01*
X047059Y001845D01*
X047191Y001790D01*
X047335Y001790D01*
X048909Y001790D01*
X049042Y001845D01*
X049143Y001946D01*
X049691Y002494D01*
X049848Y002559D01*
X049868Y002579D01*
X050209Y002238D01*
X050341Y002184D01*
X050484Y002184D01*
X055382Y002184D01*
X055720Y001845D01*
X055853Y001790D01*
X055996Y001790D01*
X057388Y001790D01*
X057520Y001845D01*
X057622Y001946D01*
X058150Y002474D01*
X058240Y002474D01*
X058375Y002340D01*
X058476Y002238D01*
X058609Y002184D01*
X064043Y002184D01*
X064281Y001946D01*
X064382Y001845D01*
X064514Y001790D01*
X066089Y001790D01*
X066232Y001790D01*
X066365Y001845D01*
X067014Y002494D01*
X067171Y002559D01*
X067327Y002715D01*
X067411Y002918D01*
X067411Y003139D01*
X067327Y003343D01*
X067171Y003499D01*
X066967Y003583D01*
X066746Y003583D01*
X066693Y003561D01*
X066715Y003614D01*
X066715Y003835D01*
X066681Y003916D01*
X066731Y003900D01*
X066815Y003886D01*
X066818Y003886D01*
X066818Y004382D01*
X066895Y004382D01*
X066895Y003886D01*
X066899Y003886D01*
X066982Y003900D01*
X067062Y003926D01*
X067137Y003964D01*
X067205Y004013D01*
X067264Y004073D01*
X067314Y004141D01*
X067352Y004216D01*
X067378Y004296D01*
X067391Y004379D01*
X067391Y004383D01*
X066895Y004383D01*
X066895Y004459D01*
X067391Y004459D01*
X067391Y004463D01*
X067378Y004546D01*
X067352Y004626D01*
X067314Y004701D01*
X067264Y004769D01*
X067205Y004828D01*
X067137Y004878D01*
X067062Y004916D01*
X066989Y004940D01*
X070026Y004940D01*
X070169Y004940D01*
X070302Y004994D01*
X070885Y005578D01*
X070974Y005489D01*
X071075Y005388D01*
X071207Y005333D01*
X075931Y005333D01*
X076037Y005333D01*
X076037Y004553D01*
X076013Y004626D01*
X075975Y004701D01*
X075926Y004769D01*
X075866Y004828D01*
X075798Y004878D01*
X075723Y004916D01*
X075643Y004942D01*
X075560Y004955D01*
X075556Y004955D01*
X075556Y004459D01*
X075480Y004459D01*
X075480Y004955D01*
X075476Y004955D01*
X075393Y004942D01*
X075313Y004916D01*
X075238Y004878D01*
X075170Y004828D01*
X075110Y004769D01*
X075061Y004701D01*
X075023Y004626D01*
X074997Y004546D01*
X074984Y004463D01*
X074984Y004459D01*
X075480Y004459D01*
X075480Y004383D01*
X074984Y004383D01*
X074984Y004379D01*
X074997Y004296D01*
X075013Y004246D01*
X074932Y004279D01*
X074712Y004279D01*
X074658Y004257D01*
X074680Y004310D01*
X074680Y004531D01*
X074596Y004735D01*
X074440Y004891D01*
X074236Y004975D01*
X074016Y004975D01*
X073812Y004891D01*
X073656Y004735D01*
X073572Y004531D01*
X073572Y004310D01*
X073656Y004107D01*
X073812Y003951D01*
X074016Y003866D01*
X074236Y003866D01*
X074290Y003889D01*
X074268Y003835D01*
X074268Y003614D01*
X074290Y003561D01*
X074236Y003583D01*
X074016Y003583D01*
X073812Y003499D01*
X073656Y003343D01*
X073572Y003139D01*
X073572Y002918D01*
X073656Y002715D01*
X073812Y002559D01*
X074016Y002474D01*
X074236Y002474D01*
X074440Y002559D01*
X074596Y002715D01*
X074680Y002918D01*
X074680Y003139D01*
X074658Y003193D01*
X074712Y003170D01*
X074932Y003170D01*
X074986Y003193D01*
X074964Y003139D01*
X074964Y002918D01*
X075048Y002715D01*
X075204Y002559D01*
X075408Y002474D01*
X075628Y002474D01*
X075832Y002559D01*
X075988Y002715D01*
X076072Y002918D01*
X076072Y003074D01*
X076601Y003602D01*
X076702Y003704D01*
X076757Y003836D01*
X076757Y005926D01*
X076847Y006016D01*
X076847Y007182D01*
X076730Y007299D01*
X076064Y007299D01*
X075947Y007182D01*
X075947Y006146D01*
X075854Y006053D01*
X075666Y006053D01*
X075666Y007182D01*
X075576Y007272D01*
X075576Y007517D01*
X075604Y007584D01*
X075604Y007739D01*
X075545Y007882D01*
X075436Y007991D01*
X075293Y008050D01*
X075139Y008050D01*
X074996Y007991D01*
X074887Y007882D01*
X074828Y007739D01*
X074828Y007584D01*
X074856Y007517D01*
X074856Y007272D01*
X074766Y007182D01*
X074766Y006053D01*
X074485Y006053D01*
X074485Y007182D01*
X074395Y007272D01*
X074395Y007513D01*
X075521Y008639D01*
X075576Y008771D01*
X075576Y008914D01*
X075576Y009091D01*
X075604Y009159D01*
X075604Y009314D01*
X075576Y009382D01*
X075576Y009626D01*
X075666Y009716D01*
X075666Y010811D01*
X075947Y010811D01*
X075947Y009716D01*
X076064Y009599D01*
X076730Y009599D01*
X076847Y009716D01*
X076847Y010058D01*
X077039Y010058D01*
X077107Y010030D01*
X077261Y010030D01*
X077404Y010089D01*
X077513Y010198D01*
X077572Y010340D01*
X077572Y010495D01*
X077513Y010637D01*
X077404Y010747D01*
X077261Y010806D01*
X077107Y010806D01*
X077039Y010778D01*
X076847Y010778D01*
X076847Y010811D01*
X077948Y010811D01*
X078106Y010750D01*
X078365Y010559D01*
X078365Y004239D01*
X078217Y004387D01*
X077930Y004506D01*
X077619Y004506D01*
X077332Y004387D01*
X077113Y004167D01*
X076994Y003880D01*
X076994Y003569D01*
X077113Y003282D01*
X077332Y003062D01*
X077619Y002944D01*
X077930Y002944D01*
X078217Y003062D01*
X078365Y003211D01*
X078365Y001550D01*
X078362Y001558D01*
X078167Y001753D01*
X077913Y001858D01*
X077637Y001858D01*
X077382Y001753D01*
X077188Y001558D01*
X077082Y001303D01*
X077082Y001028D01*
X077188Y000773D01*
X077382Y000579D01*
X077391Y000575D01*
X075374Y000575D01*
X075385Y000645D01*
X074870Y000645D01*
X074870Y000741D01*
X075385Y000741D01*
X075372Y000825D01*
X075345Y000910D01*
X075304Y000989D01*
X075252Y001061D01*
X075189Y001123D01*
X075118Y001175D01*
X075038Y001216D01*
X074954Y001243D01*
X074870Y001256D01*
X074870Y000741D01*
X074774Y000741D01*
X074774Y000645D01*
X074259Y000645D01*
X074270Y000575D01*
X072253Y000575D01*
X072262Y000579D01*
X072456Y000773D01*
X072562Y001028D01*
X072562Y001303D01*
X072456Y001558D01*
X072262Y001753D01*
X072007Y001858D01*
X071731Y001858D01*
X071477Y001753D01*
X071282Y001558D01*
X071177Y001303D01*
X071177Y001028D01*
X071282Y000773D01*
X071477Y000579D01*
X071485Y000575D01*
X069497Y000575D01*
X069506Y000579D01*
X069701Y000773D01*
X069806Y001028D01*
X069806Y001303D01*
X069701Y001558D01*
X069506Y001753D01*
X069251Y001858D01*
X068976Y001858D01*
X068721Y001753D01*
X068526Y001558D01*
X068421Y001303D01*
X068421Y001028D01*
X068526Y000773D01*
X068721Y000579D01*
X068729Y000575D01*
X066713Y000575D01*
X066724Y000645D01*
X066209Y000645D01*
X066209Y000741D01*
X066724Y000741D01*
X066711Y000825D01*
X066683Y000910D01*
X066643Y000989D01*
X066591Y001061D01*
X066528Y001123D01*
X066456Y001175D01*
X066377Y001216D01*
X066293Y001243D01*
X066209Y001256D01*
X066209Y000741D01*
X066113Y000741D01*
X066113Y001256D01*
X066029Y001243D01*
X065944Y001216D01*
X065865Y001175D01*
X065793Y001123D01*
X065731Y001061D01*
X065678Y000989D01*
X065638Y000910D01*
X065611Y000825D01*
X065597Y000741D01*
X066112Y000741D01*
X066112Y000645D01*
X065597Y000645D01*
X065608Y000575D01*
X063592Y000575D01*
X063600Y000579D01*
X063795Y000773D01*
X063900Y001028D01*
X063900Y001303D01*
X063795Y001558D01*
X063600Y001753D01*
X063346Y001858D01*
X063070Y001858D01*
X062816Y001753D01*
X062621Y001558D01*
X062515Y001303D01*
X062515Y001028D01*
X062621Y000773D01*
X062816Y000579D01*
X062824Y000575D01*
X060836Y000575D01*
X060844Y000579D01*
X061039Y000773D01*
X061145Y001028D01*
X061145Y001303D01*
X061039Y001558D01*
X060844Y001753D01*
X060590Y001858D01*
X060314Y001858D01*
X060060Y001753D01*
X059865Y001558D01*
X059759Y001303D01*
X059759Y001028D01*
X059865Y000773D01*
X060060Y000579D01*
X060068Y000575D01*
X058051Y000575D01*
X058062Y000645D01*
X057547Y000645D01*
X057547Y000741D01*
X057451Y000741D01*
X057451Y000645D01*
X056936Y000645D01*
X056947Y000575D01*
X054931Y000575D01*
X054939Y000579D01*
X055134Y000773D01*
X055239Y001028D01*
X055239Y001303D01*
X055134Y001558D01*
X054939Y001753D01*
X054684Y001858D01*
X054409Y001858D01*
X054154Y001753D01*
X053959Y001558D01*
X053854Y001303D01*
X053854Y001028D01*
X053959Y000773D01*
X054154Y000579D01*
X054162Y000575D01*
X052175Y000575D01*
X052183Y000579D01*
X052378Y000773D01*
X052483Y001028D01*
X052483Y001303D01*
X052378Y001558D01*
X052183Y001753D01*
X051928Y001858D01*
X051653Y001858D01*
X051398Y001753D01*
X051203Y001558D01*
X051098Y001303D01*
X051098Y001028D01*
X051203Y000773D01*
X051398Y000579D01*
X051406Y000575D01*
X049390Y000575D01*
X049401Y000645D01*
X048886Y000645D01*
X048886Y000741D01*
X049401Y000741D01*
X049388Y000825D01*
X049360Y000910D01*
X049320Y000989D01*
X049268Y001061D01*
X049205Y001123D01*
X049133Y001175D01*
X049054Y001216D01*
X048970Y001243D01*
X048886Y001256D01*
X048886Y000741D01*
X048790Y000741D01*
X048790Y000645D01*
X048274Y000645D01*
X048286Y000575D01*
X046269Y000575D01*
X046277Y000579D01*
X046472Y000773D01*
X046578Y001028D01*
X046578Y001303D01*
X046472Y001558D01*
X046277Y001753D01*
X046023Y001858D01*
X045747Y001858D01*
X045493Y001753D01*
X045298Y001558D01*
X045192Y001303D01*
X045192Y001028D01*
X045298Y000773D01*
X045493Y000579D01*
X045501Y000575D01*
X043513Y000575D01*
X043521Y000579D01*
X043716Y000773D01*
X043822Y001028D01*
X043822Y001303D01*
X043716Y001558D01*
X043521Y001753D01*
X043267Y001858D01*
X042991Y001858D01*
X042737Y001753D01*
X042542Y001558D01*
X042437Y001303D01*
X042437Y001028D01*
X042542Y000773D01*
X042737Y000579D01*
X042745Y000575D01*
X040729Y000575D01*
X040740Y000645D01*
X040225Y000645D01*
X040225Y000741D01*
X040740Y000741D01*
X040726Y000825D01*
X040699Y000910D01*
X040659Y000989D01*
X040606Y001061D01*
X040544Y001123D01*
X040472Y001175D01*
X040393Y001216D01*
X040308Y001243D01*
X040224Y001256D01*
X040224Y000741D01*
X040128Y000741D01*
X040128Y000645D01*
X039613Y000645D01*
X039624Y000575D01*
X037608Y000575D01*
X037616Y000579D01*
X037811Y000773D01*
X037916Y001028D01*
X037916Y001303D01*
X037811Y001558D01*
X037616Y001753D01*
X037361Y001858D01*
X037086Y001858D01*
X036831Y001753D01*
X036636Y001558D01*
X036531Y001303D01*
X036531Y001028D01*
X036636Y000773D01*
X036831Y000579D01*
X036840Y000575D01*
X034852Y000575D01*
X034860Y000579D01*
X035055Y000773D01*
X035160Y001028D01*
X035160Y001303D01*
X035055Y001558D01*
X034860Y001753D01*
X034605Y001858D01*
X034330Y001858D01*
X034075Y001753D01*
X033881Y001558D01*
X033775Y001303D01*
X033775Y001028D01*
X033881Y000773D01*
X034075Y000579D01*
X034084Y000575D01*
X032067Y000575D01*
X032078Y000645D01*
X031563Y000645D01*
X031563Y000741D01*
X032078Y000741D01*
X032065Y000825D01*
X032037Y000910D01*
X031997Y000989D01*
X031945Y001061D01*
X031882Y001123D01*
X031810Y001175D01*
X031731Y001216D01*
X031647Y001243D01*
X031563Y001256D01*
X031563Y000741D01*
X031467Y000741D01*
X031467Y000645D01*
X030952Y000645D01*
X030963Y000575D01*
X028946Y000575D01*
X028955Y000579D01*
X029149Y000773D01*
X029255Y001028D01*
X029255Y001303D01*
X029149Y001558D01*
X028955Y001753D01*
X028700Y001858D01*
X028424Y001858D01*
X028170Y001753D01*
X027975Y001558D01*
X027972Y001550D01*
X027972Y003211D01*
X028120Y003062D01*
X028407Y002944D01*
X028718Y002944D01*
X029005Y003062D01*
X029224Y003282D01*
X029343Y003569D01*
X029343Y003880D01*
X029224Y004167D01*
X029005Y004387D01*
X028718Y004506D01*
X028407Y004506D01*
X028120Y004387D01*
X027972Y004239D01*
X027972Y010658D01*
X028237Y010811D01*
X029510Y010811D01*
X029510Y010344D01*
X029895Y010344D01*
X029895Y010254D01*
X029510Y010254D01*
X029510Y009775D01*
X029522Y009730D01*
X029546Y009689D01*
X029580Y009655D01*
X029621Y009631D01*
X029666Y009619D01*
X029895Y009619D01*
X029895Y010254D01*
X029985Y010254D01*
X029985Y009619D01*
X030214Y009619D01*
X030260Y009631D01*
X030301Y009655D01*
X030334Y009689D01*
X030358Y009730D01*
X030370Y009775D01*
X030370Y010254D01*
X029985Y010254D01*
X029985Y010344D01*
X030370Y010344D01*
X030370Y010811D01*
X030671Y010811D01*
X030671Y009716D01*
X030761Y009626D01*
X030761Y009382D01*
X030733Y009314D01*
X030733Y009159D01*
X030761Y009091D01*
X030761Y008992D01*
X029736Y007967D01*
X029635Y007866D01*
X029580Y007733D01*
X029580Y007272D01*
X029490Y007182D01*
X029490Y006016D01*
X029580Y005926D01*
X029580Y005496D01*
X029580Y005572D02*
X027972Y005572D01*
X027972Y005730D02*
X029580Y005730D01*
X029580Y005889D02*
X027972Y005889D01*
X027972Y006048D02*
X029490Y006048D01*
X029490Y006206D02*
X027972Y006206D01*
X027972Y006365D02*
X029490Y006365D01*
X029490Y006523D02*
X027972Y006523D01*
X027972Y006682D02*
X029490Y006682D01*
X029490Y006840D02*
X027972Y006840D01*
X027972Y006999D02*
X029490Y006999D01*
X029490Y007157D02*
X027972Y007157D01*
X027972Y007316D02*
X029580Y007316D01*
X029580Y007474D02*
X027972Y007474D01*
X027972Y007633D02*
X029580Y007633D01*
X029604Y007791D02*
X029347Y007791D01*
X029234Y007745D02*
X029493Y007852D01*
X029691Y008050D01*
X029798Y008309D01*
X029798Y008589D01*
X029691Y008848D01*
X029493Y009046D01*
X029234Y009154D01*
X028954Y009154D01*
X028695Y009046D01*
X028497Y008848D01*
X028389Y008589D01*
X028389Y008309D01*
X028497Y008050D01*
X028695Y007852D01*
X028954Y007745D01*
X029234Y007745D01*
X028841Y007791D02*
X027972Y007791D01*
X027972Y007950D02*
X028597Y007950D01*
X028472Y008109D02*
X027972Y008109D01*
X027972Y008267D02*
X028407Y008267D01*
X028389Y008426D02*
X027972Y008426D01*
X027972Y008584D02*
X028389Y008584D01*
X028453Y008743D02*
X027972Y008743D01*
X027972Y008901D02*
X028550Y008901D01*
X028727Y009060D02*
X027972Y009060D01*
X027972Y009218D02*
X030733Y009218D01*
X030761Y009060D02*
X029460Y009060D01*
X029638Y008901D02*
X030671Y008901D01*
X030512Y008743D02*
X029734Y008743D01*
X029798Y008584D02*
X030354Y008584D01*
X030195Y008426D02*
X029798Y008426D01*
X029781Y008267D02*
X030036Y008267D01*
X029878Y008109D02*
X029715Y008109D01*
X029719Y007950D02*
X029591Y007950D01*
X030300Y007513D02*
X031426Y008639D01*
X031481Y008771D01*
X031481Y008914D01*
X031481Y009091D01*
X031509Y009159D01*
X031509Y009314D01*
X031481Y009382D01*
X031481Y009626D01*
X031571Y009716D01*
X031571Y010811D01*
X031852Y010811D01*
X031852Y009716D01*
X031969Y009599D01*
X032635Y009599D01*
X032752Y009716D01*
X032752Y010058D01*
X032945Y010058D01*
X033013Y010030D01*
X033167Y010030D01*
X033310Y010089D01*
X033419Y010198D01*
X033478Y010340D01*
X033478Y010495D01*
X033419Y010637D01*
X033310Y010747D01*
X033167Y010806D01*
X033013Y010806D01*
X032945Y010778D01*
X032752Y010778D01*
X032752Y010811D01*
X035022Y010811D01*
X035022Y010344D01*
X035407Y010344D01*
X035407Y010254D01*
X035497Y010254D01*
X035497Y009619D01*
X035726Y009619D01*
X035771Y009631D01*
X035812Y009655D01*
X035846Y009689D01*
X035870Y009730D01*
X035882Y009775D01*
X035882Y010254D01*
X035497Y010254D01*
X035497Y010344D01*
X035882Y010344D01*
X035882Y010811D01*
X036183Y010811D01*
X036183Y009716D01*
X036273Y009626D01*
X036273Y009382D01*
X036245Y009314D01*
X036245Y009159D01*
X036273Y009091D01*
X036273Y008992D01*
X035248Y007967D01*
X035147Y007866D01*
X035092Y007733D01*
X035092Y007272D01*
X035002Y007182D01*
X035002Y006016D01*
X035119Y005899D01*
X035785Y005899D01*
X035902Y006016D01*
X035902Y007182D01*
X035812Y007272D01*
X035812Y007513D01*
X036938Y008639D01*
X036993Y008771D01*
X036993Y008914D01*
X036993Y009091D01*
X037021Y009159D01*
X037021Y009314D01*
X036993Y009382D01*
X036993Y009626D01*
X037083Y009716D01*
X037083Y010811D01*
X037364Y010811D01*
X037364Y009716D01*
X037481Y009599D01*
X038147Y009599D01*
X038264Y009716D01*
X038264Y010058D01*
X038456Y010058D01*
X038524Y010030D01*
X038679Y010030D01*
X038821Y010089D01*
X038931Y010198D01*
X038990Y010340D01*
X038990Y010495D01*
X038931Y010637D01*
X038821Y010747D01*
X038679Y010806D01*
X038524Y010806D01*
X038456Y010778D01*
X038264Y010778D01*
X038264Y010811D01*
X040534Y010811D01*
X040534Y010344D01*
X040919Y010344D01*
X040919Y010254D01*
X041009Y010254D01*
X041009Y010344D01*
X041394Y010344D01*
X041394Y010811D01*
X041695Y010811D01*
X041695Y009716D01*
X041785Y009626D01*
X041785Y009382D01*
X041757Y009314D01*
X041757Y009159D01*
X041785Y009091D01*
X041785Y008992D01*
X040760Y007967D01*
X040659Y007866D01*
X040604Y007733D01*
X040604Y007272D01*
X040514Y007182D01*
X040514Y006016D01*
X040631Y005899D01*
X041297Y005899D01*
X041414Y006016D01*
X041414Y007182D01*
X041324Y007272D01*
X041324Y007513D01*
X042450Y008639D01*
X042505Y008771D01*
X042505Y008914D01*
X042505Y009091D01*
X042533Y009159D01*
X042533Y009314D01*
X042505Y009382D01*
X042505Y009626D01*
X042595Y009716D01*
X042595Y010811D01*
X042876Y010811D01*
X042876Y009716D01*
X042993Y009599D01*
X043659Y009599D01*
X043776Y009716D01*
X043776Y010058D01*
X043968Y010058D01*
X044036Y010030D01*
X044191Y010030D01*
X044333Y010089D01*
X044442Y010198D01*
X044501Y010340D01*
X044501Y010495D01*
X044442Y010637D01*
X044333Y010747D01*
X044191Y010806D01*
X044036Y010806D01*
X043968Y010778D01*
X043776Y010778D01*
X043776Y010811D01*
X046046Y010811D01*
X046046Y010344D01*
X046430Y010344D01*
X046430Y010254D01*
X046046Y010254D01*
X046046Y009775D01*
X046058Y009730D01*
X046082Y009689D01*
X046115Y009655D01*
X046156Y009631D01*
X046202Y009619D01*
X046431Y009619D01*
X046431Y010254D01*
X046521Y010254D01*
X046521Y010344D01*
X046906Y010344D01*
X046906Y010811D01*
X047207Y010811D01*
X047207Y009716D01*
X047297Y009626D01*
X047297Y009382D01*
X047269Y009314D01*
X047269Y009159D01*
X047297Y009091D01*
X047297Y008992D01*
X046272Y007967D01*
X046170Y007866D01*
X046116Y007733D01*
X046116Y007272D01*
X046026Y007182D01*
X046026Y006016D01*
X046143Y005899D01*
X046808Y005899D01*
X046926Y006016D01*
X046926Y007182D01*
X046836Y007272D01*
X046836Y007513D01*
X047962Y008639D01*
X048017Y008771D01*
X048017Y008914D01*
X048017Y009091D01*
X048045Y009159D01*
X048045Y009314D01*
X048017Y009382D01*
X048017Y009626D01*
X048107Y009716D01*
X048107Y010811D01*
X048388Y010811D01*
X048388Y009716D01*
X048505Y009599D01*
X049171Y009599D01*
X049288Y009716D01*
X049288Y010058D01*
X049480Y010058D01*
X049548Y010030D01*
X049702Y010030D01*
X049845Y010089D01*
X049954Y010198D01*
X050013Y010340D01*
X050013Y010495D01*
X049954Y010637D01*
X049845Y010747D01*
X049702Y010806D01*
X049548Y010806D01*
X049480Y010778D01*
X049288Y010778D01*
X049288Y010811D01*
X051557Y010811D01*
X051557Y010344D01*
X051942Y010344D01*
X051942Y010254D01*
X051557Y010254D01*
X051557Y009775D01*
X051570Y009730D01*
X051593Y009689D01*
X051627Y009655D01*
X051668Y009631D01*
X051714Y009619D01*
X051942Y009619D01*
X051942Y010254D01*
X052032Y010254D01*
X052032Y009619D01*
X052261Y009619D01*
X052307Y009631D01*
X052348Y009655D01*
X052381Y009689D01*
X052405Y009730D01*
X052417Y009775D01*
X052417Y010254D01*
X052033Y010254D01*
X052033Y010344D01*
X052417Y010344D01*
X052417Y010811D01*
X052719Y010811D01*
X052719Y009716D01*
X052809Y009626D01*
X052809Y009382D01*
X052780Y009314D01*
X052780Y009159D01*
X052809Y009091D01*
X052809Y008992D01*
X051783Y007967D01*
X051682Y007866D01*
X051627Y007733D01*
X051627Y007272D01*
X051537Y007182D01*
X051537Y006016D01*
X051655Y005899D01*
X052320Y005899D01*
X052437Y006016D01*
X052437Y007182D01*
X052347Y007272D01*
X052347Y007513D01*
X053474Y008639D01*
X053528Y008771D01*
X053528Y008914D01*
X053528Y009091D01*
X053557Y009159D01*
X053557Y009314D01*
X053528Y009382D01*
X053528Y009626D01*
X053618Y009716D01*
X053618Y010811D01*
X053900Y010811D01*
X053900Y009716D01*
X054017Y009599D01*
X054682Y009599D01*
X054800Y009716D01*
X054800Y010058D01*
X054992Y010058D01*
X055060Y010030D01*
X055214Y010030D01*
X055357Y010089D01*
X055466Y010198D01*
X055525Y010340D01*
X055525Y010495D01*
X055466Y010637D01*
X055357Y010747D01*
X055214Y010806D01*
X055060Y010806D01*
X054992Y010778D01*
X054800Y010778D01*
X054800Y010811D01*
X057069Y010811D01*
X057069Y010344D01*
X057454Y010344D01*
X057454Y010254D01*
X057069Y010254D01*
X057069Y009775D01*
X057081Y009730D01*
X057105Y009689D01*
X057139Y009655D01*
X057180Y009631D01*
X057225Y009619D01*
X057454Y009619D01*
X057454Y010254D01*
X057544Y010254D01*
X057544Y009619D01*
X057773Y009619D01*
X057819Y009631D01*
X057860Y009655D01*
X057893Y009689D01*
X057917Y009730D01*
X057929Y009775D01*
X057929Y010254D01*
X057544Y010254D01*
X057544Y010344D01*
X057929Y010344D01*
X057929Y010811D01*
X058230Y010811D01*
X058230Y009716D01*
X058320Y009626D01*
X058320Y009382D01*
X058292Y009314D01*
X058292Y009159D01*
X058320Y009091D01*
X058320Y008992D01*
X057295Y007967D01*
X057194Y007866D01*
X057139Y007733D01*
X057139Y007272D01*
X057049Y007182D01*
X057049Y006016D01*
X057166Y005899D01*
X057832Y005899D01*
X057949Y006016D01*
X057949Y007182D01*
X057859Y007272D01*
X057859Y007513D01*
X058985Y008639D01*
X059040Y008771D01*
X059040Y008914D01*
X059040Y009091D01*
X059068Y009159D01*
X059068Y009314D01*
X059040Y009382D01*
X059040Y009626D01*
X059130Y009716D01*
X059130Y010811D01*
X059411Y010811D01*
X059411Y009716D01*
X059529Y009599D01*
X060194Y009599D01*
X060311Y009716D01*
X060311Y010058D01*
X060504Y010058D01*
X060572Y010030D01*
X060726Y010030D01*
X060869Y010089D01*
X060978Y010198D01*
X061037Y010340D01*
X061037Y010495D01*
X060978Y010637D01*
X060869Y010747D01*
X060726Y010806D01*
X060572Y010806D01*
X060504Y010778D01*
X060311Y010778D01*
X060311Y010811D01*
X062581Y010811D01*
X062581Y010344D01*
X062966Y010344D01*
X062966Y010254D01*
X063056Y010254D01*
X063056Y009619D01*
X063285Y009619D01*
X063330Y009631D01*
X063372Y009655D01*
X063405Y009689D01*
X063429Y009730D01*
X063441Y009775D01*
X063441Y010254D01*
X063056Y010254D01*
X063056Y010344D01*
X063441Y010344D01*
X063441Y010811D01*
X063742Y010811D01*
X063742Y009716D01*
X063832Y009626D01*
X063832Y009382D01*
X063804Y009314D01*
X063804Y009159D01*
X063832Y009091D01*
X063832Y008992D01*
X062807Y007967D01*
X062706Y007866D01*
X062651Y007733D01*
X062651Y007272D01*
X062561Y007182D01*
X062561Y006016D01*
X062678Y005899D01*
X063344Y005899D01*
X063461Y006016D01*
X063461Y007182D01*
X063371Y007272D01*
X063371Y007513D01*
X064497Y008639D01*
X064552Y008771D01*
X064552Y008914D01*
X064552Y009091D01*
X064580Y009159D01*
X064580Y009314D01*
X064552Y009382D01*
X064552Y009626D01*
X064642Y009716D01*
X064642Y010811D01*
X064923Y010811D01*
X064923Y009716D01*
X065040Y009599D01*
X065706Y009599D01*
X065823Y009716D01*
X065823Y010058D01*
X066016Y010058D01*
X066083Y010030D01*
X066238Y010030D01*
X066380Y010089D01*
X066490Y010198D01*
X066549Y010340D01*
X066549Y010495D01*
X066490Y010637D01*
X066380Y010747D01*
X066238Y010806D01*
X066083Y010806D01*
X066016Y010778D01*
X065823Y010778D01*
X065823Y010811D01*
X068093Y010811D01*
X068093Y010344D01*
X068478Y010344D01*
X068478Y010254D01*
X068568Y010254D01*
X068568Y010344D01*
X068953Y010344D01*
X068953Y010811D01*
X069254Y010811D01*
X069254Y009716D01*
X069344Y009626D01*
X069344Y009382D01*
X069316Y009314D01*
X069316Y009159D01*
X069344Y009091D01*
X069344Y008992D01*
X068319Y007967D01*
X068218Y007866D01*
X068163Y007733D01*
X068163Y007272D01*
X068073Y007182D01*
X068073Y006016D01*
X068190Y005899D01*
X068856Y005899D01*
X068973Y006016D01*
X068973Y007182D01*
X068883Y007272D01*
X068883Y007513D01*
X070009Y008639D01*
X070064Y008771D01*
X070064Y008914D01*
X070064Y009091D01*
X070092Y009159D01*
X070092Y009314D01*
X070064Y009382D01*
X070064Y009626D01*
X070154Y009716D01*
X070154Y010811D01*
X070435Y010811D01*
X070435Y009716D01*
X070552Y009599D01*
X071218Y009599D01*
X071335Y009716D01*
X071335Y010058D01*
X071527Y010058D01*
X071595Y010030D01*
X071750Y010030D01*
X071892Y010089D01*
X072001Y010198D01*
X072061Y010340D01*
X072061Y010495D01*
X072001Y010637D01*
X071892Y010747D01*
X071750Y010806D01*
X071595Y010806D01*
X071527Y010778D01*
X071335Y010778D01*
X071335Y010811D01*
X073605Y010811D01*
X073605Y010344D01*
X073989Y010344D01*
X073989Y010254D01*
X073605Y010254D01*
X073605Y009775D01*
X073617Y009730D01*
X073641Y009689D01*
X073674Y009655D01*
X073715Y009631D01*
X073761Y009619D01*
X073990Y009619D01*
X073990Y010254D01*
X074080Y010254D01*
X074080Y010344D01*
X074465Y010344D01*
X074465Y010811D01*
X074766Y010811D01*
X074766Y009716D01*
X074856Y009626D01*
X074856Y009382D01*
X074828Y009314D01*
X074828Y009159D01*
X074856Y009091D01*
X074856Y008992D01*
X073831Y007967D01*
X073729Y007866D01*
X073675Y007733D01*
X073675Y007272D01*
X073585Y007182D01*
X073585Y006053D01*
X071428Y006053D01*
X071335Y006146D01*
X071335Y007182D01*
X071218Y007299D01*
X070552Y007299D01*
X070435Y007182D01*
X070435Y006146D01*
X069949Y005659D01*
X066310Y005659D01*
X065823Y006146D01*
X065823Y007182D01*
X065706Y007299D01*
X065040Y007299D01*
X064923Y007182D01*
X064923Y006016D01*
X065040Y005899D01*
X065061Y005899D01*
X065068Y005883D01*
X065855Y005096D01*
X033401Y005096D01*
X033395Y005110D02*
X032662Y005842D01*
X032662Y005926D01*
X032752Y006016D01*
X032752Y006121D01*
X032945Y006121D01*
X033013Y006093D01*
X033167Y006093D01*
X033310Y006152D01*
X033419Y006261D01*
X033478Y006403D01*
X033478Y006558D01*
X033419Y006700D01*
X033310Y006810D01*
X033167Y006869D01*
X033013Y006869D01*
X032945Y006841D01*
X032752Y006841D01*
X032752Y007182D01*
X032635Y007299D01*
X031969Y007299D01*
X031852Y007182D01*
X031852Y006016D01*
X031942Y005926D01*
X031942Y005622D01*
X031997Y005489D01*
X032098Y005388D01*
X032730Y004757D01*
X032730Y004553D01*
X032706Y004626D01*
X032668Y004701D01*
X032618Y004769D01*
X032559Y004828D01*
X032491Y004878D01*
X032416Y004916D01*
X032336Y004942D01*
X032253Y004955D01*
X032249Y004955D01*
X032249Y004459D01*
X032173Y004459D01*
X032173Y004955D01*
X032169Y004955D01*
X032086Y004942D01*
X032006Y004916D01*
X031931Y004878D01*
X031875Y004837D01*
X031875Y004977D01*
X031820Y005110D01*
X031481Y005449D01*
X031481Y005926D01*
X031571Y006016D01*
X031571Y007182D01*
X031558Y007195D01*
X031667Y007305D01*
X031735Y007333D01*
X031844Y007442D01*
X031903Y007584D01*
X031903Y007739D01*
X031844Y007882D01*
X031735Y007991D01*
X031592Y008050D01*
X031438Y008050D01*
X031295Y007991D01*
X031186Y007882D01*
X031158Y007814D01*
X030917Y007573D01*
X030816Y007472D01*
X030761Y007340D01*
X030761Y007272D01*
X030671Y007182D01*
X030671Y006016D01*
X030761Y005926D01*
X030761Y005228D01*
X030816Y005096D01*
X030300Y005096D01*
X030300Y005103D02*
X030348Y005218D01*
X030348Y005381D01*
X030300Y005496D01*
X030300Y005926D01*
X030390Y006016D01*
X030390Y007182D01*
X030300Y007272D01*
X030300Y007513D01*
X030300Y007474D02*
X030819Y007474D01*
X030761Y007316D02*
X030300Y007316D01*
X030390Y007157D02*
X030671Y007157D01*
X030671Y006999D02*
X030390Y006999D01*
X030390Y006840D02*
X030671Y006840D01*
X030671Y006682D02*
X030390Y006682D01*
X030390Y006523D02*
X030671Y006523D01*
X030671Y006365D02*
X030390Y006365D01*
X030390Y006206D02*
X030671Y006206D01*
X030671Y006048D02*
X030390Y006048D01*
X030300Y005889D02*
X030761Y005889D01*
X030761Y005730D02*
X030300Y005730D01*
X030300Y005572D02*
X030761Y005572D01*
X030761Y005413D02*
X030334Y005413D01*
X030348Y005255D02*
X030761Y005255D01*
X030816Y005096D02*
X030917Y004994D01*
X030942Y004970D01*
X030929Y004975D01*
X030709Y004975D01*
X030505Y004891D01*
X030349Y004735D01*
X030300Y004617D01*
X030300Y005103D01*
X030300Y004938D02*
X030619Y004938D01*
X030394Y004779D02*
X030300Y004779D01*
X030300Y004621D02*
X030302Y004621D01*
X029580Y004621D02*
X027972Y004621D01*
X027972Y004779D02*
X029580Y004779D01*
X029580Y004938D02*
X027972Y004938D01*
X027972Y005096D02*
X029580Y005096D01*
X029532Y005255D02*
X027972Y005255D01*
X027972Y005413D02*
X029546Y005413D01*
X031481Y005572D02*
X031963Y005572D01*
X031942Y005730D02*
X031481Y005730D01*
X031481Y005889D02*
X031942Y005889D01*
X031852Y006048D02*
X031571Y006048D01*
X031571Y006206D02*
X031852Y006206D01*
X031852Y006365D02*
X031571Y006365D01*
X031571Y006523D02*
X031852Y006523D01*
X031852Y006682D02*
X031571Y006682D01*
X031571Y006840D02*
X031852Y006840D01*
X031852Y006999D02*
X031571Y006999D01*
X031571Y007157D02*
X031852Y007157D01*
X031694Y007316D02*
X035092Y007316D01*
X035092Y007474D02*
X031857Y007474D01*
X031903Y007633D02*
X035092Y007633D01*
X035116Y007791D02*
X034859Y007791D01*
X034746Y007745D02*
X035004Y007852D01*
X035203Y008050D01*
X035310Y008309D01*
X035310Y008589D01*
X035203Y008848D01*
X035004Y009046D01*
X034746Y009154D01*
X034465Y009154D01*
X034206Y009046D01*
X034008Y008848D01*
X033901Y008589D01*
X033901Y008309D01*
X034008Y008050D01*
X034206Y007852D01*
X034465Y007745D01*
X034746Y007745D01*
X034352Y007791D02*
X033402Y007791D01*
X033289Y007745D02*
X033548Y007852D01*
X033746Y008050D01*
X033853Y008309D01*
X033853Y008589D01*
X033746Y008848D01*
X033548Y009046D01*
X033289Y009154D01*
X033009Y009154D01*
X032750Y009046D01*
X032552Y008848D01*
X032444Y008589D01*
X032444Y008309D01*
X032552Y008050D01*
X032750Y007852D01*
X033009Y007745D01*
X033289Y007745D01*
X032896Y007791D02*
X031881Y007791D01*
X031775Y007950D02*
X032652Y007950D01*
X032527Y008109D02*
X030896Y008109D01*
X031055Y008267D02*
X032462Y008267D01*
X032444Y008426D02*
X031213Y008426D01*
X031372Y008584D02*
X032444Y008584D01*
X032508Y008743D02*
X031469Y008743D01*
X031481Y008901D02*
X032605Y008901D01*
X032783Y009060D02*
X031481Y009060D01*
X031509Y009218D02*
X036245Y009218D01*
X036273Y009060D02*
X034972Y009060D01*
X035149Y008901D02*
X036182Y008901D01*
X036024Y008743D02*
X035246Y008743D01*
X035310Y008584D02*
X035865Y008584D01*
X035707Y008426D02*
X035310Y008426D01*
X035293Y008267D02*
X035548Y008267D01*
X035390Y008109D02*
X035227Y008109D01*
X035231Y007950D02*
X035103Y007950D01*
X035932Y007633D02*
X036245Y007633D01*
X036245Y007584D02*
X036273Y007517D01*
X036273Y007272D01*
X036183Y007182D01*
X036183Y006016D01*
X036300Y005899D01*
X036966Y005899D01*
X037083Y006016D01*
X037083Y007182D01*
X036993Y007272D01*
X036993Y007517D01*
X037021Y007584D01*
X037021Y007739D01*
X036962Y007882D01*
X036853Y007991D01*
X036710Y008050D01*
X036556Y008050D01*
X036413Y007991D01*
X036304Y007882D01*
X036245Y007739D01*
X036245Y007584D01*
X036273Y007474D02*
X035812Y007474D01*
X035812Y007316D02*
X036273Y007316D01*
X036183Y007157D02*
X035902Y007157D01*
X035902Y006999D02*
X036183Y006999D01*
X036183Y006840D02*
X035902Y006840D01*
X035902Y006682D02*
X036183Y006682D01*
X036183Y006523D02*
X035902Y006523D01*
X035902Y006365D02*
X036183Y006365D01*
X036183Y006206D02*
X035902Y006206D01*
X035902Y006048D02*
X036183Y006048D01*
X037083Y006048D02*
X037364Y006048D01*
X037364Y006016D02*
X037481Y005899D01*
X038147Y005899D01*
X038264Y006016D01*
X038264Y006121D01*
X038456Y006121D01*
X038524Y006093D01*
X038679Y006093D01*
X038821Y006152D01*
X038931Y006261D01*
X038990Y006403D01*
X038990Y006558D01*
X038931Y006700D01*
X038821Y006810D01*
X038679Y006869D01*
X038524Y006869D01*
X038456Y006841D01*
X038264Y006841D01*
X038264Y007182D01*
X038147Y007299D01*
X037481Y007299D01*
X037364Y007182D01*
X037364Y006016D01*
X037364Y006206D02*
X037083Y006206D01*
X037083Y006365D02*
X037364Y006365D01*
X037364Y006523D02*
X037083Y006523D01*
X037083Y006682D02*
X037364Y006682D01*
X037364Y006840D02*
X037083Y006840D01*
X037083Y006999D02*
X037364Y006999D01*
X037364Y007157D02*
X037083Y007157D01*
X036993Y007316D02*
X040604Y007316D01*
X040604Y007474D02*
X036993Y007474D01*
X037021Y007633D02*
X040604Y007633D01*
X040628Y007791D02*
X040370Y007791D01*
X040257Y007745D02*
X040516Y007852D01*
X040714Y008050D01*
X040822Y008309D01*
X040822Y008589D01*
X040714Y008848D01*
X040516Y009046D01*
X040257Y009154D01*
X039977Y009154D01*
X039718Y009046D01*
X039520Y008848D01*
X039413Y008589D01*
X039413Y008309D01*
X039520Y008050D01*
X039718Y007852D01*
X039977Y007745D01*
X040257Y007745D01*
X039864Y007791D02*
X038914Y007791D01*
X038801Y007745D02*
X039060Y007852D01*
X039258Y008050D01*
X039365Y008309D01*
X039365Y008589D01*
X039258Y008848D01*
X039060Y009046D01*
X038801Y009154D01*
X038520Y009154D01*
X038262Y009046D01*
X038063Y008848D01*
X037956Y008589D01*
X037956Y008309D01*
X038063Y008050D01*
X038262Y007852D01*
X038520Y007745D01*
X038801Y007745D01*
X038408Y007791D02*
X036999Y007791D01*
X036894Y007950D02*
X038164Y007950D01*
X038039Y008109D02*
X036408Y008109D01*
X036373Y007950D02*
X036249Y007950D01*
X036267Y007791D02*
X036091Y007791D01*
X036566Y008267D02*
X037974Y008267D01*
X037956Y008426D02*
X036725Y008426D01*
X036884Y008584D02*
X037956Y008584D01*
X038020Y008743D02*
X036981Y008743D01*
X036993Y008901D02*
X038117Y008901D01*
X038294Y009060D02*
X036993Y009060D01*
X037021Y009218D02*
X041757Y009218D01*
X041785Y009060D02*
X040484Y009060D01*
X040661Y008901D02*
X041694Y008901D01*
X041536Y008743D02*
X040758Y008743D01*
X040822Y008584D02*
X041377Y008584D01*
X041219Y008426D02*
X040822Y008426D01*
X040804Y008267D02*
X041060Y008267D01*
X040902Y008109D02*
X040739Y008109D01*
X040743Y007950D02*
X040614Y007950D01*
X041444Y007633D02*
X041757Y007633D01*
X041757Y007584D02*
X041785Y007517D01*
X041785Y007272D01*
X041695Y007182D01*
X041695Y006016D01*
X041812Y005899D01*
X042478Y005899D01*
X042595Y006016D01*
X042595Y007182D01*
X042505Y007272D01*
X042505Y007517D01*
X042533Y007584D01*
X042533Y007739D01*
X042474Y007882D01*
X042365Y007991D01*
X042222Y008050D01*
X042068Y008050D01*
X041925Y007991D01*
X041816Y007882D01*
X041757Y007739D01*
X041757Y007584D01*
X041785Y007474D02*
X041324Y007474D01*
X041324Y007316D02*
X041785Y007316D01*
X041695Y007157D02*
X041414Y007157D01*
X041414Y006999D02*
X041695Y006999D01*
X041695Y006840D02*
X041414Y006840D01*
X041414Y006682D02*
X041695Y006682D01*
X041695Y006523D02*
X041414Y006523D01*
X041414Y006365D02*
X041695Y006365D01*
X041695Y006206D02*
X041414Y006206D01*
X041414Y006048D02*
X041695Y006048D01*
X042595Y006048D02*
X042876Y006048D01*
X042876Y006016D02*
X042993Y005899D01*
X043659Y005899D01*
X043776Y006016D01*
X043776Y006121D01*
X043968Y006121D01*
X044036Y006093D01*
X044191Y006093D01*
X044333Y006152D01*
X044442Y006261D01*
X044501Y006403D01*
X044501Y006558D01*
X044442Y006700D01*
X044333Y006810D01*
X044191Y006869D01*
X044036Y006869D01*
X043968Y006841D01*
X043776Y006841D01*
X043776Y007182D01*
X043659Y007299D01*
X042993Y007299D01*
X042876Y007182D01*
X042876Y006016D01*
X042876Y006206D02*
X042595Y006206D01*
X042595Y006365D02*
X042876Y006365D01*
X042876Y006523D02*
X042595Y006523D01*
X042595Y006682D02*
X042876Y006682D01*
X042876Y006840D02*
X042595Y006840D01*
X042595Y006999D02*
X042876Y006999D01*
X042876Y007157D02*
X042595Y007157D01*
X042505Y007316D02*
X046116Y007316D01*
X046116Y007474D02*
X042505Y007474D01*
X042533Y007633D02*
X046116Y007633D01*
X046140Y007791D02*
X045882Y007791D01*
X045769Y007745D02*
X046028Y007852D01*
X046226Y008050D01*
X046334Y008309D01*
X046334Y008589D01*
X046226Y008848D01*
X046028Y009046D01*
X045769Y009154D01*
X045489Y009154D01*
X045230Y009046D01*
X045032Y008848D01*
X044925Y008589D01*
X044925Y008309D01*
X045032Y008050D01*
X045230Y007852D01*
X045489Y007745D01*
X045769Y007745D01*
X045376Y007791D02*
X044425Y007791D01*
X044313Y007745D02*
X044571Y007852D01*
X044770Y008050D01*
X044877Y008309D01*
X044877Y008589D01*
X044770Y008848D01*
X044571Y009046D01*
X044313Y009154D01*
X044032Y009154D01*
X043773Y009046D01*
X043575Y008848D01*
X043468Y008589D01*
X043468Y008309D01*
X043575Y008050D01*
X043773Y007852D01*
X044032Y007745D01*
X044313Y007745D01*
X043919Y007791D02*
X042511Y007791D01*
X042405Y007950D02*
X043675Y007950D01*
X043551Y008109D02*
X041920Y008109D01*
X041884Y007950D02*
X041761Y007950D01*
X041779Y007791D02*
X041603Y007791D01*
X042078Y008267D02*
X043485Y008267D01*
X043468Y008426D02*
X042237Y008426D01*
X042395Y008584D02*
X043468Y008584D01*
X043532Y008743D02*
X042493Y008743D01*
X042505Y008901D02*
X043628Y008901D01*
X043806Y009060D02*
X042505Y009060D01*
X042533Y009218D02*
X047269Y009218D01*
X047297Y009060D02*
X045995Y009060D01*
X046173Y008901D02*
X047206Y008901D01*
X047048Y008743D02*
X046270Y008743D01*
X046334Y008584D02*
X046889Y008584D01*
X046730Y008426D02*
X046334Y008426D01*
X046316Y008267D02*
X046572Y008267D01*
X046413Y008109D02*
X046250Y008109D01*
X046255Y007950D02*
X046126Y007950D01*
X046956Y007633D02*
X047269Y007633D01*
X047269Y007584D02*
X047297Y007517D01*
X047297Y007272D01*
X047207Y007182D01*
X047207Y006016D01*
X047324Y005899D01*
X047990Y005899D01*
X048107Y006016D01*
X048107Y007182D01*
X048017Y007272D01*
X048017Y007517D01*
X048045Y007584D01*
X048045Y007739D01*
X047986Y007882D01*
X047877Y007991D01*
X047734Y008050D01*
X047579Y008050D01*
X047437Y007991D01*
X047328Y007882D01*
X047269Y007739D01*
X047269Y007584D01*
X047297Y007474D02*
X046836Y007474D01*
X046836Y007316D02*
X047297Y007316D01*
X047207Y007157D02*
X046926Y007157D01*
X046926Y006999D02*
X047207Y006999D01*
X047207Y006840D02*
X046926Y006840D01*
X046926Y006682D02*
X047207Y006682D01*
X047207Y006523D02*
X046926Y006523D01*
X046926Y006365D02*
X047207Y006365D01*
X047207Y006206D02*
X046926Y006206D01*
X046926Y006048D02*
X047207Y006048D01*
X048107Y006048D02*
X048388Y006048D01*
X048388Y006016D02*
X048505Y005899D01*
X049171Y005899D01*
X049288Y006016D01*
X049288Y006121D01*
X049480Y006121D01*
X049548Y006093D01*
X049702Y006093D01*
X049845Y006152D01*
X049954Y006261D01*
X050013Y006403D01*
X050013Y006558D01*
X049954Y006700D01*
X049845Y006810D01*
X049702Y006869D01*
X049548Y006869D01*
X049480Y006841D01*
X049288Y006841D01*
X049288Y007182D01*
X049171Y007299D01*
X048505Y007299D01*
X048388Y007182D01*
X048388Y006016D01*
X048388Y006206D02*
X048107Y006206D01*
X048107Y006365D02*
X048388Y006365D01*
X048388Y006523D02*
X048107Y006523D01*
X048107Y006682D02*
X048388Y006682D01*
X048388Y006840D02*
X048107Y006840D01*
X048107Y006999D02*
X048388Y006999D01*
X048388Y007157D02*
X048107Y007157D01*
X048017Y007316D02*
X051627Y007316D01*
X051627Y007474D02*
X048017Y007474D01*
X048045Y007633D02*
X051627Y007633D01*
X051651Y007791D02*
X051394Y007791D01*
X051281Y007745D02*
X051540Y007852D01*
X051738Y008050D01*
X051845Y008309D01*
X051845Y008589D01*
X051738Y008848D01*
X051540Y009046D01*
X051281Y009154D01*
X051001Y009154D01*
X050742Y009046D01*
X050544Y008848D01*
X050437Y008589D01*
X050437Y008309D01*
X050544Y008050D01*
X050742Y007852D01*
X051001Y007745D01*
X051281Y007745D01*
X050888Y007791D02*
X049937Y007791D01*
X049824Y007745D02*
X050083Y007852D01*
X050281Y008050D01*
X050389Y008309D01*
X050389Y008589D01*
X050281Y008848D01*
X050083Y009046D01*
X049824Y009154D01*
X049544Y009154D01*
X049285Y009046D01*
X049087Y008848D01*
X048980Y008589D01*
X048980Y008309D01*
X049087Y008050D01*
X049285Y007852D01*
X049544Y007745D01*
X049824Y007745D01*
X049431Y007791D02*
X048023Y007791D01*
X047917Y007950D02*
X049187Y007950D01*
X049063Y008109D02*
X047432Y008109D01*
X047396Y007950D02*
X047273Y007950D01*
X047290Y007791D02*
X047114Y007791D01*
X047590Y008267D02*
X048997Y008267D01*
X048980Y008426D02*
X047749Y008426D01*
X047907Y008584D02*
X048980Y008584D01*
X049043Y008743D02*
X048005Y008743D01*
X048017Y008901D02*
X049140Y008901D01*
X049318Y009060D02*
X048017Y009060D01*
X048045Y009218D02*
X052780Y009218D01*
X052809Y009060D02*
X051507Y009060D01*
X051685Y008901D02*
X052718Y008901D01*
X052559Y008743D02*
X051782Y008743D01*
X051845Y008584D02*
X052401Y008584D01*
X052242Y008426D02*
X051845Y008426D01*
X051828Y008267D02*
X052084Y008267D01*
X051925Y008109D02*
X051762Y008109D01*
X051767Y007950D02*
X051638Y007950D01*
X052468Y007633D02*
X052780Y007633D01*
X052780Y007584D02*
X052809Y007517D01*
X052809Y007272D01*
X052719Y007182D01*
X052719Y006016D01*
X052836Y005899D01*
X053501Y005899D01*
X053618Y006016D01*
X053618Y007182D01*
X053528Y007272D01*
X053528Y007517D01*
X053557Y007584D01*
X053557Y007739D01*
X053497Y007882D01*
X053388Y007991D01*
X053246Y008050D01*
X053091Y008050D01*
X052949Y007991D01*
X052839Y007882D01*
X052780Y007739D01*
X052780Y007584D01*
X052809Y007474D02*
X052347Y007474D01*
X052347Y007316D02*
X052809Y007316D01*
X052719Y007157D02*
X052437Y007157D01*
X052437Y006999D02*
X052719Y006999D01*
X052719Y006840D02*
X052437Y006840D01*
X052437Y006682D02*
X052719Y006682D01*
X052719Y006523D02*
X052437Y006523D01*
X052437Y006365D02*
X052719Y006365D01*
X052719Y006206D02*
X052437Y006206D01*
X052437Y006048D02*
X052719Y006048D01*
X053618Y006048D02*
X053900Y006048D01*
X053900Y006016D02*
X054017Y005899D01*
X054682Y005899D01*
X054800Y006016D01*
X054800Y006121D01*
X054992Y006121D01*
X055060Y006093D01*
X055214Y006093D01*
X055357Y006152D01*
X055466Y006261D01*
X055525Y006403D01*
X055525Y006558D01*
X055466Y006700D01*
X055357Y006810D01*
X055214Y006869D01*
X055060Y006869D01*
X054992Y006841D01*
X054800Y006841D01*
X054800Y007182D01*
X054682Y007299D01*
X054017Y007299D01*
X053900Y007182D01*
X053900Y006016D01*
X053900Y006206D02*
X053618Y006206D01*
X053618Y006365D02*
X053900Y006365D01*
X053900Y006523D02*
X053618Y006523D01*
X053618Y006682D02*
X053900Y006682D01*
X053900Y006840D02*
X053618Y006840D01*
X053618Y006999D02*
X053900Y006999D01*
X053900Y007157D02*
X053618Y007157D01*
X053528Y007316D02*
X057139Y007316D01*
X057139Y007474D02*
X053528Y007474D01*
X053557Y007633D02*
X057139Y007633D01*
X057163Y007791D02*
X056906Y007791D01*
X056793Y007745D02*
X057052Y007852D01*
X057250Y008050D01*
X057357Y008309D01*
X057357Y008589D01*
X057250Y008848D01*
X057052Y009046D01*
X056793Y009154D01*
X056513Y009154D01*
X056254Y009046D01*
X056056Y008848D01*
X055948Y008589D01*
X055948Y008309D01*
X056056Y008050D01*
X056254Y007852D01*
X056513Y007745D01*
X056793Y007745D01*
X056400Y007791D02*
X055449Y007791D01*
X055336Y007745D02*
X055595Y007852D01*
X055793Y008050D01*
X055900Y008309D01*
X055900Y008589D01*
X055793Y008848D01*
X055595Y009046D01*
X055336Y009154D01*
X055056Y009154D01*
X054797Y009046D01*
X054599Y008848D01*
X054492Y008589D01*
X054492Y008309D01*
X054599Y008050D01*
X054797Y007852D01*
X055056Y007745D01*
X055336Y007745D01*
X054943Y007791D02*
X053535Y007791D01*
X053429Y007950D02*
X054699Y007950D01*
X054575Y008109D02*
X052943Y008109D01*
X052908Y007950D02*
X052785Y007950D01*
X052802Y007791D02*
X052626Y007791D01*
X053102Y008267D02*
X054509Y008267D01*
X054492Y008426D02*
X053260Y008426D01*
X053419Y008584D02*
X054492Y008584D01*
X054555Y008743D02*
X053517Y008743D01*
X053528Y008901D02*
X054652Y008901D01*
X054830Y009060D02*
X053528Y009060D01*
X053557Y009218D02*
X058292Y009218D01*
X058320Y009060D02*
X057019Y009060D01*
X057197Y008901D02*
X058230Y008901D01*
X058071Y008743D02*
X057294Y008743D01*
X057357Y008584D02*
X057913Y008584D01*
X057754Y008426D02*
X057357Y008426D01*
X057340Y008267D02*
X057596Y008267D01*
X057437Y008109D02*
X057274Y008109D01*
X057278Y007950D02*
X057150Y007950D01*
X057980Y007633D02*
X058292Y007633D01*
X058292Y007584D02*
X058320Y007517D01*
X058320Y007272D01*
X058230Y007182D01*
X058230Y006016D01*
X058347Y005899D01*
X059013Y005899D01*
X059130Y006016D01*
X059130Y007182D01*
X059040Y007272D01*
X059040Y007517D01*
X059068Y007584D01*
X059068Y007739D01*
X059009Y007882D01*
X058900Y007991D01*
X058758Y008050D01*
X058603Y008050D01*
X058460Y007991D01*
X058351Y007882D01*
X058292Y007739D01*
X058292Y007584D01*
X058320Y007474D02*
X057859Y007474D01*
X057859Y007316D02*
X058320Y007316D01*
X058230Y007157D02*
X057949Y007157D01*
X057949Y006999D02*
X058230Y006999D01*
X058230Y006840D02*
X057949Y006840D01*
X057949Y006682D02*
X058230Y006682D01*
X058230Y006523D02*
X057949Y006523D01*
X057949Y006365D02*
X058230Y006365D01*
X058230Y006206D02*
X057949Y006206D01*
X057949Y006048D02*
X058230Y006048D01*
X059130Y006048D02*
X059411Y006048D01*
X059411Y006016D02*
X059529Y005899D01*
X060194Y005899D01*
X060311Y006016D01*
X060311Y006121D01*
X060504Y006121D01*
X060572Y006093D01*
X060726Y006093D01*
X060869Y006152D01*
X060978Y006261D01*
X061037Y006403D01*
X061037Y006558D01*
X060978Y006700D01*
X060869Y006810D01*
X060726Y006869D01*
X060572Y006869D01*
X060504Y006841D01*
X060311Y006841D01*
X060311Y007182D01*
X060194Y007299D01*
X059529Y007299D01*
X059411Y007182D01*
X059411Y006016D01*
X059411Y006206D02*
X059130Y006206D01*
X059130Y006365D02*
X059411Y006365D01*
X059411Y006523D02*
X059130Y006523D01*
X059130Y006682D02*
X059411Y006682D01*
X059411Y006840D02*
X059130Y006840D01*
X059130Y006999D02*
X059411Y006999D01*
X059411Y007157D02*
X059130Y007157D01*
X059040Y007316D02*
X062651Y007316D01*
X062651Y007474D02*
X059040Y007474D01*
X059068Y007633D02*
X062651Y007633D01*
X062675Y007791D02*
X062418Y007791D01*
X062305Y007745D02*
X062564Y007852D01*
X062762Y008050D01*
X062869Y008309D01*
X062869Y008589D01*
X062762Y008848D01*
X062564Y009046D01*
X062305Y009154D01*
X062024Y009154D01*
X061766Y009046D01*
X061567Y008848D01*
X061460Y008589D01*
X061460Y008309D01*
X061567Y008050D01*
X061766Y007852D01*
X062024Y007745D01*
X062305Y007745D01*
X061911Y007791D02*
X060961Y007791D01*
X060848Y007745D02*
X061107Y007852D01*
X061305Y008050D01*
X061412Y008309D01*
X061412Y008589D01*
X061305Y008848D01*
X061107Y009046D01*
X060848Y009154D01*
X060568Y009154D01*
X060309Y009046D01*
X060111Y008848D01*
X060003Y008589D01*
X060003Y008309D01*
X060111Y008050D01*
X060309Y007852D01*
X060568Y007745D01*
X060848Y007745D01*
X060455Y007791D02*
X059047Y007791D01*
X058941Y007950D02*
X060211Y007950D01*
X060086Y008109D02*
X058455Y008109D01*
X058420Y007950D02*
X058297Y007950D01*
X058314Y007791D02*
X058138Y007791D01*
X058614Y008267D02*
X060021Y008267D01*
X060003Y008426D02*
X058772Y008426D01*
X058931Y008584D02*
X060003Y008584D01*
X060067Y008743D02*
X059028Y008743D01*
X059040Y008901D02*
X060164Y008901D01*
X060342Y009060D02*
X059040Y009060D01*
X059068Y009218D02*
X063804Y009218D01*
X063832Y009060D02*
X062531Y009060D01*
X062709Y008901D02*
X063741Y008901D01*
X063583Y008743D02*
X062805Y008743D01*
X062869Y008584D02*
X063424Y008584D01*
X063266Y008426D02*
X062869Y008426D01*
X062852Y008267D02*
X063107Y008267D01*
X062949Y008109D02*
X062786Y008109D01*
X062790Y007950D02*
X062662Y007950D01*
X063491Y007633D02*
X063804Y007633D01*
X063804Y007584D02*
X063832Y007517D01*
X063832Y007272D01*
X063742Y007182D01*
X063742Y006016D01*
X063859Y005899D01*
X064525Y005899D01*
X064642Y006016D01*
X064642Y007182D01*
X064552Y007272D01*
X064552Y007517D01*
X064580Y007584D01*
X064580Y007739D01*
X064521Y007882D01*
X064412Y007991D01*
X064269Y008050D01*
X064115Y008050D01*
X063972Y007991D01*
X063863Y007882D01*
X063804Y007739D01*
X063804Y007584D01*
X063832Y007474D02*
X063371Y007474D01*
X063371Y007316D02*
X063832Y007316D01*
X063742Y007157D02*
X063461Y007157D01*
X063461Y006999D02*
X063742Y006999D01*
X063742Y006840D02*
X063461Y006840D01*
X063461Y006682D02*
X063742Y006682D01*
X063742Y006523D02*
X063461Y006523D01*
X063461Y006365D02*
X063742Y006365D01*
X063742Y006206D02*
X063461Y006206D01*
X063461Y006048D02*
X063742Y006048D01*
X064642Y006048D02*
X064923Y006048D01*
X064923Y006206D02*
X064642Y006206D01*
X064642Y006365D02*
X064923Y006365D01*
X064923Y006523D02*
X064642Y006523D01*
X064642Y006682D02*
X064923Y006682D01*
X064923Y006840D02*
X064642Y006840D01*
X064642Y006999D02*
X064923Y006999D01*
X064923Y007157D02*
X064642Y007157D01*
X064552Y007316D02*
X068163Y007316D01*
X068163Y007474D02*
X064552Y007474D01*
X064580Y007633D02*
X068163Y007633D01*
X068187Y007791D02*
X067929Y007791D01*
X067816Y007745D02*
X068075Y007852D01*
X068274Y008050D01*
X068381Y008309D01*
X068381Y008589D01*
X068274Y008848D01*
X068075Y009046D01*
X067816Y009154D01*
X067536Y009154D01*
X067277Y009046D01*
X067079Y008848D01*
X066972Y008589D01*
X066972Y008309D01*
X067079Y008050D01*
X067277Y007852D01*
X067536Y007745D01*
X067816Y007745D01*
X067423Y007791D02*
X066473Y007791D01*
X066360Y007745D02*
X066619Y007852D01*
X066817Y008050D01*
X066924Y008309D01*
X066924Y008589D01*
X066817Y008848D01*
X066619Y009046D01*
X066360Y009154D01*
X066080Y009154D01*
X065821Y009046D01*
X065623Y008848D01*
X065515Y008589D01*
X065515Y008309D01*
X065623Y008050D01*
X065821Y007852D01*
X066080Y007745D01*
X066360Y007745D01*
X065967Y007791D02*
X064558Y007791D01*
X064453Y007950D02*
X065723Y007950D01*
X065598Y008109D02*
X063967Y008109D01*
X063932Y007950D02*
X063808Y007950D01*
X063826Y007791D02*
X063650Y007791D01*
X064126Y008267D02*
X065533Y008267D01*
X065515Y008426D02*
X064284Y008426D01*
X064443Y008584D02*
X065515Y008584D01*
X065579Y008743D02*
X064540Y008743D01*
X064552Y008901D02*
X065676Y008901D01*
X065853Y009060D02*
X064552Y009060D01*
X064580Y009218D02*
X069316Y009218D01*
X069344Y009060D02*
X068043Y009060D01*
X068220Y008901D02*
X069253Y008901D01*
X069095Y008743D02*
X068317Y008743D01*
X068381Y008584D02*
X068936Y008584D01*
X068778Y008426D02*
X068381Y008426D01*
X068363Y008267D02*
X068619Y008267D01*
X068461Y008109D02*
X068298Y008109D01*
X068302Y007950D02*
X068173Y007950D01*
X069003Y007633D02*
X069316Y007633D01*
X069316Y007584D02*
X069344Y007517D01*
X069344Y007272D01*
X069254Y007182D01*
X069254Y006016D01*
X069371Y005899D01*
X070037Y005899D01*
X070154Y006016D01*
X070154Y007182D01*
X070064Y007272D01*
X070064Y007517D01*
X070092Y007584D01*
X070092Y007739D01*
X070033Y007882D01*
X069924Y007991D01*
X069781Y008050D01*
X069627Y008050D01*
X069484Y007991D01*
X069375Y007882D01*
X069316Y007739D01*
X069316Y007584D01*
X069344Y007474D02*
X068883Y007474D01*
X068883Y007316D02*
X069344Y007316D01*
X069254Y007157D02*
X068973Y007157D01*
X068973Y006999D02*
X069254Y006999D01*
X069254Y006840D02*
X068973Y006840D01*
X068973Y006682D02*
X069254Y006682D01*
X069254Y006523D02*
X068973Y006523D01*
X068973Y006365D02*
X069254Y006365D01*
X069254Y006206D02*
X068973Y006206D01*
X068973Y006048D02*
X069254Y006048D01*
X070019Y005730D02*
X066239Y005730D01*
X066080Y005889D02*
X070178Y005889D01*
X070154Y006048D02*
X070337Y006048D01*
X070435Y006206D02*
X070154Y006206D01*
X070154Y006365D02*
X070435Y006365D01*
X070435Y006523D02*
X070154Y006523D01*
X070154Y006682D02*
X070435Y006682D01*
X070435Y006840D02*
X070154Y006840D01*
X070154Y006999D02*
X070435Y006999D01*
X070435Y007157D02*
X070154Y007157D01*
X070064Y007316D02*
X073675Y007316D01*
X073675Y007474D02*
X070064Y007474D01*
X070092Y007633D02*
X073675Y007633D01*
X073699Y007791D02*
X073441Y007791D01*
X073328Y007745D02*
X073587Y007852D01*
X073785Y008050D01*
X073893Y008309D01*
X073893Y008589D01*
X073785Y008848D01*
X073587Y009046D01*
X073328Y009154D01*
X073048Y009154D01*
X072789Y009046D01*
X072591Y008848D01*
X072484Y008589D01*
X072484Y008309D01*
X072591Y008050D01*
X072789Y007852D01*
X073048Y007745D01*
X073328Y007745D01*
X072935Y007791D02*
X071984Y007791D01*
X071872Y007745D02*
X072130Y007852D01*
X072329Y008050D01*
X072436Y008309D01*
X072436Y008589D01*
X072329Y008848D01*
X072130Y009046D01*
X071872Y009154D01*
X071591Y009154D01*
X071332Y009046D01*
X071134Y008848D01*
X071027Y008589D01*
X071027Y008309D01*
X071134Y008050D01*
X071332Y007852D01*
X071591Y007745D01*
X071872Y007745D01*
X071478Y007791D02*
X070070Y007791D01*
X069964Y007950D02*
X071234Y007950D01*
X071110Y008109D02*
X069479Y008109D01*
X069443Y007950D02*
X069320Y007950D01*
X069338Y007791D02*
X069162Y007791D01*
X069637Y008267D02*
X071044Y008267D01*
X071027Y008426D02*
X069796Y008426D01*
X069954Y008584D02*
X071027Y008584D01*
X071091Y008743D02*
X070052Y008743D01*
X070064Y008901D02*
X071188Y008901D01*
X071365Y009060D02*
X070064Y009060D01*
X070092Y009218D02*
X074828Y009218D01*
X074856Y009060D02*
X073554Y009060D01*
X073732Y008901D02*
X074765Y008901D01*
X074607Y008743D02*
X073829Y008743D01*
X073893Y008584D02*
X074448Y008584D01*
X074289Y008426D02*
X073893Y008426D01*
X073875Y008267D02*
X074131Y008267D01*
X073972Y008109D02*
X073810Y008109D01*
X073814Y007950D02*
X073685Y007950D01*
X074515Y007633D02*
X074828Y007633D01*
X074849Y007791D02*
X074674Y007791D01*
X074832Y007950D02*
X074955Y007950D01*
X074991Y008109D02*
X076622Y008109D01*
X076646Y008050D02*
X076844Y007852D01*
X077103Y007745D01*
X077383Y007745D01*
X077642Y007852D01*
X077840Y008050D01*
X077948Y008309D01*
X077948Y008589D01*
X077840Y008848D01*
X077642Y009046D01*
X077383Y009154D01*
X077103Y009154D01*
X076844Y009046D01*
X076646Y008848D01*
X076539Y008589D01*
X076539Y008309D01*
X076646Y008050D01*
X076746Y007950D02*
X075476Y007950D01*
X075582Y007791D02*
X076990Y007791D01*
X077496Y007791D02*
X078365Y007791D01*
X078365Y007633D02*
X075604Y007633D01*
X075576Y007474D02*
X078365Y007474D01*
X078365Y007316D02*
X075576Y007316D01*
X075666Y007157D02*
X075947Y007157D01*
X075947Y006999D02*
X075666Y006999D01*
X075666Y006840D02*
X075947Y006840D01*
X075947Y006682D02*
X075666Y006682D01*
X075666Y006523D02*
X075947Y006523D01*
X075947Y006365D02*
X075666Y006365D01*
X075666Y006206D02*
X075947Y006206D01*
X076757Y005889D02*
X078365Y005889D01*
X078365Y006048D02*
X076847Y006048D01*
X076847Y006206D02*
X078365Y006206D01*
X078365Y006365D02*
X076847Y006365D01*
X076847Y006523D02*
X078365Y006523D01*
X078365Y006682D02*
X076847Y006682D01*
X076847Y006840D02*
X078365Y006840D01*
X078365Y006999D02*
X076847Y006999D01*
X076847Y007157D02*
X078365Y007157D01*
X078365Y007950D02*
X077740Y007950D01*
X077865Y008109D02*
X078365Y008109D01*
X078365Y008267D02*
X077930Y008267D01*
X077948Y008426D02*
X078365Y008426D01*
X078365Y008584D02*
X077948Y008584D01*
X077884Y008743D02*
X078365Y008743D01*
X078365Y008901D02*
X077787Y008901D01*
X077610Y009060D02*
X078365Y009060D01*
X078365Y009218D02*
X075604Y009218D01*
X075576Y009060D02*
X076877Y009060D01*
X076699Y008901D02*
X075576Y008901D01*
X075564Y008743D02*
X076603Y008743D01*
X076539Y008584D02*
X075466Y008584D01*
X075308Y008426D02*
X076539Y008426D01*
X076556Y008267D02*
X075149Y008267D01*
X074856Y007474D02*
X074395Y007474D01*
X074395Y007316D02*
X074856Y007316D01*
X074766Y007157D02*
X074485Y007157D01*
X074485Y006999D02*
X074766Y006999D01*
X074766Y006840D02*
X074485Y006840D01*
X074485Y006682D02*
X074766Y006682D01*
X074766Y006523D02*
X074485Y006523D01*
X074485Y006365D02*
X074766Y006365D01*
X074766Y006206D02*
X074485Y006206D01*
X073585Y006206D02*
X071335Y006206D01*
X071335Y006365D02*
X073585Y006365D01*
X073585Y006523D02*
X071335Y006523D01*
X071335Y006682D02*
X073585Y006682D01*
X073585Y006840D02*
X071335Y006840D01*
X071335Y006999D02*
X073585Y006999D01*
X073585Y007157D02*
X071335Y007157D01*
X072229Y007950D02*
X072691Y007950D01*
X072567Y008109D02*
X072353Y008109D01*
X072419Y008267D02*
X072501Y008267D01*
X072484Y008426D02*
X072436Y008426D01*
X072436Y008584D02*
X072484Y008584D01*
X072547Y008743D02*
X072372Y008743D01*
X072275Y008901D02*
X072644Y008901D01*
X072822Y009060D02*
X072098Y009060D01*
X070066Y009377D02*
X074854Y009377D01*
X074856Y009535D02*
X070064Y009535D01*
X070132Y009694D02*
X070457Y009694D01*
X070435Y009853D02*
X070154Y009853D01*
X070154Y010011D02*
X070435Y010011D01*
X070435Y010170D02*
X070154Y010170D01*
X070154Y010328D02*
X070435Y010328D01*
X070435Y010487D02*
X070154Y010487D01*
X070154Y010645D02*
X070435Y010645D01*
X070435Y010804D02*
X070154Y010804D01*
X069254Y010804D02*
X068953Y010804D01*
X068953Y010645D02*
X069254Y010645D01*
X069254Y010487D02*
X068953Y010487D01*
X068953Y010254D02*
X068568Y010254D01*
X068568Y009619D01*
X068797Y009619D01*
X068842Y009631D01*
X068883Y009655D01*
X068917Y009689D01*
X068941Y009730D01*
X068953Y009775D01*
X068953Y010254D01*
X068953Y010170D02*
X069254Y010170D01*
X069254Y010328D02*
X068568Y010328D01*
X068478Y010328D02*
X066544Y010328D01*
X066549Y010487D02*
X068093Y010487D01*
X068093Y010645D02*
X066482Y010645D01*
X066242Y010804D02*
X068093Y010804D01*
X068093Y010254D02*
X068093Y009775D01*
X068105Y009730D01*
X068129Y009689D01*
X068162Y009655D01*
X068203Y009631D01*
X068249Y009619D01*
X068478Y009619D01*
X068478Y010254D01*
X068093Y010254D01*
X068093Y010170D02*
X066461Y010170D01*
X065823Y010011D02*
X068093Y010011D01*
X068093Y009853D02*
X065823Y009853D01*
X065801Y009694D02*
X068126Y009694D01*
X068478Y009694D02*
X068568Y009694D01*
X068568Y009853D02*
X068478Y009853D01*
X068478Y010011D02*
X068568Y010011D01*
X068568Y010170D02*
X068478Y010170D01*
X068953Y010011D02*
X069254Y010011D01*
X069254Y009853D02*
X068953Y009853D01*
X068920Y009694D02*
X069276Y009694D01*
X069344Y009535D02*
X064552Y009535D01*
X064554Y009377D02*
X069342Y009377D01*
X071313Y009694D02*
X073637Y009694D01*
X073605Y009853D02*
X071335Y009853D01*
X071335Y010011D02*
X073605Y010011D01*
X073605Y010170D02*
X071973Y010170D01*
X072055Y010328D02*
X073989Y010328D01*
X074080Y010328D02*
X074766Y010328D01*
X074766Y010170D02*
X074465Y010170D01*
X074465Y010254D02*
X074465Y009775D01*
X074452Y009730D01*
X074429Y009689D01*
X074395Y009655D01*
X074354Y009631D01*
X074308Y009619D01*
X074080Y009619D01*
X074080Y010254D01*
X074465Y010254D01*
X074465Y010487D02*
X074766Y010487D01*
X074766Y010645D02*
X074465Y010645D01*
X074465Y010804D02*
X074766Y010804D01*
X075666Y010804D02*
X075947Y010804D01*
X075947Y010645D02*
X075666Y010645D01*
X075666Y010487D02*
X075947Y010487D01*
X075947Y010328D02*
X075666Y010328D01*
X075666Y010170D02*
X075947Y010170D01*
X075947Y010011D02*
X075666Y010011D01*
X075666Y009853D02*
X075947Y009853D01*
X075969Y009694D02*
X075643Y009694D01*
X075576Y009535D02*
X078365Y009535D01*
X078365Y009377D02*
X075578Y009377D01*
X074788Y009694D02*
X074432Y009694D01*
X074465Y009853D02*
X074766Y009853D01*
X074766Y010011D02*
X074465Y010011D01*
X074080Y010011D02*
X073990Y010011D01*
X073990Y009853D02*
X074080Y009853D01*
X074080Y009694D02*
X073990Y009694D01*
X073990Y010170D02*
X074080Y010170D01*
X073605Y010487D02*
X072061Y010487D01*
X071994Y010645D02*
X073605Y010645D01*
X073605Y010804D02*
X071754Y010804D01*
X071591Y010804D02*
X071335Y010804D01*
X066079Y010804D02*
X065823Y010804D01*
X064923Y010804D02*
X064642Y010804D01*
X064642Y010645D02*
X064923Y010645D01*
X064923Y010487D02*
X064642Y010487D01*
X064642Y010328D02*
X064923Y010328D01*
X064923Y010170D02*
X064642Y010170D01*
X064642Y010011D02*
X064923Y010011D01*
X064923Y009853D02*
X064642Y009853D01*
X064620Y009694D02*
X064945Y009694D01*
X063832Y009535D02*
X059040Y009535D01*
X059042Y009377D02*
X063830Y009377D01*
X062966Y009619D02*
X062966Y010254D01*
X062581Y010254D01*
X062581Y009775D01*
X062593Y009730D01*
X062617Y009689D01*
X062650Y009655D01*
X062692Y009631D01*
X062737Y009619D01*
X062966Y009619D01*
X062966Y009694D02*
X063056Y009694D01*
X063056Y009853D02*
X062966Y009853D01*
X062966Y010011D02*
X063056Y010011D01*
X063056Y010170D02*
X062966Y010170D01*
X062966Y010328D02*
X061032Y010328D01*
X061037Y010487D02*
X062581Y010487D01*
X062581Y010645D02*
X060970Y010645D01*
X060731Y010804D02*
X062581Y010804D01*
X063441Y010804D02*
X063742Y010804D01*
X063742Y010645D02*
X063441Y010645D01*
X063441Y010487D02*
X063742Y010487D01*
X063742Y010328D02*
X063056Y010328D01*
X063441Y010170D02*
X063742Y010170D01*
X063742Y010011D02*
X063441Y010011D01*
X063441Y009853D02*
X063742Y009853D01*
X063764Y009694D02*
X063408Y009694D01*
X062614Y009694D02*
X060289Y009694D01*
X060311Y009853D02*
X062581Y009853D01*
X062581Y010011D02*
X060311Y010011D01*
X060950Y010170D02*
X062581Y010170D01*
X060567Y010804D02*
X060311Y010804D01*
X059411Y010804D02*
X059130Y010804D01*
X059130Y010645D02*
X059411Y010645D01*
X059411Y010487D02*
X059130Y010487D01*
X059130Y010328D02*
X059411Y010328D01*
X059411Y010170D02*
X059130Y010170D01*
X059130Y010011D02*
X059411Y010011D01*
X059411Y009853D02*
X059130Y009853D01*
X059108Y009694D02*
X059434Y009694D01*
X058320Y009535D02*
X053528Y009535D01*
X053530Y009377D02*
X058318Y009377D01*
X058253Y009694D02*
X057896Y009694D01*
X057929Y009853D02*
X058230Y009853D01*
X058230Y010011D02*
X057929Y010011D01*
X057929Y010170D02*
X058230Y010170D01*
X058230Y010328D02*
X057544Y010328D01*
X057454Y010328D02*
X055520Y010328D01*
X055525Y010487D02*
X057069Y010487D01*
X057069Y010645D02*
X055458Y010645D01*
X055219Y010804D02*
X057069Y010804D01*
X057929Y010804D02*
X058230Y010804D01*
X058230Y010645D02*
X057929Y010645D01*
X057929Y010487D02*
X058230Y010487D01*
X057544Y010170D02*
X057454Y010170D01*
X057454Y010011D02*
X057544Y010011D01*
X057544Y009853D02*
X057454Y009853D01*
X057454Y009694D02*
X057544Y009694D01*
X057102Y009694D02*
X054777Y009694D01*
X054800Y009853D02*
X057069Y009853D01*
X057069Y010011D02*
X054800Y010011D01*
X055438Y010170D02*
X057069Y010170D01*
X055055Y010804D02*
X054800Y010804D01*
X053900Y010804D02*
X053618Y010804D01*
X053618Y010645D02*
X053900Y010645D01*
X053900Y010487D02*
X053618Y010487D01*
X053618Y010328D02*
X053900Y010328D01*
X053900Y010170D02*
X053618Y010170D01*
X053618Y010011D02*
X053900Y010011D01*
X053900Y009853D02*
X053618Y009853D01*
X053596Y009694D02*
X053922Y009694D01*
X052809Y009535D02*
X048017Y009535D01*
X048019Y009377D02*
X052807Y009377D01*
X052741Y009694D02*
X052385Y009694D01*
X052417Y009853D02*
X052719Y009853D01*
X052719Y010011D02*
X052417Y010011D01*
X052417Y010170D02*
X052719Y010170D01*
X052719Y010328D02*
X052033Y010328D01*
X051942Y010328D02*
X050008Y010328D01*
X050013Y010487D02*
X051557Y010487D01*
X051557Y010645D02*
X049946Y010645D01*
X049707Y010804D02*
X051557Y010804D01*
X052417Y010804D02*
X052719Y010804D01*
X052719Y010645D02*
X052417Y010645D01*
X052417Y010487D02*
X052719Y010487D01*
X052032Y010170D02*
X051942Y010170D01*
X051942Y010011D02*
X052032Y010011D01*
X052032Y009853D02*
X051942Y009853D01*
X051942Y009694D02*
X052032Y009694D01*
X051590Y009694D02*
X049266Y009694D01*
X049288Y009853D02*
X051557Y009853D01*
X051557Y010011D02*
X049288Y010011D01*
X049926Y010170D02*
X051557Y010170D01*
X049543Y010804D02*
X049288Y010804D01*
X048388Y010804D02*
X048107Y010804D01*
X048107Y010645D02*
X048388Y010645D01*
X048388Y010487D02*
X048107Y010487D01*
X048107Y010328D02*
X048388Y010328D01*
X048388Y010170D02*
X048107Y010170D01*
X048107Y010011D02*
X048388Y010011D01*
X048388Y009853D02*
X048107Y009853D01*
X048084Y009694D02*
X048410Y009694D01*
X047297Y009535D02*
X042505Y009535D01*
X042507Y009377D02*
X047295Y009377D01*
X046870Y009689D02*
X046893Y009730D01*
X046906Y009775D01*
X046906Y010254D01*
X046521Y010254D01*
X046521Y009619D01*
X046749Y009619D01*
X046795Y009631D01*
X046836Y009655D01*
X046870Y009689D01*
X046873Y009694D02*
X047229Y009694D01*
X047207Y009853D02*
X046906Y009853D01*
X046906Y010011D02*
X047207Y010011D01*
X047207Y010170D02*
X046906Y010170D01*
X046906Y010487D02*
X047207Y010487D01*
X047207Y010645D02*
X046906Y010645D01*
X046906Y010804D02*
X047207Y010804D01*
X046046Y010804D02*
X044195Y010804D01*
X044032Y010804D02*
X043776Y010804D01*
X044435Y010645D02*
X046046Y010645D01*
X046046Y010487D02*
X044501Y010487D01*
X044496Y010328D02*
X046430Y010328D01*
X046521Y010328D02*
X047207Y010328D01*
X046521Y010170D02*
X046431Y010170D01*
X046431Y010011D02*
X046521Y010011D01*
X046521Y009853D02*
X046431Y009853D01*
X046431Y009694D02*
X046521Y009694D01*
X046078Y009694D02*
X043754Y009694D01*
X043776Y009853D02*
X046046Y009853D01*
X046046Y010011D02*
X043776Y010011D01*
X044414Y010170D02*
X046046Y010170D01*
X045263Y009060D02*
X044539Y009060D01*
X044716Y008901D02*
X045085Y008901D01*
X044988Y008743D02*
X044813Y008743D01*
X044877Y008584D02*
X044925Y008584D01*
X044925Y008426D02*
X044877Y008426D01*
X044859Y008267D02*
X044942Y008267D01*
X045008Y008109D02*
X044794Y008109D01*
X044669Y007950D02*
X045132Y007950D01*
X046026Y007157D02*
X043776Y007157D01*
X043776Y006999D02*
X046026Y006999D01*
X046026Y006840D02*
X044259Y006840D01*
X044450Y006682D02*
X046026Y006682D01*
X046026Y006523D02*
X044501Y006523D01*
X044485Y006365D02*
X046026Y006365D01*
X046026Y006206D02*
X044388Y006206D01*
X043776Y006048D02*
X046026Y006048D01*
X047672Y004735D02*
X047587Y004531D01*
X047587Y004310D01*
X047672Y004107D01*
X047828Y003951D01*
X048032Y003866D01*
X048252Y003866D01*
X048306Y003889D01*
X048283Y003835D01*
X048283Y003614D01*
X048306Y003561D01*
X048252Y003583D01*
X048032Y003583D01*
X047828Y003499D01*
X047672Y003343D01*
X047587Y003139D01*
X047587Y002918D01*
X047672Y002715D01*
X047828Y002559D01*
X047946Y002510D01*
X047412Y002510D01*
X047174Y002748D01*
X047073Y002849D01*
X046941Y002904D01*
X041900Y002904D01*
X041571Y003233D01*
X041470Y003334D01*
X041338Y003389D01*
X041296Y003389D01*
X041186Y003499D01*
X040983Y003583D01*
X040762Y003583D01*
X040708Y003561D01*
X040731Y003614D01*
X040731Y003835D01*
X040697Y003916D01*
X040747Y003900D01*
X040830Y003886D01*
X040834Y003886D01*
X040834Y004382D01*
X040910Y004382D01*
X040910Y003886D01*
X040914Y003886D01*
X040997Y003900D01*
X041077Y003926D01*
X041152Y003964D01*
X041220Y004013D01*
X041280Y004073D01*
X041329Y004141D01*
X041368Y004216D01*
X041394Y004296D01*
X041407Y004379D01*
X041407Y004383D01*
X040911Y004383D01*
X040911Y004459D01*
X041407Y004459D01*
X041407Y004463D01*
X041394Y004546D01*
X041368Y004626D01*
X041329Y004701D01*
X041280Y004769D01*
X041220Y004828D01*
X041152Y004878D01*
X041077Y004916D01*
X040997Y004942D01*
X040914Y004955D01*
X040910Y004955D01*
X040910Y004459D01*
X040834Y004459D01*
X040834Y004955D01*
X040830Y004955D01*
X040747Y004942D01*
X040667Y004916D01*
X040592Y004878D01*
X040524Y004828D01*
X040465Y004769D01*
X040415Y004701D01*
X040377Y004626D01*
X040351Y004546D01*
X040338Y004463D01*
X040338Y004459D01*
X040834Y004459D01*
X040834Y004383D01*
X040338Y004383D01*
X040338Y004379D01*
X040351Y004296D01*
X040367Y004246D01*
X040287Y004279D01*
X040066Y004279D01*
X040012Y004257D01*
X040035Y004310D01*
X040035Y004531D01*
X039950Y004735D01*
X039794Y004891D01*
X039591Y004975D01*
X039370Y004975D01*
X039166Y004891D01*
X039010Y004735D01*
X038926Y004531D01*
X038926Y004310D01*
X039010Y004107D01*
X039166Y003951D01*
X039370Y003866D01*
X039591Y003866D01*
X039644Y003889D01*
X039622Y003835D01*
X039622Y003614D01*
X039644Y003561D01*
X039591Y003583D01*
X039370Y003583D01*
X039166Y003499D01*
X039010Y003343D01*
X038926Y003139D01*
X038926Y002918D01*
X039010Y002715D01*
X039166Y002559D01*
X039285Y002510D01*
X038751Y002510D01*
X038412Y002849D01*
X038279Y002904D01*
X038136Y002904D01*
X033239Y002904D01*
X033008Y003134D01*
X033294Y003420D01*
X033395Y003521D01*
X033450Y003653D01*
X033450Y004834D01*
X033450Y004977D01*
X033395Y005110D01*
X033450Y004938D02*
X039280Y004938D01*
X039055Y004779D02*
X033450Y004779D01*
X033450Y004621D02*
X038963Y004621D01*
X038926Y004462D02*
X037485Y004462D01*
X037379Y004506D02*
X037068Y004506D01*
X036781Y004387D01*
X036561Y004167D01*
X036442Y003880D01*
X036442Y003569D01*
X036561Y003282D01*
X036781Y003062D01*
X037068Y002944D01*
X037379Y002944D01*
X037666Y003062D01*
X037886Y003282D01*
X038005Y003569D01*
X038005Y003880D01*
X037886Y004167D01*
X037666Y004387D01*
X037379Y004506D01*
X036963Y004462D02*
X034729Y004462D01*
X034623Y004506D02*
X034312Y004506D01*
X034025Y004387D01*
X033805Y004167D01*
X033687Y003880D01*
X033687Y003569D01*
X033805Y003282D01*
X034025Y003062D01*
X034312Y002944D01*
X034623Y002944D01*
X034910Y003062D01*
X035130Y003282D01*
X035249Y003569D01*
X035249Y003880D01*
X035130Y004167D01*
X034910Y004387D01*
X034623Y004506D01*
X034207Y004462D02*
X033450Y004462D01*
X033450Y004304D02*
X033942Y004304D01*
X033796Y004145D02*
X033450Y004145D01*
X033450Y003986D02*
X033731Y003986D01*
X033687Y003828D02*
X033450Y003828D01*
X033450Y003669D02*
X033687Y003669D01*
X033711Y003511D02*
X033385Y003511D01*
X033226Y003352D02*
X033776Y003352D01*
X033894Y003194D02*
X033068Y003194D01*
X033107Y003035D02*
X034091Y003035D01*
X034844Y003035D02*
X036847Y003035D01*
X036650Y003194D02*
X035041Y003194D01*
X035159Y003352D02*
X036532Y003352D01*
X036467Y003511D02*
X035225Y003511D01*
X035249Y003669D02*
X036442Y003669D01*
X036442Y003828D02*
X035249Y003828D01*
X035205Y003986D02*
X036486Y003986D01*
X036552Y004145D02*
X035139Y004145D01*
X034994Y004304D02*
X036698Y004304D01*
X037749Y004304D02*
X038929Y004304D01*
X038995Y004145D02*
X037895Y004145D01*
X037961Y003986D02*
X039131Y003986D01*
X039622Y003828D02*
X038005Y003828D01*
X038005Y003669D02*
X039622Y003669D01*
X039196Y003511D02*
X037981Y003511D01*
X037915Y003352D02*
X039020Y003352D01*
X038949Y003194D02*
X037797Y003194D01*
X037600Y003035D02*
X038926Y003035D01*
X038943Y002877D02*
X038345Y002877D01*
X038542Y002718D02*
X039009Y002718D01*
X039166Y002560D02*
X038701Y002560D01*
X038158Y002084D02*
X027972Y002084D01*
X027972Y002242D02*
X032882Y002242D01*
X032785Y002340D02*
X032785Y002340D01*
X032723Y002401D02*
X027972Y002401D01*
X027972Y002560D02*
X030504Y002560D01*
X030348Y002718D02*
X027972Y002718D01*
X027972Y002877D02*
X030282Y002877D01*
X030265Y003035D02*
X028939Y003035D01*
X029136Y003194D02*
X030145Y003194D01*
X029986Y003352D02*
X029253Y003352D01*
X029319Y003511D02*
X029828Y003511D01*
X029669Y003669D02*
X029343Y003669D01*
X029343Y003828D02*
X029583Y003828D01*
X029580Y003986D02*
X029299Y003986D01*
X029234Y004145D02*
X029580Y004145D01*
X029580Y004304D02*
X029088Y004304D01*
X028823Y004462D02*
X029580Y004462D01*
X028301Y004462D02*
X027972Y004462D01*
X027972Y004304D02*
X028036Y004304D01*
X027972Y003194D02*
X027988Y003194D01*
X027972Y003035D02*
X028186Y003035D01*
X027972Y001925D02*
X038317Y001925D01*
X037760Y001608D02*
X042592Y001608D01*
X042497Y001450D02*
X037856Y001450D01*
X037916Y001291D02*
X042437Y001291D01*
X042437Y001133D02*
X040531Y001133D01*
X040666Y000974D02*
X042459Y000974D01*
X042524Y000816D02*
X040728Y000816D01*
X040224Y000816D02*
X040128Y000816D01*
X040128Y000741D02*
X040128Y001256D01*
X040044Y001243D01*
X039960Y001216D01*
X039881Y001175D01*
X039809Y001123D01*
X039746Y001061D01*
X039694Y000989D01*
X039654Y000910D01*
X039626Y000825D01*
X039613Y000741D01*
X040128Y000741D01*
X040128Y000657D02*
X037694Y000657D01*
X037828Y000816D02*
X039625Y000816D01*
X039687Y000974D02*
X037894Y000974D01*
X037916Y001133D02*
X039822Y001133D01*
X040128Y001133D02*
X040224Y001133D01*
X040224Y000974D02*
X040128Y000974D01*
X040225Y000657D02*
X042658Y000657D01*
X043600Y000657D02*
X045414Y000657D01*
X045280Y000816D02*
X043734Y000816D01*
X043799Y000974D02*
X045215Y000974D01*
X045192Y001133D02*
X043822Y001133D01*
X043822Y001291D02*
X045192Y001291D01*
X045253Y001450D02*
X043761Y001450D01*
X043666Y001608D02*
X045348Y001608D01*
X045527Y001767D02*
X043488Y001767D01*
X042771Y001767D02*
X037582Y001767D01*
X036865Y001767D02*
X034826Y001767D01*
X035005Y001608D02*
X036687Y001608D01*
X036592Y001450D02*
X035100Y001450D01*
X035160Y001291D02*
X036531Y001291D01*
X036531Y001133D02*
X035160Y001133D01*
X035138Y000974D02*
X036553Y000974D01*
X036619Y000816D02*
X035072Y000816D01*
X034939Y000657D02*
X036753Y000657D01*
X033997Y000657D02*
X031563Y000657D01*
X031467Y000657D02*
X029033Y000657D01*
X029167Y000816D02*
X030963Y000816D01*
X030965Y000825D02*
X030952Y000741D01*
X031467Y000741D01*
X031467Y001256D01*
X031383Y001243D01*
X031299Y001216D01*
X031219Y001175D01*
X031148Y001123D01*
X031085Y001061D01*
X031033Y000989D01*
X030992Y000910D01*
X030965Y000825D01*
X031025Y000974D02*
X029232Y000974D01*
X029255Y001133D02*
X031161Y001133D01*
X031467Y001133D02*
X031563Y001133D01*
X031563Y000974D02*
X031467Y000974D01*
X031467Y000816D02*
X031563Y000816D01*
X032005Y000974D02*
X033797Y000974D01*
X033775Y001133D02*
X031869Y001133D01*
X032066Y000816D02*
X033863Y000816D01*
X033775Y001291D02*
X029255Y001291D01*
X029194Y001450D02*
X033836Y001450D01*
X033931Y001608D02*
X029099Y001608D01*
X028921Y001767D02*
X034109Y001767D01*
X032565Y002560D02*
X032526Y002560D01*
X031896Y002560D02*
X031134Y002560D01*
X031290Y002718D02*
X031740Y002718D01*
X031674Y002877D02*
X031356Y002877D01*
X031373Y003035D02*
X031657Y003035D01*
X032047Y003561D02*
X032069Y003614D01*
X032069Y003835D01*
X032036Y003916D01*
X032086Y003900D01*
X032169Y003886D01*
X032173Y003886D01*
X032173Y004382D01*
X032249Y004382D01*
X032249Y003886D01*
X032253Y003886D01*
X032336Y003900D01*
X032416Y003926D01*
X032491Y003964D01*
X032559Y004013D01*
X032618Y004073D01*
X032668Y004141D01*
X032706Y004216D01*
X032730Y004289D01*
X032730Y003874D01*
X032404Y003549D01*
X032321Y003583D01*
X032101Y003583D01*
X032047Y003561D01*
X032069Y003669D02*
X032525Y003669D01*
X032684Y003828D02*
X032069Y003828D01*
X032173Y003986D02*
X032249Y003986D01*
X032249Y004145D02*
X032173Y004145D01*
X032173Y004304D02*
X032249Y004304D01*
X032249Y004462D02*
X032173Y004462D01*
X032173Y004621D02*
X032249Y004621D01*
X032249Y004779D02*
X032173Y004779D01*
X032173Y004938D02*
X032249Y004938D01*
X032349Y004938D02*
X032549Y004938D01*
X032608Y004779D02*
X032707Y004779D01*
X032708Y004621D02*
X032730Y004621D01*
X032073Y004938D02*
X031875Y004938D01*
X031826Y005096D02*
X032390Y005096D01*
X032232Y005255D02*
X031675Y005255D01*
X031516Y005413D02*
X032073Y005413D01*
X032774Y005730D02*
X065221Y005730D01*
X065066Y005889D02*
X032662Y005889D01*
X032752Y006048D02*
X035002Y006048D01*
X035002Y006206D02*
X033364Y006206D01*
X033462Y006365D02*
X035002Y006365D01*
X035002Y006523D02*
X033478Y006523D01*
X033427Y006682D02*
X035002Y006682D01*
X035002Y006840D02*
X033236Y006840D01*
X032752Y006999D02*
X035002Y006999D01*
X035002Y007157D02*
X032752Y007157D01*
X030977Y007633D02*
X030420Y007633D01*
X030579Y007791D02*
X031136Y007791D01*
X031254Y007950D02*
X030738Y007950D01*
X033646Y007950D02*
X034108Y007950D01*
X033984Y008109D02*
X033770Y008109D01*
X033836Y008267D02*
X033918Y008267D01*
X033901Y008426D02*
X033853Y008426D01*
X033853Y008584D02*
X033901Y008584D01*
X033965Y008743D02*
X033790Y008743D01*
X033693Y008901D02*
X034062Y008901D01*
X034239Y009060D02*
X033515Y009060D01*
X035034Y009730D02*
X035058Y009689D01*
X035091Y009655D01*
X035132Y009631D01*
X035178Y009619D01*
X035407Y009619D01*
X035407Y010254D01*
X035022Y010254D01*
X035022Y009775D01*
X035034Y009730D01*
X035055Y009694D02*
X032730Y009694D01*
X032752Y009853D02*
X035022Y009853D01*
X035022Y010011D02*
X032752Y010011D01*
X033391Y010170D02*
X035022Y010170D01*
X035022Y010487D02*
X033478Y010487D01*
X033473Y010328D02*
X035407Y010328D01*
X035497Y010328D02*
X036183Y010328D01*
X036183Y010170D02*
X035882Y010170D01*
X035882Y010011D02*
X036183Y010011D01*
X036183Y009853D02*
X035882Y009853D01*
X035849Y009694D02*
X036205Y009694D01*
X036273Y009535D02*
X031481Y009535D01*
X031483Y009377D02*
X036271Y009377D01*
X036995Y009377D02*
X041783Y009377D01*
X041785Y009535D02*
X036993Y009535D01*
X037061Y009694D02*
X037386Y009694D01*
X037364Y009853D02*
X037083Y009853D01*
X037083Y010011D02*
X037364Y010011D01*
X037364Y010170D02*
X037083Y010170D01*
X037083Y010328D02*
X037364Y010328D01*
X037364Y010487D02*
X037083Y010487D01*
X037083Y010645D02*
X037364Y010645D01*
X037364Y010804D02*
X037083Y010804D01*
X036183Y010804D02*
X035882Y010804D01*
X035882Y010645D02*
X036183Y010645D01*
X036183Y010487D02*
X035882Y010487D01*
X035497Y010170D02*
X035407Y010170D01*
X035407Y010011D02*
X035497Y010011D01*
X035497Y009853D02*
X035407Y009853D01*
X035407Y009694D02*
X035497Y009694D01*
X035022Y010645D02*
X033411Y010645D01*
X033172Y010804D02*
X035022Y010804D01*
X033008Y010804D02*
X032752Y010804D01*
X031852Y010804D02*
X031571Y010804D01*
X031571Y010645D02*
X031852Y010645D01*
X031852Y010487D02*
X031571Y010487D01*
X031571Y010328D02*
X031852Y010328D01*
X031852Y010170D02*
X031571Y010170D01*
X031571Y010011D02*
X031852Y010011D01*
X031852Y009853D02*
X031571Y009853D01*
X031549Y009694D02*
X031875Y009694D01*
X030761Y009535D02*
X027972Y009535D01*
X027972Y009377D02*
X030759Y009377D01*
X030694Y009694D02*
X030337Y009694D01*
X030370Y009853D02*
X030671Y009853D01*
X030671Y010011D02*
X030370Y010011D01*
X030370Y010170D02*
X030671Y010170D01*
X030671Y010328D02*
X029985Y010328D01*
X029895Y010328D02*
X027972Y010328D01*
X027972Y010170D02*
X029510Y010170D01*
X029510Y010011D02*
X027972Y010011D01*
X027972Y009853D02*
X029510Y009853D01*
X029543Y009694D02*
X027972Y009694D01*
X027972Y010487D02*
X029510Y010487D01*
X029510Y010645D02*
X027972Y010645D01*
X028224Y010804D02*
X029510Y010804D01*
X030370Y010804D02*
X030671Y010804D01*
X030671Y010645D02*
X030370Y010645D01*
X030370Y010487D02*
X030671Y010487D01*
X029985Y010170D02*
X029895Y010170D01*
X029895Y010011D02*
X029985Y010011D01*
X029985Y009853D02*
X029895Y009853D01*
X029895Y009694D02*
X029985Y009694D01*
X038242Y009694D02*
X040567Y009694D01*
X040570Y009689D02*
X040546Y009730D01*
X040534Y009775D01*
X040534Y010254D01*
X040919Y010254D01*
X040919Y009619D01*
X040690Y009619D01*
X040644Y009631D01*
X040603Y009655D01*
X040570Y009689D01*
X040534Y009853D02*
X038264Y009853D01*
X038264Y010011D02*
X040534Y010011D01*
X040534Y010170D02*
X038902Y010170D01*
X038985Y010328D02*
X040919Y010328D01*
X041009Y010328D02*
X041695Y010328D01*
X041695Y010170D02*
X041394Y010170D01*
X041394Y010254D02*
X041009Y010254D01*
X041009Y009619D01*
X041237Y009619D01*
X041283Y009631D01*
X041324Y009655D01*
X041358Y009689D01*
X041381Y009730D01*
X041394Y009775D01*
X041394Y010254D01*
X041394Y010487D02*
X041695Y010487D01*
X041695Y010645D02*
X041394Y010645D01*
X041394Y010804D02*
X041695Y010804D01*
X042595Y010804D02*
X042876Y010804D01*
X042876Y010645D02*
X042595Y010645D01*
X042595Y010487D02*
X042876Y010487D01*
X042876Y010328D02*
X042595Y010328D01*
X042595Y010170D02*
X042876Y010170D01*
X042876Y010011D02*
X042595Y010011D01*
X042595Y009853D02*
X042876Y009853D01*
X042898Y009694D02*
X042573Y009694D01*
X041717Y009694D02*
X041361Y009694D01*
X041394Y009853D02*
X041695Y009853D01*
X041695Y010011D02*
X041394Y010011D01*
X041009Y010011D02*
X040919Y010011D01*
X040919Y009853D02*
X041009Y009853D01*
X041009Y009694D02*
X040919Y009694D01*
X040919Y010170D02*
X041009Y010170D01*
X040534Y010487D02*
X038990Y010487D01*
X038923Y010645D02*
X040534Y010645D01*
X040534Y010804D02*
X038683Y010804D01*
X038520Y010804D02*
X038264Y010804D01*
X039027Y009060D02*
X039751Y009060D01*
X039573Y008901D02*
X039205Y008901D01*
X039301Y008743D02*
X039477Y008743D01*
X039413Y008584D02*
X039365Y008584D01*
X039365Y008426D02*
X039413Y008426D01*
X039430Y008267D02*
X039348Y008267D01*
X039282Y008109D02*
X039496Y008109D01*
X039620Y007950D02*
X039158Y007950D01*
X038264Y007157D02*
X040514Y007157D01*
X040514Y006999D02*
X038264Y006999D01*
X038748Y006840D02*
X040514Y006840D01*
X040514Y006682D02*
X038938Y006682D01*
X038990Y006523D02*
X040514Y006523D01*
X040514Y006365D02*
X038974Y006365D01*
X038876Y006206D02*
X040514Y006206D01*
X040514Y006048D02*
X038264Y006048D01*
X039681Y004938D02*
X040734Y004938D01*
X040834Y004938D02*
X040910Y004938D01*
X041010Y004938D02*
X047942Y004938D01*
X048032Y004975D02*
X047828Y004891D01*
X047672Y004735D01*
X047716Y004779D02*
X041269Y004779D01*
X041369Y004621D02*
X047625Y004621D01*
X047587Y004462D02*
X046146Y004462D01*
X046040Y004506D02*
X045730Y004506D01*
X045443Y004387D01*
X045223Y004167D01*
X045104Y003880D01*
X045104Y003569D01*
X045223Y003282D01*
X045443Y003062D01*
X045730Y002944D01*
X046040Y002944D01*
X046328Y003062D01*
X046547Y003282D01*
X046666Y003569D01*
X046666Y003880D01*
X046547Y004167D01*
X046328Y004387D01*
X046040Y004506D01*
X045624Y004462D02*
X043390Y004462D01*
X043285Y004506D02*
X042974Y004506D01*
X042687Y004387D01*
X042467Y004167D01*
X042348Y003880D01*
X042348Y003569D01*
X042467Y003282D01*
X042687Y003062D01*
X042974Y002944D01*
X043285Y002944D01*
X043572Y003062D01*
X043791Y003282D01*
X043910Y003569D01*
X043910Y003880D01*
X043791Y004167D01*
X043572Y004387D01*
X043285Y004506D01*
X042868Y004462D02*
X041407Y004462D01*
X041395Y004304D02*
X042603Y004304D01*
X042458Y004145D02*
X041332Y004145D01*
X041184Y003986D02*
X042392Y003986D01*
X042348Y003828D02*
X040731Y003828D01*
X040731Y003669D02*
X042348Y003669D01*
X042372Y003511D02*
X041157Y003511D01*
X041426Y003352D02*
X042438Y003352D01*
X042555Y003194D02*
X041610Y003194D01*
X041571Y003233D02*
X041571Y003233D01*
X041769Y003035D02*
X042752Y003035D01*
X043506Y003035D02*
X045508Y003035D01*
X045311Y003194D02*
X043703Y003194D01*
X043820Y003352D02*
X045194Y003352D01*
X045128Y003511D02*
X043886Y003511D01*
X043910Y003669D02*
X045104Y003669D01*
X045104Y003828D02*
X043910Y003828D01*
X043866Y003986D02*
X045148Y003986D01*
X045214Y004145D02*
X043801Y004145D01*
X043655Y004304D02*
X045359Y004304D01*
X046411Y004304D02*
X047590Y004304D01*
X047656Y004145D02*
X046556Y004145D01*
X046622Y003986D02*
X047792Y003986D01*
X048283Y003828D02*
X046666Y003828D01*
X046666Y003669D02*
X048283Y003669D01*
X047857Y003511D02*
X046642Y003511D01*
X046576Y003352D02*
X047681Y003352D01*
X047610Y003194D02*
X046459Y003194D01*
X046262Y003035D02*
X047587Y003035D01*
X047605Y002877D02*
X047006Y002877D01*
X047204Y002718D02*
X047670Y002718D01*
X047827Y002560D02*
X047362Y002560D01*
X046820Y002084D02*
X040437Y002084D01*
X040595Y002242D02*
X041543Y002242D01*
X041385Y002401D02*
X040754Y002401D01*
X041187Y002560D02*
X041226Y002560D01*
X040278Y001925D02*
X046978Y001925D01*
X046422Y001608D02*
X051254Y001608D01*
X051159Y001450D02*
X046517Y001450D01*
X046578Y001291D02*
X051098Y001291D01*
X051098Y001133D02*
X049192Y001133D01*
X049327Y000974D02*
X051120Y000974D01*
X051186Y000816D02*
X049389Y000816D01*
X048886Y000816D02*
X048790Y000816D01*
X048790Y000741D02*
X048790Y001256D01*
X048706Y001243D01*
X048621Y001216D01*
X048542Y001175D01*
X048470Y001123D01*
X048408Y001061D01*
X048356Y000989D01*
X048315Y000910D01*
X048288Y000825D01*
X048274Y000741D01*
X048790Y000741D01*
X048790Y000657D02*
X046356Y000657D01*
X046490Y000816D02*
X048286Y000816D01*
X048348Y000974D02*
X046555Y000974D01*
X046578Y001133D02*
X048483Y001133D01*
X048790Y001133D02*
X048886Y001133D01*
X048886Y000974D02*
X048790Y000974D01*
X048886Y000657D02*
X051320Y000657D01*
X052261Y000657D02*
X054076Y000657D01*
X053942Y000816D02*
X052395Y000816D01*
X052461Y000974D02*
X053876Y000974D01*
X053854Y001133D02*
X052483Y001133D01*
X052483Y001291D02*
X053854Y001291D01*
X053914Y001450D02*
X052423Y001450D01*
X052327Y001608D02*
X054010Y001608D01*
X054188Y001767D02*
X052149Y001767D01*
X051432Y001767D02*
X046243Y001767D01*
X049122Y001925D02*
X055640Y001925D01*
X055481Y002084D02*
X049281Y002084D01*
X049439Y002242D02*
X050205Y002242D01*
X050046Y002401D02*
X049598Y002401D01*
X049849Y002560D02*
X049888Y002560D01*
X050430Y003035D02*
X051414Y003035D01*
X051348Y003062D02*
X051635Y002944D01*
X051946Y002944D01*
X052233Y003062D01*
X052453Y003282D01*
X052572Y003569D01*
X052572Y003880D01*
X052453Y004167D01*
X052233Y004387D01*
X051946Y004506D01*
X051635Y004506D01*
X051348Y004387D01*
X051128Y004167D01*
X051009Y003880D01*
X051009Y003569D01*
X051128Y003282D01*
X051348Y003062D01*
X051217Y003194D02*
X050272Y003194D01*
X050131Y003334D02*
X050562Y002904D01*
X055602Y002904D01*
X055735Y002849D01*
X055836Y002748D01*
X056074Y002510D01*
X056607Y002510D01*
X056489Y002559D01*
X056333Y002715D01*
X056249Y002918D01*
X056249Y003139D01*
X056333Y003343D01*
X056489Y003499D01*
X056693Y003583D01*
X056913Y003583D01*
X056967Y003561D01*
X056945Y003614D01*
X056945Y003835D01*
X056967Y003889D01*
X056913Y003866D01*
X056693Y003866D01*
X056489Y003951D01*
X056333Y004107D01*
X056249Y004310D01*
X056249Y004531D01*
X056333Y004735D01*
X056489Y004891D01*
X056693Y004975D01*
X056913Y004975D01*
X057117Y004891D01*
X057273Y004735D01*
X057358Y004531D01*
X057358Y004310D01*
X057335Y004257D01*
X057389Y004279D01*
X057609Y004279D01*
X057690Y004246D01*
X057674Y004296D01*
X057661Y004379D01*
X057661Y004383D01*
X058157Y004383D01*
X058157Y004459D01*
X058157Y004955D01*
X058153Y004955D01*
X058070Y004942D01*
X057990Y004916D01*
X057915Y004878D01*
X057847Y004828D01*
X057788Y004769D01*
X057738Y004701D01*
X057700Y004626D01*
X057674Y004546D01*
X057661Y004463D01*
X057661Y004459D01*
X058157Y004459D01*
X058233Y004459D01*
X058233Y004955D01*
X058237Y004955D01*
X058320Y004942D01*
X058400Y004916D01*
X058475Y004878D01*
X058543Y004828D01*
X058603Y004769D01*
X058652Y004701D01*
X058690Y004626D01*
X058716Y004546D01*
X058729Y004463D01*
X058729Y004459D01*
X058234Y004459D01*
X058234Y004383D01*
X058729Y004383D01*
X058729Y004379D01*
X058716Y004296D01*
X058690Y004216D01*
X058652Y004141D01*
X058603Y004073D01*
X058543Y004013D01*
X058475Y003964D01*
X058400Y003926D01*
X058320Y003900D01*
X058237Y003886D01*
X058233Y003886D01*
X058233Y004382D01*
X058157Y004382D01*
X058157Y003886D01*
X058153Y003886D01*
X058070Y003900D01*
X058020Y003916D01*
X058054Y003835D01*
X058054Y003614D01*
X058031Y003561D01*
X058085Y003583D01*
X058305Y003583D01*
X058509Y003499D01*
X058665Y003343D01*
X058749Y003139D01*
X058749Y002984D01*
X058829Y002904D01*
X064120Y002904D01*
X064264Y002904D01*
X064396Y002849D01*
X064735Y002510D01*
X065269Y002510D01*
X065151Y002559D01*
X064995Y002715D01*
X064910Y002918D01*
X064910Y003139D01*
X064995Y003343D01*
X065151Y003499D01*
X065354Y003583D01*
X065575Y003583D01*
X065629Y003561D01*
X065606Y003614D01*
X065606Y003835D01*
X065629Y003889D01*
X065575Y003866D01*
X065354Y003866D01*
X065151Y003951D01*
X064995Y004107D01*
X064910Y004310D01*
X064910Y004531D01*
X064995Y004735D01*
X065151Y004891D01*
X065354Y004975D01*
X065575Y004975D01*
X065779Y004891D01*
X065935Y004735D01*
X066019Y004531D01*
X066019Y004310D01*
X065997Y004257D01*
X066050Y004279D01*
X066271Y004279D01*
X066352Y004246D01*
X066335Y004296D01*
X066322Y004379D01*
X066322Y004383D01*
X066818Y004383D01*
X066818Y004459D01*
X066322Y004459D01*
X066322Y004463D01*
X066335Y004546D01*
X066361Y004626D01*
X066400Y004701D01*
X066449Y004769D01*
X066509Y004828D01*
X066577Y004878D01*
X066651Y004916D01*
X066724Y004940D01*
X066089Y004940D01*
X065957Y004994D01*
X065855Y005096D01*
X065696Y005255D02*
X033250Y005255D01*
X033091Y005413D02*
X065538Y005413D01*
X065379Y005572D02*
X032933Y005572D01*
X032730Y004145D02*
X032670Y004145D01*
X032730Y003986D02*
X032522Y003986D01*
X028204Y001767D02*
X027972Y001767D01*
X027972Y001608D02*
X028025Y001608D01*
X039906Y004779D02*
X040475Y004779D01*
X040376Y004621D02*
X039998Y004621D01*
X040035Y004462D02*
X040338Y004462D01*
X040350Y004304D02*
X040032Y004304D01*
X040834Y004304D02*
X040910Y004304D01*
X040910Y004462D02*
X040834Y004462D01*
X040834Y004621D02*
X040910Y004621D01*
X040910Y004779D02*
X040834Y004779D01*
X040834Y004145D02*
X040910Y004145D01*
X040910Y003986D02*
X040834Y003986D01*
X048032Y004975D02*
X048252Y004975D01*
X048456Y004891D01*
X048612Y004735D01*
X048696Y004531D01*
X048696Y004310D01*
X048674Y004257D01*
X048728Y004279D01*
X048948Y004279D01*
X049029Y004246D01*
X049013Y004296D01*
X048999Y004379D01*
X048999Y004383D01*
X049495Y004383D01*
X049495Y004459D01*
X048999Y004459D01*
X048999Y004463D01*
X049013Y004546D01*
X049039Y004626D01*
X049077Y004701D01*
X049126Y004769D01*
X049186Y004828D01*
X049254Y004878D01*
X049329Y004916D01*
X049409Y004942D01*
X049492Y004955D01*
X049496Y004955D01*
X049496Y004459D01*
X049572Y004459D01*
X049572Y004955D01*
X049576Y004955D01*
X049659Y004942D01*
X049739Y004916D01*
X049814Y004878D01*
X049882Y004828D01*
X049941Y004769D01*
X049991Y004701D01*
X050029Y004626D01*
X050055Y004546D01*
X050068Y004463D01*
X050068Y004459D01*
X049572Y004459D01*
X049572Y004383D01*
X050068Y004383D01*
X050068Y004379D01*
X050055Y004296D01*
X050029Y004216D01*
X049991Y004141D01*
X049941Y004073D01*
X049882Y004013D01*
X049814Y003964D01*
X049739Y003926D01*
X049659Y003900D01*
X049576Y003886D01*
X049572Y003886D01*
X049572Y004382D01*
X049496Y004382D01*
X049496Y003886D01*
X049492Y003886D01*
X049409Y003900D01*
X049359Y003916D01*
X049392Y003835D01*
X049392Y003614D01*
X049370Y003561D01*
X049424Y003583D01*
X049644Y003583D01*
X049848Y003499D01*
X049958Y003389D01*
X049999Y003389D01*
X050131Y003334D01*
X050087Y003352D02*
X051099Y003352D01*
X051034Y003511D02*
X049818Y003511D01*
X049392Y003669D02*
X051009Y003669D01*
X051009Y003828D02*
X049392Y003828D01*
X049496Y003986D02*
X049572Y003986D01*
X049572Y004145D02*
X049496Y004145D01*
X049496Y004304D02*
X049572Y004304D01*
X049572Y004462D02*
X049496Y004462D01*
X049496Y004621D02*
X049572Y004621D01*
X049572Y004779D02*
X049496Y004779D01*
X049496Y004938D02*
X049572Y004938D01*
X049672Y004938D02*
X056603Y004938D01*
X056378Y004779D02*
X049931Y004779D01*
X050031Y004621D02*
X056286Y004621D01*
X056249Y004462D02*
X054808Y004462D01*
X054702Y004506D02*
X054989Y004387D01*
X055209Y004167D01*
X055328Y003880D01*
X055328Y003569D01*
X055209Y003282D01*
X054989Y003062D01*
X054702Y002944D01*
X054391Y002944D01*
X054104Y003062D01*
X053884Y003282D01*
X053765Y003569D01*
X053765Y003880D01*
X053884Y004167D01*
X054104Y004387D01*
X054391Y004506D01*
X054702Y004506D01*
X054285Y004462D02*
X052052Y004462D01*
X052316Y004304D02*
X054021Y004304D01*
X053875Y004145D02*
X052462Y004145D01*
X052528Y003986D02*
X053809Y003986D01*
X053765Y003828D02*
X052572Y003828D01*
X052572Y003669D02*
X053765Y003669D01*
X053789Y003511D02*
X052547Y003511D01*
X052482Y003352D02*
X053855Y003352D01*
X053973Y003194D02*
X052364Y003194D01*
X052167Y003035D02*
X054170Y003035D01*
X054923Y003035D02*
X056249Y003035D01*
X056266Y002877D02*
X055667Y002877D01*
X055865Y002718D02*
X056332Y002718D01*
X056488Y002560D02*
X056024Y002560D01*
X056272Y003194D02*
X055120Y003194D01*
X055238Y003352D02*
X056343Y003352D01*
X056519Y003511D02*
X055303Y003511D01*
X055328Y003669D02*
X056945Y003669D01*
X056945Y003828D02*
X055328Y003828D01*
X055284Y003986D02*
X056454Y003986D01*
X056317Y004145D02*
X055218Y004145D01*
X055072Y004304D02*
X056252Y004304D01*
X057004Y004938D02*
X058057Y004938D01*
X058157Y004938D02*
X058233Y004938D01*
X058333Y004938D02*
X065264Y004938D01*
X065039Y004779D02*
X058592Y004779D01*
X058692Y004621D02*
X064947Y004621D01*
X064910Y004462D02*
X063469Y004462D01*
X063363Y004506D02*
X063650Y004387D01*
X063870Y004167D01*
X063989Y003880D01*
X063989Y003569D01*
X063870Y003282D01*
X063650Y003062D01*
X063363Y002944D01*
X063052Y002944D01*
X062765Y003062D01*
X062546Y003282D01*
X062427Y003569D01*
X062427Y003880D01*
X062546Y004167D01*
X062765Y004387D01*
X063052Y004506D01*
X063363Y004506D01*
X062947Y004462D02*
X060713Y004462D01*
X060607Y004506D02*
X060297Y004506D01*
X060009Y004387D01*
X059790Y004167D01*
X059671Y003880D01*
X059671Y003569D01*
X059790Y003282D01*
X060009Y003062D01*
X060297Y002944D01*
X060607Y002944D01*
X060894Y003062D01*
X061114Y003282D01*
X061233Y003569D01*
X061233Y003880D01*
X061114Y004167D01*
X060894Y004387D01*
X060607Y004506D01*
X060191Y004462D02*
X058729Y004462D01*
X058718Y004304D02*
X059926Y004304D01*
X059781Y004145D02*
X058654Y004145D01*
X058507Y003986D02*
X059715Y003986D01*
X059671Y003828D02*
X058054Y003828D01*
X058054Y003669D02*
X059671Y003669D01*
X059695Y003511D02*
X058480Y003511D01*
X058656Y003352D02*
X059761Y003352D01*
X059878Y003194D02*
X058727Y003194D01*
X058749Y003035D02*
X060075Y003035D01*
X060829Y003035D02*
X062831Y003035D01*
X062634Y003194D02*
X061026Y003194D01*
X061143Y003352D02*
X062517Y003352D01*
X062451Y003511D02*
X061209Y003511D01*
X061233Y003669D02*
X062427Y003669D01*
X062427Y003828D02*
X061233Y003828D01*
X061189Y003986D02*
X062471Y003986D01*
X062536Y004145D02*
X061123Y004145D01*
X060978Y004304D02*
X062682Y004304D01*
X063734Y004304D02*
X064913Y004304D01*
X064979Y004145D02*
X063879Y004145D01*
X063945Y003986D02*
X065115Y003986D01*
X065606Y003828D02*
X063989Y003828D01*
X063989Y003669D02*
X065606Y003669D01*
X065180Y003511D02*
X063965Y003511D01*
X063899Y003352D02*
X065004Y003352D01*
X064933Y003194D02*
X063782Y003194D01*
X063584Y003035D02*
X064910Y003035D01*
X064928Y002877D02*
X064329Y002877D01*
X064527Y002718D02*
X064993Y002718D01*
X065150Y002560D02*
X064685Y002560D01*
X064143Y002084D02*
X057759Y002084D01*
X057601Y001925D02*
X064301Y001925D01*
X063745Y001608D02*
X068577Y001608D01*
X068481Y001450D02*
X063840Y001450D01*
X063900Y001291D02*
X068421Y001291D01*
X068421Y001133D02*
X066515Y001133D01*
X066650Y000974D02*
X068443Y000974D01*
X068509Y000816D02*
X066712Y000816D01*
X066209Y000816D02*
X066113Y000816D01*
X066113Y000974D02*
X066209Y000974D01*
X066209Y001133D02*
X066113Y001133D01*
X065806Y001133D02*
X063900Y001133D01*
X063878Y000974D02*
X065671Y000974D01*
X065609Y000816D02*
X063812Y000816D01*
X063679Y000657D02*
X066112Y000657D01*
X066209Y000657D02*
X068642Y000657D01*
X069584Y000657D02*
X071398Y000657D01*
X071265Y000816D02*
X069718Y000816D01*
X069784Y000974D02*
X071199Y000974D01*
X071177Y001133D02*
X069806Y001133D01*
X069806Y001291D02*
X071177Y001291D01*
X071237Y001450D02*
X069745Y001450D01*
X069650Y001608D02*
X071332Y001608D01*
X071511Y001767D02*
X069472Y001767D01*
X068755Y001767D02*
X063566Y001767D01*
X062849Y001767D02*
X060810Y001767D01*
X060989Y001608D02*
X062671Y001608D01*
X062576Y001450D02*
X061084Y001450D01*
X061145Y001291D02*
X062515Y001291D01*
X062515Y001133D02*
X061145Y001133D01*
X061122Y000974D02*
X062538Y000974D01*
X062603Y000816D02*
X061057Y000816D01*
X060923Y000657D02*
X062737Y000657D01*
X059981Y000657D02*
X057547Y000657D01*
X057547Y000741D02*
X058062Y000741D01*
X058049Y000825D01*
X058022Y000910D01*
X057981Y000989D01*
X057929Y001061D01*
X057867Y001123D01*
X057795Y001175D01*
X057716Y001216D01*
X057631Y001243D01*
X057547Y001256D01*
X057547Y000741D01*
X057547Y000816D02*
X057451Y000816D01*
X057451Y000741D02*
X057451Y001256D01*
X057367Y001243D01*
X057283Y001216D01*
X057204Y001175D01*
X057132Y001123D01*
X057069Y001061D01*
X057017Y000989D01*
X056977Y000910D01*
X056949Y000825D01*
X056936Y000741D01*
X057451Y000741D01*
X057451Y000657D02*
X055017Y000657D01*
X055151Y000816D02*
X056948Y000816D01*
X057010Y000974D02*
X055217Y000974D01*
X055239Y001133D02*
X057145Y001133D01*
X057451Y001133D02*
X057547Y001133D01*
X057547Y000974D02*
X057451Y000974D01*
X057854Y001133D02*
X059759Y001133D01*
X059759Y001291D02*
X055239Y001291D01*
X055178Y001450D02*
X059820Y001450D01*
X059915Y001608D02*
X055083Y001608D01*
X054905Y001767D02*
X060094Y001767D01*
X058472Y002242D02*
X057918Y002242D01*
X058077Y002401D02*
X058314Y002401D01*
X057989Y000974D02*
X059782Y000974D01*
X059847Y000816D02*
X058051Y000816D01*
X066445Y001925D02*
X078365Y001925D01*
X078365Y001767D02*
X078133Y001767D01*
X078312Y001608D02*
X078365Y001608D01*
X077416Y001767D02*
X072228Y001767D01*
X072406Y001608D02*
X077238Y001608D01*
X077143Y001450D02*
X072501Y001450D01*
X072562Y001291D02*
X077082Y001291D01*
X077082Y001133D02*
X075176Y001133D01*
X075312Y000974D02*
X077104Y000974D01*
X077170Y000816D02*
X075374Y000816D01*
X074870Y000816D02*
X074774Y000816D01*
X074774Y000741D02*
X074774Y001256D01*
X074690Y001243D01*
X074606Y001216D01*
X074526Y001175D01*
X074455Y001123D01*
X074392Y001061D01*
X074340Y000989D01*
X074299Y000910D01*
X074272Y000825D01*
X074259Y000741D01*
X074774Y000741D01*
X074774Y000657D02*
X072340Y000657D01*
X072474Y000816D02*
X074271Y000816D01*
X074332Y000974D02*
X072540Y000974D01*
X072562Y001133D02*
X074468Y001133D01*
X074774Y001133D02*
X074870Y001133D01*
X074870Y000974D02*
X074774Y000974D01*
X074870Y000657D02*
X077304Y000657D01*
X078365Y002084D02*
X066604Y002084D01*
X066762Y002242D02*
X078365Y002242D01*
X078365Y002401D02*
X066921Y002401D01*
X067171Y002560D02*
X073811Y002560D01*
X073655Y002718D02*
X067328Y002718D01*
X067394Y002877D02*
X073589Y002877D01*
X073572Y003035D02*
X072246Y003035D01*
X072312Y003062D02*
X072531Y003282D01*
X072650Y003569D01*
X072650Y003880D01*
X072531Y004167D01*
X072312Y004387D01*
X072025Y004506D01*
X071714Y004506D01*
X071427Y004387D01*
X071207Y004167D01*
X071088Y003880D01*
X071088Y003569D01*
X071207Y003282D01*
X071427Y003062D01*
X071714Y002944D01*
X072025Y002944D01*
X072312Y003062D01*
X072443Y003194D02*
X073594Y003194D01*
X073666Y003352D02*
X072561Y003352D01*
X072626Y003511D02*
X073841Y003511D01*
X074268Y003669D02*
X072650Y003669D01*
X072650Y003828D02*
X074268Y003828D01*
X073776Y003986D02*
X072606Y003986D01*
X072541Y004145D02*
X073640Y004145D01*
X073575Y004304D02*
X072395Y004304D01*
X072130Y004462D02*
X073572Y004462D01*
X073609Y004621D02*
X067353Y004621D01*
X067391Y004462D02*
X068852Y004462D01*
X068958Y004506D02*
X068671Y004387D01*
X068451Y004167D01*
X068332Y003880D01*
X068332Y003569D01*
X068451Y003282D01*
X068671Y003062D01*
X068958Y002944D01*
X069269Y002944D01*
X069556Y003062D01*
X069776Y003282D01*
X069895Y003569D01*
X069895Y003880D01*
X069776Y004167D01*
X069556Y004387D01*
X069269Y004506D01*
X068958Y004506D01*
X069374Y004462D02*
X071608Y004462D01*
X071343Y004304D02*
X069639Y004304D01*
X069785Y004145D02*
X071198Y004145D01*
X071132Y003986D02*
X069851Y003986D01*
X069895Y003828D02*
X071088Y003828D01*
X071088Y003669D02*
X069895Y003669D01*
X069870Y003511D02*
X071112Y003511D01*
X071178Y003352D02*
X069805Y003352D01*
X069687Y003194D02*
X071296Y003194D01*
X071493Y003035D02*
X069490Y003035D01*
X068737Y003035D02*
X067411Y003035D01*
X067388Y003194D02*
X068540Y003194D01*
X068422Y003352D02*
X067317Y003352D01*
X067141Y003511D02*
X068356Y003511D01*
X068332Y003669D02*
X066715Y003669D01*
X066715Y003828D02*
X068332Y003828D01*
X068376Y003986D02*
X067168Y003986D01*
X067316Y004145D02*
X068442Y004145D01*
X068587Y004304D02*
X067379Y004304D01*
X066895Y004304D02*
X066818Y004304D01*
X066818Y004145D02*
X066895Y004145D01*
X066895Y003986D02*
X066818Y003986D01*
X066334Y004304D02*
X066016Y004304D01*
X066019Y004462D02*
X066322Y004462D01*
X066360Y004621D02*
X065982Y004621D01*
X065890Y004779D02*
X066459Y004779D01*
X066719Y004938D02*
X065665Y004938D01*
X066994Y004938D02*
X073926Y004938D01*
X073701Y004779D02*
X067254Y004779D01*
X068073Y006048D02*
X065922Y006048D01*
X065823Y006206D02*
X068073Y006206D01*
X068073Y006365D02*
X065823Y006365D01*
X065823Y006523D02*
X068073Y006523D01*
X068073Y006682D02*
X065823Y006682D01*
X065823Y006840D02*
X068073Y006840D01*
X068073Y006999D02*
X065823Y006999D01*
X065823Y007157D02*
X068073Y007157D01*
X067179Y007950D02*
X066717Y007950D01*
X066841Y008109D02*
X067055Y008109D01*
X066989Y008267D02*
X066907Y008267D01*
X066924Y008426D02*
X066972Y008426D01*
X066972Y008584D02*
X066924Y008584D01*
X066860Y008743D02*
X067036Y008743D01*
X067132Y008901D02*
X066764Y008901D01*
X066586Y009060D02*
X067310Y009060D01*
X062561Y007157D02*
X060311Y007157D01*
X060311Y006999D02*
X062561Y006999D01*
X062561Y006840D02*
X060795Y006840D01*
X060986Y006682D02*
X062561Y006682D01*
X062561Y006523D02*
X061037Y006523D01*
X061021Y006365D02*
X062561Y006365D01*
X062561Y006206D02*
X060923Y006206D01*
X060311Y006048D02*
X062561Y006048D01*
X058233Y004779D02*
X058157Y004779D01*
X058157Y004621D02*
X058233Y004621D01*
X058233Y004462D02*
X058157Y004462D01*
X058157Y004304D02*
X058233Y004304D01*
X058233Y004145D02*
X058157Y004145D01*
X058157Y003986D02*
X058233Y003986D01*
X057673Y004304D02*
X057355Y004304D01*
X057358Y004462D02*
X057661Y004462D01*
X057698Y004621D02*
X057320Y004621D01*
X057229Y004779D02*
X057798Y004779D01*
X057049Y006048D02*
X054800Y006048D01*
X055411Y006206D02*
X057049Y006206D01*
X057049Y006365D02*
X055509Y006365D01*
X055525Y006523D02*
X057049Y006523D01*
X057049Y006682D02*
X055474Y006682D01*
X055283Y006840D02*
X057049Y006840D01*
X057049Y006999D02*
X054800Y006999D01*
X054800Y007157D02*
X057049Y007157D01*
X056156Y007950D02*
X055693Y007950D01*
X055817Y008109D02*
X056031Y008109D01*
X055966Y008267D02*
X055883Y008267D01*
X055900Y008426D02*
X055948Y008426D01*
X055948Y008584D02*
X055900Y008584D01*
X055837Y008743D02*
X056012Y008743D01*
X056109Y008901D02*
X055740Y008901D01*
X055562Y009060D02*
X056287Y009060D01*
X061074Y009060D02*
X061798Y009060D01*
X061621Y008901D02*
X061252Y008901D01*
X061349Y008743D02*
X061524Y008743D01*
X061460Y008584D02*
X061412Y008584D01*
X061412Y008426D02*
X061460Y008426D01*
X061477Y008267D02*
X061395Y008267D01*
X061329Y008109D02*
X061543Y008109D01*
X061667Y007950D02*
X061205Y007950D01*
X070403Y005096D02*
X076037Y005096D01*
X076037Y004938D02*
X075656Y004938D01*
X075556Y004938D02*
X075480Y004938D01*
X075380Y004938D02*
X074326Y004938D01*
X074551Y004779D02*
X075121Y004779D01*
X075021Y004621D02*
X074643Y004621D01*
X074680Y004462D02*
X074984Y004462D01*
X074996Y004304D02*
X074677Y004304D01*
X075343Y003916D02*
X075393Y003900D01*
X075476Y003886D01*
X075480Y003886D01*
X075480Y004382D01*
X075556Y004382D01*
X075556Y003886D01*
X075560Y003886D01*
X075643Y003900D01*
X075723Y003926D01*
X075798Y003964D01*
X075866Y004013D01*
X075926Y004073D01*
X075975Y004141D01*
X076013Y004216D01*
X076037Y004289D01*
X076037Y004057D01*
X075563Y003583D01*
X075408Y003583D01*
X075354Y003561D01*
X075376Y003614D01*
X075376Y003835D01*
X075343Y003916D01*
X075376Y003828D02*
X075808Y003828D01*
X075829Y003986D02*
X075967Y003986D01*
X075977Y004145D02*
X076037Y004145D01*
X075556Y004145D02*
X075480Y004145D01*
X075480Y003986D02*
X075556Y003986D01*
X075556Y004304D02*
X075480Y004304D01*
X075480Y004462D02*
X075556Y004462D01*
X075556Y004621D02*
X075480Y004621D01*
X075480Y004779D02*
X075556Y004779D01*
X075915Y004779D02*
X076037Y004779D01*
X076037Y004621D02*
X076015Y004621D01*
X076757Y004621D02*
X078365Y004621D01*
X078365Y004779D02*
X076757Y004779D01*
X076757Y004938D02*
X078365Y004938D01*
X078365Y005096D02*
X076757Y005096D01*
X076757Y005255D02*
X078365Y005255D01*
X078365Y005413D02*
X076757Y005413D01*
X076757Y005572D02*
X078365Y005572D01*
X078365Y005730D02*
X076757Y005730D01*
X076037Y005255D02*
X070562Y005255D01*
X070721Y005413D02*
X071049Y005413D01*
X070891Y005572D02*
X070879Y005572D01*
X075376Y003669D02*
X075650Y003669D01*
X076351Y003352D02*
X077084Y003352D01*
X077018Y003511D02*
X076509Y003511D01*
X076668Y003669D02*
X076994Y003669D01*
X076994Y003828D02*
X076753Y003828D01*
X076757Y003986D02*
X077038Y003986D01*
X077103Y004145D02*
X076757Y004145D01*
X076757Y004304D02*
X077249Y004304D01*
X077514Y004462D02*
X076757Y004462D01*
X078036Y004462D02*
X078365Y004462D01*
X078365Y004304D02*
X078301Y004304D01*
X078349Y003194D02*
X078365Y003194D01*
X078365Y003035D02*
X078151Y003035D01*
X078365Y002877D02*
X076055Y002877D01*
X076072Y003035D02*
X077398Y003035D01*
X077201Y003194D02*
X076192Y003194D01*
X075989Y002718D02*
X078365Y002718D01*
X078365Y002560D02*
X075833Y002560D01*
X075203Y002560D02*
X074441Y002560D01*
X074597Y002718D02*
X075047Y002718D01*
X074981Y002877D02*
X074663Y002877D01*
X074680Y003035D02*
X074964Y003035D01*
X076825Y009694D02*
X078365Y009694D01*
X078365Y009853D02*
X076847Y009853D01*
X076847Y010011D02*
X078365Y010011D01*
X078365Y010170D02*
X077485Y010170D01*
X077567Y010328D02*
X078365Y010328D01*
X078365Y010487D02*
X077572Y010487D01*
X077505Y010645D02*
X078248Y010645D01*
X077967Y010804D02*
X077266Y010804D01*
X077102Y010804D02*
X076847Y010804D01*
X051537Y007157D02*
X049288Y007157D01*
X049288Y006999D02*
X051537Y006999D01*
X051537Y006840D02*
X049771Y006840D01*
X049962Y006682D02*
X051537Y006682D01*
X051537Y006523D02*
X050013Y006523D01*
X049997Y006365D02*
X051537Y006365D01*
X051537Y006206D02*
X049899Y006206D01*
X049288Y006048D02*
X051537Y006048D01*
X049396Y004938D02*
X048342Y004938D01*
X048567Y004779D02*
X049137Y004779D01*
X049037Y004621D02*
X048659Y004621D01*
X048696Y004462D02*
X048999Y004462D01*
X049011Y004304D02*
X048693Y004304D01*
X049845Y003986D02*
X051053Y003986D01*
X051119Y004145D02*
X049993Y004145D01*
X050056Y004304D02*
X051265Y004304D01*
X051529Y004462D02*
X050068Y004462D01*
X050181Y007950D02*
X050644Y007950D01*
X050520Y008109D02*
X050306Y008109D01*
X050371Y008267D02*
X050454Y008267D01*
X050437Y008426D02*
X050389Y008426D01*
X050389Y008584D02*
X050437Y008584D01*
X050500Y008743D02*
X050325Y008743D01*
X050228Y008901D02*
X050597Y008901D01*
X050775Y009060D02*
X050050Y009060D01*
M02*
