G75*
G70*
%OFA0B0*%
%FSLAX24Y24*%
%IPPOS*%
%LPD*%
%AMOC8*
5,1,8,0,0,1.08239X$1,22.5*
%
%ADD10C,0.0060*%
%ADD11C,0.0160*%
%ADD12C,0.0040*%
%ADD13C,0.0030*%
%ADD14C,0.0050*%
%ADD15C,0.0020*%
D10*
X061466Y001075D02*
X061466Y001289D01*
X061573Y001396D01*
X061466Y001613D02*
X061893Y001613D01*
X062107Y001827D01*
X061893Y002040D01*
X061466Y002040D01*
X061466Y002258D02*
X062107Y002258D01*
X061466Y002685D01*
X062107Y002685D01*
X061786Y002040D02*
X061786Y001613D01*
X062000Y001396D02*
X062107Y001289D01*
X062107Y001075D01*
X062000Y000969D01*
X061573Y000969D01*
X061466Y001075D01*
X064222Y001075D02*
X064222Y001289D01*
X064329Y001396D01*
X064222Y001613D02*
X064649Y001613D01*
X064863Y001827D01*
X064649Y002040D01*
X064222Y002040D01*
X064222Y002258D02*
X064863Y002258D01*
X064222Y002685D01*
X064863Y002685D01*
X064542Y002040D02*
X064542Y001613D01*
X064756Y001396D02*
X064863Y001289D01*
X064863Y001075D01*
X064756Y000969D01*
X064329Y000969D01*
X064222Y001075D01*
X064222Y003547D02*
X064649Y003547D01*
X064863Y003760D01*
X064649Y003974D01*
X064222Y003974D01*
X064542Y003974D02*
X064542Y003547D01*
X062107Y003653D02*
X062000Y003547D01*
X062107Y003653D02*
X062107Y003867D01*
X062000Y003974D01*
X061893Y003974D01*
X061466Y003547D01*
X061466Y003974D01*
D11*
X063798Y003816D02*
X063798Y003392D01*
X063798Y002998D02*
X063798Y002574D01*
X063798Y002180D02*
X063798Y001756D01*
X063798Y001363D02*
X063798Y000939D01*
X063798Y004209D02*
X063798Y004633D01*
X063798Y005027D02*
X063798Y005451D01*
X063798Y005845D02*
X063798Y006269D01*
X063798Y006662D02*
X063798Y007086D01*
X063798Y007480D02*
X063798Y007904D01*
X063798Y008298D02*
X063798Y008722D01*
X063798Y009115D02*
X063798Y009539D01*
X063798Y009933D02*
X063798Y010357D01*
X063798Y010751D02*
X063798Y011175D01*
D12*
X068937Y006911D02*
X068937Y006564D01*
X068937Y006396D02*
X068937Y006049D01*
X069283Y006396D01*
X069370Y006396D01*
X069457Y006309D01*
X069457Y006136D01*
X069370Y006049D01*
X069370Y005880D02*
X069283Y005880D01*
X069197Y005793D01*
X069110Y005880D01*
X069023Y005880D01*
X068937Y005793D01*
X068937Y005620D01*
X069023Y005533D01*
X069197Y005364D02*
X069197Y005018D01*
X069457Y004849D02*
X068937Y004502D01*
X068937Y004849D02*
X069457Y004502D01*
X067803Y005209D02*
X067456Y005556D01*
X067542Y005643D01*
X067716Y005643D01*
X067803Y005556D01*
X067803Y005209D01*
X067716Y005123D01*
X067542Y005123D01*
X067456Y005209D01*
X067456Y005556D01*
X067287Y005643D02*
X066940Y005643D01*
X067287Y005296D01*
X067287Y005209D01*
X067200Y005123D01*
X067027Y005123D01*
X066940Y005209D01*
X066771Y005209D02*
X066771Y005296D01*
X066685Y005383D01*
X066771Y005470D01*
X066771Y005556D01*
X066685Y005643D01*
X066511Y005643D01*
X066424Y005556D01*
X066256Y005383D02*
X065909Y005383D01*
X065740Y005643D02*
X065393Y005123D01*
X065740Y005123D02*
X065393Y005643D01*
X066598Y005383D02*
X066685Y005383D01*
X066771Y005209D02*
X066685Y005123D01*
X066511Y005123D01*
X066424Y005209D01*
X069197Y005707D02*
X069197Y005793D01*
X069370Y005880D02*
X069457Y005793D01*
X069457Y005620D01*
X069370Y005533D01*
X069283Y006564D02*
X069457Y006738D01*
X068937Y006738D01*
X062291Y005556D02*
X062291Y005209D01*
X062204Y005123D01*
X062031Y005123D01*
X061944Y005209D01*
X061944Y005296D01*
X062031Y005383D01*
X062291Y005383D01*
X062291Y005556D02*
X062204Y005643D01*
X062031Y005643D01*
X061944Y005556D01*
X061775Y005643D02*
X061428Y005643D01*
X061602Y005643D02*
X061602Y005123D01*
X061428Y005296D01*
X061260Y005296D02*
X061173Y005383D01*
X061260Y005470D01*
X061260Y005556D01*
X061173Y005643D01*
X060999Y005643D01*
X060913Y005556D01*
X060744Y005383D02*
X060397Y005383D01*
X060228Y005643D02*
X059881Y005123D01*
X060228Y005123D02*
X059881Y005643D01*
X060913Y005209D02*
X060999Y005123D01*
X061173Y005123D01*
X061260Y005209D01*
X061260Y005296D01*
X061173Y005383D02*
X061086Y005383D01*
X056779Y005296D02*
X056779Y005209D01*
X056692Y005123D01*
X056519Y005123D01*
X056432Y005209D01*
X056432Y005296D01*
X056519Y005383D01*
X056692Y005383D01*
X056779Y005470D01*
X056779Y005556D01*
X056692Y005643D01*
X056519Y005643D01*
X056432Y005556D01*
X056432Y005470D01*
X056519Y005383D01*
X056692Y005383D02*
X056779Y005296D01*
X056263Y005643D02*
X055916Y005643D01*
X056090Y005643D02*
X056090Y005123D01*
X055916Y005296D01*
X055748Y005296D02*
X055661Y005383D01*
X055748Y005470D01*
X055748Y005556D01*
X055661Y005643D01*
X055488Y005643D01*
X055401Y005556D01*
X055232Y005383D02*
X054885Y005383D01*
X054717Y005643D02*
X054370Y005123D01*
X054717Y005123D02*
X054370Y005643D01*
X055401Y005209D02*
X055488Y005123D01*
X055661Y005123D01*
X055748Y005209D01*
X055748Y005296D01*
X055661Y005383D02*
X055574Y005383D01*
X051267Y005209D02*
X050920Y005556D01*
X050920Y005643D01*
X050752Y005643D02*
X050405Y005643D01*
X050578Y005643D02*
X050578Y005123D01*
X050405Y005296D01*
X050236Y005296D02*
X050149Y005383D01*
X050236Y005470D01*
X050236Y005556D01*
X050149Y005643D01*
X049976Y005643D01*
X049889Y005556D01*
X049720Y005383D02*
X049373Y005383D01*
X049205Y005643D02*
X048858Y005123D01*
X049205Y005123D02*
X048858Y005643D01*
X050063Y005383D02*
X050149Y005383D01*
X050236Y005296D02*
X050236Y005209D01*
X050149Y005123D01*
X049976Y005123D01*
X049889Y005209D01*
X050920Y005123D02*
X051267Y005123D01*
X051267Y005209D01*
X045755Y005123D02*
X045582Y005209D01*
X045409Y005383D01*
X045669Y005383D01*
X045755Y005470D01*
X045755Y005556D01*
X045669Y005643D01*
X045495Y005643D01*
X045409Y005556D01*
X045409Y005383D01*
X045240Y005643D02*
X044893Y005643D01*
X045066Y005643D02*
X045066Y005123D01*
X044893Y005296D01*
X044724Y005296D02*
X044637Y005383D01*
X044724Y005470D01*
X044724Y005556D01*
X044637Y005643D01*
X044464Y005643D01*
X044377Y005556D01*
X044209Y005383D02*
X043862Y005383D01*
X043693Y005643D02*
X043346Y005123D01*
X043693Y005123D02*
X043346Y005643D01*
X044377Y005209D02*
X044464Y005123D01*
X044637Y005123D01*
X044724Y005209D01*
X044724Y005296D01*
X044637Y005383D02*
X044551Y005383D01*
X040244Y005383D02*
X040244Y005556D01*
X040157Y005643D01*
X039983Y005643D01*
X039897Y005556D01*
X039897Y005383D02*
X040070Y005296D01*
X040157Y005296D01*
X040244Y005383D01*
X040244Y005123D02*
X039897Y005123D01*
X039897Y005383D01*
X039728Y005643D02*
X039381Y005643D01*
X039555Y005643D02*
X039555Y005123D01*
X039381Y005296D01*
X039212Y005296D02*
X039126Y005383D01*
X039212Y005470D01*
X039212Y005556D01*
X039126Y005643D01*
X038952Y005643D01*
X038865Y005556D01*
X038697Y005383D02*
X038350Y005383D01*
X038181Y005643D02*
X037834Y005123D01*
X038181Y005123D02*
X037834Y005643D01*
X038865Y005209D02*
X038952Y005123D01*
X039126Y005123D01*
X039212Y005209D01*
X039212Y005296D01*
X039126Y005383D02*
X039039Y005383D01*
X034732Y005383D02*
X034385Y005383D01*
X034645Y005123D01*
X034645Y005643D01*
X034216Y005643D02*
X033869Y005643D01*
X034043Y005643D02*
X034043Y005123D01*
X033869Y005296D01*
X033701Y005296D02*
X033701Y005209D01*
X033614Y005123D01*
X033440Y005123D01*
X033354Y005209D01*
X033185Y005383D02*
X032838Y005383D01*
X032669Y005643D02*
X032322Y005123D01*
X032669Y005123D02*
X032322Y005643D01*
X033354Y005556D02*
X033440Y005643D01*
X033614Y005643D01*
X033701Y005556D01*
X033701Y005470D01*
X033614Y005383D01*
X033527Y005383D01*
X033614Y005383D02*
X033701Y005296D01*
X029220Y005209D02*
X029220Y005296D01*
X029133Y005383D01*
X029220Y005470D01*
X029220Y005556D01*
X029133Y005643D01*
X028960Y005643D01*
X028873Y005556D01*
X028704Y005643D02*
X028357Y005643D01*
X028531Y005643D02*
X028531Y005123D01*
X028357Y005296D01*
X028189Y005296D02*
X028102Y005383D01*
X028189Y005470D01*
X028189Y005556D01*
X028102Y005643D01*
X027929Y005643D01*
X027842Y005556D01*
X027673Y005383D02*
X027326Y005383D01*
X027157Y005643D02*
X026811Y005123D01*
X027157Y005123D02*
X026811Y005643D01*
X027842Y005209D02*
X027929Y005123D01*
X028102Y005123D01*
X028189Y005209D01*
X028189Y005296D01*
X028102Y005383D02*
X028015Y005383D01*
X028873Y005209D02*
X028960Y005123D01*
X029133Y005123D01*
X029220Y005209D01*
X029133Y005383D02*
X029047Y005383D01*
X038228Y002320D02*
X038228Y001973D01*
X038575Y001973D02*
X038575Y002320D01*
X038401Y002493D01*
X038228Y002320D01*
X038744Y002320D02*
X039090Y002320D01*
X039090Y002233D01*
X039004Y002146D01*
X038830Y002146D01*
X038744Y002233D01*
X038744Y002407D01*
X038830Y002493D01*
X039004Y002493D01*
X039259Y002493D02*
X039259Y002146D01*
X039433Y002146D02*
X039519Y002146D01*
X039433Y002146D02*
X039259Y002320D01*
X039689Y002233D02*
X039776Y002146D01*
X040036Y002146D01*
X040204Y002146D02*
X040291Y002146D01*
X040291Y002493D01*
X040204Y002493D02*
X040378Y002493D01*
X040548Y002407D02*
X040635Y002493D01*
X040808Y002493D01*
X040895Y002407D01*
X040895Y002233D01*
X040808Y002146D01*
X040635Y002146D01*
X040548Y002233D01*
X040548Y002407D01*
X040291Y001973D02*
X040291Y001886D01*
X041064Y002146D02*
X041324Y002146D01*
X041411Y002233D01*
X041411Y002493D01*
X041064Y002493D02*
X041064Y002146D01*
X040036Y002407D02*
X039949Y002320D01*
X039776Y002320D01*
X039689Y002233D01*
X039689Y002493D02*
X039949Y002493D01*
X040036Y002407D01*
X042095Y002493D02*
X042442Y002493D01*
X042611Y002493D02*
X042697Y002493D01*
X042697Y002407D01*
X042611Y002407D01*
X042611Y002493D01*
X042869Y002407D02*
X043215Y002060D01*
X043215Y002407D01*
X043129Y002493D01*
X042955Y002493D01*
X042869Y002407D01*
X042869Y002060D01*
X042955Y001973D01*
X043129Y001973D01*
X043215Y002060D01*
X042269Y001973D02*
X042269Y002493D01*
X042095Y002146D02*
X042269Y001973D01*
X067755Y002077D02*
X067842Y001990D01*
X067755Y002077D02*
X067755Y002250D01*
X067842Y002337D01*
X067929Y002337D01*
X068016Y002250D01*
X068016Y002163D01*
X068016Y002250D02*
X068102Y002337D01*
X068189Y002337D01*
X068276Y002250D01*
X068276Y002077D01*
X068189Y001990D01*
X068016Y001821D02*
X068016Y001474D01*
X068276Y001306D02*
X067755Y000959D01*
X067755Y001306D02*
X068276Y000959D01*
X068189Y002505D02*
X068276Y002592D01*
X068276Y002766D01*
X068189Y002852D01*
X068102Y002852D01*
X067755Y002505D01*
X067755Y002852D01*
X067755Y003021D02*
X068102Y003368D01*
X068189Y003368D01*
X068276Y003281D01*
X068276Y003108D01*
X068189Y003021D01*
X067755Y003021D02*
X067755Y003368D01*
D13*
X026412Y002970D02*
X026412Y003067D01*
X026460Y003116D01*
X026557Y003116D01*
X026557Y003019D01*
X026654Y003116D02*
X026702Y003067D01*
X026702Y002970D01*
X026654Y002922D01*
X026460Y002922D01*
X026412Y002970D01*
X026412Y003217D02*
X026702Y003217D01*
X026412Y003410D01*
X026702Y003410D01*
X026702Y003511D02*
X026702Y003656D01*
X026654Y003705D01*
X026460Y003705D01*
X026412Y003656D01*
X026412Y003511D01*
X026702Y003511D01*
D14*
X027413Y002488D02*
X027413Y001878D01*
X027616Y001878D02*
X027209Y001878D01*
X027919Y002081D02*
X028122Y002081D01*
X028224Y002183D01*
X028224Y002488D01*
X027919Y002488D01*
X027817Y002387D01*
X027919Y002285D01*
X028224Y002285D01*
X028425Y002488D02*
X028425Y002081D01*
X028730Y002081D01*
X028832Y002183D01*
X028832Y002488D01*
X029032Y002488D02*
X029032Y001878D01*
X029338Y002081D02*
X029032Y002285D01*
X029338Y002488D01*
X030147Y002387D02*
X030147Y001980D01*
X030248Y001878D01*
X030452Y001878D01*
X030554Y001980D01*
X030754Y002081D02*
X030958Y001878D01*
X031161Y002081D01*
X031161Y002488D01*
X031362Y002488D02*
X031362Y001878D01*
X031769Y002488D01*
X031769Y001878D01*
X031161Y002183D02*
X030754Y002183D01*
X030754Y002081D02*
X030754Y002488D01*
X030554Y002387D02*
X030452Y002488D01*
X030248Y002488D01*
X030147Y002387D01*
X032577Y002488D02*
X032577Y001878D01*
X032883Y001878D01*
X032984Y001980D01*
X032984Y002081D01*
X032883Y002183D01*
X032577Y002183D01*
X032577Y002488D02*
X032883Y002488D01*
X032984Y002387D01*
X032984Y002285D01*
X032883Y002183D01*
X033185Y002387D02*
X033287Y002285D01*
X033592Y002285D01*
X033592Y002183D02*
X033592Y002488D01*
X033287Y002488D01*
X033185Y002387D01*
X033287Y002081D02*
X033490Y002081D01*
X033592Y002183D01*
X033793Y002183D02*
X033793Y002387D01*
X033895Y002488D01*
X034200Y002488D01*
X034401Y002488D02*
X034401Y001878D01*
X034200Y002081D02*
X033895Y002081D01*
X033793Y002183D01*
X034401Y002285D02*
X034706Y002081D01*
X034907Y002081D02*
X035212Y002081D01*
X035314Y002183D01*
X035314Y002387D01*
X035212Y002488D01*
X034907Y002488D01*
X034706Y002488D02*
X034401Y002285D01*
X034907Y002081D02*
X034907Y002692D01*
X035515Y002488D02*
X035718Y002488D01*
X035616Y002488D02*
X035616Y001878D01*
X035515Y001878D01*
X036022Y002081D02*
X036225Y002081D01*
X036327Y002183D01*
X036327Y002488D01*
X036022Y002488D01*
X035920Y002387D01*
X036022Y002285D01*
X036327Y002285D01*
X036528Y002488D02*
X036528Y002081D01*
X036833Y002081D01*
X036935Y002183D01*
X036935Y002488D01*
X037135Y002387D02*
X037135Y002183D01*
X037237Y002081D01*
X037440Y002081D01*
X037542Y002183D01*
X037542Y002285D01*
X037135Y002285D01*
X037135Y002387D02*
X037237Y002488D01*
X037440Y002488D01*
X038695Y006519D02*
X038695Y006919D01*
X038495Y007319D02*
X039195Y007319D01*
X039495Y007619D01*
X039495Y008319D01*
X038495Y008319D01*
X038495Y007319D01*
X038095Y007619D02*
X038095Y008319D01*
X037095Y008319D01*
X037095Y007319D01*
X037795Y007319D01*
X038095Y007619D01*
X039295Y006919D02*
X039295Y006519D01*
X038695Y006519D01*
X039895Y007619D02*
X040195Y007319D01*
X040895Y007319D01*
X040895Y008319D01*
X039895Y008319D01*
X039895Y007619D01*
X041487Y006969D02*
X041487Y009869D01*
X036503Y009869D01*
X036503Y006969D01*
X041487Y006969D01*
X042015Y006969D02*
X042015Y009869D01*
X046999Y009869D01*
X046999Y006969D01*
X042015Y006969D01*
X042607Y007319D02*
X043307Y007319D01*
X043607Y007619D01*
X043607Y008319D01*
X042607Y008319D01*
X042607Y007319D01*
X044007Y007319D02*
X044707Y007319D01*
X045007Y007619D01*
X045007Y008319D01*
X044007Y008319D01*
X044007Y007319D01*
X044207Y006919D02*
X044207Y006519D01*
X044807Y006519D01*
X044807Y006919D01*
X045407Y007619D02*
X045707Y007319D01*
X046407Y007319D01*
X046407Y008319D01*
X045407Y008319D01*
X045407Y007619D01*
X045420Y008500D02*
X046420Y008500D01*
X046420Y009500D01*
X045420Y009500D01*
X045420Y008500D01*
X045020Y008800D02*
X045020Y009500D01*
X044020Y009500D01*
X044020Y008500D01*
X044720Y008500D01*
X045020Y008800D01*
X043620Y008800D02*
X043620Y009500D01*
X042620Y009500D01*
X042620Y008500D01*
X043320Y008500D01*
X043620Y008800D01*
X040908Y008500D02*
X040908Y009500D01*
X039908Y009500D01*
X039908Y008500D01*
X040908Y008500D01*
X039508Y008800D02*
X039208Y008500D01*
X038508Y008500D01*
X038508Y009500D01*
X039508Y009500D01*
X039508Y008800D01*
X038108Y008800D02*
X037808Y008500D01*
X037108Y008500D01*
X037108Y009500D01*
X038108Y009500D01*
X038108Y008800D01*
X035396Y008500D02*
X035396Y009500D01*
X034396Y009500D01*
X034396Y008500D01*
X035396Y008500D01*
X035383Y008319D02*
X034383Y008319D01*
X034383Y007619D01*
X034683Y007319D01*
X035383Y007319D01*
X035383Y008319D01*
X033983Y008319D02*
X033983Y007619D01*
X033683Y007319D01*
X032983Y007319D01*
X032983Y008319D01*
X033983Y008319D01*
X033696Y008500D02*
X033996Y008800D01*
X033996Y009500D01*
X032996Y009500D01*
X032996Y008500D01*
X033696Y008500D01*
X032583Y008319D02*
X032583Y007619D01*
X032283Y007319D01*
X031583Y007319D01*
X031583Y008319D01*
X032583Y008319D01*
X032296Y008500D02*
X032596Y008800D01*
X032596Y009500D01*
X031596Y009500D01*
X031596Y008500D01*
X032296Y008500D01*
X033183Y006919D02*
X033183Y006519D01*
X033783Y006519D01*
X033783Y006919D01*
X035976Y006969D02*
X035976Y009869D01*
X030991Y009869D01*
X030991Y006969D01*
X035976Y006969D01*
X029674Y006969D02*
X029674Y009869D01*
X027056Y009869D01*
X027056Y006969D01*
X029674Y006969D01*
X028896Y007219D02*
X028896Y007919D01*
X028596Y008219D01*
X027896Y008219D01*
X027896Y007219D01*
X028896Y007219D01*
X028665Y006919D02*
X028665Y006519D01*
X028065Y006519D01*
X028065Y006919D01*
X027896Y008619D02*
X027896Y009319D01*
X028196Y009619D01*
X028896Y009619D01*
X028896Y008619D01*
X027896Y008619D01*
X047527Y009869D02*
X047527Y006969D01*
X052511Y006969D01*
X052511Y009869D01*
X047527Y009869D01*
X048131Y009500D02*
X048131Y008500D01*
X048831Y008500D01*
X049131Y008800D01*
X049131Y009500D01*
X048131Y009500D01*
X049531Y009500D02*
X049531Y008500D01*
X050231Y008500D01*
X050531Y008800D01*
X050531Y009500D01*
X049531Y009500D01*
X050931Y009500D02*
X050931Y008500D01*
X051931Y008500D01*
X051931Y009500D01*
X050931Y009500D01*
X053039Y009869D02*
X053039Y006969D01*
X058023Y006969D01*
X058023Y009869D01*
X053039Y009869D01*
X053643Y009500D02*
X053643Y008500D01*
X054343Y008500D01*
X054643Y008800D01*
X054643Y009500D01*
X053643Y009500D01*
X055043Y009500D02*
X055043Y008500D01*
X055743Y008500D01*
X056043Y008800D01*
X056043Y009500D01*
X055043Y009500D01*
X056443Y009500D02*
X056443Y008500D01*
X057443Y008500D01*
X057443Y009500D01*
X056443Y009500D01*
X058550Y009869D02*
X058550Y006969D01*
X063535Y006969D01*
X063535Y009869D01*
X058550Y009869D01*
X059155Y009500D02*
X059155Y008500D01*
X059855Y008500D01*
X060155Y008800D01*
X060155Y009500D01*
X059155Y009500D01*
X060555Y009500D02*
X060555Y008500D01*
X061255Y008500D01*
X061555Y008800D01*
X061555Y009500D01*
X060555Y009500D01*
X061955Y009500D02*
X061955Y008500D01*
X062955Y008500D01*
X062955Y009500D01*
X061955Y009500D01*
X064062Y009869D02*
X064062Y006969D01*
X069046Y006969D01*
X069046Y009869D01*
X064062Y009869D01*
X064667Y009500D02*
X064667Y008500D01*
X065367Y008500D01*
X065667Y008800D01*
X065667Y009500D01*
X064667Y009500D01*
X066067Y009500D02*
X066067Y008500D01*
X066767Y008500D01*
X067067Y008800D01*
X067067Y009500D01*
X066067Y009500D01*
X067467Y009500D02*
X067467Y008500D01*
X068467Y008500D01*
X068467Y009500D01*
X067467Y009500D01*
X067454Y008319D02*
X067454Y007619D01*
X067754Y007319D01*
X068454Y007319D01*
X068454Y008319D01*
X067454Y008319D01*
X067054Y008319D02*
X067054Y007619D01*
X066754Y007319D01*
X066054Y007319D01*
X066054Y008319D01*
X067054Y008319D01*
X065654Y008319D02*
X065654Y007619D01*
X065354Y007319D01*
X064654Y007319D01*
X064654Y008319D01*
X065654Y008319D01*
X062943Y008319D02*
X062943Y007319D01*
X062243Y007319D01*
X061943Y007619D01*
X061943Y008319D01*
X062943Y008319D01*
X061543Y008319D02*
X061543Y007619D01*
X061243Y007319D01*
X060543Y007319D01*
X060543Y008319D01*
X061543Y008319D01*
X060143Y008319D02*
X060143Y007619D01*
X059843Y007319D01*
X059143Y007319D01*
X059143Y008319D01*
X060143Y008319D01*
X057431Y008319D02*
X057431Y007319D01*
X056731Y007319D01*
X056431Y007619D01*
X056431Y008319D01*
X057431Y008319D01*
X056031Y008319D02*
X056031Y007619D01*
X055731Y007319D01*
X055031Y007319D01*
X055031Y008319D01*
X056031Y008319D01*
X054631Y008319D02*
X054631Y007619D01*
X054331Y007319D01*
X053631Y007319D01*
X053631Y008319D01*
X054631Y008319D01*
X051919Y008319D02*
X050919Y008319D01*
X050919Y007619D01*
X051219Y007319D01*
X051919Y007319D01*
X051919Y008319D01*
X050519Y008319D02*
X050519Y007619D01*
X050219Y007319D01*
X049519Y007319D01*
X049519Y008319D01*
X050519Y008319D01*
X049119Y008319D02*
X049119Y007619D01*
X048819Y007319D01*
X048119Y007319D01*
X048119Y008319D01*
X049119Y008319D01*
X049719Y006919D02*
X049719Y006519D01*
X050319Y006519D01*
X050319Y006919D01*
X055231Y006919D02*
X055231Y006519D01*
X055831Y006519D01*
X055831Y006919D01*
X060743Y006919D02*
X060743Y006519D01*
X061343Y006519D01*
X061343Y006919D01*
X066254Y006919D02*
X066254Y006519D01*
X066854Y006519D01*
X066854Y006919D01*
X070616Y005927D02*
X073516Y005927D01*
X073516Y010911D01*
X070616Y010911D01*
X070616Y005927D01*
X070985Y006531D02*
X071985Y006531D01*
X071985Y007231D01*
X071685Y007531D01*
X070985Y007531D01*
X070985Y006531D01*
X072166Y006519D02*
X073166Y006519D01*
X073166Y007219D01*
X072866Y007519D01*
X072166Y007519D01*
X072166Y006519D01*
X072166Y007919D02*
X073166Y007919D01*
X073166Y008619D01*
X072866Y008919D01*
X072166Y008919D01*
X072166Y007919D01*
X071985Y007931D02*
X071985Y008631D01*
X071685Y008931D01*
X070985Y008931D01*
X070985Y007931D01*
X071985Y007931D01*
X073566Y008119D02*
X073966Y008119D01*
X073966Y008719D01*
X073566Y008719D01*
X072866Y009319D02*
X072166Y009319D01*
X072166Y010319D01*
X073166Y010319D01*
X073166Y009619D01*
X072866Y009319D01*
X071985Y009331D02*
X071985Y010331D01*
X070985Y010331D01*
X070985Y009331D01*
X071985Y009331D01*
X069574Y004357D02*
X069574Y001457D01*
X074558Y001457D01*
X074558Y004357D01*
X069574Y004357D01*
X070179Y003988D02*
X070179Y002988D01*
X070879Y002988D01*
X071179Y003288D01*
X071179Y003988D01*
X070179Y003988D01*
X071579Y003988D02*
X071579Y002988D01*
X072279Y002988D01*
X072579Y003288D01*
X072579Y003988D01*
X071579Y003988D01*
X072979Y003988D02*
X072979Y002988D01*
X073979Y002988D01*
X073979Y003988D01*
X072979Y003988D01*
X072966Y002807D02*
X072966Y002107D01*
X073266Y001807D01*
X073966Y001807D01*
X073966Y002807D01*
X072966Y002807D01*
X072566Y002807D02*
X072566Y002107D01*
X072266Y001807D01*
X071566Y001807D01*
X071566Y002807D01*
X072566Y002807D01*
X071166Y002807D02*
X071166Y002107D01*
X070866Y001807D01*
X070166Y001807D01*
X070166Y002807D01*
X071166Y002807D01*
X071766Y001407D02*
X071766Y001007D01*
X072366Y001007D01*
X072366Y001407D01*
D15*
X045424Y001549D02*
X045015Y001139D01*
X044003Y001135D01*
X043582Y001553D01*
X043586Y003222D01*
X043602Y003222D01*
X043995Y003616D01*
X045019Y003628D01*
X045420Y003226D01*
X045424Y002675D01*
X045157Y002801D01*
X044893Y002679D01*
X044893Y002939D01*
X044775Y003057D01*
X044224Y003053D01*
X044125Y002954D01*
X044125Y001844D01*
X044235Y001738D01*
X044783Y001738D01*
X044889Y001836D01*
X044885Y002037D01*
X045165Y002151D01*
X045424Y002037D01*
X045424Y001549D01*
X045424Y001555D02*
X043582Y001555D01*
X043582Y001573D02*
X045424Y001573D01*
X045424Y001591D02*
X043582Y001591D01*
X043582Y001609D02*
X045424Y001609D01*
X045424Y001628D02*
X043582Y001628D01*
X043582Y001646D02*
X045424Y001646D01*
X045424Y001664D02*
X043582Y001664D01*
X043582Y001682D02*
X045424Y001682D01*
X045424Y001701D02*
X043582Y001701D01*
X043582Y001719D02*
X045424Y001719D01*
X045424Y001737D02*
X043582Y001737D01*
X043582Y001755D02*
X044217Y001755D01*
X044198Y001774D02*
X043582Y001774D01*
X043582Y001792D02*
X044180Y001792D01*
X044161Y001810D02*
X043583Y001810D01*
X043583Y001828D02*
X044142Y001828D01*
X044125Y001846D02*
X043583Y001846D01*
X043583Y001865D02*
X044125Y001865D01*
X044125Y001883D02*
X043583Y001883D01*
X043583Y001901D02*
X044125Y001901D01*
X044125Y001919D02*
X043583Y001919D01*
X043583Y001938D02*
X044125Y001938D01*
X044125Y001956D02*
X043583Y001956D01*
X043583Y001974D02*
X044125Y001974D01*
X044125Y001992D02*
X043583Y001992D01*
X043583Y002010D02*
X044125Y002010D01*
X044125Y002029D02*
X043583Y002029D01*
X043583Y002047D02*
X044125Y002047D01*
X044125Y002065D02*
X043583Y002065D01*
X043583Y002083D02*
X044125Y002083D01*
X044125Y002102D02*
X043583Y002102D01*
X043583Y002120D02*
X044125Y002120D01*
X044125Y002138D02*
X043583Y002138D01*
X043583Y002156D02*
X044125Y002156D01*
X044125Y002175D02*
X043583Y002175D01*
X043583Y002193D02*
X044125Y002193D01*
X044125Y002211D02*
X043583Y002211D01*
X043584Y002229D02*
X044125Y002229D01*
X044125Y002247D02*
X043584Y002247D01*
X043584Y002266D02*
X044125Y002266D01*
X044125Y002284D02*
X043584Y002284D01*
X043584Y002302D02*
X044125Y002302D01*
X044125Y002320D02*
X043584Y002320D01*
X043584Y002339D02*
X044125Y002339D01*
X044125Y002357D02*
X043584Y002357D01*
X043584Y002375D02*
X044125Y002375D01*
X044125Y002393D02*
X043584Y002393D01*
X043584Y002411D02*
X044125Y002411D01*
X044125Y002430D02*
X043584Y002430D01*
X043584Y002448D02*
X044125Y002448D01*
X044125Y002466D02*
X043584Y002466D01*
X043584Y002484D02*
X044125Y002484D01*
X044125Y002503D02*
X043584Y002503D01*
X043584Y002521D02*
X044125Y002521D01*
X044125Y002539D02*
X043584Y002539D01*
X043584Y002557D02*
X044125Y002557D01*
X044125Y002576D02*
X043584Y002576D01*
X043584Y002594D02*
X044125Y002594D01*
X044125Y002612D02*
X043584Y002612D01*
X043584Y002630D02*
X044125Y002630D01*
X044125Y002648D02*
X043584Y002648D01*
X043585Y002667D02*
X044125Y002667D01*
X044125Y002685D02*
X043585Y002685D01*
X043585Y002703D02*
X044125Y002703D01*
X044125Y002721D02*
X043585Y002721D01*
X043585Y002740D02*
X044125Y002740D01*
X044125Y002758D02*
X043585Y002758D01*
X043585Y002776D02*
X044125Y002776D01*
X044125Y002794D02*
X043585Y002794D01*
X043585Y002813D02*
X044125Y002813D01*
X044125Y002831D02*
X043585Y002831D01*
X043585Y002849D02*
X044125Y002849D01*
X044125Y002867D02*
X043585Y002867D01*
X043585Y002885D02*
X044125Y002885D01*
X044125Y002904D02*
X043585Y002904D01*
X043585Y002922D02*
X044125Y002922D01*
X044125Y002940D02*
X043585Y002940D01*
X043585Y002958D02*
X044129Y002958D01*
X044147Y002977D02*
X043585Y002977D01*
X043585Y002995D02*
X044166Y002995D01*
X044184Y003013D02*
X043585Y003013D01*
X043585Y003031D02*
X044202Y003031D01*
X044220Y003049D02*
X043585Y003049D01*
X043585Y003068D02*
X045422Y003068D01*
X045421Y003086D02*
X043586Y003086D01*
X043586Y003104D02*
X045421Y003104D01*
X045421Y003122D02*
X043586Y003122D01*
X043586Y003141D02*
X045421Y003141D01*
X045421Y003159D02*
X043586Y003159D01*
X043586Y003177D02*
X045421Y003177D01*
X045421Y003195D02*
X043586Y003195D01*
X043586Y003214D02*
X045421Y003214D01*
X045415Y003232D02*
X043611Y003232D01*
X043630Y003250D02*
X045396Y003250D01*
X045378Y003268D02*
X043648Y003268D01*
X043666Y003286D02*
X045360Y003286D01*
X045342Y003305D02*
X043684Y003305D01*
X043702Y003323D02*
X045324Y003323D01*
X045305Y003341D02*
X043721Y003341D01*
X043739Y003359D02*
X045287Y003359D01*
X045269Y003378D02*
X043757Y003378D01*
X043775Y003396D02*
X045251Y003396D01*
X045232Y003414D02*
X043794Y003414D01*
X043812Y003432D02*
X045214Y003432D01*
X045196Y003451D02*
X043830Y003451D01*
X043848Y003469D02*
X045178Y003469D01*
X045159Y003487D02*
X043866Y003487D01*
X043885Y003505D02*
X045141Y003505D01*
X045123Y003523D02*
X043903Y003523D01*
X043921Y003542D02*
X045105Y003542D01*
X045087Y003560D02*
X043939Y003560D01*
X043958Y003578D02*
X045068Y003578D01*
X045050Y003596D02*
X043976Y003596D01*
X043994Y003615D02*
X045032Y003615D01*
X044782Y003049D02*
X045422Y003049D01*
X045422Y003031D02*
X044800Y003031D01*
X044818Y003013D02*
X045422Y003013D01*
X045422Y002995D02*
X044837Y002995D01*
X044855Y002977D02*
X045422Y002977D01*
X045422Y002958D02*
X044873Y002958D01*
X044891Y002940D02*
X045423Y002940D01*
X045423Y002922D02*
X044893Y002922D01*
X044893Y002904D02*
X045423Y002904D01*
X045423Y002885D02*
X044893Y002885D01*
X044893Y002867D02*
X045423Y002867D01*
X045423Y002849D02*
X044893Y002849D01*
X044893Y002831D02*
X045423Y002831D01*
X045423Y002813D02*
X044893Y002813D01*
X044893Y002794D02*
X045143Y002794D01*
X045170Y002794D02*
X045424Y002794D01*
X045424Y002776D02*
X045209Y002776D01*
X045248Y002758D02*
X045424Y002758D01*
X045424Y002740D02*
X045287Y002740D01*
X045325Y002721D02*
X045424Y002721D01*
X045424Y002703D02*
X045364Y002703D01*
X045403Y002685D02*
X045424Y002685D01*
X045103Y002776D02*
X044893Y002776D01*
X044893Y002758D02*
X045064Y002758D01*
X045024Y002740D02*
X044893Y002740D01*
X044893Y002721D02*
X044985Y002721D01*
X044946Y002703D02*
X044893Y002703D01*
X044893Y002685D02*
X044906Y002685D01*
X045132Y002138D02*
X045194Y002138D01*
X045236Y002120D02*
X045088Y002120D01*
X045043Y002102D02*
X045277Y002102D01*
X045319Y002083D02*
X044999Y002083D01*
X044954Y002065D02*
X045360Y002065D01*
X045402Y002047D02*
X044909Y002047D01*
X044885Y002029D02*
X045424Y002029D01*
X045424Y002010D02*
X044886Y002010D01*
X044886Y001992D02*
X045424Y001992D01*
X045424Y001974D02*
X044886Y001974D01*
X044887Y001956D02*
X045424Y001956D01*
X045424Y001938D02*
X044887Y001938D01*
X044887Y001919D02*
X045424Y001919D01*
X045424Y001901D02*
X044888Y001901D01*
X044888Y001883D02*
X045424Y001883D01*
X045424Y001865D02*
X044888Y001865D01*
X044889Y001846D02*
X045424Y001846D01*
X045424Y001828D02*
X044880Y001828D01*
X044861Y001810D02*
X045424Y001810D01*
X045424Y001792D02*
X044841Y001792D01*
X044821Y001774D02*
X045424Y001774D01*
X045424Y001755D02*
X044802Y001755D01*
X045266Y001391D02*
X043745Y001391D01*
X043727Y001409D02*
X045285Y001409D01*
X045303Y001427D02*
X043709Y001427D01*
X043690Y001445D02*
X045321Y001445D01*
X045339Y001464D02*
X043672Y001464D01*
X043653Y001482D02*
X045357Y001482D01*
X045376Y001500D02*
X043635Y001500D01*
X043617Y001518D02*
X045394Y001518D01*
X045412Y001537D02*
X043598Y001537D01*
X043764Y001372D02*
X045248Y001372D01*
X045230Y001354D02*
X043782Y001354D01*
X043801Y001336D02*
X045212Y001336D01*
X045193Y001318D02*
X043819Y001318D01*
X043837Y001300D02*
X045175Y001300D01*
X045157Y001281D02*
X043856Y001281D01*
X043874Y001263D02*
X045139Y001263D01*
X045120Y001245D02*
X043893Y001245D01*
X043911Y001227D02*
X045102Y001227D01*
X045084Y001208D02*
X043929Y001208D01*
X043948Y001190D02*
X045066Y001190D01*
X045048Y001172D02*
X043966Y001172D01*
X043985Y001154D02*
X045029Y001154D01*
X044023Y001136D02*
X044003Y001136D01*
M02*
