G75*
G70*
%OFA0B0*%
%FSLAX24Y24*%
%IPPOS*%
%LPD*%
%AMOC8*
5,1,8,0,0,1.08239X$1,22.5*
%
%ADD10C,0.0789*%
%ADD11C,0.1182*%
%ADD12C,0.1005*%
%ADD13C,0.0848*%
%ADD14R,0.0580X0.1080*%
%ADD15C,0.1029*%
%ADD16R,0.1080X0.0580*%
%ADD17R,0.1430X0.0730*%
%ADD18C,0.0456*%
%ADD19C,0.0671*%
D10*
X030819Y002999D03*
X032211Y002999D03*
X031515Y003694D03*
X032211Y004390D03*
X030819Y004390D03*
X039480Y004390D03*
X040176Y003694D03*
X040872Y004390D03*
X040872Y002999D03*
X039480Y002999D03*
X048142Y002999D03*
X049534Y002999D03*
X048838Y003694D03*
X049534Y004390D03*
X048142Y004390D03*
X056803Y004390D03*
X057499Y003694D03*
X058195Y004390D03*
X058195Y002999D03*
X056803Y002999D03*
X065465Y002999D03*
X066857Y002999D03*
X066161Y003694D03*
X066857Y004390D03*
X065465Y004390D03*
D11*
X063208Y003694D03*
X060452Y003694D03*
X054546Y003694D03*
X051791Y003694D03*
X045885Y003694D03*
X043129Y003694D03*
X037224Y003694D03*
X034468Y003694D03*
X028562Y003694D03*
X069113Y003694D03*
D12*
X069113Y001135D03*
X063208Y001135D03*
X060452Y001135D03*
X054546Y001135D03*
X051791Y001135D03*
X045885Y001135D03*
X043129Y001135D03*
X037224Y001135D03*
X034468Y001135D03*
X028562Y001135D03*
D13*
X031515Y000663D03*
X040176Y000663D03*
X048838Y000663D03*
X057499Y000663D03*
X066161Y000663D03*
D14*
X070885Y001057D03*
X072066Y001057D03*
X073247Y001057D03*
X073247Y004757D03*
X072066Y004757D03*
X070885Y004757D03*
X067735Y006569D03*
X066554Y006569D03*
X065373Y006569D03*
X062224Y006569D03*
X061043Y006569D03*
X059861Y006569D03*
X056712Y006569D03*
X055531Y006569D03*
X054350Y006569D03*
X051200Y006569D03*
X050019Y006569D03*
X048838Y006569D03*
X045688Y006569D03*
X044507Y006569D03*
X043326Y006569D03*
X040176Y006569D03*
X038995Y006569D03*
X037814Y006569D03*
X034665Y006569D03*
X033483Y006569D03*
X032302Y006569D03*
X028365Y006569D03*
X028365Y010269D03*
X032302Y010269D03*
X033483Y010269D03*
X034665Y010269D03*
X037814Y010269D03*
X038995Y010269D03*
X040176Y010269D03*
X043326Y010269D03*
X044507Y010269D03*
X045688Y010269D03*
X048838Y010269D03*
X050019Y010269D03*
X051200Y010269D03*
X054350Y010269D03*
X055531Y010269D03*
X056712Y010269D03*
X059861Y010269D03*
X061043Y010269D03*
X062224Y010269D03*
X065373Y010269D03*
X066554Y010269D03*
X067735Y010269D03*
D15*
X072066Y010446D03*
X068582Y008419D03*
X064527Y008419D03*
X063070Y008419D03*
X059015Y008419D03*
X057558Y008419D03*
X053503Y008419D03*
X052046Y008419D03*
X047991Y008419D03*
X046535Y008419D03*
X042480Y008419D03*
X041023Y008419D03*
X036968Y008419D03*
X035511Y008419D03*
X031456Y008419D03*
X070039Y002907D03*
X074094Y002907D03*
X072066Y006391D03*
D16*
X070216Y007238D03*
X070216Y008419D03*
X070216Y009600D03*
X073916Y009600D03*
X073916Y008419D03*
X073916Y007238D03*
D17*
X026836Y008419D03*
X029895Y008419D03*
D18*
X033483Y009206D03*
X035452Y010387D03*
X038995Y009206D03*
X040964Y010387D03*
X044507Y009206D03*
X046476Y010387D03*
X050019Y009206D03*
X051987Y010387D03*
X055531Y009206D03*
X057499Y010387D03*
X061043Y009206D03*
X063011Y010387D03*
X066554Y009206D03*
X068523Y010387D03*
X071672Y008813D03*
X072854Y008419D03*
X071279Y006844D03*
X074035Y005269D03*
X072460Y003694D03*
X071672Y002120D03*
X067735Y003877D03*
X063011Y006450D03*
X061043Y007631D03*
X057499Y006450D03*
X055531Y007631D03*
X051987Y006450D03*
X050019Y007631D03*
X046476Y006450D03*
X044507Y007631D03*
X040964Y006450D03*
X038995Y007631D03*
X035452Y006450D03*
X033877Y007631D03*
X029409Y005525D03*
X029153Y010387D03*
D19*
X027184Y004088D03*
M02*
