G75*
G70*
%OFA0B0*%
%FSLAX24Y24*%
%IPPOS*%
%LPD*%
%AMOC8*
5,1,8,0,0,1.08239X$1,22.5*
%
%ADD10C,0.0709*%
%ADD11C,0.0768*%
%ADD12R,0.0500X0.1000*%
%ADD13R,0.1000X0.0500*%
%ADD14R,0.1350X0.0650*%
%ADD15C,0.0320*%
%ADD16C,0.0376*%
%ADD17C,0.0591*%
%ADD18C,0.0160*%
D10*
X030819Y002999D03*
X032211Y002999D03*
X031515Y003694D03*
X032211Y004390D03*
X030819Y004390D03*
X039480Y004390D03*
X040176Y003694D03*
X040872Y004390D03*
X040872Y002999D03*
X039480Y002999D03*
X048142Y002999D03*
X049534Y002999D03*
X048838Y003694D03*
X049534Y004390D03*
X048142Y004390D03*
X056803Y004390D03*
X057499Y003694D03*
X058195Y004390D03*
X058195Y002999D03*
X056803Y002999D03*
X065465Y002999D03*
X066857Y002999D03*
X066161Y003694D03*
X066857Y004390D03*
X065465Y004390D03*
D11*
X066161Y000663D03*
X057499Y000663D03*
X048838Y000663D03*
X040176Y000663D03*
X031515Y000663D03*
D12*
X032302Y006569D03*
X033483Y006569D03*
X034665Y006569D03*
X037814Y006569D03*
X038995Y006569D03*
X040176Y006569D03*
X043326Y006569D03*
X044507Y006569D03*
X045688Y006569D03*
X048838Y006569D03*
X050019Y006569D03*
X051200Y006569D03*
X054350Y006569D03*
X055531Y006569D03*
X056712Y006569D03*
X059861Y006569D03*
X061043Y006569D03*
X062224Y006569D03*
X065373Y006569D03*
X066554Y006569D03*
X067735Y006569D03*
X070885Y004757D03*
X072066Y004757D03*
X073247Y004757D03*
X073247Y001057D03*
X072066Y001057D03*
X070885Y001057D03*
X067735Y010269D03*
X066554Y010269D03*
X065373Y010269D03*
X062224Y010269D03*
X061043Y010269D03*
X059861Y010269D03*
X056712Y010269D03*
X055531Y010269D03*
X054350Y010269D03*
X051200Y010269D03*
X050019Y010269D03*
X048838Y010269D03*
X045688Y010269D03*
X044507Y010269D03*
X043326Y010269D03*
X040176Y010269D03*
X038995Y010269D03*
X037814Y010269D03*
X034665Y010269D03*
X033483Y010269D03*
X032302Y010269D03*
X028365Y010269D03*
X028365Y006569D03*
D13*
X070216Y007238D03*
X070216Y008419D03*
X070216Y009600D03*
X073916Y009600D03*
X073916Y008419D03*
X073916Y007238D03*
D14*
X029895Y008419D03*
X026836Y008419D03*
D15*
X028365Y010269D02*
X028483Y010387D01*
X029153Y010387D01*
X032302Y007631D02*
X033483Y008813D01*
X033483Y009206D01*
X033483Y010269D01*
X034665Y010269D02*
X034783Y010387D01*
X035452Y010387D01*
X038995Y010269D02*
X038995Y009206D01*
X038995Y008813D01*
X037814Y007631D01*
X037814Y006569D01*
X038995Y006569D02*
X038995Y007631D01*
X040176Y006569D02*
X040295Y006450D01*
X040964Y006450D01*
X043326Y006569D02*
X043326Y007631D01*
X044507Y008813D01*
X044507Y009206D01*
X044507Y010269D01*
X045688Y010269D02*
X045807Y010387D01*
X046476Y010387D01*
X050019Y010269D02*
X050019Y009206D01*
X050019Y008813D01*
X048838Y007631D01*
X048838Y006569D01*
X050019Y006569D02*
X050019Y007631D01*
X051200Y006569D02*
X051319Y006450D01*
X051987Y006450D01*
X054350Y006569D02*
X054350Y007631D01*
X055531Y008813D01*
X055531Y009206D01*
X055531Y010269D01*
X056712Y010269D02*
X056830Y010387D01*
X057499Y010387D01*
X061043Y010269D02*
X061043Y009206D01*
X061043Y008813D01*
X059861Y007631D01*
X059861Y006569D01*
X061043Y006569D02*
X061043Y007631D01*
X062224Y006569D02*
X062342Y006450D01*
X063011Y006450D01*
X065373Y006569D02*
X065373Y007631D01*
X066554Y008813D01*
X066554Y009206D01*
X066554Y009600D01*
X066948Y009206D01*
X068917Y009206D01*
X069704Y008419D01*
X070216Y008419D01*
X070885Y008419D01*
X071279Y008025D01*
X072066Y008025D01*
X072854Y007238D01*
X072854Y006057D01*
X072066Y005269D01*
X072066Y004757D01*
X072066Y004088D01*
X070885Y002907D01*
X070885Y001057D01*
X072066Y001057D02*
X072066Y001726D01*
X071672Y002120D01*
X072460Y002907D02*
X073247Y002120D01*
X073247Y001057D01*
X072460Y002907D02*
X072460Y003694D01*
X073247Y004757D02*
X073247Y004876D01*
X073641Y005269D01*
X074035Y005269D01*
X073916Y007238D02*
X072854Y007238D01*
X072854Y008419D02*
X073916Y008419D01*
X072066Y009600D02*
X071672Y009206D01*
X071672Y008813D01*
X072066Y009600D02*
X073916Y009600D01*
X070216Y009600D02*
X069429Y010387D01*
X068523Y010387D01*
X067854Y010387D01*
X067735Y010269D01*
X066554Y010269D02*
X066554Y009600D01*
X063011Y010387D02*
X062342Y010387D01*
X062224Y010269D01*
X055531Y007631D02*
X055531Y006569D01*
X056712Y006569D02*
X056830Y006450D01*
X057499Y006450D01*
X066161Y005269D02*
X066161Y003694D01*
X066857Y002999D02*
X067735Y003877D01*
X067735Y006569D01*
X066554Y006569D02*
X066554Y005663D01*
X066161Y005269D01*
X058195Y002999D02*
X057316Y002120D01*
X055924Y002120D01*
X055531Y002513D01*
X050413Y002513D01*
X049927Y002999D01*
X049534Y002999D01*
X049534Y002816D01*
X048838Y002120D01*
X047263Y002120D01*
X046869Y002513D01*
X041751Y002513D01*
X041266Y002999D01*
X040872Y002999D01*
X039994Y002120D01*
X038602Y002120D01*
X038208Y002513D01*
X033090Y002513D01*
X032605Y002999D01*
X032211Y002999D01*
X032394Y002999D01*
X034665Y005269D01*
X034665Y006569D01*
X034783Y006450D01*
X035452Y006450D01*
X033877Y007631D02*
X033483Y007238D01*
X033483Y006569D01*
X033483Y005663D01*
X033090Y005269D01*
X031909Y005269D01*
X031515Y004876D01*
X031515Y003694D01*
X030819Y002999D02*
X030334Y002513D01*
X027972Y002513D01*
X027184Y003301D01*
X027184Y004088D01*
X029546Y004271D02*
X030819Y002999D01*
X029546Y004271D02*
X029546Y005387D01*
X029409Y005525D01*
X028365Y006569D01*
X032302Y006569D02*
X032302Y007631D01*
X040176Y010269D02*
X040295Y010387D01*
X040964Y010387D01*
X044507Y007631D02*
X044507Y006569D01*
X045688Y006569D02*
X045807Y006450D01*
X046476Y006450D01*
X051200Y010269D02*
X051319Y010387D01*
X051987Y010387D01*
D16*
X051987Y010387D03*
X050019Y009206D03*
X046476Y010387D03*
X044507Y009206D03*
X040964Y010387D03*
X038995Y009206D03*
X035452Y010387D03*
X033483Y009206D03*
X033877Y007631D03*
X035452Y006450D03*
X038995Y007631D03*
X040964Y006450D03*
X044507Y007631D03*
X046476Y006450D03*
X050019Y007631D03*
X051987Y006450D03*
X055531Y007631D03*
X057499Y006450D03*
X061043Y007631D03*
X063011Y006450D03*
X067735Y003877D03*
X072460Y003694D03*
X071672Y002120D03*
X074035Y005269D03*
X071279Y006844D03*
X072854Y008419D03*
X071672Y008813D03*
X068523Y010387D03*
X066554Y009206D03*
X063011Y010387D03*
X061043Y009206D03*
X057499Y010387D03*
X055531Y009206D03*
X029409Y005525D03*
X029153Y010387D03*
D17*
X027184Y004088D03*
D18*
X026397Y001204D02*
X026551Y000938D01*
X026790Y000699D01*
X027056Y000545D01*
X028178Y000545D01*
X028170Y000548D01*
X027975Y000743D01*
X027870Y000998D01*
X027870Y001273D01*
X027975Y001528D01*
X028170Y001723D01*
X028424Y001828D01*
X028700Y001828D01*
X028955Y001723D01*
X029149Y001528D01*
X029255Y001273D01*
X029255Y000998D01*
X029149Y000743D01*
X028955Y000548D01*
X028946Y000545D01*
X030963Y000545D01*
X030952Y000615D01*
X031467Y000615D01*
X031467Y000711D01*
X031467Y001226D01*
X031383Y001213D01*
X031299Y001186D01*
X031219Y001145D01*
X031148Y001093D01*
X031085Y001030D01*
X031033Y000959D01*
X030992Y000879D01*
X030965Y000795D01*
X030952Y000711D01*
X031467Y000711D01*
X031563Y000711D01*
X032078Y000711D01*
X032065Y000795D01*
X032037Y000879D01*
X031997Y000959D01*
X031945Y001030D01*
X031882Y001093D01*
X031810Y001145D01*
X031731Y001186D01*
X031647Y001213D01*
X031563Y001226D01*
X031563Y000711D01*
X031563Y000615D01*
X032078Y000615D01*
X032067Y000545D01*
X034084Y000545D01*
X034075Y000548D01*
X033881Y000743D01*
X033775Y000998D01*
X033775Y001273D01*
X033881Y001528D01*
X034075Y001723D01*
X034330Y001828D01*
X034605Y001828D01*
X034860Y001723D01*
X035055Y001528D01*
X035160Y001273D01*
X035160Y000998D01*
X035055Y000743D01*
X034860Y000548D01*
X034852Y000545D01*
X036840Y000545D01*
X036831Y000548D01*
X036636Y000743D01*
X036531Y000998D01*
X036531Y001273D01*
X036636Y001528D01*
X036831Y001723D01*
X037086Y001828D01*
X037361Y001828D01*
X037616Y001723D01*
X037811Y001528D01*
X037916Y001273D01*
X037916Y000998D01*
X037811Y000743D01*
X037616Y000548D01*
X037608Y000545D01*
X039624Y000545D01*
X039613Y000615D01*
X040128Y000615D01*
X040128Y000711D01*
X039613Y000711D01*
X039626Y000795D01*
X039654Y000879D01*
X039694Y000959D01*
X039746Y001030D01*
X039809Y001093D01*
X039881Y001145D01*
X039960Y001186D01*
X040044Y001213D01*
X040128Y001226D01*
X040128Y000711D01*
X040224Y000711D01*
X040224Y001226D01*
X040308Y001213D01*
X040393Y001186D01*
X040472Y001145D01*
X040544Y001093D01*
X040606Y001030D01*
X040659Y000959D01*
X040699Y000879D01*
X040726Y000795D01*
X040740Y000711D01*
X040225Y000711D01*
X040225Y000615D01*
X040740Y000615D01*
X040729Y000545D01*
X042745Y000545D01*
X042737Y000548D01*
X042542Y000743D01*
X042437Y000998D01*
X042437Y001273D01*
X042542Y001528D01*
X042737Y001723D01*
X042991Y001828D01*
X043267Y001828D01*
X043521Y001723D01*
X043716Y001528D01*
X043822Y001273D01*
X043822Y000998D01*
X043716Y000743D01*
X043521Y000548D01*
X043513Y000545D01*
X045501Y000545D01*
X045493Y000548D01*
X045298Y000743D01*
X045192Y000998D01*
X045192Y001273D01*
X045298Y001528D01*
X045493Y001723D01*
X045747Y001828D01*
X046023Y001828D01*
X046277Y001723D01*
X046472Y001528D01*
X046578Y001273D01*
X046578Y000998D01*
X046472Y000743D01*
X046277Y000548D01*
X046269Y000545D01*
X048286Y000545D01*
X048274Y000615D01*
X048790Y000615D01*
X048790Y000711D01*
X048790Y001226D01*
X048706Y001213D01*
X048621Y001186D01*
X048542Y001145D01*
X048470Y001093D01*
X048408Y001030D01*
X048356Y000959D01*
X048315Y000879D01*
X048288Y000795D01*
X048274Y000711D01*
X048790Y000711D01*
X048886Y000711D01*
X049401Y000711D01*
X049388Y000795D01*
X049360Y000879D01*
X049320Y000959D01*
X049268Y001030D01*
X049205Y001093D01*
X049133Y001145D01*
X049054Y001186D01*
X048970Y001213D01*
X048886Y001226D01*
X048886Y000711D01*
X048886Y000615D01*
X049401Y000615D01*
X049390Y000545D01*
X051406Y000545D01*
X051398Y000548D01*
X051203Y000743D01*
X051098Y000998D01*
X051098Y001273D01*
X051203Y001528D01*
X051398Y001723D01*
X051653Y001828D01*
X051928Y001828D01*
X052183Y001723D01*
X052378Y001528D01*
X052483Y001273D01*
X052483Y000998D01*
X052378Y000743D01*
X052183Y000548D01*
X052175Y000545D01*
X054162Y000545D01*
X054154Y000548D01*
X053959Y000743D01*
X053854Y000998D01*
X053854Y001273D01*
X053959Y001528D01*
X054154Y001723D01*
X054409Y001828D01*
X054684Y001828D01*
X054939Y001723D01*
X055134Y001528D01*
X055239Y001273D01*
X055239Y000998D01*
X055134Y000743D01*
X054939Y000548D01*
X054931Y000545D01*
X056947Y000545D01*
X056936Y000615D01*
X057451Y000615D01*
X057451Y000711D01*
X056936Y000711D01*
X056949Y000795D01*
X056977Y000879D01*
X057017Y000959D01*
X057069Y001030D01*
X057132Y001093D01*
X057204Y001145D01*
X057283Y001186D01*
X057367Y001213D01*
X057451Y001226D01*
X057451Y000711D01*
X057547Y000711D01*
X057547Y001226D01*
X057631Y001213D01*
X057716Y001186D01*
X057795Y001145D01*
X057867Y001093D01*
X057929Y001030D01*
X057981Y000959D01*
X058022Y000879D01*
X058049Y000795D01*
X058062Y000711D01*
X057547Y000711D01*
X057547Y000615D01*
X058062Y000615D01*
X058051Y000545D01*
X060068Y000545D01*
X060060Y000548D01*
X059865Y000743D01*
X059759Y000998D01*
X059759Y001273D01*
X059865Y001528D01*
X060060Y001723D01*
X060314Y001828D01*
X060590Y001828D01*
X060844Y001723D01*
X061039Y001528D01*
X061145Y001273D01*
X061145Y000998D01*
X061039Y000743D01*
X060844Y000548D01*
X060836Y000545D01*
X062824Y000545D01*
X062816Y000548D01*
X062621Y000743D01*
X062515Y000998D01*
X062515Y001273D01*
X062621Y001528D01*
X062816Y001723D01*
X063070Y001828D01*
X063346Y001828D01*
X063600Y001723D01*
X063795Y001528D01*
X063900Y001273D01*
X063900Y000998D01*
X063795Y000743D01*
X063600Y000548D01*
X063592Y000545D01*
X065608Y000545D01*
X065597Y000615D01*
X066112Y000615D01*
X066112Y000711D01*
X065597Y000711D01*
X065611Y000795D01*
X065638Y000879D01*
X065678Y000959D01*
X065731Y001030D01*
X065793Y001093D01*
X065865Y001145D01*
X065944Y001186D01*
X066029Y001213D01*
X066113Y001226D01*
X066113Y000711D01*
X066209Y000711D01*
X066724Y000711D01*
X066711Y000795D01*
X066683Y000879D01*
X066643Y000959D01*
X066591Y001030D01*
X066528Y001093D01*
X066456Y001145D01*
X066377Y001186D01*
X066293Y001213D01*
X066209Y001226D01*
X066209Y000711D01*
X066209Y000615D01*
X066724Y000615D01*
X066713Y000545D01*
X068729Y000545D01*
X068721Y000548D01*
X068526Y000743D01*
X068421Y000998D01*
X068421Y001273D01*
X068526Y001528D01*
X068721Y001723D01*
X068976Y001828D01*
X069251Y001828D01*
X069506Y001723D01*
X069701Y001528D01*
X069806Y001273D01*
X069806Y000998D01*
X069701Y000743D01*
X069506Y000548D01*
X069497Y000545D01*
X070435Y000545D01*
X070435Y001640D01*
X070525Y001730D01*
X070525Y002397D01*
X070438Y002310D01*
X070179Y002203D01*
X069898Y002203D01*
X069640Y002310D01*
X069441Y002508D01*
X069334Y002767D01*
X069334Y002940D01*
X069269Y002913D01*
X068958Y002913D01*
X068671Y003032D01*
X068451Y003252D01*
X068332Y003539D01*
X068332Y003850D01*
X068451Y004137D01*
X068671Y004357D01*
X068958Y004476D01*
X069269Y004476D01*
X069556Y004357D01*
X069776Y004137D01*
X069895Y003850D01*
X069895Y003610D01*
X069898Y003611D01*
X070179Y003611D01*
X070438Y003504D01*
X070636Y003306D01*
X070676Y003208D01*
X070681Y003212D01*
X070681Y003212D01*
X071630Y004161D01*
X071616Y004174D01*
X071616Y005340D01*
X071733Y005457D01*
X071754Y005457D01*
X071761Y005473D01*
X071975Y005687D01*
X071926Y005687D01*
X071667Y005794D01*
X071469Y005992D01*
X071362Y006251D01*
X071362Y006458D01*
X071356Y006456D01*
X071201Y006456D01*
X071059Y006515D01*
X070950Y006624D01*
X070891Y006767D01*
X070891Y006921D01*
X070950Y007064D01*
X071059Y007173D01*
X071201Y007232D01*
X071356Y007232D01*
X071499Y007173D01*
X071608Y007064D01*
X071647Y006969D01*
X071667Y006988D01*
X071926Y007096D01*
X072206Y007096D01*
X072465Y006988D01*
X072494Y006960D01*
X072494Y007089D01*
X071917Y007665D01*
X071207Y007665D01*
X071075Y007720D01*
X070974Y007821D01*
X070812Y007982D01*
X070799Y007969D01*
X069633Y007969D01*
X069516Y008086D01*
X069516Y008107D01*
X069500Y008114D01*
X069286Y008327D01*
X069286Y008279D01*
X069179Y008020D01*
X068981Y007822D01*
X068722Y007714D01*
X068442Y007714D01*
X068183Y007822D01*
X067985Y008020D01*
X067877Y008279D01*
X067877Y008559D01*
X067985Y008818D01*
X068013Y008846D01*
X067020Y008846D01*
X066914Y008846D01*
X066914Y008741D01*
X066859Y008609D01*
X065733Y007482D01*
X065733Y007242D01*
X065823Y007152D01*
X065823Y005986D01*
X065706Y005869D01*
X065040Y005869D01*
X064923Y005986D01*
X064923Y007152D01*
X065013Y007242D01*
X065013Y007703D01*
X065068Y007835D01*
X065169Y007937D01*
X066194Y008962D01*
X066194Y009061D01*
X066166Y009129D01*
X066166Y009284D01*
X066194Y009351D01*
X066194Y009528D01*
X066194Y009596D01*
X066104Y009686D01*
X066104Y010781D01*
X065803Y010781D01*
X065803Y010314D01*
X065418Y010314D01*
X065418Y010224D01*
X065418Y009589D01*
X065647Y009589D01*
X065693Y009601D01*
X065734Y009625D01*
X065767Y009658D01*
X065791Y009699D01*
X065803Y009745D01*
X065803Y010224D01*
X065418Y010224D01*
X065328Y010224D01*
X064943Y010224D01*
X064943Y009745D01*
X064956Y009699D01*
X064979Y009658D01*
X065013Y009625D01*
X065054Y009601D01*
X065099Y009589D01*
X065328Y009589D01*
X065328Y010224D01*
X065328Y010314D01*
X064943Y010314D01*
X064943Y010781D01*
X062674Y010781D01*
X062674Y010747D01*
X062866Y010747D01*
X062934Y010775D01*
X063088Y010775D01*
X063231Y010716D01*
X063340Y010607D01*
X063399Y010465D01*
X063399Y010310D01*
X063340Y010168D01*
X063231Y010058D01*
X063088Y009999D01*
X062934Y009999D01*
X062866Y010027D01*
X062674Y010027D01*
X062674Y009686D01*
X062556Y009569D01*
X061891Y009569D01*
X061774Y009686D01*
X061774Y010781D01*
X061492Y010781D01*
X061492Y009686D01*
X061402Y009596D01*
X061402Y009351D01*
X061431Y009284D01*
X061431Y009129D01*
X061402Y009061D01*
X061402Y008884D01*
X061402Y008741D01*
X061348Y008609D01*
X060221Y007482D01*
X060221Y007242D01*
X060311Y007152D01*
X060311Y005986D01*
X060194Y005869D01*
X059529Y005869D01*
X059411Y005986D01*
X059411Y007152D01*
X059501Y007242D01*
X059501Y007703D01*
X059556Y007835D01*
X059657Y007937D01*
X060683Y008962D01*
X060683Y009061D01*
X060654Y009129D01*
X060654Y009284D01*
X060683Y009351D01*
X060683Y009596D01*
X060593Y009686D01*
X060593Y010781D01*
X060291Y010781D01*
X060291Y010314D01*
X059907Y010314D01*
X059907Y010224D01*
X060291Y010224D01*
X060291Y009745D01*
X060279Y009699D01*
X060255Y009658D01*
X060222Y009625D01*
X060181Y009601D01*
X060135Y009589D01*
X059906Y009589D01*
X059906Y010224D01*
X059816Y010224D01*
X059431Y010224D01*
X059431Y009745D01*
X059444Y009699D01*
X059467Y009658D01*
X059501Y009625D01*
X059542Y009601D01*
X059588Y009589D01*
X059816Y009589D01*
X059816Y010224D01*
X059816Y010314D01*
X059431Y010314D01*
X059431Y010781D01*
X057162Y010781D01*
X057162Y010747D01*
X057354Y010747D01*
X057422Y010775D01*
X057576Y010775D01*
X057719Y010716D01*
X057828Y010607D01*
X057887Y010465D01*
X057887Y010310D01*
X057828Y010168D01*
X057719Y010058D01*
X057576Y009999D01*
X057422Y009999D01*
X057354Y010027D01*
X057162Y010027D01*
X057162Y009686D01*
X057045Y009569D01*
X056379Y009569D01*
X056262Y009686D01*
X056262Y010781D01*
X055981Y010781D01*
X055981Y009686D01*
X055891Y009596D01*
X055891Y009351D01*
X055919Y009284D01*
X055919Y009129D01*
X055891Y009061D01*
X055891Y008884D01*
X055891Y008741D01*
X055836Y008609D01*
X054710Y007482D01*
X054710Y007242D01*
X054800Y007152D01*
X054800Y005986D01*
X054682Y005869D01*
X054017Y005869D01*
X053900Y005986D01*
X053900Y007152D01*
X053990Y007242D01*
X053990Y007703D01*
X054044Y007835D01*
X054146Y007937D01*
X055171Y008962D01*
X055171Y009061D01*
X055143Y009129D01*
X055143Y009284D01*
X055171Y009351D01*
X055171Y009596D01*
X055081Y009686D01*
X055081Y010781D01*
X054780Y010781D01*
X054780Y010314D01*
X054395Y010314D01*
X054395Y010224D01*
X054780Y010224D01*
X054780Y009745D01*
X054767Y009699D01*
X054744Y009658D01*
X054710Y009625D01*
X054669Y009601D01*
X054623Y009589D01*
X054395Y009589D01*
X054395Y010224D01*
X054305Y010224D01*
X054305Y009589D01*
X054076Y009589D01*
X054030Y009601D01*
X053989Y009625D01*
X053956Y009658D01*
X053932Y009699D01*
X053920Y009745D01*
X053920Y010224D01*
X054304Y010224D01*
X054304Y010314D01*
X053920Y010314D01*
X053920Y010781D01*
X051650Y010781D01*
X051650Y010747D01*
X051842Y010747D01*
X051910Y010775D01*
X052065Y010775D01*
X052207Y010716D01*
X052316Y010607D01*
X052375Y010465D01*
X052375Y010310D01*
X052316Y010168D01*
X052207Y010058D01*
X052065Y009999D01*
X051910Y009999D01*
X051842Y010027D01*
X051650Y010027D01*
X051650Y009686D01*
X051533Y009569D01*
X050867Y009569D01*
X050750Y009686D01*
X050750Y010781D01*
X050469Y010781D01*
X050469Y009686D01*
X050379Y009596D01*
X050379Y009351D01*
X050407Y009284D01*
X050407Y009129D01*
X050379Y009061D01*
X050379Y008884D01*
X050379Y008741D01*
X050324Y008609D01*
X049198Y007482D01*
X049198Y007242D01*
X049288Y007152D01*
X049288Y005986D01*
X049171Y005869D01*
X048505Y005869D01*
X048388Y005986D01*
X048388Y007152D01*
X048478Y007242D01*
X048478Y007560D01*
X048478Y007703D01*
X048533Y007835D01*
X049659Y008962D01*
X049659Y009061D01*
X049631Y009129D01*
X049631Y009284D01*
X049659Y009351D01*
X049659Y009596D01*
X049569Y009686D01*
X049569Y010781D01*
X049268Y010781D01*
X049268Y010314D01*
X048883Y010314D01*
X048883Y010224D01*
X049268Y010224D01*
X049268Y009745D01*
X049255Y009699D01*
X049232Y009658D01*
X049198Y009625D01*
X049157Y009601D01*
X049111Y009589D01*
X048883Y009589D01*
X048883Y010224D01*
X048793Y010224D01*
X048793Y009589D01*
X048564Y009589D01*
X048518Y009601D01*
X048477Y009625D01*
X048444Y009658D01*
X048420Y009699D01*
X048408Y009745D01*
X048408Y010224D01*
X048793Y010224D01*
X048793Y010314D01*
X048408Y010314D01*
X048408Y010781D01*
X046138Y010781D01*
X046138Y010747D01*
X046331Y010747D01*
X046398Y010775D01*
X046553Y010775D01*
X046695Y010716D01*
X046805Y010607D01*
X046864Y010465D01*
X046864Y010310D01*
X046805Y010168D01*
X046695Y010058D01*
X046553Y009999D01*
X046398Y009999D01*
X046331Y010027D01*
X046138Y010027D01*
X046138Y009686D01*
X046021Y009569D01*
X045355Y009569D01*
X045238Y009686D01*
X045238Y010781D01*
X044957Y010781D01*
X044957Y009686D01*
X044867Y009596D01*
X044867Y009351D01*
X044895Y009284D01*
X044895Y009129D01*
X044867Y009061D01*
X044867Y008884D01*
X044867Y008741D01*
X044812Y008609D01*
X043686Y007482D01*
X043686Y007242D01*
X043776Y007152D01*
X043776Y005986D01*
X043659Y005869D01*
X042993Y005869D01*
X042876Y005986D01*
X042876Y007152D01*
X042966Y007242D01*
X042966Y007703D01*
X043021Y007835D01*
X043122Y007937D01*
X044147Y008962D01*
X044147Y009061D01*
X044119Y009129D01*
X044119Y009284D01*
X044147Y009351D01*
X044147Y009596D01*
X044057Y009686D01*
X044057Y010781D01*
X043756Y010781D01*
X043756Y010314D01*
X043371Y010314D01*
X043371Y010224D01*
X043756Y010224D01*
X043756Y009745D01*
X043744Y009699D01*
X043720Y009658D01*
X043686Y009625D01*
X043645Y009601D01*
X043600Y009589D01*
X043371Y009589D01*
X043371Y010224D01*
X043281Y010224D01*
X042896Y010224D01*
X042896Y009745D01*
X042908Y009699D01*
X042932Y009658D01*
X042965Y009625D01*
X043006Y009601D01*
X043052Y009589D01*
X043281Y009589D01*
X043281Y010224D01*
X043281Y010314D01*
X042896Y010314D01*
X042896Y010781D01*
X040626Y010781D01*
X040626Y010747D01*
X040819Y010747D01*
X040887Y010775D01*
X041041Y010775D01*
X041184Y010716D01*
X041293Y010607D01*
X041352Y010465D01*
X041352Y010310D01*
X041293Y010168D01*
X041184Y010058D01*
X041041Y009999D01*
X040887Y009999D01*
X040819Y010027D01*
X040626Y010027D01*
X040626Y009686D01*
X040509Y009569D01*
X039844Y009569D01*
X039726Y009686D01*
X039726Y010781D01*
X039445Y010781D01*
X039445Y009686D01*
X039355Y009596D01*
X039355Y009351D01*
X039383Y009284D01*
X039383Y009129D01*
X039355Y009061D01*
X039355Y008884D01*
X039355Y008741D01*
X039300Y008609D01*
X038174Y007482D01*
X038174Y007242D01*
X038264Y007152D01*
X038264Y005986D01*
X038147Y005869D01*
X037481Y005869D01*
X037364Y005986D01*
X037364Y007152D01*
X037454Y007242D01*
X037454Y007703D01*
X037509Y007835D01*
X037610Y007937D01*
X038635Y008962D01*
X038635Y009061D01*
X038607Y009129D01*
X038607Y009284D01*
X038635Y009351D01*
X038635Y009596D01*
X038545Y009686D01*
X038545Y010781D01*
X038244Y010781D01*
X038244Y010314D01*
X037859Y010314D01*
X037859Y010224D01*
X037859Y009589D01*
X038088Y009589D01*
X038134Y009601D01*
X038175Y009625D01*
X038208Y009658D01*
X038232Y009699D01*
X038244Y009745D01*
X038244Y010224D01*
X037859Y010224D01*
X037769Y010224D01*
X037384Y010224D01*
X037384Y009745D01*
X037396Y009699D01*
X037420Y009658D01*
X037454Y009625D01*
X037495Y009601D01*
X037540Y009589D01*
X037769Y009589D01*
X037769Y010224D01*
X037769Y010314D01*
X037384Y010314D01*
X037384Y010781D01*
X035115Y010781D01*
X035115Y010747D01*
X035307Y010747D01*
X035375Y010775D01*
X035529Y010775D01*
X035672Y010716D01*
X035781Y010607D01*
X035840Y010465D01*
X035840Y010310D01*
X035781Y010168D01*
X035672Y010058D01*
X035529Y009999D01*
X035375Y009999D01*
X035307Y010027D01*
X035115Y010027D01*
X035115Y009686D01*
X034997Y009569D01*
X034332Y009569D01*
X034215Y009686D01*
X034215Y010781D01*
X033933Y010781D01*
X033933Y009686D01*
X033843Y009596D01*
X033843Y009351D01*
X033872Y009284D01*
X033872Y009129D01*
X033843Y009061D01*
X033843Y008884D01*
X033843Y008741D01*
X033789Y008609D01*
X032662Y007482D01*
X032662Y007242D01*
X032752Y007152D01*
X032752Y005986D01*
X032635Y005869D01*
X031969Y005869D01*
X031852Y005986D01*
X031852Y007152D01*
X031942Y007242D01*
X031942Y007703D01*
X031997Y007835D01*
X032098Y007937D01*
X033123Y008962D01*
X033123Y009061D01*
X033095Y009129D01*
X033095Y009284D01*
X033123Y009351D01*
X033123Y009596D01*
X033033Y009686D01*
X033033Y010781D01*
X032732Y010781D01*
X032732Y010314D01*
X032348Y010314D01*
X032348Y010224D01*
X032732Y010224D01*
X032732Y009745D01*
X032720Y009699D01*
X032696Y009658D01*
X032663Y009625D01*
X032622Y009601D01*
X032576Y009589D01*
X032347Y009589D01*
X032347Y010224D01*
X032257Y010224D01*
X031872Y010224D01*
X031872Y009745D01*
X031885Y009699D01*
X031908Y009658D01*
X031942Y009625D01*
X031983Y009601D01*
X032029Y009589D01*
X032257Y009589D01*
X032257Y010224D01*
X032257Y010314D01*
X031872Y010314D01*
X031872Y010781D01*
X028815Y010781D01*
X028815Y010747D01*
X029008Y010747D01*
X029076Y010775D01*
X029230Y010775D01*
X029373Y010716D01*
X029482Y010607D01*
X029541Y010465D01*
X029541Y010310D01*
X029482Y010168D01*
X029373Y010058D01*
X029230Y009999D01*
X029076Y009999D01*
X029008Y010027D01*
X028815Y010027D01*
X028815Y009686D01*
X028698Y009569D01*
X028032Y009569D01*
X027915Y009686D01*
X027915Y010781D01*
X027056Y010781D01*
X026790Y010627D01*
X026551Y010388D01*
X026397Y010122D01*
X026397Y008944D01*
X027594Y008944D01*
X027711Y008827D01*
X027711Y008011D01*
X027594Y007894D01*
X026397Y007894D01*
X026397Y001204D01*
X026397Y001261D02*
X027870Y001261D01*
X027870Y001102D02*
X026456Y001102D01*
X026547Y000944D02*
X027892Y000944D01*
X027958Y000785D02*
X026703Y000785D01*
X026914Y000627D02*
X028091Y000627D01*
X029033Y000627D02*
X031467Y000627D01*
X031563Y000627D02*
X033997Y000627D01*
X033863Y000785D02*
X032066Y000785D01*
X032005Y000944D02*
X033797Y000944D01*
X033775Y001102D02*
X031869Y001102D01*
X031563Y001102D02*
X031467Y001102D01*
X031467Y000944D02*
X031563Y000944D01*
X031563Y000785D02*
X031467Y000785D01*
X031161Y001102D02*
X029255Y001102D01*
X029255Y001261D02*
X033775Y001261D01*
X033836Y001420D02*
X029194Y001420D01*
X029099Y001578D02*
X033931Y001578D01*
X034109Y001737D02*
X028921Y001737D01*
X028204Y001737D02*
X026397Y001737D01*
X026397Y001895D02*
X038317Y001895D01*
X038296Y001916D02*
X038398Y001814D01*
X038530Y001760D01*
X039922Y001760D01*
X040065Y001760D01*
X040197Y001814D01*
X040827Y002444D01*
X040983Y002444D01*
X041186Y002529D01*
X041207Y002549D01*
X041547Y002208D01*
X041680Y002153D01*
X041823Y002153D01*
X046720Y002153D01*
X047059Y001814D01*
X047191Y001760D01*
X047335Y001760D01*
X048766Y001760D01*
X048909Y001760D01*
X049042Y001814D01*
X049691Y002464D01*
X049848Y002529D01*
X049868Y002549D01*
X050209Y002208D01*
X050341Y002153D01*
X050484Y002153D01*
X055382Y002153D01*
X055720Y001814D01*
X055853Y001760D01*
X055996Y001760D01*
X057388Y001760D01*
X057520Y001814D01*
X057622Y001916D01*
X058150Y002444D01*
X058305Y002444D01*
X058509Y002529D01*
X058665Y002684D01*
X058749Y002888D01*
X058749Y003109D01*
X058665Y003312D01*
X058509Y003468D01*
X058305Y003553D01*
X058085Y003553D01*
X058031Y003531D01*
X058054Y003584D01*
X058054Y003805D01*
X058020Y003886D01*
X058070Y003869D01*
X058153Y003856D01*
X058157Y003856D01*
X058157Y004352D01*
X058233Y004352D01*
X058233Y003856D01*
X058237Y003856D01*
X058320Y003869D01*
X058400Y003895D01*
X058475Y003933D01*
X058543Y003983D01*
X058603Y004042D01*
X058652Y004110D01*
X058690Y004185D01*
X058716Y004265D01*
X058729Y004348D01*
X058729Y004352D01*
X058234Y004352D01*
X058234Y004429D01*
X058729Y004429D01*
X058729Y004433D01*
X058716Y004516D01*
X058690Y004596D01*
X058652Y004671D01*
X058603Y004739D01*
X058543Y004798D01*
X058475Y004847D01*
X058400Y004886D01*
X058320Y004912D01*
X058237Y004925D01*
X058233Y004925D01*
X058233Y004429D01*
X058157Y004429D01*
X058157Y004925D01*
X058153Y004925D01*
X058070Y004912D01*
X057990Y004886D01*
X057915Y004847D01*
X057847Y004798D01*
X057788Y004739D01*
X057738Y004671D01*
X057700Y004596D01*
X057674Y004516D01*
X057661Y004433D01*
X057661Y004429D01*
X058157Y004429D01*
X058157Y004352D01*
X057661Y004352D01*
X057661Y004348D01*
X057674Y004265D01*
X057690Y004215D01*
X057609Y004249D01*
X057389Y004249D01*
X057335Y004227D01*
X057358Y004280D01*
X057358Y004501D01*
X057273Y004704D01*
X057117Y004860D01*
X056913Y004945D01*
X056693Y004945D01*
X056489Y004860D01*
X056333Y004704D01*
X056249Y004501D01*
X056249Y004280D01*
X056333Y004076D01*
X056489Y003921D01*
X056693Y003836D01*
X056913Y003836D01*
X056967Y003858D01*
X056945Y003805D01*
X056945Y003584D01*
X056967Y003531D01*
X056913Y003553D01*
X056693Y003553D01*
X056489Y003468D01*
X056333Y003312D01*
X056249Y003109D01*
X056249Y002888D01*
X056333Y002684D01*
X056489Y002529D01*
X056607Y002480D01*
X056074Y002480D01*
X055836Y002717D01*
X055735Y002819D01*
X055602Y002873D01*
X050562Y002873D01*
X050131Y003304D01*
X049999Y003358D01*
X049958Y003358D01*
X049848Y003468D01*
X049644Y003553D01*
X049424Y003553D01*
X049370Y003531D01*
X049392Y003584D01*
X049392Y003805D01*
X049359Y003886D01*
X049409Y003869D01*
X049492Y003856D01*
X049496Y003856D01*
X049496Y004352D01*
X049572Y004352D01*
X049572Y003856D01*
X049576Y003856D01*
X049659Y003869D01*
X049739Y003895D01*
X049814Y003933D01*
X049882Y003983D01*
X049941Y004042D01*
X049991Y004110D01*
X050029Y004185D01*
X050055Y004265D01*
X050068Y004348D01*
X050068Y004352D01*
X049572Y004352D01*
X049572Y004429D01*
X049496Y004429D01*
X049496Y004925D01*
X049492Y004925D01*
X049409Y004912D01*
X049329Y004886D01*
X049254Y004847D01*
X049186Y004798D01*
X049126Y004739D01*
X049077Y004671D01*
X049039Y004596D01*
X049013Y004516D01*
X048999Y004433D01*
X048999Y004429D01*
X049495Y004429D01*
X049495Y004352D01*
X048999Y004352D01*
X048999Y004348D01*
X049013Y004265D01*
X049029Y004215D01*
X048948Y004249D01*
X048728Y004249D01*
X048674Y004227D01*
X048696Y004280D01*
X048696Y004501D01*
X048612Y004704D01*
X048456Y004860D01*
X048252Y004945D01*
X048032Y004945D01*
X047828Y004860D01*
X047672Y004704D01*
X047587Y004501D01*
X047587Y004280D01*
X047672Y004076D01*
X047828Y003921D01*
X048032Y003836D01*
X048252Y003836D01*
X048306Y003858D01*
X048283Y003805D01*
X048283Y003584D01*
X048306Y003531D01*
X048252Y003553D01*
X048032Y003553D01*
X047828Y003468D01*
X047672Y003312D01*
X047587Y003109D01*
X047587Y002888D01*
X047672Y002684D01*
X047828Y002529D01*
X047946Y002480D01*
X047412Y002480D01*
X047174Y002717D01*
X047174Y002717D01*
X047073Y002819D01*
X046941Y002873D01*
X041900Y002873D01*
X041571Y003202D01*
X041571Y003202D01*
X041470Y003304D01*
X041338Y003358D01*
X041296Y003358D01*
X041186Y003468D01*
X040983Y003553D01*
X040762Y003553D01*
X040708Y003531D01*
X040731Y003584D01*
X040731Y003805D01*
X040697Y003886D01*
X040747Y003869D01*
X040830Y003856D01*
X040834Y003856D01*
X040834Y004352D01*
X040910Y004352D01*
X040910Y003856D01*
X040914Y003856D01*
X040997Y003869D01*
X041077Y003895D01*
X041152Y003933D01*
X041220Y003983D01*
X041280Y004042D01*
X041329Y004110D01*
X041368Y004185D01*
X041394Y004265D01*
X041407Y004348D01*
X041407Y004352D01*
X040911Y004352D01*
X040911Y004429D01*
X040910Y004429D02*
X040834Y004429D01*
X040834Y004925D01*
X040830Y004925D01*
X040747Y004912D01*
X040667Y004886D01*
X040592Y004847D01*
X040524Y004798D01*
X040465Y004739D01*
X040415Y004671D01*
X040377Y004596D01*
X040351Y004516D01*
X040338Y004433D01*
X040338Y004429D01*
X040834Y004429D01*
X040834Y004352D01*
X040338Y004352D01*
X040338Y004348D01*
X040351Y004265D01*
X040367Y004215D01*
X040287Y004249D01*
X040066Y004249D01*
X040012Y004227D01*
X040035Y004280D01*
X040035Y004501D01*
X039950Y004704D01*
X039794Y004860D01*
X039591Y004945D01*
X039370Y004945D01*
X039166Y004860D01*
X039010Y004704D01*
X038926Y004501D01*
X038926Y004280D01*
X039010Y004076D01*
X039166Y003921D01*
X039370Y003836D01*
X039591Y003836D01*
X039644Y003858D01*
X039622Y003805D01*
X039622Y003584D01*
X039644Y003531D01*
X039591Y003553D01*
X039370Y003553D01*
X039166Y003468D01*
X039010Y003312D01*
X038926Y003109D01*
X038926Y002888D01*
X039010Y002684D01*
X039166Y002529D01*
X038701Y002529D01*
X038751Y002480D02*
X038412Y002819D01*
X038279Y002873D01*
X038136Y002873D01*
X033239Y002873D01*
X033008Y003104D01*
X033687Y003782D01*
X033687Y003539D01*
X033805Y003252D01*
X034025Y003032D01*
X034312Y002913D01*
X034623Y002913D01*
X034910Y003032D01*
X035130Y003252D01*
X035249Y003539D01*
X035249Y003850D01*
X035130Y004137D01*
X034910Y004357D01*
X034623Y004476D01*
X034380Y004476D01*
X034970Y005065D01*
X035025Y005198D01*
X035025Y005341D01*
X035025Y005896D01*
X035115Y005986D01*
X035115Y006090D01*
X035307Y006090D01*
X035375Y006062D01*
X035529Y006062D01*
X035672Y006121D01*
X035781Y006231D01*
X035840Y006373D01*
X035840Y006528D01*
X035781Y006670D01*
X035672Y006779D01*
X035529Y006838D01*
X035375Y006838D01*
X035307Y006810D01*
X035115Y006810D01*
X035115Y007152D01*
X034997Y007269D01*
X034332Y007269D01*
X034215Y007152D01*
X034215Y005986D01*
X034305Y005896D01*
X034305Y005418D01*
X032404Y003518D01*
X032321Y003553D01*
X032101Y003553D01*
X032047Y003531D01*
X032069Y003584D01*
X032069Y003805D01*
X032036Y003886D01*
X032086Y003869D01*
X032169Y003856D01*
X032173Y003856D01*
X032173Y004352D01*
X032249Y004352D01*
X032249Y003856D01*
X032253Y003856D01*
X032336Y003869D01*
X032416Y003895D01*
X032491Y003933D01*
X032559Y003983D01*
X032618Y004042D01*
X032668Y004110D01*
X032706Y004185D01*
X032732Y004265D01*
X032745Y004348D01*
X032745Y004352D01*
X032249Y004352D01*
X032249Y004429D01*
X032745Y004429D01*
X032745Y004433D01*
X032732Y004516D01*
X032706Y004596D01*
X032668Y004671D01*
X032618Y004739D01*
X032559Y004798D01*
X032491Y004847D01*
X032416Y004886D01*
X032343Y004909D01*
X033018Y004909D01*
X033161Y004909D01*
X033294Y004964D01*
X033687Y005358D01*
X033789Y005459D01*
X033843Y005591D01*
X033843Y005896D01*
X033933Y005986D01*
X033933Y007152D01*
X033920Y007165D01*
X034029Y007274D01*
X034097Y007302D01*
X034206Y007412D01*
X034265Y007554D01*
X034265Y007709D01*
X034206Y007851D01*
X034097Y007960D01*
X033954Y008020D01*
X033800Y008020D01*
X033657Y007960D01*
X033548Y007851D01*
X033520Y007783D01*
X033280Y007543D01*
X033178Y007442D01*
X033123Y007309D01*
X033123Y007242D01*
X033033Y007152D01*
X033033Y005986D01*
X033123Y005896D01*
X033123Y005812D01*
X032941Y005629D01*
X031837Y005629D01*
X031705Y005574D01*
X031603Y005473D01*
X031311Y005181D01*
X031210Y005079D01*
X031155Y004947D01*
X031155Y004838D01*
X031133Y004860D01*
X030929Y004945D01*
X030709Y004945D01*
X030505Y004860D01*
X030349Y004704D01*
X030265Y004501D01*
X030265Y004280D01*
X030349Y004076D01*
X030505Y003921D01*
X030709Y003836D01*
X030929Y003836D01*
X030983Y003858D01*
X030961Y003805D01*
X030961Y003584D01*
X030983Y003531D01*
X030929Y003553D01*
X030774Y003553D01*
X029906Y004420D01*
X029906Y005459D01*
X029852Y005591D01*
X029766Y005677D01*
X029738Y005745D01*
X029629Y005854D01*
X029561Y005882D01*
X028815Y006628D01*
X028815Y007151D01*
X028698Y007268D01*
X028032Y007268D01*
X027915Y007151D01*
X027915Y005986D01*
X028032Y005869D01*
X028556Y005869D01*
X029052Y005373D01*
X029080Y005305D01*
X029186Y005199D01*
X029186Y004343D01*
X029186Y004199D01*
X029204Y004158D01*
X029005Y004357D01*
X028718Y004476D01*
X028407Y004476D01*
X028120Y004357D01*
X027900Y004137D01*
X027781Y003850D01*
X027781Y003539D01*
X027900Y003252D01*
X028120Y003032D01*
X028407Y002913D01*
X028718Y002913D01*
X029005Y003032D01*
X029224Y003252D01*
X029343Y003539D01*
X029343Y003850D01*
X029262Y004046D01*
X030265Y003044D01*
X030265Y002953D01*
X030185Y002873D01*
X028121Y002873D01*
X027544Y003450D01*
X027544Y003748D01*
X027604Y003808D01*
X027679Y003990D01*
X027679Y004187D01*
X027604Y004369D01*
X027465Y004508D01*
X027283Y004583D01*
X027086Y004583D01*
X026904Y004508D01*
X026764Y004369D01*
X026689Y004187D01*
X026689Y003990D01*
X026764Y003808D01*
X026824Y003748D01*
X026824Y003372D01*
X026824Y003229D01*
X026879Y003097D01*
X027666Y002309D01*
X027768Y002208D01*
X027900Y002153D01*
X030262Y002153D01*
X030405Y002153D01*
X030538Y002208D01*
X030774Y002444D01*
X030929Y002444D01*
X031133Y002529D01*
X031289Y002684D01*
X031373Y002888D01*
X031373Y003109D01*
X031351Y003162D01*
X031405Y003140D01*
X031625Y003140D01*
X031679Y003162D01*
X031657Y003109D01*
X031657Y002888D01*
X031741Y002684D01*
X031897Y002529D01*
X032101Y002444D01*
X032321Y002444D01*
X032525Y002529D01*
X032545Y002549D01*
X032785Y002309D01*
X032886Y002208D01*
X033018Y002153D01*
X038059Y002153D01*
X038296Y001916D01*
X038158Y002054D02*
X026397Y002054D01*
X026397Y002212D02*
X027764Y002212D01*
X027605Y002371D02*
X026397Y002371D01*
X026397Y002529D02*
X027447Y002529D01*
X027288Y002688D02*
X026397Y002688D01*
X026397Y002846D02*
X027129Y002846D01*
X026971Y003005D02*
X026397Y003005D01*
X026397Y003164D02*
X026851Y003164D01*
X026824Y003322D02*
X026397Y003322D01*
X026397Y003481D02*
X026824Y003481D01*
X026824Y003639D02*
X026397Y003639D01*
X026397Y003798D02*
X026774Y003798D01*
X026703Y003956D02*
X026397Y003956D01*
X026397Y004115D02*
X026689Y004115D01*
X026725Y004273D02*
X026397Y004273D01*
X026397Y004432D02*
X026828Y004432D01*
X026397Y004590D02*
X029186Y004590D01*
X029186Y004432D02*
X028823Y004432D01*
X029088Y004273D02*
X029186Y004273D01*
X029299Y003956D02*
X029352Y003956D01*
X029343Y003798D02*
X029511Y003798D01*
X029669Y003639D02*
X029343Y003639D01*
X029319Y003481D02*
X029828Y003481D01*
X029986Y003322D02*
X029253Y003322D01*
X029136Y003164D02*
X030145Y003164D01*
X030265Y003005D02*
X028939Y003005D01*
X028186Y003005D02*
X027989Y003005D01*
X027988Y003164D02*
X027831Y003164D01*
X027871Y003322D02*
X027672Y003322D01*
X027544Y003481D02*
X027805Y003481D01*
X027781Y003639D02*
X027544Y003639D01*
X027594Y003798D02*
X027781Y003798D01*
X027825Y003956D02*
X027666Y003956D01*
X027679Y004115D02*
X027891Y004115D01*
X028036Y004273D02*
X027644Y004273D01*
X027541Y004432D02*
X028301Y004432D01*
X029186Y004749D02*
X026397Y004749D01*
X026397Y004907D02*
X029186Y004907D01*
X029186Y005066D02*
X026397Y005066D01*
X026397Y005225D02*
X029160Y005225D01*
X029042Y005383D02*
X026397Y005383D01*
X026397Y005542D02*
X028883Y005542D01*
X028725Y005700D02*
X026397Y005700D01*
X026397Y005859D02*
X028566Y005859D01*
X027915Y006017D02*
X026397Y006017D01*
X026397Y006176D02*
X027915Y006176D01*
X027915Y006334D02*
X026397Y006334D01*
X026397Y006493D02*
X027915Y006493D01*
X027915Y006651D02*
X026397Y006651D01*
X026397Y006810D02*
X027915Y006810D01*
X027915Y006969D02*
X026397Y006969D01*
X026397Y007127D02*
X027915Y007127D01*
X028815Y007127D02*
X031852Y007127D01*
X031852Y006969D02*
X028815Y006969D01*
X028815Y006810D02*
X031852Y006810D01*
X031852Y006651D02*
X028815Y006651D01*
X028950Y006493D02*
X031852Y006493D01*
X031852Y006334D02*
X029109Y006334D01*
X029267Y006176D02*
X031852Y006176D01*
X031852Y006017D02*
X029426Y006017D01*
X029617Y005859D02*
X033123Y005859D01*
X033033Y006017D02*
X032752Y006017D01*
X032752Y006176D02*
X033033Y006176D01*
X033033Y006334D02*
X032752Y006334D01*
X032752Y006493D02*
X033033Y006493D01*
X033033Y006651D02*
X032752Y006651D01*
X032752Y006810D02*
X033033Y006810D01*
X033033Y006969D02*
X032752Y006969D01*
X032752Y007127D02*
X033033Y007127D01*
X033123Y007286D02*
X032662Y007286D01*
X032662Y007444D02*
X033181Y007444D01*
X033339Y007603D02*
X032783Y007603D01*
X032941Y007761D02*
X033498Y007761D01*
X033617Y007920D02*
X033100Y007920D01*
X033258Y008078D02*
X034890Y008078D01*
X034914Y008020D02*
X035112Y007822D01*
X035371Y007714D01*
X035651Y007714D01*
X035910Y007822D01*
X036108Y008020D01*
X036215Y008279D01*
X036215Y008559D01*
X036108Y008818D01*
X035910Y009016D01*
X035651Y009123D01*
X035371Y009123D01*
X035112Y009016D01*
X034914Y008818D01*
X034807Y008559D01*
X034807Y008279D01*
X034914Y008020D01*
X035014Y007920D02*
X034138Y007920D01*
X034243Y007761D02*
X035258Y007761D01*
X035764Y007761D02*
X036715Y007761D01*
X036828Y007714D02*
X036569Y007822D01*
X036371Y008020D01*
X036263Y008279D01*
X036263Y008559D01*
X036371Y008818D01*
X036569Y009016D01*
X036828Y009123D01*
X037108Y009123D01*
X037367Y009016D01*
X037565Y008818D01*
X037672Y008559D01*
X037672Y008279D01*
X037565Y008020D01*
X037367Y007822D01*
X037108Y007714D01*
X036828Y007714D01*
X037221Y007761D02*
X037478Y007761D01*
X037465Y007920D02*
X037593Y007920D01*
X037589Y008078D02*
X037752Y008078D01*
X037655Y008237D02*
X037910Y008237D01*
X038069Y008395D02*
X037672Y008395D01*
X037672Y008554D02*
X038228Y008554D01*
X038386Y008713D02*
X037609Y008713D01*
X037512Y008871D02*
X038545Y008871D01*
X038635Y009030D02*
X037334Y009030D01*
X036601Y009030D02*
X035877Y009030D01*
X036055Y008871D02*
X036424Y008871D01*
X036327Y008713D02*
X036152Y008713D01*
X036215Y008554D02*
X036263Y008554D01*
X036263Y008395D02*
X036215Y008395D01*
X036198Y008237D02*
X036281Y008237D01*
X036346Y008078D02*
X036132Y008078D01*
X036008Y007920D02*
X036471Y007920D01*
X037454Y007603D02*
X034265Y007603D01*
X034220Y007444D02*
X037454Y007444D01*
X037454Y007286D02*
X034056Y007286D01*
X033933Y007127D02*
X034215Y007127D01*
X034215Y006969D02*
X033933Y006969D01*
X033933Y006810D02*
X034215Y006810D01*
X034215Y006651D02*
X033933Y006651D01*
X033933Y006493D02*
X034215Y006493D01*
X034215Y006334D02*
X033933Y006334D01*
X033933Y006176D02*
X034215Y006176D01*
X034215Y006017D02*
X033933Y006017D01*
X033843Y005859D02*
X034305Y005859D01*
X034305Y005700D02*
X033843Y005700D01*
X033823Y005542D02*
X034305Y005542D01*
X034269Y005383D02*
X033713Y005383D01*
X033554Y005225D02*
X034111Y005225D01*
X033952Y005066D02*
X033396Y005066D01*
X033635Y004749D02*
X032608Y004749D01*
X032708Y004590D02*
X033477Y004590D01*
X033318Y004432D02*
X032745Y004432D01*
X032733Y004273D02*
X033160Y004273D01*
X033001Y004115D02*
X032670Y004115D01*
X032522Y003956D02*
X032842Y003956D01*
X032684Y003798D02*
X032069Y003798D01*
X032069Y003639D02*
X032525Y003639D01*
X032249Y003956D02*
X032173Y003956D01*
X032173Y004115D02*
X032249Y004115D01*
X032249Y004273D02*
X032173Y004273D01*
X032349Y004907D02*
X033794Y004907D01*
X034495Y004590D02*
X038963Y004590D01*
X038926Y004432D02*
X037485Y004432D01*
X037379Y004476D02*
X037068Y004476D01*
X036781Y004357D01*
X036561Y004137D01*
X036442Y003850D01*
X036442Y003539D01*
X036561Y003252D01*
X036781Y003032D01*
X037068Y002913D01*
X037379Y002913D01*
X037666Y003032D01*
X037886Y003252D01*
X038005Y003539D01*
X038005Y003850D01*
X037886Y004137D01*
X037666Y004357D01*
X037379Y004476D01*
X036963Y004432D02*
X034729Y004432D01*
X034994Y004273D02*
X036698Y004273D01*
X036552Y004115D02*
X035139Y004115D01*
X035205Y003956D02*
X036486Y003956D01*
X036442Y003798D02*
X035249Y003798D01*
X035249Y003639D02*
X036442Y003639D01*
X036467Y003481D02*
X035225Y003481D01*
X035159Y003322D02*
X036532Y003322D01*
X036650Y003164D02*
X035041Y003164D01*
X034844Y003005D02*
X036847Y003005D01*
X037600Y003005D02*
X038926Y003005D01*
X038943Y002846D02*
X038345Y002846D01*
X038542Y002688D02*
X039009Y002688D01*
X039166Y002529D02*
X039285Y002480D01*
X038751Y002480D01*
X037582Y001737D02*
X042771Y001737D01*
X042592Y001578D02*
X037760Y001578D01*
X037856Y001420D02*
X042497Y001420D01*
X042437Y001261D02*
X037916Y001261D01*
X037916Y001102D02*
X039822Y001102D01*
X039687Y000944D02*
X037894Y000944D01*
X037828Y000785D02*
X039625Y000785D01*
X040128Y000785D02*
X040224Y000785D01*
X040225Y000627D02*
X042658Y000627D01*
X042524Y000785D02*
X040728Y000785D01*
X040666Y000944D02*
X042459Y000944D01*
X042437Y001102D02*
X040531Y001102D01*
X040224Y001102D02*
X040128Y001102D01*
X040128Y000944D02*
X040224Y000944D01*
X040128Y000627D02*
X037694Y000627D01*
X036753Y000627D02*
X034939Y000627D01*
X035072Y000785D02*
X036619Y000785D01*
X036553Y000944D02*
X035138Y000944D01*
X035160Y001102D02*
X036531Y001102D01*
X036531Y001261D02*
X035160Y001261D01*
X035100Y001420D02*
X036592Y001420D01*
X036687Y001578D02*
X035005Y001578D01*
X034826Y001737D02*
X036865Y001737D01*
X034091Y003005D02*
X033107Y003005D01*
X033068Y003164D02*
X033894Y003164D01*
X033776Y003322D02*
X033226Y003322D01*
X033385Y003481D02*
X033711Y003481D01*
X033687Y003639D02*
X033543Y003639D01*
X031657Y003005D02*
X031373Y003005D01*
X031356Y002846D02*
X031674Y002846D01*
X031740Y002688D02*
X031290Y002688D01*
X031134Y002529D02*
X031896Y002529D01*
X032526Y002529D02*
X032565Y002529D01*
X032723Y002371D02*
X030700Y002371D01*
X030542Y002212D02*
X032882Y002212D01*
X031025Y000944D02*
X029232Y000944D01*
X029167Y000785D02*
X030963Y000785D01*
X028025Y001578D02*
X026397Y001578D01*
X026397Y001420D02*
X027930Y001420D01*
X030529Y003798D02*
X030961Y003798D01*
X030961Y003639D02*
X030687Y003639D01*
X030469Y003956D02*
X030370Y003956D01*
X030333Y004115D02*
X030212Y004115D01*
X030267Y004273D02*
X030053Y004273D01*
X029906Y004432D02*
X030265Y004432D01*
X030302Y004590D02*
X029906Y004590D01*
X029906Y004749D02*
X030394Y004749D01*
X030619Y004907D02*
X029906Y004907D01*
X029906Y005066D02*
X031204Y005066D01*
X031155Y004907D02*
X031019Y004907D01*
X031355Y005225D02*
X029906Y005225D01*
X029906Y005383D02*
X031513Y005383D01*
X031672Y005542D02*
X029872Y005542D01*
X029756Y005700D02*
X033012Y005700D01*
X035025Y005700D02*
X066082Y005700D01*
X066194Y005812D02*
X065957Y005574D01*
X065855Y005473D01*
X065801Y005341D01*
X065801Y004838D01*
X065779Y004860D01*
X065575Y004945D01*
X065354Y004945D01*
X065151Y004860D01*
X064995Y004704D01*
X064910Y004501D01*
X064910Y004280D01*
X064995Y004076D01*
X065151Y003921D01*
X065354Y003836D01*
X065575Y003836D01*
X065629Y003858D01*
X065606Y003805D01*
X065606Y003584D01*
X065629Y003531D01*
X065575Y003553D01*
X065354Y003553D01*
X065151Y003468D01*
X064995Y003312D01*
X064910Y003109D01*
X064910Y002888D01*
X064995Y002684D01*
X065151Y002529D01*
X065354Y002444D01*
X065575Y002444D01*
X065779Y002529D01*
X066542Y002529D01*
X066543Y002529D02*
X066746Y002444D01*
X066967Y002444D01*
X067171Y002529D01*
X069433Y002529D01*
X069367Y002688D02*
X067328Y002688D01*
X067327Y002684D02*
X067411Y002888D01*
X067411Y003044D01*
X067887Y003520D01*
X067955Y003548D01*
X068064Y003657D01*
X068124Y003800D01*
X068124Y003955D01*
X068095Y004022D01*
X068095Y005896D01*
X068185Y005986D01*
X068185Y007152D01*
X068068Y007269D01*
X067403Y007269D01*
X067285Y007152D01*
X067285Y005986D01*
X067375Y005896D01*
X067375Y004523D01*
X067352Y004596D01*
X067314Y004671D01*
X067264Y004739D01*
X067205Y004798D01*
X067137Y004847D01*
X067062Y004886D01*
X066982Y004912D01*
X066899Y004925D01*
X066895Y004925D01*
X066895Y004429D01*
X066818Y004429D01*
X066818Y004925D01*
X066815Y004925D01*
X066731Y004912D01*
X066651Y004886D01*
X066577Y004847D01*
X066521Y004807D01*
X066521Y005120D01*
X066859Y005459D01*
X066914Y005591D01*
X066914Y005735D01*
X066914Y005896D01*
X067004Y005986D01*
X067004Y007152D01*
X066887Y007269D01*
X066221Y007269D01*
X066104Y007152D01*
X066104Y005986D01*
X066194Y005896D01*
X066194Y005812D01*
X066194Y005859D02*
X035025Y005859D01*
X035115Y006017D02*
X037364Y006017D01*
X037364Y006176D02*
X035726Y006176D01*
X035824Y006334D02*
X037364Y006334D01*
X037364Y006493D02*
X035840Y006493D01*
X035789Y006651D02*
X037364Y006651D01*
X037364Y006810D02*
X035598Y006810D01*
X035115Y006969D02*
X037364Y006969D01*
X037364Y007127D02*
X035115Y007127D01*
X034824Y008237D02*
X033417Y008237D01*
X033575Y008395D02*
X034807Y008395D01*
X034807Y008554D02*
X033734Y008554D01*
X033832Y008713D02*
X034870Y008713D01*
X034967Y008871D02*
X033843Y008871D01*
X033843Y009030D02*
X035145Y009030D01*
X033872Y009188D02*
X038607Y009188D01*
X038633Y009347D02*
X033845Y009347D01*
X033843Y009505D02*
X038635Y009505D01*
X038568Y009664D02*
X038211Y009664D01*
X038244Y009822D02*
X038545Y009822D01*
X038545Y009981D02*
X038244Y009981D01*
X038244Y010139D02*
X038545Y010139D01*
X038545Y010298D02*
X037859Y010298D01*
X037769Y010298D02*
X035835Y010298D01*
X035840Y010456D02*
X037384Y010456D01*
X037384Y010615D02*
X035773Y010615D01*
X035534Y010774D02*
X037384Y010774D01*
X037384Y010139D02*
X035753Y010139D01*
X035115Y009981D02*
X037384Y009981D01*
X037384Y009822D02*
X035115Y009822D01*
X035092Y009664D02*
X037417Y009664D01*
X037769Y009664D02*
X037859Y009664D01*
X037859Y009822D02*
X037769Y009822D01*
X037769Y009981D02*
X037859Y009981D01*
X037859Y010139D02*
X037769Y010139D01*
X038244Y010456D02*
X038545Y010456D01*
X038545Y010615D02*
X038244Y010615D01*
X038244Y010774D02*
X038545Y010774D01*
X039445Y010774D02*
X039726Y010774D01*
X039726Y010615D02*
X039445Y010615D01*
X039445Y010456D02*
X039726Y010456D01*
X039726Y010298D02*
X039445Y010298D01*
X039445Y010139D02*
X039726Y010139D01*
X039726Y009981D02*
X039445Y009981D01*
X039445Y009822D02*
X039726Y009822D01*
X039749Y009664D02*
X039423Y009664D01*
X039355Y009505D02*
X044147Y009505D01*
X044145Y009347D02*
X039357Y009347D01*
X039383Y009188D02*
X044119Y009188D01*
X044147Y009030D02*
X042846Y009030D01*
X042879Y009016D02*
X042620Y009123D01*
X042339Y009123D01*
X042081Y009016D01*
X041882Y008818D01*
X041775Y008559D01*
X041775Y008279D01*
X041882Y008020D01*
X042081Y007822D01*
X042339Y007714D01*
X042620Y007714D01*
X042879Y007822D01*
X043077Y008020D01*
X043184Y008279D01*
X043184Y008559D01*
X043077Y008818D01*
X042879Y009016D01*
X043023Y008871D02*
X044056Y008871D01*
X043898Y008713D02*
X043120Y008713D01*
X043184Y008554D02*
X043739Y008554D01*
X043581Y008395D02*
X043184Y008395D01*
X043167Y008237D02*
X043422Y008237D01*
X043264Y008078D02*
X043101Y008078D01*
X043105Y007920D02*
X042977Y007920D01*
X042990Y007761D02*
X042733Y007761D01*
X042966Y007603D02*
X039383Y007603D01*
X039383Y007554D02*
X039383Y007709D01*
X039324Y007851D01*
X039215Y007960D01*
X039072Y008020D01*
X038918Y008020D01*
X038775Y007960D01*
X038666Y007851D01*
X038607Y007709D01*
X038607Y007554D01*
X038635Y007486D01*
X038635Y007242D01*
X038545Y007152D01*
X038545Y005986D01*
X038662Y005869D01*
X039328Y005869D01*
X039445Y005986D01*
X039445Y007152D01*
X039355Y007242D01*
X039355Y007486D01*
X039383Y007554D01*
X039355Y007444D02*
X042966Y007444D01*
X042966Y007286D02*
X039355Y007286D01*
X039445Y007127D02*
X039726Y007127D01*
X039726Y007152D02*
X039726Y005986D01*
X039844Y005869D01*
X040509Y005869D01*
X040626Y005986D01*
X040626Y006090D01*
X040819Y006090D01*
X040887Y006062D01*
X041041Y006062D01*
X041184Y006121D01*
X041293Y006231D01*
X041352Y006373D01*
X041352Y006528D01*
X041293Y006670D01*
X041184Y006779D01*
X041041Y006838D01*
X040887Y006838D01*
X040819Y006810D01*
X040626Y006810D01*
X040626Y007152D01*
X040509Y007269D01*
X039844Y007269D01*
X039726Y007152D01*
X039726Y006969D02*
X039445Y006969D01*
X039445Y006810D02*
X039726Y006810D01*
X039726Y006651D02*
X039445Y006651D01*
X039445Y006493D02*
X039726Y006493D01*
X039726Y006334D02*
X039445Y006334D01*
X039445Y006176D02*
X039726Y006176D01*
X039726Y006017D02*
X039445Y006017D01*
X038545Y006017D02*
X038264Y006017D01*
X038264Y006176D02*
X038545Y006176D01*
X038545Y006334D02*
X038264Y006334D01*
X038264Y006493D02*
X038545Y006493D01*
X038545Y006651D02*
X038264Y006651D01*
X038264Y006810D02*
X038545Y006810D01*
X038545Y006969D02*
X038264Y006969D01*
X038264Y007127D02*
X038545Y007127D01*
X038635Y007286D02*
X038174Y007286D01*
X038174Y007444D02*
X038635Y007444D01*
X038607Y007603D02*
X038294Y007603D01*
X038453Y007761D02*
X038629Y007761D01*
X038612Y007920D02*
X038735Y007920D01*
X038770Y008078D02*
X040401Y008078D01*
X040426Y008020D02*
X040624Y007822D01*
X040883Y007714D01*
X041163Y007714D01*
X041422Y007822D01*
X041620Y008020D01*
X041727Y008279D01*
X041727Y008559D01*
X041620Y008818D01*
X041422Y009016D01*
X041163Y009123D01*
X040883Y009123D01*
X040624Y009016D01*
X040426Y008818D01*
X040318Y008559D01*
X040318Y008279D01*
X040426Y008020D01*
X040526Y007920D02*
X039256Y007920D01*
X039362Y007761D02*
X040770Y007761D01*
X041276Y007761D02*
X042226Y007761D01*
X041982Y007920D02*
X041520Y007920D01*
X041644Y008078D02*
X041858Y008078D01*
X041792Y008237D02*
X041710Y008237D01*
X041727Y008395D02*
X041775Y008395D01*
X041775Y008554D02*
X041727Y008554D01*
X041664Y008713D02*
X041839Y008713D01*
X041936Y008871D02*
X041567Y008871D01*
X041389Y009030D02*
X042113Y009030D01*
X042929Y009664D02*
X040604Y009664D01*
X040626Y009822D02*
X042896Y009822D01*
X042896Y009981D02*
X040626Y009981D01*
X041265Y010139D02*
X042896Y010139D01*
X042896Y010456D02*
X041352Y010456D01*
X041347Y010298D02*
X043281Y010298D01*
X043371Y010298D02*
X044057Y010298D01*
X044057Y010456D02*
X043756Y010456D01*
X043756Y010615D02*
X044057Y010615D01*
X044057Y010774D02*
X043756Y010774D01*
X042896Y010774D02*
X041046Y010774D01*
X040882Y010774D02*
X040626Y010774D01*
X041285Y010615D02*
X042896Y010615D01*
X043281Y010139D02*
X043371Y010139D01*
X043371Y009981D02*
X043281Y009981D01*
X043281Y009822D02*
X043371Y009822D01*
X043371Y009664D02*
X043281Y009664D01*
X043723Y009664D02*
X044079Y009664D01*
X044057Y009822D02*
X043756Y009822D01*
X043756Y009981D02*
X044057Y009981D01*
X044057Y010139D02*
X043756Y010139D01*
X044957Y010139D02*
X045238Y010139D01*
X045238Y009981D02*
X044957Y009981D01*
X044957Y009822D02*
X045238Y009822D01*
X045260Y009664D02*
X044935Y009664D01*
X044867Y009505D02*
X049659Y009505D01*
X049657Y009347D02*
X044869Y009347D01*
X044895Y009188D02*
X049631Y009188D01*
X049659Y009030D02*
X048358Y009030D01*
X048390Y009016D02*
X048131Y009123D01*
X047851Y009123D01*
X047592Y009016D01*
X047394Y008818D01*
X047287Y008559D01*
X047287Y008279D01*
X047394Y008020D01*
X047592Y007822D01*
X047851Y007714D01*
X048131Y007714D01*
X048390Y007822D01*
X048588Y008020D01*
X048696Y008279D01*
X048696Y008559D01*
X048588Y008818D01*
X048390Y009016D01*
X048535Y008871D02*
X049568Y008871D01*
X049410Y008713D02*
X048632Y008713D01*
X048696Y008554D02*
X049251Y008554D01*
X049093Y008395D02*
X048696Y008395D01*
X048678Y008237D02*
X048934Y008237D01*
X048776Y008078D02*
X048613Y008078D01*
X048617Y007920D02*
X048488Y007920D01*
X048502Y007761D02*
X048244Y007761D01*
X048478Y007603D02*
X044895Y007603D01*
X044895Y007554D02*
X044895Y007709D01*
X044836Y007851D01*
X044727Y007960D01*
X044584Y008020D01*
X044430Y008020D01*
X044287Y007960D01*
X044178Y007851D01*
X044119Y007709D01*
X044119Y007554D01*
X044147Y007486D01*
X044147Y007242D01*
X044057Y007152D01*
X044057Y005986D01*
X044174Y005869D01*
X044840Y005869D01*
X044957Y005986D01*
X044957Y007152D01*
X044867Y007242D01*
X044867Y007486D01*
X044895Y007554D01*
X044867Y007444D02*
X048478Y007444D01*
X048478Y007286D02*
X044867Y007286D01*
X044957Y007127D02*
X045238Y007127D01*
X045238Y007152D02*
X045238Y005986D01*
X045355Y005869D01*
X046021Y005869D01*
X046138Y005986D01*
X046138Y006090D01*
X046331Y006090D01*
X046398Y006062D01*
X046553Y006062D01*
X046695Y006121D01*
X046805Y006231D01*
X046864Y006373D01*
X046864Y006528D01*
X046805Y006670D01*
X046695Y006779D01*
X046553Y006838D01*
X046398Y006838D01*
X046331Y006810D01*
X046138Y006810D01*
X046138Y007152D01*
X046021Y007269D01*
X045355Y007269D01*
X045238Y007152D01*
X045238Y006969D02*
X044957Y006969D01*
X044957Y006810D02*
X045238Y006810D01*
X045238Y006651D02*
X044957Y006651D01*
X044957Y006493D02*
X045238Y006493D01*
X045238Y006334D02*
X044957Y006334D01*
X044957Y006176D02*
X045238Y006176D01*
X045238Y006017D02*
X044957Y006017D01*
X044057Y006017D02*
X043776Y006017D01*
X043776Y006176D02*
X044057Y006176D01*
X044057Y006334D02*
X043776Y006334D01*
X043776Y006493D02*
X044057Y006493D01*
X044057Y006651D02*
X043776Y006651D01*
X043776Y006810D02*
X044057Y006810D01*
X044057Y006969D02*
X043776Y006969D01*
X043776Y007127D02*
X044057Y007127D01*
X044147Y007286D02*
X043686Y007286D01*
X043686Y007444D02*
X044147Y007444D01*
X044119Y007603D02*
X043806Y007603D01*
X043965Y007761D02*
X044141Y007761D01*
X044123Y007920D02*
X044247Y007920D01*
X044282Y008078D02*
X045913Y008078D01*
X045937Y008020D02*
X046136Y007822D01*
X046394Y007714D01*
X046675Y007714D01*
X046934Y007822D01*
X047132Y008020D01*
X047239Y008279D01*
X047239Y008559D01*
X047132Y008818D01*
X046934Y009016D01*
X046675Y009123D01*
X046394Y009123D01*
X046136Y009016D01*
X045937Y008818D01*
X045830Y008559D01*
X045830Y008279D01*
X045937Y008020D01*
X046038Y007920D02*
X044768Y007920D01*
X044873Y007761D02*
X046282Y007761D01*
X046788Y007761D02*
X047738Y007761D01*
X047494Y007920D02*
X047032Y007920D01*
X047156Y008078D02*
X047370Y008078D01*
X047304Y008237D02*
X047222Y008237D01*
X047239Y008395D02*
X047287Y008395D01*
X047287Y008554D02*
X047239Y008554D01*
X047175Y008713D02*
X047351Y008713D01*
X047447Y008871D02*
X047079Y008871D01*
X046901Y009030D02*
X047625Y009030D01*
X048441Y009664D02*
X046116Y009664D01*
X046138Y009822D02*
X048408Y009822D01*
X048408Y009981D02*
X046138Y009981D01*
X046776Y010139D02*
X048408Y010139D01*
X048408Y010456D02*
X046864Y010456D01*
X046859Y010298D02*
X048793Y010298D01*
X048883Y010298D02*
X049569Y010298D01*
X049569Y010456D02*
X049268Y010456D01*
X049268Y010615D02*
X049569Y010615D01*
X049569Y010774D02*
X049268Y010774D01*
X048408Y010774D02*
X046557Y010774D01*
X046394Y010774D02*
X046138Y010774D01*
X046797Y010615D02*
X048408Y010615D01*
X048793Y010139D02*
X048883Y010139D01*
X048883Y009981D02*
X048793Y009981D01*
X048793Y009822D02*
X048883Y009822D01*
X048883Y009664D02*
X048793Y009664D01*
X049235Y009664D02*
X049591Y009664D01*
X049569Y009822D02*
X049268Y009822D01*
X049268Y009981D02*
X049569Y009981D01*
X049569Y010139D02*
X049268Y010139D01*
X050469Y010139D02*
X050750Y010139D01*
X050750Y009981D02*
X050469Y009981D01*
X050469Y009822D02*
X050750Y009822D01*
X050772Y009664D02*
X050447Y009664D01*
X050379Y009505D02*
X055171Y009505D01*
X055169Y009347D02*
X050381Y009347D01*
X050407Y009188D02*
X055143Y009188D01*
X055171Y009030D02*
X053869Y009030D01*
X053902Y009016D02*
X053643Y009123D01*
X053363Y009123D01*
X053104Y009016D01*
X052906Y008818D01*
X052799Y008559D01*
X052799Y008279D01*
X052906Y008020D01*
X053104Y007822D01*
X053363Y007714D01*
X053643Y007714D01*
X053902Y007822D01*
X054100Y008020D01*
X054208Y008279D01*
X054208Y008559D01*
X054100Y008818D01*
X053902Y009016D01*
X054047Y008871D02*
X055080Y008871D01*
X054922Y008713D02*
X054144Y008713D01*
X054208Y008554D02*
X054763Y008554D01*
X054604Y008395D02*
X054208Y008395D01*
X054190Y008237D02*
X054446Y008237D01*
X054287Y008078D02*
X054124Y008078D01*
X054129Y007920D02*
X054000Y007920D01*
X054014Y007761D02*
X053756Y007761D01*
X053990Y007603D02*
X050407Y007603D01*
X050407Y007554D02*
X050407Y007709D01*
X050348Y007851D01*
X050239Y007960D01*
X050096Y008020D01*
X049942Y008020D01*
X049799Y007960D01*
X049690Y007851D01*
X049631Y007709D01*
X049631Y007554D01*
X049659Y007486D01*
X049659Y007242D01*
X049569Y007152D01*
X049569Y005986D01*
X049686Y005869D01*
X050352Y005869D01*
X050469Y005986D01*
X050469Y007152D01*
X050379Y007242D01*
X050379Y007486D01*
X050407Y007554D01*
X050379Y007444D02*
X053990Y007444D01*
X053990Y007286D02*
X050379Y007286D01*
X050469Y007127D02*
X050750Y007127D01*
X050750Y007152D02*
X050750Y005986D01*
X050867Y005869D01*
X051533Y005869D01*
X051650Y005986D01*
X051650Y006090D01*
X051842Y006090D01*
X051910Y006062D01*
X052065Y006062D01*
X052207Y006121D01*
X052316Y006231D01*
X052375Y006373D01*
X052375Y006528D01*
X052316Y006670D01*
X052207Y006779D01*
X052065Y006838D01*
X051910Y006838D01*
X051842Y006810D01*
X051650Y006810D01*
X051650Y007152D01*
X051533Y007269D01*
X050867Y007269D01*
X050750Y007152D01*
X050750Y006969D02*
X050469Y006969D01*
X050469Y006810D02*
X050750Y006810D01*
X050750Y006651D02*
X050469Y006651D01*
X050469Y006493D02*
X050750Y006493D01*
X050750Y006334D02*
X050469Y006334D01*
X050469Y006176D02*
X050750Y006176D01*
X050750Y006017D02*
X050469Y006017D01*
X049569Y006017D02*
X049288Y006017D01*
X049288Y006176D02*
X049569Y006176D01*
X049569Y006334D02*
X049288Y006334D01*
X049288Y006493D02*
X049569Y006493D01*
X049569Y006651D02*
X049288Y006651D01*
X049288Y006810D02*
X049569Y006810D01*
X049569Y006969D02*
X049288Y006969D01*
X049288Y007127D02*
X049569Y007127D01*
X049659Y007286D02*
X049198Y007286D01*
X049198Y007444D02*
X049659Y007444D01*
X049631Y007603D02*
X049318Y007603D01*
X049477Y007761D02*
X049653Y007761D01*
X049635Y007920D02*
X049758Y007920D01*
X049794Y008078D02*
X051425Y008078D01*
X051449Y008020D02*
X051647Y007822D01*
X051906Y007714D01*
X052187Y007714D01*
X052445Y007822D01*
X052644Y008020D01*
X052751Y008279D01*
X052751Y008559D01*
X052644Y008818D01*
X052445Y009016D01*
X052187Y009123D01*
X051906Y009123D01*
X051647Y009016D01*
X051449Y008818D01*
X051342Y008559D01*
X051342Y008279D01*
X051449Y008020D01*
X051549Y007920D02*
X050279Y007920D01*
X050385Y007761D02*
X051793Y007761D01*
X052299Y007761D02*
X053250Y007761D01*
X053006Y007920D02*
X052544Y007920D01*
X052668Y008078D02*
X052882Y008078D01*
X052816Y008237D02*
X052733Y008237D01*
X052751Y008395D02*
X052799Y008395D01*
X052799Y008554D02*
X052751Y008554D01*
X052687Y008713D02*
X052862Y008713D01*
X052959Y008871D02*
X052590Y008871D01*
X052413Y009030D02*
X053137Y009030D01*
X053952Y009664D02*
X051628Y009664D01*
X051650Y009822D02*
X053920Y009822D01*
X053920Y009981D02*
X051650Y009981D01*
X052288Y010139D02*
X053920Y010139D01*
X053920Y010456D02*
X052375Y010456D01*
X052370Y010298D02*
X054304Y010298D01*
X054395Y010298D02*
X055081Y010298D01*
X055081Y010456D02*
X054780Y010456D01*
X054780Y010615D02*
X055081Y010615D01*
X055081Y010774D02*
X054780Y010774D01*
X055981Y010774D02*
X056262Y010774D01*
X056262Y010615D02*
X055981Y010615D01*
X055981Y010456D02*
X056262Y010456D01*
X056262Y010298D02*
X055981Y010298D01*
X055981Y010139D02*
X056262Y010139D01*
X056262Y009981D02*
X055981Y009981D01*
X055981Y009822D02*
X056262Y009822D01*
X056284Y009664D02*
X055958Y009664D01*
X055891Y009505D02*
X060683Y009505D01*
X060681Y009347D02*
X055893Y009347D01*
X055919Y009188D02*
X060654Y009188D01*
X060683Y009030D02*
X059381Y009030D01*
X059414Y009016D02*
X059155Y009123D01*
X058875Y009123D01*
X058616Y009016D01*
X058418Y008818D01*
X058311Y008559D01*
X058311Y008279D01*
X058418Y008020D01*
X058616Y007822D01*
X058875Y007714D01*
X059155Y007714D01*
X059414Y007822D01*
X059612Y008020D01*
X059719Y008279D01*
X059719Y008559D01*
X059612Y008818D01*
X059414Y009016D01*
X059559Y008871D02*
X060592Y008871D01*
X060433Y008713D02*
X059656Y008713D01*
X059719Y008554D02*
X060275Y008554D01*
X060116Y008395D02*
X059719Y008395D01*
X059702Y008237D02*
X059958Y008237D01*
X059799Y008078D02*
X059636Y008078D01*
X059641Y007920D02*
X059512Y007920D01*
X059526Y007761D02*
X059268Y007761D01*
X059501Y007603D02*
X055919Y007603D01*
X055919Y007554D02*
X055919Y007709D01*
X055860Y007851D01*
X055751Y007960D01*
X055608Y008020D01*
X055453Y008020D01*
X055311Y007960D01*
X055202Y007851D01*
X055143Y007709D01*
X055143Y007554D01*
X055171Y007486D01*
X055171Y007242D01*
X055081Y007152D01*
X055081Y005986D01*
X055198Y005869D01*
X055864Y005869D01*
X055981Y005986D01*
X055981Y007152D01*
X055891Y007242D01*
X055891Y007486D01*
X055919Y007554D01*
X055891Y007444D02*
X059501Y007444D01*
X059501Y007286D02*
X055891Y007286D01*
X055981Y007127D02*
X056262Y007127D01*
X056262Y007152D02*
X056262Y005986D01*
X056379Y005869D01*
X057045Y005869D01*
X057162Y005986D01*
X057162Y006090D01*
X057354Y006090D01*
X057422Y006062D01*
X057576Y006062D01*
X057719Y006121D01*
X057828Y006231D01*
X057887Y006373D01*
X057887Y006528D01*
X057828Y006670D01*
X057719Y006779D01*
X057576Y006838D01*
X057422Y006838D01*
X057354Y006810D01*
X057162Y006810D01*
X057162Y007152D01*
X057045Y007269D01*
X056379Y007269D01*
X056262Y007152D01*
X056262Y006969D02*
X055981Y006969D01*
X055981Y006810D02*
X056262Y006810D01*
X056262Y006651D02*
X055981Y006651D01*
X055981Y006493D02*
X056262Y006493D01*
X056262Y006334D02*
X055981Y006334D01*
X055981Y006176D02*
X056262Y006176D01*
X056262Y006017D02*
X055981Y006017D01*
X055081Y006017D02*
X054800Y006017D01*
X054800Y006176D02*
X055081Y006176D01*
X055081Y006334D02*
X054800Y006334D01*
X054800Y006493D02*
X055081Y006493D01*
X055081Y006651D02*
X054800Y006651D01*
X054800Y006810D02*
X055081Y006810D01*
X055081Y006969D02*
X054800Y006969D01*
X054800Y007127D02*
X055081Y007127D01*
X055171Y007286D02*
X054710Y007286D01*
X054710Y007444D02*
X055171Y007444D01*
X055143Y007603D02*
X054830Y007603D01*
X054988Y007761D02*
X055164Y007761D01*
X055147Y007920D02*
X055270Y007920D01*
X055306Y008078D02*
X056937Y008078D01*
X056961Y008020D02*
X057159Y007822D01*
X057418Y007714D01*
X057698Y007714D01*
X057957Y007822D01*
X058155Y008020D01*
X058263Y008279D01*
X058263Y008559D01*
X058155Y008818D01*
X057957Y009016D01*
X057698Y009123D01*
X057418Y009123D01*
X057159Y009016D01*
X056961Y008818D01*
X056854Y008559D01*
X056854Y008279D01*
X056961Y008020D01*
X057061Y007920D02*
X055791Y007920D01*
X055897Y007761D02*
X057305Y007761D01*
X057811Y007761D02*
X058762Y007761D01*
X058518Y007920D02*
X058055Y007920D01*
X058180Y008078D02*
X058394Y008078D01*
X058328Y008237D02*
X058245Y008237D01*
X058263Y008395D02*
X058311Y008395D01*
X058311Y008554D02*
X058263Y008554D01*
X058199Y008713D02*
X058374Y008713D01*
X058471Y008871D02*
X058102Y008871D01*
X057924Y009030D02*
X058649Y009030D01*
X059464Y009664D02*
X057140Y009664D01*
X057162Y009822D02*
X059431Y009822D01*
X059431Y009981D02*
X057162Y009981D01*
X057800Y010139D02*
X059431Y010139D01*
X059431Y010456D02*
X057887Y010456D01*
X057882Y010298D02*
X059816Y010298D01*
X059907Y010298D02*
X060593Y010298D01*
X060593Y010456D02*
X060291Y010456D01*
X060291Y010615D02*
X060593Y010615D01*
X060593Y010774D02*
X060291Y010774D01*
X059431Y010774D02*
X057581Y010774D01*
X057417Y010774D02*
X057162Y010774D01*
X057820Y010615D02*
X059431Y010615D01*
X059816Y010139D02*
X059906Y010139D01*
X059906Y009981D02*
X059816Y009981D01*
X059816Y009822D02*
X059906Y009822D01*
X059906Y009664D02*
X059816Y009664D01*
X060259Y009664D02*
X060615Y009664D01*
X060593Y009822D02*
X060291Y009822D01*
X060291Y009981D02*
X060593Y009981D01*
X060593Y010139D02*
X060291Y010139D01*
X061492Y010139D02*
X061774Y010139D01*
X061774Y009981D02*
X061492Y009981D01*
X061492Y009822D02*
X061774Y009822D01*
X061796Y009664D02*
X061470Y009664D01*
X061402Y009505D02*
X066194Y009505D01*
X066192Y009347D02*
X061404Y009347D01*
X061431Y009188D02*
X066166Y009188D01*
X066194Y009030D02*
X064893Y009030D01*
X064926Y009016D02*
X064667Y009123D01*
X064387Y009123D01*
X064128Y009016D01*
X063930Y008818D01*
X063822Y008559D01*
X063822Y008279D01*
X063930Y008020D01*
X064128Y007822D01*
X064387Y007714D01*
X064667Y007714D01*
X064926Y007822D01*
X065124Y008020D01*
X065231Y008279D01*
X065231Y008559D01*
X065124Y008818D01*
X064926Y009016D01*
X065071Y008871D02*
X066104Y008871D01*
X065945Y008713D02*
X065168Y008713D01*
X065231Y008554D02*
X065787Y008554D01*
X065628Y008395D02*
X065231Y008395D01*
X065214Y008237D02*
X065470Y008237D01*
X065311Y008078D02*
X065148Y008078D01*
X065152Y007920D02*
X065024Y007920D01*
X065037Y007761D02*
X064780Y007761D01*
X065013Y007603D02*
X061431Y007603D01*
X061431Y007554D02*
X061431Y007709D01*
X061371Y007851D01*
X061262Y007960D01*
X061120Y008020D01*
X060965Y008020D01*
X060823Y007960D01*
X060714Y007851D01*
X060654Y007709D01*
X060654Y007554D01*
X060683Y007486D01*
X060683Y007242D01*
X060593Y007152D01*
X060593Y005986D01*
X060710Y005869D01*
X061375Y005869D01*
X061492Y005986D01*
X061492Y007152D01*
X061402Y007242D01*
X061402Y007486D01*
X061431Y007554D01*
X061402Y007444D02*
X065013Y007444D01*
X065013Y007286D02*
X061402Y007286D01*
X061492Y007127D02*
X061774Y007127D01*
X061774Y007152D02*
X061774Y005986D01*
X061891Y005869D01*
X062556Y005869D01*
X062674Y005986D01*
X062674Y006090D01*
X062866Y006090D01*
X062934Y006062D01*
X063088Y006062D01*
X063231Y006121D01*
X063340Y006231D01*
X063399Y006373D01*
X063399Y006528D01*
X063340Y006670D01*
X063231Y006779D01*
X063088Y006838D01*
X062934Y006838D01*
X062866Y006810D01*
X062674Y006810D01*
X062674Y007152D01*
X062556Y007269D01*
X061891Y007269D01*
X061774Y007152D01*
X061774Y006969D02*
X061492Y006969D01*
X061492Y006810D02*
X061774Y006810D01*
X061774Y006651D02*
X061492Y006651D01*
X061492Y006493D02*
X061774Y006493D01*
X061774Y006334D02*
X061492Y006334D01*
X061492Y006176D02*
X061774Y006176D01*
X061774Y006017D02*
X061492Y006017D01*
X062674Y006017D02*
X064923Y006017D01*
X064923Y006176D02*
X063285Y006176D01*
X063383Y006334D02*
X064923Y006334D01*
X064923Y006493D02*
X063399Y006493D01*
X063348Y006651D02*
X064923Y006651D01*
X064923Y006810D02*
X063157Y006810D01*
X062674Y006969D02*
X064923Y006969D01*
X064923Y007127D02*
X062674Y007127D01*
X062930Y007714D02*
X063210Y007714D01*
X063469Y007822D01*
X063667Y008020D01*
X063774Y008279D01*
X063774Y008559D01*
X063667Y008818D01*
X063469Y009016D01*
X063210Y009123D01*
X062930Y009123D01*
X062671Y009016D01*
X062473Y008818D01*
X062366Y008559D01*
X062366Y008279D01*
X062473Y008020D01*
X062671Y007822D01*
X062930Y007714D01*
X062817Y007761D02*
X061409Y007761D01*
X061303Y007920D02*
X062573Y007920D01*
X062449Y008078D02*
X060817Y008078D01*
X060782Y007920D02*
X060659Y007920D01*
X060676Y007761D02*
X060500Y007761D01*
X060654Y007603D02*
X060342Y007603D01*
X060221Y007444D02*
X060683Y007444D01*
X060683Y007286D02*
X060221Y007286D01*
X060311Y007127D02*
X060593Y007127D01*
X060593Y006969D02*
X060311Y006969D01*
X060311Y006810D02*
X060593Y006810D01*
X060593Y006651D02*
X060311Y006651D01*
X060311Y006493D02*
X060593Y006493D01*
X060593Y006334D02*
X060311Y006334D01*
X060311Y006176D02*
X060593Y006176D01*
X060593Y006017D02*
X060311Y006017D01*
X059411Y006017D02*
X057162Y006017D01*
X057774Y006176D02*
X059411Y006176D01*
X059411Y006334D02*
X057871Y006334D01*
X057887Y006493D02*
X059411Y006493D01*
X059411Y006651D02*
X057836Y006651D01*
X057645Y006810D02*
X059411Y006810D01*
X059411Y006969D02*
X057162Y006969D01*
X057162Y007127D02*
X059411Y007127D01*
X060976Y008237D02*
X062383Y008237D01*
X062366Y008395D02*
X061134Y008395D01*
X061293Y008554D02*
X062366Y008554D01*
X062429Y008713D02*
X061391Y008713D01*
X061402Y008871D02*
X062526Y008871D01*
X062704Y009030D02*
X061402Y009030D01*
X062651Y009664D02*
X064976Y009664D01*
X064943Y009822D02*
X062674Y009822D01*
X062674Y009981D02*
X064943Y009981D01*
X064943Y010139D02*
X063312Y010139D01*
X063394Y010298D02*
X065328Y010298D01*
X065418Y010298D02*
X066104Y010298D01*
X066104Y010456D02*
X065803Y010456D01*
X065803Y010615D02*
X066104Y010615D01*
X066104Y010774D02*
X065803Y010774D01*
X064943Y010774D02*
X063093Y010774D01*
X062929Y010774D02*
X062674Y010774D01*
X063332Y010615D02*
X064943Y010615D01*
X064943Y010456D02*
X063399Y010456D01*
X061774Y010456D02*
X061492Y010456D01*
X061492Y010298D02*
X061774Y010298D01*
X061774Y010615D02*
X061492Y010615D01*
X061492Y010774D02*
X061774Y010774D01*
X065328Y010139D02*
X065418Y010139D01*
X065418Y009981D02*
X065328Y009981D01*
X065328Y009822D02*
X065418Y009822D01*
X065418Y009664D02*
X065328Y009664D01*
X065770Y009664D02*
X066127Y009664D01*
X066104Y009822D02*
X065803Y009822D01*
X065803Y009981D02*
X066104Y009981D01*
X066104Y010139D02*
X065803Y010139D01*
X064161Y009030D02*
X063436Y009030D01*
X063614Y008871D02*
X063983Y008871D01*
X063886Y008713D02*
X063711Y008713D01*
X063774Y008554D02*
X063822Y008554D01*
X063822Y008395D02*
X063774Y008395D01*
X063757Y008237D02*
X063840Y008237D01*
X063905Y008078D02*
X063691Y008078D01*
X063567Y007920D02*
X064030Y007920D01*
X064274Y007761D02*
X063323Y007761D01*
X065733Y007444D02*
X069536Y007444D01*
X069536Y007511D02*
X069536Y007283D01*
X070171Y007283D01*
X070171Y007668D01*
X069692Y007668D01*
X069647Y007655D01*
X069606Y007632D01*
X069572Y007598D01*
X069548Y007557D01*
X069536Y007511D01*
X069576Y007603D02*
X065854Y007603D01*
X066012Y007761D02*
X068329Y007761D01*
X068085Y007920D02*
X066171Y007920D01*
X066329Y008078D02*
X067960Y008078D01*
X067895Y008237D02*
X066488Y008237D01*
X066646Y008395D02*
X067877Y008395D01*
X067877Y008554D02*
X066805Y008554D01*
X066902Y008713D02*
X067941Y008713D01*
X069269Y008237D02*
X069377Y008237D01*
X069524Y008078D02*
X069203Y008078D01*
X069079Y007920D02*
X070875Y007920D01*
X071034Y007761D02*
X068835Y007761D01*
X069536Y007286D02*
X065733Y007286D01*
X065823Y007127D02*
X066104Y007127D01*
X066104Y006969D02*
X065823Y006969D01*
X065823Y006810D02*
X066104Y006810D01*
X066104Y006651D02*
X065823Y006651D01*
X065823Y006493D02*
X066104Y006493D01*
X066104Y006334D02*
X065823Y006334D01*
X065823Y006176D02*
X066104Y006176D01*
X066104Y006017D02*
X065823Y006017D01*
X065924Y005542D02*
X035025Y005542D01*
X035025Y005383D02*
X065818Y005383D01*
X065801Y005225D02*
X035025Y005225D01*
X034970Y005066D02*
X065801Y005066D01*
X065801Y004907D02*
X065665Y004907D01*
X065264Y004907D02*
X058333Y004907D01*
X058233Y004907D02*
X058157Y004907D01*
X058057Y004907D02*
X057004Y004907D01*
X057229Y004749D02*
X057798Y004749D01*
X057698Y004590D02*
X057320Y004590D01*
X057358Y004432D02*
X057661Y004432D01*
X057673Y004273D02*
X057355Y004273D01*
X058157Y004273D02*
X058233Y004273D01*
X058233Y004115D02*
X058157Y004115D01*
X058157Y003956D02*
X058233Y003956D01*
X058054Y003798D02*
X059671Y003798D01*
X059671Y003850D02*
X059671Y003539D01*
X059790Y003252D01*
X060009Y003032D01*
X060297Y002913D01*
X060607Y002913D01*
X060894Y003032D01*
X061114Y003252D01*
X061233Y003539D01*
X061233Y003850D01*
X061114Y004137D01*
X060894Y004357D01*
X060607Y004476D01*
X060297Y004476D01*
X060009Y004357D01*
X059790Y004137D01*
X059671Y003850D01*
X059715Y003956D02*
X058507Y003956D01*
X058654Y004115D02*
X059781Y004115D01*
X059926Y004273D02*
X058718Y004273D01*
X058729Y004432D02*
X060191Y004432D01*
X060713Y004432D02*
X062947Y004432D01*
X063052Y004476D02*
X062765Y004357D01*
X062546Y004137D01*
X062427Y003850D01*
X062427Y003539D01*
X062546Y003252D01*
X062765Y003032D01*
X063052Y002913D01*
X063363Y002913D01*
X063650Y003032D01*
X063870Y003252D01*
X063989Y003539D01*
X063989Y003850D01*
X063870Y004137D01*
X063650Y004357D01*
X063363Y004476D01*
X063052Y004476D01*
X063469Y004432D02*
X064910Y004432D01*
X064913Y004273D02*
X063734Y004273D01*
X063879Y004115D02*
X064979Y004115D01*
X065115Y003956D02*
X063945Y003956D01*
X063989Y003798D02*
X065606Y003798D01*
X065606Y003639D02*
X063989Y003639D01*
X063965Y003481D02*
X065180Y003481D01*
X065004Y003322D02*
X063899Y003322D01*
X063782Y003164D02*
X064933Y003164D01*
X064910Y003005D02*
X063584Y003005D01*
X062831Y003005D02*
X060829Y003005D01*
X061026Y003164D02*
X062634Y003164D01*
X062517Y003322D02*
X061143Y003322D01*
X061209Y003481D02*
X062451Y003481D01*
X062427Y003639D02*
X061233Y003639D01*
X061233Y003798D02*
X062427Y003798D01*
X062471Y003956D02*
X061189Y003956D01*
X061123Y004115D02*
X062536Y004115D01*
X062682Y004273D02*
X060978Y004273D01*
X059671Y003639D02*
X058054Y003639D01*
X058480Y003481D02*
X059695Y003481D01*
X059761Y003322D02*
X058656Y003322D01*
X058727Y003164D02*
X059878Y003164D01*
X060075Y003005D02*
X058749Y003005D01*
X058732Y002846D02*
X064928Y002846D01*
X064993Y002688D02*
X058666Y002688D01*
X058510Y002529D02*
X065150Y002529D01*
X065779Y002529D02*
X065935Y002684D01*
X066019Y002888D01*
X066019Y003109D01*
X065997Y003162D01*
X066050Y003140D01*
X066271Y003140D01*
X066325Y003162D01*
X066302Y003109D01*
X066302Y002888D01*
X066387Y002684D01*
X066543Y002529D01*
X066385Y002688D02*
X065936Y002688D01*
X066002Y002846D02*
X066320Y002846D01*
X066302Y003005D02*
X066019Y003005D01*
X067171Y002529D02*
X067327Y002684D01*
X067394Y002846D02*
X069334Y002846D01*
X068737Y003005D02*
X067411Y003005D01*
X067531Y003164D02*
X068540Y003164D01*
X068422Y003322D02*
X067689Y003322D01*
X067848Y003481D02*
X068356Y003481D01*
X068332Y003639D02*
X068046Y003639D01*
X068122Y003798D02*
X068332Y003798D01*
X068376Y003956D02*
X068123Y003956D01*
X068095Y004115D02*
X068442Y004115D01*
X068587Y004273D02*
X068095Y004273D01*
X068095Y004432D02*
X068852Y004432D01*
X069374Y004432D02*
X070455Y004432D01*
X070455Y004590D02*
X068095Y004590D01*
X068095Y004749D02*
X070840Y004749D01*
X070840Y004712D02*
X070455Y004712D01*
X070455Y004233D01*
X070467Y004188D01*
X070491Y004147D01*
X070524Y004113D01*
X070566Y004089D01*
X070611Y004077D01*
X070840Y004077D01*
X070840Y004712D01*
X070930Y004712D01*
X070930Y004077D01*
X071159Y004077D01*
X071204Y004089D01*
X071246Y004113D01*
X071279Y004147D01*
X071303Y004188D01*
X071315Y004233D01*
X071315Y004712D01*
X070930Y004712D01*
X070930Y004802D01*
X071315Y004802D01*
X071315Y005281D01*
X071303Y005327D01*
X071279Y005368D01*
X071246Y005401D01*
X071204Y005425D01*
X071159Y005437D01*
X070930Y005437D01*
X070930Y004802D01*
X070840Y004802D01*
X070840Y004712D01*
X070840Y004802D02*
X070455Y004802D01*
X070455Y005281D01*
X070467Y005327D01*
X070491Y005368D01*
X070524Y005401D01*
X070566Y005425D01*
X070611Y005437D01*
X070840Y005437D01*
X070840Y004802D01*
X070930Y004749D02*
X071616Y004749D01*
X071616Y004907D02*
X071315Y004907D01*
X071315Y005066D02*
X071616Y005066D01*
X071616Y005225D02*
X071315Y005225D01*
X071264Y005383D02*
X071659Y005383D01*
X071829Y005542D02*
X068095Y005542D01*
X068095Y005700D02*
X071894Y005700D01*
X071603Y005859D02*
X068095Y005859D01*
X068185Y006017D02*
X071459Y006017D01*
X071393Y006176D02*
X068185Y006176D01*
X068185Y006334D02*
X071362Y006334D01*
X071112Y006493D02*
X068185Y006493D01*
X068185Y006651D02*
X070938Y006651D01*
X070891Y006810D02*
X070748Y006810D01*
X070740Y006808D02*
X070786Y006820D01*
X070827Y006844D01*
X070860Y006877D01*
X070884Y006918D01*
X070896Y006964D01*
X070896Y007193D01*
X070261Y007193D01*
X070261Y007283D01*
X070171Y007283D01*
X070171Y007193D01*
X069536Y007193D01*
X069536Y006964D01*
X069548Y006918D01*
X069572Y006877D01*
X069606Y006844D01*
X069647Y006820D01*
X069692Y006808D01*
X070171Y006808D01*
X070171Y007193D01*
X070261Y007193D01*
X070261Y006808D01*
X070740Y006808D01*
X070896Y006969D02*
X070910Y006969D01*
X070896Y007127D02*
X071013Y007127D01*
X070896Y007283D02*
X070261Y007283D01*
X070261Y007668D01*
X070740Y007668D01*
X070786Y007655D01*
X070827Y007632D01*
X070860Y007598D01*
X070884Y007557D01*
X070896Y007511D01*
X070896Y007283D01*
X070896Y007286D02*
X072297Y007286D01*
X072455Y007127D02*
X071545Y007127D01*
X072138Y007444D02*
X070896Y007444D01*
X070856Y007603D02*
X071979Y007603D01*
X072485Y006969D02*
X072494Y006969D01*
X070261Y006969D02*
X070171Y006969D01*
X070171Y007127D02*
X070261Y007127D01*
X070261Y007286D02*
X070171Y007286D01*
X070171Y007444D02*
X070261Y007444D01*
X070261Y007603D02*
X070171Y007603D01*
X069536Y007127D02*
X068185Y007127D01*
X068185Y006969D02*
X069536Y006969D01*
X069684Y006810D02*
X068185Y006810D01*
X067285Y006810D02*
X067004Y006810D01*
X067004Y006651D02*
X067285Y006651D01*
X067285Y006493D02*
X067004Y006493D01*
X067004Y006334D02*
X067285Y006334D01*
X067285Y006176D02*
X067004Y006176D01*
X067004Y006017D02*
X067285Y006017D01*
X067375Y005859D02*
X066914Y005859D01*
X066914Y005700D02*
X067375Y005700D01*
X067375Y005542D02*
X066894Y005542D01*
X066784Y005383D02*
X067375Y005383D01*
X067375Y005225D02*
X066625Y005225D01*
X066521Y005066D02*
X067375Y005066D01*
X067375Y004907D02*
X066994Y004907D01*
X066895Y004907D02*
X066818Y004907D01*
X066719Y004907D02*
X066521Y004907D01*
X066818Y004749D02*
X066895Y004749D01*
X066895Y004590D02*
X066818Y004590D01*
X066818Y004432D02*
X066895Y004432D01*
X066895Y004352D02*
X066895Y003856D01*
X066899Y003856D01*
X066982Y003869D01*
X067062Y003895D01*
X067137Y003933D01*
X067205Y003983D01*
X067264Y004042D01*
X067314Y004110D01*
X067352Y004185D01*
X067375Y004258D01*
X067375Y004026D01*
X066902Y003553D01*
X066746Y003553D01*
X066693Y003531D01*
X066715Y003584D01*
X066715Y003805D01*
X066681Y003886D01*
X066731Y003869D01*
X066815Y003856D01*
X066818Y003856D01*
X066818Y004352D01*
X066895Y004352D01*
X066895Y004273D02*
X066818Y004273D01*
X066818Y004115D02*
X066895Y004115D01*
X066895Y003956D02*
X066818Y003956D01*
X066715Y003798D02*
X067147Y003798D01*
X067168Y003956D02*
X067305Y003956D01*
X067316Y004115D02*
X067375Y004115D01*
X066988Y003639D02*
X066715Y003639D01*
X067353Y004590D02*
X067375Y004590D01*
X067375Y004749D02*
X067254Y004749D01*
X068095Y004907D02*
X070455Y004907D01*
X070455Y005066D02*
X068095Y005066D01*
X068095Y005225D02*
X070455Y005225D01*
X070506Y005383D02*
X068095Y005383D01*
X069639Y004273D02*
X070455Y004273D01*
X070523Y004115D02*
X069785Y004115D01*
X069851Y003956D02*
X071425Y003956D01*
X071267Y003798D02*
X069895Y003798D01*
X069895Y003639D02*
X071108Y003639D01*
X070949Y003481D02*
X070461Y003481D01*
X070620Y003322D02*
X070791Y003322D01*
X070840Y004115D02*
X070930Y004115D01*
X070930Y004273D02*
X070840Y004273D01*
X070840Y004432D02*
X070930Y004432D01*
X070930Y004590D02*
X070840Y004590D01*
X070840Y004907D02*
X070930Y004907D01*
X070930Y005066D02*
X070840Y005066D01*
X070840Y005225D02*
X070930Y005225D01*
X070930Y005383D02*
X070840Y005383D01*
X071315Y004590D02*
X071616Y004590D01*
X071616Y004432D02*
X071315Y004432D01*
X071315Y004273D02*
X071616Y004273D01*
X071584Y004115D02*
X071247Y004115D01*
X070525Y002371D02*
X070498Y002371D01*
X070525Y002212D02*
X070202Y002212D01*
X069875Y002212D02*
X057918Y002212D01*
X057759Y002054D02*
X070525Y002054D01*
X070525Y001895D02*
X057601Y001895D01*
X058077Y002371D02*
X069579Y002371D01*
X069472Y001737D02*
X070525Y001737D01*
X070435Y001578D02*
X069650Y001578D01*
X069745Y001420D02*
X070435Y001420D01*
X070435Y001261D02*
X069806Y001261D01*
X069806Y001102D02*
X070435Y001102D01*
X070435Y000944D02*
X069784Y000944D01*
X069718Y000785D02*
X070435Y000785D01*
X070435Y000627D02*
X069584Y000627D01*
X068642Y000627D02*
X066209Y000627D01*
X066112Y000627D02*
X063679Y000627D01*
X063812Y000785D02*
X065609Y000785D01*
X065671Y000944D02*
X063878Y000944D01*
X063900Y001102D02*
X065806Y001102D01*
X066113Y001102D02*
X066209Y001102D01*
X066209Y000944D02*
X066113Y000944D01*
X066113Y000785D02*
X066209Y000785D01*
X066515Y001102D02*
X068421Y001102D01*
X068421Y001261D02*
X063900Y001261D01*
X063840Y001420D02*
X068481Y001420D01*
X068577Y001578D02*
X063745Y001578D01*
X063566Y001737D02*
X068755Y001737D01*
X068443Y000944D02*
X066650Y000944D01*
X066712Y000785D02*
X068509Y000785D01*
X062849Y001737D02*
X060810Y001737D01*
X060989Y001578D02*
X062671Y001578D01*
X062576Y001420D02*
X061084Y001420D01*
X061145Y001261D02*
X062515Y001261D01*
X062515Y001102D02*
X061145Y001102D01*
X061122Y000944D02*
X062538Y000944D01*
X062603Y000785D02*
X061057Y000785D01*
X060923Y000627D02*
X062737Y000627D01*
X059981Y000627D02*
X057547Y000627D01*
X057451Y000627D02*
X055017Y000627D01*
X055151Y000785D02*
X056948Y000785D01*
X057010Y000944D02*
X055217Y000944D01*
X055239Y001102D02*
X057145Y001102D01*
X057451Y001102D02*
X057547Y001102D01*
X057547Y000944D02*
X057451Y000944D01*
X057451Y000785D02*
X057547Y000785D01*
X057854Y001102D02*
X059759Y001102D01*
X059759Y001261D02*
X055239Y001261D01*
X055178Y001420D02*
X059820Y001420D01*
X059915Y001578D02*
X055083Y001578D01*
X054905Y001737D02*
X060094Y001737D01*
X059782Y000944D02*
X057989Y000944D01*
X058051Y000785D02*
X059847Y000785D01*
X055640Y001895D02*
X049122Y001895D01*
X049281Y002054D02*
X055481Y002054D01*
X056024Y002529D02*
X056488Y002529D01*
X056332Y002688D02*
X055865Y002688D01*
X055667Y002846D02*
X056266Y002846D01*
X056249Y003005D02*
X054923Y003005D01*
X054989Y003032D02*
X055209Y003252D01*
X055328Y003539D01*
X055328Y003850D01*
X055209Y004137D01*
X054989Y004357D01*
X054702Y004476D01*
X054391Y004476D01*
X054104Y004357D01*
X053884Y004137D01*
X053765Y003850D01*
X053765Y003539D01*
X053884Y003252D01*
X054104Y003032D01*
X054391Y002913D01*
X054702Y002913D01*
X054989Y003032D01*
X055120Y003164D02*
X056272Y003164D01*
X056343Y003322D02*
X055238Y003322D01*
X055303Y003481D02*
X056519Y003481D01*
X056945Y003639D02*
X055328Y003639D01*
X055328Y003798D02*
X056945Y003798D01*
X056454Y003956D02*
X055284Y003956D01*
X055218Y004115D02*
X056317Y004115D01*
X056252Y004273D02*
X055072Y004273D01*
X054808Y004432D02*
X056249Y004432D01*
X056286Y004590D02*
X050031Y004590D01*
X050029Y004596D02*
X049991Y004671D01*
X049941Y004739D01*
X049882Y004798D01*
X049814Y004847D01*
X049739Y004886D01*
X049659Y004912D01*
X049576Y004925D01*
X049572Y004925D01*
X049572Y004429D01*
X050068Y004429D01*
X050068Y004433D01*
X050055Y004516D01*
X050029Y004596D01*
X050068Y004432D02*
X051529Y004432D01*
X051635Y004476D02*
X051348Y004357D01*
X051128Y004137D01*
X051009Y003850D01*
X051009Y003539D01*
X051128Y003252D01*
X051348Y003032D01*
X051635Y002913D01*
X051946Y002913D01*
X052233Y003032D01*
X052453Y003252D01*
X052572Y003539D01*
X052572Y003850D01*
X052453Y004137D01*
X052233Y004357D01*
X051946Y004476D01*
X051635Y004476D01*
X052052Y004432D02*
X054285Y004432D01*
X054021Y004273D02*
X052316Y004273D01*
X052462Y004115D02*
X053875Y004115D01*
X053809Y003956D02*
X052528Y003956D01*
X052572Y003798D02*
X053765Y003798D01*
X053765Y003639D02*
X052572Y003639D01*
X052547Y003481D02*
X053789Y003481D01*
X053855Y003322D02*
X052482Y003322D01*
X052364Y003164D02*
X053973Y003164D01*
X054170Y003005D02*
X052167Y003005D01*
X051414Y003005D02*
X050430Y003005D01*
X050272Y003164D02*
X051217Y003164D01*
X051099Y003322D02*
X050087Y003322D01*
X049818Y003481D02*
X051034Y003481D01*
X051009Y003639D02*
X049392Y003639D01*
X049392Y003798D02*
X051009Y003798D01*
X051053Y003956D02*
X049845Y003956D01*
X049993Y004115D02*
X051119Y004115D01*
X051265Y004273D02*
X050056Y004273D01*
X049572Y004273D02*
X049496Y004273D01*
X049496Y004115D02*
X049572Y004115D01*
X049572Y003956D02*
X049496Y003956D01*
X049011Y004273D02*
X048693Y004273D01*
X048696Y004432D02*
X048999Y004432D01*
X049037Y004590D02*
X048659Y004590D01*
X048567Y004749D02*
X049137Y004749D01*
X049396Y004907D02*
X048342Y004907D01*
X047942Y004907D02*
X041010Y004907D01*
X040997Y004912D02*
X040914Y004925D01*
X040910Y004925D01*
X040910Y004429D01*
X040911Y004429D02*
X041407Y004429D01*
X041407Y004433D01*
X041394Y004516D01*
X041368Y004596D01*
X041329Y004671D01*
X041280Y004739D01*
X041220Y004798D01*
X041152Y004847D01*
X041077Y004886D01*
X040997Y004912D01*
X040910Y004907D02*
X040834Y004907D01*
X040734Y004907D02*
X039681Y004907D01*
X039906Y004749D02*
X040475Y004749D01*
X040376Y004590D02*
X039998Y004590D01*
X040035Y004432D02*
X040338Y004432D01*
X040350Y004273D02*
X040032Y004273D01*
X040834Y004273D02*
X040910Y004273D01*
X040910Y004115D02*
X040834Y004115D01*
X040834Y003956D02*
X040910Y003956D01*
X040731Y003798D02*
X042348Y003798D01*
X042348Y003850D02*
X042348Y003539D01*
X042467Y003252D01*
X042687Y003032D01*
X042974Y002913D01*
X043285Y002913D01*
X043572Y003032D01*
X043791Y003252D01*
X043910Y003539D01*
X043910Y003850D01*
X043791Y004137D01*
X043572Y004357D01*
X043285Y004476D01*
X042974Y004476D01*
X042687Y004357D01*
X042467Y004137D01*
X042348Y003850D01*
X042392Y003956D02*
X041184Y003956D01*
X041332Y004115D02*
X042458Y004115D01*
X042603Y004273D02*
X041395Y004273D01*
X041407Y004432D02*
X042868Y004432D01*
X043390Y004432D02*
X045624Y004432D01*
X045730Y004476D02*
X045443Y004357D01*
X045223Y004137D01*
X045104Y003850D01*
X045104Y003539D01*
X045223Y003252D01*
X045443Y003032D01*
X045730Y002913D01*
X046040Y002913D01*
X046328Y003032D01*
X046547Y003252D01*
X046666Y003539D01*
X046666Y003850D01*
X046547Y004137D01*
X046328Y004357D01*
X046040Y004476D01*
X045730Y004476D01*
X046146Y004432D02*
X047587Y004432D01*
X047590Y004273D02*
X046411Y004273D01*
X046556Y004115D02*
X047656Y004115D01*
X047792Y003956D02*
X046622Y003956D01*
X046666Y003798D02*
X048283Y003798D01*
X048283Y003639D02*
X046666Y003639D01*
X046642Y003481D02*
X047857Y003481D01*
X047681Y003322D02*
X046576Y003322D01*
X046459Y003164D02*
X047610Y003164D01*
X047587Y003005D02*
X046262Y003005D01*
X045508Y003005D02*
X043506Y003005D01*
X043703Y003164D02*
X045311Y003164D01*
X045194Y003322D02*
X043820Y003322D01*
X043886Y003481D02*
X045128Y003481D01*
X045104Y003639D02*
X043910Y003639D01*
X043910Y003798D02*
X045104Y003798D01*
X045148Y003956D02*
X043866Y003956D01*
X043801Y004115D02*
X045214Y004115D01*
X045359Y004273D02*
X043655Y004273D01*
X042348Y003639D02*
X040731Y003639D01*
X041157Y003481D02*
X042372Y003481D01*
X042438Y003322D02*
X041426Y003322D01*
X041610Y003164D02*
X042555Y003164D01*
X042752Y003005D02*
X041769Y003005D01*
X041226Y002529D02*
X041187Y002529D01*
X041385Y002371D02*
X040754Y002371D01*
X040595Y002212D02*
X041543Y002212D01*
X040437Y002054D02*
X046820Y002054D01*
X046978Y001895D02*
X040278Y001895D01*
X038949Y003164D02*
X037797Y003164D01*
X037915Y003322D02*
X039020Y003322D01*
X039196Y003481D02*
X037981Y003481D01*
X038005Y003639D02*
X039622Y003639D01*
X039622Y003798D02*
X038005Y003798D01*
X037961Y003956D02*
X039131Y003956D01*
X038995Y004115D02*
X037895Y004115D01*
X037749Y004273D02*
X038929Y004273D01*
X039055Y004749D02*
X034653Y004749D01*
X034812Y004907D02*
X039280Y004907D01*
X040834Y004749D02*
X040910Y004749D01*
X040910Y004590D02*
X040834Y004590D01*
X040834Y004432D02*
X040910Y004432D01*
X041269Y004749D02*
X047716Y004749D01*
X047625Y004590D02*
X041369Y004590D01*
X040626Y006017D02*
X042876Y006017D01*
X042876Y006176D02*
X041238Y006176D01*
X041336Y006334D02*
X042876Y006334D01*
X042876Y006493D02*
X041352Y006493D01*
X041301Y006651D02*
X042876Y006651D01*
X042876Y006810D02*
X041110Y006810D01*
X040626Y006969D02*
X042876Y006969D01*
X042876Y007127D02*
X040626Y007127D01*
X040336Y008237D02*
X038929Y008237D01*
X039087Y008395D02*
X040318Y008395D01*
X040318Y008554D02*
X039246Y008554D01*
X039343Y008713D02*
X040382Y008713D01*
X040479Y008871D02*
X039355Y008871D01*
X039355Y009030D02*
X040657Y009030D01*
X044440Y008237D02*
X045848Y008237D01*
X045830Y008395D02*
X044599Y008395D01*
X044758Y008554D02*
X045830Y008554D01*
X045894Y008713D02*
X044855Y008713D01*
X044867Y008871D02*
X045991Y008871D01*
X046168Y009030D02*
X044867Y009030D01*
X044957Y010298D02*
X045238Y010298D01*
X045238Y010456D02*
X044957Y010456D01*
X044957Y010615D02*
X045238Y010615D01*
X045238Y010774D02*
X044957Y010774D01*
X050469Y010774D02*
X050750Y010774D01*
X050750Y010615D02*
X050469Y010615D01*
X050469Y010456D02*
X050750Y010456D01*
X050750Y010298D02*
X050469Y010298D01*
X051650Y010774D02*
X051906Y010774D01*
X052069Y010774D02*
X053920Y010774D01*
X053920Y010615D02*
X052309Y010615D01*
X054305Y010139D02*
X054395Y010139D01*
X054395Y009981D02*
X054305Y009981D01*
X054305Y009822D02*
X054395Y009822D01*
X054395Y009664D02*
X054305Y009664D01*
X054747Y009664D02*
X055103Y009664D01*
X055081Y009822D02*
X054780Y009822D01*
X054780Y009981D02*
X055081Y009981D01*
X055081Y010139D02*
X054780Y010139D01*
X055891Y009030D02*
X057192Y009030D01*
X057014Y008871D02*
X055891Y008871D01*
X055879Y008713D02*
X056917Y008713D01*
X056854Y008554D02*
X055781Y008554D01*
X055623Y008395D02*
X056854Y008395D01*
X056871Y008237D02*
X055464Y008237D01*
X053900Y007127D02*
X051650Y007127D01*
X051650Y006969D02*
X053900Y006969D01*
X053900Y006810D02*
X052133Y006810D01*
X052324Y006651D02*
X053900Y006651D01*
X053900Y006493D02*
X052375Y006493D01*
X052359Y006334D02*
X053900Y006334D01*
X053900Y006176D02*
X052262Y006176D01*
X051650Y006017D02*
X053900Y006017D01*
X056378Y004749D02*
X049931Y004749D01*
X049672Y004907D02*
X056603Y004907D01*
X058157Y004749D02*
X058233Y004749D01*
X058233Y004590D02*
X058157Y004590D01*
X058157Y004432D02*
X058233Y004432D01*
X058592Y004749D02*
X065039Y004749D01*
X064947Y004590D02*
X058692Y004590D01*
X054188Y001737D02*
X052149Y001737D01*
X052327Y001578D02*
X054010Y001578D01*
X053914Y001420D02*
X052423Y001420D01*
X052483Y001261D02*
X053854Y001261D01*
X053854Y001102D02*
X052483Y001102D01*
X052461Y000944D02*
X053876Y000944D01*
X053942Y000785D02*
X052395Y000785D01*
X052261Y000627D02*
X054076Y000627D01*
X051320Y000627D02*
X048886Y000627D01*
X048790Y000627D02*
X046356Y000627D01*
X046490Y000785D02*
X048286Y000785D01*
X048348Y000944D02*
X046555Y000944D01*
X046578Y001102D02*
X048483Y001102D01*
X048790Y001102D02*
X048886Y001102D01*
X048886Y000944D02*
X048790Y000944D01*
X048790Y000785D02*
X048886Y000785D01*
X049192Y001102D02*
X051098Y001102D01*
X051098Y001261D02*
X046578Y001261D01*
X046517Y001420D02*
X051159Y001420D01*
X051254Y001578D02*
X046422Y001578D01*
X046243Y001737D02*
X051432Y001737D01*
X050205Y002212D02*
X049439Y002212D01*
X049598Y002371D02*
X050046Y002371D01*
X049888Y002529D02*
X049849Y002529D01*
X047827Y002529D02*
X047362Y002529D01*
X047204Y002688D02*
X047670Y002688D01*
X047605Y002846D02*
X047006Y002846D01*
X045527Y001737D02*
X043488Y001737D01*
X043666Y001578D02*
X045348Y001578D01*
X045253Y001420D02*
X043761Y001420D01*
X043822Y001261D02*
X045192Y001261D01*
X045192Y001102D02*
X043822Y001102D01*
X043799Y000944D02*
X045215Y000944D01*
X045280Y000785D02*
X043734Y000785D01*
X043600Y000627D02*
X045414Y000627D01*
X049327Y000944D02*
X051120Y000944D01*
X051186Y000785D02*
X049389Y000785D01*
X049496Y004432D02*
X049572Y004432D01*
X049572Y004590D02*
X049496Y004590D01*
X049496Y004749D02*
X049572Y004749D01*
X049572Y004907D02*
X049496Y004907D01*
X048388Y006017D02*
X046138Y006017D01*
X046750Y006176D02*
X048388Y006176D01*
X048388Y006334D02*
X046848Y006334D01*
X046864Y006493D02*
X048388Y006493D01*
X048388Y006651D02*
X046812Y006651D01*
X046622Y006810D02*
X048388Y006810D01*
X048388Y006969D02*
X046138Y006969D01*
X046138Y007127D02*
X048388Y007127D01*
X049952Y008237D02*
X051359Y008237D01*
X051342Y008395D02*
X050111Y008395D01*
X050269Y008554D02*
X051342Y008554D01*
X051406Y008713D02*
X050367Y008713D01*
X050379Y008871D02*
X051502Y008871D01*
X051680Y009030D02*
X050379Y009030D01*
X035370Y010774D02*
X035115Y010774D01*
X034215Y010774D02*
X033933Y010774D01*
X033933Y010615D02*
X034215Y010615D01*
X034215Y010456D02*
X033933Y010456D01*
X033933Y010298D02*
X034215Y010298D01*
X034215Y010139D02*
X033933Y010139D01*
X033933Y009981D02*
X034215Y009981D01*
X034215Y009822D02*
X033933Y009822D01*
X033911Y009664D02*
X034237Y009664D01*
X033123Y009505D02*
X026397Y009505D01*
X026397Y009347D02*
X033122Y009347D01*
X033095Y009188D02*
X026397Y009188D01*
X026397Y009030D02*
X031090Y009030D01*
X031057Y009016D02*
X030859Y008818D01*
X030770Y008604D01*
X030770Y008827D01*
X030653Y008944D01*
X029137Y008944D01*
X029020Y008827D01*
X029020Y008011D01*
X029137Y007894D01*
X030653Y007894D01*
X030770Y008011D01*
X030770Y008234D01*
X030859Y008020D01*
X031057Y007822D01*
X031316Y007714D01*
X031596Y007714D01*
X031855Y007822D01*
X032053Y008020D01*
X032160Y008279D01*
X032160Y008559D01*
X032053Y008818D01*
X031855Y009016D01*
X031596Y009123D01*
X031316Y009123D01*
X031057Y009016D01*
X030912Y008871D02*
X030726Y008871D01*
X030770Y008713D02*
X030815Y008713D01*
X031822Y009030D02*
X033123Y009030D01*
X033033Y008871D02*
X032000Y008871D01*
X032097Y008713D02*
X032874Y008713D01*
X032716Y008554D02*
X032160Y008554D01*
X032160Y008395D02*
X032557Y008395D01*
X032399Y008237D02*
X032143Y008237D01*
X032077Y008078D02*
X032240Y008078D01*
X032082Y007920D02*
X031953Y007920D01*
X031966Y007761D02*
X031709Y007761D01*
X031942Y007603D02*
X026397Y007603D01*
X026397Y007761D02*
X031203Y007761D01*
X030959Y007920D02*
X030679Y007920D01*
X030770Y008078D02*
X030834Y008078D01*
X031942Y007444D02*
X026397Y007444D01*
X026397Y007286D02*
X031942Y007286D01*
X029111Y007920D02*
X027620Y007920D01*
X027711Y008078D02*
X029020Y008078D01*
X029020Y008237D02*
X027711Y008237D01*
X027711Y008395D02*
X029020Y008395D01*
X029020Y008554D02*
X027711Y008554D01*
X027711Y008713D02*
X029020Y008713D01*
X029064Y008871D02*
X027666Y008871D01*
X027938Y009664D02*
X026397Y009664D01*
X026397Y009822D02*
X027915Y009822D01*
X027915Y009981D02*
X026397Y009981D01*
X026407Y010139D02*
X027915Y010139D01*
X027915Y010298D02*
X026499Y010298D01*
X026619Y010456D02*
X027915Y010456D01*
X027915Y010615D02*
X026777Y010615D01*
X027043Y010774D02*
X027915Y010774D01*
X028815Y010774D02*
X029071Y010774D01*
X029235Y010774D02*
X031872Y010774D01*
X031872Y010615D02*
X029474Y010615D01*
X029541Y010456D02*
X031872Y010456D01*
X031872Y010139D02*
X029454Y010139D01*
X029536Y010298D02*
X032257Y010298D01*
X032348Y010298D02*
X033033Y010298D01*
X033033Y010456D02*
X032732Y010456D01*
X032732Y010615D02*
X033033Y010615D01*
X033033Y010774D02*
X032732Y010774D01*
X032732Y010139D02*
X033033Y010139D01*
X033033Y009981D02*
X032732Y009981D01*
X032732Y009822D02*
X033033Y009822D01*
X033056Y009664D02*
X032699Y009664D01*
X032347Y009664D02*
X032257Y009664D01*
X032257Y009822D02*
X032347Y009822D01*
X032347Y009981D02*
X032257Y009981D01*
X032257Y010139D02*
X032347Y010139D01*
X031872Y009981D02*
X028815Y009981D01*
X028815Y009822D02*
X031872Y009822D01*
X031905Y009664D02*
X028793Y009664D01*
X067004Y007127D02*
X067285Y007127D01*
X067285Y006969D02*
X067004Y006969D01*
X070171Y006810D02*
X070261Y006810D01*
M02*
