G75*
G70*
%OFA0B0*%
%FSLAX24Y24*%
%IPPOS*%
%LPD*%
%AMOC8*
5,1,8,0,0,1.08239X$1,22.5*
%
%ADD10C,0.0060*%
%ADD11C,0.0160*%
%ADD12C,0.0040*%
%ADD13C,0.0030*%
%ADD14C,0.0050*%
%ADD15C,0.0020*%
D10*
X057923Y001106D02*
X057923Y001319D01*
X058030Y001426D01*
X057923Y001643D02*
X058350Y001643D01*
X058563Y001857D01*
X058350Y002070D01*
X057923Y002070D01*
X057923Y002288D02*
X058563Y002288D01*
X057923Y002715D01*
X058563Y002715D01*
X058243Y002070D02*
X058243Y001643D01*
X058457Y001426D02*
X058563Y001319D01*
X058563Y001106D01*
X058457Y000999D01*
X058030Y000999D01*
X057923Y001106D01*
X060639Y001027D02*
X060639Y001240D01*
X060746Y001347D01*
X060639Y001565D02*
X061066Y001565D01*
X061280Y001778D01*
X061066Y001992D01*
X060639Y001992D01*
X060639Y002209D02*
X061280Y002209D01*
X060639Y002636D01*
X061280Y002636D01*
X060960Y001992D02*
X060960Y001565D01*
X061173Y001347D02*
X061280Y001240D01*
X061280Y001027D01*
X061173Y000920D01*
X060746Y000920D01*
X060639Y001027D01*
X060639Y003498D02*
X061066Y003498D01*
X061280Y003712D01*
X061066Y003925D01*
X060639Y003925D01*
X060960Y003925D02*
X060960Y003498D01*
X058563Y003684D02*
X058457Y003577D01*
X058563Y003684D02*
X058563Y003897D01*
X058457Y004004D01*
X058350Y004004D01*
X057923Y003577D01*
X057923Y004004D01*
D11*
X060255Y003964D02*
X060255Y004388D01*
X060255Y004782D02*
X060255Y005206D01*
X060255Y005599D02*
X060255Y006023D01*
X060255Y006417D02*
X060255Y006841D01*
X060255Y007235D02*
X060255Y007659D01*
X060255Y008052D02*
X060255Y008476D01*
X060255Y008870D02*
X060255Y009294D01*
X060255Y009688D02*
X060255Y010112D01*
X060255Y010505D02*
X060255Y010929D01*
X060255Y003570D02*
X060255Y003146D01*
X060255Y002753D02*
X060255Y002329D01*
X060255Y001935D02*
X060255Y001511D01*
X060255Y001117D02*
X060255Y000693D01*
D12*
X059055Y005153D02*
X058881Y005153D01*
X058794Y005240D01*
X058794Y005326D01*
X058881Y005413D01*
X059141Y005413D01*
X059141Y005240D02*
X059055Y005153D01*
X059141Y005240D02*
X059141Y005586D01*
X059055Y005673D01*
X058881Y005673D01*
X058794Y005586D01*
X058626Y005673D02*
X058279Y005673D01*
X058452Y005673D02*
X058452Y005153D01*
X058279Y005326D01*
X058110Y005326D02*
X058023Y005413D01*
X058110Y005500D01*
X058110Y005586D01*
X058023Y005673D01*
X057850Y005673D01*
X057763Y005586D01*
X057594Y005413D02*
X057247Y005413D01*
X057079Y005153D02*
X056732Y005673D01*
X057079Y005673D02*
X056732Y005153D01*
X057763Y005240D02*
X057850Y005153D01*
X058023Y005153D01*
X058110Y005240D01*
X058110Y005326D01*
X058023Y005413D02*
X057937Y005413D01*
X062244Y005153D02*
X062591Y005673D01*
X062759Y005413D02*
X063106Y005413D01*
X063275Y005240D02*
X063362Y005153D01*
X063535Y005153D01*
X063622Y005240D01*
X063622Y005326D01*
X063535Y005413D01*
X063622Y005500D01*
X063622Y005586D01*
X063535Y005673D01*
X063362Y005673D01*
X063275Y005586D01*
X063448Y005413D02*
X063535Y005413D01*
X063791Y005240D02*
X063877Y005153D01*
X064051Y005153D01*
X064137Y005240D01*
X064137Y005326D01*
X063791Y005673D01*
X064137Y005673D01*
X064306Y005586D02*
X064653Y005240D01*
X064653Y005586D01*
X064566Y005673D01*
X064393Y005673D01*
X064306Y005586D01*
X064306Y005240D01*
X064393Y005153D01*
X064566Y005153D01*
X064653Y005240D01*
X062591Y005153D02*
X062244Y005673D01*
X067755Y005673D02*
X068102Y005153D01*
X068271Y005413D02*
X068618Y005413D01*
X068787Y005240D02*
X068873Y005153D01*
X069047Y005153D01*
X069134Y005240D01*
X069134Y005326D01*
X069047Y005413D01*
X069134Y005500D01*
X069134Y005586D01*
X069047Y005673D01*
X068873Y005673D01*
X068787Y005586D01*
X068960Y005413D02*
X069047Y005413D01*
X069302Y005240D02*
X069389Y005153D01*
X069563Y005153D01*
X069649Y005240D01*
X069649Y005326D01*
X069302Y005673D01*
X069649Y005673D01*
X069818Y005673D02*
X070165Y005673D01*
X069991Y005673D02*
X069991Y005153D01*
X069818Y005326D01*
X068102Y005673D02*
X067755Y005153D01*
X073267Y005153D02*
X073614Y005673D01*
X073783Y005413D02*
X074130Y005413D01*
X074299Y005240D02*
X074385Y005153D01*
X074559Y005153D01*
X074645Y005240D01*
X074645Y005326D01*
X074559Y005413D01*
X074645Y005500D01*
X074645Y005586D01*
X074559Y005673D01*
X074385Y005673D01*
X074299Y005586D01*
X074472Y005413D02*
X074559Y005413D01*
X074814Y005240D02*
X074901Y005153D01*
X075074Y005153D01*
X075161Y005240D01*
X075161Y005326D01*
X074814Y005673D01*
X075161Y005673D01*
X075330Y005673D02*
X075677Y005326D01*
X075677Y005240D01*
X075590Y005153D01*
X075416Y005153D01*
X075330Y005240D01*
X075330Y005673D02*
X075677Y005673D01*
X073614Y005153D02*
X073267Y005673D01*
X053629Y005500D02*
X053629Y005586D01*
X053543Y005673D01*
X053369Y005673D01*
X053283Y005586D01*
X053283Y005500D01*
X053369Y005413D01*
X053543Y005413D01*
X053629Y005500D01*
X053543Y005413D02*
X053629Y005326D01*
X053629Y005240D01*
X053543Y005153D01*
X053369Y005153D01*
X053283Y005240D01*
X053283Y005326D01*
X053369Y005413D01*
X053114Y005673D02*
X052767Y005673D01*
X052940Y005673D02*
X052940Y005153D01*
X052767Y005326D01*
X052598Y005326D02*
X052511Y005413D01*
X052598Y005500D01*
X052598Y005586D01*
X052511Y005673D01*
X052338Y005673D01*
X052251Y005586D01*
X052083Y005413D02*
X051736Y005413D01*
X051567Y005153D02*
X051220Y005673D01*
X051567Y005673D02*
X051220Y005153D01*
X052251Y005240D02*
X052338Y005153D01*
X052511Y005153D01*
X052598Y005240D01*
X052598Y005326D01*
X052511Y005413D02*
X052425Y005413D01*
X048118Y005240D02*
X047771Y005586D01*
X047771Y005673D01*
X047602Y005673D02*
X047255Y005673D01*
X047429Y005673D02*
X047429Y005153D01*
X047255Y005326D01*
X047086Y005326D02*
X047000Y005413D01*
X047086Y005500D01*
X047086Y005586D01*
X047000Y005673D01*
X046826Y005673D01*
X046739Y005586D01*
X046571Y005413D02*
X046224Y005413D01*
X046055Y005153D02*
X045708Y005673D01*
X046055Y005673D02*
X045708Y005153D01*
X046739Y005240D02*
X046826Y005153D01*
X047000Y005153D01*
X047086Y005240D01*
X047086Y005326D01*
X047000Y005413D02*
X046913Y005413D01*
X047771Y005153D02*
X048118Y005153D01*
X048118Y005240D01*
X042606Y005153D02*
X042432Y005240D01*
X042259Y005413D01*
X042519Y005413D01*
X042606Y005500D01*
X042606Y005586D01*
X042519Y005673D01*
X042346Y005673D01*
X042259Y005586D01*
X042259Y005413D01*
X042090Y005673D02*
X041743Y005673D01*
X041917Y005673D02*
X041917Y005153D01*
X041743Y005326D01*
X041575Y005326D02*
X041488Y005413D01*
X041575Y005500D01*
X041575Y005586D01*
X041488Y005673D01*
X041314Y005673D01*
X041228Y005586D01*
X041059Y005413D02*
X040712Y005413D01*
X040543Y005153D02*
X040196Y005673D01*
X040543Y005673D02*
X040196Y005153D01*
X041228Y005240D02*
X041314Y005153D01*
X041488Y005153D01*
X041575Y005240D01*
X041575Y005326D01*
X041488Y005413D02*
X041401Y005413D01*
X037094Y005413D02*
X037094Y005586D01*
X037007Y005673D01*
X036834Y005673D01*
X036747Y005586D01*
X036747Y005413D02*
X036921Y005326D01*
X037007Y005326D01*
X037094Y005413D01*
X037094Y005153D02*
X036747Y005153D01*
X036747Y005413D01*
X036578Y005673D02*
X036231Y005673D01*
X036405Y005673D02*
X036405Y005153D01*
X036231Y005326D01*
X036063Y005326D02*
X035976Y005413D01*
X036063Y005500D01*
X036063Y005586D01*
X035976Y005673D01*
X035803Y005673D01*
X035716Y005586D01*
X035547Y005413D02*
X035200Y005413D01*
X035031Y005153D02*
X034685Y005673D01*
X035031Y005673D02*
X034685Y005153D01*
X035716Y005240D02*
X035803Y005153D01*
X035976Y005153D01*
X036063Y005240D01*
X036063Y005326D01*
X035976Y005413D02*
X035889Y005413D01*
X031582Y005413D02*
X031235Y005413D01*
X031495Y005153D01*
X031495Y005673D01*
X031067Y005673D02*
X030720Y005673D01*
X030893Y005673D02*
X030893Y005153D01*
X030720Y005326D01*
X030551Y005326D02*
X030464Y005413D01*
X030551Y005500D01*
X030551Y005586D01*
X030464Y005673D01*
X030291Y005673D01*
X030204Y005586D01*
X030035Y005413D02*
X029688Y005413D01*
X029520Y005153D02*
X029173Y005673D01*
X029520Y005673D02*
X029173Y005153D01*
X030204Y005240D02*
X030291Y005153D01*
X030464Y005153D01*
X030551Y005240D01*
X030551Y005326D01*
X030464Y005413D02*
X030377Y005413D01*
X037834Y002350D02*
X038008Y002524D01*
X038181Y002350D01*
X038181Y002003D01*
X038437Y002177D02*
X038350Y002263D01*
X038350Y002437D01*
X038437Y002524D01*
X038610Y002524D01*
X038697Y002350D02*
X038350Y002350D01*
X038437Y002177D02*
X038610Y002177D01*
X038697Y002263D01*
X038697Y002350D01*
X038865Y002350D02*
X039039Y002177D01*
X039126Y002177D01*
X039295Y002263D02*
X039382Y002177D01*
X039642Y002177D01*
X039811Y002177D02*
X039897Y002177D01*
X039897Y002524D01*
X039811Y002524D02*
X039984Y002524D01*
X040154Y002437D02*
X040241Y002524D01*
X040415Y002524D01*
X040501Y002437D01*
X040501Y002263D01*
X040415Y002177D01*
X040241Y002177D01*
X040154Y002263D01*
X040154Y002437D01*
X039897Y002003D02*
X039897Y001916D01*
X040670Y002177D02*
X040930Y002177D01*
X041017Y002263D01*
X041017Y002524D01*
X040670Y002524D02*
X040670Y002177D01*
X041701Y002177D02*
X041875Y002003D01*
X041875Y002524D01*
X042048Y002524D02*
X041701Y002524D01*
X042217Y002524D02*
X042217Y002437D01*
X042304Y002437D01*
X042304Y002524D01*
X042217Y002524D01*
X042475Y002437D02*
X042562Y002524D01*
X042735Y002524D01*
X042822Y002437D01*
X042822Y002090D01*
X042475Y002437D01*
X042475Y002090D01*
X042562Y002003D01*
X042735Y002003D01*
X042822Y002090D01*
X039642Y002437D02*
X039555Y002350D01*
X039382Y002350D01*
X039295Y002263D01*
X039295Y002524D02*
X039555Y002524D01*
X039642Y002437D01*
X038865Y002524D02*
X038865Y002177D01*
X037834Y002003D02*
X037834Y002350D01*
D13*
X028277Y004575D02*
X028229Y004527D01*
X028035Y004527D01*
X027987Y004575D01*
X027987Y004672D01*
X028035Y004721D01*
X028132Y004721D01*
X028132Y004624D01*
X028229Y004721D02*
X028277Y004672D01*
X028277Y004575D01*
X028277Y004822D02*
X027987Y004822D01*
X027987Y005015D02*
X028277Y005015D01*
X028277Y005116D02*
X028277Y005262D01*
X028229Y005310D01*
X028035Y005310D01*
X027987Y005262D01*
X027987Y005116D01*
X028277Y005116D01*
X028277Y004822D02*
X027987Y005015D01*
D14*
X027223Y001908D02*
X026816Y001908D01*
X027019Y001908D02*
X027019Y002519D01*
X027423Y002417D02*
X027525Y002315D01*
X027830Y002315D01*
X027830Y002213D02*
X027830Y002519D01*
X027525Y002519D01*
X027423Y002417D01*
X027525Y002112D02*
X027729Y002112D01*
X027830Y002213D01*
X028031Y002112D02*
X028336Y002112D01*
X028438Y002213D01*
X028438Y002519D01*
X028639Y002519D02*
X028639Y001908D01*
X028944Y002112D02*
X028639Y002315D01*
X028944Y002519D01*
X029753Y002417D02*
X029855Y002519D01*
X030058Y002519D01*
X030160Y002417D01*
X030361Y002519D02*
X030361Y002112D01*
X030564Y001908D01*
X030768Y002112D01*
X030768Y002519D01*
X030968Y002519D02*
X030968Y001908D01*
X031375Y002519D01*
X031375Y001908D01*
X030768Y002213D02*
X030361Y002213D01*
X030160Y002010D02*
X030058Y001908D01*
X029855Y001908D01*
X029753Y002010D01*
X029753Y002417D01*
X028031Y002519D02*
X028031Y002112D01*
X032184Y002213D02*
X032489Y002213D01*
X032591Y002315D01*
X032591Y002417D01*
X032489Y002519D01*
X032184Y002519D01*
X032184Y001908D01*
X032489Y001908D01*
X032591Y002010D01*
X032591Y002112D01*
X032489Y002213D01*
X032791Y002417D02*
X032893Y002315D01*
X033198Y002315D01*
X033198Y002213D02*
X033198Y002519D01*
X032893Y002519D01*
X032791Y002417D01*
X032893Y002112D02*
X033097Y002112D01*
X033198Y002213D01*
X033399Y002213D02*
X033399Y002417D01*
X033501Y002519D01*
X033806Y002519D01*
X034007Y002519D02*
X034007Y001908D01*
X033806Y002112D02*
X033501Y002112D01*
X033399Y002213D01*
X034007Y002315D02*
X034312Y002112D01*
X034513Y002112D02*
X034819Y002112D01*
X034920Y002213D01*
X034920Y002417D01*
X034819Y002519D01*
X034513Y002519D01*
X034312Y002519D02*
X034007Y002315D01*
X034513Y002112D02*
X034513Y002722D01*
X035121Y002519D02*
X035324Y002519D01*
X035223Y002519D02*
X035223Y001908D01*
X035121Y001908D01*
X035628Y002112D02*
X035831Y002112D01*
X035933Y002213D01*
X035933Y002519D01*
X035628Y002519D01*
X035526Y002417D01*
X035628Y002315D01*
X035933Y002315D01*
X036134Y002112D02*
X036439Y002112D01*
X036541Y002213D01*
X036541Y002519D01*
X036742Y002417D02*
X036742Y002213D01*
X036843Y002112D01*
X037047Y002112D01*
X037149Y002213D01*
X037149Y002315D01*
X036742Y002315D01*
X036742Y002417D02*
X036843Y002519D01*
X037047Y002519D01*
X036134Y002519D02*
X036134Y002112D01*
X035752Y006549D02*
X035152Y006549D01*
X035152Y006949D01*
X034952Y007349D02*
X035652Y007349D01*
X035952Y007649D01*
X035952Y008349D01*
X034952Y008349D01*
X034952Y007349D01*
X034552Y007649D02*
X034552Y008349D01*
X033552Y008349D01*
X033552Y007349D01*
X034252Y007349D01*
X034552Y007649D01*
X035752Y006949D02*
X035752Y006549D01*
X036652Y007349D02*
X037352Y007349D01*
X037352Y008349D01*
X036352Y008349D01*
X036352Y007649D01*
X036652Y007349D01*
X037944Y006999D02*
X037944Y009899D01*
X032960Y009899D01*
X032960Y006999D01*
X037944Y006999D01*
X038472Y006999D02*
X038472Y009899D01*
X043456Y009899D01*
X043456Y006999D01*
X038472Y006999D01*
X039064Y007349D02*
X039764Y007349D01*
X040064Y007649D01*
X040064Y008349D01*
X039064Y008349D01*
X039064Y007349D01*
X040464Y007349D02*
X041164Y007349D01*
X041464Y007649D01*
X041464Y008349D01*
X040464Y008349D01*
X040464Y007349D01*
X040664Y006949D02*
X040664Y006549D01*
X041264Y006549D01*
X041264Y006949D01*
X041864Y007649D02*
X042164Y007349D01*
X042864Y007349D01*
X042864Y008349D01*
X041864Y008349D01*
X041864Y007649D01*
X041876Y008530D02*
X042876Y008530D01*
X042876Y009530D01*
X041876Y009530D01*
X041876Y008530D01*
X041476Y008830D02*
X041476Y009530D01*
X040476Y009530D01*
X040476Y008530D01*
X041176Y008530D01*
X041476Y008830D01*
X040076Y008830D02*
X040076Y009530D01*
X039076Y009530D01*
X039076Y008530D01*
X039776Y008530D01*
X040076Y008830D01*
X037365Y008530D02*
X037365Y009530D01*
X036365Y009530D01*
X036365Y008530D01*
X037365Y008530D01*
X035965Y008830D02*
X035965Y009530D01*
X034965Y009530D01*
X034965Y008530D01*
X035665Y008530D01*
X035965Y008830D01*
X034565Y008830D02*
X034565Y009530D01*
X033565Y009530D01*
X033565Y008530D01*
X034265Y008530D01*
X034565Y008830D01*
X032432Y009899D02*
X027448Y009899D01*
X027448Y006999D01*
X032432Y006999D01*
X032432Y009899D01*
X031853Y009530D02*
X031853Y008530D01*
X030853Y008530D01*
X030853Y009530D01*
X031853Y009530D01*
X030453Y009530D02*
X030453Y008830D01*
X030153Y008530D01*
X029453Y008530D01*
X029453Y009530D01*
X030453Y009530D01*
X029053Y009530D02*
X029053Y008830D01*
X028753Y008530D01*
X028053Y008530D01*
X028053Y009530D01*
X029053Y009530D01*
X029040Y008349D02*
X028040Y008349D01*
X028040Y007349D01*
X028740Y007349D01*
X029040Y007649D01*
X029040Y008349D01*
X029440Y008349D02*
X029440Y007349D01*
X030140Y007349D01*
X030440Y007649D01*
X030440Y008349D01*
X029440Y008349D01*
X030840Y008349D02*
X030840Y007649D01*
X031140Y007349D01*
X031840Y007349D01*
X031840Y008349D01*
X030840Y008349D01*
X030240Y006949D02*
X030240Y006549D01*
X029640Y006549D01*
X029640Y006949D01*
X043983Y006999D02*
X043983Y009899D01*
X048968Y009899D01*
X048968Y006999D01*
X043983Y006999D01*
X044576Y007349D02*
X045276Y007349D01*
X045576Y007649D01*
X045576Y008349D01*
X044576Y008349D01*
X044576Y007349D01*
X045976Y007349D02*
X046676Y007349D01*
X046976Y007649D01*
X046976Y008349D01*
X045976Y008349D01*
X045976Y007349D01*
X046176Y006949D02*
X046176Y006549D01*
X046776Y006549D01*
X046776Y006949D01*
X047376Y007649D02*
X047676Y007349D01*
X048376Y007349D01*
X048376Y008349D01*
X047376Y008349D01*
X047376Y007649D01*
X047388Y008530D02*
X048388Y008530D01*
X048388Y009530D01*
X047388Y009530D01*
X047388Y008530D01*
X046988Y008830D02*
X046988Y009530D01*
X045988Y009530D01*
X045988Y008530D01*
X046688Y008530D01*
X046988Y008830D01*
X045588Y008830D02*
X045588Y009530D01*
X044588Y009530D01*
X044588Y008530D01*
X045288Y008530D01*
X045588Y008830D01*
X049495Y009899D02*
X049495Y006999D01*
X054480Y006999D01*
X054480Y009899D01*
X049495Y009899D01*
X050100Y009530D02*
X050100Y008530D01*
X050800Y008530D01*
X051100Y008830D01*
X051100Y009530D01*
X050100Y009530D01*
X051500Y009530D02*
X051500Y008530D01*
X052200Y008530D01*
X052500Y008830D01*
X052500Y009530D01*
X051500Y009530D01*
X052900Y009530D02*
X052900Y008530D01*
X053900Y008530D01*
X053900Y009530D01*
X052900Y009530D01*
X055007Y009899D02*
X055007Y006999D01*
X059991Y006999D01*
X059991Y009899D01*
X055007Y009899D01*
X055612Y009530D02*
X055612Y008530D01*
X056312Y008530D01*
X056612Y008830D01*
X056612Y009530D01*
X055612Y009530D01*
X057012Y009530D02*
X057012Y008530D01*
X057712Y008530D01*
X058012Y008830D01*
X058012Y009530D01*
X057012Y009530D01*
X058412Y009530D02*
X058412Y008530D01*
X059412Y008530D01*
X059412Y009530D01*
X058412Y009530D01*
X060519Y009899D02*
X060519Y006999D01*
X065503Y006999D01*
X065503Y009899D01*
X060519Y009899D01*
X061124Y009530D02*
X061124Y008530D01*
X061824Y008530D01*
X062124Y008830D01*
X062124Y009530D01*
X061124Y009530D01*
X062524Y009530D02*
X062524Y008530D01*
X063224Y008530D01*
X063524Y008830D01*
X063524Y009530D01*
X062524Y009530D01*
X063924Y009530D02*
X063924Y008530D01*
X064924Y008530D01*
X064924Y009530D01*
X063924Y009530D01*
X066031Y009899D02*
X066031Y006999D01*
X071015Y006999D01*
X071015Y009899D01*
X066031Y009899D01*
X066635Y009530D02*
X066635Y008530D01*
X067335Y008530D01*
X067635Y008830D01*
X067635Y009530D01*
X066635Y009530D01*
X068035Y009530D02*
X068035Y008530D01*
X068735Y008530D01*
X069035Y008830D01*
X069035Y009530D01*
X068035Y009530D01*
X069435Y009530D02*
X069435Y008530D01*
X070435Y008530D01*
X070435Y009530D01*
X069435Y009530D01*
X071543Y009899D02*
X071543Y006999D01*
X076527Y006999D01*
X076527Y009899D01*
X071543Y009899D01*
X072147Y009530D02*
X072147Y008530D01*
X072847Y008530D01*
X073147Y008830D01*
X073147Y009530D01*
X072147Y009530D01*
X073547Y009530D02*
X073547Y008530D01*
X074247Y008530D01*
X074547Y008830D01*
X074547Y009530D01*
X073547Y009530D01*
X074947Y009530D02*
X074947Y008530D01*
X075947Y008530D01*
X075947Y009530D01*
X074947Y009530D01*
X074935Y008349D02*
X074935Y007649D01*
X075235Y007349D01*
X075935Y007349D01*
X075935Y008349D01*
X074935Y008349D01*
X074535Y008349D02*
X074535Y007649D01*
X074235Y007349D01*
X073535Y007349D01*
X073535Y008349D01*
X074535Y008349D01*
X073135Y008349D02*
X073135Y007649D01*
X072835Y007349D01*
X072135Y007349D01*
X072135Y008349D01*
X073135Y008349D01*
X070423Y008349D02*
X069423Y008349D01*
X069423Y007649D01*
X069723Y007349D01*
X070423Y007349D01*
X070423Y008349D01*
X069023Y008349D02*
X069023Y007649D01*
X068723Y007349D01*
X068023Y007349D01*
X068023Y008349D01*
X069023Y008349D01*
X067623Y008349D02*
X067623Y007649D01*
X067323Y007349D01*
X066623Y007349D01*
X066623Y008349D01*
X067623Y008349D01*
X064911Y008349D02*
X063911Y008349D01*
X063911Y007649D01*
X064211Y007349D01*
X064911Y007349D01*
X064911Y008349D01*
X063511Y008349D02*
X063511Y007649D01*
X063211Y007349D01*
X062511Y007349D01*
X062511Y008349D01*
X063511Y008349D01*
X062111Y008349D02*
X062111Y007649D01*
X061811Y007349D01*
X061111Y007349D01*
X061111Y008349D01*
X062111Y008349D01*
X059399Y008349D02*
X058399Y008349D01*
X058399Y007649D01*
X058699Y007349D01*
X059399Y007349D01*
X059399Y008349D01*
X057999Y008349D02*
X057999Y007649D01*
X057699Y007349D01*
X056999Y007349D01*
X056999Y008349D01*
X057999Y008349D01*
X056599Y008349D02*
X056599Y007649D01*
X056299Y007349D01*
X055599Y007349D01*
X055599Y008349D01*
X056599Y008349D01*
X053887Y008349D02*
X053887Y007349D01*
X053187Y007349D01*
X052887Y007649D01*
X052887Y008349D01*
X053887Y008349D01*
X052487Y008349D02*
X052487Y007649D01*
X052187Y007349D01*
X051487Y007349D01*
X051487Y008349D01*
X052487Y008349D01*
X051087Y008349D02*
X051087Y007649D01*
X050787Y007349D01*
X050087Y007349D01*
X050087Y008349D01*
X051087Y008349D01*
X051687Y006949D02*
X051687Y006549D01*
X052287Y006549D01*
X052287Y006949D01*
X057199Y006949D02*
X057199Y006549D01*
X057799Y006549D01*
X057799Y006949D01*
X062711Y006949D02*
X062711Y006549D01*
X063311Y006549D01*
X063311Y006949D01*
X068223Y006949D02*
X068223Y006549D01*
X068823Y006549D01*
X068823Y006949D01*
X073735Y006949D02*
X073735Y006549D01*
X074335Y006549D01*
X074335Y006949D01*
D15*
X052901Y003256D02*
X052905Y002705D01*
X052637Y002831D01*
X052373Y002709D01*
X052373Y002969D01*
X052255Y003087D01*
X051704Y003083D01*
X051606Y002985D01*
X051606Y001874D01*
X051716Y001768D01*
X052263Y001768D01*
X052369Y001866D01*
X052365Y002067D01*
X052645Y002181D01*
X052905Y002067D01*
X052905Y001579D01*
X052495Y001170D01*
X051483Y001166D01*
X051504Y001166D01*
X051483Y001166D02*
X051062Y001583D01*
X051066Y003252D01*
X051082Y003252D01*
X051476Y003646D01*
X052499Y003658D01*
X052901Y003256D01*
X052895Y003262D02*
X051092Y003262D01*
X051110Y003280D02*
X052877Y003280D01*
X052859Y003298D02*
X051128Y003298D01*
X051146Y003317D02*
X052840Y003317D01*
X052822Y003335D02*
X051165Y003335D01*
X051183Y003353D02*
X052804Y003353D01*
X052786Y003371D02*
X051201Y003371D01*
X051219Y003390D02*
X052767Y003390D01*
X052749Y003408D02*
X051237Y003408D01*
X051256Y003426D02*
X052731Y003426D01*
X052713Y003444D02*
X051274Y003444D01*
X051292Y003463D02*
X052694Y003463D01*
X052676Y003481D02*
X051310Y003481D01*
X051329Y003499D02*
X052658Y003499D01*
X052640Y003517D02*
X051347Y003517D01*
X051365Y003535D02*
X052622Y003535D01*
X052603Y003554D02*
X051383Y003554D01*
X051401Y003572D02*
X052585Y003572D01*
X052567Y003590D02*
X051420Y003590D01*
X051438Y003608D02*
X052549Y003608D01*
X052530Y003627D02*
X051456Y003627D01*
X051474Y003645D02*
X052512Y003645D01*
X052901Y003244D02*
X051066Y003244D01*
X051066Y003226D02*
X052901Y003226D01*
X052901Y003207D02*
X051066Y003207D01*
X051066Y003189D02*
X052901Y003189D01*
X052901Y003171D02*
X051066Y003171D01*
X051066Y003153D02*
X052902Y003153D01*
X052902Y003134D02*
X051066Y003134D01*
X051066Y003116D02*
X052902Y003116D01*
X052902Y003098D02*
X051066Y003098D01*
X051066Y003080D02*
X051701Y003080D01*
X051682Y003061D02*
X051066Y003061D01*
X051066Y003043D02*
X051664Y003043D01*
X051646Y003025D02*
X051066Y003025D01*
X051066Y003007D02*
X051628Y003007D01*
X051610Y002989D02*
X051066Y002989D01*
X051066Y002970D02*
X051606Y002970D01*
X051606Y002952D02*
X051065Y002952D01*
X051065Y002934D02*
X051606Y002934D01*
X051606Y002916D02*
X051065Y002916D01*
X051065Y002897D02*
X051606Y002897D01*
X051606Y002879D02*
X051065Y002879D01*
X051065Y002861D02*
X051606Y002861D01*
X051606Y002843D02*
X051065Y002843D01*
X051065Y002825D02*
X051606Y002825D01*
X051606Y002806D02*
X051065Y002806D01*
X051065Y002788D02*
X051606Y002788D01*
X051606Y002770D02*
X051065Y002770D01*
X051065Y002752D02*
X051606Y002752D01*
X051606Y002733D02*
X051065Y002733D01*
X051065Y002715D02*
X051606Y002715D01*
X051606Y002697D02*
X051065Y002697D01*
X051065Y002679D02*
X051606Y002679D01*
X051606Y002660D02*
X051065Y002660D01*
X051065Y002642D02*
X051606Y002642D01*
X051606Y002624D02*
X051065Y002624D01*
X051065Y002606D02*
X051606Y002606D01*
X051606Y002588D02*
X051065Y002588D01*
X051065Y002569D02*
X051606Y002569D01*
X051606Y002551D02*
X051064Y002551D01*
X051064Y002533D02*
X051606Y002533D01*
X051606Y002515D02*
X051064Y002515D01*
X051064Y002496D02*
X051606Y002496D01*
X051606Y002478D02*
X051064Y002478D01*
X051064Y002460D02*
X051606Y002460D01*
X051606Y002442D02*
X051064Y002442D01*
X051064Y002424D02*
X051606Y002424D01*
X051606Y002405D02*
X051064Y002405D01*
X051064Y002387D02*
X051606Y002387D01*
X051606Y002369D02*
X051064Y002369D01*
X051064Y002351D02*
X051606Y002351D01*
X051606Y002332D02*
X051064Y002332D01*
X051064Y002314D02*
X051606Y002314D01*
X051606Y002296D02*
X051064Y002296D01*
X051064Y002278D02*
X051606Y002278D01*
X051606Y002259D02*
X051064Y002259D01*
X051064Y002241D02*
X051606Y002241D01*
X051606Y002223D02*
X051064Y002223D01*
X051064Y002205D02*
X051606Y002205D01*
X051606Y002187D02*
X051064Y002187D01*
X051064Y002168D02*
X051606Y002168D01*
X051606Y002150D02*
X051064Y002150D01*
X051064Y002132D02*
X051606Y002132D01*
X051606Y002114D02*
X051063Y002114D01*
X051063Y002095D02*
X051606Y002095D01*
X051606Y002077D02*
X051063Y002077D01*
X051063Y002059D02*
X051606Y002059D01*
X051606Y002041D02*
X051063Y002041D01*
X051063Y002022D02*
X051606Y002022D01*
X051606Y002004D02*
X051063Y002004D01*
X051063Y001986D02*
X051606Y001986D01*
X051606Y001968D02*
X051063Y001968D01*
X051063Y001950D02*
X051606Y001950D01*
X051606Y001931D02*
X051063Y001931D01*
X051063Y001913D02*
X051606Y001913D01*
X051606Y001895D02*
X051063Y001895D01*
X051063Y001877D02*
X051606Y001877D01*
X051622Y001858D02*
X051063Y001858D01*
X051063Y001840D02*
X051641Y001840D01*
X051660Y001822D02*
X051063Y001822D01*
X051063Y001804D02*
X051679Y001804D01*
X051698Y001786D02*
X051063Y001786D01*
X051063Y001767D02*
X052905Y001767D01*
X052905Y001749D02*
X051063Y001749D01*
X051063Y001731D02*
X052905Y001731D01*
X052905Y001713D02*
X051063Y001713D01*
X051062Y001694D02*
X052905Y001694D01*
X052905Y001676D02*
X051062Y001676D01*
X051062Y001658D02*
X052905Y001658D01*
X052905Y001640D02*
X051062Y001640D01*
X051062Y001621D02*
X052905Y001621D01*
X052905Y001603D02*
X051062Y001603D01*
X051062Y001585D02*
X052905Y001585D01*
X052892Y001567D02*
X051079Y001567D01*
X051097Y001549D02*
X052874Y001549D01*
X052856Y001530D02*
X051115Y001530D01*
X051134Y001512D02*
X052838Y001512D01*
X052820Y001494D02*
X051152Y001494D01*
X051171Y001476D02*
X052801Y001476D01*
X052783Y001457D02*
X051189Y001457D01*
X051207Y001439D02*
X052765Y001439D01*
X052747Y001421D02*
X051226Y001421D01*
X051244Y001403D02*
X052728Y001403D01*
X052710Y001384D02*
X051263Y001384D01*
X051281Y001366D02*
X052692Y001366D01*
X052674Y001348D02*
X051299Y001348D01*
X051318Y001330D02*
X052655Y001330D01*
X052637Y001312D02*
X051336Y001312D01*
X051355Y001293D02*
X052619Y001293D01*
X052601Y001275D02*
X051373Y001275D01*
X051391Y001257D02*
X052583Y001257D01*
X052564Y001239D02*
X051410Y001239D01*
X051428Y001220D02*
X052546Y001220D01*
X052528Y001202D02*
X051447Y001202D01*
X051465Y001184D02*
X052510Y001184D01*
X052282Y001786D02*
X052905Y001786D01*
X052905Y001804D02*
X052302Y001804D01*
X052321Y001822D02*
X052905Y001822D01*
X052905Y001840D02*
X052341Y001840D01*
X052361Y001858D02*
X052905Y001858D01*
X052905Y001877D02*
X052369Y001877D01*
X052369Y001895D02*
X052905Y001895D01*
X052905Y001913D02*
X052368Y001913D01*
X052368Y001931D02*
X052905Y001931D01*
X052905Y001950D02*
X052368Y001950D01*
X052367Y001968D02*
X052905Y001968D01*
X052905Y001986D02*
X052367Y001986D01*
X052367Y002004D02*
X052905Y002004D01*
X052905Y002022D02*
X052366Y002022D01*
X052366Y002041D02*
X052905Y002041D01*
X052905Y002059D02*
X052366Y002059D01*
X052390Y002077D02*
X052882Y002077D01*
X052841Y002095D02*
X052434Y002095D01*
X052479Y002114D02*
X052799Y002114D01*
X052758Y002132D02*
X052524Y002132D01*
X052568Y002150D02*
X052716Y002150D01*
X052675Y002168D02*
X052613Y002168D01*
X052387Y002715D02*
X052373Y002715D01*
X052373Y002733D02*
X052426Y002733D01*
X052465Y002752D02*
X052373Y002752D01*
X052373Y002770D02*
X052505Y002770D01*
X052544Y002788D02*
X052373Y002788D01*
X052373Y002806D02*
X052584Y002806D01*
X052623Y002825D02*
X052373Y002825D01*
X052373Y002843D02*
X052904Y002843D01*
X052904Y002861D02*
X052373Y002861D01*
X052373Y002879D02*
X052904Y002879D01*
X052903Y002897D02*
X052373Y002897D01*
X052373Y002916D02*
X052903Y002916D01*
X052903Y002934D02*
X052373Y002934D01*
X052373Y002952D02*
X052903Y002952D01*
X052903Y002970D02*
X052372Y002970D01*
X052353Y002989D02*
X052903Y002989D01*
X052903Y003007D02*
X052335Y003007D01*
X052317Y003025D02*
X052902Y003025D01*
X052902Y003043D02*
X052299Y003043D01*
X052281Y003061D02*
X052902Y003061D01*
X052902Y003080D02*
X052262Y003080D01*
X052651Y002825D02*
X052904Y002825D01*
X052904Y002806D02*
X052690Y002806D01*
X052728Y002788D02*
X052904Y002788D01*
X052904Y002770D02*
X052767Y002770D01*
X052806Y002752D02*
X052904Y002752D01*
X052905Y002733D02*
X052844Y002733D01*
X052883Y002715D02*
X052905Y002715D01*
M02*
