G75*
G70*
%OFA0B0*%
%FSLAX24Y24*%
%IPPOS*%
%LPD*%
%AMOC8*
5,1,8,0,0,1.08239X$1,22.5*
%
%ADD10C,0.0100*%
%ADD11C,0.0709*%
%ADD12C,0.0000*%
%ADD13C,0.0768*%
%ADD14R,0.0500X0.1000*%
%ADD15C,0.0320*%
%ADD16C,0.0376*%
%ADD17C,0.0416*%
%ADD18C,0.0160*%
D10*
X026003Y001756D02*
X026003Y009630D01*
X026005Y009707D01*
X026011Y009784D01*
X026020Y009861D01*
X026033Y009937D01*
X026050Y010013D01*
X026071Y010087D01*
X026095Y010161D01*
X026123Y010233D01*
X026154Y010303D01*
X026189Y010372D01*
X026227Y010440D01*
X026268Y010505D01*
X026313Y010568D01*
X026361Y010629D01*
X026411Y010688D01*
X026464Y010744D01*
X026520Y010797D01*
X026579Y010847D01*
X026640Y010895D01*
X026703Y010940D01*
X026768Y010981D01*
X026836Y011019D01*
X026905Y011054D01*
X026975Y011085D01*
X027047Y011113D01*
X027121Y011137D01*
X027195Y011158D01*
X027271Y011175D01*
X027347Y011188D01*
X027424Y011197D01*
X027501Y011203D01*
X027578Y011205D01*
X076397Y011205D01*
X076481Y011194D01*
X076564Y011178D01*
X076647Y011159D01*
X076729Y011136D01*
X076809Y011109D01*
X076888Y011078D01*
X076966Y011043D01*
X077041Y011005D01*
X077115Y010963D01*
X077187Y010918D01*
X077257Y010869D01*
X077324Y010817D01*
X077388Y010762D01*
X077450Y010704D01*
X077509Y010643D01*
X077565Y010580D01*
X077618Y010513D01*
X077668Y010445D01*
X077715Y010374D01*
X077758Y010301D01*
X077797Y010225D01*
X077833Y010149D01*
X077865Y010070D01*
X077894Y009990D01*
X077918Y009909D01*
X077939Y009827D01*
X077956Y009743D01*
X077969Y009659D01*
X077977Y009575D01*
X077982Y009490D01*
X077983Y009405D01*
X077979Y009321D01*
X077972Y009236D01*
X077972Y009237D02*
X077972Y001756D01*
X077970Y001679D01*
X077964Y001602D01*
X077955Y001525D01*
X077942Y001449D01*
X077925Y001373D01*
X077904Y001299D01*
X077880Y001225D01*
X077852Y001153D01*
X077821Y001083D01*
X077786Y001014D01*
X077748Y000946D01*
X077707Y000881D01*
X077662Y000818D01*
X077614Y000757D01*
X077564Y000698D01*
X077511Y000642D01*
X077455Y000589D01*
X077396Y000539D01*
X077335Y000491D01*
X077272Y000446D01*
X077207Y000405D01*
X077139Y000367D01*
X077070Y000332D01*
X077000Y000301D01*
X076928Y000273D01*
X076854Y000249D01*
X076780Y000228D01*
X076704Y000211D01*
X076628Y000198D01*
X076551Y000189D01*
X076474Y000183D01*
X076397Y000181D01*
X027578Y000181D01*
X027501Y000183D01*
X027424Y000189D01*
X027347Y000198D01*
X027271Y000211D01*
X027195Y000228D01*
X027121Y000249D01*
X027047Y000273D01*
X026975Y000301D01*
X026905Y000332D01*
X026836Y000367D01*
X026768Y000405D01*
X026703Y000446D01*
X026640Y000491D01*
X026579Y000539D01*
X026520Y000589D01*
X026464Y000642D01*
X026411Y000698D01*
X026361Y000757D01*
X026313Y000818D01*
X026268Y000881D01*
X026227Y000946D01*
X026189Y001014D01*
X026154Y001083D01*
X026123Y001153D01*
X026095Y001225D01*
X026071Y001299D01*
X026050Y001373D01*
X026033Y001449D01*
X026020Y001525D01*
X026011Y001602D01*
X026005Y001679D01*
X026003Y001756D01*
D11*
X029638Y003029D03*
X031030Y003029D03*
X030334Y003725D03*
X031030Y004421D03*
X029638Y004421D03*
X038299Y004421D03*
X039691Y004421D03*
X038995Y003725D03*
X038299Y003029D03*
X039691Y003029D03*
X046961Y003029D03*
X048353Y003029D03*
X047657Y003725D03*
X048353Y004421D03*
X046961Y004421D03*
X055622Y004421D03*
X057014Y004421D03*
X056318Y003725D03*
X055622Y003029D03*
X057014Y003029D03*
X064284Y003029D03*
X065676Y003029D03*
X064980Y003725D03*
X065676Y004421D03*
X064284Y004421D03*
X072945Y004421D03*
X073641Y003725D03*
X074337Y004421D03*
X074337Y003029D03*
X072945Y003029D03*
D12*
X070137Y003725D02*
X070139Y003772D01*
X070145Y003818D01*
X070155Y003864D01*
X070168Y003909D01*
X070186Y003952D01*
X070207Y003994D01*
X070231Y004034D01*
X070259Y004071D01*
X070290Y004106D01*
X070324Y004139D01*
X070360Y004168D01*
X070399Y004194D01*
X070440Y004217D01*
X070483Y004236D01*
X070527Y004252D01*
X070572Y004264D01*
X070618Y004272D01*
X070665Y004276D01*
X070711Y004276D01*
X070758Y004272D01*
X070804Y004264D01*
X070849Y004252D01*
X070893Y004236D01*
X070936Y004217D01*
X070977Y004194D01*
X071016Y004168D01*
X071052Y004139D01*
X071086Y004106D01*
X071117Y004071D01*
X071145Y004034D01*
X071169Y003994D01*
X071190Y003952D01*
X071208Y003909D01*
X071221Y003864D01*
X071231Y003818D01*
X071237Y003772D01*
X071239Y003725D01*
X071237Y003678D01*
X071231Y003632D01*
X071221Y003586D01*
X071208Y003541D01*
X071190Y003498D01*
X071169Y003456D01*
X071145Y003416D01*
X071117Y003379D01*
X071086Y003344D01*
X071052Y003311D01*
X071016Y003282D01*
X070977Y003256D01*
X070936Y003233D01*
X070893Y003214D01*
X070849Y003198D01*
X070804Y003186D01*
X070758Y003178D01*
X070711Y003174D01*
X070665Y003174D01*
X070618Y003178D01*
X070572Y003186D01*
X070527Y003198D01*
X070483Y003214D01*
X070440Y003233D01*
X070399Y003256D01*
X070360Y003282D01*
X070324Y003311D01*
X070290Y003344D01*
X070259Y003379D01*
X070231Y003416D01*
X070207Y003456D01*
X070186Y003498D01*
X070168Y003541D01*
X070155Y003586D01*
X070145Y003632D01*
X070139Y003678D01*
X070137Y003725D01*
X067381Y003725D02*
X067383Y003772D01*
X067389Y003818D01*
X067399Y003864D01*
X067412Y003909D01*
X067430Y003952D01*
X067451Y003994D01*
X067475Y004034D01*
X067503Y004071D01*
X067534Y004106D01*
X067568Y004139D01*
X067604Y004168D01*
X067643Y004194D01*
X067684Y004217D01*
X067727Y004236D01*
X067771Y004252D01*
X067816Y004264D01*
X067862Y004272D01*
X067909Y004276D01*
X067955Y004276D01*
X068002Y004272D01*
X068048Y004264D01*
X068093Y004252D01*
X068137Y004236D01*
X068180Y004217D01*
X068221Y004194D01*
X068260Y004168D01*
X068296Y004139D01*
X068330Y004106D01*
X068361Y004071D01*
X068389Y004034D01*
X068413Y003994D01*
X068434Y003952D01*
X068452Y003909D01*
X068465Y003864D01*
X068475Y003818D01*
X068481Y003772D01*
X068483Y003725D01*
X068481Y003678D01*
X068475Y003632D01*
X068465Y003586D01*
X068452Y003541D01*
X068434Y003498D01*
X068413Y003456D01*
X068389Y003416D01*
X068361Y003379D01*
X068330Y003344D01*
X068296Y003311D01*
X068260Y003282D01*
X068221Y003256D01*
X068180Y003233D01*
X068137Y003214D01*
X068093Y003198D01*
X068048Y003186D01*
X068002Y003178D01*
X067955Y003174D01*
X067909Y003174D01*
X067862Y003178D01*
X067816Y003186D01*
X067771Y003198D01*
X067727Y003214D01*
X067684Y003233D01*
X067643Y003256D01*
X067604Y003282D01*
X067568Y003311D01*
X067534Y003344D01*
X067503Y003379D01*
X067475Y003416D01*
X067451Y003456D01*
X067430Y003498D01*
X067412Y003541D01*
X067399Y003586D01*
X067389Y003632D01*
X067383Y003678D01*
X067381Y003725D01*
X061476Y003725D02*
X061478Y003772D01*
X061484Y003818D01*
X061494Y003864D01*
X061507Y003909D01*
X061525Y003952D01*
X061546Y003994D01*
X061570Y004034D01*
X061598Y004071D01*
X061629Y004106D01*
X061663Y004139D01*
X061699Y004168D01*
X061738Y004194D01*
X061779Y004217D01*
X061822Y004236D01*
X061866Y004252D01*
X061911Y004264D01*
X061957Y004272D01*
X062004Y004276D01*
X062050Y004276D01*
X062097Y004272D01*
X062143Y004264D01*
X062188Y004252D01*
X062232Y004236D01*
X062275Y004217D01*
X062316Y004194D01*
X062355Y004168D01*
X062391Y004139D01*
X062425Y004106D01*
X062456Y004071D01*
X062484Y004034D01*
X062508Y003994D01*
X062529Y003952D01*
X062547Y003909D01*
X062560Y003864D01*
X062570Y003818D01*
X062576Y003772D01*
X062578Y003725D01*
X062576Y003678D01*
X062570Y003632D01*
X062560Y003586D01*
X062547Y003541D01*
X062529Y003498D01*
X062508Y003456D01*
X062484Y003416D01*
X062456Y003379D01*
X062425Y003344D01*
X062391Y003311D01*
X062355Y003282D01*
X062316Y003256D01*
X062275Y003233D01*
X062232Y003214D01*
X062188Y003198D01*
X062143Y003186D01*
X062097Y003178D01*
X062050Y003174D01*
X062004Y003174D01*
X061957Y003178D01*
X061911Y003186D01*
X061866Y003198D01*
X061822Y003214D01*
X061779Y003233D01*
X061738Y003256D01*
X061699Y003282D01*
X061663Y003311D01*
X061629Y003344D01*
X061598Y003379D01*
X061570Y003416D01*
X061546Y003456D01*
X061525Y003498D01*
X061507Y003541D01*
X061494Y003586D01*
X061484Y003632D01*
X061478Y003678D01*
X061476Y003725D01*
X058720Y003725D02*
X058722Y003772D01*
X058728Y003818D01*
X058738Y003864D01*
X058751Y003909D01*
X058769Y003952D01*
X058790Y003994D01*
X058814Y004034D01*
X058842Y004071D01*
X058873Y004106D01*
X058907Y004139D01*
X058943Y004168D01*
X058982Y004194D01*
X059023Y004217D01*
X059066Y004236D01*
X059110Y004252D01*
X059155Y004264D01*
X059201Y004272D01*
X059248Y004276D01*
X059294Y004276D01*
X059341Y004272D01*
X059387Y004264D01*
X059432Y004252D01*
X059476Y004236D01*
X059519Y004217D01*
X059560Y004194D01*
X059599Y004168D01*
X059635Y004139D01*
X059669Y004106D01*
X059700Y004071D01*
X059728Y004034D01*
X059752Y003994D01*
X059773Y003952D01*
X059791Y003909D01*
X059804Y003864D01*
X059814Y003818D01*
X059820Y003772D01*
X059822Y003725D01*
X059820Y003678D01*
X059814Y003632D01*
X059804Y003586D01*
X059791Y003541D01*
X059773Y003498D01*
X059752Y003456D01*
X059728Y003416D01*
X059700Y003379D01*
X059669Y003344D01*
X059635Y003311D01*
X059599Y003282D01*
X059560Y003256D01*
X059519Y003233D01*
X059476Y003214D01*
X059432Y003198D01*
X059387Y003186D01*
X059341Y003178D01*
X059294Y003174D01*
X059248Y003174D01*
X059201Y003178D01*
X059155Y003186D01*
X059110Y003198D01*
X059066Y003214D01*
X059023Y003233D01*
X058982Y003256D01*
X058943Y003282D01*
X058907Y003311D01*
X058873Y003344D01*
X058842Y003379D01*
X058814Y003416D01*
X058790Y003456D01*
X058769Y003498D01*
X058751Y003541D01*
X058738Y003586D01*
X058728Y003632D01*
X058722Y003678D01*
X058720Y003725D01*
X052814Y003725D02*
X052816Y003772D01*
X052822Y003818D01*
X052832Y003864D01*
X052845Y003909D01*
X052863Y003952D01*
X052884Y003994D01*
X052908Y004034D01*
X052936Y004071D01*
X052967Y004106D01*
X053001Y004139D01*
X053037Y004168D01*
X053076Y004194D01*
X053117Y004217D01*
X053160Y004236D01*
X053204Y004252D01*
X053249Y004264D01*
X053295Y004272D01*
X053342Y004276D01*
X053388Y004276D01*
X053435Y004272D01*
X053481Y004264D01*
X053526Y004252D01*
X053570Y004236D01*
X053613Y004217D01*
X053654Y004194D01*
X053693Y004168D01*
X053729Y004139D01*
X053763Y004106D01*
X053794Y004071D01*
X053822Y004034D01*
X053846Y003994D01*
X053867Y003952D01*
X053885Y003909D01*
X053898Y003864D01*
X053908Y003818D01*
X053914Y003772D01*
X053916Y003725D01*
X053914Y003678D01*
X053908Y003632D01*
X053898Y003586D01*
X053885Y003541D01*
X053867Y003498D01*
X053846Y003456D01*
X053822Y003416D01*
X053794Y003379D01*
X053763Y003344D01*
X053729Y003311D01*
X053693Y003282D01*
X053654Y003256D01*
X053613Y003233D01*
X053570Y003214D01*
X053526Y003198D01*
X053481Y003186D01*
X053435Y003178D01*
X053388Y003174D01*
X053342Y003174D01*
X053295Y003178D01*
X053249Y003186D01*
X053204Y003198D01*
X053160Y003214D01*
X053117Y003233D01*
X053076Y003256D01*
X053037Y003282D01*
X053001Y003311D01*
X052967Y003344D01*
X052936Y003379D01*
X052908Y003416D01*
X052884Y003456D01*
X052863Y003498D01*
X052845Y003541D01*
X052832Y003586D01*
X052822Y003632D01*
X052816Y003678D01*
X052814Y003725D01*
X050058Y003725D02*
X050060Y003772D01*
X050066Y003818D01*
X050076Y003864D01*
X050089Y003909D01*
X050107Y003952D01*
X050128Y003994D01*
X050152Y004034D01*
X050180Y004071D01*
X050211Y004106D01*
X050245Y004139D01*
X050281Y004168D01*
X050320Y004194D01*
X050361Y004217D01*
X050404Y004236D01*
X050448Y004252D01*
X050493Y004264D01*
X050539Y004272D01*
X050586Y004276D01*
X050632Y004276D01*
X050679Y004272D01*
X050725Y004264D01*
X050770Y004252D01*
X050814Y004236D01*
X050857Y004217D01*
X050898Y004194D01*
X050937Y004168D01*
X050973Y004139D01*
X051007Y004106D01*
X051038Y004071D01*
X051066Y004034D01*
X051090Y003994D01*
X051111Y003952D01*
X051129Y003909D01*
X051142Y003864D01*
X051152Y003818D01*
X051158Y003772D01*
X051160Y003725D01*
X051158Y003678D01*
X051152Y003632D01*
X051142Y003586D01*
X051129Y003541D01*
X051111Y003498D01*
X051090Y003456D01*
X051066Y003416D01*
X051038Y003379D01*
X051007Y003344D01*
X050973Y003311D01*
X050937Y003282D01*
X050898Y003256D01*
X050857Y003233D01*
X050814Y003214D01*
X050770Y003198D01*
X050725Y003186D01*
X050679Y003178D01*
X050632Y003174D01*
X050586Y003174D01*
X050539Y003178D01*
X050493Y003186D01*
X050448Y003198D01*
X050404Y003214D01*
X050361Y003233D01*
X050320Y003256D01*
X050281Y003282D01*
X050245Y003311D01*
X050211Y003344D01*
X050180Y003379D01*
X050152Y003416D01*
X050128Y003456D01*
X050107Y003498D01*
X050089Y003541D01*
X050076Y003586D01*
X050066Y003632D01*
X050060Y003678D01*
X050058Y003725D01*
X044153Y003725D02*
X044155Y003772D01*
X044161Y003818D01*
X044171Y003864D01*
X044184Y003909D01*
X044202Y003952D01*
X044223Y003994D01*
X044247Y004034D01*
X044275Y004071D01*
X044306Y004106D01*
X044340Y004139D01*
X044376Y004168D01*
X044415Y004194D01*
X044456Y004217D01*
X044499Y004236D01*
X044543Y004252D01*
X044588Y004264D01*
X044634Y004272D01*
X044681Y004276D01*
X044727Y004276D01*
X044774Y004272D01*
X044820Y004264D01*
X044865Y004252D01*
X044909Y004236D01*
X044952Y004217D01*
X044993Y004194D01*
X045032Y004168D01*
X045068Y004139D01*
X045102Y004106D01*
X045133Y004071D01*
X045161Y004034D01*
X045185Y003994D01*
X045206Y003952D01*
X045224Y003909D01*
X045237Y003864D01*
X045247Y003818D01*
X045253Y003772D01*
X045255Y003725D01*
X045253Y003678D01*
X045247Y003632D01*
X045237Y003586D01*
X045224Y003541D01*
X045206Y003498D01*
X045185Y003456D01*
X045161Y003416D01*
X045133Y003379D01*
X045102Y003344D01*
X045068Y003311D01*
X045032Y003282D01*
X044993Y003256D01*
X044952Y003233D01*
X044909Y003214D01*
X044865Y003198D01*
X044820Y003186D01*
X044774Y003178D01*
X044727Y003174D01*
X044681Y003174D01*
X044634Y003178D01*
X044588Y003186D01*
X044543Y003198D01*
X044499Y003214D01*
X044456Y003233D01*
X044415Y003256D01*
X044376Y003282D01*
X044340Y003311D01*
X044306Y003344D01*
X044275Y003379D01*
X044247Y003416D01*
X044223Y003456D01*
X044202Y003498D01*
X044184Y003541D01*
X044171Y003586D01*
X044161Y003632D01*
X044155Y003678D01*
X044153Y003725D01*
X041397Y003725D02*
X041399Y003772D01*
X041405Y003818D01*
X041415Y003864D01*
X041428Y003909D01*
X041446Y003952D01*
X041467Y003994D01*
X041491Y004034D01*
X041519Y004071D01*
X041550Y004106D01*
X041584Y004139D01*
X041620Y004168D01*
X041659Y004194D01*
X041700Y004217D01*
X041743Y004236D01*
X041787Y004252D01*
X041832Y004264D01*
X041878Y004272D01*
X041925Y004276D01*
X041971Y004276D01*
X042018Y004272D01*
X042064Y004264D01*
X042109Y004252D01*
X042153Y004236D01*
X042196Y004217D01*
X042237Y004194D01*
X042276Y004168D01*
X042312Y004139D01*
X042346Y004106D01*
X042377Y004071D01*
X042405Y004034D01*
X042429Y003994D01*
X042450Y003952D01*
X042468Y003909D01*
X042481Y003864D01*
X042491Y003818D01*
X042497Y003772D01*
X042499Y003725D01*
X042497Y003678D01*
X042491Y003632D01*
X042481Y003586D01*
X042468Y003541D01*
X042450Y003498D01*
X042429Y003456D01*
X042405Y003416D01*
X042377Y003379D01*
X042346Y003344D01*
X042312Y003311D01*
X042276Y003282D01*
X042237Y003256D01*
X042196Y003233D01*
X042153Y003214D01*
X042109Y003198D01*
X042064Y003186D01*
X042018Y003178D01*
X041971Y003174D01*
X041925Y003174D01*
X041878Y003178D01*
X041832Y003186D01*
X041787Y003198D01*
X041743Y003214D01*
X041700Y003233D01*
X041659Y003256D01*
X041620Y003282D01*
X041584Y003311D01*
X041550Y003344D01*
X041519Y003379D01*
X041491Y003416D01*
X041467Y003456D01*
X041446Y003498D01*
X041428Y003541D01*
X041415Y003586D01*
X041405Y003632D01*
X041399Y003678D01*
X041397Y003725D01*
X035492Y003725D02*
X035494Y003772D01*
X035500Y003818D01*
X035510Y003864D01*
X035523Y003909D01*
X035541Y003952D01*
X035562Y003994D01*
X035586Y004034D01*
X035614Y004071D01*
X035645Y004106D01*
X035679Y004139D01*
X035715Y004168D01*
X035754Y004194D01*
X035795Y004217D01*
X035838Y004236D01*
X035882Y004252D01*
X035927Y004264D01*
X035973Y004272D01*
X036020Y004276D01*
X036066Y004276D01*
X036113Y004272D01*
X036159Y004264D01*
X036204Y004252D01*
X036248Y004236D01*
X036291Y004217D01*
X036332Y004194D01*
X036371Y004168D01*
X036407Y004139D01*
X036441Y004106D01*
X036472Y004071D01*
X036500Y004034D01*
X036524Y003994D01*
X036545Y003952D01*
X036563Y003909D01*
X036576Y003864D01*
X036586Y003818D01*
X036592Y003772D01*
X036594Y003725D01*
X036592Y003678D01*
X036586Y003632D01*
X036576Y003586D01*
X036563Y003541D01*
X036545Y003498D01*
X036524Y003456D01*
X036500Y003416D01*
X036472Y003379D01*
X036441Y003344D01*
X036407Y003311D01*
X036371Y003282D01*
X036332Y003256D01*
X036291Y003233D01*
X036248Y003214D01*
X036204Y003198D01*
X036159Y003186D01*
X036113Y003178D01*
X036066Y003174D01*
X036020Y003174D01*
X035973Y003178D01*
X035927Y003186D01*
X035882Y003198D01*
X035838Y003214D01*
X035795Y003233D01*
X035754Y003256D01*
X035715Y003282D01*
X035679Y003311D01*
X035645Y003344D01*
X035614Y003379D01*
X035586Y003416D01*
X035562Y003456D01*
X035541Y003498D01*
X035523Y003541D01*
X035510Y003586D01*
X035500Y003632D01*
X035494Y003678D01*
X035492Y003725D01*
X032736Y003725D02*
X032738Y003772D01*
X032744Y003818D01*
X032754Y003864D01*
X032767Y003909D01*
X032785Y003952D01*
X032806Y003994D01*
X032830Y004034D01*
X032858Y004071D01*
X032889Y004106D01*
X032923Y004139D01*
X032959Y004168D01*
X032998Y004194D01*
X033039Y004217D01*
X033082Y004236D01*
X033126Y004252D01*
X033171Y004264D01*
X033217Y004272D01*
X033264Y004276D01*
X033310Y004276D01*
X033357Y004272D01*
X033403Y004264D01*
X033448Y004252D01*
X033492Y004236D01*
X033535Y004217D01*
X033576Y004194D01*
X033615Y004168D01*
X033651Y004139D01*
X033685Y004106D01*
X033716Y004071D01*
X033744Y004034D01*
X033768Y003994D01*
X033789Y003952D01*
X033807Y003909D01*
X033820Y003864D01*
X033830Y003818D01*
X033836Y003772D01*
X033838Y003725D01*
X033836Y003678D01*
X033830Y003632D01*
X033820Y003586D01*
X033807Y003541D01*
X033789Y003498D01*
X033768Y003456D01*
X033744Y003416D01*
X033716Y003379D01*
X033685Y003344D01*
X033651Y003311D01*
X033615Y003282D01*
X033576Y003256D01*
X033535Y003233D01*
X033492Y003214D01*
X033448Y003198D01*
X033403Y003186D01*
X033357Y003178D01*
X033310Y003174D01*
X033264Y003174D01*
X033217Y003178D01*
X033171Y003186D01*
X033126Y003198D01*
X033082Y003214D01*
X033039Y003233D01*
X032998Y003256D01*
X032959Y003282D01*
X032923Y003311D01*
X032889Y003344D01*
X032858Y003379D01*
X032830Y003416D01*
X032806Y003456D01*
X032785Y003498D01*
X032767Y003541D01*
X032754Y003586D01*
X032744Y003632D01*
X032738Y003678D01*
X032736Y003725D01*
X026830Y003725D02*
X026832Y003772D01*
X026838Y003818D01*
X026848Y003864D01*
X026861Y003909D01*
X026879Y003952D01*
X026900Y003994D01*
X026924Y004034D01*
X026952Y004071D01*
X026983Y004106D01*
X027017Y004139D01*
X027053Y004168D01*
X027092Y004194D01*
X027133Y004217D01*
X027176Y004236D01*
X027220Y004252D01*
X027265Y004264D01*
X027311Y004272D01*
X027358Y004276D01*
X027404Y004276D01*
X027451Y004272D01*
X027497Y004264D01*
X027542Y004252D01*
X027586Y004236D01*
X027629Y004217D01*
X027670Y004194D01*
X027709Y004168D01*
X027745Y004139D01*
X027779Y004106D01*
X027810Y004071D01*
X027838Y004034D01*
X027862Y003994D01*
X027883Y003952D01*
X027901Y003909D01*
X027914Y003864D01*
X027924Y003818D01*
X027930Y003772D01*
X027932Y003725D01*
X027930Y003678D01*
X027924Y003632D01*
X027914Y003586D01*
X027901Y003541D01*
X027883Y003498D01*
X027862Y003456D01*
X027838Y003416D01*
X027810Y003379D01*
X027779Y003344D01*
X027745Y003311D01*
X027709Y003282D01*
X027670Y003256D01*
X027629Y003233D01*
X027586Y003214D01*
X027542Y003198D01*
X027497Y003186D01*
X027451Y003178D01*
X027404Y003174D01*
X027358Y003174D01*
X027311Y003178D01*
X027265Y003186D01*
X027220Y003198D01*
X027176Y003214D01*
X027133Y003233D01*
X027092Y003256D01*
X027053Y003282D01*
X027017Y003311D01*
X026983Y003344D01*
X026952Y003379D01*
X026924Y003416D01*
X026900Y003456D01*
X026879Y003498D01*
X026861Y003541D01*
X026848Y003586D01*
X026838Y003632D01*
X026832Y003678D01*
X026830Y003725D01*
X026918Y001166D02*
X026920Y001209D01*
X026926Y001251D01*
X026936Y001293D01*
X026949Y001333D01*
X026967Y001372D01*
X026987Y001410D01*
X027012Y001445D01*
X027039Y001478D01*
X027069Y001508D01*
X027102Y001535D01*
X027137Y001560D01*
X027175Y001580D01*
X027214Y001598D01*
X027254Y001611D01*
X027296Y001621D01*
X027338Y001627D01*
X027381Y001629D01*
X027424Y001627D01*
X027466Y001621D01*
X027508Y001611D01*
X027548Y001598D01*
X027587Y001580D01*
X027625Y001560D01*
X027660Y001535D01*
X027693Y001508D01*
X027723Y001478D01*
X027750Y001445D01*
X027775Y001410D01*
X027795Y001372D01*
X027813Y001333D01*
X027826Y001293D01*
X027836Y001251D01*
X027842Y001209D01*
X027844Y001166D01*
X027842Y001123D01*
X027836Y001081D01*
X027826Y001039D01*
X027813Y000999D01*
X027795Y000960D01*
X027775Y000922D01*
X027750Y000887D01*
X027723Y000854D01*
X027693Y000824D01*
X027660Y000797D01*
X027625Y000772D01*
X027587Y000752D01*
X027548Y000734D01*
X027508Y000721D01*
X027466Y000711D01*
X027424Y000705D01*
X027381Y000703D01*
X027338Y000705D01*
X027296Y000711D01*
X027254Y000721D01*
X027214Y000734D01*
X027175Y000752D01*
X027137Y000772D01*
X027102Y000797D01*
X027069Y000824D01*
X027039Y000854D01*
X027012Y000887D01*
X026987Y000922D01*
X026967Y000960D01*
X026949Y000999D01*
X026936Y001039D01*
X026926Y001081D01*
X026920Y001123D01*
X026918Y001166D01*
X032824Y001166D02*
X032826Y001209D01*
X032832Y001251D01*
X032842Y001293D01*
X032855Y001333D01*
X032873Y001372D01*
X032893Y001410D01*
X032918Y001445D01*
X032945Y001478D01*
X032975Y001508D01*
X033008Y001535D01*
X033043Y001560D01*
X033081Y001580D01*
X033120Y001598D01*
X033160Y001611D01*
X033202Y001621D01*
X033244Y001627D01*
X033287Y001629D01*
X033330Y001627D01*
X033372Y001621D01*
X033414Y001611D01*
X033454Y001598D01*
X033493Y001580D01*
X033531Y001560D01*
X033566Y001535D01*
X033599Y001508D01*
X033629Y001478D01*
X033656Y001445D01*
X033681Y001410D01*
X033701Y001372D01*
X033719Y001333D01*
X033732Y001293D01*
X033742Y001251D01*
X033748Y001209D01*
X033750Y001166D01*
X033748Y001123D01*
X033742Y001081D01*
X033732Y001039D01*
X033719Y000999D01*
X033701Y000960D01*
X033681Y000922D01*
X033656Y000887D01*
X033629Y000854D01*
X033599Y000824D01*
X033566Y000797D01*
X033531Y000772D01*
X033493Y000752D01*
X033454Y000734D01*
X033414Y000721D01*
X033372Y000711D01*
X033330Y000705D01*
X033287Y000703D01*
X033244Y000705D01*
X033202Y000711D01*
X033160Y000721D01*
X033120Y000734D01*
X033081Y000752D01*
X033043Y000772D01*
X033008Y000797D01*
X032975Y000824D01*
X032945Y000854D01*
X032918Y000887D01*
X032893Y000922D01*
X032873Y000960D01*
X032855Y000999D01*
X032842Y001039D01*
X032832Y001081D01*
X032826Y001123D01*
X032824Y001166D01*
X035580Y001166D02*
X035582Y001209D01*
X035588Y001251D01*
X035598Y001293D01*
X035611Y001333D01*
X035629Y001372D01*
X035649Y001410D01*
X035674Y001445D01*
X035701Y001478D01*
X035731Y001508D01*
X035764Y001535D01*
X035799Y001560D01*
X035837Y001580D01*
X035876Y001598D01*
X035916Y001611D01*
X035958Y001621D01*
X036000Y001627D01*
X036043Y001629D01*
X036086Y001627D01*
X036128Y001621D01*
X036170Y001611D01*
X036210Y001598D01*
X036249Y001580D01*
X036287Y001560D01*
X036322Y001535D01*
X036355Y001508D01*
X036385Y001478D01*
X036412Y001445D01*
X036437Y001410D01*
X036457Y001372D01*
X036475Y001333D01*
X036488Y001293D01*
X036498Y001251D01*
X036504Y001209D01*
X036506Y001166D01*
X036504Y001123D01*
X036498Y001081D01*
X036488Y001039D01*
X036475Y000999D01*
X036457Y000960D01*
X036437Y000922D01*
X036412Y000887D01*
X036385Y000854D01*
X036355Y000824D01*
X036322Y000797D01*
X036287Y000772D01*
X036249Y000752D01*
X036210Y000734D01*
X036170Y000721D01*
X036128Y000711D01*
X036086Y000705D01*
X036043Y000703D01*
X036000Y000705D01*
X035958Y000711D01*
X035916Y000721D01*
X035876Y000734D01*
X035837Y000752D01*
X035799Y000772D01*
X035764Y000797D01*
X035731Y000824D01*
X035701Y000854D01*
X035674Y000887D01*
X035649Y000922D01*
X035629Y000960D01*
X035611Y000999D01*
X035598Y001039D01*
X035588Y001081D01*
X035582Y001123D01*
X035580Y001166D01*
X041485Y001166D02*
X041487Y001209D01*
X041493Y001251D01*
X041503Y001293D01*
X041516Y001333D01*
X041534Y001372D01*
X041554Y001410D01*
X041579Y001445D01*
X041606Y001478D01*
X041636Y001508D01*
X041669Y001535D01*
X041704Y001560D01*
X041742Y001580D01*
X041781Y001598D01*
X041821Y001611D01*
X041863Y001621D01*
X041905Y001627D01*
X041948Y001629D01*
X041991Y001627D01*
X042033Y001621D01*
X042075Y001611D01*
X042115Y001598D01*
X042154Y001580D01*
X042192Y001560D01*
X042227Y001535D01*
X042260Y001508D01*
X042290Y001478D01*
X042317Y001445D01*
X042342Y001410D01*
X042362Y001372D01*
X042380Y001333D01*
X042393Y001293D01*
X042403Y001251D01*
X042409Y001209D01*
X042411Y001166D01*
X042409Y001123D01*
X042403Y001081D01*
X042393Y001039D01*
X042380Y000999D01*
X042362Y000960D01*
X042342Y000922D01*
X042317Y000887D01*
X042290Y000854D01*
X042260Y000824D01*
X042227Y000797D01*
X042192Y000772D01*
X042154Y000752D01*
X042115Y000734D01*
X042075Y000721D01*
X042033Y000711D01*
X041991Y000705D01*
X041948Y000703D01*
X041905Y000705D01*
X041863Y000711D01*
X041821Y000721D01*
X041781Y000734D01*
X041742Y000752D01*
X041704Y000772D01*
X041669Y000797D01*
X041636Y000824D01*
X041606Y000854D01*
X041579Y000887D01*
X041554Y000922D01*
X041534Y000960D01*
X041516Y000999D01*
X041503Y001039D01*
X041493Y001081D01*
X041487Y001123D01*
X041485Y001166D01*
X044241Y001166D02*
X044243Y001209D01*
X044249Y001251D01*
X044259Y001293D01*
X044272Y001333D01*
X044290Y001372D01*
X044310Y001410D01*
X044335Y001445D01*
X044362Y001478D01*
X044392Y001508D01*
X044425Y001535D01*
X044460Y001560D01*
X044498Y001580D01*
X044537Y001598D01*
X044577Y001611D01*
X044619Y001621D01*
X044661Y001627D01*
X044704Y001629D01*
X044747Y001627D01*
X044789Y001621D01*
X044831Y001611D01*
X044871Y001598D01*
X044910Y001580D01*
X044948Y001560D01*
X044983Y001535D01*
X045016Y001508D01*
X045046Y001478D01*
X045073Y001445D01*
X045098Y001410D01*
X045118Y001372D01*
X045136Y001333D01*
X045149Y001293D01*
X045159Y001251D01*
X045165Y001209D01*
X045167Y001166D01*
X045165Y001123D01*
X045159Y001081D01*
X045149Y001039D01*
X045136Y000999D01*
X045118Y000960D01*
X045098Y000922D01*
X045073Y000887D01*
X045046Y000854D01*
X045016Y000824D01*
X044983Y000797D01*
X044948Y000772D01*
X044910Y000752D01*
X044871Y000734D01*
X044831Y000721D01*
X044789Y000711D01*
X044747Y000705D01*
X044704Y000703D01*
X044661Y000705D01*
X044619Y000711D01*
X044577Y000721D01*
X044537Y000734D01*
X044498Y000752D01*
X044460Y000772D01*
X044425Y000797D01*
X044392Y000824D01*
X044362Y000854D01*
X044335Y000887D01*
X044310Y000922D01*
X044290Y000960D01*
X044272Y000999D01*
X044259Y001039D01*
X044249Y001081D01*
X044243Y001123D01*
X044241Y001166D01*
X050146Y001166D02*
X050148Y001209D01*
X050154Y001251D01*
X050164Y001293D01*
X050177Y001333D01*
X050195Y001372D01*
X050215Y001410D01*
X050240Y001445D01*
X050267Y001478D01*
X050297Y001508D01*
X050330Y001535D01*
X050365Y001560D01*
X050403Y001580D01*
X050442Y001598D01*
X050482Y001611D01*
X050524Y001621D01*
X050566Y001627D01*
X050609Y001629D01*
X050652Y001627D01*
X050694Y001621D01*
X050736Y001611D01*
X050776Y001598D01*
X050815Y001580D01*
X050853Y001560D01*
X050888Y001535D01*
X050921Y001508D01*
X050951Y001478D01*
X050978Y001445D01*
X051003Y001410D01*
X051023Y001372D01*
X051041Y001333D01*
X051054Y001293D01*
X051064Y001251D01*
X051070Y001209D01*
X051072Y001166D01*
X051070Y001123D01*
X051064Y001081D01*
X051054Y001039D01*
X051041Y000999D01*
X051023Y000960D01*
X051003Y000922D01*
X050978Y000887D01*
X050951Y000854D01*
X050921Y000824D01*
X050888Y000797D01*
X050853Y000772D01*
X050815Y000752D01*
X050776Y000734D01*
X050736Y000721D01*
X050694Y000711D01*
X050652Y000705D01*
X050609Y000703D01*
X050566Y000705D01*
X050524Y000711D01*
X050482Y000721D01*
X050442Y000734D01*
X050403Y000752D01*
X050365Y000772D01*
X050330Y000797D01*
X050297Y000824D01*
X050267Y000854D01*
X050240Y000887D01*
X050215Y000922D01*
X050195Y000960D01*
X050177Y000999D01*
X050164Y001039D01*
X050154Y001081D01*
X050148Y001123D01*
X050146Y001166D01*
X052902Y001166D02*
X052904Y001209D01*
X052910Y001251D01*
X052920Y001293D01*
X052933Y001333D01*
X052951Y001372D01*
X052971Y001410D01*
X052996Y001445D01*
X053023Y001478D01*
X053053Y001508D01*
X053086Y001535D01*
X053121Y001560D01*
X053159Y001580D01*
X053198Y001598D01*
X053238Y001611D01*
X053280Y001621D01*
X053322Y001627D01*
X053365Y001629D01*
X053408Y001627D01*
X053450Y001621D01*
X053492Y001611D01*
X053532Y001598D01*
X053571Y001580D01*
X053609Y001560D01*
X053644Y001535D01*
X053677Y001508D01*
X053707Y001478D01*
X053734Y001445D01*
X053759Y001410D01*
X053779Y001372D01*
X053797Y001333D01*
X053810Y001293D01*
X053820Y001251D01*
X053826Y001209D01*
X053828Y001166D01*
X053826Y001123D01*
X053820Y001081D01*
X053810Y001039D01*
X053797Y000999D01*
X053779Y000960D01*
X053759Y000922D01*
X053734Y000887D01*
X053707Y000854D01*
X053677Y000824D01*
X053644Y000797D01*
X053609Y000772D01*
X053571Y000752D01*
X053532Y000734D01*
X053492Y000721D01*
X053450Y000711D01*
X053408Y000705D01*
X053365Y000703D01*
X053322Y000705D01*
X053280Y000711D01*
X053238Y000721D01*
X053198Y000734D01*
X053159Y000752D01*
X053121Y000772D01*
X053086Y000797D01*
X053053Y000824D01*
X053023Y000854D01*
X052996Y000887D01*
X052971Y000922D01*
X052951Y000960D01*
X052933Y000999D01*
X052920Y001039D01*
X052910Y001081D01*
X052904Y001123D01*
X052902Y001166D01*
X058808Y001166D02*
X058810Y001209D01*
X058816Y001251D01*
X058826Y001293D01*
X058839Y001333D01*
X058857Y001372D01*
X058877Y001410D01*
X058902Y001445D01*
X058929Y001478D01*
X058959Y001508D01*
X058992Y001535D01*
X059027Y001560D01*
X059065Y001580D01*
X059104Y001598D01*
X059144Y001611D01*
X059186Y001621D01*
X059228Y001627D01*
X059271Y001629D01*
X059314Y001627D01*
X059356Y001621D01*
X059398Y001611D01*
X059438Y001598D01*
X059477Y001580D01*
X059515Y001560D01*
X059550Y001535D01*
X059583Y001508D01*
X059613Y001478D01*
X059640Y001445D01*
X059665Y001410D01*
X059685Y001372D01*
X059703Y001333D01*
X059716Y001293D01*
X059726Y001251D01*
X059732Y001209D01*
X059734Y001166D01*
X059732Y001123D01*
X059726Y001081D01*
X059716Y001039D01*
X059703Y000999D01*
X059685Y000960D01*
X059665Y000922D01*
X059640Y000887D01*
X059613Y000854D01*
X059583Y000824D01*
X059550Y000797D01*
X059515Y000772D01*
X059477Y000752D01*
X059438Y000734D01*
X059398Y000721D01*
X059356Y000711D01*
X059314Y000705D01*
X059271Y000703D01*
X059228Y000705D01*
X059186Y000711D01*
X059144Y000721D01*
X059104Y000734D01*
X059065Y000752D01*
X059027Y000772D01*
X058992Y000797D01*
X058959Y000824D01*
X058929Y000854D01*
X058902Y000887D01*
X058877Y000922D01*
X058857Y000960D01*
X058839Y000999D01*
X058826Y001039D01*
X058816Y001081D01*
X058810Y001123D01*
X058808Y001166D01*
X061564Y001166D02*
X061566Y001209D01*
X061572Y001251D01*
X061582Y001293D01*
X061595Y001333D01*
X061613Y001372D01*
X061633Y001410D01*
X061658Y001445D01*
X061685Y001478D01*
X061715Y001508D01*
X061748Y001535D01*
X061783Y001560D01*
X061821Y001580D01*
X061860Y001598D01*
X061900Y001611D01*
X061942Y001621D01*
X061984Y001627D01*
X062027Y001629D01*
X062070Y001627D01*
X062112Y001621D01*
X062154Y001611D01*
X062194Y001598D01*
X062233Y001580D01*
X062271Y001560D01*
X062306Y001535D01*
X062339Y001508D01*
X062369Y001478D01*
X062396Y001445D01*
X062421Y001410D01*
X062441Y001372D01*
X062459Y001333D01*
X062472Y001293D01*
X062482Y001251D01*
X062488Y001209D01*
X062490Y001166D01*
X062488Y001123D01*
X062482Y001081D01*
X062472Y001039D01*
X062459Y000999D01*
X062441Y000960D01*
X062421Y000922D01*
X062396Y000887D01*
X062369Y000854D01*
X062339Y000824D01*
X062306Y000797D01*
X062271Y000772D01*
X062233Y000752D01*
X062194Y000734D01*
X062154Y000721D01*
X062112Y000711D01*
X062070Y000705D01*
X062027Y000703D01*
X061984Y000705D01*
X061942Y000711D01*
X061900Y000721D01*
X061860Y000734D01*
X061821Y000752D01*
X061783Y000772D01*
X061748Y000797D01*
X061715Y000824D01*
X061685Y000854D01*
X061658Y000887D01*
X061633Y000922D01*
X061613Y000960D01*
X061595Y000999D01*
X061582Y001039D01*
X061572Y001081D01*
X061566Y001123D01*
X061564Y001166D01*
X067469Y001166D02*
X067471Y001209D01*
X067477Y001251D01*
X067487Y001293D01*
X067500Y001333D01*
X067518Y001372D01*
X067538Y001410D01*
X067563Y001445D01*
X067590Y001478D01*
X067620Y001508D01*
X067653Y001535D01*
X067688Y001560D01*
X067726Y001580D01*
X067765Y001598D01*
X067805Y001611D01*
X067847Y001621D01*
X067889Y001627D01*
X067932Y001629D01*
X067975Y001627D01*
X068017Y001621D01*
X068059Y001611D01*
X068099Y001598D01*
X068138Y001580D01*
X068176Y001560D01*
X068211Y001535D01*
X068244Y001508D01*
X068274Y001478D01*
X068301Y001445D01*
X068326Y001410D01*
X068346Y001372D01*
X068364Y001333D01*
X068377Y001293D01*
X068387Y001251D01*
X068393Y001209D01*
X068395Y001166D01*
X068393Y001123D01*
X068387Y001081D01*
X068377Y001039D01*
X068364Y000999D01*
X068346Y000960D01*
X068326Y000922D01*
X068301Y000887D01*
X068274Y000854D01*
X068244Y000824D01*
X068211Y000797D01*
X068176Y000772D01*
X068138Y000752D01*
X068099Y000734D01*
X068059Y000721D01*
X068017Y000711D01*
X067975Y000705D01*
X067932Y000703D01*
X067889Y000705D01*
X067847Y000711D01*
X067805Y000721D01*
X067765Y000734D01*
X067726Y000752D01*
X067688Y000772D01*
X067653Y000797D01*
X067620Y000824D01*
X067590Y000854D01*
X067563Y000887D01*
X067538Y000922D01*
X067518Y000960D01*
X067500Y000999D01*
X067487Y001039D01*
X067477Y001081D01*
X067471Y001123D01*
X067469Y001166D01*
X070225Y001166D02*
X070227Y001209D01*
X070233Y001251D01*
X070243Y001293D01*
X070256Y001333D01*
X070274Y001372D01*
X070294Y001410D01*
X070319Y001445D01*
X070346Y001478D01*
X070376Y001508D01*
X070409Y001535D01*
X070444Y001560D01*
X070482Y001580D01*
X070521Y001598D01*
X070561Y001611D01*
X070603Y001621D01*
X070645Y001627D01*
X070688Y001629D01*
X070731Y001627D01*
X070773Y001621D01*
X070815Y001611D01*
X070855Y001598D01*
X070894Y001580D01*
X070932Y001560D01*
X070967Y001535D01*
X071000Y001508D01*
X071030Y001478D01*
X071057Y001445D01*
X071082Y001410D01*
X071102Y001372D01*
X071120Y001333D01*
X071133Y001293D01*
X071143Y001251D01*
X071149Y001209D01*
X071151Y001166D01*
X071149Y001123D01*
X071143Y001081D01*
X071133Y001039D01*
X071120Y000999D01*
X071102Y000960D01*
X071082Y000922D01*
X071057Y000887D01*
X071030Y000854D01*
X071000Y000824D01*
X070967Y000797D01*
X070932Y000772D01*
X070894Y000752D01*
X070855Y000734D01*
X070815Y000721D01*
X070773Y000711D01*
X070731Y000705D01*
X070688Y000703D01*
X070645Y000705D01*
X070603Y000711D01*
X070561Y000721D01*
X070521Y000734D01*
X070482Y000752D01*
X070444Y000772D01*
X070409Y000797D01*
X070376Y000824D01*
X070346Y000854D01*
X070319Y000887D01*
X070294Y000922D01*
X070274Y000960D01*
X070256Y000999D01*
X070243Y001039D01*
X070233Y001081D01*
X070227Y001123D01*
X070225Y001166D01*
X076131Y001166D02*
X076133Y001209D01*
X076139Y001251D01*
X076149Y001293D01*
X076162Y001333D01*
X076180Y001372D01*
X076200Y001410D01*
X076225Y001445D01*
X076252Y001478D01*
X076282Y001508D01*
X076315Y001535D01*
X076350Y001560D01*
X076388Y001580D01*
X076427Y001598D01*
X076467Y001611D01*
X076509Y001621D01*
X076551Y001627D01*
X076594Y001629D01*
X076637Y001627D01*
X076679Y001621D01*
X076721Y001611D01*
X076761Y001598D01*
X076800Y001580D01*
X076838Y001560D01*
X076873Y001535D01*
X076906Y001508D01*
X076936Y001478D01*
X076963Y001445D01*
X076988Y001410D01*
X077008Y001372D01*
X077026Y001333D01*
X077039Y001293D01*
X077049Y001251D01*
X077055Y001209D01*
X077057Y001166D01*
X077055Y001123D01*
X077049Y001081D01*
X077039Y001039D01*
X077026Y000999D01*
X077008Y000960D01*
X076988Y000922D01*
X076963Y000887D01*
X076936Y000854D01*
X076906Y000824D01*
X076873Y000797D01*
X076838Y000772D01*
X076800Y000752D01*
X076761Y000734D01*
X076721Y000721D01*
X076679Y000711D01*
X076637Y000705D01*
X076594Y000703D01*
X076551Y000705D01*
X076509Y000711D01*
X076467Y000721D01*
X076427Y000734D01*
X076388Y000752D01*
X076350Y000772D01*
X076315Y000797D01*
X076282Y000824D01*
X076252Y000854D01*
X076225Y000887D01*
X076200Y000922D01*
X076180Y000960D01*
X076162Y000999D01*
X076149Y001039D01*
X076139Y001081D01*
X076133Y001123D01*
X076131Y001166D01*
X076043Y003725D02*
X076045Y003772D01*
X076051Y003818D01*
X076061Y003864D01*
X076074Y003909D01*
X076092Y003952D01*
X076113Y003994D01*
X076137Y004034D01*
X076165Y004071D01*
X076196Y004106D01*
X076230Y004139D01*
X076266Y004168D01*
X076305Y004194D01*
X076346Y004217D01*
X076389Y004236D01*
X076433Y004252D01*
X076478Y004264D01*
X076524Y004272D01*
X076571Y004276D01*
X076617Y004276D01*
X076664Y004272D01*
X076710Y004264D01*
X076755Y004252D01*
X076799Y004236D01*
X076842Y004217D01*
X076883Y004194D01*
X076922Y004168D01*
X076958Y004139D01*
X076992Y004106D01*
X077023Y004071D01*
X077051Y004034D01*
X077075Y003994D01*
X077096Y003952D01*
X077114Y003909D01*
X077127Y003864D01*
X077137Y003818D01*
X077143Y003772D01*
X077145Y003725D01*
X077143Y003678D01*
X077137Y003632D01*
X077127Y003586D01*
X077114Y003541D01*
X077096Y003498D01*
X077075Y003456D01*
X077051Y003416D01*
X077023Y003379D01*
X076992Y003344D01*
X076958Y003311D01*
X076922Y003282D01*
X076883Y003256D01*
X076842Y003233D01*
X076799Y003214D01*
X076755Y003198D01*
X076710Y003186D01*
X076664Y003178D01*
X076617Y003174D01*
X076571Y003174D01*
X076524Y003178D01*
X076478Y003186D01*
X076433Y003198D01*
X076389Y003214D01*
X076346Y003233D01*
X076305Y003256D01*
X076266Y003282D01*
X076230Y003311D01*
X076196Y003344D01*
X076165Y003379D01*
X076137Y003416D01*
X076113Y003456D01*
X076092Y003498D01*
X076074Y003541D01*
X076061Y003586D01*
X076051Y003632D01*
X076045Y003678D01*
X076043Y003725D01*
X075588Y008449D02*
X075590Y008492D01*
X075596Y008535D01*
X075606Y008577D01*
X075619Y008618D01*
X075636Y008657D01*
X075657Y008695D01*
X075681Y008731D01*
X075708Y008765D01*
X075738Y008795D01*
X075771Y008823D01*
X075807Y008848D01*
X075844Y008870D01*
X075883Y008888D01*
X075924Y008902D01*
X075966Y008913D01*
X076008Y008920D01*
X076051Y008923D01*
X076094Y008922D01*
X076137Y008917D01*
X076179Y008908D01*
X076221Y008896D01*
X076261Y008879D01*
X076299Y008859D01*
X076335Y008836D01*
X076369Y008810D01*
X076401Y008780D01*
X076430Y008748D01*
X076455Y008713D01*
X076478Y008677D01*
X076497Y008638D01*
X076512Y008598D01*
X076524Y008556D01*
X076532Y008514D01*
X076536Y008471D01*
X076536Y008427D01*
X076532Y008384D01*
X076524Y008342D01*
X076512Y008300D01*
X076497Y008260D01*
X076478Y008221D01*
X076455Y008185D01*
X076430Y008150D01*
X076401Y008118D01*
X076369Y008088D01*
X076335Y008062D01*
X076299Y008039D01*
X076261Y008019D01*
X076221Y008002D01*
X076179Y007990D01*
X076137Y007981D01*
X076094Y007976D01*
X076051Y007975D01*
X076008Y007978D01*
X075966Y007985D01*
X075924Y007996D01*
X075883Y008010D01*
X075844Y008028D01*
X075807Y008050D01*
X075771Y008075D01*
X075738Y008103D01*
X075708Y008133D01*
X075681Y008167D01*
X075657Y008203D01*
X075636Y008241D01*
X075619Y008280D01*
X075606Y008321D01*
X075596Y008363D01*
X075590Y008406D01*
X075588Y008449D01*
X071533Y008449D02*
X071535Y008492D01*
X071541Y008535D01*
X071551Y008577D01*
X071564Y008618D01*
X071581Y008657D01*
X071602Y008695D01*
X071626Y008731D01*
X071653Y008765D01*
X071683Y008795D01*
X071716Y008823D01*
X071752Y008848D01*
X071789Y008870D01*
X071828Y008888D01*
X071869Y008902D01*
X071911Y008913D01*
X071953Y008920D01*
X071996Y008923D01*
X072039Y008922D01*
X072082Y008917D01*
X072124Y008908D01*
X072166Y008896D01*
X072206Y008879D01*
X072244Y008859D01*
X072280Y008836D01*
X072314Y008810D01*
X072346Y008780D01*
X072375Y008748D01*
X072400Y008713D01*
X072423Y008677D01*
X072442Y008638D01*
X072457Y008598D01*
X072469Y008556D01*
X072477Y008514D01*
X072481Y008471D01*
X072481Y008427D01*
X072477Y008384D01*
X072469Y008342D01*
X072457Y008300D01*
X072442Y008260D01*
X072423Y008221D01*
X072400Y008185D01*
X072375Y008150D01*
X072346Y008118D01*
X072314Y008088D01*
X072280Y008062D01*
X072244Y008039D01*
X072206Y008019D01*
X072166Y008002D01*
X072124Y007990D01*
X072082Y007981D01*
X072039Y007976D01*
X071996Y007975D01*
X071953Y007978D01*
X071911Y007985D01*
X071869Y007996D01*
X071828Y008010D01*
X071789Y008028D01*
X071752Y008050D01*
X071716Y008075D01*
X071683Y008103D01*
X071653Y008133D01*
X071626Y008167D01*
X071602Y008203D01*
X071581Y008241D01*
X071564Y008280D01*
X071551Y008321D01*
X071541Y008363D01*
X071535Y008406D01*
X071533Y008449D01*
X070076Y008449D02*
X070078Y008492D01*
X070084Y008535D01*
X070094Y008577D01*
X070107Y008618D01*
X070124Y008657D01*
X070145Y008695D01*
X070169Y008731D01*
X070196Y008765D01*
X070226Y008795D01*
X070259Y008823D01*
X070295Y008848D01*
X070332Y008870D01*
X070371Y008888D01*
X070412Y008902D01*
X070454Y008913D01*
X070496Y008920D01*
X070539Y008923D01*
X070582Y008922D01*
X070625Y008917D01*
X070667Y008908D01*
X070709Y008896D01*
X070749Y008879D01*
X070787Y008859D01*
X070823Y008836D01*
X070857Y008810D01*
X070889Y008780D01*
X070918Y008748D01*
X070943Y008713D01*
X070966Y008677D01*
X070985Y008638D01*
X071000Y008598D01*
X071012Y008556D01*
X071020Y008514D01*
X071024Y008471D01*
X071024Y008427D01*
X071020Y008384D01*
X071012Y008342D01*
X071000Y008300D01*
X070985Y008260D01*
X070966Y008221D01*
X070943Y008185D01*
X070918Y008150D01*
X070889Y008118D01*
X070857Y008088D01*
X070823Y008062D01*
X070787Y008039D01*
X070749Y008019D01*
X070709Y008002D01*
X070667Y007990D01*
X070625Y007981D01*
X070582Y007976D01*
X070539Y007975D01*
X070496Y007978D01*
X070454Y007985D01*
X070412Y007996D01*
X070371Y008010D01*
X070332Y008028D01*
X070295Y008050D01*
X070259Y008075D01*
X070226Y008103D01*
X070196Y008133D01*
X070169Y008167D01*
X070145Y008203D01*
X070124Y008241D01*
X070107Y008280D01*
X070094Y008321D01*
X070084Y008363D01*
X070078Y008406D01*
X070076Y008449D01*
X066021Y008449D02*
X066023Y008492D01*
X066029Y008535D01*
X066039Y008577D01*
X066052Y008618D01*
X066069Y008657D01*
X066090Y008695D01*
X066114Y008731D01*
X066141Y008765D01*
X066171Y008795D01*
X066204Y008823D01*
X066240Y008848D01*
X066277Y008870D01*
X066316Y008888D01*
X066357Y008902D01*
X066399Y008913D01*
X066441Y008920D01*
X066484Y008923D01*
X066527Y008922D01*
X066570Y008917D01*
X066612Y008908D01*
X066654Y008896D01*
X066694Y008879D01*
X066732Y008859D01*
X066768Y008836D01*
X066802Y008810D01*
X066834Y008780D01*
X066863Y008748D01*
X066888Y008713D01*
X066911Y008677D01*
X066930Y008638D01*
X066945Y008598D01*
X066957Y008556D01*
X066965Y008514D01*
X066969Y008471D01*
X066969Y008427D01*
X066965Y008384D01*
X066957Y008342D01*
X066945Y008300D01*
X066930Y008260D01*
X066911Y008221D01*
X066888Y008185D01*
X066863Y008150D01*
X066834Y008118D01*
X066802Y008088D01*
X066768Y008062D01*
X066732Y008039D01*
X066694Y008019D01*
X066654Y008002D01*
X066612Y007990D01*
X066570Y007981D01*
X066527Y007976D01*
X066484Y007975D01*
X066441Y007978D01*
X066399Y007985D01*
X066357Y007996D01*
X066316Y008010D01*
X066277Y008028D01*
X066240Y008050D01*
X066204Y008075D01*
X066171Y008103D01*
X066141Y008133D01*
X066114Y008167D01*
X066090Y008203D01*
X066069Y008241D01*
X066052Y008280D01*
X066039Y008321D01*
X066029Y008363D01*
X066023Y008406D01*
X066021Y008449D01*
X064565Y008449D02*
X064567Y008492D01*
X064573Y008535D01*
X064583Y008577D01*
X064596Y008618D01*
X064613Y008657D01*
X064634Y008695D01*
X064658Y008731D01*
X064685Y008765D01*
X064715Y008795D01*
X064748Y008823D01*
X064784Y008848D01*
X064821Y008870D01*
X064860Y008888D01*
X064901Y008902D01*
X064943Y008913D01*
X064985Y008920D01*
X065028Y008923D01*
X065071Y008922D01*
X065114Y008917D01*
X065156Y008908D01*
X065198Y008896D01*
X065238Y008879D01*
X065276Y008859D01*
X065312Y008836D01*
X065346Y008810D01*
X065378Y008780D01*
X065407Y008748D01*
X065432Y008713D01*
X065455Y008677D01*
X065474Y008638D01*
X065489Y008598D01*
X065501Y008556D01*
X065509Y008514D01*
X065513Y008471D01*
X065513Y008427D01*
X065509Y008384D01*
X065501Y008342D01*
X065489Y008300D01*
X065474Y008260D01*
X065455Y008221D01*
X065432Y008185D01*
X065407Y008150D01*
X065378Y008118D01*
X065346Y008088D01*
X065312Y008062D01*
X065276Y008039D01*
X065238Y008019D01*
X065198Y008002D01*
X065156Y007990D01*
X065114Y007981D01*
X065071Y007976D01*
X065028Y007975D01*
X064985Y007978D01*
X064943Y007985D01*
X064901Y007996D01*
X064860Y008010D01*
X064821Y008028D01*
X064784Y008050D01*
X064748Y008075D01*
X064715Y008103D01*
X064685Y008133D01*
X064658Y008167D01*
X064634Y008203D01*
X064613Y008241D01*
X064596Y008280D01*
X064583Y008321D01*
X064573Y008363D01*
X064567Y008406D01*
X064565Y008449D01*
X060509Y008449D02*
X060511Y008492D01*
X060517Y008535D01*
X060527Y008577D01*
X060540Y008618D01*
X060557Y008657D01*
X060578Y008695D01*
X060602Y008731D01*
X060629Y008765D01*
X060659Y008795D01*
X060692Y008823D01*
X060728Y008848D01*
X060765Y008870D01*
X060804Y008888D01*
X060845Y008902D01*
X060887Y008913D01*
X060929Y008920D01*
X060972Y008923D01*
X061015Y008922D01*
X061058Y008917D01*
X061100Y008908D01*
X061142Y008896D01*
X061182Y008879D01*
X061220Y008859D01*
X061256Y008836D01*
X061290Y008810D01*
X061322Y008780D01*
X061351Y008748D01*
X061376Y008713D01*
X061399Y008677D01*
X061418Y008638D01*
X061433Y008598D01*
X061445Y008556D01*
X061453Y008514D01*
X061457Y008471D01*
X061457Y008427D01*
X061453Y008384D01*
X061445Y008342D01*
X061433Y008300D01*
X061418Y008260D01*
X061399Y008221D01*
X061376Y008185D01*
X061351Y008150D01*
X061322Y008118D01*
X061290Y008088D01*
X061256Y008062D01*
X061220Y008039D01*
X061182Y008019D01*
X061142Y008002D01*
X061100Y007990D01*
X061058Y007981D01*
X061015Y007976D01*
X060972Y007975D01*
X060929Y007978D01*
X060887Y007985D01*
X060845Y007996D01*
X060804Y008010D01*
X060765Y008028D01*
X060728Y008050D01*
X060692Y008075D01*
X060659Y008103D01*
X060629Y008133D01*
X060602Y008167D01*
X060578Y008203D01*
X060557Y008241D01*
X060540Y008280D01*
X060527Y008321D01*
X060517Y008363D01*
X060511Y008406D01*
X060509Y008449D01*
X059053Y008449D02*
X059055Y008492D01*
X059061Y008535D01*
X059071Y008577D01*
X059084Y008618D01*
X059101Y008657D01*
X059122Y008695D01*
X059146Y008731D01*
X059173Y008765D01*
X059203Y008795D01*
X059236Y008823D01*
X059272Y008848D01*
X059309Y008870D01*
X059348Y008888D01*
X059389Y008902D01*
X059431Y008913D01*
X059473Y008920D01*
X059516Y008923D01*
X059559Y008922D01*
X059602Y008917D01*
X059644Y008908D01*
X059686Y008896D01*
X059726Y008879D01*
X059764Y008859D01*
X059800Y008836D01*
X059834Y008810D01*
X059866Y008780D01*
X059895Y008748D01*
X059920Y008713D01*
X059943Y008677D01*
X059962Y008638D01*
X059977Y008598D01*
X059989Y008556D01*
X059997Y008514D01*
X060001Y008471D01*
X060001Y008427D01*
X059997Y008384D01*
X059989Y008342D01*
X059977Y008300D01*
X059962Y008260D01*
X059943Y008221D01*
X059920Y008185D01*
X059895Y008150D01*
X059866Y008118D01*
X059834Y008088D01*
X059800Y008062D01*
X059764Y008039D01*
X059726Y008019D01*
X059686Y008002D01*
X059644Y007990D01*
X059602Y007981D01*
X059559Y007976D01*
X059516Y007975D01*
X059473Y007978D01*
X059431Y007985D01*
X059389Y007996D01*
X059348Y008010D01*
X059309Y008028D01*
X059272Y008050D01*
X059236Y008075D01*
X059203Y008103D01*
X059173Y008133D01*
X059146Y008167D01*
X059122Y008203D01*
X059101Y008241D01*
X059084Y008280D01*
X059071Y008321D01*
X059061Y008363D01*
X059055Y008406D01*
X059053Y008449D01*
X054998Y008449D02*
X055000Y008492D01*
X055006Y008535D01*
X055016Y008577D01*
X055029Y008618D01*
X055046Y008657D01*
X055067Y008695D01*
X055091Y008731D01*
X055118Y008765D01*
X055148Y008795D01*
X055181Y008823D01*
X055217Y008848D01*
X055254Y008870D01*
X055293Y008888D01*
X055334Y008902D01*
X055376Y008913D01*
X055418Y008920D01*
X055461Y008923D01*
X055504Y008922D01*
X055547Y008917D01*
X055589Y008908D01*
X055631Y008896D01*
X055671Y008879D01*
X055709Y008859D01*
X055745Y008836D01*
X055779Y008810D01*
X055811Y008780D01*
X055840Y008748D01*
X055865Y008713D01*
X055888Y008677D01*
X055907Y008638D01*
X055922Y008598D01*
X055934Y008556D01*
X055942Y008514D01*
X055946Y008471D01*
X055946Y008427D01*
X055942Y008384D01*
X055934Y008342D01*
X055922Y008300D01*
X055907Y008260D01*
X055888Y008221D01*
X055865Y008185D01*
X055840Y008150D01*
X055811Y008118D01*
X055779Y008088D01*
X055745Y008062D01*
X055709Y008039D01*
X055671Y008019D01*
X055631Y008002D01*
X055589Y007990D01*
X055547Y007981D01*
X055504Y007976D01*
X055461Y007975D01*
X055418Y007978D01*
X055376Y007985D01*
X055334Y007996D01*
X055293Y008010D01*
X055254Y008028D01*
X055217Y008050D01*
X055181Y008075D01*
X055148Y008103D01*
X055118Y008133D01*
X055091Y008167D01*
X055067Y008203D01*
X055046Y008241D01*
X055029Y008280D01*
X055016Y008321D01*
X055006Y008363D01*
X055000Y008406D01*
X054998Y008449D01*
X053541Y008449D02*
X053543Y008492D01*
X053549Y008535D01*
X053559Y008577D01*
X053572Y008618D01*
X053589Y008657D01*
X053610Y008695D01*
X053634Y008731D01*
X053661Y008765D01*
X053691Y008795D01*
X053724Y008823D01*
X053760Y008848D01*
X053797Y008870D01*
X053836Y008888D01*
X053877Y008902D01*
X053919Y008913D01*
X053961Y008920D01*
X054004Y008923D01*
X054047Y008922D01*
X054090Y008917D01*
X054132Y008908D01*
X054174Y008896D01*
X054214Y008879D01*
X054252Y008859D01*
X054288Y008836D01*
X054322Y008810D01*
X054354Y008780D01*
X054383Y008748D01*
X054408Y008713D01*
X054431Y008677D01*
X054450Y008638D01*
X054465Y008598D01*
X054477Y008556D01*
X054485Y008514D01*
X054489Y008471D01*
X054489Y008427D01*
X054485Y008384D01*
X054477Y008342D01*
X054465Y008300D01*
X054450Y008260D01*
X054431Y008221D01*
X054408Y008185D01*
X054383Y008150D01*
X054354Y008118D01*
X054322Y008088D01*
X054288Y008062D01*
X054252Y008039D01*
X054214Y008019D01*
X054174Y008002D01*
X054132Y007990D01*
X054090Y007981D01*
X054047Y007976D01*
X054004Y007975D01*
X053961Y007978D01*
X053919Y007985D01*
X053877Y007996D01*
X053836Y008010D01*
X053797Y008028D01*
X053760Y008050D01*
X053724Y008075D01*
X053691Y008103D01*
X053661Y008133D01*
X053634Y008167D01*
X053610Y008203D01*
X053589Y008241D01*
X053572Y008280D01*
X053559Y008321D01*
X053549Y008363D01*
X053543Y008406D01*
X053541Y008449D01*
X049486Y008449D02*
X049488Y008492D01*
X049494Y008535D01*
X049504Y008577D01*
X049517Y008618D01*
X049534Y008657D01*
X049555Y008695D01*
X049579Y008731D01*
X049606Y008765D01*
X049636Y008795D01*
X049669Y008823D01*
X049705Y008848D01*
X049742Y008870D01*
X049781Y008888D01*
X049822Y008902D01*
X049864Y008913D01*
X049906Y008920D01*
X049949Y008923D01*
X049992Y008922D01*
X050035Y008917D01*
X050077Y008908D01*
X050119Y008896D01*
X050159Y008879D01*
X050197Y008859D01*
X050233Y008836D01*
X050267Y008810D01*
X050299Y008780D01*
X050328Y008748D01*
X050353Y008713D01*
X050376Y008677D01*
X050395Y008638D01*
X050410Y008598D01*
X050422Y008556D01*
X050430Y008514D01*
X050434Y008471D01*
X050434Y008427D01*
X050430Y008384D01*
X050422Y008342D01*
X050410Y008300D01*
X050395Y008260D01*
X050376Y008221D01*
X050353Y008185D01*
X050328Y008150D01*
X050299Y008118D01*
X050267Y008088D01*
X050233Y008062D01*
X050197Y008039D01*
X050159Y008019D01*
X050119Y008002D01*
X050077Y007990D01*
X050035Y007981D01*
X049992Y007976D01*
X049949Y007975D01*
X049906Y007978D01*
X049864Y007985D01*
X049822Y007996D01*
X049781Y008010D01*
X049742Y008028D01*
X049705Y008050D01*
X049669Y008075D01*
X049636Y008103D01*
X049606Y008133D01*
X049579Y008167D01*
X049555Y008203D01*
X049534Y008241D01*
X049517Y008280D01*
X049504Y008321D01*
X049494Y008363D01*
X049488Y008406D01*
X049486Y008449D01*
X048029Y008449D02*
X048031Y008492D01*
X048037Y008535D01*
X048047Y008577D01*
X048060Y008618D01*
X048077Y008657D01*
X048098Y008695D01*
X048122Y008731D01*
X048149Y008765D01*
X048179Y008795D01*
X048212Y008823D01*
X048248Y008848D01*
X048285Y008870D01*
X048324Y008888D01*
X048365Y008902D01*
X048407Y008913D01*
X048449Y008920D01*
X048492Y008923D01*
X048535Y008922D01*
X048578Y008917D01*
X048620Y008908D01*
X048662Y008896D01*
X048702Y008879D01*
X048740Y008859D01*
X048776Y008836D01*
X048810Y008810D01*
X048842Y008780D01*
X048871Y008748D01*
X048896Y008713D01*
X048919Y008677D01*
X048938Y008638D01*
X048953Y008598D01*
X048965Y008556D01*
X048973Y008514D01*
X048977Y008471D01*
X048977Y008427D01*
X048973Y008384D01*
X048965Y008342D01*
X048953Y008300D01*
X048938Y008260D01*
X048919Y008221D01*
X048896Y008185D01*
X048871Y008150D01*
X048842Y008118D01*
X048810Y008088D01*
X048776Y008062D01*
X048740Y008039D01*
X048702Y008019D01*
X048662Y008002D01*
X048620Y007990D01*
X048578Y007981D01*
X048535Y007976D01*
X048492Y007975D01*
X048449Y007978D01*
X048407Y007985D01*
X048365Y007996D01*
X048324Y008010D01*
X048285Y008028D01*
X048248Y008050D01*
X048212Y008075D01*
X048179Y008103D01*
X048149Y008133D01*
X048122Y008167D01*
X048098Y008203D01*
X048077Y008241D01*
X048060Y008280D01*
X048047Y008321D01*
X048037Y008363D01*
X048031Y008406D01*
X048029Y008449D01*
X043974Y008449D02*
X043976Y008492D01*
X043982Y008535D01*
X043992Y008577D01*
X044005Y008618D01*
X044022Y008657D01*
X044043Y008695D01*
X044067Y008731D01*
X044094Y008765D01*
X044124Y008795D01*
X044157Y008823D01*
X044193Y008848D01*
X044230Y008870D01*
X044269Y008888D01*
X044310Y008902D01*
X044352Y008913D01*
X044394Y008920D01*
X044437Y008923D01*
X044480Y008922D01*
X044523Y008917D01*
X044565Y008908D01*
X044607Y008896D01*
X044647Y008879D01*
X044685Y008859D01*
X044721Y008836D01*
X044755Y008810D01*
X044787Y008780D01*
X044816Y008748D01*
X044841Y008713D01*
X044864Y008677D01*
X044883Y008638D01*
X044898Y008598D01*
X044910Y008556D01*
X044918Y008514D01*
X044922Y008471D01*
X044922Y008427D01*
X044918Y008384D01*
X044910Y008342D01*
X044898Y008300D01*
X044883Y008260D01*
X044864Y008221D01*
X044841Y008185D01*
X044816Y008150D01*
X044787Y008118D01*
X044755Y008088D01*
X044721Y008062D01*
X044685Y008039D01*
X044647Y008019D01*
X044607Y008002D01*
X044565Y007990D01*
X044523Y007981D01*
X044480Y007976D01*
X044437Y007975D01*
X044394Y007978D01*
X044352Y007985D01*
X044310Y007996D01*
X044269Y008010D01*
X044230Y008028D01*
X044193Y008050D01*
X044157Y008075D01*
X044124Y008103D01*
X044094Y008133D01*
X044067Y008167D01*
X044043Y008203D01*
X044022Y008241D01*
X044005Y008280D01*
X043992Y008321D01*
X043982Y008363D01*
X043976Y008406D01*
X043974Y008449D01*
X042517Y008449D02*
X042519Y008492D01*
X042525Y008535D01*
X042535Y008577D01*
X042548Y008618D01*
X042565Y008657D01*
X042586Y008695D01*
X042610Y008731D01*
X042637Y008765D01*
X042667Y008795D01*
X042700Y008823D01*
X042736Y008848D01*
X042773Y008870D01*
X042812Y008888D01*
X042853Y008902D01*
X042895Y008913D01*
X042937Y008920D01*
X042980Y008923D01*
X043023Y008922D01*
X043066Y008917D01*
X043108Y008908D01*
X043150Y008896D01*
X043190Y008879D01*
X043228Y008859D01*
X043264Y008836D01*
X043298Y008810D01*
X043330Y008780D01*
X043359Y008748D01*
X043384Y008713D01*
X043407Y008677D01*
X043426Y008638D01*
X043441Y008598D01*
X043453Y008556D01*
X043461Y008514D01*
X043465Y008471D01*
X043465Y008427D01*
X043461Y008384D01*
X043453Y008342D01*
X043441Y008300D01*
X043426Y008260D01*
X043407Y008221D01*
X043384Y008185D01*
X043359Y008150D01*
X043330Y008118D01*
X043298Y008088D01*
X043264Y008062D01*
X043228Y008039D01*
X043190Y008019D01*
X043150Y008002D01*
X043108Y007990D01*
X043066Y007981D01*
X043023Y007976D01*
X042980Y007975D01*
X042937Y007978D01*
X042895Y007985D01*
X042853Y007996D01*
X042812Y008010D01*
X042773Y008028D01*
X042736Y008050D01*
X042700Y008075D01*
X042667Y008103D01*
X042637Y008133D01*
X042610Y008167D01*
X042586Y008203D01*
X042565Y008241D01*
X042548Y008280D01*
X042535Y008321D01*
X042525Y008363D01*
X042519Y008406D01*
X042517Y008449D01*
X038462Y008449D02*
X038464Y008492D01*
X038470Y008535D01*
X038480Y008577D01*
X038493Y008618D01*
X038510Y008657D01*
X038531Y008695D01*
X038555Y008731D01*
X038582Y008765D01*
X038612Y008795D01*
X038645Y008823D01*
X038681Y008848D01*
X038718Y008870D01*
X038757Y008888D01*
X038798Y008902D01*
X038840Y008913D01*
X038882Y008920D01*
X038925Y008923D01*
X038968Y008922D01*
X039011Y008917D01*
X039053Y008908D01*
X039095Y008896D01*
X039135Y008879D01*
X039173Y008859D01*
X039209Y008836D01*
X039243Y008810D01*
X039275Y008780D01*
X039304Y008748D01*
X039329Y008713D01*
X039352Y008677D01*
X039371Y008638D01*
X039386Y008598D01*
X039398Y008556D01*
X039406Y008514D01*
X039410Y008471D01*
X039410Y008427D01*
X039406Y008384D01*
X039398Y008342D01*
X039386Y008300D01*
X039371Y008260D01*
X039352Y008221D01*
X039329Y008185D01*
X039304Y008150D01*
X039275Y008118D01*
X039243Y008088D01*
X039209Y008062D01*
X039173Y008039D01*
X039135Y008019D01*
X039095Y008002D01*
X039053Y007990D01*
X039011Y007981D01*
X038968Y007976D01*
X038925Y007975D01*
X038882Y007978D01*
X038840Y007985D01*
X038798Y007996D01*
X038757Y008010D01*
X038718Y008028D01*
X038681Y008050D01*
X038645Y008075D01*
X038612Y008103D01*
X038582Y008133D01*
X038555Y008167D01*
X038531Y008203D01*
X038510Y008241D01*
X038493Y008280D01*
X038480Y008321D01*
X038470Y008363D01*
X038464Y008406D01*
X038462Y008449D01*
X037006Y008449D02*
X037008Y008492D01*
X037014Y008535D01*
X037024Y008577D01*
X037037Y008618D01*
X037054Y008657D01*
X037075Y008695D01*
X037099Y008731D01*
X037126Y008765D01*
X037156Y008795D01*
X037189Y008823D01*
X037225Y008848D01*
X037262Y008870D01*
X037301Y008888D01*
X037342Y008902D01*
X037384Y008913D01*
X037426Y008920D01*
X037469Y008923D01*
X037512Y008922D01*
X037555Y008917D01*
X037597Y008908D01*
X037639Y008896D01*
X037679Y008879D01*
X037717Y008859D01*
X037753Y008836D01*
X037787Y008810D01*
X037819Y008780D01*
X037848Y008748D01*
X037873Y008713D01*
X037896Y008677D01*
X037915Y008638D01*
X037930Y008598D01*
X037942Y008556D01*
X037950Y008514D01*
X037954Y008471D01*
X037954Y008427D01*
X037950Y008384D01*
X037942Y008342D01*
X037930Y008300D01*
X037915Y008260D01*
X037896Y008221D01*
X037873Y008185D01*
X037848Y008150D01*
X037819Y008118D01*
X037787Y008088D01*
X037753Y008062D01*
X037717Y008039D01*
X037679Y008019D01*
X037639Y008002D01*
X037597Y007990D01*
X037555Y007981D01*
X037512Y007976D01*
X037469Y007975D01*
X037426Y007978D01*
X037384Y007985D01*
X037342Y007996D01*
X037301Y008010D01*
X037262Y008028D01*
X037225Y008050D01*
X037189Y008075D01*
X037156Y008103D01*
X037126Y008133D01*
X037099Y008167D01*
X037075Y008203D01*
X037054Y008241D01*
X037037Y008280D01*
X037024Y008321D01*
X037014Y008363D01*
X037008Y008406D01*
X037006Y008449D01*
X032950Y008449D02*
X032952Y008492D01*
X032958Y008535D01*
X032968Y008577D01*
X032981Y008618D01*
X032998Y008657D01*
X033019Y008695D01*
X033043Y008731D01*
X033070Y008765D01*
X033100Y008795D01*
X033133Y008823D01*
X033169Y008848D01*
X033206Y008870D01*
X033245Y008888D01*
X033286Y008902D01*
X033328Y008913D01*
X033370Y008920D01*
X033413Y008923D01*
X033456Y008922D01*
X033499Y008917D01*
X033541Y008908D01*
X033583Y008896D01*
X033623Y008879D01*
X033661Y008859D01*
X033697Y008836D01*
X033731Y008810D01*
X033763Y008780D01*
X033792Y008748D01*
X033817Y008713D01*
X033840Y008677D01*
X033859Y008638D01*
X033874Y008598D01*
X033886Y008556D01*
X033894Y008514D01*
X033898Y008471D01*
X033898Y008427D01*
X033894Y008384D01*
X033886Y008342D01*
X033874Y008300D01*
X033859Y008260D01*
X033840Y008221D01*
X033817Y008185D01*
X033792Y008150D01*
X033763Y008118D01*
X033731Y008088D01*
X033697Y008062D01*
X033661Y008039D01*
X033623Y008019D01*
X033583Y008002D01*
X033541Y007990D01*
X033499Y007981D01*
X033456Y007976D01*
X033413Y007975D01*
X033370Y007978D01*
X033328Y007985D01*
X033286Y007996D01*
X033245Y008010D01*
X033206Y008028D01*
X033169Y008050D01*
X033133Y008075D01*
X033100Y008103D01*
X033070Y008133D01*
X033043Y008167D01*
X033019Y008203D01*
X032998Y008241D01*
X032981Y008280D01*
X032968Y008321D01*
X032958Y008363D01*
X032952Y008406D01*
X032950Y008449D01*
X031494Y008449D02*
X031496Y008492D01*
X031502Y008535D01*
X031512Y008577D01*
X031525Y008618D01*
X031542Y008657D01*
X031563Y008695D01*
X031587Y008731D01*
X031614Y008765D01*
X031644Y008795D01*
X031677Y008823D01*
X031713Y008848D01*
X031750Y008870D01*
X031789Y008888D01*
X031830Y008902D01*
X031872Y008913D01*
X031914Y008920D01*
X031957Y008923D01*
X032000Y008922D01*
X032043Y008917D01*
X032085Y008908D01*
X032127Y008896D01*
X032167Y008879D01*
X032205Y008859D01*
X032241Y008836D01*
X032275Y008810D01*
X032307Y008780D01*
X032336Y008748D01*
X032361Y008713D01*
X032384Y008677D01*
X032403Y008638D01*
X032418Y008598D01*
X032430Y008556D01*
X032438Y008514D01*
X032442Y008471D01*
X032442Y008427D01*
X032438Y008384D01*
X032430Y008342D01*
X032418Y008300D01*
X032403Y008260D01*
X032384Y008221D01*
X032361Y008185D01*
X032336Y008150D01*
X032307Y008118D01*
X032275Y008088D01*
X032241Y008062D01*
X032205Y008039D01*
X032167Y008019D01*
X032127Y008002D01*
X032085Y007990D01*
X032043Y007981D01*
X032000Y007976D01*
X031957Y007975D01*
X031914Y007978D01*
X031872Y007985D01*
X031830Y007996D01*
X031789Y008010D01*
X031750Y008028D01*
X031713Y008050D01*
X031677Y008075D01*
X031644Y008103D01*
X031614Y008133D01*
X031587Y008167D01*
X031563Y008203D01*
X031542Y008241D01*
X031525Y008280D01*
X031512Y008321D01*
X031502Y008363D01*
X031496Y008406D01*
X031494Y008449D01*
X027439Y008449D02*
X027441Y008492D01*
X027447Y008535D01*
X027457Y008577D01*
X027470Y008618D01*
X027487Y008657D01*
X027508Y008695D01*
X027532Y008731D01*
X027559Y008765D01*
X027589Y008795D01*
X027622Y008823D01*
X027658Y008848D01*
X027695Y008870D01*
X027734Y008888D01*
X027775Y008902D01*
X027817Y008913D01*
X027859Y008920D01*
X027902Y008923D01*
X027945Y008922D01*
X027988Y008917D01*
X028030Y008908D01*
X028072Y008896D01*
X028112Y008879D01*
X028150Y008859D01*
X028186Y008836D01*
X028220Y008810D01*
X028252Y008780D01*
X028281Y008748D01*
X028306Y008713D01*
X028329Y008677D01*
X028348Y008638D01*
X028363Y008598D01*
X028375Y008556D01*
X028383Y008514D01*
X028387Y008471D01*
X028387Y008427D01*
X028383Y008384D01*
X028375Y008342D01*
X028363Y008300D01*
X028348Y008260D01*
X028329Y008221D01*
X028306Y008185D01*
X028281Y008150D01*
X028252Y008118D01*
X028220Y008088D01*
X028186Y008062D01*
X028150Y008039D01*
X028112Y008019D01*
X028072Y008002D01*
X028030Y007990D01*
X027988Y007981D01*
X027945Y007976D01*
X027902Y007975D01*
X027859Y007978D01*
X027817Y007985D01*
X027775Y007996D01*
X027734Y008010D01*
X027695Y008028D01*
X027658Y008050D01*
X027622Y008075D01*
X027589Y008103D01*
X027559Y008133D01*
X027532Y008167D01*
X027508Y008203D01*
X027487Y008241D01*
X027470Y008280D01*
X027457Y008321D01*
X027447Y008363D01*
X027441Y008406D01*
X027439Y008449D01*
D13*
X030334Y000693D03*
X038995Y000693D03*
X047657Y000693D03*
X056318Y000693D03*
X064980Y000693D03*
X073641Y000693D03*
D14*
X074035Y006599D03*
X072854Y006599D03*
X075216Y006599D03*
X069704Y006599D03*
X068523Y006599D03*
X067342Y006599D03*
X064192Y006599D03*
X063011Y006599D03*
X061830Y006599D03*
X058680Y006599D03*
X057499Y006599D03*
X056318Y006599D03*
X053169Y006599D03*
X051987Y006599D03*
X050806Y006599D03*
X047657Y006599D03*
X046476Y006599D03*
X045294Y006599D03*
X042145Y006599D03*
X040964Y006599D03*
X039783Y006599D03*
X036633Y006599D03*
X035452Y006599D03*
X034271Y006599D03*
X031121Y006599D03*
X029940Y006599D03*
X028759Y006599D03*
X028759Y010299D03*
X029940Y010299D03*
X031121Y010299D03*
X034271Y010299D03*
X035452Y010299D03*
X036633Y010299D03*
X039783Y010299D03*
X040964Y010299D03*
X042145Y010299D03*
X045294Y010299D03*
X046476Y010299D03*
X047657Y010299D03*
X050806Y010299D03*
X051987Y010299D03*
X053169Y010299D03*
X056318Y010299D03*
X057499Y010299D03*
X058680Y010299D03*
X061830Y010299D03*
X063011Y010299D03*
X064192Y010299D03*
X067342Y010299D03*
X068523Y010299D03*
X069704Y010299D03*
X072854Y010299D03*
X074035Y010299D03*
X075216Y010299D03*
D15*
X075334Y010418D01*
X076003Y010418D01*
X074035Y010299D02*
X074035Y009237D01*
X074035Y008843D01*
X072854Y007662D01*
X072854Y006599D01*
X074035Y006599D02*
X074035Y007662D01*
X075216Y006599D02*
X075216Y006087D01*
X074822Y005693D01*
X070098Y005693D01*
X069704Y006087D01*
X069704Y006599D01*
X069704Y006087D02*
X068917Y005300D01*
X064980Y005300D01*
X064192Y006087D01*
X064192Y006599D01*
X063011Y006599D02*
X063011Y007662D01*
X063011Y008843D02*
X061830Y007662D01*
X061830Y006599D01*
X059468Y006481D02*
X058799Y006481D01*
X058680Y006599D01*
X057499Y006599D02*
X057499Y007662D01*
X057499Y008843D02*
X056318Y007662D01*
X056318Y006599D01*
X053956Y006481D02*
X053287Y006481D01*
X053169Y006599D01*
X051987Y006599D02*
X051987Y007662D01*
X050806Y007662D02*
X050806Y006599D01*
X050806Y007662D02*
X051987Y008843D01*
X051987Y009237D01*
X051987Y010299D01*
X053169Y010299D02*
X053287Y010418D01*
X053956Y010418D01*
X057499Y010299D02*
X057499Y009237D01*
X057499Y008843D01*
X058680Y010299D02*
X058799Y010418D01*
X059468Y010418D01*
X063011Y010299D02*
X063011Y009237D01*
X063011Y008843D01*
X064192Y010299D02*
X064311Y010418D01*
X064980Y010418D01*
X068523Y010299D02*
X068523Y009237D01*
X068523Y008843D01*
X067342Y007662D01*
X067342Y006599D01*
X068523Y006599D02*
X068523Y007662D01*
X075216Y006087D02*
X075216Y003908D01*
X074337Y003029D01*
X065676Y003029D02*
X065676Y002846D01*
X064980Y002150D01*
X063405Y002150D01*
X063011Y002544D01*
X057499Y002544D01*
X057014Y003029D01*
X056135Y002150D01*
X054743Y002150D01*
X054350Y002544D01*
X049231Y002544D01*
X048746Y003029D01*
X048353Y003029D01*
X048353Y002846D01*
X047657Y002150D01*
X046082Y002150D01*
X045688Y002544D01*
X040570Y002544D01*
X040085Y003029D01*
X039691Y003029D01*
X038812Y002150D01*
X037420Y002150D01*
X037027Y002544D01*
X031909Y002544D01*
X031424Y003029D01*
X031030Y003029D01*
X031213Y003029D01*
X031909Y003725D01*
X031909Y004906D01*
X031121Y005693D01*
X031121Y006599D01*
X031240Y006481D01*
X031909Y006481D01*
X029940Y006599D02*
X029940Y005300D01*
X030334Y004906D01*
X030334Y003725D01*
X029638Y003029D02*
X028759Y003908D01*
X028759Y005300D01*
X028759Y006599D01*
X028759Y007662D01*
X029940Y008843D01*
X029940Y009237D01*
X029940Y010299D01*
X031121Y010299D02*
X031240Y010418D01*
X031909Y010418D01*
X035452Y010299D02*
X035452Y009237D01*
X035452Y008843D01*
X034271Y007662D01*
X034271Y006599D01*
X035452Y006599D02*
X035452Y007662D01*
X036633Y006599D02*
X036752Y006481D01*
X037420Y006481D01*
X039783Y006599D02*
X039783Y007662D01*
X040964Y008843D01*
X040964Y009237D01*
X040964Y010299D01*
X042145Y010299D02*
X042263Y010418D01*
X042932Y010418D01*
X046476Y010299D02*
X046476Y009237D01*
X046476Y008843D01*
X045294Y007662D01*
X045294Y006599D01*
X046476Y006599D02*
X046476Y007662D01*
X047657Y006599D02*
X047775Y006481D01*
X048444Y006481D01*
X042932Y006481D02*
X042263Y006481D01*
X042145Y006599D01*
X040964Y006599D02*
X040964Y007662D01*
X037420Y010418D02*
X036752Y010418D01*
X036633Y010299D01*
X030334Y007662D02*
X029940Y007268D01*
X029940Y006599D01*
X047657Y010299D02*
X047775Y010418D01*
X048444Y010418D01*
X069704Y010299D02*
X069822Y010418D01*
X070491Y010418D01*
D16*
X070491Y010418D03*
X068523Y009237D03*
X064980Y010418D03*
X063011Y009237D03*
X059468Y010418D03*
X057499Y009237D03*
X053956Y010418D03*
X051987Y009237D03*
X048444Y010418D03*
X046476Y009237D03*
X042932Y010418D03*
X040964Y009237D03*
X037420Y010418D03*
X035452Y009237D03*
X031909Y010418D03*
X029940Y009237D03*
X030334Y007662D03*
X031909Y006481D03*
X035452Y007662D03*
X037420Y006481D03*
X040964Y007662D03*
X042932Y006481D03*
X046476Y007662D03*
X048444Y006481D03*
X051987Y007662D03*
X053956Y006481D03*
X057499Y007662D03*
X059468Y006481D03*
X063011Y007662D03*
X068523Y007662D03*
X074035Y007662D03*
X074035Y009237D03*
X076003Y010418D03*
D17*
X028759Y005300D03*
D18*
X028399Y005496D02*
X028351Y005381D01*
X028351Y005218D01*
X028399Y005103D01*
X028399Y003979D01*
X028399Y003836D01*
X028454Y003704D01*
X029084Y003074D01*
X029084Y002918D01*
X029168Y002715D01*
X029324Y002559D01*
X029528Y002474D01*
X029748Y002474D01*
X029952Y002559D01*
X030108Y002715D01*
X030192Y002918D01*
X030192Y003139D01*
X030170Y003193D01*
X030224Y003170D01*
X030444Y003170D01*
X030498Y003193D01*
X030476Y003139D01*
X030476Y002918D01*
X030560Y002715D01*
X030716Y002559D01*
X030920Y002474D01*
X031140Y002474D01*
X031344Y002559D01*
X031364Y002579D01*
X031603Y002340D01*
X031603Y002340D01*
X031705Y002238D01*
X031837Y002184D01*
X036878Y002184D01*
X037115Y001946D01*
X037217Y001845D01*
X037349Y001790D01*
X038741Y001790D01*
X038884Y001790D01*
X039016Y001845D01*
X039646Y002474D01*
X039801Y002474D01*
X040005Y002559D01*
X040026Y002579D01*
X040265Y002340D01*
X040265Y002340D01*
X040366Y002238D01*
X040498Y002184D01*
X045539Y002184D01*
X045878Y001845D01*
X046010Y001790D01*
X046154Y001790D01*
X047728Y001790D01*
X047861Y001845D01*
X047962Y001946D01*
X048510Y002494D01*
X048667Y002559D01*
X048687Y002579D01*
X049028Y002238D01*
X049160Y002184D01*
X049303Y002184D01*
X054200Y002184D01*
X054539Y001845D01*
X054672Y001790D01*
X054815Y001790D01*
X056207Y001790D01*
X056339Y001845D01*
X056440Y001946D01*
X056969Y002474D01*
X057059Y002474D01*
X057194Y002340D01*
X057295Y002238D01*
X057428Y002184D01*
X062862Y002184D01*
X063100Y001946D01*
X063201Y001845D01*
X063333Y001790D01*
X064908Y001790D01*
X065051Y001790D01*
X065183Y001845D01*
X065832Y002494D01*
X065989Y002559D01*
X066145Y002715D01*
X066230Y002918D01*
X066230Y003139D01*
X066145Y003343D01*
X065989Y003499D01*
X065786Y003583D01*
X065565Y003583D01*
X065512Y003561D01*
X065534Y003614D01*
X065534Y003835D01*
X065500Y003916D01*
X065550Y003900D01*
X065633Y003886D01*
X065637Y003886D01*
X065637Y004382D01*
X065714Y004382D01*
X065714Y003886D01*
X065718Y003886D01*
X065801Y003900D01*
X065881Y003926D01*
X065956Y003964D01*
X066024Y004013D01*
X066083Y004073D01*
X066132Y004141D01*
X066171Y004216D01*
X066197Y004296D01*
X066210Y004379D01*
X066210Y004383D01*
X065714Y004383D01*
X065714Y004459D01*
X066210Y004459D01*
X066210Y004463D01*
X066197Y004546D01*
X066171Y004626D01*
X066132Y004701D01*
X066083Y004769D01*
X066024Y004828D01*
X065956Y004878D01*
X065881Y004916D01*
X065808Y004940D01*
X068845Y004940D01*
X068988Y004940D01*
X069120Y004994D01*
X069704Y005578D01*
X069792Y005489D01*
X069894Y005388D01*
X070026Y005333D01*
X074750Y005333D01*
X074856Y005333D01*
X074856Y004553D01*
X074832Y004626D01*
X074794Y004701D01*
X074744Y004769D01*
X074685Y004828D01*
X074617Y004878D01*
X074542Y004916D01*
X074462Y004942D01*
X074379Y004955D01*
X074375Y004955D01*
X074375Y004459D01*
X074299Y004459D01*
X074299Y004955D01*
X074295Y004955D01*
X074212Y004942D01*
X074132Y004916D01*
X074057Y004878D01*
X073989Y004828D01*
X073929Y004769D01*
X073880Y004701D01*
X073842Y004626D01*
X073816Y004546D01*
X073803Y004463D01*
X073803Y004459D01*
X074299Y004459D01*
X074299Y004383D01*
X073803Y004383D01*
X073803Y004379D01*
X073816Y004296D01*
X073832Y004246D01*
X073751Y004279D01*
X073531Y004279D01*
X073477Y004257D01*
X073499Y004310D01*
X073499Y004531D01*
X073415Y004735D01*
X073259Y004891D01*
X073055Y004975D01*
X072835Y004975D01*
X072631Y004891D01*
X072475Y004735D01*
X072391Y004531D01*
X072391Y004310D01*
X072475Y004107D01*
X072631Y003951D01*
X072835Y003866D01*
X073055Y003866D01*
X073109Y003889D01*
X073087Y003835D01*
X073087Y003614D01*
X073109Y003561D01*
X073055Y003583D01*
X072835Y003583D01*
X072631Y003499D01*
X072475Y003343D01*
X072391Y003139D01*
X072391Y002918D01*
X072475Y002715D01*
X072631Y002559D01*
X072835Y002474D01*
X073055Y002474D01*
X073259Y002559D01*
X073415Y002715D01*
X073499Y002918D01*
X073499Y003139D01*
X073477Y003193D01*
X073531Y003170D01*
X073751Y003170D01*
X073805Y003193D01*
X073783Y003139D01*
X073783Y002918D01*
X073867Y002715D01*
X074023Y002559D01*
X074227Y002474D01*
X074447Y002474D01*
X074651Y002559D01*
X074807Y002715D01*
X074891Y002918D01*
X074891Y003074D01*
X075420Y003602D01*
X075521Y003704D01*
X075576Y003836D01*
X075576Y005926D01*
X075666Y006016D01*
X075666Y007182D01*
X075549Y007299D01*
X074883Y007299D01*
X074766Y007182D01*
X074766Y006146D01*
X074673Y006053D01*
X074485Y006053D01*
X074485Y007182D01*
X074395Y007272D01*
X074395Y007517D01*
X074423Y007584D01*
X074423Y007739D01*
X074364Y007882D01*
X074254Y007991D01*
X074112Y008050D01*
X073957Y008050D01*
X073815Y007991D01*
X073706Y007882D01*
X073647Y007739D01*
X073647Y007584D01*
X073675Y007517D01*
X073675Y007272D01*
X073585Y007182D01*
X073585Y006053D01*
X073304Y006053D01*
X073304Y007182D01*
X073214Y007272D01*
X073214Y007513D01*
X074340Y008639D01*
X074395Y008771D01*
X074395Y008914D01*
X074395Y009091D01*
X074423Y009159D01*
X074423Y009314D01*
X074395Y009382D01*
X074395Y009626D01*
X074485Y009716D01*
X074485Y010811D01*
X074766Y010811D01*
X074766Y009716D01*
X074883Y009599D01*
X075549Y009599D01*
X075666Y009716D01*
X075666Y010058D01*
X075858Y010058D01*
X075926Y010030D01*
X076080Y010030D01*
X076223Y010089D01*
X076332Y010198D01*
X076391Y010340D01*
X076391Y010495D01*
X076332Y010637D01*
X076223Y010747D01*
X076080Y010806D01*
X075926Y010806D01*
X075858Y010778D01*
X075666Y010778D01*
X075666Y010811D01*
X076767Y010811D01*
X076925Y010750D01*
X077184Y010559D01*
X077184Y004239D01*
X077036Y004387D01*
X076749Y004506D01*
X076438Y004506D01*
X076151Y004387D01*
X075931Y004167D01*
X075813Y003880D01*
X075813Y003569D01*
X075931Y003282D01*
X076151Y003062D01*
X076438Y002944D01*
X076749Y002944D01*
X077036Y003062D01*
X077184Y003211D01*
X077184Y001550D01*
X077181Y001558D01*
X076986Y001753D01*
X076731Y001858D01*
X076456Y001858D01*
X076201Y001753D01*
X076007Y001558D01*
X075901Y001303D01*
X075901Y001028D01*
X076007Y000773D01*
X076201Y000579D01*
X076210Y000575D01*
X074193Y000575D01*
X074204Y000645D01*
X073689Y000645D01*
X073689Y000741D01*
X074204Y000741D01*
X074191Y000825D01*
X074163Y000910D01*
X074123Y000989D01*
X074071Y001061D01*
X074008Y001123D01*
X073936Y001175D01*
X073857Y001216D01*
X073773Y001243D01*
X073689Y001256D01*
X073689Y000741D01*
X073593Y000741D01*
X073593Y000645D01*
X073078Y000645D01*
X073089Y000575D01*
X071072Y000575D01*
X071081Y000579D01*
X071275Y000773D01*
X071381Y001028D01*
X071381Y001303D01*
X071275Y001558D01*
X071081Y001753D01*
X070826Y001858D01*
X070550Y001858D01*
X070296Y001753D01*
X070101Y001558D01*
X069996Y001303D01*
X069996Y001028D01*
X070101Y000773D01*
X070296Y000579D01*
X070304Y000575D01*
X068316Y000575D01*
X068325Y000579D01*
X068519Y000773D01*
X068625Y001028D01*
X068625Y001303D01*
X068519Y001558D01*
X068325Y001753D01*
X068070Y001858D01*
X067794Y001858D01*
X067540Y001753D01*
X067345Y001558D01*
X067240Y001303D01*
X067240Y001028D01*
X067345Y000773D01*
X067540Y000579D01*
X067548Y000575D01*
X065532Y000575D01*
X065543Y000645D01*
X065028Y000645D01*
X065028Y000741D01*
X065543Y000741D01*
X065529Y000825D01*
X065502Y000910D01*
X065462Y000989D01*
X065410Y001061D01*
X065347Y001123D01*
X065275Y001175D01*
X065196Y001216D01*
X065112Y001243D01*
X065027Y001256D01*
X065027Y000741D01*
X064931Y000741D01*
X064931Y000645D01*
X064416Y000645D01*
X064427Y000575D01*
X062411Y000575D01*
X062419Y000579D01*
X062614Y000773D01*
X062719Y001028D01*
X062719Y001303D01*
X062614Y001558D01*
X062419Y001753D01*
X062165Y001858D01*
X061889Y001858D01*
X061634Y001753D01*
X061440Y001558D01*
X061334Y001303D01*
X061334Y001028D01*
X061440Y000773D01*
X061634Y000579D01*
X061643Y000575D01*
X059655Y000575D01*
X059663Y000579D01*
X059858Y000773D01*
X059963Y001028D01*
X059963Y001303D01*
X059858Y001558D01*
X059663Y001753D01*
X059409Y001858D01*
X059133Y001858D01*
X058879Y001753D01*
X058684Y001558D01*
X058578Y001303D01*
X058578Y001028D01*
X058684Y000773D01*
X058879Y000579D01*
X058887Y000575D01*
X056870Y000575D01*
X056881Y000645D01*
X056366Y000645D01*
X056366Y000741D01*
X056881Y000741D01*
X056868Y000825D01*
X056841Y000910D01*
X056800Y000989D01*
X056748Y001061D01*
X056685Y001123D01*
X056614Y001175D01*
X056535Y001216D01*
X056450Y001243D01*
X056366Y001256D01*
X056366Y000741D01*
X056270Y000741D01*
X056270Y000645D01*
X055755Y000645D01*
X055766Y000575D01*
X053749Y000575D01*
X053758Y000579D01*
X053952Y000773D01*
X054058Y001028D01*
X054058Y001303D01*
X053952Y001558D01*
X053758Y001753D01*
X053503Y001858D01*
X053228Y001858D01*
X052973Y001753D01*
X052778Y001558D01*
X052673Y001303D01*
X052673Y001028D01*
X052778Y000773D01*
X052973Y000579D01*
X052981Y000575D01*
X050994Y000575D01*
X051002Y000579D01*
X051197Y000773D01*
X051302Y001028D01*
X051302Y001303D01*
X051197Y001558D01*
X051002Y001753D01*
X050747Y001858D01*
X050472Y001858D01*
X050217Y001753D01*
X050022Y001558D01*
X049917Y001303D01*
X049917Y001028D01*
X050022Y000773D01*
X050217Y000579D01*
X050225Y000575D01*
X048209Y000575D01*
X048220Y000645D01*
X047705Y000645D01*
X047705Y000741D01*
X048220Y000741D01*
X048207Y000825D01*
X048179Y000910D01*
X048139Y000989D01*
X048087Y001061D01*
X048024Y001123D01*
X047952Y001175D01*
X047873Y001216D01*
X047789Y001243D01*
X047705Y001256D01*
X047705Y000741D01*
X047609Y000741D01*
X047608Y000741D02*
X047608Y000645D01*
X047093Y000645D01*
X047105Y000575D01*
X045088Y000575D01*
X045096Y000579D01*
X045291Y000773D01*
X045396Y001028D01*
X045396Y001303D01*
X045291Y001558D01*
X045096Y001753D01*
X044842Y001858D01*
X044566Y001858D01*
X044312Y001753D01*
X044117Y001558D01*
X044011Y001303D01*
X044011Y001028D01*
X044117Y000773D01*
X044312Y000579D01*
X044320Y000575D01*
X042332Y000575D01*
X042340Y000579D01*
X042535Y000773D01*
X042641Y001028D01*
X042641Y001303D01*
X042535Y001558D01*
X042340Y001753D01*
X042086Y001858D01*
X041810Y001858D01*
X041556Y001753D01*
X041361Y001558D01*
X041255Y001303D01*
X041255Y001028D01*
X041361Y000773D01*
X041556Y000579D01*
X041564Y000575D01*
X039547Y000575D01*
X039559Y000645D01*
X039043Y000645D01*
X039043Y000741D01*
X038947Y000741D01*
X038947Y000645D01*
X038432Y000645D01*
X038443Y000575D01*
X036427Y000575D01*
X036435Y000579D01*
X036630Y000773D01*
X036735Y001028D01*
X036735Y001303D01*
X036630Y001558D01*
X036435Y001753D01*
X036180Y001858D01*
X035905Y001858D01*
X035650Y001753D01*
X035455Y001558D01*
X035350Y001303D01*
X035350Y001028D01*
X035455Y000773D01*
X035650Y000579D01*
X035658Y000575D01*
X033671Y000575D01*
X033679Y000579D01*
X033874Y000773D01*
X033979Y001028D01*
X033979Y001303D01*
X033874Y001558D01*
X033679Y001753D01*
X033424Y001858D01*
X033149Y001858D01*
X032894Y001753D01*
X032699Y001558D01*
X032594Y001303D01*
X032594Y001028D01*
X032699Y000773D01*
X032894Y000579D01*
X032903Y000575D01*
X030886Y000575D01*
X030897Y000645D01*
X030382Y000645D01*
X030382Y000741D01*
X030897Y000741D01*
X030884Y000825D01*
X030856Y000910D01*
X030816Y000989D01*
X030764Y001061D01*
X030701Y001123D01*
X030629Y001175D01*
X030550Y001216D01*
X030466Y001243D01*
X030382Y001256D01*
X030382Y000741D01*
X030286Y000741D01*
X030286Y000645D01*
X029771Y000645D01*
X029782Y000575D01*
X027765Y000575D01*
X027773Y000579D01*
X027968Y000773D01*
X028074Y001028D01*
X028074Y001303D01*
X027968Y001558D01*
X027773Y001753D01*
X027519Y001858D01*
X027243Y001858D01*
X026989Y001753D01*
X026794Y001558D01*
X026791Y001550D01*
X026791Y003211D01*
X026939Y003062D01*
X027226Y002944D01*
X027536Y002944D01*
X027824Y003062D01*
X028043Y003282D01*
X028162Y003569D01*
X028162Y003880D01*
X028043Y004167D01*
X027824Y004387D01*
X027536Y004506D01*
X027226Y004506D01*
X026939Y004387D01*
X026791Y004239D01*
X026791Y010658D01*
X027056Y010811D01*
X028329Y010811D01*
X028329Y010344D01*
X028714Y010344D01*
X028714Y010254D01*
X028804Y010254D01*
X028804Y009619D01*
X029033Y009619D01*
X029079Y009631D01*
X029120Y009655D01*
X029153Y009689D01*
X029177Y009730D01*
X029189Y009775D01*
X029189Y010254D01*
X028804Y010254D01*
X028804Y010344D01*
X029189Y010344D01*
X029189Y010811D01*
X029490Y010811D01*
X029490Y009716D01*
X029580Y009626D01*
X029580Y009382D01*
X029552Y009314D01*
X029552Y009159D01*
X029580Y009091D01*
X029580Y008992D01*
X028555Y007967D01*
X028454Y007866D01*
X028399Y007733D01*
X028399Y007272D01*
X028309Y007182D01*
X028309Y006016D01*
X028399Y005926D01*
X028399Y005496D01*
X028399Y005572D02*
X026791Y005572D01*
X026791Y005730D02*
X028399Y005730D01*
X028399Y005889D02*
X026791Y005889D01*
X026791Y006048D02*
X028309Y006048D01*
X028309Y006206D02*
X026791Y006206D01*
X026791Y006365D02*
X028309Y006365D01*
X028309Y006523D02*
X026791Y006523D01*
X026791Y006682D02*
X028309Y006682D01*
X028309Y006840D02*
X026791Y006840D01*
X026791Y006999D02*
X028309Y006999D01*
X028309Y007157D02*
X026791Y007157D01*
X026791Y007316D02*
X028399Y007316D01*
X028399Y007474D02*
X026791Y007474D01*
X026791Y007633D02*
X028399Y007633D01*
X028423Y007791D02*
X028166Y007791D01*
X028053Y007745D02*
X028312Y007852D01*
X028510Y008050D01*
X028617Y008309D01*
X028617Y008589D01*
X028510Y008848D01*
X028312Y009046D01*
X028053Y009154D01*
X027772Y009154D01*
X027514Y009046D01*
X027315Y008848D01*
X027208Y008589D01*
X027208Y008309D01*
X027315Y008050D01*
X027514Y007852D01*
X027772Y007745D01*
X028053Y007745D01*
X027660Y007791D02*
X026791Y007791D01*
X026791Y007950D02*
X027416Y007950D01*
X027291Y008109D02*
X026791Y008109D01*
X026791Y008267D02*
X027226Y008267D01*
X027208Y008426D02*
X026791Y008426D01*
X026791Y008584D02*
X027208Y008584D01*
X027272Y008743D02*
X026791Y008743D01*
X026791Y008901D02*
X027369Y008901D01*
X027546Y009060D02*
X026791Y009060D01*
X026791Y009218D02*
X029552Y009218D01*
X029580Y009060D02*
X028279Y009060D01*
X028457Y008901D02*
X029490Y008901D01*
X029331Y008743D02*
X028553Y008743D01*
X028617Y008584D02*
X029172Y008584D01*
X029014Y008426D02*
X028617Y008426D01*
X028600Y008267D02*
X028855Y008267D01*
X028697Y008109D02*
X028534Y008109D01*
X028538Y007950D02*
X028410Y007950D01*
X029119Y007513D02*
X030245Y008639D01*
X030300Y008771D01*
X030300Y008914D01*
X030300Y009091D01*
X030328Y009159D01*
X030328Y009314D01*
X030300Y009382D01*
X030300Y009626D01*
X030390Y009716D01*
X030390Y010811D01*
X030671Y010811D01*
X030671Y009716D01*
X030788Y009599D01*
X031454Y009599D01*
X031571Y009716D01*
X031571Y010058D01*
X031764Y010058D01*
X031831Y010030D01*
X031986Y010030D01*
X032129Y010089D01*
X032238Y010198D01*
X032297Y010340D01*
X032297Y010495D01*
X032238Y010637D01*
X032129Y010747D01*
X031986Y010806D01*
X031831Y010806D01*
X031764Y010778D01*
X031571Y010778D01*
X031571Y010811D01*
X033841Y010811D01*
X033841Y010344D01*
X034226Y010344D01*
X034226Y010254D01*
X034316Y010254D01*
X034316Y010344D01*
X034701Y010344D01*
X034701Y010811D01*
X035002Y010811D01*
X035002Y009716D01*
X035092Y009626D01*
X035092Y009382D01*
X035064Y009314D01*
X035064Y009159D01*
X035092Y009091D01*
X035092Y008992D01*
X034067Y007967D01*
X033966Y007866D01*
X033911Y007733D01*
X033911Y007272D01*
X033821Y007182D01*
X033821Y006016D01*
X033938Y005899D01*
X034604Y005899D01*
X034721Y006016D01*
X034721Y007182D01*
X034631Y007272D01*
X034631Y007513D01*
X035757Y008639D01*
X035812Y008771D01*
X035812Y008914D01*
X035812Y009091D01*
X035840Y009159D01*
X035840Y009314D01*
X035812Y009382D01*
X035812Y009626D01*
X035902Y009716D01*
X035902Y010811D01*
X036183Y010811D01*
X036183Y009716D01*
X036300Y009599D01*
X036966Y009599D01*
X037083Y009716D01*
X037083Y010058D01*
X037275Y010058D01*
X037343Y010030D01*
X037498Y010030D01*
X037640Y010089D01*
X037749Y010198D01*
X037809Y010340D01*
X037809Y010495D01*
X037749Y010637D01*
X037640Y010747D01*
X037498Y010806D01*
X037343Y010806D01*
X037275Y010778D01*
X037083Y010778D01*
X037083Y010811D01*
X039353Y010811D01*
X039353Y010344D01*
X039737Y010344D01*
X039737Y010254D01*
X039353Y010254D01*
X039353Y009775D01*
X039365Y009730D01*
X039389Y009689D01*
X039422Y009655D01*
X039463Y009631D01*
X039509Y009619D01*
X039738Y009619D01*
X039738Y010254D01*
X039828Y010254D01*
X039828Y010344D01*
X040213Y010344D01*
X040213Y010811D01*
X040514Y010811D01*
X040514Y009716D01*
X040604Y009626D01*
X040604Y009382D01*
X040576Y009314D01*
X040576Y009159D01*
X040604Y009091D01*
X040604Y008992D01*
X039579Y007967D01*
X039477Y007866D01*
X039423Y007733D01*
X039423Y007272D01*
X039333Y007182D01*
X039333Y006016D01*
X039450Y005899D01*
X040116Y005899D01*
X040233Y006016D01*
X040233Y007182D01*
X040143Y007272D01*
X040143Y007513D01*
X041269Y008639D01*
X041324Y008771D01*
X041324Y008914D01*
X041324Y009091D01*
X041352Y009159D01*
X041352Y009314D01*
X041324Y009382D01*
X041324Y009626D01*
X041414Y009716D01*
X041414Y010811D01*
X041695Y010811D01*
X041695Y009716D01*
X041812Y009599D01*
X042478Y009599D01*
X042595Y009716D01*
X042595Y010058D01*
X042787Y010058D01*
X042855Y010030D01*
X043009Y010030D01*
X043152Y010089D01*
X043261Y010198D01*
X043320Y010340D01*
X043320Y010495D01*
X043261Y010637D01*
X043152Y010747D01*
X043009Y010806D01*
X042855Y010806D01*
X042787Y010778D01*
X042595Y010778D01*
X042595Y010811D01*
X044864Y010811D01*
X044864Y010344D01*
X045249Y010344D01*
X045249Y010254D01*
X044864Y010254D01*
X044864Y009775D01*
X044877Y009730D01*
X044900Y009689D01*
X044934Y009655D01*
X044975Y009631D01*
X045021Y009619D01*
X045249Y009619D01*
X045249Y010254D01*
X045339Y010254D01*
X045339Y009619D01*
X045568Y009619D01*
X045614Y009631D01*
X045655Y009655D01*
X045689Y009689D01*
X045712Y009730D01*
X045724Y009775D01*
X045724Y010254D01*
X045340Y010254D01*
X045340Y010344D01*
X045724Y010344D01*
X045724Y010811D01*
X046026Y010811D01*
X046026Y009716D01*
X046116Y009626D01*
X046116Y009382D01*
X046087Y009314D01*
X046087Y009159D01*
X046116Y009091D01*
X046116Y008992D01*
X045091Y007967D01*
X044989Y007866D01*
X044934Y007733D01*
X044934Y007272D01*
X044844Y007182D01*
X044844Y006016D01*
X044962Y005899D01*
X045627Y005899D01*
X045744Y006016D01*
X045744Y007182D01*
X045654Y007272D01*
X045654Y007513D01*
X046781Y008639D01*
X046836Y008771D01*
X046836Y008914D01*
X046836Y009091D01*
X046864Y009159D01*
X046864Y009314D01*
X046836Y009382D01*
X046836Y009626D01*
X046926Y009716D01*
X046926Y010811D01*
X047207Y010811D01*
X047207Y009716D01*
X047324Y009599D01*
X047990Y009599D01*
X048107Y009716D01*
X048107Y010058D01*
X048299Y010058D01*
X048367Y010030D01*
X048521Y010030D01*
X048664Y010089D01*
X048773Y010198D01*
X048832Y010340D01*
X048832Y010495D01*
X048773Y010637D01*
X048664Y010747D01*
X048521Y010806D01*
X048367Y010806D01*
X048299Y010778D01*
X048107Y010778D01*
X048107Y010811D01*
X050376Y010811D01*
X050376Y010344D01*
X050761Y010344D01*
X050761Y010254D01*
X050376Y010254D01*
X050376Y009775D01*
X050389Y009730D01*
X050412Y009689D01*
X050446Y009655D01*
X050487Y009631D01*
X050533Y009619D01*
X050761Y009619D01*
X050761Y010254D01*
X050851Y010254D01*
X050851Y009619D01*
X051080Y009619D01*
X051126Y009631D01*
X051167Y009655D01*
X051200Y009689D01*
X051224Y009730D01*
X051236Y009775D01*
X051236Y010254D01*
X050852Y010254D01*
X050852Y010344D01*
X051236Y010344D01*
X051236Y010811D01*
X051537Y010811D01*
X051537Y009716D01*
X051627Y009626D01*
X051627Y009382D01*
X051599Y009314D01*
X051599Y009159D01*
X051627Y009091D01*
X051627Y008992D01*
X050602Y007967D01*
X050501Y007866D01*
X050446Y007733D01*
X050446Y007272D01*
X050356Y007182D01*
X050356Y006016D01*
X050473Y005899D01*
X051139Y005899D01*
X051256Y006016D01*
X051256Y007182D01*
X051166Y007272D01*
X051166Y007513D01*
X052293Y008639D01*
X052347Y008771D01*
X052347Y008914D01*
X052347Y009091D01*
X052375Y009159D01*
X052375Y009314D01*
X052347Y009382D01*
X052347Y009626D01*
X052437Y009716D01*
X052437Y010811D01*
X052719Y010811D01*
X052719Y009716D01*
X052836Y009599D01*
X053501Y009599D01*
X053618Y009716D01*
X053618Y010058D01*
X053811Y010058D01*
X053879Y010030D01*
X054033Y010030D01*
X054176Y010089D01*
X054285Y010198D01*
X054344Y010340D01*
X054344Y010495D01*
X054285Y010637D01*
X054176Y010747D01*
X054033Y010806D01*
X053879Y010806D01*
X053811Y010778D01*
X053618Y010778D01*
X053618Y010811D01*
X055888Y010811D01*
X055888Y010344D01*
X056273Y010344D01*
X056273Y010254D01*
X056363Y010254D01*
X056363Y009619D01*
X056592Y009619D01*
X056638Y009631D01*
X056679Y009655D01*
X056712Y009689D01*
X056736Y009730D01*
X056748Y009775D01*
X056748Y010254D01*
X056363Y010254D01*
X056363Y010344D01*
X056748Y010344D01*
X056748Y010811D01*
X057049Y010811D01*
X057049Y009716D01*
X057139Y009626D01*
X057139Y009382D01*
X057111Y009314D01*
X057111Y009159D01*
X057139Y009091D01*
X057139Y008992D01*
X056114Y007967D01*
X056013Y007866D01*
X055958Y007733D01*
X055958Y007272D01*
X055868Y007182D01*
X055868Y006016D01*
X055985Y005899D01*
X056651Y005899D01*
X056768Y006016D01*
X056768Y007182D01*
X056678Y007272D01*
X056678Y007513D01*
X057804Y008639D01*
X057859Y008771D01*
X057859Y008914D01*
X057859Y009091D01*
X057887Y009159D01*
X057887Y009314D01*
X057859Y009382D01*
X057859Y009626D01*
X057949Y009716D01*
X057949Y010811D01*
X058230Y010811D01*
X058230Y009716D01*
X058347Y009599D01*
X059013Y009599D01*
X059130Y009716D01*
X059130Y010058D01*
X059323Y010058D01*
X059390Y010030D01*
X059545Y010030D01*
X059688Y010089D01*
X059797Y010198D01*
X059856Y010340D01*
X059856Y010495D01*
X059797Y010637D01*
X059688Y010747D01*
X059545Y010806D01*
X059390Y010806D01*
X059323Y010778D01*
X059130Y010778D01*
X059130Y010811D01*
X061400Y010811D01*
X061400Y010344D01*
X061785Y010344D01*
X061785Y010254D01*
X061875Y010254D01*
X061875Y010344D01*
X062260Y010344D01*
X062260Y010811D01*
X062561Y010811D01*
X062561Y009716D01*
X062651Y009626D01*
X062651Y009382D01*
X062623Y009314D01*
X062623Y009159D01*
X062651Y009091D01*
X062651Y008992D01*
X061626Y007967D01*
X061525Y007866D01*
X061470Y007733D01*
X061470Y007272D01*
X061380Y007182D01*
X061380Y006016D01*
X061497Y005899D01*
X062163Y005899D01*
X062280Y006016D01*
X062280Y007182D01*
X062190Y007272D01*
X062190Y007513D01*
X063316Y008639D01*
X063371Y008771D01*
X063371Y008914D01*
X063371Y009091D01*
X063399Y009159D01*
X063399Y009314D01*
X063371Y009382D01*
X063371Y009626D01*
X063461Y009716D01*
X063461Y010811D01*
X063742Y010811D01*
X063742Y009716D01*
X063859Y009599D01*
X064525Y009599D01*
X064642Y009716D01*
X064642Y010058D01*
X064834Y010058D01*
X064902Y010030D01*
X065057Y010030D01*
X065199Y010089D01*
X065309Y010198D01*
X065368Y010340D01*
X065368Y010495D01*
X065309Y010637D01*
X065199Y010747D01*
X065057Y010806D01*
X064902Y010806D01*
X064834Y010778D01*
X064642Y010778D01*
X064642Y010811D01*
X066912Y010811D01*
X066912Y010344D01*
X067296Y010344D01*
X067296Y010254D01*
X066912Y010254D01*
X066912Y009775D01*
X066924Y009730D01*
X066948Y009689D01*
X066981Y009655D01*
X067022Y009631D01*
X067068Y009619D01*
X067297Y009619D01*
X067297Y010254D01*
X067387Y010254D01*
X067387Y010344D01*
X067772Y010344D01*
X067772Y010811D01*
X068073Y010811D01*
X068073Y009716D01*
X068163Y009626D01*
X068163Y009382D01*
X068135Y009314D01*
X068135Y009159D01*
X068163Y009091D01*
X068163Y008992D01*
X067138Y007967D01*
X067037Y007866D01*
X066982Y007733D01*
X066982Y007272D01*
X066892Y007182D01*
X066892Y006016D01*
X067009Y005899D01*
X067675Y005899D01*
X067792Y006016D01*
X067792Y007182D01*
X067702Y007272D01*
X067702Y007513D01*
X068828Y008639D01*
X068883Y008771D01*
X068883Y008914D01*
X068883Y009091D01*
X068911Y009159D01*
X068911Y009314D01*
X068883Y009382D01*
X068883Y009626D01*
X068973Y009716D01*
X068973Y010811D01*
X069254Y010811D01*
X069254Y009716D01*
X069371Y009599D01*
X070037Y009599D01*
X070154Y009716D01*
X070154Y010058D01*
X070346Y010058D01*
X070414Y010030D01*
X070569Y010030D01*
X070711Y010089D01*
X070820Y010198D01*
X070879Y010340D01*
X070879Y010495D01*
X070820Y010637D01*
X070711Y010747D01*
X070569Y010806D01*
X070414Y010806D01*
X070346Y010778D01*
X070154Y010778D01*
X070154Y010811D01*
X072424Y010811D01*
X072424Y010344D01*
X072808Y010344D01*
X072808Y010254D01*
X072424Y010254D01*
X072424Y009775D01*
X072436Y009730D01*
X072459Y009689D01*
X072493Y009655D01*
X072534Y009631D01*
X072580Y009619D01*
X072808Y009619D01*
X072808Y010254D01*
X072899Y010254D01*
X072899Y010344D01*
X073284Y010344D01*
X073284Y010811D01*
X073585Y010811D01*
X073585Y009716D01*
X073675Y009626D01*
X073675Y009382D01*
X073647Y009314D01*
X073647Y009159D01*
X073675Y009091D01*
X073675Y008992D01*
X072650Y007967D01*
X072548Y007866D01*
X072494Y007733D01*
X072494Y007272D01*
X072404Y007182D01*
X072404Y006053D01*
X070247Y006053D01*
X070154Y006146D01*
X070154Y007182D01*
X070037Y007299D01*
X069371Y007299D01*
X069254Y007182D01*
X069254Y006146D01*
X068767Y005659D01*
X065129Y005659D01*
X064642Y006146D01*
X064642Y007182D01*
X064525Y007299D01*
X063859Y007299D01*
X063742Y007182D01*
X063742Y006016D01*
X063859Y005899D01*
X063880Y005899D01*
X063887Y005883D01*
X064674Y005096D01*
X032219Y005096D01*
X032214Y005110D02*
X031481Y005842D01*
X031481Y005926D01*
X031571Y006016D01*
X031571Y006121D01*
X031764Y006121D01*
X031831Y006093D01*
X031986Y006093D01*
X032129Y006152D01*
X032238Y006261D01*
X032297Y006403D01*
X032297Y006558D01*
X032238Y006700D01*
X032129Y006810D01*
X031986Y006869D01*
X031831Y006869D01*
X031764Y006841D01*
X031571Y006841D01*
X031571Y007182D01*
X031454Y007299D01*
X030788Y007299D01*
X030671Y007182D01*
X030671Y006016D01*
X030761Y005926D01*
X030761Y005622D01*
X030816Y005489D01*
X030917Y005388D01*
X031549Y004757D01*
X031549Y004553D01*
X031525Y004626D01*
X031487Y004701D01*
X031437Y004769D01*
X031378Y004828D01*
X031310Y004878D01*
X031235Y004916D01*
X031155Y004942D01*
X031072Y004955D01*
X031068Y004955D01*
X031068Y004459D01*
X030992Y004459D01*
X030992Y004955D01*
X030988Y004955D01*
X030905Y004942D01*
X030825Y004916D01*
X030750Y004878D01*
X030694Y004837D01*
X030694Y004977D01*
X030639Y005110D01*
X030300Y005449D01*
X030300Y005926D01*
X030390Y006016D01*
X030390Y007182D01*
X030377Y007195D01*
X030486Y007305D01*
X030554Y007333D01*
X030663Y007442D01*
X030722Y007584D01*
X030722Y007739D01*
X030663Y007882D01*
X030554Y007991D01*
X030411Y008050D01*
X030257Y008050D01*
X030114Y007991D01*
X030005Y007882D01*
X029977Y007814D01*
X029736Y007573D01*
X029635Y007472D01*
X029580Y007340D01*
X029580Y007272D01*
X029490Y007182D01*
X029490Y006016D01*
X029580Y005926D01*
X029580Y005228D01*
X029635Y005096D01*
X029736Y004994D01*
X029761Y004970D01*
X029748Y004975D01*
X029528Y004975D01*
X029324Y004891D01*
X029168Y004735D01*
X029119Y004617D01*
X029119Y005103D01*
X029167Y005218D01*
X029167Y005381D01*
X029119Y005496D01*
X029119Y005926D01*
X029209Y006016D01*
X029209Y007182D01*
X029119Y007272D01*
X029119Y007513D01*
X029119Y007474D02*
X029637Y007474D01*
X029580Y007316D02*
X029119Y007316D01*
X029209Y007157D02*
X029490Y007157D01*
X029490Y006999D02*
X029209Y006999D01*
X029209Y006840D02*
X029490Y006840D01*
X029490Y006682D02*
X029209Y006682D01*
X029209Y006523D02*
X029490Y006523D01*
X029490Y006365D02*
X029209Y006365D01*
X029209Y006206D02*
X029490Y006206D01*
X029490Y006048D02*
X029209Y006048D01*
X029119Y005889D02*
X029580Y005889D01*
X029580Y005730D02*
X029119Y005730D01*
X029119Y005572D02*
X029580Y005572D01*
X029580Y005413D02*
X029153Y005413D01*
X029167Y005255D02*
X029580Y005255D01*
X029635Y005096D02*
X029119Y005096D01*
X029119Y004938D02*
X029438Y004938D01*
X029212Y004779D02*
X029119Y004779D01*
X029119Y004621D02*
X029121Y004621D01*
X028399Y004621D02*
X026791Y004621D01*
X026791Y004779D02*
X028399Y004779D01*
X028399Y004938D02*
X026791Y004938D01*
X026791Y005096D02*
X028399Y005096D01*
X028351Y005255D02*
X026791Y005255D01*
X026791Y005413D02*
X028365Y005413D01*
X030300Y005572D02*
X030782Y005572D01*
X030761Y005730D02*
X030300Y005730D01*
X030300Y005889D02*
X030761Y005889D01*
X030671Y006048D02*
X030390Y006048D01*
X030390Y006206D02*
X030671Y006206D01*
X030671Y006365D02*
X030390Y006365D01*
X030390Y006523D02*
X030671Y006523D01*
X030671Y006682D02*
X030390Y006682D01*
X030390Y006840D02*
X030671Y006840D01*
X030671Y006999D02*
X030390Y006999D01*
X030390Y007157D02*
X030671Y007157D01*
X030513Y007316D02*
X033911Y007316D01*
X033911Y007474D02*
X030676Y007474D01*
X030722Y007633D02*
X033911Y007633D01*
X033935Y007791D02*
X033677Y007791D01*
X033565Y007745D02*
X033823Y007852D01*
X034022Y008050D01*
X034129Y008309D01*
X034129Y008589D01*
X034022Y008848D01*
X033823Y009046D01*
X033565Y009154D01*
X033284Y009154D01*
X033025Y009046D01*
X032827Y008848D01*
X032720Y008589D01*
X032720Y008309D01*
X032827Y008050D01*
X033025Y007852D01*
X033284Y007745D01*
X033565Y007745D01*
X033171Y007791D02*
X032221Y007791D01*
X032108Y007745D02*
X032367Y007852D01*
X032565Y008050D01*
X032672Y008309D01*
X032672Y008589D01*
X032565Y008848D01*
X032367Y009046D01*
X032108Y009154D01*
X031828Y009154D01*
X031569Y009046D01*
X031371Y008848D01*
X031263Y008589D01*
X031263Y008309D01*
X031371Y008050D01*
X031569Y007852D01*
X031828Y007745D01*
X032108Y007745D01*
X031715Y007791D02*
X030700Y007791D01*
X030594Y007950D02*
X031471Y007950D01*
X031346Y008109D02*
X029715Y008109D01*
X029874Y008267D02*
X031281Y008267D01*
X031263Y008426D02*
X030032Y008426D01*
X030191Y008584D02*
X031263Y008584D01*
X031327Y008743D02*
X030288Y008743D01*
X030300Y008901D02*
X031424Y008901D01*
X031601Y009060D02*
X030300Y009060D01*
X030328Y009218D02*
X035064Y009218D01*
X035092Y009060D02*
X033791Y009060D01*
X033968Y008901D02*
X035001Y008901D01*
X034843Y008743D02*
X034065Y008743D01*
X034129Y008584D02*
X034684Y008584D01*
X034526Y008426D02*
X034129Y008426D01*
X034111Y008267D02*
X034367Y008267D01*
X034209Y008109D02*
X034046Y008109D01*
X034050Y007950D02*
X033921Y007950D01*
X034751Y007633D02*
X035064Y007633D01*
X035064Y007584D02*
X035092Y007517D01*
X035092Y007272D01*
X035002Y007182D01*
X035002Y006016D01*
X035119Y005899D01*
X035785Y005899D01*
X035902Y006016D01*
X035902Y007182D01*
X035812Y007272D01*
X035812Y007517D01*
X035840Y007584D01*
X035840Y007739D01*
X035781Y007882D01*
X035672Y007991D01*
X035529Y008050D01*
X035375Y008050D01*
X035232Y007991D01*
X035123Y007882D01*
X035064Y007739D01*
X035064Y007584D01*
X035092Y007474D02*
X034631Y007474D01*
X034631Y007316D02*
X035092Y007316D01*
X035002Y007157D02*
X034721Y007157D01*
X034721Y006999D02*
X035002Y006999D01*
X035002Y006840D02*
X034721Y006840D01*
X034721Y006682D02*
X035002Y006682D01*
X035002Y006523D02*
X034721Y006523D01*
X034721Y006365D02*
X035002Y006365D01*
X035002Y006206D02*
X034721Y006206D01*
X034721Y006048D02*
X035002Y006048D01*
X035902Y006048D02*
X036183Y006048D01*
X036183Y006016D02*
X036300Y005899D01*
X036966Y005899D01*
X037083Y006016D01*
X037083Y006121D01*
X037275Y006121D01*
X037343Y006093D01*
X037498Y006093D01*
X037640Y006152D01*
X037749Y006261D01*
X037809Y006403D01*
X037809Y006558D01*
X037749Y006700D01*
X037640Y006810D01*
X037498Y006869D01*
X037343Y006869D01*
X037275Y006841D01*
X037083Y006841D01*
X037083Y007182D01*
X036966Y007299D01*
X036300Y007299D01*
X036183Y007182D01*
X036183Y006016D01*
X036183Y006206D02*
X035902Y006206D01*
X035902Y006365D02*
X036183Y006365D01*
X036183Y006523D02*
X035902Y006523D01*
X035902Y006682D02*
X036183Y006682D01*
X036183Y006840D02*
X035902Y006840D01*
X035902Y006999D02*
X036183Y006999D01*
X036183Y007157D02*
X035902Y007157D01*
X035812Y007316D02*
X039423Y007316D01*
X039423Y007474D02*
X035812Y007474D01*
X035840Y007633D02*
X039423Y007633D01*
X039447Y007791D02*
X039189Y007791D01*
X039076Y007745D02*
X039335Y007852D01*
X039533Y008050D01*
X039641Y008309D01*
X039641Y008589D01*
X039533Y008848D01*
X039335Y009046D01*
X039076Y009154D01*
X038796Y009154D01*
X038537Y009046D01*
X038339Y008848D01*
X038232Y008589D01*
X038232Y008309D01*
X038339Y008050D01*
X038537Y007852D01*
X038796Y007745D01*
X039076Y007745D01*
X038683Y007791D02*
X037733Y007791D01*
X037620Y007745D02*
X037879Y007852D01*
X038077Y008050D01*
X038184Y008309D01*
X038184Y008589D01*
X038077Y008848D01*
X037879Y009046D01*
X037620Y009154D01*
X037339Y009154D01*
X037081Y009046D01*
X036882Y008848D01*
X036775Y008589D01*
X036775Y008309D01*
X036882Y008050D01*
X037081Y007852D01*
X037339Y007745D01*
X037620Y007745D01*
X037226Y007791D02*
X035818Y007791D01*
X035712Y007950D02*
X036982Y007950D01*
X036858Y008109D02*
X035227Y008109D01*
X035191Y007950D02*
X035068Y007950D01*
X035086Y007791D02*
X034910Y007791D01*
X035385Y008267D02*
X036792Y008267D01*
X036775Y008426D02*
X035544Y008426D01*
X035702Y008584D02*
X036775Y008584D01*
X036839Y008743D02*
X035800Y008743D01*
X035812Y008901D02*
X036936Y008901D01*
X037113Y009060D02*
X035812Y009060D01*
X035840Y009218D02*
X040576Y009218D01*
X040604Y009060D02*
X039302Y009060D01*
X039480Y008901D02*
X040513Y008901D01*
X040355Y008743D02*
X039577Y008743D01*
X039641Y008584D02*
X040196Y008584D01*
X040038Y008426D02*
X039641Y008426D01*
X039623Y008267D02*
X039879Y008267D01*
X039720Y008109D02*
X039558Y008109D01*
X039562Y007950D02*
X039433Y007950D01*
X040263Y007633D02*
X040576Y007633D01*
X040576Y007584D02*
X040604Y007517D01*
X040604Y007272D01*
X040514Y007182D01*
X040514Y006016D01*
X040631Y005899D01*
X041297Y005899D01*
X041414Y006016D01*
X041414Y007182D01*
X041324Y007272D01*
X041324Y007517D01*
X041352Y007584D01*
X041352Y007739D01*
X041293Y007882D01*
X041184Y007991D01*
X041041Y008050D01*
X040887Y008050D01*
X040744Y007991D01*
X040635Y007882D01*
X040576Y007739D01*
X040576Y007584D01*
X040604Y007474D02*
X040143Y007474D01*
X040143Y007316D02*
X040604Y007316D01*
X040514Y007157D02*
X040233Y007157D01*
X040233Y006999D02*
X040514Y006999D01*
X040514Y006840D02*
X040233Y006840D01*
X040233Y006682D02*
X040514Y006682D01*
X040514Y006523D02*
X040233Y006523D01*
X040233Y006365D02*
X040514Y006365D01*
X040514Y006206D02*
X040233Y006206D01*
X040233Y006048D02*
X040514Y006048D01*
X039333Y006048D02*
X037083Y006048D01*
X037695Y006206D02*
X039333Y006206D01*
X039333Y006365D02*
X037792Y006365D01*
X037809Y006523D02*
X039333Y006523D01*
X039333Y006682D02*
X037757Y006682D01*
X037566Y006840D02*
X039333Y006840D01*
X039333Y006999D02*
X037083Y006999D01*
X037083Y007157D02*
X039333Y007157D01*
X041324Y007316D02*
X044934Y007316D01*
X044934Y007474D02*
X041324Y007474D01*
X041352Y007633D02*
X044934Y007633D01*
X044959Y007791D02*
X044701Y007791D01*
X044588Y007745D02*
X044847Y007852D01*
X045045Y008050D01*
X045152Y008309D01*
X045152Y008589D01*
X045045Y008848D01*
X044847Y009046D01*
X044588Y009154D01*
X044308Y009154D01*
X044049Y009046D01*
X043851Y008848D01*
X043744Y008589D01*
X043744Y008309D01*
X043851Y008050D01*
X044049Y007852D01*
X044308Y007745D01*
X044588Y007745D01*
X044195Y007791D02*
X043244Y007791D01*
X043131Y007745D02*
X043390Y007852D01*
X043588Y008050D01*
X043696Y008309D01*
X043696Y008589D01*
X043588Y008848D01*
X043390Y009046D01*
X043131Y009154D01*
X042851Y009154D01*
X042592Y009046D01*
X042394Y008848D01*
X042287Y008589D01*
X042287Y008309D01*
X042394Y008050D01*
X042592Y007852D01*
X042851Y007745D01*
X043131Y007745D01*
X042738Y007791D02*
X041330Y007791D01*
X041224Y007950D02*
X042494Y007950D01*
X042370Y008109D02*
X040739Y008109D01*
X040703Y007950D02*
X040580Y007950D01*
X040597Y007791D02*
X040422Y007791D01*
X040897Y008267D02*
X042304Y008267D01*
X042287Y008426D02*
X041056Y008426D01*
X041214Y008584D02*
X042287Y008584D01*
X042351Y008743D02*
X041312Y008743D01*
X041324Y008901D02*
X042447Y008901D01*
X042625Y009060D02*
X041324Y009060D01*
X041352Y009218D02*
X046087Y009218D01*
X046116Y009060D02*
X044814Y009060D01*
X044992Y008901D02*
X046025Y008901D01*
X045866Y008743D02*
X045089Y008743D01*
X045152Y008584D02*
X045708Y008584D01*
X045549Y008426D02*
X045152Y008426D01*
X045135Y008267D02*
X045391Y008267D01*
X045232Y008109D02*
X045069Y008109D01*
X045074Y007950D02*
X044945Y007950D01*
X045775Y007633D02*
X046087Y007633D01*
X046087Y007584D02*
X046116Y007517D01*
X046116Y007272D01*
X046026Y007182D01*
X046026Y006016D01*
X046143Y005899D01*
X046808Y005899D01*
X046926Y006016D01*
X046926Y007182D01*
X046836Y007272D01*
X046836Y007517D01*
X046864Y007584D01*
X046864Y007739D01*
X046805Y007882D01*
X046695Y007991D01*
X046553Y008050D01*
X046398Y008050D01*
X046256Y007991D01*
X046147Y007882D01*
X046087Y007739D01*
X046087Y007584D01*
X046116Y007474D02*
X045654Y007474D01*
X045654Y007316D02*
X046116Y007316D01*
X046026Y007157D02*
X045744Y007157D01*
X045744Y006999D02*
X046026Y006999D01*
X046026Y006840D02*
X045744Y006840D01*
X045744Y006682D02*
X046026Y006682D01*
X046026Y006523D02*
X045744Y006523D01*
X045744Y006365D02*
X046026Y006365D01*
X046026Y006206D02*
X045744Y006206D01*
X045744Y006048D02*
X046026Y006048D01*
X044844Y006048D02*
X042595Y006048D01*
X042595Y006016D02*
X042478Y005899D01*
X041812Y005899D01*
X041695Y006016D01*
X041695Y007182D01*
X041812Y007299D01*
X042478Y007299D01*
X042595Y007182D01*
X042595Y006841D01*
X042787Y006841D01*
X042855Y006869D01*
X043009Y006869D01*
X043152Y006810D01*
X043261Y006700D01*
X043320Y006558D01*
X043320Y006403D01*
X043261Y006261D01*
X043152Y006152D01*
X043009Y006093D01*
X042855Y006093D01*
X042787Y006121D01*
X042595Y006121D01*
X042595Y006016D01*
X043207Y006206D02*
X044844Y006206D01*
X044844Y006365D02*
X043304Y006365D01*
X043320Y006523D02*
X044844Y006523D01*
X044844Y006682D02*
X043269Y006682D01*
X043078Y006840D02*
X044844Y006840D01*
X044844Y006999D02*
X042595Y006999D01*
X042595Y007157D02*
X044844Y007157D01*
X046836Y007316D02*
X050446Y007316D01*
X050446Y007474D02*
X046836Y007474D01*
X046864Y007633D02*
X050446Y007633D01*
X050470Y007791D02*
X050213Y007791D01*
X050100Y007745D02*
X050359Y007852D01*
X050557Y008050D01*
X050664Y008309D01*
X050664Y008589D01*
X050557Y008848D01*
X050359Y009046D01*
X050100Y009154D01*
X049820Y009154D01*
X049561Y009046D01*
X049363Y008848D01*
X049255Y008589D01*
X049255Y008309D01*
X049363Y008050D01*
X049561Y007852D01*
X049820Y007745D01*
X050100Y007745D01*
X049707Y007791D02*
X048756Y007791D01*
X048643Y007745D02*
X048902Y007852D01*
X049100Y008050D01*
X049208Y008309D01*
X049208Y008589D01*
X049100Y008848D01*
X048902Y009046D01*
X048643Y009154D01*
X048363Y009154D01*
X048104Y009046D01*
X047906Y008848D01*
X047799Y008589D01*
X047799Y008309D01*
X047906Y008050D01*
X048104Y007852D01*
X048363Y007745D01*
X048643Y007745D01*
X048250Y007791D02*
X046842Y007791D01*
X046736Y007950D02*
X048006Y007950D01*
X047882Y008109D02*
X046250Y008109D01*
X046215Y007950D02*
X046092Y007950D01*
X046109Y007791D02*
X045933Y007791D01*
X046409Y008267D02*
X047816Y008267D01*
X047799Y008426D02*
X046568Y008426D01*
X046726Y008584D02*
X047799Y008584D01*
X047862Y008743D02*
X046824Y008743D01*
X046836Y008901D02*
X047959Y008901D01*
X048137Y009060D02*
X046836Y009060D01*
X046864Y009218D02*
X051599Y009218D01*
X051627Y009060D02*
X050326Y009060D01*
X050504Y008901D02*
X051537Y008901D01*
X051378Y008743D02*
X050601Y008743D01*
X050664Y008584D02*
X051220Y008584D01*
X051061Y008426D02*
X050664Y008426D01*
X050647Y008267D02*
X050903Y008267D01*
X050744Y008109D02*
X050581Y008109D01*
X050586Y007950D02*
X050457Y007950D01*
X051287Y007633D02*
X051599Y007633D01*
X051599Y007584D02*
X051627Y007517D01*
X051627Y007272D01*
X051537Y007182D01*
X051537Y006016D01*
X051655Y005899D01*
X052320Y005899D01*
X052437Y006016D01*
X052437Y007182D01*
X052347Y007272D01*
X052347Y007517D01*
X052375Y007584D01*
X052375Y007739D01*
X052316Y007882D01*
X052207Y007991D01*
X052065Y008050D01*
X051910Y008050D01*
X051768Y007991D01*
X051658Y007882D01*
X051599Y007739D01*
X051599Y007584D01*
X051627Y007474D02*
X051166Y007474D01*
X051166Y007316D02*
X051627Y007316D01*
X051537Y007157D02*
X051256Y007157D01*
X051256Y006999D02*
X051537Y006999D01*
X051537Y006840D02*
X051256Y006840D01*
X051256Y006682D02*
X051537Y006682D01*
X051537Y006523D02*
X051256Y006523D01*
X051256Y006365D02*
X051537Y006365D01*
X051537Y006206D02*
X051256Y006206D01*
X051256Y006048D02*
X051537Y006048D01*
X050356Y006048D02*
X048107Y006048D01*
X048107Y006016D02*
X047990Y005899D01*
X047324Y005899D01*
X047207Y006016D01*
X047207Y007182D01*
X047324Y007299D01*
X047990Y007299D01*
X048107Y007182D01*
X048107Y006841D01*
X048299Y006841D01*
X048367Y006869D01*
X048521Y006869D01*
X048664Y006810D01*
X048773Y006700D01*
X048832Y006558D01*
X048832Y006403D01*
X048773Y006261D01*
X048664Y006152D01*
X048521Y006093D01*
X048367Y006093D01*
X048299Y006121D01*
X048107Y006121D01*
X048107Y006016D01*
X048718Y006206D02*
X050356Y006206D01*
X050356Y006365D02*
X048816Y006365D01*
X048832Y006523D02*
X050356Y006523D01*
X050356Y006682D02*
X048781Y006682D01*
X048590Y006840D02*
X050356Y006840D01*
X050356Y006999D02*
X048107Y006999D01*
X048107Y007157D02*
X050356Y007157D01*
X052347Y007316D02*
X055958Y007316D01*
X055958Y007474D02*
X052347Y007474D01*
X052375Y007633D02*
X055958Y007633D01*
X055982Y007791D02*
X055725Y007791D01*
X055612Y007745D02*
X055871Y007852D01*
X056069Y008050D01*
X056176Y008309D01*
X056176Y008589D01*
X056069Y008848D01*
X055871Y009046D01*
X055612Y009154D01*
X055331Y009154D01*
X055073Y009046D01*
X054874Y008848D01*
X054767Y008589D01*
X054767Y008309D01*
X054874Y008050D01*
X055073Y007852D01*
X055331Y007745D01*
X055612Y007745D01*
X055219Y007791D02*
X054268Y007791D01*
X054155Y007745D02*
X054414Y007852D01*
X054612Y008050D01*
X054719Y008309D01*
X054719Y008589D01*
X054612Y008848D01*
X054414Y009046D01*
X054155Y009154D01*
X053875Y009154D01*
X053616Y009046D01*
X053418Y008848D01*
X053311Y008589D01*
X053311Y008309D01*
X053418Y008050D01*
X053616Y007852D01*
X053875Y007745D01*
X054155Y007745D01*
X053762Y007791D02*
X052354Y007791D01*
X052248Y007950D02*
X053518Y007950D01*
X053394Y008109D02*
X051762Y008109D01*
X051727Y007950D02*
X051604Y007950D01*
X051621Y007791D02*
X051445Y007791D01*
X051921Y008267D02*
X053328Y008267D01*
X053311Y008426D02*
X052079Y008426D01*
X052238Y008584D02*
X053311Y008584D01*
X053374Y008743D02*
X052336Y008743D01*
X052347Y008901D02*
X053471Y008901D01*
X053649Y009060D02*
X052347Y009060D01*
X052375Y009218D02*
X057111Y009218D01*
X057139Y009060D02*
X055838Y009060D01*
X056016Y008901D02*
X057049Y008901D01*
X056890Y008743D02*
X056112Y008743D01*
X056176Y008584D02*
X056731Y008584D01*
X056573Y008426D02*
X056176Y008426D01*
X056159Y008267D02*
X056414Y008267D01*
X056256Y008109D02*
X056093Y008109D01*
X056097Y007950D02*
X055969Y007950D01*
X056798Y007633D02*
X057111Y007633D01*
X057111Y007584D02*
X057139Y007517D01*
X057139Y007272D01*
X057049Y007182D01*
X057049Y006016D01*
X057166Y005899D01*
X057832Y005899D01*
X057949Y006016D01*
X057949Y007182D01*
X057859Y007272D01*
X057859Y007517D01*
X057887Y007584D01*
X057887Y007739D01*
X057828Y007882D01*
X057719Y007991D01*
X057576Y008050D01*
X057422Y008050D01*
X057279Y007991D01*
X057170Y007882D01*
X057111Y007739D01*
X057111Y007584D01*
X057139Y007474D02*
X056678Y007474D01*
X056678Y007316D02*
X057139Y007316D01*
X057049Y007157D02*
X056768Y007157D01*
X056768Y006999D02*
X057049Y006999D01*
X057049Y006840D02*
X056768Y006840D01*
X056768Y006682D02*
X057049Y006682D01*
X057049Y006523D02*
X056768Y006523D01*
X056768Y006365D02*
X057049Y006365D01*
X057049Y006206D02*
X056768Y006206D01*
X056768Y006048D02*
X057049Y006048D01*
X057949Y006048D02*
X058230Y006048D01*
X058230Y006016D02*
X058347Y005899D01*
X059013Y005899D01*
X059130Y006016D01*
X059130Y006121D01*
X059323Y006121D01*
X059390Y006093D01*
X059545Y006093D01*
X059688Y006152D01*
X059797Y006261D01*
X059856Y006403D01*
X059856Y006558D01*
X059797Y006700D01*
X059688Y006810D01*
X059545Y006869D01*
X059390Y006869D01*
X059323Y006841D01*
X059130Y006841D01*
X059130Y007182D01*
X059013Y007299D01*
X058347Y007299D01*
X058230Y007182D01*
X058230Y006016D01*
X058230Y006206D02*
X057949Y006206D01*
X057949Y006365D02*
X058230Y006365D01*
X058230Y006523D02*
X057949Y006523D01*
X057949Y006682D02*
X058230Y006682D01*
X058230Y006840D02*
X057949Y006840D01*
X057949Y006999D02*
X058230Y006999D01*
X058230Y007157D02*
X057949Y007157D01*
X057859Y007316D02*
X061470Y007316D01*
X061470Y007474D02*
X057859Y007474D01*
X057887Y007633D02*
X061470Y007633D01*
X061494Y007791D02*
X061236Y007791D01*
X061124Y007745D02*
X061382Y007852D01*
X061581Y008050D01*
X061688Y008309D01*
X061688Y008589D01*
X061581Y008848D01*
X061382Y009046D01*
X061124Y009154D01*
X060843Y009154D01*
X060584Y009046D01*
X060386Y008848D01*
X060279Y008589D01*
X060279Y008309D01*
X060386Y008050D01*
X060584Y007852D01*
X060843Y007745D01*
X061124Y007745D01*
X060730Y007791D02*
X059780Y007791D01*
X059667Y007745D02*
X059926Y007852D01*
X060124Y008050D01*
X060231Y008309D01*
X060231Y008589D01*
X060124Y008848D01*
X059926Y009046D01*
X059667Y009154D01*
X059387Y009154D01*
X059128Y009046D01*
X058930Y008848D01*
X058822Y008589D01*
X058822Y008309D01*
X058930Y008050D01*
X059128Y007852D01*
X059387Y007745D01*
X059667Y007745D01*
X059274Y007791D02*
X057866Y007791D01*
X057760Y007950D02*
X059030Y007950D01*
X058905Y008109D02*
X057274Y008109D01*
X057239Y007950D02*
X057116Y007950D01*
X057133Y007791D02*
X056957Y007791D01*
X057433Y008267D02*
X058840Y008267D01*
X058822Y008426D02*
X057591Y008426D01*
X057750Y008584D02*
X058822Y008584D01*
X058886Y008743D02*
X057847Y008743D01*
X057859Y008901D02*
X058983Y008901D01*
X059161Y009060D02*
X057859Y009060D01*
X057887Y009218D02*
X062623Y009218D01*
X062651Y009060D02*
X061350Y009060D01*
X061527Y008901D02*
X062560Y008901D01*
X062402Y008743D02*
X061624Y008743D01*
X061688Y008584D02*
X062243Y008584D01*
X062085Y008426D02*
X061688Y008426D01*
X061670Y008267D02*
X061926Y008267D01*
X061768Y008109D02*
X061605Y008109D01*
X061609Y007950D02*
X061481Y007950D01*
X062310Y007633D02*
X062623Y007633D01*
X062623Y007584D02*
X062651Y007517D01*
X062651Y007272D01*
X062561Y007182D01*
X062561Y006016D01*
X062678Y005899D01*
X063344Y005899D01*
X063461Y006016D01*
X063461Y007182D01*
X063371Y007272D01*
X063371Y007517D01*
X063399Y007584D01*
X063399Y007739D01*
X063340Y007882D01*
X063231Y007991D01*
X063088Y008050D01*
X062934Y008050D01*
X062791Y007991D01*
X062682Y007882D01*
X062623Y007739D01*
X062623Y007584D01*
X062651Y007474D02*
X062190Y007474D01*
X062190Y007316D02*
X062651Y007316D01*
X062561Y007157D02*
X062280Y007157D01*
X062280Y006999D02*
X062561Y006999D01*
X062561Y006840D02*
X062280Y006840D01*
X062280Y006682D02*
X062561Y006682D01*
X062561Y006523D02*
X062280Y006523D01*
X062280Y006365D02*
X062561Y006365D01*
X062561Y006206D02*
X062280Y006206D01*
X062280Y006048D02*
X062561Y006048D01*
X063461Y006048D02*
X063742Y006048D01*
X063742Y006206D02*
X063461Y006206D01*
X063461Y006365D02*
X063742Y006365D01*
X063742Y006523D02*
X063461Y006523D01*
X063461Y006682D02*
X063742Y006682D01*
X063742Y006840D02*
X063461Y006840D01*
X063461Y006999D02*
X063742Y006999D01*
X063742Y007157D02*
X063461Y007157D01*
X063371Y007316D02*
X066982Y007316D01*
X066982Y007474D02*
X063371Y007474D01*
X063399Y007633D02*
X066982Y007633D01*
X067006Y007791D02*
X066748Y007791D01*
X066635Y007745D02*
X066894Y007852D01*
X067092Y008050D01*
X067200Y008309D01*
X067200Y008589D01*
X067092Y008848D01*
X066894Y009046D01*
X066635Y009154D01*
X066355Y009154D01*
X066096Y009046D01*
X065898Y008848D01*
X065791Y008589D01*
X065791Y008309D01*
X065898Y008050D01*
X066096Y007852D01*
X066355Y007745D01*
X066635Y007745D01*
X066242Y007791D02*
X065292Y007791D01*
X065179Y007745D02*
X065438Y007852D01*
X065636Y008050D01*
X065743Y008309D01*
X065743Y008589D01*
X065636Y008848D01*
X065438Y009046D01*
X065179Y009154D01*
X064898Y009154D01*
X064640Y009046D01*
X064441Y008848D01*
X064334Y008589D01*
X064334Y008309D01*
X064441Y008050D01*
X064640Y007852D01*
X064898Y007745D01*
X065179Y007745D01*
X064786Y007791D02*
X063377Y007791D01*
X063272Y007950D02*
X064541Y007950D01*
X064417Y008109D02*
X062786Y008109D01*
X062750Y007950D02*
X062627Y007950D01*
X062645Y007791D02*
X062469Y007791D01*
X062944Y008267D02*
X064351Y008267D01*
X064334Y008426D02*
X063103Y008426D01*
X063261Y008584D02*
X064334Y008584D01*
X064398Y008743D02*
X063359Y008743D01*
X063371Y008901D02*
X064495Y008901D01*
X064672Y009060D02*
X063371Y009060D01*
X063399Y009218D02*
X068135Y009218D01*
X068163Y009060D02*
X066861Y009060D01*
X067039Y008901D02*
X068072Y008901D01*
X067914Y008743D02*
X067136Y008743D01*
X067200Y008584D02*
X067755Y008584D01*
X067597Y008426D02*
X067200Y008426D01*
X067182Y008267D02*
X067438Y008267D01*
X067279Y008109D02*
X067117Y008109D01*
X067121Y007950D02*
X066992Y007950D01*
X067822Y007633D02*
X068135Y007633D01*
X068135Y007584D02*
X068163Y007517D01*
X068163Y007272D01*
X068073Y007182D01*
X068073Y006016D01*
X068190Y005899D01*
X068856Y005899D01*
X068973Y006016D01*
X068973Y007182D01*
X068883Y007272D01*
X068883Y007517D01*
X068911Y007584D01*
X068911Y007739D01*
X068852Y007882D01*
X068743Y007991D01*
X068600Y008050D01*
X068446Y008050D01*
X068303Y007991D01*
X068194Y007882D01*
X068135Y007739D01*
X068135Y007584D01*
X068163Y007474D02*
X067702Y007474D01*
X067702Y007316D02*
X068163Y007316D01*
X068073Y007157D02*
X067792Y007157D01*
X067792Y006999D02*
X068073Y006999D01*
X068073Y006840D02*
X067792Y006840D01*
X067792Y006682D02*
X068073Y006682D01*
X068073Y006523D02*
X067792Y006523D01*
X067792Y006365D02*
X068073Y006365D01*
X068073Y006206D02*
X067792Y006206D01*
X067792Y006048D02*
X068073Y006048D01*
X068838Y005730D02*
X065058Y005730D01*
X064899Y005889D02*
X068997Y005889D01*
X068973Y006048D02*
X069155Y006048D01*
X069254Y006206D02*
X068973Y006206D01*
X068973Y006365D02*
X069254Y006365D01*
X069254Y006523D02*
X068973Y006523D01*
X068973Y006682D02*
X069254Y006682D01*
X069254Y006840D02*
X068973Y006840D01*
X068973Y006999D02*
X069254Y006999D01*
X069254Y007157D02*
X068973Y007157D01*
X068883Y007316D02*
X072494Y007316D01*
X072494Y007474D02*
X068883Y007474D01*
X068911Y007633D02*
X072494Y007633D01*
X072518Y007791D02*
X072260Y007791D01*
X072147Y007745D02*
X072406Y007852D01*
X072604Y008050D01*
X072711Y008309D01*
X072711Y008589D01*
X072604Y008848D01*
X072406Y009046D01*
X072147Y009154D01*
X071867Y009154D01*
X071608Y009046D01*
X071410Y008848D01*
X071303Y008589D01*
X071303Y008309D01*
X071410Y008050D01*
X071608Y007852D01*
X071867Y007745D01*
X072147Y007745D01*
X071754Y007791D02*
X070803Y007791D01*
X070691Y007745D02*
X070949Y007852D01*
X071148Y008050D01*
X071255Y008309D01*
X071255Y008589D01*
X071148Y008848D01*
X070949Y009046D01*
X070691Y009154D01*
X070410Y009154D01*
X070151Y009046D01*
X069953Y008848D01*
X069846Y008589D01*
X069846Y008309D01*
X069953Y008050D01*
X070151Y007852D01*
X070410Y007745D01*
X070691Y007745D01*
X070297Y007791D02*
X068889Y007791D01*
X068783Y007950D02*
X070053Y007950D01*
X069929Y008109D02*
X068298Y008109D01*
X068262Y007950D02*
X068139Y007950D01*
X068157Y007791D02*
X067981Y007791D01*
X068456Y008267D02*
X069863Y008267D01*
X069846Y008426D02*
X068615Y008426D01*
X068773Y008584D02*
X069846Y008584D01*
X069910Y008743D02*
X068871Y008743D01*
X068883Y008901D02*
X070006Y008901D01*
X070184Y009060D02*
X068883Y009060D01*
X068911Y009218D02*
X073647Y009218D01*
X073675Y009060D02*
X072373Y009060D01*
X072551Y008901D02*
X073584Y008901D01*
X073425Y008743D02*
X072648Y008743D01*
X072711Y008584D02*
X073267Y008584D01*
X073108Y008426D02*
X072711Y008426D01*
X072694Y008267D02*
X072950Y008267D01*
X072791Y008109D02*
X072628Y008109D01*
X072633Y007950D02*
X072504Y007950D01*
X073334Y007633D02*
X073647Y007633D01*
X073668Y007791D02*
X073492Y007791D01*
X073651Y007950D02*
X073774Y007950D01*
X073809Y008109D02*
X075441Y008109D01*
X075465Y008050D02*
X075663Y007852D01*
X075922Y007745D01*
X076202Y007745D01*
X076461Y007852D01*
X076659Y008050D01*
X076767Y008309D01*
X076767Y008589D01*
X076659Y008848D01*
X076461Y009046D01*
X076202Y009154D01*
X075922Y009154D01*
X075663Y009046D01*
X075465Y008848D01*
X075358Y008589D01*
X075358Y008309D01*
X075465Y008050D01*
X075565Y007950D02*
X074295Y007950D01*
X074401Y007791D02*
X075809Y007791D01*
X076315Y007791D02*
X077184Y007791D01*
X077184Y007633D02*
X074423Y007633D01*
X074395Y007474D02*
X077184Y007474D01*
X077184Y007316D02*
X074395Y007316D01*
X074485Y007157D02*
X074766Y007157D01*
X074766Y006999D02*
X074485Y006999D01*
X074485Y006840D02*
X074766Y006840D01*
X074766Y006682D02*
X074485Y006682D01*
X074485Y006523D02*
X074766Y006523D01*
X074766Y006365D02*
X074485Y006365D01*
X074485Y006206D02*
X074766Y006206D01*
X075576Y005889D02*
X077184Y005889D01*
X077184Y006048D02*
X075666Y006048D01*
X075666Y006206D02*
X077184Y006206D01*
X077184Y006365D02*
X075666Y006365D01*
X075666Y006523D02*
X077184Y006523D01*
X077184Y006682D02*
X075666Y006682D01*
X075666Y006840D02*
X077184Y006840D01*
X077184Y006999D02*
X075666Y006999D01*
X075666Y007157D02*
X077184Y007157D01*
X077184Y007950D02*
X076559Y007950D01*
X076684Y008109D02*
X077184Y008109D01*
X077184Y008267D02*
X076749Y008267D01*
X076767Y008426D02*
X077184Y008426D01*
X077184Y008584D02*
X076767Y008584D01*
X076703Y008743D02*
X077184Y008743D01*
X077184Y008901D02*
X076606Y008901D01*
X076428Y009060D02*
X077184Y009060D01*
X077184Y009218D02*
X074423Y009218D01*
X074395Y009060D02*
X075696Y009060D01*
X075518Y008901D02*
X074395Y008901D01*
X074383Y008743D02*
X075421Y008743D01*
X075358Y008584D02*
X074285Y008584D01*
X074127Y008426D02*
X075358Y008426D01*
X075375Y008267D02*
X073968Y008267D01*
X073675Y007474D02*
X073214Y007474D01*
X073214Y007316D02*
X073675Y007316D01*
X073585Y007157D02*
X073304Y007157D01*
X073304Y006999D02*
X073585Y006999D01*
X073585Y006840D02*
X073304Y006840D01*
X073304Y006682D02*
X073585Y006682D01*
X073585Y006523D02*
X073304Y006523D01*
X073304Y006365D02*
X073585Y006365D01*
X073585Y006206D02*
X073304Y006206D01*
X072404Y006206D02*
X070154Y006206D01*
X070154Y006365D02*
X072404Y006365D01*
X072404Y006523D02*
X070154Y006523D01*
X070154Y006682D02*
X072404Y006682D01*
X072404Y006840D02*
X070154Y006840D01*
X070154Y006999D02*
X072404Y006999D01*
X072404Y007157D02*
X070154Y007157D01*
X071047Y007950D02*
X071510Y007950D01*
X071386Y008109D02*
X071172Y008109D01*
X071237Y008267D02*
X071320Y008267D01*
X071303Y008426D02*
X071255Y008426D01*
X071255Y008584D02*
X071303Y008584D01*
X071366Y008743D02*
X071191Y008743D01*
X071094Y008901D02*
X071463Y008901D01*
X071641Y009060D02*
X070917Y009060D01*
X068885Y009377D02*
X073673Y009377D01*
X073675Y009535D02*
X068883Y009535D01*
X068951Y009694D02*
X069276Y009694D01*
X069254Y009853D02*
X068973Y009853D01*
X068973Y010011D02*
X069254Y010011D01*
X069254Y010170D02*
X068973Y010170D01*
X068973Y010328D02*
X069254Y010328D01*
X069254Y010487D02*
X068973Y010487D01*
X068973Y010645D02*
X069254Y010645D01*
X069254Y010804D02*
X068973Y010804D01*
X068073Y010804D02*
X067772Y010804D01*
X067772Y010645D02*
X068073Y010645D01*
X068073Y010487D02*
X067772Y010487D01*
X067772Y010254D02*
X067387Y010254D01*
X067387Y009619D01*
X067615Y009619D01*
X067661Y009631D01*
X067702Y009655D01*
X067736Y009689D01*
X067759Y009730D01*
X067772Y009775D01*
X067772Y010254D01*
X067772Y010170D02*
X068073Y010170D01*
X068073Y010328D02*
X067387Y010328D01*
X067296Y010328D02*
X065363Y010328D01*
X065368Y010487D02*
X066912Y010487D01*
X066912Y010645D02*
X065301Y010645D01*
X065061Y010804D02*
X066912Y010804D01*
X064898Y010804D02*
X064642Y010804D01*
X063742Y010804D02*
X063461Y010804D01*
X063461Y010645D02*
X063742Y010645D01*
X063742Y010487D02*
X063461Y010487D01*
X063461Y010328D02*
X063742Y010328D01*
X063742Y010170D02*
X063461Y010170D01*
X063461Y010011D02*
X063742Y010011D01*
X063742Y009853D02*
X063461Y009853D01*
X063439Y009694D02*
X063764Y009694D01*
X063371Y009535D02*
X068163Y009535D01*
X068161Y009377D02*
X063373Y009377D01*
X062649Y009377D02*
X057861Y009377D01*
X057859Y009535D02*
X062651Y009535D01*
X062583Y009694D02*
X062227Y009694D01*
X062224Y009689D02*
X062248Y009730D01*
X062260Y009775D01*
X062260Y010254D01*
X061875Y010254D01*
X061875Y009619D01*
X062104Y009619D01*
X062149Y009631D01*
X062190Y009655D01*
X062224Y009689D01*
X062260Y009853D02*
X062561Y009853D01*
X062561Y010011D02*
X062260Y010011D01*
X062260Y010170D02*
X062561Y010170D01*
X062561Y010328D02*
X061875Y010328D01*
X061785Y010328D02*
X059851Y010328D01*
X059856Y010487D02*
X061400Y010487D01*
X061400Y010645D02*
X059789Y010645D01*
X059549Y010804D02*
X061400Y010804D01*
X062260Y010804D02*
X062561Y010804D01*
X062561Y010645D02*
X062260Y010645D01*
X062260Y010487D02*
X062561Y010487D01*
X061875Y010170D02*
X061785Y010170D01*
X061785Y010254D02*
X061785Y009619D01*
X061556Y009619D01*
X061510Y009631D01*
X061469Y009655D01*
X061436Y009689D01*
X061412Y009730D01*
X061400Y009775D01*
X061400Y010254D01*
X061785Y010254D01*
X061785Y010011D02*
X061875Y010011D01*
X061875Y009853D02*
X061785Y009853D01*
X061785Y009694D02*
X061875Y009694D01*
X061433Y009694D02*
X059108Y009694D01*
X059130Y009853D02*
X061400Y009853D01*
X061400Y010011D02*
X059130Y010011D01*
X059769Y010170D02*
X061400Y010170D01*
X059386Y010804D02*
X059130Y010804D01*
X058230Y010804D02*
X057949Y010804D01*
X057949Y010645D02*
X058230Y010645D01*
X058230Y010487D02*
X057949Y010487D01*
X057949Y010328D02*
X058230Y010328D01*
X058230Y010170D02*
X057949Y010170D01*
X057949Y010011D02*
X058230Y010011D01*
X058230Y009853D02*
X057949Y009853D01*
X057927Y009694D02*
X058253Y009694D01*
X057139Y009535D02*
X052347Y009535D01*
X052349Y009377D02*
X057137Y009377D01*
X056273Y009619D02*
X056273Y010254D01*
X055888Y010254D01*
X055888Y009775D01*
X055900Y009730D01*
X055924Y009689D01*
X055958Y009655D01*
X055999Y009631D01*
X056044Y009619D01*
X056273Y009619D01*
X056273Y009694D02*
X056363Y009694D01*
X056363Y009853D02*
X056273Y009853D01*
X056273Y010011D02*
X056363Y010011D01*
X056363Y010170D02*
X056273Y010170D01*
X056273Y010328D02*
X054339Y010328D01*
X054344Y010487D02*
X055888Y010487D01*
X055888Y010645D02*
X054277Y010645D01*
X054038Y010804D02*
X055888Y010804D01*
X056748Y010804D02*
X057049Y010804D01*
X057049Y010645D02*
X056748Y010645D01*
X056748Y010487D02*
X057049Y010487D01*
X057049Y010328D02*
X056363Y010328D01*
X056748Y010170D02*
X057049Y010170D01*
X057049Y010011D02*
X056748Y010011D01*
X056748Y009853D02*
X057049Y009853D01*
X057071Y009694D02*
X056715Y009694D01*
X055921Y009694D02*
X053596Y009694D01*
X053618Y009853D02*
X055888Y009853D01*
X055888Y010011D02*
X053618Y010011D01*
X054257Y010170D02*
X055888Y010170D01*
X053874Y010804D02*
X053618Y010804D01*
X052719Y010804D02*
X052437Y010804D01*
X052437Y010645D02*
X052719Y010645D01*
X052719Y010487D02*
X052437Y010487D01*
X052437Y010328D02*
X052719Y010328D01*
X052719Y010170D02*
X052437Y010170D01*
X052437Y010011D02*
X052719Y010011D01*
X052719Y009853D02*
X052437Y009853D01*
X052415Y009694D02*
X052741Y009694D01*
X051627Y009535D02*
X046836Y009535D01*
X046837Y009377D02*
X051626Y009377D01*
X051560Y009694D02*
X051203Y009694D01*
X051236Y009853D02*
X051537Y009853D01*
X051537Y010011D02*
X051236Y010011D01*
X051236Y010170D02*
X051537Y010170D01*
X051537Y010328D02*
X050852Y010328D01*
X050761Y010328D02*
X048827Y010328D01*
X048832Y010487D02*
X050376Y010487D01*
X050376Y010645D02*
X048765Y010645D01*
X048526Y010804D02*
X050376Y010804D01*
X051236Y010804D02*
X051537Y010804D01*
X051537Y010645D02*
X051236Y010645D01*
X051236Y010487D02*
X051537Y010487D01*
X050851Y010170D02*
X050761Y010170D01*
X050761Y010011D02*
X050851Y010011D01*
X050851Y009853D02*
X050761Y009853D01*
X050761Y009694D02*
X050851Y009694D01*
X050409Y009694D02*
X048084Y009694D01*
X048107Y009853D02*
X050376Y009853D01*
X050376Y010011D02*
X048107Y010011D01*
X048745Y010170D02*
X050376Y010170D01*
X048362Y010804D02*
X048107Y010804D01*
X047207Y010804D02*
X046926Y010804D01*
X046926Y010645D02*
X047207Y010645D01*
X047207Y010487D02*
X046926Y010487D01*
X046926Y010328D02*
X047207Y010328D01*
X047207Y010170D02*
X046926Y010170D01*
X046926Y010011D02*
X047207Y010011D01*
X047207Y009853D02*
X046926Y009853D01*
X046903Y009694D02*
X047229Y009694D01*
X046116Y009535D02*
X041324Y009535D01*
X041326Y009377D02*
X046114Y009377D01*
X046048Y009694D02*
X045692Y009694D01*
X045724Y009853D02*
X046026Y009853D01*
X046026Y010011D02*
X045724Y010011D01*
X045724Y010170D02*
X046026Y010170D01*
X046026Y010328D02*
X045340Y010328D01*
X045249Y010328D02*
X043315Y010328D01*
X043320Y010487D02*
X044864Y010487D01*
X044864Y010645D02*
X043253Y010645D01*
X043014Y010804D02*
X044864Y010804D01*
X045724Y010804D02*
X046026Y010804D01*
X046026Y010645D02*
X045724Y010645D01*
X045724Y010487D02*
X046026Y010487D01*
X045339Y010170D02*
X045249Y010170D01*
X045249Y010011D02*
X045339Y010011D01*
X045339Y009853D02*
X045249Y009853D01*
X045249Y009694D02*
X045339Y009694D01*
X044897Y009694D02*
X042573Y009694D01*
X042595Y009853D02*
X044864Y009853D01*
X044864Y010011D02*
X042595Y010011D01*
X043233Y010170D02*
X044864Y010170D01*
X042851Y010804D02*
X042595Y010804D01*
X041695Y010804D02*
X041414Y010804D01*
X041414Y010645D02*
X041695Y010645D01*
X041695Y010487D02*
X041414Y010487D01*
X041414Y010328D02*
X041695Y010328D01*
X041695Y010170D02*
X041414Y010170D01*
X041414Y010011D02*
X041695Y010011D01*
X041695Y009853D02*
X041414Y009853D01*
X041391Y009694D02*
X041717Y009694D01*
X040604Y009535D02*
X035812Y009535D01*
X035814Y009377D02*
X040602Y009377D01*
X040177Y009689D02*
X040200Y009730D01*
X040213Y009775D01*
X040213Y010254D01*
X039828Y010254D01*
X039828Y009619D01*
X040056Y009619D01*
X040102Y009631D01*
X040143Y009655D01*
X040177Y009689D01*
X040180Y009694D02*
X040536Y009694D01*
X040514Y009853D02*
X040213Y009853D01*
X040213Y010011D02*
X040514Y010011D01*
X040514Y010170D02*
X040213Y010170D01*
X040213Y010487D02*
X040514Y010487D01*
X040514Y010645D02*
X040213Y010645D01*
X040213Y010804D02*
X040514Y010804D01*
X039353Y010804D02*
X037502Y010804D01*
X037339Y010804D02*
X037083Y010804D01*
X037742Y010645D02*
X039353Y010645D01*
X039353Y010487D02*
X037809Y010487D01*
X037803Y010328D02*
X039737Y010328D01*
X039828Y010328D02*
X040514Y010328D01*
X039828Y010170D02*
X039738Y010170D01*
X039738Y010011D02*
X039828Y010011D01*
X039828Y009853D02*
X039738Y009853D01*
X039738Y009694D02*
X039828Y009694D01*
X039385Y009694D02*
X037061Y009694D01*
X037083Y009853D02*
X039353Y009853D01*
X039353Y010011D02*
X037083Y010011D01*
X037721Y010170D02*
X039353Y010170D01*
X038570Y009060D02*
X037846Y009060D01*
X038023Y008901D02*
X038392Y008901D01*
X038295Y008743D02*
X038120Y008743D01*
X038184Y008584D02*
X038232Y008584D01*
X038232Y008426D02*
X038184Y008426D01*
X038167Y008267D02*
X038249Y008267D01*
X038315Y008109D02*
X038101Y008109D01*
X037977Y007950D02*
X038439Y007950D01*
X041414Y007157D02*
X041695Y007157D01*
X041695Y006999D02*
X041414Y006999D01*
X041414Y006840D02*
X041695Y006840D01*
X041695Y006682D02*
X041414Y006682D01*
X041414Y006523D02*
X041695Y006523D01*
X041695Y006365D02*
X041414Y006365D01*
X041414Y006206D02*
X041695Y006206D01*
X041695Y006048D02*
X041414Y006048D01*
X040099Y004769D02*
X040039Y004828D01*
X039971Y004878D01*
X039896Y004916D01*
X039816Y004942D01*
X039733Y004955D01*
X039729Y004955D01*
X039729Y004459D01*
X039653Y004459D01*
X039653Y004955D01*
X039649Y004955D01*
X039566Y004942D01*
X039486Y004916D01*
X039411Y004878D01*
X039343Y004828D01*
X039284Y004769D01*
X039234Y004701D01*
X039196Y004626D01*
X039170Y004546D01*
X039157Y004463D01*
X039157Y004459D01*
X039653Y004459D01*
X039653Y004383D01*
X039157Y004383D01*
X039157Y004379D01*
X039170Y004296D01*
X039186Y004246D01*
X039106Y004279D01*
X038885Y004279D01*
X038831Y004257D01*
X038854Y004310D01*
X038854Y004531D01*
X038769Y004735D01*
X038613Y004891D01*
X038410Y004975D01*
X038189Y004975D01*
X037985Y004891D01*
X037829Y004735D01*
X037745Y004531D01*
X037745Y004310D01*
X037829Y004107D01*
X037985Y003951D01*
X038189Y003866D01*
X038410Y003866D01*
X038463Y003889D01*
X038441Y003835D01*
X038441Y003614D01*
X038463Y003561D01*
X038410Y003583D01*
X038189Y003583D01*
X037985Y003499D01*
X037829Y003343D01*
X037745Y003139D01*
X037745Y002918D01*
X037829Y002715D01*
X037985Y002559D01*
X038103Y002510D01*
X037570Y002510D01*
X037231Y002849D01*
X037098Y002904D01*
X036955Y002904D01*
X032058Y002904D01*
X031827Y003134D01*
X032113Y003420D01*
X032214Y003521D01*
X032269Y003653D01*
X032269Y004834D01*
X032269Y004977D01*
X032214Y005110D01*
X032269Y004938D02*
X038099Y004938D01*
X037874Y004779D02*
X032269Y004779D01*
X032269Y004621D02*
X037782Y004621D01*
X037745Y004462D02*
X036304Y004462D01*
X036198Y004506D02*
X035887Y004506D01*
X035600Y004387D01*
X035380Y004167D01*
X035261Y003880D01*
X035261Y003569D01*
X035380Y003282D01*
X035600Y003062D01*
X035887Y002944D01*
X036198Y002944D01*
X036485Y003062D01*
X036705Y003282D01*
X036824Y003569D01*
X036824Y003880D01*
X036705Y004167D01*
X036485Y004387D01*
X036198Y004506D01*
X035781Y004462D02*
X033548Y004462D01*
X033442Y004506D02*
X033131Y004506D01*
X032844Y004387D01*
X032624Y004167D01*
X032505Y003880D01*
X032505Y003569D01*
X032624Y003282D01*
X032844Y003062D01*
X033131Y002944D01*
X033442Y002944D01*
X033729Y003062D01*
X033949Y003282D01*
X034068Y003569D01*
X034068Y003880D01*
X033949Y004167D01*
X033729Y004387D01*
X033442Y004506D01*
X033026Y004462D02*
X032269Y004462D01*
X032269Y004304D02*
X032761Y004304D01*
X032615Y004145D02*
X032269Y004145D01*
X032269Y003986D02*
X032549Y003986D01*
X032505Y003828D02*
X032269Y003828D01*
X032269Y003669D02*
X032505Y003669D01*
X032530Y003511D02*
X032204Y003511D01*
X032045Y003352D02*
X032595Y003352D01*
X032713Y003194D02*
X031887Y003194D01*
X031926Y003035D02*
X032910Y003035D01*
X033663Y003035D02*
X035666Y003035D01*
X035469Y003194D02*
X033860Y003194D01*
X033978Y003352D02*
X035351Y003352D01*
X035286Y003511D02*
X034044Y003511D01*
X034068Y003669D02*
X035261Y003669D01*
X035261Y003828D02*
X034068Y003828D01*
X034024Y003986D02*
X035305Y003986D01*
X035371Y004145D02*
X033958Y004145D01*
X033812Y004304D02*
X035517Y004304D01*
X036568Y004304D02*
X037748Y004304D01*
X037813Y004145D02*
X036714Y004145D01*
X036780Y003986D02*
X037950Y003986D01*
X038441Y003828D02*
X036824Y003828D01*
X036824Y003669D02*
X038441Y003669D01*
X038015Y003511D02*
X036799Y003511D01*
X036734Y003352D02*
X037839Y003352D01*
X037768Y003194D02*
X036616Y003194D01*
X036419Y003035D02*
X037745Y003035D01*
X037762Y002877D02*
X037163Y002877D01*
X037361Y002718D02*
X037828Y002718D01*
X037984Y002560D02*
X037520Y002560D01*
X036977Y002084D02*
X026791Y002084D01*
X026791Y002242D02*
X031701Y002242D01*
X031542Y002401D02*
X026791Y002401D01*
X026791Y002560D02*
X029323Y002560D01*
X029166Y002718D02*
X026791Y002718D01*
X026791Y002877D02*
X029101Y002877D01*
X029084Y003035D02*
X027758Y003035D01*
X027955Y003194D02*
X028964Y003194D01*
X028805Y003352D02*
X028072Y003352D01*
X028138Y003511D02*
X028647Y003511D01*
X028488Y003669D02*
X028162Y003669D01*
X028162Y003828D02*
X028402Y003828D01*
X028399Y003986D02*
X028118Y003986D01*
X028053Y004145D02*
X028399Y004145D01*
X028399Y004304D02*
X027907Y004304D01*
X027642Y004462D02*
X028399Y004462D01*
X027120Y004462D02*
X026791Y004462D01*
X026791Y004304D02*
X026855Y004304D01*
X026791Y003194D02*
X026807Y003194D01*
X026791Y003035D02*
X027004Y003035D01*
X026791Y001925D02*
X037136Y001925D01*
X036579Y001608D02*
X041411Y001608D01*
X041316Y001450D02*
X036674Y001450D01*
X036735Y001291D02*
X041255Y001291D01*
X041255Y001133D02*
X039350Y001133D01*
X039363Y001123D02*
X039291Y001175D01*
X039212Y001216D01*
X039127Y001243D01*
X039043Y001256D01*
X039043Y000741D01*
X039559Y000741D01*
X039545Y000825D01*
X039518Y000910D01*
X039477Y000989D01*
X039425Y001061D01*
X039363Y001123D01*
X039485Y000974D02*
X041278Y000974D01*
X041343Y000816D02*
X039547Y000816D01*
X039043Y000816D02*
X038947Y000816D01*
X038947Y000741D02*
X038947Y001256D01*
X038863Y001243D01*
X038779Y001216D01*
X038700Y001175D01*
X038628Y001123D01*
X038565Y001061D01*
X038513Y000989D01*
X038473Y000910D01*
X038445Y000825D01*
X038432Y000741D01*
X038947Y000741D01*
X038947Y000657D02*
X036513Y000657D01*
X036647Y000816D02*
X038444Y000816D01*
X038506Y000974D02*
X036713Y000974D01*
X036735Y001133D02*
X038641Y001133D01*
X038947Y001133D02*
X039043Y001133D01*
X039043Y000974D02*
X038947Y000974D01*
X039043Y000657D02*
X041477Y000657D01*
X042419Y000657D02*
X044233Y000657D01*
X044099Y000816D02*
X042553Y000816D01*
X042618Y000974D02*
X044034Y000974D01*
X044011Y001133D02*
X042641Y001133D01*
X042641Y001291D02*
X044011Y001291D01*
X044072Y001450D02*
X042580Y001450D01*
X042485Y001608D02*
X044167Y001608D01*
X044346Y001767D02*
X042306Y001767D01*
X041590Y001767D02*
X036401Y001767D01*
X035684Y001767D02*
X033645Y001767D01*
X033823Y001608D02*
X035506Y001608D01*
X035411Y001450D02*
X033919Y001450D01*
X033979Y001291D02*
X035350Y001291D01*
X035350Y001133D02*
X033979Y001133D01*
X033957Y000974D02*
X035372Y000974D01*
X035438Y000816D02*
X033891Y000816D01*
X033757Y000657D02*
X035572Y000657D01*
X032816Y000657D02*
X030382Y000657D01*
X030286Y000657D02*
X027852Y000657D01*
X027986Y000816D02*
X029782Y000816D01*
X029784Y000825D02*
X029771Y000741D01*
X030286Y000741D01*
X030286Y001256D01*
X030202Y001243D01*
X030117Y001216D01*
X030038Y001175D01*
X029966Y001123D01*
X029904Y001061D01*
X029852Y000989D01*
X029811Y000910D01*
X029784Y000825D01*
X029844Y000974D02*
X028051Y000974D01*
X028074Y001133D02*
X029979Y001133D01*
X030286Y001133D02*
X030382Y001133D01*
X030382Y000974D02*
X030286Y000974D01*
X030286Y000816D02*
X030382Y000816D01*
X030824Y000974D02*
X032616Y000974D01*
X032594Y001133D02*
X030688Y001133D01*
X030885Y000816D02*
X032682Y000816D01*
X032594Y001291D02*
X028074Y001291D01*
X028013Y001450D02*
X032655Y001450D01*
X032750Y001608D02*
X027918Y001608D01*
X027740Y001767D02*
X032928Y001767D01*
X031384Y002560D02*
X031345Y002560D01*
X030715Y002560D02*
X029953Y002560D01*
X030109Y002718D02*
X030558Y002718D01*
X030493Y002877D02*
X030175Y002877D01*
X030192Y003035D02*
X030476Y003035D01*
X030866Y003561D02*
X030888Y003614D01*
X030888Y003835D01*
X030855Y003916D01*
X030905Y003900D01*
X030988Y003886D01*
X030992Y003886D01*
X030992Y004382D01*
X031068Y004382D01*
X031068Y003886D01*
X031072Y003886D01*
X031155Y003900D01*
X031235Y003926D01*
X031310Y003964D01*
X031378Y004013D01*
X031437Y004073D01*
X031487Y004141D01*
X031525Y004216D01*
X031549Y004289D01*
X031549Y003874D01*
X031223Y003549D01*
X031140Y003583D01*
X030920Y003583D01*
X030866Y003561D01*
X030888Y003669D02*
X031344Y003669D01*
X031503Y003828D02*
X030888Y003828D01*
X030992Y003986D02*
X031068Y003986D01*
X031068Y004145D02*
X030992Y004145D01*
X030992Y004304D02*
X031068Y004304D01*
X031068Y004462D02*
X030992Y004462D01*
X030992Y004621D02*
X031068Y004621D01*
X031068Y004779D02*
X030992Y004779D01*
X030992Y004938D02*
X031068Y004938D01*
X031168Y004938D02*
X031368Y004938D01*
X031427Y004779D02*
X031526Y004779D01*
X031527Y004621D02*
X031549Y004621D01*
X030892Y004938D02*
X030694Y004938D01*
X030645Y005096D02*
X031209Y005096D01*
X031051Y005255D02*
X030494Y005255D01*
X030335Y005413D02*
X030892Y005413D01*
X031593Y005730D02*
X064039Y005730D01*
X063884Y005889D02*
X031481Y005889D01*
X031571Y006048D02*
X033821Y006048D01*
X033821Y006206D02*
X032183Y006206D01*
X032281Y006365D02*
X033821Y006365D01*
X033821Y006523D02*
X032297Y006523D01*
X032245Y006682D02*
X033821Y006682D01*
X033821Y006840D02*
X032055Y006840D01*
X031571Y006999D02*
X033821Y006999D01*
X033821Y007157D02*
X031571Y007157D01*
X029796Y007633D02*
X029239Y007633D01*
X029398Y007791D02*
X029955Y007791D01*
X030073Y007950D02*
X029556Y007950D01*
X032465Y007950D02*
X032927Y007950D01*
X032803Y008109D02*
X032589Y008109D01*
X032655Y008267D02*
X032737Y008267D01*
X032720Y008426D02*
X032672Y008426D01*
X032672Y008584D02*
X032720Y008584D01*
X032784Y008743D02*
X032609Y008743D01*
X032512Y008901D02*
X032880Y008901D01*
X033058Y009060D02*
X032334Y009060D01*
X033853Y009730D02*
X033877Y009689D01*
X033910Y009655D01*
X033951Y009631D01*
X033997Y009619D01*
X034226Y009619D01*
X034226Y010254D01*
X033841Y010254D01*
X033841Y009775D01*
X033853Y009730D01*
X033874Y009694D02*
X031549Y009694D01*
X031571Y009853D02*
X033841Y009853D01*
X033841Y010011D02*
X031571Y010011D01*
X032210Y010170D02*
X033841Y010170D01*
X033841Y010487D02*
X032297Y010487D01*
X032292Y010328D02*
X034226Y010328D01*
X034316Y010328D02*
X035002Y010328D01*
X035002Y010170D02*
X034701Y010170D01*
X034701Y010254D02*
X034316Y010254D01*
X034316Y009619D01*
X034545Y009619D01*
X034590Y009631D01*
X034631Y009655D01*
X034665Y009689D01*
X034689Y009730D01*
X034701Y009775D01*
X034701Y010254D01*
X034701Y010487D02*
X035002Y010487D01*
X035002Y010645D02*
X034701Y010645D01*
X034701Y010804D02*
X035002Y010804D01*
X035902Y010804D02*
X036183Y010804D01*
X036183Y010645D02*
X035902Y010645D01*
X035902Y010487D02*
X036183Y010487D01*
X036183Y010328D02*
X035902Y010328D01*
X035902Y010170D02*
X036183Y010170D01*
X036183Y010011D02*
X035902Y010011D01*
X035902Y009853D02*
X036183Y009853D01*
X036205Y009694D02*
X035880Y009694D01*
X035092Y009535D02*
X030300Y009535D01*
X030302Y009377D02*
X035090Y009377D01*
X035024Y009694D02*
X034668Y009694D01*
X034701Y009853D02*
X035002Y009853D01*
X035002Y010011D02*
X034701Y010011D01*
X034316Y010011D02*
X034226Y010011D01*
X034226Y009853D02*
X034316Y009853D01*
X034316Y009694D02*
X034226Y009694D01*
X034226Y010170D02*
X034316Y010170D01*
X033841Y010645D02*
X032230Y010645D01*
X031990Y010804D02*
X033841Y010804D01*
X031827Y010804D02*
X031571Y010804D01*
X030671Y010804D02*
X030390Y010804D01*
X030390Y010645D02*
X030671Y010645D01*
X030671Y010487D02*
X030390Y010487D01*
X030390Y010328D02*
X030671Y010328D01*
X030671Y010170D02*
X030390Y010170D01*
X030390Y010011D02*
X030671Y010011D01*
X030671Y009853D02*
X030390Y009853D01*
X030368Y009694D02*
X030694Y009694D01*
X029580Y009535D02*
X026791Y009535D01*
X026791Y009377D02*
X029578Y009377D01*
X028714Y009619D02*
X028714Y010254D01*
X028329Y010254D01*
X028329Y009775D01*
X028341Y009730D01*
X028365Y009689D01*
X028399Y009655D01*
X028440Y009631D01*
X028485Y009619D01*
X028714Y009619D01*
X028714Y009694D02*
X028804Y009694D01*
X028804Y009853D02*
X028714Y009853D01*
X028714Y010011D02*
X028804Y010011D01*
X028804Y010170D02*
X028714Y010170D01*
X028714Y010328D02*
X026791Y010328D01*
X026791Y010170D02*
X028329Y010170D01*
X028329Y010011D02*
X026791Y010011D01*
X026791Y009853D02*
X028329Y009853D01*
X028362Y009694D02*
X026791Y009694D01*
X026791Y010487D02*
X028329Y010487D01*
X028329Y010645D02*
X026791Y010645D01*
X027043Y010804D02*
X028329Y010804D01*
X029189Y010804D02*
X029490Y010804D01*
X029490Y010645D02*
X029189Y010645D01*
X029189Y010487D02*
X029490Y010487D01*
X029490Y010328D02*
X028804Y010328D01*
X029189Y010170D02*
X029490Y010170D01*
X029490Y010011D02*
X029189Y010011D01*
X029189Y009853D02*
X029490Y009853D01*
X029512Y009694D02*
X029156Y009694D01*
X031752Y005572D02*
X064198Y005572D01*
X064357Y005413D02*
X031910Y005413D01*
X032069Y005255D02*
X064515Y005255D01*
X064674Y005096D02*
X064776Y004994D01*
X064908Y004940D01*
X065543Y004940D01*
X065470Y004916D01*
X065395Y004878D01*
X065327Y004828D01*
X065268Y004769D01*
X065219Y004701D01*
X065180Y004626D01*
X065154Y004546D01*
X065141Y004463D01*
X065141Y004459D01*
X065637Y004459D01*
X065637Y004383D01*
X065141Y004383D01*
X065141Y004379D01*
X065154Y004296D01*
X065171Y004246D01*
X065090Y004279D01*
X064869Y004279D01*
X064816Y004257D01*
X064838Y004310D01*
X064838Y004531D01*
X064753Y004735D01*
X064598Y004891D01*
X064394Y004975D01*
X064173Y004975D01*
X063970Y004891D01*
X063814Y004735D01*
X063729Y004531D01*
X063729Y004310D01*
X063814Y004107D01*
X063970Y003951D01*
X064173Y003866D01*
X064394Y003866D01*
X064447Y003889D01*
X064425Y003835D01*
X064425Y003614D01*
X064447Y003561D01*
X064394Y003583D01*
X064173Y003583D01*
X063970Y003499D01*
X063814Y003343D01*
X063729Y003139D01*
X063729Y002918D01*
X063814Y002715D01*
X063970Y002559D01*
X064088Y002510D01*
X063554Y002510D01*
X063215Y002849D01*
X063083Y002904D01*
X062939Y002904D01*
X057648Y002904D01*
X057568Y002984D01*
X057568Y003139D01*
X057484Y003343D01*
X057328Y003499D01*
X057124Y003583D01*
X056904Y003583D01*
X056850Y003561D01*
X056872Y003614D01*
X056872Y003835D01*
X056839Y003916D01*
X056889Y003900D01*
X056972Y003886D01*
X056976Y003886D01*
X056976Y004382D01*
X057052Y004382D01*
X057052Y003886D01*
X057056Y003886D01*
X057139Y003900D01*
X057219Y003926D01*
X057294Y003964D01*
X057362Y004013D01*
X057422Y004073D01*
X057471Y004141D01*
X057509Y004216D01*
X057535Y004296D01*
X057548Y004379D01*
X057548Y004383D01*
X057052Y004383D01*
X057052Y004459D01*
X056976Y004459D01*
X056976Y004955D01*
X056972Y004955D01*
X056889Y004942D01*
X056809Y004916D01*
X056734Y004878D01*
X056666Y004828D01*
X056607Y004769D01*
X056557Y004701D01*
X056519Y004626D01*
X056493Y004546D01*
X056480Y004463D01*
X056480Y004459D01*
X056976Y004459D01*
X056976Y004383D01*
X056480Y004383D01*
X056480Y004379D01*
X056493Y004296D01*
X056509Y004246D01*
X056428Y004279D01*
X056208Y004279D01*
X056154Y004257D01*
X056176Y004310D01*
X056176Y004531D01*
X056092Y004735D01*
X055936Y004891D01*
X055732Y004975D01*
X055512Y004975D01*
X055308Y004891D01*
X055152Y004735D01*
X055068Y004531D01*
X055068Y004310D01*
X055152Y004107D01*
X055308Y003951D01*
X055512Y003866D01*
X055732Y003866D01*
X055786Y003889D01*
X055764Y003835D01*
X055764Y003614D01*
X055786Y003561D01*
X055732Y003583D01*
X055512Y003583D01*
X055308Y003499D01*
X055152Y003343D01*
X055068Y003139D01*
X055068Y002918D01*
X055152Y002715D01*
X055308Y002559D01*
X055426Y002510D01*
X054892Y002510D01*
X054655Y002748D01*
X054554Y002849D01*
X054421Y002904D01*
X049381Y002904D01*
X048950Y003334D01*
X048818Y003389D01*
X048777Y003389D01*
X048667Y003499D01*
X048463Y003583D01*
X048242Y003583D01*
X048189Y003561D01*
X048211Y003614D01*
X048211Y003835D01*
X048177Y003916D01*
X048228Y003900D01*
X048311Y003886D01*
X048314Y003886D01*
X048314Y004382D01*
X048314Y004383D02*
X047818Y004383D01*
X047818Y004379D01*
X047831Y004296D01*
X047848Y004246D01*
X047767Y004279D01*
X047546Y004279D01*
X047493Y004257D01*
X047515Y004310D01*
X047515Y004531D01*
X047431Y004735D01*
X047275Y004891D01*
X047071Y004975D01*
X046850Y004975D01*
X046647Y004891D01*
X046491Y004735D01*
X046406Y004531D01*
X046406Y004310D01*
X046491Y004107D01*
X046647Y003951D01*
X046850Y003866D01*
X047071Y003866D01*
X047125Y003889D01*
X047102Y003835D01*
X047102Y003614D01*
X047125Y003561D01*
X047071Y003583D01*
X046850Y003583D01*
X046647Y003499D01*
X046491Y003343D01*
X046406Y003139D01*
X046406Y002918D01*
X046491Y002715D01*
X046647Y002559D01*
X046765Y002510D01*
X046231Y002510D01*
X045993Y002748D01*
X045892Y002849D01*
X045760Y002904D01*
X040719Y002904D01*
X040390Y003233D01*
X040289Y003334D01*
X040157Y003389D01*
X040115Y003389D01*
X040005Y003499D01*
X039801Y003583D01*
X039581Y003583D01*
X039527Y003561D01*
X039550Y003614D01*
X039550Y003835D01*
X039516Y003916D01*
X039566Y003900D01*
X039649Y003886D01*
X039653Y003886D01*
X039653Y004382D01*
X039729Y004382D01*
X039729Y003886D01*
X039733Y003886D01*
X039816Y003900D01*
X039896Y003926D01*
X039971Y003964D01*
X040039Y004013D01*
X040099Y004073D01*
X040148Y004141D01*
X040186Y004216D01*
X040212Y004296D01*
X040226Y004379D01*
X040226Y004383D01*
X039730Y004383D01*
X039730Y004459D01*
X040226Y004459D01*
X040226Y004463D01*
X040212Y004546D01*
X040186Y004626D01*
X040148Y004701D01*
X040099Y004769D01*
X040088Y004779D02*
X046535Y004779D01*
X046444Y004621D02*
X040188Y004621D01*
X040226Y004462D02*
X041687Y004462D01*
X041793Y004506D02*
X041506Y004387D01*
X041286Y004167D01*
X041167Y003880D01*
X041167Y003569D01*
X041286Y003282D01*
X041506Y003062D01*
X041793Y002944D01*
X042103Y002944D01*
X042391Y003062D01*
X042610Y003282D01*
X042729Y003569D01*
X042729Y003880D01*
X042610Y004167D01*
X042391Y004387D01*
X042103Y004506D01*
X041793Y004506D01*
X042209Y004462D02*
X044443Y004462D01*
X044549Y004506D02*
X044261Y004387D01*
X044042Y004167D01*
X043923Y003880D01*
X043923Y003569D01*
X044042Y003282D01*
X044261Y003062D01*
X044549Y002944D01*
X044859Y002944D01*
X045146Y003062D01*
X045366Y003282D01*
X045485Y003569D01*
X045485Y003880D01*
X045366Y004167D01*
X045146Y004387D01*
X044859Y004506D01*
X044549Y004506D01*
X044965Y004462D02*
X046406Y004462D01*
X046409Y004304D02*
X045230Y004304D01*
X045375Y004145D02*
X046475Y004145D01*
X046611Y003986D02*
X045441Y003986D01*
X045485Y003828D02*
X047102Y003828D01*
X047102Y003669D02*
X045485Y003669D01*
X045461Y003511D02*
X046676Y003511D01*
X046500Y003352D02*
X045395Y003352D01*
X045278Y003194D02*
X046429Y003194D01*
X046406Y003035D02*
X045081Y003035D01*
X044327Y003035D02*
X042325Y003035D01*
X042522Y003194D02*
X044130Y003194D01*
X044013Y003352D02*
X042639Y003352D01*
X042705Y003511D02*
X043947Y003511D01*
X043923Y003669D02*
X042729Y003669D01*
X042729Y003828D02*
X043923Y003828D01*
X043967Y003986D02*
X042685Y003986D01*
X042619Y004145D02*
X044033Y004145D01*
X044178Y004304D02*
X042474Y004304D01*
X041422Y004304D02*
X040214Y004304D01*
X040150Y004145D02*
X041277Y004145D01*
X041211Y003986D02*
X040003Y003986D01*
X039729Y003986D02*
X039653Y003986D01*
X039653Y004145D02*
X039729Y004145D01*
X039729Y004304D02*
X039653Y004304D01*
X039653Y004462D02*
X039729Y004462D01*
X039729Y004621D02*
X039653Y004621D01*
X039653Y004779D02*
X039729Y004779D01*
X039729Y004938D02*
X039653Y004938D01*
X039553Y004938D02*
X038500Y004938D01*
X038725Y004779D02*
X039294Y004779D01*
X039194Y004621D02*
X038816Y004621D01*
X038854Y004462D02*
X039157Y004462D01*
X039169Y004304D02*
X038851Y004304D01*
X039550Y003828D02*
X041167Y003828D01*
X041167Y003669D02*
X039550Y003669D01*
X039976Y003511D02*
X041191Y003511D01*
X041257Y003352D02*
X040244Y003352D01*
X040390Y003233D02*
X040390Y003233D01*
X040429Y003194D02*
X041374Y003194D01*
X041571Y003035D02*
X040588Y003035D01*
X040045Y002560D02*
X040006Y002560D01*
X040204Y002401D02*
X039573Y002401D01*
X039414Y002242D02*
X040362Y002242D01*
X039256Y002084D02*
X045639Y002084D01*
X045797Y001925D02*
X039097Y001925D01*
X045062Y001767D02*
X050251Y001767D01*
X050073Y001608D02*
X045241Y001608D01*
X045336Y001450D02*
X049977Y001450D01*
X049917Y001291D02*
X045396Y001291D01*
X045396Y001133D02*
X047302Y001133D01*
X047289Y001123D02*
X047227Y001061D01*
X047174Y000989D01*
X047134Y000910D01*
X047107Y000825D01*
X047093Y000741D01*
X047608Y000741D01*
X047609Y000741D02*
X047609Y001256D01*
X047525Y001243D01*
X047440Y001216D01*
X047361Y001175D01*
X047289Y001123D01*
X047167Y000974D02*
X045374Y000974D01*
X045309Y000816D02*
X047105Y000816D01*
X047609Y000816D02*
X047705Y000816D01*
X047705Y000974D02*
X047609Y000974D01*
X047609Y001133D02*
X047705Y001133D01*
X048011Y001133D02*
X049917Y001133D01*
X049939Y000974D02*
X048146Y000974D01*
X048208Y000816D02*
X050005Y000816D01*
X050139Y000657D02*
X047705Y000657D01*
X047608Y000657D02*
X045175Y000657D01*
X047941Y001925D02*
X054459Y001925D01*
X054300Y002084D02*
X048100Y002084D01*
X048258Y002242D02*
X049024Y002242D01*
X048865Y002401D02*
X048417Y002401D01*
X048667Y002560D02*
X048706Y002560D01*
X049249Y003035D02*
X050233Y003035D01*
X050167Y003062D02*
X050454Y002944D01*
X050765Y002944D01*
X051052Y003062D01*
X051272Y003282D01*
X051391Y003569D01*
X051391Y003880D01*
X051272Y004167D01*
X051052Y004387D01*
X050765Y004506D01*
X050454Y004506D01*
X050167Y004387D01*
X049947Y004167D01*
X049828Y003880D01*
X049828Y003569D01*
X049947Y003282D01*
X050167Y003062D01*
X050036Y003194D02*
X049090Y003194D01*
X048906Y003352D02*
X049918Y003352D01*
X049852Y003511D02*
X048637Y003511D01*
X048211Y003669D02*
X049828Y003669D01*
X049828Y003828D02*
X048211Y003828D01*
X048391Y003886D02*
X048395Y003886D01*
X048478Y003900D01*
X048558Y003926D01*
X048633Y003964D01*
X048701Y004013D01*
X048760Y004073D01*
X048810Y004141D01*
X048848Y004216D01*
X048874Y004296D01*
X048887Y004379D01*
X048887Y004383D01*
X048391Y004383D01*
X048391Y004459D01*
X048314Y004459D01*
X048314Y004383D01*
X048314Y004382D02*
X048391Y004382D01*
X048391Y003886D01*
X048391Y003986D02*
X048314Y003986D01*
X048314Y004145D02*
X048391Y004145D01*
X048391Y004304D02*
X048314Y004304D01*
X048314Y004459D02*
X047818Y004459D01*
X047818Y004463D01*
X047831Y004546D01*
X047857Y004626D01*
X047896Y004701D01*
X047945Y004769D01*
X048005Y004828D01*
X048073Y004878D01*
X048148Y004916D01*
X048228Y004942D01*
X048311Y004955D01*
X048314Y004955D01*
X048314Y004459D01*
X048314Y004462D02*
X048391Y004462D01*
X048391Y004459D02*
X048391Y004955D01*
X048395Y004955D01*
X048478Y004942D01*
X048558Y004916D01*
X048633Y004878D01*
X048701Y004828D01*
X048760Y004769D01*
X048810Y004701D01*
X048848Y004626D01*
X048874Y004546D01*
X048887Y004463D01*
X048887Y004459D01*
X048391Y004459D01*
X048391Y004621D02*
X048314Y004621D01*
X048314Y004779D02*
X048391Y004779D01*
X048391Y004938D02*
X048314Y004938D01*
X048215Y004938D02*
X047161Y004938D01*
X047386Y004779D02*
X047956Y004779D01*
X047856Y004621D02*
X047478Y004621D01*
X047515Y004462D02*
X047818Y004462D01*
X047830Y004304D02*
X047512Y004304D01*
X046760Y004938D02*
X039829Y004938D01*
X045825Y002877D02*
X046424Y002877D01*
X046489Y002718D02*
X046023Y002718D01*
X046181Y002560D02*
X046646Y002560D01*
X048664Y003986D02*
X049872Y003986D01*
X049938Y004145D02*
X048812Y004145D01*
X048875Y004304D02*
X050084Y004304D01*
X050348Y004462D02*
X048887Y004462D01*
X048850Y004621D02*
X055105Y004621D01*
X055068Y004462D02*
X053626Y004462D01*
X053521Y004506D02*
X053210Y004506D01*
X052923Y004387D01*
X052703Y004167D01*
X052584Y003880D01*
X052584Y003569D01*
X052703Y003282D01*
X052923Y003062D01*
X053210Y002944D01*
X053521Y002944D01*
X053808Y003062D01*
X054028Y003282D01*
X054146Y003569D01*
X054146Y003880D01*
X054028Y004167D01*
X053808Y004387D01*
X053521Y004506D01*
X053104Y004462D02*
X050871Y004462D01*
X051135Y004304D02*
X052839Y004304D01*
X052694Y004145D02*
X051281Y004145D01*
X051347Y003986D02*
X052628Y003986D01*
X052584Y003828D02*
X051391Y003828D01*
X051391Y003669D02*
X052584Y003669D01*
X052608Y003511D02*
X051366Y003511D01*
X051301Y003352D02*
X052674Y003352D01*
X052792Y003194D02*
X051183Y003194D01*
X050986Y003035D02*
X052989Y003035D01*
X053742Y003035D02*
X055068Y003035D01*
X055085Y002877D02*
X054486Y002877D01*
X054684Y002718D02*
X055151Y002718D01*
X055307Y002560D02*
X054843Y002560D01*
X055091Y003194D02*
X053939Y003194D01*
X054057Y003352D02*
X055162Y003352D01*
X055338Y003511D02*
X054122Y003511D01*
X054146Y003669D02*
X055764Y003669D01*
X055764Y003828D02*
X054146Y003828D01*
X054102Y003986D02*
X055272Y003986D01*
X055136Y004145D02*
X054037Y004145D01*
X053891Y004304D02*
X055071Y004304D01*
X056174Y004304D02*
X056492Y004304D01*
X056480Y004462D02*
X056176Y004462D01*
X056139Y004621D02*
X056517Y004621D01*
X056617Y004779D02*
X056048Y004779D01*
X055822Y004938D02*
X056876Y004938D01*
X056976Y004938D02*
X057052Y004938D01*
X057052Y004955D02*
X057052Y004459D01*
X057548Y004459D01*
X057548Y004463D01*
X057535Y004546D01*
X057509Y004626D01*
X057471Y004701D01*
X057422Y004769D01*
X057362Y004828D01*
X057294Y004878D01*
X057219Y004916D01*
X057139Y004942D01*
X057056Y004955D01*
X057052Y004955D01*
X057152Y004938D02*
X064083Y004938D01*
X063858Y004779D02*
X057411Y004779D01*
X057511Y004621D02*
X063766Y004621D01*
X063729Y004462D02*
X062288Y004462D01*
X062182Y004506D02*
X061871Y004506D01*
X061584Y004387D01*
X061365Y004167D01*
X061246Y003880D01*
X061246Y003569D01*
X061365Y003282D01*
X061584Y003062D01*
X061871Y002944D01*
X062182Y002944D01*
X062469Y003062D01*
X062689Y003282D01*
X062808Y003569D01*
X062808Y003880D01*
X062689Y004167D01*
X062469Y004387D01*
X062182Y004506D01*
X061766Y004462D02*
X059532Y004462D01*
X059426Y004506D02*
X059115Y004506D01*
X058828Y004387D01*
X058609Y004167D01*
X058490Y003880D01*
X058490Y003569D01*
X058609Y003282D01*
X058828Y003062D01*
X059115Y002944D01*
X059426Y002944D01*
X059713Y003062D01*
X059933Y003282D01*
X060052Y003569D01*
X060052Y003880D01*
X059933Y004167D01*
X059713Y004387D01*
X059426Y004506D01*
X059010Y004462D02*
X057548Y004462D01*
X057536Y004304D02*
X058745Y004304D01*
X058599Y004145D02*
X057473Y004145D01*
X057325Y003986D02*
X058534Y003986D01*
X058490Y003828D02*
X056872Y003828D01*
X056872Y003669D02*
X058490Y003669D01*
X058514Y003511D02*
X057299Y003511D01*
X057474Y003352D02*
X058580Y003352D01*
X058697Y003194D02*
X057546Y003194D01*
X057568Y003035D02*
X058894Y003035D01*
X059647Y003035D02*
X061650Y003035D01*
X061453Y003194D02*
X059845Y003194D01*
X059962Y003352D02*
X061335Y003352D01*
X061270Y003511D02*
X060028Y003511D01*
X060052Y003669D02*
X061246Y003669D01*
X061246Y003828D02*
X060052Y003828D01*
X060008Y003986D02*
X061290Y003986D01*
X061355Y004145D02*
X059942Y004145D01*
X059797Y004304D02*
X061501Y004304D01*
X062553Y004304D02*
X063732Y004304D01*
X063798Y004145D02*
X062698Y004145D01*
X062764Y003986D02*
X063934Y003986D01*
X064425Y003828D02*
X062808Y003828D01*
X062808Y003669D02*
X064425Y003669D01*
X063999Y003511D02*
X062784Y003511D01*
X062718Y003352D02*
X063823Y003352D01*
X063752Y003194D02*
X062601Y003194D01*
X062403Y003035D02*
X063729Y003035D01*
X063746Y002877D02*
X063148Y002877D01*
X063346Y002718D02*
X063812Y002718D01*
X063969Y002560D02*
X063504Y002560D01*
X062962Y002084D02*
X056578Y002084D01*
X056420Y001925D02*
X063120Y001925D01*
X062564Y001608D02*
X067395Y001608D01*
X067300Y001450D02*
X062659Y001450D01*
X062719Y001291D02*
X067240Y001291D01*
X067240Y001133D02*
X065334Y001133D01*
X065469Y000974D02*
X067262Y000974D01*
X067328Y000816D02*
X065531Y000816D01*
X065027Y000816D02*
X064931Y000816D01*
X064931Y000741D02*
X064931Y001256D01*
X064847Y001243D01*
X064763Y001216D01*
X064684Y001175D01*
X064612Y001123D01*
X064549Y001061D01*
X064497Y000989D01*
X064457Y000910D01*
X064430Y000825D01*
X064416Y000741D01*
X064931Y000741D01*
X064931Y000657D02*
X062498Y000657D01*
X062631Y000816D02*
X064428Y000816D01*
X064490Y000974D02*
X062697Y000974D01*
X062719Y001133D02*
X064625Y001133D01*
X064931Y001133D02*
X065027Y001133D01*
X065027Y000974D02*
X064931Y000974D01*
X065028Y000657D02*
X067461Y000657D01*
X068403Y000657D02*
X070217Y000657D01*
X070084Y000816D02*
X068537Y000816D01*
X068603Y000974D02*
X070018Y000974D01*
X069996Y001133D02*
X068625Y001133D01*
X068625Y001291D02*
X069996Y001291D01*
X070056Y001450D02*
X068564Y001450D01*
X068469Y001608D02*
X070151Y001608D01*
X070330Y001767D02*
X068291Y001767D01*
X067574Y001767D02*
X062385Y001767D01*
X061668Y001767D02*
X059629Y001767D01*
X059808Y001608D02*
X061490Y001608D01*
X061395Y001450D02*
X059903Y001450D01*
X059963Y001291D02*
X061334Y001291D01*
X061334Y001133D02*
X059963Y001133D01*
X059941Y000974D02*
X061356Y000974D01*
X061422Y000816D02*
X059875Y000816D01*
X059742Y000657D02*
X061556Y000657D01*
X058800Y000657D02*
X056366Y000657D01*
X056270Y000657D02*
X053836Y000657D01*
X053970Y000816D02*
X055767Y000816D01*
X055768Y000825D02*
X055755Y000741D01*
X056270Y000741D01*
X056270Y001256D01*
X056186Y001243D01*
X056102Y001216D01*
X056023Y001175D01*
X055951Y001123D01*
X055888Y001061D01*
X055836Y000989D01*
X055796Y000910D01*
X055768Y000825D01*
X055828Y000974D02*
X054036Y000974D01*
X054058Y001133D02*
X055964Y001133D01*
X056270Y001133D02*
X056366Y001133D01*
X056366Y000974D02*
X056270Y000974D01*
X056270Y000816D02*
X056366Y000816D01*
X056808Y000974D02*
X058601Y000974D01*
X058578Y001133D02*
X056672Y001133D01*
X056870Y000816D02*
X058666Y000816D01*
X058578Y001291D02*
X054058Y001291D01*
X053997Y001450D02*
X058639Y001450D01*
X058734Y001608D02*
X053902Y001608D01*
X053724Y001767D02*
X058912Y001767D01*
X057291Y002242D02*
X056737Y002242D01*
X056895Y002401D02*
X057133Y002401D01*
X057052Y003986D02*
X056976Y003986D01*
X056976Y004145D02*
X057052Y004145D01*
X057052Y004304D02*
X056976Y004304D01*
X056976Y004462D02*
X057052Y004462D01*
X057052Y004621D02*
X056976Y004621D01*
X056976Y004779D02*
X057052Y004779D01*
X055422Y004938D02*
X048491Y004938D01*
X048750Y004779D02*
X055197Y004779D01*
X055868Y006048D02*
X053618Y006048D01*
X053618Y006016D02*
X053501Y005899D01*
X052836Y005899D01*
X052719Y006016D01*
X052719Y007182D01*
X052836Y007299D01*
X053501Y007299D01*
X053618Y007182D01*
X053618Y006841D01*
X053811Y006841D01*
X053879Y006869D01*
X054033Y006869D01*
X054176Y006810D01*
X054285Y006700D01*
X054344Y006558D01*
X054344Y006403D01*
X054285Y006261D01*
X054176Y006152D01*
X054033Y006093D01*
X053879Y006093D01*
X053811Y006121D01*
X053618Y006121D01*
X053618Y006016D01*
X054230Y006206D02*
X055868Y006206D01*
X055868Y006365D02*
X054328Y006365D01*
X054344Y006523D02*
X055868Y006523D01*
X055868Y006682D02*
X054293Y006682D01*
X054102Y006840D02*
X055868Y006840D01*
X055868Y006999D02*
X053618Y006999D01*
X053618Y007157D02*
X055868Y007157D01*
X054975Y007950D02*
X054512Y007950D01*
X054636Y008109D02*
X054850Y008109D01*
X054785Y008267D02*
X054702Y008267D01*
X054719Y008426D02*
X054767Y008426D01*
X054767Y008584D02*
X054719Y008584D01*
X054656Y008743D02*
X054831Y008743D01*
X054928Y008901D02*
X054559Y008901D01*
X054381Y009060D02*
X055105Y009060D01*
X059893Y009060D02*
X060617Y009060D01*
X060439Y008901D02*
X060071Y008901D01*
X060168Y008743D02*
X060343Y008743D01*
X060279Y008584D02*
X060231Y008584D01*
X060231Y008426D02*
X060279Y008426D01*
X060296Y008267D02*
X060214Y008267D01*
X060148Y008109D02*
X060362Y008109D01*
X060486Y007950D02*
X060024Y007950D01*
X059130Y007157D02*
X061380Y007157D01*
X061380Y006999D02*
X059130Y006999D01*
X059614Y006840D02*
X061380Y006840D01*
X061380Y006682D02*
X059804Y006682D01*
X059856Y006523D02*
X061380Y006523D01*
X061380Y006365D02*
X059840Y006365D01*
X059742Y006206D02*
X061380Y006206D01*
X061380Y006048D02*
X059130Y006048D01*
X064484Y004938D02*
X065538Y004938D01*
X065813Y004938D02*
X072745Y004938D01*
X072519Y004779D02*
X066073Y004779D01*
X066172Y004621D02*
X072428Y004621D01*
X072391Y004462D02*
X070949Y004462D01*
X070844Y004506D02*
X070533Y004506D01*
X070246Y004387D01*
X070026Y004167D01*
X069907Y003880D01*
X069907Y003569D01*
X070026Y003282D01*
X070246Y003062D01*
X070533Y002944D01*
X070844Y002944D01*
X071131Y003062D01*
X071350Y003282D01*
X071469Y003569D01*
X071469Y003880D01*
X071350Y004167D01*
X071131Y004387D01*
X070844Y004506D01*
X070427Y004462D02*
X068193Y004462D01*
X068088Y004506D02*
X067777Y004506D01*
X067490Y004387D01*
X067270Y004167D01*
X067151Y003880D01*
X067151Y003569D01*
X067270Y003282D01*
X067490Y003062D01*
X067777Y002944D01*
X068088Y002944D01*
X068375Y003062D01*
X068594Y003282D01*
X068713Y003569D01*
X068713Y003880D01*
X068594Y004167D01*
X068375Y004387D01*
X068088Y004506D01*
X067671Y004462D02*
X066210Y004462D01*
X066198Y004304D02*
X067406Y004304D01*
X067261Y004145D02*
X066135Y004145D01*
X065987Y003986D02*
X067195Y003986D01*
X067151Y003828D02*
X065534Y003828D01*
X065534Y003669D02*
X067151Y003669D01*
X067175Y003511D02*
X065960Y003511D01*
X066136Y003352D02*
X067241Y003352D01*
X067359Y003194D02*
X066207Y003194D01*
X066230Y003035D02*
X067556Y003035D01*
X068309Y003035D02*
X070311Y003035D01*
X070114Y003194D02*
X068506Y003194D01*
X068624Y003352D02*
X069997Y003352D01*
X069931Y003511D02*
X068689Y003511D01*
X068713Y003669D02*
X069907Y003669D01*
X069907Y003828D02*
X068713Y003828D01*
X068669Y003986D02*
X069951Y003986D01*
X070017Y004145D02*
X068604Y004145D01*
X068458Y004304D02*
X070162Y004304D01*
X071214Y004304D02*
X072393Y004304D01*
X072459Y004145D02*
X071360Y004145D01*
X071425Y003986D02*
X072595Y003986D01*
X073087Y003828D02*
X071469Y003828D01*
X071469Y003669D02*
X073087Y003669D01*
X072660Y003511D02*
X071445Y003511D01*
X071379Y003352D02*
X072485Y003352D01*
X072413Y003194D02*
X071262Y003194D01*
X071065Y003035D02*
X072391Y003035D01*
X072408Y002877D02*
X066212Y002877D01*
X066147Y002718D02*
X072474Y002718D01*
X072630Y002560D02*
X065990Y002560D01*
X065740Y002401D02*
X077184Y002401D01*
X077184Y002242D02*
X065581Y002242D01*
X065423Y002084D02*
X077184Y002084D01*
X077184Y001925D02*
X065264Y001925D01*
X071047Y001767D02*
X076235Y001767D01*
X076057Y001608D02*
X071225Y001608D01*
X071320Y001450D02*
X075962Y001450D01*
X075901Y001291D02*
X071381Y001291D01*
X071381Y001133D02*
X073287Y001133D01*
X073274Y001123D02*
X073211Y001061D01*
X073159Y000989D01*
X073118Y000910D01*
X073091Y000825D01*
X073078Y000741D01*
X073593Y000741D01*
X073593Y001256D01*
X073509Y001243D01*
X073424Y001216D01*
X073345Y001175D01*
X073274Y001123D01*
X073151Y000974D02*
X071358Y000974D01*
X071293Y000816D02*
X073089Y000816D01*
X073593Y000816D02*
X073689Y000816D01*
X073689Y000974D02*
X073593Y000974D01*
X073593Y001133D02*
X073689Y001133D01*
X073995Y001133D02*
X075901Y001133D01*
X075923Y000974D02*
X074131Y000974D01*
X074192Y000816D02*
X075989Y000816D01*
X076123Y000657D02*
X073689Y000657D01*
X073593Y000657D02*
X071159Y000657D01*
X073260Y002560D02*
X074022Y002560D01*
X073866Y002718D02*
X073416Y002718D01*
X073482Y002877D02*
X073800Y002877D01*
X073783Y003035D02*
X073499Y003035D01*
X074652Y002560D02*
X077184Y002560D01*
X077184Y002718D02*
X074808Y002718D01*
X074874Y002877D02*
X077184Y002877D01*
X077184Y003035D02*
X076970Y003035D01*
X077167Y003194D02*
X077184Y003194D01*
X076217Y003035D02*
X074891Y003035D01*
X075011Y003194D02*
X076020Y003194D01*
X075902Y003352D02*
X075170Y003352D01*
X075328Y003511D02*
X075837Y003511D01*
X075813Y003669D02*
X075487Y003669D01*
X075572Y003828D02*
X075813Y003828D01*
X075857Y003986D02*
X075576Y003986D01*
X075576Y004145D02*
X075922Y004145D01*
X076068Y004304D02*
X075576Y004304D01*
X075576Y004462D02*
X076333Y004462D01*
X076855Y004462D02*
X077184Y004462D01*
X077184Y004304D02*
X077120Y004304D01*
X077184Y004621D02*
X075576Y004621D01*
X075576Y004779D02*
X077184Y004779D01*
X077184Y004938D02*
X075576Y004938D01*
X075576Y005096D02*
X077184Y005096D01*
X077184Y005255D02*
X075576Y005255D01*
X075576Y005413D02*
X077184Y005413D01*
X077184Y005572D02*
X075576Y005572D01*
X075576Y005730D02*
X077184Y005730D01*
X074856Y005255D02*
X069381Y005255D01*
X069539Y005413D02*
X069868Y005413D01*
X069710Y005572D02*
X069698Y005572D01*
X069222Y005096D02*
X074856Y005096D01*
X074856Y004938D02*
X074475Y004938D01*
X074375Y004938D02*
X074299Y004938D01*
X074199Y004938D02*
X073145Y004938D01*
X073370Y004779D02*
X073940Y004779D01*
X073840Y004621D02*
X073462Y004621D01*
X073499Y004462D02*
X073803Y004462D01*
X073814Y004304D02*
X073496Y004304D01*
X074162Y003916D02*
X074212Y003900D01*
X074295Y003886D01*
X074299Y003886D01*
X074299Y004382D01*
X074375Y004382D01*
X074375Y003886D01*
X074379Y003886D01*
X074462Y003900D01*
X074542Y003926D01*
X074617Y003964D01*
X074685Y004013D01*
X074744Y004073D01*
X074794Y004141D01*
X074832Y004216D01*
X074856Y004289D01*
X074856Y004057D01*
X074382Y003583D01*
X074227Y003583D01*
X074173Y003561D01*
X074195Y003614D01*
X074195Y003835D01*
X074162Y003916D01*
X074195Y003828D02*
X074627Y003828D01*
X074648Y003986D02*
X074786Y003986D01*
X074796Y004145D02*
X074856Y004145D01*
X074375Y004145D02*
X074299Y004145D01*
X074299Y003986D02*
X074375Y003986D01*
X074375Y004304D02*
X074299Y004304D01*
X074299Y004462D02*
X074375Y004462D01*
X074375Y004621D02*
X074299Y004621D01*
X074299Y004779D02*
X074375Y004779D01*
X074734Y004779D02*
X074856Y004779D01*
X074856Y004621D02*
X074834Y004621D01*
X074469Y003669D02*
X074195Y003669D01*
X076952Y001767D02*
X077184Y001767D01*
X077184Y001608D02*
X077131Y001608D01*
X065714Y003986D02*
X065637Y003986D01*
X065637Y004145D02*
X065714Y004145D01*
X065714Y004304D02*
X065637Y004304D01*
X065153Y004304D02*
X064835Y004304D01*
X064838Y004462D02*
X065141Y004462D01*
X065179Y004621D02*
X064801Y004621D01*
X064709Y004779D02*
X065278Y004779D01*
X064741Y006048D02*
X066892Y006048D01*
X066892Y006206D02*
X064642Y006206D01*
X064642Y006365D02*
X066892Y006365D01*
X066892Y006523D02*
X064642Y006523D01*
X064642Y006682D02*
X066892Y006682D01*
X066892Y006840D02*
X064642Y006840D01*
X064642Y006999D02*
X066892Y006999D01*
X066892Y007157D02*
X064642Y007157D01*
X065536Y007950D02*
X065998Y007950D01*
X065874Y008109D02*
X065660Y008109D01*
X065726Y008267D02*
X065808Y008267D01*
X065791Y008426D02*
X065743Y008426D01*
X065743Y008584D02*
X065791Y008584D01*
X065854Y008743D02*
X065679Y008743D01*
X065583Y008901D02*
X065951Y008901D01*
X066129Y009060D02*
X065405Y009060D01*
X064620Y009694D02*
X066945Y009694D01*
X066912Y009853D02*
X064642Y009853D01*
X064642Y010011D02*
X066912Y010011D01*
X066912Y010170D02*
X065280Y010170D01*
X067297Y010170D02*
X067387Y010170D01*
X067387Y010011D02*
X067297Y010011D01*
X067297Y009853D02*
X067387Y009853D01*
X067387Y009694D02*
X067297Y009694D01*
X067739Y009694D02*
X068095Y009694D01*
X068073Y009853D02*
X067772Y009853D01*
X067772Y010011D02*
X068073Y010011D01*
X070154Y010011D02*
X072424Y010011D01*
X072424Y009853D02*
X070154Y009853D01*
X070132Y009694D02*
X072456Y009694D01*
X072808Y009694D02*
X072899Y009694D01*
X072899Y009619D02*
X073127Y009619D01*
X073173Y009631D01*
X073214Y009655D01*
X073248Y009689D01*
X073271Y009730D01*
X073284Y009775D01*
X073284Y010254D01*
X072899Y010254D01*
X072899Y009619D01*
X072899Y009853D02*
X072808Y009853D01*
X072808Y010011D02*
X072899Y010011D01*
X072899Y010170D02*
X072808Y010170D01*
X072808Y010328D02*
X070874Y010328D01*
X070879Y010487D02*
X072424Y010487D01*
X072424Y010645D02*
X070813Y010645D01*
X070573Y010804D02*
X072424Y010804D01*
X073284Y010804D02*
X073585Y010804D01*
X073585Y010645D02*
X073284Y010645D01*
X073284Y010487D02*
X073585Y010487D01*
X073585Y010328D02*
X072899Y010328D01*
X073284Y010170D02*
X073585Y010170D01*
X073585Y010011D02*
X073284Y010011D01*
X073284Y009853D02*
X073585Y009853D01*
X073607Y009694D02*
X073251Y009694D01*
X072424Y010170D02*
X070792Y010170D01*
X070410Y010804D02*
X070154Y010804D01*
X074485Y010804D02*
X074766Y010804D01*
X074766Y010645D02*
X074485Y010645D01*
X074485Y010487D02*
X074766Y010487D01*
X074766Y010328D02*
X074485Y010328D01*
X074485Y010170D02*
X074766Y010170D01*
X074766Y010011D02*
X074485Y010011D01*
X074485Y009853D02*
X074766Y009853D01*
X074788Y009694D02*
X074462Y009694D01*
X074395Y009535D02*
X077184Y009535D01*
X077184Y009377D02*
X074397Y009377D01*
X075643Y009694D02*
X077184Y009694D01*
X077184Y009853D02*
X075666Y009853D01*
X075666Y010011D02*
X077184Y010011D01*
X077184Y010170D02*
X076304Y010170D01*
X076386Y010328D02*
X077184Y010328D01*
X077184Y010487D02*
X076391Y010487D01*
X076324Y010645D02*
X077067Y010645D01*
X076786Y010804D02*
X076085Y010804D01*
X075921Y010804D02*
X075666Y010804D01*
X052719Y007157D02*
X052437Y007157D01*
X052437Y006999D02*
X052719Y006999D01*
X052719Y006840D02*
X052437Y006840D01*
X052437Y006682D02*
X052719Y006682D01*
X052719Y006523D02*
X052437Y006523D01*
X052437Y006365D02*
X052719Y006365D01*
X052719Y006206D02*
X052437Y006206D01*
X052437Y006048D02*
X052719Y006048D01*
X049463Y007950D02*
X049000Y007950D01*
X049124Y008109D02*
X049338Y008109D01*
X049273Y008267D02*
X049190Y008267D01*
X049208Y008426D02*
X049255Y008426D01*
X049255Y008584D02*
X049208Y008584D01*
X049144Y008743D02*
X049319Y008743D01*
X049416Y008901D02*
X049047Y008901D01*
X048869Y009060D02*
X049594Y009060D01*
X047207Y007157D02*
X046926Y007157D01*
X046926Y006999D02*
X047207Y006999D01*
X047207Y006840D02*
X046926Y006840D01*
X046926Y006682D02*
X047207Y006682D01*
X047207Y006523D02*
X046926Y006523D01*
X046926Y006365D02*
X047207Y006365D01*
X047207Y006206D02*
X046926Y006206D01*
X046926Y006048D02*
X047207Y006048D01*
X043951Y007950D02*
X043488Y007950D01*
X043613Y008109D02*
X043827Y008109D01*
X043761Y008267D02*
X043678Y008267D01*
X043696Y008426D02*
X043744Y008426D01*
X043744Y008584D02*
X043696Y008584D01*
X043632Y008743D02*
X043807Y008743D01*
X043904Y008901D02*
X043535Y008901D01*
X043358Y009060D02*
X044082Y009060D01*
X031549Y004145D02*
X031489Y004145D01*
X031549Y003986D02*
X031341Y003986D01*
X027023Y001767D02*
X026791Y001767D01*
X026791Y001608D02*
X026844Y001608D01*
X050968Y001767D02*
X053007Y001767D01*
X052829Y001608D02*
X051146Y001608D01*
X051241Y001450D02*
X052733Y001450D01*
X052673Y001291D02*
X051302Y001291D01*
X051302Y001133D02*
X052673Y001133D01*
X052695Y000974D02*
X051280Y000974D01*
X051214Y000816D02*
X052761Y000816D01*
X052894Y000657D02*
X051080Y000657D01*
M02*
