%
M48
M72
T01C0.0236
T02C0.0276
T03C0.0472
T04C0.0512
T05C0.0925
T06C0.0949
T07C0.1102
%
T01
X30334Y7662
X31909Y6481
X35452Y7662
X37420Y6481
X40964Y7662
X42932Y6481
X46476Y7662
X48444Y6481
X51987Y7662
X53956Y6481
X57499Y7662
X59468Y6481
X63011Y7662
X63011Y9237
X64980Y10418
X68523Y9237
X70491Y10418
X74035Y9237
X76003Y10418
X74035Y7662
X68523Y7662
X59468Y10418
X57499Y9237
X53956Y10418
X51987Y9237
X48444Y10418
X46476Y9237
X42932Y10418
X40964Y9237
X37420Y10418
X35452Y9237
X31909Y10418
X29940Y9237
T02
X28759Y5300
T03
X29638Y4421
X30334Y3725
X31030Y4421
X31030Y3029
X29638Y3029
X38299Y3029
X39691Y3029
X38995Y3725
X38299Y4421
X39691Y4421
X46961Y4421
X48353Y4421
X47657Y3725
X48353Y3029
X46961Y3029
X55622Y3029
X57014Y3029
X56318Y3725
X55622Y4421
X57014Y4421
X64284Y4421
X64980Y3725
X65676Y4421
X65676Y3029
X64284Y3029
X72945Y3029
X74337Y3029
X73641Y3725
X74337Y4421
X72945Y4421
T04
X73641Y693
X64980Y693
X56318Y693
X47657Y693
X38995Y693
X30334Y693
T05
X27381Y1166
X33287Y1166
X36043Y1166
X41948Y1166
X44704Y1166
X50609Y1166
X53365Y1166
X59271Y1166
X62027Y1166
X67932Y1166
X70688Y1166
X76594Y1166
T06
X76062Y8449
X72007Y8449
X70550Y8449
X66495Y8449
X65039Y8449
X60983Y8449
X59527Y8449
X55472Y8449
X54015Y8449
X49960Y8449
X48503Y8449
X44448Y8449
X42991Y8449
X38936Y8449
X37480Y8449
X33424Y8449
X31968Y8449
X27913Y8449
T07
X27381Y3725
X33287Y3725
X36043Y3725
X41948Y3725
X44704Y3725
X50609Y3725
X53365Y3725
X59271Y3725
X62027Y3725
X67932Y3725
X70688Y3725
X76594Y3725
M30
