%
M48
M72
T01C0.0236
T02C0.0394
T03C0.0472
T04C0.0512
T05C0.0925
T06C0.0949
T07C0.1102
%
T01
X29153Y10387
X33483Y9206
X35452Y10387
X38995Y9206
X40964Y10387
X44507Y9206
X46476Y10387
X50019Y9206
X51987Y10387
X55531Y9206
X57499Y10387
X61043Y9206
X63011Y10387
X66554Y9206
X68523Y10387
X71672Y8813
X72854Y8419
X71279Y6844
X74035Y5269
X72460Y3694
X71672Y2120
X67735Y3877
X63011Y6450
X61043Y7631
X57499Y6450
X55531Y7631
X51987Y6450
X50019Y7631
X46476Y6450
X44507Y7631
X40964Y6450
X38995Y7631
X35452Y6450
X33877Y7631
X29409Y5525
T02
X27184Y4088
T03
X30819Y4390
X32211Y4390
X31515Y3694
X32211Y2999
X30819Y2999
X39480Y2999
X40872Y2999
X40176Y3694
X39480Y4390
X40872Y4390
X48142Y4390
X48838Y3694
X49534Y4390
X49534Y2999
X48142Y2999
X56803Y2999
X58195Y2999
X57499Y3694
X56803Y4390
X58195Y4390
X65465Y4390
X66161Y3694
X66857Y4390
X66857Y2999
X65465Y2999
T04
X66161Y663
X57499Y663
X48838Y663
X40176Y663
X31515Y663
T05
X34468Y1135
X37224Y1135
X43129Y1135
X45885Y1135
X51791Y1135
X54546Y1135
X60452Y1135
X63208Y1135
X69113Y1135
X28562Y1135
T06
X31456Y8419
X35511Y8419
X36968Y8419
X41023Y8419
X42480Y8419
X46535Y8419
X47991Y8419
X52046Y8419
X53503Y8419
X57558Y8419
X59015Y8419
X63070Y8419
X64527Y8419
X68582Y8419
X72066Y10446
X72066Y6391
X70039Y2907
X74094Y2907
T07
X69113Y3694
X63208Y3694
X60452Y3694
X54546Y3694
X51791Y3694
X45885Y3694
X43129Y3694
X37224Y3694
X34468Y3694
X28562Y3694
M30
