%
M48
M72
T01C0.0236
T02C0.0276
T03C0.0472
T04C0.0512
T05C0.0925
T06C0.0949
T07C0.1102
%
T01
X31515Y7662
X33090Y6481
X36633Y7662
X38602Y6481
X42145Y7662
X44113Y6481
X47657Y7662
X49625Y6481
X53169Y7662
X55137Y6481
X58680Y7662
X60649Y6481
X64192Y7662
X64192Y9237
X66161Y10418
X69704Y9237
X71672Y10418
X75216Y9237
X77184Y10418
X75216Y7662
X69704Y7662
X60649Y10418
X58680Y9237
X55137Y10418
X53169Y9237
X49625Y10418
X47657Y9237
X44113Y10418
X42145Y9237
X38602Y10418
X36633Y9237
X33090Y10418
X31121Y9237
T02
X29940Y5300
T03
X30819Y4421
X31515Y3725
X32211Y4421
X32211Y3029
X30819Y3029
X39480Y3029
X40872Y3029
X40176Y3725
X39480Y4421
X40872Y4421
X48142Y4421
X48838Y3725
X49534Y4421
X49534Y3029
X48142Y3029
X56803Y3029
X58195Y3029
X57499Y3725
X56803Y4421
X58195Y4421
X65465Y4421
X66161Y3725
X66857Y4421
X66857Y3029
X65465Y3029
X74126Y3029
X75518Y3029
X74822Y3725
X74126Y4421
X75518Y4421
T04
X74822Y693
X66161Y693
X57499Y693
X48838Y693
X40176Y693
X31515Y693
T05
X28562Y1166
X34468Y1166
X37224Y1166
X43129Y1166
X45885Y1166
X51791Y1166
X54546Y1166
X60452Y1166
X63208Y1166
X69113Y1166
X71869Y1166
X77775Y1166
T06
X77243Y8449
X73188Y8449
X71731Y8449
X67676Y8449
X66220Y8449
X62165Y8449
X60708Y8449
X56653Y8449
X55196Y8449
X51141Y8449
X49684Y8449
X45629Y8449
X44172Y8449
X40117Y8449
X38661Y8449
X34606Y8449
X33149Y8449
X29094Y8449
T07
X28562Y3725
X34468Y3725
X37224Y3725
X43129Y3725
X45885Y3725
X51791Y3725
X54546Y3725
X60452Y3725
X63208Y3725
X69113Y3725
X71869Y3725
X77775Y3725
M30
