G75*
G70*
%OFA0B0*%
%FSLAX24Y24*%
%IPPOS*%
%LPD*%
%AMOC8*
5,1,8,0,0,1.08239X$1,22.5*
%
%ADD10C,0.0100*%
%ADD11C,0.0709*%
%ADD12C,0.0000*%
%ADD13C,0.0768*%
%ADD14C,0.0320*%
%ADD15C,0.0376*%
%ADD16C,0.0416*%
%ADD17C,0.0160*%
D10*
X027184Y001756D02*
X027184Y009630D01*
X027186Y009707D01*
X027192Y009784D01*
X027201Y009861D01*
X027214Y009937D01*
X027231Y010013D01*
X027252Y010087D01*
X027276Y010161D01*
X027304Y010233D01*
X027335Y010303D01*
X027370Y010372D01*
X027408Y010440D01*
X027449Y010505D01*
X027494Y010568D01*
X027542Y010629D01*
X027592Y010688D01*
X027645Y010744D01*
X027701Y010797D01*
X027760Y010847D01*
X027821Y010895D01*
X027884Y010940D01*
X027949Y010981D01*
X028017Y011019D01*
X028086Y011054D01*
X028156Y011085D01*
X028228Y011113D01*
X028302Y011137D01*
X028376Y011158D01*
X028452Y011175D01*
X028528Y011188D01*
X028605Y011197D01*
X028682Y011203D01*
X028759Y011205D01*
X077578Y011205D01*
X077662Y011194D01*
X077745Y011178D01*
X077828Y011159D01*
X077910Y011136D01*
X077990Y011109D01*
X078069Y011078D01*
X078147Y011043D01*
X078222Y011005D01*
X078296Y010963D01*
X078368Y010918D01*
X078438Y010869D01*
X078505Y010817D01*
X078569Y010762D01*
X078631Y010704D01*
X078690Y010643D01*
X078746Y010580D01*
X078799Y010513D01*
X078849Y010445D01*
X078896Y010374D01*
X078939Y010301D01*
X078978Y010225D01*
X079014Y010149D01*
X079046Y010070D01*
X079075Y009990D01*
X079099Y009909D01*
X079120Y009827D01*
X079137Y009743D01*
X079150Y009659D01*
X079158Y009575D01*
X079163Y009490D01*
X079164Y009405D01*
X079160Y009321D01*
X079153Y009236D01*
X079153Y009237D02*
X079153Y001756D01*
X079151Y001679D01*
X079145Y001602D01*
X079136Y001525D01*
X079123Y001449D01*
X079106Y001373D01*
X079085Y001299D01*
X079061Y001225D01*
X079033Y001153D01*
X079002Y001083D01*
X078967Y001014D01*
X078929Y000946D01*
X078888Y000881D01*
X078843Y000818D01*
X078795Y000757D01*
X078745Y000698D01*
X078692Y000642D01*
X078636Y000589D01*
X078577Y000539D01*
X078516Y000491D01*
X078453Y000446D01*
X078388Y000405D01*
X078320Y000367D01*
X078251Y000332D01*
X078181Y000301D01*
X078109Y000273D01*
X078035Y000249D01*
X077961Y000228D01*
X077885Y000211D01*
X077809Y000198D01*
X077732Y000189D01*
X077655Y000183D01*
X077578Y000181D01*
X028759Y000181D01*
X028682Y000183D01*
X028605Y000189D01*
X028528Y000198D01*
X028452Y000211D01*
X028376Y000228D01*
X028302Y000249D01*
X028228Y000273D01*
X028156Y000301D01*
X028086Y000332D01*
X028017Y000367D01*
X027949Y000405D01*
X027884Y000446D01*
X027821Y000491D01*
X027760Y000539D01*
X027701Y000589D01*
X027645Y000642D01*
X027592Y000698D01*
X027542Y000757D01*
X027494Y000818D01*
X027449Y000881D01*
X027408Y000946D01*
X027370Y001014D01*
X027335Y001083D01*
X027304Y001153D01*
X027276Y001225D01*
X027252Y001299D01*
X027231Y001373D01*
X027214Y001449D01*
X027201Y001525D01*
X027192Y001602D01*
X027186Y001679D01*
X027184Y001756D01*
D11*
X030819Y003029D03*
X032211Y003029D03*
X031515Y003725D03*
X032211Y004421D03*
X030819Y004421D03*
X039480Y004421D03*
X040176Y003725D03*
X040872Y004421D03*
X040872Y003029D03*
X039480Y003029D03*
X048142Y003029D03*
X049534Y003029D03*
X048838Y003725D03*
X049534Y004421D03*
X048142Y004421D03*
X056803Y004421D03*
X057499Y003725D03*
X058195Y004421D03*
X058195Y003029D03*
X056803Y003029D03*
X065465Y003029D03*
X066857Y003029D03*
X066161Y003725D03*
X066857Y004421D03*
X065465Y004421D03*
X074126Y004421D03*
X074822Y003725D03*
X075518Y004421D03*
X075518Y003029D03*
X074126Y003029D03*
D12*
X071318Y003725D02*
X071320Y003772D01*
X071326Y003818D01*
X071336Y003864D01*
X071349Y003909D01*
X071367Y003952D01*
X071388Y003994D01*
X071412Y004034D01*
X071440Y004071D01*
X071471Y004106D01*
X071505Y004139D01*
X071541Y004168D01*
X071580Y004194D01*
X071621Y004217D01*
X071664Y004236D01*
X071708Y004252D01*
X071753Y004264D01*
X071799Y004272D01*
X071846Y004276D01*
X071892Y004276D01*
X071939Y004272D01*
X071985Y004264D01*
X072030Y004252D01*
X072074Y004236D01*
X072117Y004217D01*
X072158Y004194D01*
X072197Y004168D01*
X072233Y004139D01*
X072267Y004106D01*
X072298Y004071D01*
X072326Y004034D01*
X072350Y003994D01*
X072371Y003952D01*
X072389Y003909D01*
X072402Y003864D01*
X072412Y003818D01*
X072418Y003772D01*
X072420Y003725D01*
X072418Y003678D01*
X072412Y003632D01*
X072402Y003586D01*
X072389Y003541D01*
X072371Y003498D01*
X072350Y003456D01*
X072326Y003416D01*
X072298Y003379D01*
X072267Y003344D01*
X072233Y003311D01*
X072197Y003282D01*
X072158Y003256D01*
X072117Y003233D01*
X072074Y003214D01*
X072030Y003198D01*
X071985Y003186D01*
X071939Y003178D01*
X071892Y003174D01*
X071846Y003174D01*
X071799Y003178D01*
X071753Y003186D01*
X071708Y003198D01*
X071664Y003214D01*
X071621Y003233D01*
X071580Y003256D01*
X071541Y003282D01*
X071505Y003311D01*
X071471Y003344D01*
X071440Y003379D01*
X071412Y003416D01*
X071388Y003456D01*
X071367Y003498D01*
X071349Y003541D01*
X071336Y003586D01*
X071326Y003632D01*
X071320Y003678D01*
X071318Y003725D01*
X068562Y003725D02*
X068564Y003772D01*
X068570Y003818D01*
X068580Y003864D01*
X068593Y003909D01*
X068611Y003952D01*
X068632Y003994D01*
X068656Y004034D01*
X068684Y004071D01*
X068715Y004106D01*
X068749Y004139D01*
X068785Y004168D01*
X068824Y004194D01*
X068865Y004217D01*
X068908Y004236D01*
X068952Y004252D01*
X068997Y004264D01*
X069043Y004272D01*
X069090Y004276D01*
X069136Y004276D01*
X069183Y004272D01*
X069229Y004264D01*
X069274Y004252D01*
X069318Y004236D01*
X069361Y004217D01*
X069402Y004194D01*
X069441Y004168D01*
X069477Y004139D01*
X069511Y004106D01*
X069542Y004071D01*
X069570Y004034D01*
X069594Y003994D01*
X069615Y003952D01*
X069633Y003909D01*
X069646Y003864D01*
X069656Y003818D01*
X069662Y003772D01*
X069664Y003725D01*
X069662Y003678D01*
X069656Y003632D01*
X069646Y003586D01*
X069633Y003541D01*
X069615Y003498D01*
X069594Y003456D01*
X069570Y003416D01*
X069542Y003379D01*
X069511Y003344D01*
X069477Y003311D01*
X069441Y003282D01*
X069402Y003256D01*
X069361Y003233D01*
X069318Y003214D01*
X069274Y003198D01*
X069229Y003186D01*
X069183Y003178D01*
X069136Y003174D01*
X069090Y003174D01*
X069043Y003178D01*
X068997Y003186D01*
X068952Y003198D01*
X068908Y003214D01*
X068865Y003233D01*
X068824Y003256D01*
X068785Y003282D01*
X068749Y003311D01*
X068715Y003344D01*
X068684Y003379D01*
X068656Y003416D01*
X068632Y003456D01*
X068611Y003498D01*
X068593Y003541D01*
X068580Y003586D01*
X068570Y003632D01*
X068564Y003678D01*
X068562Y003725D01*
X062657Y003725D02*
X062659Y003772D01*
X062665Y003818D01*
X062675Y003864D01*
X062688Y003909D01*
X062706Y003952D01*
X062727Y003994D01*
X062751Y004034D01*
X062779Y004071D01*
X062810Y004106D01*
X062844Y004139D01*
X062880Y004168D01*
X062919Y004194D01*
X062960Y004217D01*
X063003Y004236D01*
X063047Y004252D01*
X063092Y004264D01*
X063138Y004272D01*
X063185Y004276D01*
X063231Y004276D01*
X063278Y004272D01*
X063324Y004264D01*
X063369Y004252D01*
X063413Y004236D01*
X063456Y004217D01*
X063497Y004194D01*
X063536Y004168D01*
X063572Y004139D01*
X063606Y004106D01*
X063637Y004071D01*
X063665Y004034D01*
X063689Y003994D01*
X063710Y003952D01*
X063728Y003909D01*
X063741Y003864D01*
X063751Y003818D01*
X063757Y003772D01*
X063759Y003725D01*
X063757Y003678D01*
X063751Y003632D01*
X063741Y003586D01*
X063728Y003541D01*
X063710Y003498D01*
X063689Y003456D01*
X063665Y003416D01*
X063637Y003379D01*
X063606Y003344D01*
X063572Y003311D01*
X063536Y003282D01*
X063497Y003256D01*
X063456Y003233D01*
X063413Y003214D01*
X063369Y003198D01*
X063324Y003186D01*
X063278Y003178D01*
X063231Y003174D01*
X063185Y003174D01*
X063138Y003178D01*
X063092Y003186D01*
X063047Y003198D01*
X063003Y003214D01*
X062960Y003233D01*
X062919Y003256D01*
X062880Y003282D01*
X062844Y003311D01*
X062810Y003344D01*
X062779Y003379D01*
X062751Y003416D01*
X062727Y003456D01*
X062706Y003498D01*
X062688Y003541D01*
X062675Y003586D01*
X062665Y003632D01*
X062659Y003678D01*
X062657Y003725D01*
X059901Y003725D02*
X059903Y003772D01*
X059909Y003818D01*
X059919Y003864D01*
X059932Y003909D01*
X059950Y003952D01*
X059971Y003994D01*
X059995Y004034D01*
X060023Y004071D01*
X060054Y004106D01*
X060088Y004139D01*
X060124Y004168D01*
X060163Y004194D01*
X060204Y004217D01*
X060247Y004236D01*
X060291Y004252D01*
X060336Y004264D01*
X060382Y004272D01*
X060429Y004276D01*
X060475Y004276D01*
X060522Y004272D01*
X060568Y004264D01*
X060613Y004252D01*
X060657Y004236D01*
X060700Y004217D01*
X060741Y004194D01*
X060780Y004168D01*
X060816Y004139D01*
X060850Y004106D01*
X060881Y004071D01*
X060909Y004034D01*
X060933Y003994D01*
X060954Y003952D01*
X060972Y003909D01*
X060985Y003864D01*
X060995Y003818D01*
X061001Y003772D01*
X061003Y003725D01*
X061001Y003678D01*
X060995Y003632D01*
X060985Y003586D01*
X060972Y003541D01*
X060954Y003498D01*
X060933Y003456D01*
X060909Y003416D01*
X060881Y003379D01*
X060850Y003344D01*
X060816Y003311D01*
X060780Y003282D01*
X060741Y003256D01*
X060700Y003233D01*
X060657Y003214D01*
X060613Y003198D01*
X060568Y003186D01*
X060522Y003178D01*
X060475Y003174D01*
X060429Y003174D01*
X060382Y003178D01*
X060336Y003186D01*
X060291Y003198D01*
X060247Y003214D01*
X060204Y003233D01*
X060163Y003256D01*
X060124Y003282D01*
X060088Y003311D01*
X060054Y003344D01*
X060023Y003379D01*
X059995Y003416D01*
X059971Y003456D01*
X059950Y003498D01*
X059932Y003541D01*
X059919Y003586D01*
X059909Y003632D01*
X059903Y003678D01*
X059901Y003725D01*
X053995Y003725D02*
X053997Y003772D01*
X054003Y003818D01*
X054013Y003864D01*
X054026Y003909D01*
X054044Y003952D01*
X054065Y003994D01*
X054089Y004034D01*
X054117Y004071D01*
X054148Y004106D01*
X054182Y004139D01*
X054218Y004168D01*
X054257Y004194D01*
X054298Y004217D01*
X054341Y004236D01*
X054385Y004252D01*
X054430Y004264D01*
X054476Y004272D01*
X054523Y004276D01*
X054569Y004276D01*
X054616Y004272D01*
X054662Y004264D01*
X054707Y004252D01*
X054751Y004236D01*
X054794Y004217D01*
X054835Y004194D01*
X054874Y004168D01*
X054910Y004139D01*
X054944Y004106D01*
X054975Y004071D01*
X055003Y004034D01*
X055027Y003994D01*
X055048Y003952D01*
X055066Y003909D01*
X055079Y003864D01*
X055089Y003818D01*
X055095Y003772D01*
X055097Y003725D01*
X055095Y003678D01*
X055089Y003632D01*
X055079Y003586D01*
X055066Y003541D01*
X055048Y003498D01*
X055027Y003456D01*
X055003Y003416D01*
X054975Y003379D01*
X054944Y003344D01*
X054910Y003311D01*
X054874Y003282D01*
X054835Y003256D01*
X054794Y003233D01*
X054751Y003214D01*
X054707Y003198D01*
X054662Y003186D01*
X054616Y003178D01*
X054569Y003174D01*
X054523Y003174D01*
X054476Y003178D01*
X054430Y003186D01*
X054385Y003198D01*
X054341Y003214D01*
X054298Y003233D01*
X054257Y003256D01*
X054218Y003282D01*
X054182Y003311D01*
X054148Y003344D01*
X054117Y003379D01*
X054089Y003416D01*
X054065Y003456D01*
X054044Y003498D01*
X054026Y003541D01*
X054013Y003586D01*
X054003Y003632D01*
X053997Y003678D01*
X053995Y003725D01*
X051240Y003725D02*
X051242Y003772D01*
X051248Y003818D01*
X051258Y003864D01*
X051271Y003909D01*
X051289Y003952D01*
X051310Y003994D01*
X051334Y004034D01*
X051362Y004071D01*
X051393Y004106D01*
X051427Y004139D01*
X051463Y004168D01*
X051502Y004194D01*
X051543Y004217D01*
X051586Y004236D01*
X051630Y004252D01*
X051675Y004264D01*
X051721Y004272D01*
X051768Y004276D01*
X051814Y004276D01*
X051861Y004272D01*
X051907Y004264D01*
X051952Y004252D01*
X051996Y004236D01*
X052039Y004217D01*
X052080Y004194D01*
X052119Y004168D01*
X052155Y004139D01*
X052189Y004106D01*
X052220Y004071D01*
X052248Y004034D01*
X052272Y003994D01*
X052293Y003952D01*
X052311Y003909D01*
X052324Y003864D01*
X052334Y003818D01*
X052340Y003772D01*
X052342Y003725D01*
X052340Y003678D01*
X052334Y003632D01*
X052324Y003586D01*
X052311Y003541D01*
X052293Y003498D01*
X052272Y003456D01*
X052248Y003416D01*
X052220Y003379D01*
X052189Y003344D01*
X052155Y003311D01*
X052119Y003282D01*
X052080Y003256D01*
X052039Y003233D01*
X051996Y003214D01*
X051952Y003198D01*
X051907Y003186D01*
X051861Y003178D01*
X051814Y003174D01*
X051768Y003174D01*
X051721Y003178D01*
X051675Y003186D01*
X051630Y003198D01*
X051586Y003214D01*
X051543Y003233D01*
X051502Y003256D01*
X051463Y003282D01*
X051427Y003311D01*
X051393Y003344D01*
X051362Y003379D01*
X051334Y003416D01*
X051310Y003456D01*
X051289Y003498D01*
X051271Y003541D01*
X051258Y003586D01*
X051248Y003632D01*
X051242Y003678D01*
X051240Y003725D01*
X045334Y003725D02*
X045336Y003772D01*
X045342Y003818D01*
X045352Y003864D01*
X045365Y003909D01*
X045383Y003952D01*
X045404Y003994D01*
X045428Y004034D01*
X045456Y004071D01*
X045487Y004106D01*
X045521Y004139D01*
X045557Y004168D01*
X045596Y004194D01*
X045637Y004217D01*
X045680Y004236D01*
X045724Y004252D01*
X045769Y004264D01*
X045815Y004272D01*
X045862Y004276D01*
X045908Y004276D01*
X045955Y004272D01*
X046001Y004264D01*
X046046Y004252D01*
X046090Y004236D01*
X046133Y004217D01*
X046174Y004194D01*
X046213Y004168D01*
X046249Y004139D01*
X046283Y004106D01*
X046314Y004071D01*
X046342Y004034D01*
X046366Y003994D01*
X046387Y003952D01*
X046405Y003909D01*
X046418Y003864D01*
X046428Y003818D01*
X046434Y003772D01*
X046436Y003725D01*
X046434Y003678D01*
X046428Y003632D01*
X046418Y003586D01*
X046405Y003541D01*
X046387Y003498D01*
X046366Y003456D01*
X046342Y003416D01*
X046314Y003379D01*
X046283Y003344D01*
X046249Y003311D01*
X046213Y003282D01*
X046174Y003256D01*
X046133Y003233D01*
X046090Y003214D01*
X046046Y003198D01*
X046001Y003186D01*
X045955Y003178D01*
X045908Y003174D01*
X045862Y003174D01*
X045815Y003178D01*
X045769Y003186D01*
X045724Y003198D01*
X045680Y003214D01*
X045637Y003233D01*
X045596Y003256D01*
X045557Y003282D01*
X045521Y003311D01*
X045487Y003344D01*
X045456Y003379D01*
X045428Y003416D01*
X045404Y003456D01*
X045383Y003498D01*
X045365Y003541D01*
X045352Y003586D01*
X045342Y003632D01*
X045336Y003678D01*
X045334Y003725D01*
X042578Y003725D02*
X042580Y003772D01*
X042586Y003818D01*
X042596Y003864D01*
X042609Y003909D01*
X042627Y003952D01*
X042648Y003994D01*
X042672Y004034D01*
X042700Y004071D01*
X042731Y004106D01*
X042765Y004139D01*
X042801Y004168D01*
X042840Y004194D01*
X042881Y004217D01*
X042924Y004236D01*
X042968Y004252D01*
X043013Y004264D01*
X043059Y004272D01*
X043106Y004276D01*
X043152Y004276D01*
X043199Y004272D01*
X043245Y004264D01*
X043290Y004252D01*
X043334Y004236D01*
X043377Y004217D01*
X043418Y004194D01*
X043457Y004168D01*
X043493Y004139D01*
X043527Y004106D01*
X043558Y004071D01*
X043586Y004034D01*
X043610Y003994D01*
X043631Y003952D01*
X043649Y003909D01*
X043662Y003864D01*
X043672Y003818D01*
X043678Y003772D01*
X043680Y003725D01*
X043678Y003678D01*
X043672Y003632D01*
X043662Y003586D01*
X043649Y003541D01*
X043631Y003498D01*
X043610Y003456D01*
X043586Y003416D01*
X043558Y003379D01*
X043527Y003344D01*
X043493Y003311D01*
X043457Y003282D01*
X043418Y003256D01*
X043377Y003233D01*
X043334Y003214D01*
X043290Y003198D01*
X043245Y003186D01*
X043199Y003178D01*
X043152Y003174D01*
X043106Y003174D01*
X043059Y003178D01*
X043013Y003186D01*
X042968Y003198D01*
X042924Y003214D01*
X042881Y003233D01*
X042840Y003256D01*
X042801Y003282D01*
X042765Y003311D01*
X042731Y003344D01*
X042700Y003379D01*
X042672Y003416D01*
X042648Y003456D01*
X042627Y003498D01*
X042609Y003541D01*
X042596Y003586D01*
X042586Y003632D01*
X042580Y003678D01*
X042578Y003725D01*
X036673Y003725D02*
X036675Y003772D01*
X036681Y003818D01*
X036691Y003864D01*
X036704Y003909D01*
X036722Y003952D01*
X036743Y003994D01*
X036767Y004034D01*
X036795Y004071D01*
X036826Y004106D01*
X036860Y004139D01*
X036896Y004168D01*
X036935Y004194D01*
X036976Y004217D01*
X037019Y004236D01*
X037063Y004252D01*
X037108Y004264D01*
X037154Y004272D01*
X037201Y004276D01*
X037247Y004276D01*
X037294Y004272D01*
X037340Y004264D01*
X037385Y004252D01*
X037429Y004236D01*
X037472Y004217D01*
X037513Y004194D01*
X037552Y004168D01*
X037588Y004139D01*
X037622Y004106D01*
X037653Y004071D01*
X037681Y004034D01*
X037705Y003994D01*
X037726Y003952D01*
X037744Y003909D01*
X037757Y003864D01*
X037767Y003818D01*
X037773Y003772D01*
X037775Y003725D01*
X037773Y003678D01*
X037767Y003632D01*
X037757Y003586D01*
X037744Y003541D01*
X037726Y003498D01*
X037705Y003456D01*
X037681Y003416D01*
X037653Y003379D01*
X037622Y003344D01*
X037588Y003311D01*
X037552Y003282D01*
X037513Y003256D01*
X037472Y003233D01*
X037429Y003214D01*
X037385Y003198D01*
X037340Y003186D01*
X037294Y003178D01*
X037247Y003174D01*
X037201Y003174D01*
X037154Y003178D01*
X037108Y003186D01*
X037063Y003198D01*
X037019Y003214D01*
X036976Y003233D01*
X036935Y003256D01*
X036896Y003282D01*
X036860Y003311D01*
X036826Y003344D01*
X036795Y003379D01*
X036767Y003416D01*
X036743Y003456D01*
X036722Y003498D01*
X036704Y003541D01*
X036691Y003586D01*
X036681Y003632D01*
X036675Y003678D01*
X036673Y003725D01*
X033917Y003725D02*
X033919Y003772D01*
X033925Y003818D01*
X033935Y003864D01*
X033948Y003909D01*
X033966Y003952D01*
X033987Y003994D01*
X034011Y004034D01*
X034039Y004071D01*
X034070Y004106D01*
X034104Y004139D01*
X034140Y004168D01*
X034179Y004194D01*
X034220Y004217D01*
X034263Y004236D01*
X034307Y004252D01*
X034352Y004264D01*
X034398Y004272D01*
X034445Y004276D01*
X034491Y004276D01*
X034538Y004272D01*
X034584Y004264D01*
X034629Y004252D01*
X034673Y004236D01*
X034716Y004217D01*
X034757Y004194D01*
X034796Y004168D01*
X034832Y004139D01*
X034866Y004106D01*
X034897Y004071D01*
X034925Y004034D01*
X034949Y003994D01*
X034970Y003952D01*
X034988Y003909D01*
X035001Y003864D01*
X035011Y003818D01*
X035017Y003772D01*
X035019Y003725D01*
X035017Y003678D01*
X035011Y003632D01*
X035001Y003586D01*
X034988Y003541D01*
X034970Y003498D01*
X034949Y003456D01*
X034925Y003416D01*
X034897Y003379D01*
X034866Y003344D01*
X034832Y003311D01*
X034796Y003282D01*
X034757Y003256D01*
X034716Y003233D01*
X034673Y003214D01*
X034629Y003198D01*
X034584Y003186D01*
X034538Y003178D01*
X034491Y003174D01*
X034445Y003174D01*
X034398Y003178D01*
X034352Y003186D01*
X034307Y003198D01*
X034263Y003214D01*
X034220Y003233D01*
X034179Y003256D01*
X034140Y003282D01*
X034104Y003311D01*
X034070Y003344D01*
X034039Y003379D01*
X034011Y003416D01*
X033987Y003456D01*
X033966Y003498D01*
X033948Y003541D01*
X033935Y003586D01*
X033925Y003632D01*
X033919Y003678D01*
X033917Y003725D01*
X028011Y003725D02*
X028013Y003772D01*
X028019Y003818D01*
X028029Y003864D01*
X028042Y003909D01*
X028060Y003952D01*
X028081Y003994D01*
X028105Y004034D01*
X028133Y004071D01*
X028164Y004106D01*
X028198Y004139D01*
X028234Y004168D01*
X028273Y004194D01*
X028314Y004217D01*
X028357Y004236D01*
X028401Y004252D01*
X028446Y004264D01*
X028492Y004272D01*
X028539Y004276D01*
X028585Y004276D01*
X028632Y004272D01*
X028678Y004264D01*
X028723Y004252D01*
X028767Y004236D01*
X028810Y004217D01*
X028851Y004194D01*
X028890Y004168D01*
X028926Y004139D01*
X028960Y004106D01*
X028991Y004071D01*
X029019Y004034D01*
X029043Y003994D01*
X029064Y003952D01*
X029082Y003909D01*
X029095Y003864D01*
X029105Y003818D01*
X029111Y003772D01*
X029113Y003725D01*
X029111Y003678D01*
X029105Y003632D01*
X029095Y003586D01*
X029082Y003541D01*
X029064Y003498D01*
X029043Y003456D01*
X029019Y003416D01*
X028991Y003379D01*
X028960Y003344D01*
X028926Y003311D01*
X028890Y003282D01*
X028851Y003256D01*
X028810Y003233D01*
X028767Y003214D01*
X028723Y003198D01*
X028678Y003186D01*
X028632Y003178D01*
X028585Y003174D01*
X028539Y003174D01*
X028492Y003178D01*
X028446Y003186D01*
X028401Y003198D01*
X028357Y003214D01*
X028314Y003233D01*
X028273Y003256D01*
X028234Y003282D01*
X028198Y003311D01*
X028164Y003344D01*
X028133Y003379D01*
X028105Y003416D01*
X028081Y003456D01*
X028060Y003498D01*
X028042Y003541D01*
X028029Y003586D01*
X028019Y003632D01*
X028013Y003678D01*
X028011Y003725D01*
X028099Y001166D02*
X028101Y001209D01*
X028107Y001251D01*
X028117Y001293D01*
X028130Y001333D01*
X028148Y001372D01*
X028168Y001410D01*
X028193Y001445D01*
X028220Y001478D01*
X028250Y001508D01*
X028283Y001535D01*
X028318Y001560D01*
X028356Y001580D01*
X028395Y001598D01*
X028435Y001611D01*
X028477Y001621D01*
X028519Y001627D01*
X028562Y001629D01*
X028605Y001627D01*
X028647Y001621D01*
X028689Y001611D01*
X028729Y001598D01*
X028768Y001580D01*
X028806Y001560D01*
X028841Y001535D01*
X028874Y001508D01*
X028904Y001478D01*
X028931Y001445D01*
X028956Y001410D01*
X028976Y001372D01*
X028994Y001333D01*
X029007Y001293D01*
X029017Y001251D01*
X029023Y001209D01*
X029025Y001166D01*
X029023Y001123D01*
X029017Y001081D01*
X029007Y001039D01*
X028994Y000999D01*
X028976Y000960D01*
X028956Y000922D01*
X028931Y000887D01*
X028904Y000854D01*
X028874Y000824D01*
X028841Y000797D01*
X028806Y000772D01*
X028768Y000752D01*
X028729Y000734D01*
X028689Y000721D01*
X028647Y000711D01*
X028605Y000705D01*
X028562Y000703D01*
X028519Y000705D01*
X028477Y000711D01*
X028435Y000721D01*
X028395Y000734D01*
X028356Y000752D01*
X028318Y000772D01*
X028283Y000797D01*
X028250Y000824D01*
X028220Y000854D01*
X028193Y000887D01*
X028168Y000922D01*
X028148Y000960D01*
X028130Y000999D01*
X028117Y001039D01*
X028107Y001081D01*
X028101Y001123D01*
X028099Y001166D01*
X034005Y001166D02*
X034007Y001209D01*
X034013Y001251D01*
X034023Y001293D01*
X034036Y001333D01*
X034054Y001372D01*
X034074Y001410D01*
X034099Y001445D01*
X034126Y001478D01*
X034156Y001508D01*
X034189Y001535D01*
X034224Y001560D01*
X034262Y001580D01*
X034301Y001598D01*
X034341Y001611D01*
X034383Y001621D01*
X034425Y001627D01*
X034468Y001629D01*
X034511Y001627D01*
X034553Y001621D01*
X034595Y001611D01*
X034635Y001598D01*
X034674Y001580D01*
X034712Y001560D01*
X034747Y001535D01*
X034780Y001508D01*
X034810Y001478D01*
X034837Y001445D01*
X034862Y001410D01*
X034882Y001372D01*
X034900Y001333D01*
X034913Y001293D01*
X034923Y001251D01*
X034929Y001209D01*
X034931Y001166D01*
X034929Y001123D01*
X034923Y001081D01*
X034913Y001039D01*
X034900Y000999D01*
X034882Y000960D01*
X034862Y000922D01*
X034837Y000887D01*
X034810Y000854D01*
X034780Y000824D01*
X034747Y000797D01*
X034712Y000772D01*
X034674Y000752D01*
X034635Y000734D01*
X034595Y000721D01*
X034553Y000711D01*
X034511Y000705D01*
X034468Y000703D01*
X034425Y000705D01*
X034383Y000711D01*
X034341Y000721D01*
X034301Y000734D01*
X034262Y000752D01*
X034224Y000772D01*
X034189Y000797D01*
X034156Y000824D01*
X034126Y000854D01*
X034099Y000887D01*
X034074Y000922D01*
X034054Y000960D01*
X034036Y000999D01*
X034023Y001039D01*
X034013Y001081D01*
X034007Y001123D01*
X034005Y001166D01*
X036761Y001166D02*
X036763Y001209D01*
X036769Y001251D01*
X036779Y001293D01*
X036792Y001333D01*
X036810Y001372D01*
X036830Y001410D01*
X036855Y001445D01*
X036882Y001478D01*
X036912Y001508D01*
X036945Y001535D01*
X036980Y001560D01*
X037018Y001580D01*
X037057Y001598D01*
X037097Y001611D01*
X037139Y001621D01*
X037181Y001627D01*
X037224Y001629D01*
X037267Y001627D01*
X037309Y001621D01*
X037351Y001611D01*
X037391Y001598D01*
X037430Y001580D01*
X037468Y001560D01*
X037503Y001535D01*
X037536Y001508D01*
X037566Y001478D01*
X037593Y001445D01*
X037618Y001410D01*
X037638Y001372D01*
X037656Y001333D01*
X037669Y001293D01*
X037679Y001251D01*
X037685Y001209D01*
X037687Y001166D01*
X037685Y001123D01*
X037679Y001081D01*
X037669Y001039D01*
X037656Y000999D01*
X037638Y000960D01*
X037618Y000922D01*
X037593Y000887D01*
X037566Y000854D01*
X037536Y000824D01*
X037503Y000797D01*
X037468Y000772D01*
X037430Y000752D01*
X037391Y000734D01*
X037351Y000721D01*
X037309Y000711D01*
X037267Y000705D01*
X037224Y000703D01*
X037181Y000705D01*
X037139Y000711D01*
X037097Y000721D01*
X037057Y000734D01*
X037018Y000752D01*
X036980Y000772D01*
X036945Y000797D01*
X036912Y000824D01*
X036882Y000854D01*
X036855Y000887D01*
X036830Y000922D01*
X036810Y000960D01*
X036792Y000999D01*
X036779Y001039D01*
X036769Y001081D01*
X036763Y001123D01*
X036761Y001166D01*
X042666Y001166D02*
X042668Y001209D01*
X042674Y001251D01*
X042684Y001293D01*
X042697Y001333D01*
X042715Y001372D01*
X042735Y001410D01*
X042760Y001445D01*
X042787Y001478D01*
X042817Y001508D01*
X042850Y001535D01*
X042885Y001560D01*
X042923Y001580D01*
X042962Y001598D01*
X043002Y001611D01*
X043044Y001621D01*
X043086Y001627D01*
X043129Y001629D01*
X043172Y001627D01*
X043214Y001621D01*
X043256Y001611D01*
X043296Y001598D01*
X043335Y001580D01*
X043373Y001560D01*
X043408Y001535D01*
X043441Y001508D01*
X043471Y001478D01*
X043498Y001445D01*
X043523Y001410D01*
X043543Y001372D01*
X043561Y001333D01*
X043574Y001293D01*
X043584Y001251D01*
X043590Y001209D01*
X043592Y001166D01*
X043590Y001123D01*
X043584Y001081D01*
X043574Y001039D01*
X043561Y000999D01*
X043543Y000960D01*
X043523Y000922D01*
X043498Y000887D01*
X043471Y000854D01*
X043441Y000824D01*
X043408Y000797D01*
X043373Y000772D01*
X043335Y000752D01*
X043296Y000734D01*
X043256Y000721D01*
X043214Y000711D01*
X043172Y000705D01*
X043129Y000703D01*
X043086Y000705D01*
X043044Y000711D01*
X043002Y000721D01*
X042962Y000734D01*
X042923Y000752D01*
X042885Y000772D01*
X042850Y000797D01*
X042817Y000824D01*
X042787Y000854D01*
X042760Y000887D01*
X042735Y000922D01*
X042715Y000960D01*
X042697Y000999D01*
X042684Y001039D01*
X042674Y001081D01*
X042668Y001123D01*
X042666Y001166D01*
X045422Y001166D02*
X045424Y001209D01*
X045430Y001251D01*
X045440Y001293D01*
X045453Y001333D01*
X045471Y001372D01*
X045491Y001410D01*
X045516Y001445D01*
X045543Y001478D01*
X045573Y001508D01*
X045606Y001535D01*
X045641Y001560D01*
X045679Y001580D01*
X045718Y001598D01*
X045758Y001611D01*
X045800Y001621D01*
X045842Y001627D01*
X045885Y001629D01*
X045928Y001627D01*
X045970Y001621D01*
X046012Y001611D01*
X046052Y001598D01*
X046091Y001580D01*
X046129Y001560D01*
X046164Y001535D01*
X046197Y001508D01*
X046227Y001478D01*
X046254Y001445D01*
X046279Y001410D01*
X046299Y001372D01*
X046317Y001333D01*
X046330Y001293D01*
X046340Y001251D01*
X046346Y001209D01*
X046348Y001166D01*
X046346Y001123D01*
X046340Y001081D01*
X046330Y001039D01*
X046317Y000999D01*
X046299Y000960D01*
X046279Y000922D01*
X046254Y000887D01*
X046227Y000854D01*
X046197Y000824D01*
X046164Y000797D01*
X046129Y000772D01*
X046091Y000752D01*
X046052Y000734D01*
X046012Y000721D01*
X045970Y000711D01*
X045928Y000705D01*
X045885Y000703D01*
X045842Y000705D01*
X045800Y000711D01*
X045758Y000721D01*
X045718Y000734D01*
X045679Y000752D01*
X045641Y000772D01*
X045606Y000797D01*
X045573Y000824D01*
X045543Y000854D01*
X045516Y000887D01*
X045491Y000922D01*
X045471Y000960D01*
X045453Y000999D01*
X045440Y001039D01*
X045430Y001081D01*
X045424Y001123D01*
X045422Y001166D01*
X051328Y001166D02*
X051330Y001209D01*
X051336Y001251D01*
X051346Y001293D01*
X051359Y001333D01*
X051377Y001372D01*
X051397Y001410D01*
X051422Y001445D01*
X051449Y001478D01*
X051479Y001508D01*
X051512Y001535D01*
X051547Y001560D01*
X051585Y001580D01*
X051624Y001598D01*
X051664Y001611D01*
X051706Y001621D01*
X051748Y001627D01*
X051791Y001629D01*
X051834Y001627D01*
X051876Y001621D01*
X051918Y001611D01*
X051958Y001598D01*
X051997Y001580D01*
X052035Y001560D01*
X052070Y001535D01*
X052103Y001508D01*
X052133Y001478D01*
X052160Y001445D01*
X052185Y001410D01*
X052205Y001372D01*
X052223Y001333D01*
X052236Y001293D01*
X052246Y001251D01*
X052252Y001209D01*
X052254Y001166D01*
X052252Y001123D01*
X052246Y001081D01*
X052236Y001039D01*
X052223Y000999D01*
X052205Y000960D01*
X052185Y000922D01*
X052160Y000887D01*
X052133Y000854D01*
X052103Y000824D01*
X052070Y000797D01*
X052035Y000772D01*
X051997Y000752D01*
X051958Y000734D01*
X051918Y000721D01*
X051876Y000711D01*
X051834Y000705D01*
X051791Y000703D01*
X051748Y000705D01*
X051706Y000711D01*
X051664Y000721D01*
X051624Y000734D01*
X051585Y000752D01*
X051547Y000772D01*
X051512Y000797D01*
X051479Y000824D01*
X051449Y000854D01*
X051422Y000887D01*
X051397Y000922D01*
X051377Y000960D01*
X051359Y000999D01*
X051346Y001039D01*
X051336Y001081D01*
X051330Y001123D01*
X051328Y001166D01*
X054083Y001166D02*
X054085Y001209D01*
X054091Y001251D01*
X054101Y001293D01*
X054114Y001333D01*
X054132Y001372D01*
X054152Y001410D01*
X054177Y001445D01*
X054204Y001478D01*
X054234Y001508D01*
X054267Y001535D01*
X054302Y001560D01*
X054340Y001580D01*
X054379Y001598D01*
X054419Y001611D01*
X054461Y001621D01*
X054503Y001627D01*
X054546Y001629D01*
X054589Y001627D01*
X054631Y001621D01*
X054673Y001611D01*
X054713Y001598D01*
X054752Y001580D01*
X054790Y001560D01*
X054825Y001535D01*
X054858Y001508D01*
X054888Y001478D01*
X054915Y001445D01*
X054940Y001410D01*
X054960Y001372D01*
X054978Y001333D01*
X054991Y001293D01*
X055001Y001251D01*
X055007Y001209D01*
X055009Y001166D01*
X055007Y001123D01*
X055001Y001081D01*
X054991Y001039D01*
X054978Y000999D01*
X054960Y000960D01*
X054940Y000922D01*
X054915Y000887D01*
X054888Y000854D01*
X054858Y000824D01*
X054825Y000797D01*
X054790Y000772D01*
X054752Y000752D01*
X054713Y000734D01*
X054673Y000721D01*
X054631Y000711D01*
X054589Y000705D01*
X054546Y000703D01*
X054503Y000705D01*
X054461Y000711D01*
X054419Y000721D01*
X054379Y000734D01*
X054340Y000752D01*
X054302Y000772D01*
X054267Y000797D01*
X054234Y000824D01*
X054204Y000854D01*
X054177Y000887D01*
X054152Y000922D01*
X054132Y000960D01*
X054114Y000999D01*
X054101Y001039D01*
X054091Y001081D01*
X054085Y001123D01*
X054083Y001166D01*
X059989Y001166D02*
X059991Y001209D01*
X059997Y001251D01*
X060007Y001293D01*
X060020Y001333D01*
X060038Y001372D01*
X060058Y001410D01*
X060083Y001445D01*
X060110Y001478D01*
X060140Y001508D01*
X060173Y001535D01*
X060208Y001560D01*
X060246Y001580D01*
X060285Y001598D01*
X060325Y001611D01*
X060367Y001621D01*
X060409Y001627D01*
X060452Y001629D01*
X060495Y001627D01*
X060537Y001621D01*
X060579Y001611D01*
X060619Y001598D01*
X060658Y001580D01*
X060696Y001560D01*
X060731Y001535D01*
X060764Y001508D01*
X060794Y001478D01*
X060821Y001445D01*
X060846Y001410D01*
X060866Y001372D01*
X060884Y001333D01*
X060897Y001293D01*
X060907Y001251D01*
X060913Y001209D01*
X060915Y001166D01*
X060913Y001123D01*
X060907Y001081D01*
X060897Y001039D01*
X060884Y000999D01*
X060866Y000960D01*
X060846Y000922D01*
X060821Y000887D01*
X060794Y000854D01*
X060764Y000824D01*
X060731Y000797D01*
X060696Y000772D01*
X060658Y000752D01*
X060619Y000734D01*
X060579Y000721D01*
X060537Y000711D01*
X060495Y000705D01*
X060452Y000703D01*
X060409Y000705D01*
X060367Y000711D01*
X060325Y000721D01*
X060285Y000734D01*
X060246Y000752D01*
X060208Y000772D01*
X060173Y000797D01*
X060140Y000824D01*
X060110Y000854D01*
X060083Y000887D01*
X060058Y000922D01*
X060038Y000960D01*
X060020Y000999D01*
X060007Y001039D01*
X059997Y001081D01*
X059991Y001123D01*
X059989Y001166D01*
X062745Y001166D02*
X062747Y001209D01*
X062753Y001251D01*
X062763Y001293D01*
X062776Y001333D01*
X062794Y001372D01*
X062814Y001410D01*
X062839Y001445D01*
X062866Y001478D01*
X062896Y001508D01*
X062929Y001535D01*
X062964Y001560D01*
X063002Y001580D01*
X063041Y001598D01*
X063081Y001611D01*
X063123Y001621D01*
X063165Y001627D01*
X063208Y001629D01*
X063251Y001627D01*
X063293Y001621D01*
X063335Y001611D01*
X063375Y001598D01*
X063414Y001580D01*
X063452Y001560D01*
X063487Y001535D01*
X063520Y001508D01*
X063550Y001478D01*
X063577Y001445D01*
X063602Y001410D01*
X063622Y001372D01*
X063640Y001333D01*
X063653Y001293D01*
X063663Y001251D01*
X063669Y001209D01*
X063671Y001166D01*
X063669Y001123D01*
X063663Y001081D01*
X063653Y001039D01*
X063640Y000999D01*
X063622Y000960D01*
X063602Y000922D01*
X063577Y000887D01*
X063550Y000854D01*
X063520Y000824D01*
X063487Y000797D01*
X063452Y000772D01*
X063414Y000752D01*
X063375Y000734D01*
X063335Y000721D01*
X063293Y000711D01*
X063251Y000705D01*
X063208Y000703D01*
X063165Y000705D01*
X063123Y000711D01*
X063081Y000721D01*
X063041Y000734D01*
X063002Y000752D01*
X062964Y000772D01*
X062929Y000797D01*
X062896Y000824D01*
X062866Y000854D01*
X062839Y000887D01*
X062814Y000922D01*
X062794Y000960D01*
X062776Y000999D01*
X062763Y001039D01*
X062753Y001081D01*
X062747Y001123D01*
X062745Y001166D01*
X068650Y001166D02*
X068652Y001209D01*
X068658Y001251D01*
X068668Y001293D01*
X068681Y001333D01*
X068699Y001372D01*
X068719Y001410D01*
X068744Y001445D01*
X068771Y001478D01*
X068801Y001508D01*
X068834Y001535D01*
X068869Y001560D01*
X068907Y001580D01*
X068946Y001598D01*
X068986Y001611D01*
X069028Y001621D01*
X069070Y001627D01*
X069113Y001629D01*
X069156Y001627D01*
X069198Y001621D01*
X069240Y001611D01*
X069280Y001598D01*
X069319Y001580D01*
X069357Y001560D01*
X069392Y001535D01*
X069425Y001508D01*
X069455Y001478D01*
X069482Y001445D01*
X069507Y001410D01*
X069527Y001372D01*
X069545Y001333D01*
X069558Y001293D01*
X069568Y001251D01*
X069574Y001209D01*
X069576Y001166D01*
X069574Y001123D01*
X069568Y001081D01*
X069558Y001039D01*
X069545Y000999D01*
X069527Y000960D01*
X069507Y000922D01*
X069482Y000887D01*
X069455Y000854D01*
X069425Y000824D01*
X069392Y000797D01*
X069357Y000772D01*
X069319Y000752D01*
X069280Y000734D01*
X069240Y000721D01*
X069198Y000711D01*
X069156Y000705D01*
X069113Y000703D01*
X069070Y000705D01*
X069028Y000711D01*
X068986Y000721D01*
X068946Y000734D01*
X068907Y000752D01*
X068869Y000772D01*
X068834Y000797D01*
X068801Y000824D01*
X068771Y000854D01*
X068744Y000887D01*
X068719Y000922D01*
X068699Y000960D01*
X068681Y000999D01*
X068668Y001039D01*
X068658Y001081D01*
X068652Y001123D01*
X068650Y001166D01*
X071406Y001166D02*
X071408Y001209D01*
X071414Y001251D01*
X071424Y001293D01*
X071437Y001333D01*
X071455Y001372D01*
X071475Y001410D01*
X071500Y001445D01*
X071527Y001478D01*
X071557Y001508D01*
X071590Y001535D01*
X071625Y001560D01*
X071663Y001580D01*
X071702Y001598D01*
X071742Y001611D01*
X071784Y001621D01*
X071826Y001627D01*
X071869Y001629D01*
X071912Y001627D01*
X071954Y001621D01*
X071996Y001611D01*
X072036Y001598D01*
X072075Y001580D01*
X072113Y001560D01*
X072148Y001535D01*
X072181Y001508D01*
X072211Y001478D01*
X072238Y001445D01*
X072263Y001410D01*
X072283Y001372D01*
X072301Y001333D01*
X072314Y001293D01*
X072324Y001251D01*
X072330Y001209D01*
X072332Y001166D01*
X072330Y001123D01*
X072324Y001081D01*
X072314Y001039D01*
X072301Y000999D01*
X072283Y000960D01*
X072263Y000922D01*
X072238Y000887D01*
X072211Y000854D01*
X072181Y000824D01*
X072148Y000797D01*
X072113Y000772D01*
X072075Y000752D01*
X072036Y000734D01*
X071996Y000721D01*
X071954Y000711D01*
X071912Y000705D01*
X071869Y000703D01*
X071826Y000705D01*
X071784Y000711D01*
X071742Y000721D01*
X071702Y000734D01*
X071663Y000752D01*
X071625Y000772D01*
X071590Y000797D01*
X071557Y000824D01*
X071527Y000854D01*
X071500Y000887D01*
X071475Y000922D01*
X071455Y000960D01*
X071437Y000999D01*
X071424Y001039D01*
X071414Y001081D01*
X071408Y001123D01*
X071406Y001166D01*
X077312Y001166D02*
X077314Y001209D01*
X077320Y001251D01*
X077330Y001293D01*
X077343Y001333D01*
X077361Y001372D01*
X077381Y001410D01*
X077406Y001445D01*
X077433Y001478D01*
X077463Y001508D01*
X077496Y001535D01*
X077531Y001560D01*
X077569Y001580D01*
X077608Y001598D01*
X077648Y001611D01*
X077690Y001621D01*
X077732Y001627D01*
X077775Y001629D01*
X077818Y001627D01*
X077860Y001621D01*
X077902Y001611D01*
X077942Y001598D01*
X077981Y001580D01*
X078019Y001560D01*
X078054Y001535D01*
X078087Y001508D01*
X078117Y001478D01*
X078144Y001445D01*
X078169Y001410D01*
X078189Y001372D01*
X078207Y001333D01*
X078220Y001293D01*
X078230Y001251D01*
X078236Y001209D01*
X078238Y001166D01*
X078236Y001123D01*
X078230Y001081D01*
X078220Y001039D01*
X078207Y000999D01*
X078189Y000960D01*
X078169Y000922D01*
X078144Y000887D01*
X078117Y000854D01*
X078087Y000824D01*
X078054Y000797D01*
X078019Y000772D01*
X077981Y000752D01*
X077942Y000734D01*
X077902Y000721D01*
X077860Y000711D01*
X077818Y000705D01*
X077775Y000703D01*
X077732Y000705D01*
X077690Y000711D01*
X077648Y000721D01*
X077608Y000734D01*
X077569Y000752D01*
X077531Y000772D01*
X077496Y000797D01*
X077463Y000824D01*
X077433Y000854D01*
X077406Y000887D01*
X077381Y000922D01*
X077361Y000960D01*
X077343Y000999D01*
X077330Y001039D01*
X077320Y001081D01*
X077314Y001123D01*
X077312Y001166D01*
X077224Y003725D02*
X077226Y003772D01*
X077232Y003818D01*
X077242Y003864D01*
X077255Y003909D01*
X077273Y003952D01*
X077294Y003994D01*
X077318Y004034D01*
X077346Y004071D01*
X077377Y004106D01*
X077411Y004139D01*
X077447Y004168D01*
X077486Y004194D01*
X077527Y004217D01*
X077570Y004236D01*
X077614Y004252D01*
X077659Y004264D01*
X077705Y004272D01*
X077752Y004276D01*
X077798Y004276D01*
X077845Y004272D01*
X077891Y004264D01*
X077936Y004252D01*
X077980Y004236D01*
X078023Y004217D01*
X078064Y004194D01*
X078103Y004168D01*
X078139Y004139D01*
X078173Y004106D01*
X078204Y004071D01*
X078232Y004034D01*
X078256Y003994D01*
X078277Y003952D01*
X078295Y003909D01*
X078308Y003864D01*
X078318Y003818D01*
X078324Y003772D01*
X078326Y003725D01*
X078324Y003678D01*
X078318Y003632D01*
X078308Y003586D01*
X078295Y003541D01*
X078277Y003498D01*
X078256Y003456D01*
X078232Y003416D01*
X078204Y003379D01*
X078173Y003344D01*
X078139Y003311D01*
X078103Y003282D01*
X078064Y003256D01*
X078023Y003233D01*
X077980Y003214D01*
X077936Y003198D01*
X077891Y003186D01*
X077845Y003178D01*
X077798Y003174D01*
X077752Y003174D01*
X077705Y003178D01*
X077659Y003186D01*
X077614Y003198D01*
X077570Y003214D01*
X077527Y003233D01*
X077486Y003256D01*
X077447Y003282D01*
X077411Y003311D01*
X077377Y003344D01*
X077346Y003379D01*
X077318Y003416D01*
X077294Y003456D01*
X077273Y003498D01*
X077255Y003541D01*
X077242Y003586D01*
X077232Y003632D01*
X077226Y003678D01*
X077224Y003725D01*
X076769Y008449D02*
X076771Y008492D01*
X076777Y008535D01*
X076787Y008577D01*
X076800Y008618D01*
X076817Y008657D01*
X076838Y008695D01*
X076862Y008731D01*
X076889Y008765D01*
X076919Y008795D01*
X076952Y008823D01*
X076988Y008848D01*
X077025Y008870D01*
X077064Y008888D01*
X077105Y008902D01*
X077147Y008913D01*
X077189Y008920D01*
X077232Y008923D01*
X077275Y008922D01*
X077318Y008917D01*
X077360Y008908D01*
X077402Y008896D01*
X077442Y008879D01*
X077480Y008859D01*
X077516Y008836D01*
X077550Y008810D01*
X077582Y008780D01*
X077611Y008748D01*
X077636Y008713D01*
X077659Y008677D01*
X077678Y008638D01*
X077693Y008598D01*
X077705Y008556D01*
X077713Y008514D01*
X077717Y008471D01*
X077717Y008427D01*
X077713Y008384D01*
X077705Y008342D01*
X077693Y008300D01*
X077678Y008260D01*
X077659Y008221D01*
X077636Y008185D01*
X077611Y008150D01*
X077582Y008118D01*
X077550Y008088D01*
X077516Y008062D01*
X077480Y008039D01*
X077442Y008019D01*
X077402Y008002D01*
X077360Y007990D01*
X077318Y007981D01*
X077275Y007976D01*
X077232Y007975D01*
X077189Y007978D01*
X077147Y007985D01*
X077105Y007996D01*
X077064Y008010D01*
X077025Y008028D01*
X076988Y008050D01*
X076952Y008075D01*
X076919Y008103D01*
X076889Y008133D01*
X076862Y008167D01*
X076838Y008203D01*
X076817Y008241D01*
X076800Y008280D01*
X076787Y008321D01*
X076777Y008363D01*
X076771Y008406D01*
X076769Y008449D01*
X072714Y008449D02*
X072716Y008492D01*
X072722Y008535D01*
X072732Y008577D01*
X072745Y008618D01*
X072762Y008657D01*
X072783Y008695D01*
X072807Y008731D01*
X072834Y008765D01*
X072864Y008795D01*
X072897Y008823D01*
X072933Y008848D01*
X072970Y008870D01*
X073009Y008888D01*
X073050Y008902D01*
X073092Y008913D01*
X073134Y008920D01*
X073177Y008923D01*
X073220Y008922D01*
X073263Y008917D01*
X073305Y008908D01*
X073347Y008896D01*
X073387Y008879D01*
X073425Y008859D01*
X073461Y008836D01*
X073495Y008810D01*
X073527Y008780D01*
X073556Y008748D01*
X073581Y008713D01*
X073604Y008677D01*
X073623Y008638D01*
X073638Y008598D01*
X073650Y008556D01*
X073658Y008514D01*
X073662Y008471D01*
X073662Y008427D01*
X073658Y008384D01*
X073650Y008342D01*
X073638Y008300D01*
X073623Y008260D01*
X073604Y008221D01*
X073581Y008185D01*
X073556Y008150D01*
X073527Y008118D01*
X073495Y008088D01*
X073461Y008062D01*
X073425Y008039D01*
X073387Y008019D01*
X073347Y008002D01*
X073305Y007990D01*
X073263Y007981D01*
X073220Y007976D01*
X073177Y007975D01*
X073134Y007978D01*
X073092Y007985D01*
X073050Y007996D01*
X073009Y008010D01*
X072970Y008028D01*
X072933Y008050D01*
X072897Y008075D01*
X072864Y008103D01*
X072834Y008133D01*
X072807Y008167D01*
X072783Y008203D01*
X072762Y008241D01*
X072745Y008280D01*
X072732Y008321D01*
X072722Y008363D01*
X072716Y008406D01*
X072714Y008449D01*
X071257Y008449D02*
X071259Y008492D01*
X071265Y008535D01*
X071275Y008577D01*
X071288Y008618D01*
X071305Y008657D01*
X071326Y008695D01*
X071350Y008731D01*
X071377Y008765D01*
X071407Y008795D01*
X071440Y008823D01*
X071476Y008848D01*
X071513Y008870D01*
X071552Y008888D01*
X071593Y008902D01*
X071635Y008913D01*
X071677Y008920D01*
X071720Y008923D01*
X071763Y008922D01*
X071806Y008917D01*
X071848Y008908D01*
X071890Y008896D01*
X071930Y008879D01*
X071968Y008859D01*
X072004Y008836D01*
X072038Y008810D01*
X072070Y008780D01*
X072099Y008748D01*
X072124Y008713D01*
X072147Y008677D01*
X072166Y008638D01*
X072181Y008598D01*
X072193Y008556D01*
X072201Y008514D01*
X072205Y008471D01*
X072205Y008427D01*
X072201Y008384D01*
X072193Y008342D01*
X072181Y008300D01*
X072166Y008260D01*
X072147Y008221D01*
X072124Y008185D01*
X072099Y008150D01*
X072070Y008118D01*
X072038Y008088D01*
X072004Y008062D01*
X071968Y008039D01*
X071930Y008019D01*
X071890Y008002D01*
X071848Y007990D01*
X071806Y007981D01*
X071763Y007976D01*
X071720Y007975D01*
X071677Y007978D01*
X071635Y007985D01*
X071593Y007996D01*
X071552Y008010D01*
X071513Y008028D01*
X071476Y008050D01*
X071440Y008075D01*
X071407Y008103D01*
X071377Y008133D01*
X071350Y008167D01*
X071326Y008203D01*
X071305Y008241D01*
X071288Y008280D01*
X071275Y008321D01*
X071265Y008363D01*
X071259Y008406D01*
X071257Y008449D01*
X067202Y008449D02*
X067204Y008492D01*
X067210Y008535D01*
X067220Y008577D01*
X067233Y008618D01*
X067250Y008657D01*
X067271Y008695D01*
X067295Y008731D01*
X067322Y008765D01*
X067352Y008795D01*
X067385Y008823D01*
X067421Y008848D01*
X067458Y008870D01*
X067497Y008888D01*
X067538Y008902D01*
X067580Y008913D01*
X067622Y008920D01*
X067665Y008923D01*
X067708Y008922D01*
X067751Y008917D01*
X067793Y008908D01*
X067835Y008896D01*
X067875Y008879D01*
X067913Y008859D01*
X067949Y008836D01*
X067983Y008810D01*
X068015Y008780D01*
X068044Y008748D01*
X068069Y008713D01*
X068092Y008677D01*
X068111Y008638D01*
X068126Y008598D01*
X068138Y008556D01*
X068146Y008514D01*
X068150Y008471D01*
X068150Y008427D01*
X068146Y008384D01*
X068138Y008342D01*
X068126Y008300D01*
X068111Y008260D01*
X068092Y008221D01*
X068069Y008185D01*
X068044Y008150D01*
X068015Y008118D01*
X067983Y008088D01*
X067949Y008062D01*
X067913Y008039D01*
X067875Y008019D01*
X067835Y008002D01*
X067793Y007990D01*
X067751Y007981D01*
X067708Y007976D01*
X067665Y007975D01*
X067622Y007978D01*
X067580Y007985D01*
X067538Y007996D01*
X067497Y008010D01*
X067458Y008028D01*
X067421Y008050D01*
X067385Y008075D01*
X067352Y008103D01*
X067322Y008133D01*
X067295Y008167D01*
X067271Y008203D01*
X067250Y008241D01*
X067233Y008280D01*
X067220Y008321D01*
X067210Y008363D01*
X067204Y008406D01*
X067202Y008449D01*
X065746Y008449D02*
X065748Y008492D01*
X065754Y008535D01*
X065764Y008577D01*
X065777Y008618D01*
X065794Y008657D01*
X065815Y008695D01*
X065839Y008731D01*
X065866Y008765D01*
X065896Y008795D01*
X065929Y008823D01*
X065965Y008848D01*
X066002Y008870D01*
X066041Y008888D01*
X066082Y008902D01*
X066124Y008913D01*
X066166Y008920D01*
X066209Y008923D01*
X066252Y008922D01*
X066295Y008917D01*
X066337Y008908D01*
X066379Y008896D01*
X066419Y008879D01*
X066457Y008859D01*
X066493Y008836D01*
X066527Y008810D01*
X066559Y008780D01*
X066588Y008748D01*
X066613Y008713D01*
X066636Y008677D01*
X066655Y008638D01*
X066670Y008598D01*
X066682Y008556D01*
X066690Y008514D01*
X066694Y008471D01*
X066694Y008427D01*
X066690Y008384D01*
X066682Y008342D01*
X066670Y008300D01*
X066655Y008260D01*
X066636Y008221D01*
X066613Y008185D01*
X066588Y008150D01*
X066559Y008118D01*
X066527Y008088D01*
X066493Y008062D01*
X066457Y008039D01*
X066419Y008019D01*
X066379Y008002D01*
X066337Y007990D01*
X066295Y007981D01*
X066252Y007976D01*
X066209Y007975D01*
X066166Y007978D01*
X066124Y007985D01*
X066082Y007996D01*
X066041Y008010D01*
X066002Y008028D01*
X065965Y008050D01*
X065929Y008075D01*
X065896Y008103D01*
X065866Y008133D01*
X065839Y008167D01*
X065815Y008203D01*
X065794Y008241D01*
X065777Y008280D01*
X065764Y008321D01*
X065754Y008363D01*
X065748Y008406D01*
X065746Y008449D01*
X061691Y008449D02*
X061693Y008492D01*
X061699Y008535D01*
X061709Y008577D01*
X061722Y008618D01*
X061739Y008657D01*
X061760Y008695D01*
X061784Y008731D01*
X061811Y008765D01*
X061841Y008795D01*
X061874Y008823D01*
X061910Y008848D01*
X061947Y008870D01*
X061986Y008888D01*
X062027Y008902D01*
X062069Y008913D01*
X062111Y008920D01*
X062154Y008923D01*
X062197Y008922D01*
X062240Y008917D01*
X062282Y008908D01*
X062324Y008896D01*
X062364Y008879D01*
X062402Y008859D01*
X062438Y008836D01*
X062472Y008810D01*
X062504Y008780D01*
X062533Y008748D01*
X062558Y008713D01*
X062581Y008677D01*
X062600Y008638D01*
X062615Y008598D01*
X062627Y008556D01*
X062635Y008514D01*
X062639Y008471D01*
X062639Y008427D01*
X062635Y008384D01*
X062627Y008342D01*
X062615Y008300D01*
X062600Y008260D01*
X062581Y008221D01*
X062558Y008185D01*
X062533Y008150D01*
X062504Y008118D01*
X062472Y008088D01*
X062438Y008062D01*
X062402Y008039D01*
X062364Y008019D01*
X062324Y008002D01*
X062282Y007990D01*
X062240Y007981D01*
X062197Y007976D01*
X062154Y007975D01*
X062111Y007978D01*
X062069Y007985D01*
X062027Y007996D01*
X061986Y008010D01*
X061947Y008028D01*
X061910Y008050D01*
X061874Y008075D01*
X061841Y008103D01*
X061811Y008133D01*
X061784Y008167D01*
X061760Y008203D01*
X061739Y008241D01*
X061722Y008280D01*
X061709Y008321D01*
X061699Y008363D01*
X061693Y008406D01*
X061691Y008449D01*
X060234Y008449D02*
X060236Y008492D01*
X060242Y008535D01*
X060252Y008577D01*
X060265Y008618D01*
X060282Y008657D01*
X060303Y008695D01*
X060327Y008731D01*
X060354Y008765D01*
X060384Y008795D01*
X060417Y008823D01*
X060453Y008848D01*
X060490Y008870D01*
X060529Y008888D01*
X060570Y008902D01*
X060612Y008913D01*
X060654Y008920D01*
X060697Y008923D01*
X060740Y008922D01*
X060783Y008917D01*
X060825Y008908D01*
X060867Y008896D01*
X060907Y008879D01*
X060945Y008859D01*
X060981Y008836D01*
X061015Y008810D01*
X061047Y008780D01*
X061076Y008748D01*
X061101Y008713D01*
X061124Y008677D01*
X061143Y008638D01*
X061158Y008598D01*
X061170Y008556D01*
X061178Y008514D01*
X061182Y008471D01*
X061182Y008427D01*
X061178Y008384D01*
X061170Y008342D01*
X061158Y008300D01*
X061143Y008260D01*
X061124Y008221D01*
X061101Y008185D01*
X061076Y008150D01*
X061047Y008118D01*
X061015Y008088D01*
X060981Y008062D01*
X060945Y008039D01*
X060907Y008019D01*
X060867Y008002D01*
X060825Y007990D01*
X060783Y007981D01*
X060740Y007976D01*
X060697Y007975D01*
X060654Y007978D01*
X060612Y007985D01*
X060570Y007996D01*
X060529Y008010D01*
X060490Y008028D01*
X060453Y008050D01*
X060417Y008075D01*
X060384Y008103D01*
X060354Y008133D01*
X060327Y008167D01*
X060303Y008203D01*
X060282Y008241D01*
X060265Y008280D01*
X060252Y008321D01*
X060242Y008363D01*
X060236Y008406D01*
X060234Y008449D01*
X056179Y008449D02*
X056181Y008492D01*
X056187Y008535D01*
X056197Y008577D01*
X056210Y008618D01*
X056227Y008657D01*
X056248Y008695D01*
X056272Y008731D01*
X056299Y008765D01*
X056329Y008795D01*
X056362Y008823D01*
X056398Y008848D01*
X056435Y008870D01*
X056474Y008888D01*
X056515Y008902D01*
X056557Y008913D01*
X056599Y008920D01*
X056642Y008923D01*
X056685Y008922D01*
X056728Y008917D01*
X056770Y008908D01*
X056812Y008896D01*
X056852Y008879D01*
X056890Y008859D01*
X056926Y008836D01*
X056960Y008810D01*
X056992Y008780D01*
X057021Y008748D01*
X057046Y008713D01*
X057069Y008677D01*
X057088Y008638D01*
X057103Y008598D01*
X057115Y008556D01*
X057123Y008514D01*
X057127Y008471D01*
X057127Y008427D01*
X057123Y008384D01*
X057115Y008342D01*
X057103Y008300D01*
X057088Y008260D01*
X057069Y008221D01*
X057046Y008185D01*
X057021Y008150D01*
X056992Y008118D01*
X056960Y008088D01*
X056926Y008062D01*
X056890Y008039D01*
X056852Y008019D01*
X056812Y008002D01*
X056770Y007990D01*
X056728Y007981D01*
X056685Y007976D01*
X056642Y007975D01*
X056599Y007978D01*
X056557Y007985D01*
X056515Y007996D01*
X056474Y008010D01*
X056435Y008028D01*
X056398Y008050D01*
X056362Y008075D01*
X056329Y008103D01*
X056299Y008133D01*
X056272Y008167D01*
X056248Y008203D01*
X056227Y008241D01*
X056210Y008280D01*
X056197Y008321D01*
X056187Y008363D01*
X056181Y008406D01*
X056179Y008449D01*
X054722Y008449D02*
X054724Y008492D01*
X054730Y008535D01*
X054740Y008577D01*
X054753Y008618D01*
X054770Y008657D01*
X054791Y008695D01*
X054815Y008731D01*
X054842Y008765D01*
X054872Y008795D01*
X054905Y008823D01*
X054941Y008848D01*
X054978Y008870D01*
X055017Y008888D01*
X055058Y008902D01*
X055100Y008913D01*
X055142Y008920D01*
X055185Y008923D01*
X055228Y008922D01*
X055271Y008917D01*
X055313Y008908D01*
X055355Y008896D01*
X055395Y008879D01*
X055433Y008859D01*
X055469Y008836D01*
X055503Y008810D01*
X055535Y008780D01*
X055564Y008748D01*
X055589Y008713D01*
X055612Y008677D01*
X055631Y008638D01*
X055646Y008598D01*
X055658Y008556D01*
X055666Y008514D01*
X055670Y008471D01*
X055670Y008427D01*
X055666Y008384D01*
X055658Y008342D01*
X055646Y008300D01*
X055631Y008260D01*
X055612Y008221D01*
X055589Y008185D01*
X055564Y008150D01*
X055535Y008118D01*
X055503Y008088D01*
X055469Y008062D01*
X055433Y008039D01*
X055395Y008019D01*
X055355Y008002D01*
X055313Y007990D01*
X055271Y007981D01*
X055228Y007976D01*
X055185Y007975D01*
X055142Y007978D01*
X055100Y007985D01*
X055058Y007996D01*
X055017Y008010D01*
X054978Y008028D01*
X054941Y008050D01*
X054905Y008075D01*
X054872Y008103D01*
X054842Y008133D01*
X054815Y008167D01*
X054791Y008203D01*
X054770Y008241D01*
X054753Y008280D01*
X054740Y008321D01*
X054730Y008363D01*
X054724Y008406D01*
X054722Y008449D01*
X050667Y008449D02*
X050669Y008492D01*
X050675Y008535D01*
X050685Y008577D01*
X050698Y008618D01*
X050715Y008657D01*
X050736Y008695D01*
X050760Y008731D01*
X050787Y008765D01*
X050817Y008795D01*
X050850Y008823D01*
X050886Y008848D01*
X050923Y008870D01*
X050962Y008888D01*
X051003Y008902D01*
X051045Y008913D01*
X051087Y008920D01*
X051130Y008923D01*
X051173Y008922D01*
X051216Y008917D01*
X051258Y008908D01*
X051300Y008896D01*
X051340Y008879D01*
X051378Y008859D01*
X051414Y008836D01*
X051448Y008810D01*
X051480Y008780D01*
X051509Y008748D01*
X051534Y008713D01*
X051557Y008677D01*
X051576Y008638D01*
X051591Y008598D01*
X051603Y008556D01*
X051611Y008514D01*
X051615Y008471D01*
X051615Y008427D01*
X051611Y008384D01*
X051603Y008342D01*
X051591Y008300D01*
X051576Y008260D01*
X051557Y008221D01*
X051534Y008185D01*
X051509Y008150D01*
X051480Y008118D01*
X051448Y008088D01*
X051414Y008062D01*
X051378Y008039D01*
X051340Y008019D01*
X051300Y008002D01*
X051258Y007990D01*
X051216Y007981D01*
X051173Y007976D01*
X051130Y007975D01*
X051087Y007978D01*
X051045Y007985D01*
X051003Y007996D01*
X050962Y008010D01*
X050923Y008028D01*
X050886Y008050D01*
X050850Y008075D01*
X050817Y008103D01*
X050787Y008133D01*
X050760Y008167D01*
X050736Y008203D01*
X050715Y008241D01*
X050698Y008280D01*
X050685Y008321D01*
X050675Y008363D01*
X050669Y008406D01*
X050667Y008449D01*
X049210Y008449D02*
X049212Y008492D01*
X049218Y008535D01*
X049228Y008577D01*
X049241Y008618D01*
X049258Y008657D01*
X049279Y008695D01*
X049303Y008731D01*
X049330Y008765D01*
X049360Y008795D01*
X049393Y008823D01*
X049429Y008848D01*
X049466Y008870D01*
X049505Y008888D01*
X049546Y008902D01*
X049588Y008913D01*
X049630Y008920D01*
X049673Y008923D01*
X049716Y008922D01*
X049759Y008917D01*
X049801Y008908D01*
X049843Y008896D01*
X049883Y008879D01*
X049921Y008859D01*
X049957Y008836D01*
X049991Y008810D01*
X050023Y008780D01*
X050052Y008748D01*
X050077Y008713D01*
X050100Y008677D01*
X050119Y008638D01*
X050134Y008598D01*
X050146Y008556D01*
X050154Y008514D01*
X050158Y008471D01*
X050158Y008427D01*
X050154Y008384D01*
X050146Y008342D01*
X050134Y008300D01*
X050119Y008260D01*
X050100Y008221D01*
X050077Y008185D01*
X050052Y008150D01*
X050023Y008118D01*
X049991Y008088D01*
X049957Y008062D01*
X049921Y008039D01*
X049883Y008019D01*
X049843Y008002D01*
X049801Y007990D01*
X049759Y007981D01*
X049716Y007976D01*
X049673Y007975D01*
X049630Y007978D01*
X049588Y007985D01*
X049546Y007996D01*
X049505Y008010D01*
X049466Y008028D01*
X049429Y008050D01*
X049393Y008075D01*
X049360Y008103D01*
X049330Y008133D01*
X049303Y008167D01*
X049279Y008203D01*
X049258Y008241D01*
X049241Y008280D01*
X049228Y008321D01*
X049218Y008363D01*
X049212Y008406D01*
X049210Y008449D01*
X045155Y008449D02*
X045157Y008492D01*
X045163Y008535D01*
X045173Y008577D01*
X045186Y008618D01*
X045203Y008657D01*
X045224Y008695D01*
X045248Y008731D01*
X045275Y008765D01*
X045305Y008795D01*
X045338Y008823D01*
X045374Y008848D01*
X045411Y008870D01*
X045450Y008888D01*
X045491Y008902D01*
X045533Y008913D01*
X045575Y008920D01*
X045618Y008923D01*
X045661Y008922D01*
X045704Y008917D01*
X045746Y008908D01*
X045788Y008896D01*
X045828Y008879D01*
X045866Y008859D01*
X045902Y008836D01*
X045936Y008810D01*
X045968Y008780D01*
X045997Y008748D01*
X046022Y008713D01*
X046045Y008677D01*
X046064Y008638D01*
X046079Y008598D01*
X046091Y008556D01*
X046099Y008514D01*
X046103Y008471D01*
X046103Y008427D01*
X046099Y008384D01*
X046091Y008342D01*
X046079Y008300D01*
X046064Y008260D01*
X046045Y008221D01*
X046022Y008185D01*
X045997Y008150D01*
X045968Y008118D01*
X045936Y008088D01*
X045902Y008062D01*
X045866Y008039D01*
X045828Y008019D01*
X045788Y008002D01*
X045746Y007990D01*
X045704Y007981D01*
X045661Y007976D01*
X045618Y007975D01*
X045575Y007978D01*
X045533Y007985D01*
X045491Y007996D01*
X045450Y008010D01*
X045411Y008028D01*
X045374Y008050D01*
X045338Y008075D01*
X045305Y008103D01*
X045275Y008133D01*
X045248Y008167D01*
X045224Y008203D01*
X045203Y008241D01*
X045186Y008280D01*
X045173Y008321D01*
X045163Y008363D01*
X045157Y008406D01*
X045155Y008449D01*
X043698Y008449D02*
X043700Y008492D01*
X043706Y008535D01*
X043716Y008577D01*
X043729Y008618D01*
X043746Y008657D01*
X043767Y008695D01*
X043791Y008731D01*
X043818Y008765D01*
X043848Y008795D01*
X043881Y008823D01*
X043917Y008848D01*
X043954Y008870D01*
X043993Y008888D01*
X044034Y008902D01*
X044076Y008913D01*
X044118Y008920D01*
X044161Y008923D01*
X044204Y008922D01*
X044247Y008917D01*
X044289Y008908D01*
X044331Y008896D01*
X044371Y008879D01*
X044409Y008859D01*
X044445Y008836D01*
X044479Y008810D01*
X044511Y008780D01*
X044540Y008748D01*
X044565Y008713D01*
X044588Y008677D01*
X044607Y008638D01*
X044622Y008598D01*
X044634Y008556D01*
X044642Y008514D01*
X044646Y008471D01*
X044646Y008427D01*
X044642Y008384D01*
X044634Y008342D01*
X044622Y008300D01*
X044607Y008260D01*
X044588Y008221D01*
X044565Y008185D01*
X044540Y008150D01*
X044511Y008118D01*
X044479Y008088D01*
X044445Y008062D01*
X044409Y008039D01*
X044371Y008019D01*
X044331Y008002D01*
X044289Y007990D01*
X044247Y007981D01*
X044204Y007976D01*
X044161Y007975D01*
X044118Y007978D01*
X044076Y007985D01*
X044034Y007996D01*
X043993Y008010D01*
X043954Y008028D01*
X043917Y008050D01*
X043881Y008075D01*
X043848Y008103D01*
X043818Y008133D01*
X043791Y008167D01*
X043767Y008203D01*
X043746Y008241D01*
X043729Y008280D01*
X043716Y008321D01*
X043706Y008363D01*
X043700Y008406D01*
X043698Y008449D01*
X039643Y008449D02*
X039645Y008492D01*
X039651Y008535D01*
X039661Y008577D01*
X039674Y008618D01*
X039691Y008657D01*
X039712Y008695D01*
X039736Y008731D01*
X039763Y008765D01*
X039793Y008795D01*
X039826Y008823D01*
X039862Y008848D01*
X039899Y008870D01*
X039938Y008888D01*
X039979Y008902D01*
X040021Y008913D01*
X040063Y008920D01*
X040106Y008923D01*
X040149Y008922D01*
X040192Y008917D01*
X040234Y008908D01*
X040276Y008896D01*
X040316Y008879D01*
X040354Y008859D01*
X040390Y008836D01*
X040424Y008810D01*
X040456Y008780D01*
X040485Y008748D01*
X040510Y008713D01*
X040533Y008677D01*
X040552Y008638D01*
X040567Y008598D01*
X040579Y008556D01*
X040587Y008514D01*
X040591Y008471D01*
X040591Y008427D01*
X040587Y008384D01*
X040579Y008342D01*
X040567Y008300D01*
X040552Y008260D01*
X040533Y008221D01*
X040510Y008185D01*
X040485Y008150D01*
X040456Y008118D01*
X040424Y008088D01*
X040390Y008062D01*
X040354Y008039D01*
X040316Y008019D01*
X040276Y008002D01*
X040234Y007990D01*
X040192Y007981D01*
X040149Y007976D01*
X040106Y007975D01*
X040063Y007978D01*
X040021Y007985D01*
X039979Y007996D01*
X039938Y008010D01*
X039899Y008028D01*
X039862Y008050D01*
X039826Y008075D01*
X039793Y008103D01*
X039763Y008133D01*
X039736Y008167D01*
X039712Y008203D01*
X039691Y008241D01*
X039674Y008280D01*
X039661Y008321D01*
X039651Y008363D01*
X039645Y008406D01*
X039643Y008449D01*
X038187Y008449D02*
X038189Y008492D01*
X038195Y008535D01*
X038205Y008577D01*
X038218Y008618D01*
X038235Y008657D01*
X038256Y008695D01*
X038280Y008731D01*
X038307Y008765D01*
X038337Y008795D01*
X038370Y008823D01*
X038406Y008848D01*
X038443Y008870D01*
X038482Y008888D01*
X038523Y008902D01*
X038565Y008913D01*
X038607Y008920D01*
X038650Y008923D01*
X038693Y008922D01*
X038736Y008917D01*
X038778Y008908D01*
X038820Y008896D01*
X038860Y008879D01*
X038898Y008859D01*
X038934Y008836D01*
X038968Y008810D01*
X039000Y008780D01*
X039029Y008748D01*
X039054Y008713D01*
X039077Y008677D01*
X039096Y008638D01*
X039111Y008598D01*
X039123Y008556D01*
X039131Y008514D01*
X039135Y008471D01*
X039135Y008427D01*
X039131Y008384D01*
X039123Y008342D01*
X039111Y008300D01*
X039096Y008260D01*
X039077Y008221D01*
X039054Y008185D01*
X039029Y008150D01*
X039000Y008118D01*
X038968Y008088D01*
X038934Y008062D01*
X038898Y008039D01*
X038860Y008019D01*
X038820Y008002D01*
X038778Y007990D01*
X038736Y007981D01*
X038693Y007976D01*
X038650Y007975D01*
X038607Y007978D01*
X038565Y007985D01*
X038523Y007996D01*
X038482Y008010D01*
X038443Y008028D01*
X038406Y008050D01*
X038370Y008075D01*
X038337Y008103D01*
X038307Y008133D01*
X038280Y008167D01*
X038256Y008203D01*
X038235Y008241D01*
X038218Y008280D01*
X038205Y008321D01*
X038195Y008363D01*
X038189Y008406D01*
X038187Y008449D01*
X034132Y008449D02*
X034134Y008492D01*
X034140Y008535D01*
X034150Y008577D01*
X034163Y008618D01*
X034180Y008657D01*
X034201Y008695D01*
X034225Y008731D01*
X034252Y008765D01*
X034282Y008795D01*
X034315Y008823D01*
X034351Y008848D01*
X034388Y008870D01*
X034427Y008888D01*
X034468Y008902D01*
X034510Y008913D01*
X034552Y008920D01*
X034595Y008923D01*
X034638Y008922D01*
X034681Y008917D01*
X034723Y008908D01*
X034765Y008896D01*
X034805Y008879D01*
X034843Y008859D01*
X034879Y008836D01*
X034913Y008810D01*
X034945Y008780D01*
X034974Y008748D01*
X034999Y008713D01*
X035022Y008677D01*
X035041Y008638D01*
X035056Y008598D01*
X035068Y008556D01*
X035076Y008514D01*
X035080Y008471D01*
X035080Y008427D01*
X035076Y008384D01*
X035068Y008342D01*
X035056Y008300D01*
X035041Y008260D01*
X035022Y008221D01*
X034999Y008185D01*
X034974Y008150D01*
X034945Y008118D01*
X034913Y008088D01*
X034879Y008062D01*
X034843Y008039D01*
X034805Y008019D01*
X034765Y008002D01*
X034723Y007990D01*
X034681Y007981D01*
X034638Y007976D01*
X034595Y007975D01*
X034552Y007978D01*
X034510Y007985D01*
X034468Y007996D01*
X034427Y008010D01*
X034388Y008028D01*
X034351Y008050D01*
X034315Y008075D01*
X034282Y008103D01*
X034252Y008133D01*
X034225Y008167D01*
X034201Y008203D01*
X034180Y008241D01*
X034163Y008280D01*
X034150Y008321D01*
X034140Y008363D01*
X034134Y008406D01*
X034132Y008449D01*
X032675Y008449D02*
X032677Y008492D01*
X032683Y008535D01*
X032693Y008577D01*
X032706Y008618D01*
X032723Y008657D01*
X032744Y008695D01*
X032768Y008731D01*
X032795Y008765D01*
X032825Y008795D01*
X032858Y008823D01*
X032894Y008848D01*
X032931Y008870D01*
X032970Y008888D01*
X033011Y008902D01*
X033053Y008913D01*
X033095Y008920D01*
X033138Y008923D01*
X033181Y008922D01*
X033224Y008917D01*
X033266Y008908D01*
X033308Y008896D01*
X033348Y008879D01*
X033386Y008859D01*
X033422Y008836D01*
X033456Y008810D01*
X033488Y008780D01*
X033517Y008748D01*
X033542Y008713D01*
X033565Y008677D01*
X033584Y008638D01*
X033599Y008598D01*
X033611Y008556D01*
X033619Y008514D01*
X033623Y008471D01*
X033623Y008427D01*
X033619Y008384D01*
X033611Y008342D01*
X033599Y008300D01*
X033584Y008260D01*
X033565Y008221D01*
X033542Y008185D01*
X033517Y008150D01*
X033488Y008118D01*
X033456Y008088D01*
X033422Y008062D01*
X033386Y008039D01*
X033348Y008019D01*
X033308Y008002D01*
X033266Y007990D01*
X033224Y007981D01*
X033181Y007976D01*
X033138Y007975D01*
X033095Y007978D01*
X033053Y007985D01*
X033011Y007996D01*
X032970Y008010D01*
X032931Y008028D01*
X032894Y008050D01*
X032858Y008075D01*
X032825Y008103D01*
X032795Y008133D01*
X032768Y008167D01*
X032744Y008203D01*
X032723Y008241D01*
X032706Y008280D01*
X032693Y008321D01*
X032683Y008363D01*
X032677Y008406D01*
X032675Y008449D01*
X028620Y008449D02*
X028622Y008492D01*
X028628Y008535D01*
X028638Y008577D01*
X028651Y008618D01*
X028668Y008657D01*
X028689Y008695D01*
X028713Y008731D01*
X028740Y008765D01*
X028770Y008795D01*
X028803Y008823D01*
X028839Y008848D01*
X028876Y008870D01*
X028915Y008888D01*
X028956Y008902D01*
X028998Y008913D01*
X029040Y008920D01*
X029083Y008923D01*
X029126Y008922D01*
X029169Y008917D01*
X029211Y008908D01*
X029253Y008896D01*
X029293Y008879D01*
X029331Y008859D01*
X029367Y008836D01*
X029401Y008810D01*
X029433Y008780D01*
X029462Y008748D01*
X029487Y008713D01*
X029510Y008677D01*
X029529Y008638D01*
X029544Y008598D01*
X029556Y008556D01*
X029564Y008514D01*
X029568Y008471D01*
X029568Y008427D01*
X029564Y008384D01*
X029556Y008342D01*
X029544Y008300D01*
X029529Y008260D01*
X029510Y008221D01*
X029487Y008185D01*
X029462Y008150D01*
X029433Y008118D01*
X029401Y008088D01*
X029367Y008062D01*
X029331Y008039D01*
X029293Y008019D01*
X029253Y008002D01*
X029211Y007990D01*
X029169Y007981D01*
X029126Y007976D01*
X029083Y007975D01*
X029040Y007978D01*
X028998Y007985D01*
X028956Y007996D01*
X028915Y008010D01*
X028876Y008028D01*
X028839Y008050D01*
X028803Y008075D01*
X028770Y008103D01*
X028740Y008133D01*
X028713Y008167D01*
X028689Y008203D01*
X028668Y008241D01*
X028651Y008280D01*
X028638Y008321D01*
X028628Y008363D01*
X028622Y008406D01*
X028620Y008449D01*
D13*
X031515Y000693D03*
X040176Y000693D03*
X048838Y000693D03*
X057499Y000693D03*
X066161Y000693D03*
X074822Y000693D03*
D14*
X073641Y002544D02*
X074126Y003029D01*
X073641Y002544D02*
X067735Y002544D01*
X067342Y002150D01*
X066343Y002150D01*
X065465Y003029D01*
X064980Y002544D01*
X059074Y002544D01*
X058680Y002150D01*
X057893Y002150D01*
X057014Y003029D01*
X056803Y003029D01*
X056318Y002544D01*
X050413Y002544D01*
X050019Y002150D01*
X049231Y002150D01*
X048353Y003029D01*
X048142Y003029D01*
X047657Y002544D01*
X041751Y002544D01*
X041357Y002150D01*
X040570Y002150D01*
X039691Y003029D01*
X039480Y003029D01*
X038995Y002544D01*
X033090Y002544D01*
X032696Y002150D01*
X031909Y002150D01*
X031030Y003029D01*
X030819Y003029D01*
X031515Y003725D02*
X032696Y003725D01*
X033877Y004906D01*
X037814Y004906D01*
X038995Y003725D01*
X040176Y003725D01*
X041357Y003725D01*
X042539Y004906D01*
X046476Y004906D01*
X047657Y003725D01*
X048838Y003725D01*
X050019Y003725D01*
X051200Y004906D01*
X055137Y004906D01*
X056318Y003725D01*
X057499Y003725D01*
X058680Y003725D01*
X059861Y004906D01*
X063798Y004906D01*
X064980Y003725D01*
X066161Y003725D01*
X065465Y004421D02*
X066737Y005693D01*
X072854Y005693D01*
X074126Y004421D01*
X074822Y003725D02*
X074822Y007268D01*
X075216Y007662D01*
X070098Y007662D01*
X069704Y007662D01*
X064192Y007662D01*
X060649Y006481D02*
X055137Y006481D01*
X049625Y006481D01*
X044113Y006481D01*
X038602Y006481D01*
X033090Y006481D01*
X032091Y005693D02*
X037814Y005693D01*
X039087Y004421D01*
X039480Y004421D01*
X040753Y005693D01*
X046476Y005693D01*
X047748Y004421D01*
X048142Y004421D01*
X049414Y005693D01*
X055137Y005693D01*
X056410Y004421D01*
X056803Y004421D01*
X058076Y005693D01*
X063798Y005693D01*
X065071Y004421D01*
X065465Y004421D01*
X058680Y007662D02*
X053169Y007662D01*
X047657Y007662D01*
X042145Y007662D01*
X036633Y007662D01*
X031515Y007662D01*
X030334Y006874D02*
X030334Y009630D01*
X031121Y010418D01*
X033090Y010418D01*
X038602Y010418D01*
X044113Y010418D01*
X049625Y010418D01*
X055137Y010418D01*
X060649Y010418D01*
X066161Y010418D01*
X071672Y010418D01*
X077184Y010418D01*
X075216Y009237D02*
X069704Y009237D01*
X064192Y009237D01*
X058680Y009237D01*
X053169Y009237D01*
X047657Y009237D01*
X042145Y009237D01*
X036633Y009237D01*
X031121Y009237D01*
X030334Y006874D02*
X030819Y006389D01*
X030819Y004421D01*
X032091Y005693D01*
D15*
X033090Y006481D03*
X031515Y007662D03*
X031121Y009237D03*
X033090Y010418D03*
X036633Y009237D03*
X038602Y010418D03*
X042145Y009237D03*
X044113Y010418D03*
X047657Y009237D03*
X049625Y010418D03*
X053169Y009237D03*
X055137Y010418D03*
X058680Y009237D03*
X060649Y010418D03*
X064192Y009237D03*
X066161Y010418D03*
X069704Y009237D03*
X071672Y010418D03*
X075216Y009237D03*
X077184Y010418D03*
X075216Y007662D03*
X069704Y007662D03*
X064192Y007662D03*
X060649Y006481D03*
X058680Y007662D03*
X055137Y006481D03*
X053169Y007662D03*
X049625Y006481D03*
X047657Y007662D03*
X044113Y006481D03*
X042145Y007662D03*
X038602Y006481D03*
X036633Y007662D03*
D16*
X029940Y005300D03*
D17*
X029636Y005572D02*
X027972Y005572D01*
X027972Y005730D02*
X030459Y005730D01*
X030459Y005572D02*
X030244Y005572D01*
X030286Y005531D02*
X030171Y005645D01*
X030021Y005707D01*
X029859Y005707D01*
X029709Y005645D01*
X029594Y005531D01*
X029532Y005381D01*
X029532Y005218D01*
X029594Y005069D01*
X029709Y004954D01*
X029859Y004892D01*
X030021Y004892D01*
X030171Y004954D01*
X030286Y005069D01*
X030348Y005218D01*
X030348Y005381D01*
X030286Y005531D01*
X030334Y005413D02*
X030459Y005413D01*
X030459Y005255D02*
X030348Y005255D01*
X030297Y005096D02*
X030459Y005096D01*
X030459Y004938D02*
X030132Y004938D01*
X030349Y004735D02*
X030265Y004531D01*
X030265Y004310D01*
X030349Y004107D01*
X030505Y003951D01*
X030709Y003866D01*
X030929Y003866D01*
X030983Y003889D01*
X030961Y003835D01*
X030961Y003614D01*
X030983Y003561D01*
X030929Y003583D01*
X030709Y003583D01*
X030505Y003499D01*
X030349Y003343D01*
X030265Y003139D01*
X030265Y002918D01*
X030349Y002715D01*
X030505Y002559D01*
X030709Y002474D01*
X030929Y002474D01*
X031032Y002517D01*
X031603Y001946D01*
X031705Y001845D01*
X031837Y001790D01*
X032624Y001790D01*
X032768Y001790D01*
X032900Y001845D01*
X033239Y002184D01*
X038924Y002184D01*
X039067Y002184D01*
X039199Y002238D01*
X039435Y002474D01*
X039591Y002474D01*
X039694Y002517D01*
X040265Y001946D01*
X040366Y001845D01*
X040498Y001790D01*
X041429Y001790D01*
X041561Y001845D01*
X041663Y001946D01*
X041900Y002184D01*
X047728Y002184D01*
X047861Y002238D01*
X047962Y002340D01*
X048097Y002474D01*
X048252Y002474D01*
X048355Y002517D01*
X049028Y001845D01*
X049160Y001790D01*
X049303Y001790D01*
X050091Y001790D01*
X050223Y001845D01*
X050324Y001946D01*
X050562Y002184D01*
X056246Y002184D01*
X056390Y002184D01*
X056522Y002238D01*
X056758Y002474D01*
X056913Y002474D01*
X057017Y002517D01*
X057689Y001845D01*
X057821Y001790D01*
X057965Y001790D01*
X058752Y001790D01*
X058884Y001845D01*
X058985Y001946D01*
X059223Y002184D01*
X064908Y002184D01*
X065051Y002184D01*
X065183Y002238D01*
X065419Y002474D01*
X065510Y002474D01*
X066038Y001946D01*
X066140Y001845D01*
X066272Y001790D01*
X067270Y001790D01*
X067413Y001790D01*
X067546Y001845D01*
X067885Y002184D01*
X073569Y002184D01*
X073713Y002184D01*
X073845Y002238D01*
X074081Y002474D01*
X074236Y002474D01*
X074440Y002559D01*
X074596Y002715D01*
X074680Y002918D01*
X074680Y003139D01*
X074658Y003193D01*
X074712Y003170D01*
X074728Y003170D01*
X074495Y001152D01*
X074455Y001123D01*
X074392Y001061D01*
X074340Y000989D01*
X074299Y000910D01*
X074272Y000825D01*
X074259Y000741D01*
X074447Y000741D01*
X074436Y000645D01*
X074259Y000645D01*
X074270Y000575D01*
X072253Y000575D01*
X072262Y000579D01*
X072456Y000773D01*
X072562Y001028D01*
X072562Y001303D01*
X072456Y001558D01*
X072262Y001753D01*
X072007Y001858D01*
X071731Y001858D01*
X071477Y001753D01*
X071282Y001558D01*
X071177Y001303D01*
X071177Y001028D01*
X071282Y000773D01*
X071477Y000579D01*
X071485Y000575D01*
X069497Y000575D01*
X069506Y000579D01*
X069701Y000773D01*
X069806Y001028D01*
X069806Y001303D01*
X069701Y001558D01*
X069506Y001753D01*
X069251Y001858D01*
X068976Y001858D01*
X068721Y001753D01*
X068526Y001558D01*
X068421Y001303D01*
X068421Y001028D01*
X068526Y000773D01*
X068721Y000579D01*
X068729Y000575D01*
X066713Y000575D01*
X066724Y000645D01*
X066209Y000645D01*
X066209Y000741D01*
X066724Y000741D01*
X066711Y000825D01*
X066683Y000910D01*
X066643Y000989D01*
X066591Y001061D01*
X066528Y001123D01*
X066456Y001175D01*
X066377Y001216D01*
X066293Y001243D01*
X066209Y001256D01*
X066209Y000741D01*
X066113Y000741D01*
X066113Y001256D01*
X066029Y001243D01*
X065944Y001216D01*
X065865Y001175D01*
X065793Y001123D01*
X065731Y001061D01*
X065678Y000989D01*
X065638Y000910D01*
X065611Y000825D01*
X065597Y000741D01*
X066112Y000741D01*
X066112Y000645D01*
X065597Y000645D01*
X065608Y000575D01*
X063592Y000575D01*
X063600Y000579D01*
X063795Y000773D01*
X063900Y001028D01*
X063900Y001303D01*
X063795Y001558D01*
X063600Y001753D01*
X063346Y001858D01*
X063070Y001858D01*
X062816Y001753D01*
X062621Y001558D01*
X062515Y001303D01*
X062515Y001028D01*
X062621Y000773D01*
X062816Y000579D01*
X062824Y000575D01*
X060836Y000575D01*
X060844Y000579D01*
X061039Y000773D01*
X061145Y001028D01*
X061145Y001303D01*
X061039Y001558D01*
X060844Y001753D01*
X060590Y001858D01*
X060314Y001858D01*
X060060Y001753D01*
X059865Y001558D01*
X059759Y001303D01*
X059759Y001028D01*
X059865Y000773D01*
X060060Y000579D01*
X060068Y000575D01*
X058051Y000575D01*
X058062Y000645D01*
X057547Y000645D01*
X057547Y000741D01*
X057451Y000741D01*
X057451Y000645D01*
X056936Y000645D01*
X056947Y000575D01*
X054931Y000575D01*
X054939Y000579D01*
X055134Y000773D01*
X055239Y001028D01*
X055239Y001303D01*
X055134Y001558D01*
X054939Y001753D01*
X054684Y001858D01*
X054409Y001858D01*
X054154Y001753D01*
X053959Y001558D01*
X053854Y001303D01*
X053854Y001028D01*
X053959Y000773D01*
X054154Y000579D01*
X054162Y000575D01*
X052175Y000575D01*
X052183Y000579D01*
X052378Y000773D01*
X052483Y001028D01*
X052483Y001303D01*
X052378Y001558D01*
X052183Y001753D01*
X051928Y001858D01*
X051653Y001858D01*
X051398Y001753D01*
X051203Y001558D01*
X051098Y001303D01*
X051098Y001028D01*
X051203Y000773D01*
X051398Y000579D01*
X051406Y000575D01*
X049390Y000575D01*
X049401Y000645D01*
X048886Y000645D01*
X048886Y000741D01*
X049401Y000741D01*
X049388Y000825D01*
X049360Y000910D01*
X049320Y000989D01*
X049268Y001061D01*
X049205Y001123D01*
X049133Y001175D01*
X049054Y001216D01*
X048970Y001243D01*
X048886Y001256D01*
X048886Y000741D01*
X048790Y000741D01*
X048790Y000645D01*
X048274Y000645D01*
X048286Y000575D01*
X046269Y000575D01*
X046277Y000579D01*
X046472Y000773D01*
X046578Y001028D01*
X046578Y001303D01*
X046472Y001558D01*
X046277Y001753D01*
X046023Y001858D01*
X045747Y001858D01*
X045493Y001753D01*
X045298Y001558D01*
X045192Y001303D01*
X045192Y001028D01*
X045298Y000773D01*
X045493Y000579D01*
X045501Y000575D01*
X043513Y000575D01*
X043521Y000579D01*
X043716Y000773D01*
X043822Y001028D01*
X043822Y001303D01*
X043716Y001558D01*
X043521Y001753D01*
X043267Y001858D01*
X042991Y001858D01*
X042737Y001753D01*
X042542Y001558D01*
X042437Y001303D01*
X042437Y001028D01*
X042542Y000773D01*
X042737Y000579D01*
X042745Y000575D01*
X040729Y000575D01*
X040740Y000645D01*
X040225Y000645D01*
X040225Y000741D01*
X040740Y000741D01*
X040726Y000825D01*
X040699Y000910D01*
X040659Y000989D01*
X040606Y001061D01*
X040544Y001123D01*
X040472Y001175D01*
X040393Y001216D01*
X040308Y001243D01*
X040224Y001256D01*
X040224Y000741D01*
X040128Y000741D01*
X040128Y000645D01*
X039613Y000645D01*
X039624Y000575D01*
X037608Y000575D01*
X037616Y000579D01*
X037811Y000773D01*
X037916Y001028D01*
X037916Y001303D01*
X037811Y001558D01*
X037616Y001753D01*
X037361Y001858D01*
X037086Y001858D01*
X036831Y001753D01*
X036636Y001558D01*
X036531Y001303D01*
X036531Y001028D01*
X036636Y000773D01*
X036831Y000579D01*
X036840Y000575D01*
X034852Y000575D01*
X034860Y000579D01*
X035055Y000773D01*
X035160Y001028D01*
X035160Y001303D01*
X035055Y001558D01*
X034860Y001753D01*
X034605Y001858D01*
X034330Y001858D01*
X034075Y001753D01*
X033881Y001558D01*
X033775Y001303D01*
X033775Y001028D01*
X033881Y000773D01*
X034075Y000579D01*
X034084Y000575D01*
X032067Y000575D01*
X032078Y000645D01*
X031563Y000645D01*
X031563Y000741D01*
X032078Y000741D01*
X032065Y000825D01*
X032037Y000910D01*
X031997Y000989D01*
X031945Y001061D01*
X031882Y001123D01*
X031810Y001175D01*
X031731Y001216D01*
X031647Y001243D01*
X031563Y001256D01*
X031563Y000741D01*
X031467Y000741D01*
X031467Y000645D01*
X030952Y000645D01*
X030963Y000575D01*
X028946Y000575D01*
X028955Y000579D01*
X029149Y000773D01*
X029255Y001028D01*
X029255Y001303D01*
X029149Y001558D01*
X028955Y001753D01*
X028700Y001858D01*
X028424Y001858D01*
X028170Y001753D01*
X027975Y001558D01*
X027972Y001550D01*
X027972Y003211D01*
X028120Y003062D01*
X028407Y002944D01*
X028718Y002944D01*
X029005Y003062D01*
X029224Y003282D01*
X029343Y003569D01*
X029343Y003880D01*
X029224Y004167D01*
X029005Y004387D01*
X028718Y004506D01*
X028407Y004506D01*
X028120Y004387D01*
X027972Y004239D01*
X027972Y010658D01*
X028237Y010811D01*
X075609Y010811D01*
X075606Y010778D01*
X071818Y010778D01*
X071750Y010806D01*
X071595Y010806D01*
X071527Y010778D01*
X066306Y010778D01*
X066238Y010806D01*
X066083Y010806D01*
X066016Y010778D01*
X060794Y010778D01*
X060726Y010806D01*
X060572Y010806D01*
X060504Y010778D01*
X055282Y010778D01*
X055214Y010806D01*
X055060Y010806D01*
X054992Y010778D01*
X049770Y010778D01*
X049702Y010806D01*
X049548Y010806D01*
X049480Y010778D01*
X044258Y010778D01*
X044191Y010806D01*
X044036Y010806D01*
X043968Y010778D01*
X038747Y010778D01*
X038679Y010806D01*
X038524Y010806D01*
X038456Y010778D01*
X033235Y010778D01*
X033167Y010806D01*
X033013Y010806D01*
X032945Y010778D01*
X031050Y010778D01*
X030917Y010723D01*
X030816Y010622D01*
X030029Y009834D01*
X029974Y009702D01*
X029974Y009559D01*
X029974Y006803D01*
X030029Y006670D01*
X030130Y006569D01*
X030459Y006240D01*
X030459Y004845D01*
X030349Y004735D01*
X030394Y004779D02*
X027972Y004779D01*
X027972Y004621D02*
X030302Y004621D01*
X030265Y004462D02*
X028823Y004462D01*
X029088Y004304D02*
X030267Y004304D01*
X030333Y004145D02*
X029234Y004145D01*
X029299Y003986D02*
X030469Y003986D01*
X030961Y003828D02*
X029343Y003828D01*
X029343Y003669D02*
X030961Y003669D01*
X030534Y003511D02*
X029319Y003511D01*
X029253Y003352D02*
X030359Y003352D01*
X030287Y003194D02*
X029136Y003194D01*
X028939Y003035D02*
X030265Y003035D01*
X030282Y002877D02*
X027972Y002877D01*
X027972Y003035D02*
X028186Y003035D01*
X027988Y003194D02*
X027972Y003194D01*
X027972Y002718D02*
X030348Y002718D01*
X030504Y002560D02*
X027972Y002560D01*
X027972Y002401D02*
X031148Y002401D01*
X031307Y002242D02*
X027972Y002242D01*
X027972Y002084D02*
X031466Y002084D01*
X031624Y001925D02*
X027972Y001925D01*
X027972Y001767D02*
X028204Y001767D01*
X028025Y001608D02*
X027972Y001608D01*
X028921Y001767D02*
X034109Y001767D01*
X033931Y001608D02*
X029099Y001608D01*
X029194Y001450D02*
X033836Y001450D01*
X033775Y001291D02*
X029255Y001291D01*
X029255Y001133D02*
X031161Y001133D01*
X031148Y001123D02*
X031085Y001061D01*
X031033Y000989D01*
X030992Y000910D01*
X030965Y000825D01*
X030952Y000741D01*
X031467Y000741D01*
X031467Y001256D01*
X031383Y001243D01*
X031299Y001216D01*
X031219Y001175D01*
X031148Y001123D01*
X031025Y000974D02*
X029232Y000974D01*
X029167Y000816D02*
X030963Y000816D01*
X031467Y000816D02*
X031563Y000816D01*
X031563Y000974D02*
X031467Y000974D01*
X031467Y001133D02*
X031563Y001133D01*
X031869Y001133D02*
X033775Y001133D01*
X033797Y000974D02*
X032005Y000974D01*
X032066Y000816D02*
X033863Y000816D01*
X033997Y000657D02*
X031563Y000657D01*
X031467Y000657D02*
X029033Y000657D01*
X032981Y001925D02*
X040285Y001925D01*
X040265Y001946D02*
X040265Y001946D01*
X040127Y002084D02*
X033139Y002084D01*
X034826Y001767D02*
X036865Y001767D01*
X036687Y001608D02*
X035005Y001608D01*
X035100Y001450D02*
X036592Y001450D01*
X036531Y001291D02*
X035160Y001291D01*
X035160Y001133D02*
X036531Y001133D01*
X036553Y000974D02*
X035138Y000974D01*
X035072Y000816D02*
X036619Y000816D01*
X036753Y000657D02*
X034939Y000657D01*
X037694Y000657D02*
X040128Y000657D01*
X040128Y000741D02*
X039613Y000741D01*
X039626Y000825D01*
X039654Y000910D01*
X039694Y000989D01*
X039746Y001061D01*
X039809Y001123D01*
X039881Y001175D01*
X039960Y001216D01*
X040044Y001243D01*
X040128Y001256D01*
X040128Y000741D01*
X040128Y000816D02*
X040224Y000816D01*
X040224Y000974D02*
X040128Y000974D01*
X040128Y001133D02*
X040224Y001133D01*
X040531Y001133D02*
X042437Y001133D01*
X042437Y001291D02*
X037916Y001291D01*
X037916Y001133D02*
X039822Y001133D01*
X039687Y000974D02*
X037894Y000974D01*
X037828Y000816D02*
X039625Y000816D01*
X040225Y000657D02*
X042658Y000657D01*
X042524Y000816D02*
X040728Y000816D01*
X040666Y000974D02*
X042459Y000974D01*
X043600Y000657D02*
X045414Y000657D01*
X045280Y000816D02*
X043734Y000816D01*
X043799Y000974D02*
X045215Y000974D01*
X045192Y001133D02*
X043822Y001133D01*
X043822Y001291D02*
X045192Y001291D01*
X045253Y001450D02*
X043761Y001450D01*
X043666Y001608D02*
X045348Y001608D01*
X045527Y001767D02*
X043488Y001767D01*
X042771Y001767D02*
X037582Y001767D01*
X037760Y001608D02*
X042592Y001608D01*
X042497Y001450D02*
X037856Y001450D01*
X039203Y002242D02*
X039968Y002242D01*
X039810Y002401D02*
X039362Y002401D01*
X041642Y001925D02*
X048947Y001925D01*
X048788Y002084D02*
X041801Y002084D01*
X046243Y001767D02*
X051432Y001767D01*
X051254Y001608D02*
X046422Y001608D01*
X046517Y001450D02*
X051159Y001450D01*
X051098Y001291D02*
X046578Y001291D01*
X046578Y001133D02*
X048483Y001133D01*
X048470Y001123D02*
X048408Y001061D01*
X048356Y000989D01*
X048315Y000910D01*
X048288Y000825D01*
X048274Y000741D01*
X048790Y000741D01*
X048790Y001256D01*
X048706Y001243D01*
X048621Y001216D01*
X048542Y001175D01*
X048470Y001123D01*
X048348Y000974D02*
X046555Y000974D01*
X046490Y000816D02*
X048286Y000816D01*
X048790Y000816D02*
X048886Y000816D01*
X048886Y000974D02*
X048790Y000974D01*
X048790Y001133D02*
X048886Y001133D01*
X049192Y001133D02*
X051098Y001133D01*
X051120Y000974D02*
X049327Y000974D01*
X049389Y000816D02*
X051186Y000816D01*
X051320Y000657D02*
X048886Y000657D01*
X048790Y000657D02*
X046356Y000657D01*
X050303Y001925D02*
X057608Y001925D01*
X057450Y002084D02*
X050462Y002084D01*
X050324Y001946D02*
X050324Y001946D01*
X048630Y002242D02*
X047865Y002242D01*
X048023Y002401D02*
X048471Y002401D01*
X052149Y001767D02*
X054188Y001767D01*
X054010Y001608D02*
X052327Y001608D01*
X052423Y001450D02*
X053914Y001450D01*
X053854Y001291D02*
X052483Y001291D01*
X052483Y001133D02*
X053854Y001133D01*
X053876Y000974D02*
X052461Y000974D01*
X052395Y000816D02*
X053942Y000816D01*
X054076Y000657D02*
X052261Y000657D01*
X055017Y000657D02*
X057451Y000657D01*
X057451Y000741D02*
X056936Y000741D01*
X056949Y000825D01*
X056977Y000910D01*
X057017Y000989D01*
X057069Y001061D01*
X057132Y001123D01*
X057204Y001175D01*
X057283Y001216D01*
X057367Y001243D01*
X057451Y001256D01*
X057451Y000741D01*
X057451Y000816D02*
X057547Y000816D01*
X057547Y000741D02*
X057547Y001256D01*
X057631Y001243D01*
X057716Y001216D01*
X057795Y001175D01*
X057867Y001123D01*
X057929Y001061D01*
X057981Y000989D01*
X058022Y000910D01*
X058049Y000825D01*
X058062Y000741D01*
X057547Y000741D01*
X057547Y000657D02*
X059981Y000657D01*
X059847Y000816D02*
X058051Y000816D01*
X057989Y000974D02*
X059782Y000974D01*
X059759Y001133D02*
X057854Y001133D01*
X057547Y001133D02*
X057451Y001133D01*
X057451Y000974D02*
X057547Y000974D01*
X057145Y001133D02*
X055239Y001133D01*
X055239Y001291D02*
X059759Y001291D01*
X059820Y001450D02*
X055178Y001450D01*
X055083Y001608D02*
X059915Y001608D01*
X060094Y001767D02*
X054905Y001767D01*
X056526Y002242D02*
X057291Y002242D01*
X057133Y002401D02*
X056685Y002401D01*
X058965Y001925D02*
X066059Y001925D01*
X065900Y002084D02*
X059123Y002084D01*
X060810Y001767D02*
X062849Y001767D01*
X062671Y001608D02*
X060989Y001608D01*
X061084Y001450D02*
X062576Y001450D01*
X062515Y001291D02*
X061145Y001291D01*
X061145Y001133D02*
X062515Y001133D01*
X062538Y000974D02*
X061122Y000974D01*
X061057Y000816D02*
X062603Y000816D01*
X062737Y000657D02*
X060923Y000657D01*
X063679Y000657D02*
X066112Y000657D01*
X066209Y000657D02*
X068642Y000657D01*
X068509Y000816D02*
X066712Y000816D01*
X066650Y000974D02*
X068443Y000974D01*
X068421Y001133D02*
X066515Y001133D01*
X066209Y001133D02*
X066113Y001133D01*
X066113Y000974D02*
X066209Y000974D01*
X066209Y000816D02*
X066113Y000816D01*
X065671Y000974D02*
X063878Y000974D01*
X063900Y001133D02*
X065806Y001133D01*
X065609Y000816D02*
X063812Y000816D01*
X063900Y001291D02*
X068421Y001291D01*
X068481Y001450D02*
X063840Y001450D01*
X063745Y001608D02*
X068577Y001608D01*
X068755Y001767D02*
X063566Y001767D01*
X065187Y002242D02*
X065742Y002242D01*
X065583Y002401D02*
X065346Y002401D01*
X067052Y002510D02*
X067171Y002559D01*
X067327Y002715D01*
X067411Y002918D01*
X067411Y003139D01*
X067327Y003343D01*
X067171Y003499D01*
X066967Y003583D01*
X066746Y003583D01*
X066693Y003561D01*
X066715Y003614D01*
X066715Y003835D01*
X066681Y003916D01*
X066731Y003900D01*
X066815Y003886D01*
X066818Y003886D01*
X066818Y004382D01*
X066895Y004382D01*
X066895Y003886D01*
X066899Y003886D01*
X066982Y003900D01*
X067062Y003926D01*
X067137Y003964D01*
X067205Y004013D01*
X067264Y004073D01*
X067314Y004141D01*
X067352Y004216D01*
X067378Y004296D01*
X067391Y004379D01*
X067391Y004383D01*
X066895Y004383D01*
X066895Y004459D01*
X067391Y004459D01*
X067391Y004463D01*
X067378Y004546D01*
X067352Y004626D01*
X067314Y004701D01*
X067264Y004769D01*
X067205Y004828D01*
X067137Y004878D01*
X067062Y004916D01*
X066982Y004942D01*
X066899Y004955D01*
X066895Y004955D01*
X066895Y004459D01*
X066818Y004459D01*
X066818Y004383D01*
X066322Y004383D01*
X066322Y004379D01*
X066335Y004296D01*
X066352Y004246D01*
X066271Y004279D01*
X066050Y004279D01*
X065997Y004257D01*
X066019Y004310D01*
X066019Y004466D01*
X066886Y005333D01*
X072704Y005333D01*
X073572Y004466D01*
X073572Y004310D01*
X073656Y004107D01*
X073812Y003951D01*
X074016Y003866D01*
X074236Y003866D01*
X074290Y003889D01*
X074268Y003835D01*
X074268Y003614D01*
X074290Y003561D01*
X074236Y003583D01*
X074016Y003583D01*
X073812Y003499D01*
X073656Y003343D01*
X073572Y003139D01*
X073572Y002984D01*
X073492Y002904D01*
X067664Y002904D01*
X067531Y002849D01*
X067430Y002748D01*
X067193Y002510D01*
X067052Y002510D01*
X067171Y002560D02*
X067242Y002560D01*
X067328Y002718D02*
X067401Y002718D01*
X067394Y002877D02*
X067599Y002877D01*
X067411Y003035D02*
X068737Y003035D01*
X068671Y003062D02*
X068958Y002944D01*
X069269Y002944D01*
X069556Y003062D01*
X069776Y003282D01*
X069895Y003569D01*
X069895Y003880D01*
X069776Y004167D01*
X069556Y004387D01*
X069269Y004506D01*
X068958Y004506D01*
X068671Y004387D01*
X068451Y004167D01*
X068332Y003880D01*
X068332Y003569D01*
X068451Y003282D01*
X068671Y003062D01*
X068540Y003194D02*
X067388Y003194D01*
X067317Y003352D02*
X068422Y003352D01*
X068356Y003511D02*
X067141Y003511D01*
X066715Y003669D02*
X068332Y003669D01*
X068332Y003828D02*
X066715Y003828D01*
X066818Y003986D02*
X066895Y003986D01*
X066895Y004145D02*
X066818Y004145D01*
X066818Y004304D02*
X066895Y004304D01*
X066895Y004462D02*
X066818Y004462D01*
X066818Y004459D02*
X066818Y004955D01*
X066815Y004955D01*
X066731Y004942D01*
X066651Y004916D01*
X066577Y004878D01*
X066509Y004828D01*
X066449Y004769D01*
X066400Y004701D01*
X066361Y004626D01*
X066335Y004546D01*
X066322Y004463D01*
X066322Y004459D01*
X066818Y004459D01*
X066818Y004621D02*
X066895Y004621D01*
X066895Y004779D02*
X066818Y004779D01*
X066818Y004938D02*
X066895Y004938D01*
X066994Y004938D02*
X073100Y004938D01*
X072941Y005096D02*
X066649Y005096D01*
X066719Y004938D02*
X066491Y004938D01*
X066459Y004779D02*
X066332Y004779D01*
X066360Y004621D02*
X066174Y004621D01*
X066322Y004462D02*
X066019Y004462D01*
X066016Y004304D02*
X066334Y004304D01*
X067168Y003986D02*
X068376Y003986D01*
X068442Y004145D02*
X067316Y004145D01*
X067379Y004304D02*
X068587Y004304D01*
X068852Y004462D02*
X067391Y004462D01*
X067353Y004621D02*
X073417Y004621D01*
X073572Y004462D02*
X072130Y004462D01*
X072025Y004506D02*
X071714Y004506D01*
X071427Y004387D01*
X071207Y004167D01*
X071088Y003880D01*
X071088Y003569D01*
X071207Y003282D01*
X071427Y003062D01*
X071714Y002944D01*
X072025Y002944D01*
X072312Y003062D01*
X072531Y003282D01*
X072650Y003569D01*
X072650Y003880D01*
X072531Y004167D01*
X072312Y004387D01*
X072025Y004506D01*
X071608Y004462D02*
X069374Y004462D01*
X069639Y004304D02*
X071343Y004304D01*
X071198Y004145D02*
X069785Y004145D01*
X069851Y003986D02*
X071132Y003986D01*
X071088Y003828D02*
X069895Y003828D01*
X069895Y003669D02*
X071088Y003669D01*
X071112Y003511D02*
X069870Y003511D01*
X069805Y003352D02*
X071178Y003352D01*
X071296Y003194D02*
X069687Y003194D01*
X069490Y003035D02*
X071493Y003035D01*
X072246Y003035D02*
X073572Y003035D01*
X073594Y003194D02*
X072443Y003194D01*
X072561Y003352D02*
X073666Y003352D01*
X073841Y003511D02*
X072626Y003511D01*
X072650Y003669D02*
X074268Y003669D01*
X074268Y003828D02*
X072650Y003828D01*
X072606Y003986D02*
X073776Y003986D01*
X073640Y004145D02*
X072541Y004145D01*
X072395Y004304D02*
X073575Y004304D01*
X073258Y004779D02*
X067254Y004779D01*
X066808Y005255D02*
X072783Y005255D01*
X074680Y003035D02*
X074712Y003035D01*
X074694Y002877D02*
X074663Y002877D01*
X074676Y002718D02*
X074597Y002718D01*
X074657Y002560D02*
X074441Y002560D01*
X074639Y002401D02*
X074007Y002401D01*
X073849Y002242D02*
X074621Y002242D01*
X074602Y002084D02*
X067785Y002084D01*
X067626Y001925D02*
X074584Y001925D01*
X074566Y001767D02*
X072228Y001767D01*
X072406Y001608D02*
X074548Y001608D01*
X074529Y001450D02*
X072501Y001450D01*
X072562Y001291D02*
X074511Y001291D01*
X074468Y001133D02*
X072562Y001133D01*
X072540Y000974D02*
X074332Y000974D01*
X074271Y000816D02*
X072474Y000816D01*
X072340Y000657D02*
X074438Y000657D01*
X071398Y000657D02*
X069584Y000657D01*
X069718Y000816D02*
X071265Y000816D01*
X071199Y000974D02*
X069784Y000974D01*
X069806Y001133D02*
X071177Y001133D01*
X071177Y001291D02*
X069806Y001291D01*
X069745Y001450D02*
X071237Y001450D01*
X071332Y001608D02*
X069650Y001608D01*
X069472Y001767D02*
X071511Y001767D01*
X063717Y005266D02*
X059790Y005266D01*
X059657Y005211D01*
X059556Y005110D01*
X058704Y004257D01*
X058716Y004296D01*
X058729Y004379D01*
X058729Y004383D01*
X058234Y004383D01*
X058234Y004459D01*
X058729Y004459D01*
X058729Y004463D01*
X058716Y004546D01*
X058690Y004626D01*
X058652Y004701D01*
X058603Y004769D01*
X058543Y004828D01*
X058475Y004878D01*
X058400Y004916D01*
X058320Y004942D01*
X058237Y004955D01*
X058233Y004955D01*
X058233Y004459D01*
X058157Y004459D01*
X058157Y004955D01*
X058153Y004955D01*
X058070Y004942D01*
X057990Y004916D01*
X057915Y004878D01*
X057847Y004828D01*
X057788Y004769D01*
X057738Y004701D01*
X057700Y004626D01*
X057674Y004546D01*
X057661Y004463D01*
X057661Y004459D01*
X058157Y004459D01*
X058157Y004383D01*
X057661Y004383D01*
X057661Y004379D01*
X057674Y004296D01*
X057690Y004246D01*
X057609Y004279D01*
X057389Y004279D01*
X057335Y004257D01*
X057358Y004310D01*
X057358Y004466D01*
X058225Y005333D01*
X063649Y005333D01*
X063717Y005266D01*
X059763Y005255D02*
X058146Y005255D01*
X057988Y005096D02*
X059543Y005096D01*
X059384Y004938D02*
X058333Y004938D01*
X058233Y004938D02*
X058157Y004938D01*
X058057Y004938D02*
X057829Y004938D01*
X057798Y004779D02*
X057671Y004779D01*
X057698Y004621D02*
X057512Y004621D01*
X057661Y004462D02*
X057358Y004462D01*
X057355Y004304D02*
X057673Y004304D01*
X058157Y004462D02*
X058233Y004462D01*
X058233Y004621D02*
X058157Y004621D01*
X058157Y004779D02*
X058233Y004779D01*
X058592Y004779D02*
X059226Y004779D01*
X059067Y004621D02*
X058692Y004621D01*
X058729Y004462D02*
X058909Y004462D01*
X058750Y004304D02*
X058718Y004304D01*
X055055Y005266D02*
X051128Y005266D01*
X050996Y005211D01*
X050895Y005110D01*
X050043Y004257D01*
X050055Y004296D01*
X050068Y004379D01*
X050068Y004383D01*
X049572Y004383D01*
X049572Y004459D01*
X049496Y004459D01*
X049496Y004955D01*
X049492Y004955D01*
X049409Y004942D01*
X049329Y004916D01*
X049254Y004878D01*
X049186Y004828D01*
X049126Y004769D01*
X049077Y004701D01*
X049039Y004626D01*
X049013Y004546D01*
X048999Y004463D01*
X048999Y004459D01*
X049495Y004459D01*
X049495Y004383D01*
X048999Y004383D01*
X048999Y004379D01*
X049013Y004296D01*
X049029Y004246D01*
X048948Y004279D01*
X048728Y004279D01*
X048674Y004257D01*
X048696Y004310D01*
X048696Y004466D01*
X049563Y005333D01*
X054988Y005333D01*
X055055Y005266D01*
X051102Y005255D02*
X049485Y005255D01*
X049326Y005096D02*
X050881Y005096D01*
X050723Y004938D02*
X049672Y004938D01*
X049659Y004942D02*
X049576Y004955D01*
X049572Y004955D01*
X049572Y004459D01*
X050068Y004459D01*
X050068Y004463D01*
X050055Y004546D01*
X050029Y004626D01*
X049991Y004701D01*
X049941Y004769D01*
X049882Y004828D01*
X049814Y004878D01*
X049739Y004916D01*
X049659Y004942D01*
X049572Y004938D02*
X049496Y004938D01*
X049396Y004938D02*
X049168Y004938D01*
X049137Y004779D02*
X049009Y004779D01*
X049037Y004621D02*
X048851Y004621D01*
X048999Y004462D02*
X048696Y004462D01*
X048693Y004304D02*
X049011Y004304D01*
X049496Y004462D02*
X049572Y004462D01*
X049572Y004621D02*
X049496Y004621D01*
X049496Y004779D02*
X049572Y004779D01*
X049931Y004779D02*
X050564Y004779D01*
X050406Y004621D02*
X050031Y004621D01*
X050068Y004462D02*
X050247Y004462D01*
X050089Y004304D02*
X050056Y004304D01*
X046394Y005266D02*
X042467Y005266D01*
X042335Y005211D01*
X042233Y005110D01*
X041381Y004257D01*
X041394Y004296D01*
X041407Y004379D01*
X041407Y004383D01*
X040911Y004383D01*
X040911Y004459D01*
X041407Y004459D01*
X041407Y004463D01*
X041394Y004546D01*
X041368Y004626D01*
X041329Y004701D01*
X041280Y004769D01*
X041220Y004828D01*
X041152Y004878D01*
X041077Y004916D01*
X040997Y004942D01*
X040914Y004955D01*
X040910Y004955D01*
X040910Y004459D01*
X040834Y004459D01*
X040834Y004955D01*
X040830Y004955D01*
X040747Y004942D01*
X040667Y004916D01*
X040592Y004878D01*
X040524Y004828D01*
X040465Y004769D01*
X040415Y004701D01*
X040377Y004626D01*
X040351Y004546D01*
X040338Y004463D01*
X040338Y004459D01*
X040834Y004459D01*
X040834Y004383D01*
X040338Y004383D01*
X040338Y004379D01*
X040351Y004296D01*
X040367Y004246D01*
X040287Y004279D01*
X040066Y004279D01*
X040012Y004257D01*
X040035Y004310D01*
X040035Y004466D01*
X040902Y005333D01*
X046326Y005333D01*
X046394Y005266D01*
X042440Y005255D02*
X040824Y005255D01*
X040665Y005096D02*
X042220Y005096D01*
X042061Y004938D02*
X041010Y004938D01*
X040910Y004938D02*
X040834Y004938D01*
X040734Y004938D02*
X040506Y004938D01*
X040475Y004779D02*
X040348Y004779D01*
X040376Y004621D02*
X040189Y004621D01*
X040338Y004462D02*
X040035Y004462D01*
X040032Y004304D02*
X040350Y004304D01*
X040834Y004462D02*
X040910Y004462D01*
X040910Y004621D02*
X040834Y004621D01*
X040834Y004779D02*
X040910Y004779D01*
X041269Y004779D02*
X041903Y004779D01*
X041744Y004621D02*
X041369Y004621D01*
X041407Y004462D02*
X041586Y004462D01*
X041427Y004304D02*
X041395Y004304D01*
X037733Y005266D02*
X033806Y005266D01*
X033673Y005211D01*
X033572Y005110D01*
X033572Y005110D01*
X032720Y004257D01*
X032732Y004296D01*
X032745Y004379D01*
X032745Y004383D01*
X032249Y004383D01*
X032249Y004459D01*
X032173Y004459D01*
X032173Y004955D01*
X032169Y004955D01*
X032086Y004942D01*
X032006Y004916D01*
X031931Y004878D01*
X031863Y004828D01*
X031803Y004769D01*
X031754Y004701D01*
X031716Y004626D01*
X031690Y004546D01*
X031677Y004463D01*
X031677Y004459D01*
X032173Y004459D01*
X032173Y004383D01*
X031677Y004383D01*
X031677Y004379D01*
X031690Y004296D01*
X031706Y004246D01*
X031625Y004279D01*
X031405Y004279D01*
X031351Y004257D01*
X031373Y004310D01*
X031373Y004466D01*
X032241Y005333D01*
X037665Y005333D01*
X037733Y005266D01*
X033779Y005255D02*
X032162Y005255D01*
X032004Y005096D02*
X033559Y005096D01*
X033400Y004938D02*
X032349Y004938D01*
X032336Y004942D02*
X032253Y004955D01*
X032249Y004955D01*
X032249Y004459D01*
X032745Y004459D01*
X032745Y004463D01*
X032732Y004546D01*
X032706Y004626D01*
X032668Y004701D01*
X032618Y004769D01*
X032559Y004828D01*
X032491Y004878D01*
X032416Y004916D01*
X032336Y004942D01*
X032249Y004938D02*
X032173Y004938D01*
X032073Y004938D02*
X031845Y004938D01*
X031814Y004779D02*
X031686Y004779D01*
X031714Y004621D02*
X031528Y004621D01*
X031677Y004462D02*
X031373Y004462D01*
X031370Y004304D02*
X031688Y004304D01*
X032173Y004462D02*
X032249Y004462D01*
X032249Y004621D02*
X032173Y004621D01*
X032173Y004779D02*
X032249Y004779D01*
X032608Y004779D02*
X033241Y004779D01*
X033083Y004621D02*
X032708Y004621D01*
X032745Y004462D02*
X032924Y004462D01*
X032766Y004304D02*
X032733Y004304D01*
X029748Y004938D02*
X027972Y004938D01*
X027972Y005096D02*
X029583Y005096D01*
X029532Y005255D02*
X027972Y005255D01*
X027972Y005413D02*
X029546Y005413D01*
X030459Y005889D02*
X027972Y005889D01*
X027972Y006048D02*
X030459Y006048D01*
X030459Y006206D02*
X027972Y006206D01*
X027972Y006365D02*
X030334Y006365D01*
X030176Y006523D02*
X027972Y006523D01*
X027972Y006682D02*
X030024Y006682D01*
X029974Y006840D02*
X027972Y006840D01*
X027972Y006999D02*
X029974Y006999D01*
X029974Y007157D02*
X027972Y007157D01*
X027972Y007316D02*
X029974Y007316D01*
X029974Y007474D02*
X027972Y007474D01*
X027972Y007633D02*
X029974Y007633D01*
X029974Y007791D02*
X029347Y007791D01*
X029234Y007745D02*
X029493Y007852D01*
X029691Y008050D01*
X029798Y008309D01*
X029798Y008589D01*
X029691Y008848D01*
X029493Y009046D01*
X029234Y009154D01*
X028954Y009154D01*
X028695Y009046D01*
X028497Y008848D01*
X028389Y008589D01*
X028389Y008309D01*
X028497Y008050D01*
X028695Y007852D01*
X028954Y007745D01*
X029234Y007745D01*
X028841Y007791D02*
X027972Y007791D01*
X027972Y007950D02*
X028597Y007950D01*
X028472Y008109D02*
X027972Y008109D01*
X027972Y008267D02*
X028407Y008267D01*
X028389Y008426D02*
X027972Y008426D01*
X027972Y008584D02*
X028389Y008584D01*
X028453Y008743D02*
X027972Y008743D01*
X027972Y008901D02*
X028550Y008901D01*
X028727Y009060D02*
X027972Y009060D01*
X027972Y009218D02*
X029974Y009218D01*
X029974Y009060D02*
X029460Y009060D01*
X029638Y008901D02*
X029974Y008901D01*
X029974Y008743D02*
X029734Y008743D01*
X029798Y008584D02*
X029974Y008584D01*
X029974Y008426D02*
X029798Y008426D01*
X029781Y008267D02*
X029974Y008267D01*
X029974Y008109D02*
X029715Y008109D01*
X029591Y007950D02*
X029974Y007950D01*
X029974Y009377D02*
X027972Y009377D01*
X027972Y009535D02*
X029974Y009535D01*
X029974Y009694D02*
X027972Y009694D01*
X027972Y009853D02*
X030047Y009853D01*
X030206Y010011D02*
X027972Y010011D01*
X027972Y010170D02*
X030364Y010170D01*
X030523Y010328D02*
X027972Y010328D01*
X027972Y010487D02*
X030681Y010487D01*
X030840Y010645D02*
X027972Y010645D01*
X028224Y010804D02*
X033008Y010804D01*
X033172Y010804D02*
X038520Y010804D01*
X038683Y010804D02*
X044032Y010804D01*
X044195Y010804D02*
X049543Y010804D01*
X049707Y010804D02*
X055055Y010804D01*
X055219Y010804D02*
X060567Y010804D01*
X060731Y010804D02*
X066079Y010804D01*
X066242Y010804D02*
X071591Y010804D01*
X071754Y010804D02*
X075609Y010804D01*
X057010Y000974D02*
X055217Y000974D01*
X055151Y000816D02*
X056948Y000816D01*
X028301Y004462D02*
X027972Y004462D01*
X027972Y004304D02*
X028036Y004304D01*
M02*
