G75*
G70*
%OFA0B0*%
%FSLAX24Y24*%
%IPPOS*%
%LPD*%
%AMOC8*
5,1,8,0,0,1.08239X$1,22.5*
%
%ADD10C,0.0060*%
%ADD11C,0.0160*%
%ADD12C,0.0120*%
%ADD13C,0.0070*%
%ADD14C,0.0100*%
%ADD15C,0.0050*%
%ADD16C,0.0079*%
D10*
X029970Y006874D02*
X030397Y007515D01*
X030615Y007194D02*
X031042Y007194D01*
X031259Y007408D02*
X031366Y007515D01*
X031579Y007515D01*
X031686Y007408D01*
X031686Y007301D01*
X031259Y006874D01*
X031686Y006874D01*
X031904Y006981D02*
X032010Y006874D01*
X032224Y006874D01*
X032331Y006981D01*
X032331Y007408D01*
X031904Y006981D01*
X031904Y007408D01*
X032010Y007515D01*
X032224Y007515D01*
X032331Y007408D01*
X032548Y007515D02*
X032548Y007194D01*
X032762Y007301D01*
X032869Y007301D01*
X032975Y007194D01*
X032975Y006981D01*
X032869Y006874D01*
X032655Y006874D01*
X032548Y006981D01*
X032548Y007515D02*
X032975Y007515D01*
X030397Y006874D02*
X029970Y007515D01*
X038632Y007515D02*
X039059Y006874D01*
X038632Y006874D02*
X039059Y007515D01*
X039276Y007194D02*
X039703Y007194D01*
X039921Y007408D02*
X040027Y007515D01*
X040241Y007515D01*
X040348Y007408D01*
X040348Y007301D01*
X039921Y006874D01*
X040348Y006874D01*
X040565Y006981D02*
X040992Y007408D01*
X040992Y006981D01*
X040885Y006874D01*
X040672Y006874D01*
X040565Y006981D01*
X040565Y007408D01*
X040672Y007515D01*
X040885Y007515D01*
X040992Y007408D01*
X041210Y007408D02*
X041316Y007515D01*
X041530Y007515D01*
X041637Y007408D01*
X041637Y007301D01*
X041210Y006874D01*
X041637Y006874D01*
X047293Y006874D02*
X047720Y007515D01*
X047938Y007194D02*
X048365Y007194D01*
X048582Y007408D02*
X048689Y007515D01*
X048902Y007515D01*
X049009Y007408D01*
X049009Y007301D01*
X048582Y006874D01*
X049009Y006874D01*
X049227Y006981D02*
X049333Y006874D01*
X049547Y006874D01*
X049654Y006981D01*
X049654Y007408D01*
X049227Y006981D01*
X049227Y007408D01*
X049333Y007515D01*
X049547Y007515D01*
X049654Y007408D01*
X049871Y007301D02*
X050085Y007515D01*
X050085Y006874D01*
X050298Y006874D02*
X049871Y006874D01*
X047720Y006874D02*
X047293Y007515D01*
X055954Y007515D02*
X056381Y006874D01*
X055954Y006874D02*
X056381Y007515D01*
X056599Y007194D02*
X057026Y007194D01*
X057243Y007408D02*
X057350Y007515D01*
X057564Y007515D01*
X057670Y007408D01*
X057670Y007301D01*
X057243Y006874D01*
X057670Y006874D01*
X057888Y006981D02*
X058315Y007408D01*
X058315Y006981D01*
X058208Y006874D01*
X057995Y006874D01*
X057888Y006981D01*
X057888Y007408D01*
X057995Y007515D01*
X058208Y007515D01*
X058315Y007408D01*
X058533Y007194D02*
X058853Y007515D01*
X058853Y006874D01*
X058960Y007194D02*
X058533Y007194D01*
X060766Y007017D02*
X060766Y006803D01*
X060872Y006696D01*
X060766Y007017D02*
X060872Y007123D01*
X060979Y007123D01*
X061406Y006696D01*
X061406Y007123D01*
X062341Y006910D02*
X062554Y007123D01*
X062981Y007123D01*
X062661Y007123D02*
X062661Y006696D01*
X062554Y006696D02*
X062341Y006910D01*
X062554Y006696D02*
X062981Y006696D01*
X064616Y006874D02*
X065043Y007515D01*
X065260Y007194D02*
X065687Y007194D01*
X065905Y007408D02*
X066012Y007515D01*
X066225Y007515D01*
X066332Y007408D01*
X066332Y007301D01*
X065905Y006874D01*
X066332Y006874D01*
X066549Y006981D02*
X066656Y006874D01*
X066870Y006874D01*
X066976Y006981D01*
X066976Y007408D01*
X066549Y006981D01*
X066549Y007408D01*
X066656Y007515D01*
X066870Y007515D01*
X066976Y007408D01*
X067194Y007408D02*
X067301Y007515D01*
X067514Y007515D01*
X067621Y007408D01*
X067621Y007301D01*
X067514Y007194D01*
X067621Y007088D01*
X067621Y006981D01*
X067514Y006874D01*
X067301Y006874D01*
X067194Y006981D01*
X067407Y007194D02*
X067514Y007194D01*
X065043Y006874D02*
X064616Y007515D01*
X062981Y005834D02*
X062341Y005834D01*
X062341Y005407D02*
X062981Y005834D01*
X062981Y005407D02*
X062341Y005407D01*
X062554Y005190D02*
X062981Y005190D01*
X062661Y005190D02*
X062661Y004763D01*
X062554Y004763D02*
X062341Y004976D01*
X062554Y005190D01*
X062554Y004763D02*
X062981Y004763D01*
X062874Y004545D02*
X062981Y004438D01*
X062981Y004225D01*
X062874Y004118D01*
X062447Y004118D01*
X062341Y004225D01*
X062341Y004438D01*
X062447Y004545D01*
X061406Y004438D02*
X061406Y004225D01*
X061299Y004118D01*
X060872Y004118D01*
X060766Y004225D01*
X060766Y004438D01*
X060872Y004545D01*
X060979Y004763D02*
X060766Y004976D01*
X060979Y005190D01*
X061406Y005190D01*
X061406Y005407D02*
X060766Y005407D01*
X061406Y005834D01*
X060766Y005834D01*
X061086Y005190D02*
X061086Y004763D01*
X060979Y004763D02*
X061406Y004763D01*
X061299Y004545D02*
X061406Y004438D01*
D11*
X061830Y004482D02*
X061830Y004876D01*
X061830Y005269D02*
X061830Y005663D01*
X061830Y006057D02*
X061830Y006450D01*
X061830Y006844D02*
X061830Y007238D01*
X061830Y007631D02*
X061830Y008025D01*
X061830Y008419D02*
X061830Y008813D01*
X061830Y009206D02*
X061830Y009600D01*
X061830Y009994D02*
X061830Y010387D01*
X061830Y010781D02*
X061830Y011175D01*
X061830Y004088D02*
X061830Y003694D01*
X061830Y003301D02*
X061830Y002907D01*
X061830Y002513D02*
X061830Y002120D01*
X061830Y001726D02*
X061830Y001332D01*
X061830Y000939D02*
X061830Y000545D01*
D12*
X027705Y009266D02*
X027705Y010647D01*
X028165Y010647D02*
X027244Y010647D01*
X028856Y010187D02*
X029316Y010187D01*
X029546Y009957D01*
X029546Y009266D01*
X028856Y009266D01*
X028625Y009496D01*
X028856Y009727D01*
X029546Y009727D01*
X030007Y010187D02*
X030697Y010187D01*
X030927Y009957D01*
X030927Y009266D01*
X031388Y009266D02*
X031388Y010647D01*
X032078Y010187D02*
X031388Y009727D01*
X032078Y009266D01*
X030007Y009266D02*
X030007Y010187D01*
X033920Y010417D02*
X033920Y009496D01*
X034150Y009266D01*
X034610Y009266D01*
X034841Y009496D01*
X035301Y009266D02*
X035301Y010187D01*
X035761Y010647D01*
X036222Y010187D01*
X036222Y009266D01*
X036682Y009266D02*
X036682Y010647D01*
X037603Y009266D01*
X037603Y010647D01*
X036222Y009957D02*
X035301Y009957D01*
X034841Y010417D02*
X034610Y010647D01*
X034150Y010647D01*
X033920Y010417D01*
X039444Y010647D02*
X039444Y009266D01*
X040135Y009266D01*
X040365Y009496D01*
X040365Y009727D01*
X040135Y009957D01*
X039444Y009957D01*
X040135Y009957D02*
X040365Y010187D01*
X040365Y010417D01*
X040135Y010647D01*
X039444Y010647D01*
X041056Y010187D02*
X041516Y010187D01*
X041746Y009957D01*
X041746Y009266D01*
X041056Y009266D01*
X040825Y009496D01*
X041056Y009727D01*
X041746Y009727D01*
X042207Y009957D02*
X042207Y009496D01*
X042437Y009266D01*
X043127Y009266D01*
X043588Y009266D02*
X043588Y010647D01*
X043127Y010187D02*
X042437Y010187D01*
X042207Y009957D01*
X043588Y009727D02*
X044278Y010187D01*
X044739Y010187D02*
X045429Y010187D01*
X045659Y009957D01*
X045659Y009496D01*
X045429Y009266D01*
X044739Y009266D01*
X044278Y009266D02*
X043588Y009727D01*
X044739Y010187D02*
X044739Y008806D01*
X046120Y009266D02*
X046580Y009266D01*
X046350Y009266D02*
X046350Y010647D01*
X046120Y010647D01*
X047271Y010187D02*
X047731Y010187D01*
X047961Y009957D01*
X047961Y009266D01*
X047271Y009266D01*
X047041Y009496D01*
X047271Y009727D01*
X047961Y009727D01*
X048422Y010187D02*
X049112Y010187D01*
X049342Y009957D01*
X049342Y009266D01*
X049803Y009496D02*
X049803Y009957D01*
X050033Y010187D01*
X050493Y010187D01*
X050724Y009957D01*
X050724Y009727D01*
X049803Y009727D01*
X049803Y009496D02*
X050033Y009266D01*
X050493Y009266D01*
X048422Y009266D02*
X048422Y010187D01*
D13*
X053597Y010426D02*
X053597Y009899D01*
X053861Y009635D01*
X054124Y009899D01*
X054124Y010426D01*
X054389Y010030D02*
X054521Y010162D01*
X054784Y010162D01*
X054916Y010030D01*
X054916Y009899D01*
X054389Y009899D01*
X054389Y010030D02*
X054389Y009767D01*
X054521Y009635D01*
X054784Y009635D01*
X055181Y009635D02*
X055181Y010162D01*
X055444Y010162D02*
X055576Y010162D01*
X055444Y010162D02*
X055181Y009899D01*
X055841Y010030D02*
X055973Y010162D01*
X056368Y010162D01*
X056633Y010162D02*
X056764Y010162D01*
X056764Y009635D01*
X056633Y009635D02*
X056896Y009635D01*
X057161Y009767D02*
X057292Y009635D01*
X057556Y009635D01*
X057688Y009767D01*
X057688Y010030D01*
X057556Y010162D01*
X057292Y010162D01*
X057161Y010030D01*
X057161Y009767D01*
X056368Y009767D02*
X056236Y009635D01*
X055841Y009635D01*
X055973Y009899D02*
X055841Y010030D01*
X055973Y009899D02*
X056236Y009899D01*
X056368Y009767D01*
X056764Y010426D02*
X056764Y010557D01*
X057952Y010162D02*
X058348Y010162D01*
X058479Y010030D01*
X058479Y009635D01*
X057952Y009635D02*
X057952Y010162D01*
X059536Y010162D02*
X059800Y010426D01*
X059800Y009635D01*
X060063Y009635D02*
X059536Y009635D01*
X060328Y009635D02*
X060328Y009767D01*
X060460Y009767D01*
X060460Y009635D01*
X060328Y009635D01*
X060724Y009767D02*
X061251Y010294D01*
X061251Y009767D01*
X061119Y009635D01*
X060856Y009635D01*
X060724Y009767D01*
X060724Y010294D01*
X060856Y010426D01*
X061119Y010426D01*
X061251Y010294D01*
D14*
X070058Y008222D02*
X070058Y004915D01*
X070885Y004088D01*
X073011Y004088D01*
X073798Y004915D01*
X073798Y005978D01*
X073247Y005702D01*
X072696Y006017D01*
X072696Y005427D01*
X072460Y005191D01*
X071397Y005191D01*
X071200Y005427D01*
X071200Y007671D01*
X071436Y007907D01*
X072460Y007907D01*
X072696Y007671D01*
X072696Y007356D01*
X073247Y007080D01*
X073798Y007317D01*
X073798Y008222D01*
X072972Y009049D01*
X070885Y009049D01*
X070058Y008222D01*
X070068Y008232D02*
X073789Y008232D01*
X073798Y008133D02*
X070058Y008133D01*
X070058Y008035D02*
X073798Y008035D01*
X073798Y007936D02*
X070058Y007936D01*
X070058Y007838D02*
X071367Y007838D01*
X071268Y007739D02*
X070058Y007739D01*
X070058Y007640D02*
X071200Y007640D01*
X071200Y007542D02*
X070058Y007542D01*
X070058Y007443D02*
X071200Y007443D01*
X071200Y007345D02*
X070058Y007345D01*
X070058Y007246D02*
X071200Y007246D01*
X071200Y007148D02*
X070058Y007148D01*
X070058Y007049D02*
X071200Y007049D01*
X071200Y006951D02*
X070058Y006951D01*
X070058Y006852D02*
X071200Y006852D01*
X071200Y006754D02*
X070058Y006754D01*
X070058Y006655D02*
X071200Y006655D01*
X071200Y006556D02*
X070058Y006556D01*
X070058Y006458D02*
X071200Y006458D01*
X071200Y006359D02*
X070058Y006359D01*
X070058Y006261D02*
X071200Y006261D01*
X071200Y006162D02*
X070058Y006162D01*
X070058Y006064D02*
X071200Y006064D01*
X071200Y005965D02*
X070058Y005965D01*
X070058Y005867D02*
X071200Y005867D01*
X071200Y005768D02*
X070058Y005768D01*
X070058Y005670D02*
X071200Y005670D01*
X071200Y005571D02*
X070058Y005571D01*
X070058Y005473D02*
X071200Y005473D01*
X071244Y005374D02*
X070058Y005374D01*
X070058Y005275D02*
X071326Y005275D01*
X072545Y005275D02*
X073798Y005275D01*
X073798Y005177D02*
X070058Y005177D01*
X070058Y005078D02*
X073798Y005078D01*
X073798Y004980D02*
X070058Y004980D01*
X070092Y004881D02*
X073766Y004881D01*
X073672Y004783D02*
X070191Y004783D01*
X070289Y004684D02*
X073579Y004684D01*
X073485Y004586D02*
X070388Y004586D01*
X070486Y004487D02*
X073391Y004487D01*
X073297Y004389D02*
X070585Y004389D01*
X070683Y004290D02*
X073203Y004290D01*
X073109Y004191D02*
X070782Y004191D01*
X070880Y004093D02*
X073016Y004093D01*
X072643Y005374D02*
X073798Y005374D01*
X073798Y005473D02*
X072696Y005473D01*
X072696Y005571D02*
X073798Y005571D01*
X073798Y005670D02*
X072696Y005670D01*
X072696Y005768D02*
X073132Y005768D01*
X072960Y005867D02*
X072696Y005867D01*
X072696Y005965D02*
X072787Y005965D01*
X073379Y005768D02*
X073798Y005768D01*
X073798Y005867D02*
X073576Y005867D01*
X073773Y005965D02*
X073798Y005965D01*
X073405Y007148D02*
X073112Y007148D01*
X072915Y007246D02*
X073635Y007246D01*
X073798Y007345D02*
X072718Y007345D01*
X072696Y007443D02*
X073798Y007443D01*
X073798Y007542D02*
X072696Y007542D01*
X072696Y007640D02*
X073798Y007640D01*
X073798Y007739D02*
X072628Y007739D01*
X072529Y007838D02*
X073798Y007838D01*
X073690Y008330D02*
X070166Y008330D01*
X070265Y008429D02*
X073592Y008429D01*
X073493Y008527D02*
X070364Y008527D01*
X070462Y008626D02*
X073395Y008626D01*
X073296Y008724D02*
X070561Y008724D01*
X070659Y008823D02*
X073197Y008823D01*
X073099Y008922D02*
X070758Y008922D01*
X070856Y009020D02*
X073000Y009020D01*
D15*
X067865Y006647D02*
X069570Y003694D01*
X067865Y000742D01*
X064456Y000742D01*
X062751Y003694D01*
X062747Y003694D02*
X064452Y006647D01*
X064456Y006647D02*
X067865Y006647D01*
X060909Y003694D02*
X059204Y006647D01*
X055794Y006647D01*
X055791Y006647D02*
X054086Y003694D01*
X054090Y003694D02*
X055794Y000742D01*
X059204Y000742D01*
X060909Y003694D01*
X060137Y002356D02*
X060846Y001923D01*
X060846Y001924D02*
X060895Y001895D01*
X060942Y001863D01*
X060987Y001828D01*
X061030Y001791D01*
X061070Y001750D01*
X061107Y001707D01*
X061140Y001661D01*
X061171Y001613D01*
X061199Y001563D01*
X061223Y001512D01*
X061243Y001459D01*
X061260Y001404D01*
X061273Y001349D01*
X061282Y001293D01*
X061287Y001236D01*
X061289Y001179D01*
X061287Y001122D01*
X061280Y001066D01*
X061270Y001010D01*
X061257Y000955D01*
X061239Y000900D01*
X061218Y000848D01*
X061193Y000796D01*
X061165Y000747D01*
X061134Y000699D01*
X061099Y000654D01*
X061062Y000611D01*
X061021Y000571D01*
X060978Y000534D01*
X060933Y000500D01*
X060885Y000469D01*
X060835Y000441D01*
X060784Y000417D01*
X060731Y000396D01*
X060677Y000379D01*
X060622Y000365D01*
X060565Y000356D01*
X060509Y000350D01*
X060452Y000348D01*
X054546Y000348D01*
X054489Y000350D01*
X054433Y000356D01*
X054376Y000365D01*
X054321Y000379D01*
X054267Y000396D01*
X054214Y000417D01*
X054163Y000441D01*
X054113Y000469D01*
X054065Y000500D01*
X054020Y000534D01*
X053977Y000571D01*
X053936Y000611D01*
X053899Y000654D01*
X053864Y000699D01*
X053833Y000747D01*
X053805Y000796D01*
X053780Y000848D01*
X053759Y000900D01*
X053741Y000955D01*
X053728Y001010D01*
X053718Y001066D01*
X053711Y001122D01*
X053709Y001179D01*
X053711Y001236D01*
X053716Y001293D01*
X053725Y001349D01*
X053738Y001404D01*
X053755Y001459D01*
X053775Y001512D01*
X053799Y001563D01*
X053827Y001613D01*
X053858Y001661D01*
X053891Y001707D01*
X053928Y001750D01*
X053968Y001791D01*
X054011Y001828D01*
X054056Y001863D01*
X054103Y001895D01*
X054152Y001924D01*
X054153Y001923D02*
X054861Y002356D01*
X052184Y001923D02*
X051476Y002356D01*
X052185Y001924D02*
X052234Y001895D01*
X052281Y001863D01*
X052326Y001828D01*
X052369Y001791D01*
X052409Y001750D01*
X052446Y001707D01*
X052479Y001661D01*
X052510Y001613D01*
X052538Y001563D01*
X052562Y001512D01*
X052582Y001459D01*
X052599Y001404D01*
X052612Y001349D01*
X052621Y001293D01*
X052626Y001236D01*
X052628Y001179D01*
X052626Y001122D01*
X052619Y001066D01*
X052609Y001010D01*
X052596Y000955D01*
X052578Y000900D01*
X052557Y000848D01*
X052532Y000796D01*
X052504Y000747D01*
X052473Y000699D01*
X052438Y000654D01*
X052401Y000611D01*
X052360Y000571D01*
X052317Y000534D01*
X052272Y000500D01*
X052224Y000469D01*
X052174Y000441D01*
X052123Y000417D01*
X052070Y000396D01*
X052016Y000379D01*
X051961Y000365D01*
X051904Y000356D01*
X051848Y000350D01*
X051791Y000348D01*
X045885Y000348D01*
X047133Y000742D02*
X050543Y000742D01*
X052247Y003694D01*
X050543Y006647D01*
X047133Y006647D01*
X047129Y006647D02*
X045424Y003694D01*
X045428Y003694D02*
X047133Y000742D01*
X045885Y000348D02*
X045828Y000350D01*
X045772Y000356D01*
X045715Y000365D01*
X045660Y000379D01*
X045606Y000396D01*
X045553Y000417D01*
X045502Y000441D01*
X045452Y000469D01*
X045404Y000500D01*
X045359Y000534D01*
X045316Y000571D01*
X045275Y000611D01*
X045238Y000654D01*
X045203Y000699D01*
X045172Y000747D01*
X045144Y000796D01*
X045119Y000848D01*
X045098Y000900D01*
X045080Y000955D01*
X045067Y001010D01*
X045057Y001066D01*
X045050Y001122D01*
X045048Y001179D01*
X045050Y001236D01*
X045055Y001293D01*
X045064Y001349D01*
X045077Y001404D01*
X045094Y001459D01*
X045114Y001512D01*
X045138Y001563D01*
X045166Y001613D01*
X045197Y001661D01*
X045230Y001707D01*
X045267Y001750D01*
X045307Y001791D01*
X045350Y001828D01*
X045395Y001863D01*
X045442Y001895D01*
X045491Y001924D01*
X045491Y001923D02*
X046200Y002356D01*
X043523Y001923D02*
X042814Y002356D01*
X043523Y001924D02*
X043572Y001895D01*
X043619Y001863D01*
X043664Y001828D01*
X043707Y001791D01*
X043747Y001750D01*
X043784Y001707D01*
X043817Y001661D01*
X043848Y001613D01*
X043876Y001563D01*
X043900Y001512D01*
X043920Y001459D01*
X043937Y001404D01*
X043950Y001349D01*
X043959Y001293D01*
X043964Y001236D01*
X043966Y001179D01*
X043964Y001122D01*
X043957Y001066D01*
X043947Y001010D01*
X043934Y000955D01*
X043916Y000900D01*
X043895Y000848D01*
X043870Y000796D01*
X043842Y000747D01*
X043811Y000699D01*
X043776Y000654D01*
X043739Y000611D01*
X043698Y000571D01*
X043655Y000534D01*
X043610Y000500D01*
X043562Y000469D01*
X043512Y000441D01*
X043461Y000417D01*
X043408Y000396D01*
X043354Y000379D01*
X043299Y000365D01*
X043242Y000356D01*
X043186Y000350D01*
X043129Y000348D01*
X037224Y000348D01*
X038472Y000742D02*
X041881Y000742D01*
X043586Y003694D01*
X041881Y006647D01*
X038472Y006647D01*
X038468Y006647D02*
X036763Y003694D01*
X036767Y003694D02*
X038472Y000742D01*
X037224Y000348D02*
X037167Y000350D01*
X037111Y000356D01*
X037054Y000365D01*
X036999Y000379D01*
X036945Y000396D01*
X036892Y000417D01*
X036841Y000441D01*
X036791Y000469D01*
X036743Y000500D01*
X036698Y000534D01*
X036655Y000571D01*
X036614Y000611D01*
X036577Y000654D01*
X036542Y000699D01*
X036511Y000747D01*
X036483Y000796D01*
X036458Y000848D01*
X036437Y000900D01*
X036419Y000955D01*
X036406Y001010D01*
X036396Y001066D01*
X036389Y001122D01*
X036387Y001179D01*
X036389Y001236D01*
X036394Y001293D01*
X036403Y001349D01*
X036416Y001404D01*
X036433Y001459D01*
X036453Y001512D01*
X036477Y001563D01*
X036505Y001613D01*
X036536Y001661D01*
X036569Y001707D01*
X036606Y001750D01*
X036646Y001791D01*
X036689Y001828D01*
X036734Y001863D01*
X036781Y001895D01*
X036830Y001924D01*
X036830Y001923D02*
X037539Y002356D01*
X034861Y001923D02*
X034153Y002356D01*
X034862Y001924D02*
X034911Y001895D01*
X034958Y001863D01*
X035003Y001828D01*
X035046Y001791D01*
X035086Y001750D01*
X035123Y001707D01*
X035156Y001661D01*
X035187Y001613D01*
X035215Y001563D01*
X035239Y001512D01*
X035259Y001459D01*
X035276Y001404D01*
X035289Y001349D01*
X035298Y001293D01*
X035303Y001236D01*
X035305Y001179D01*
X035303Y001122D01*
X035296Y001066D01*
X035286Y001010D01*
X035273Y000955D01*
X035255Y000900D01*
X035234Y000848D01*
X035209Y000796D01*
X035181Y000747D01*
X035150Y000699D01*
X035115Y000654D01*
X035078Y000611D01*
X035037Y000571D01*
X034994Y000534D01*
X034949Y000500D01*
X034901Y000469D01*
X034851Y000441D01*
X034800Y000417D01*
X034747Y000396D01*
X034693Y000379D01*
X034638Y000365D01*
X034581Y000356D01*
X034525Y000350D01*
X034468Y000348D01*
X028562Y000348D01*
X029810Y000742D02*
X033220Y000742D01*
X034924Y003694D01*
X033220Y006647D01*
X029810Y006647D01*
X029806Y006647D02*
X028102Y003694D01*
X028106Y003694D02*
X029810Y000742D01*
X028562Y000348D02*
X028505Y000350D01*
X028449Y000356D01*
X028392Y000365D01*
X028337Y000379D01*
X028283Y000396D01*
X028230Y000417D01*
X028179Y000441D01*
X028129Y000469D01*
X028081Y000500D01*
X028036Y000534D01*
X027993Y000571D01*
X027952Y000611D01*
X027915Y000654D01*
X027880Y000699D01*
X027849Y000747D01*
X027821Y000796D01*
X027796Y000848D01*
X027775Y000900D01*
X027757Y000955D01*
X027744Y001010D01*
X027734Y001066D01*
X027727Y001122D01*
X027725Y001179D01*
X027727Y001236D01*
X027732Y001293D01*
X027741Y001349D01*
X027754Y001404D01*
X027771Y001459D01*
X027791Y001512D01*
X027815Y001563D01*
X027843Y001613D01*
X027874Y001661D01*
X027907Y001707D01*
X027944Y001750D01*
X027984Y001791D01*
X028027Y001828D01*
X028072Y001863D01*
X028119Y001895D01*
X028168Y001924D01*
X028169Y001923D02*
X028877Y002356D01*
X062814Y001923D02*
X063523Y002356D01*
X062814Y001924D02*
X062765Y001895D01*
X062718Y001863D01*
X062673Y001828D01*
X062630Y001791D01*
X062590Y001750D01*
X062553Y001707D01*
X062520Y001661D01*
X062489Y001613D01*
X062461Y001563D01*
X062437Y001512D01*
X062417Y001459D01*
X062400Y001404D01*
X062387Y001349D01*
X062378Y001293D01*
X062373Y001236D01*
X062371Y001179D01*
X062373Y001122D01*
X062380Y001066D01*
X062390Y001010D01*
X062403Y000955D01*
X062421Y000900D01*
X062442Y000848D01*
X062467Y000796D01*
X062495Y000747D01*
X062526Y000699D01*
X062561Y000654D01*
X062598Y000611D01*
X062639Y000571D01*
X062682Y000534D01*
X062727Y000500D01*
X062775Y000469D01*
X062825Y000441D01*
X062876Y000417D01*
X062929Y000396D01*
X062983Y000379D01*
X063038Y000365D01*
X063095Y000356D01*
X063151Y000350D01*
X063208Y000348D01*
X069113Y000348D01*
X069170Y000350D01*
X069226Y000356D01*
X069283Y000365D01*
X069338Y000379D01*
X069392Y000396D01*
X069445Y000417D01*
X069496Y000441D01*
X069546Y000469D01*
X069594Y000500D01*
X069639Y000534D01*
X069682Y000571D01*
X069723Y000611D01*
X069760Y000654D01*
X069795Y000699D01*
X069826Y000747D01*
X069854Y000796D01*
X069879Y000848D01*
X069900Y000900D01*
X069918Y000955D01*
X069931Y001010D01*
X069941Y001066D01*
X069948Y001122D01*
X069950Y001179D01*
X069948Y001236D01*
X069943Y001293D01*
X069934Y001349D01*
X069921Y001404D01*
X069904Y001459D01*
X069884Y001512D01*
X069860Y001563D01*
X069832Y001613D01*
X069801Y001661D01*
X069768Y001707D01*
X069731Y001750D01*
X069691Y001791D01*
X069648Y001828D01*
X069603Y001863D01*
X069556Y001895D01*
X069507Y001924D01*
X069507Y001923D02*
X068798Y002356D01*
D16*
X066463Y002999D02*
X066465Y003038D01*
X066471Y003077D01*
X066481Y003115D01*
X066494Y003152D01*
X066511Y003187D01*
X066531Y003221D01*
X066555Y003252D01*
X066582Y003281D01*
X066611Y003307D01*
X066643Y003330D01*
X066677Y003350D01*
X066713Y003366D01*
X066750Y003378D01*
X066789Y003387D01*
X066828Y003392D01*
X066867Y003393D01*
X066906Y003390D01*
X066945Y003383D01*
X066982Y003372D01*
X067019Y003358D01*
X067054Y003340D01*
X067087Y003319D01*
X067118Y003294D01*
X067146Y003267D01*
X067171Y003237D01*
X067193Y003204D01*
X067212Y003170D01*
X067227Y003134D01*
X067239Y003096D01*
X067247Y003058D01*
X067251Y003019D01*
X067251Y002979D01*
X067247Y002940D01*
X067239Y002902D01*
X067227Y002864D01*
X067212Y002828D01*
X067193Y002794D01*
X067171Y002761D01*
X067146Y002731D01*
X067118Y002704D01*
X067087Y002679D01*
X067054Y002658D01*
X067019Y002640D01*
X066982Y002626D01*
X066945Y002615D01*
X066906Y002608D01*
X066867Y002605D01*
X066828Y002606D01*
X066789Y002611D01*
X066750Y002620D01*
X066713Y002632D01*
X066677Y002648D01*
X066643Y002668D01*
X066611Y002691D01*
X066582Y002717D01*
X066555Y002746D01*
X066531Y002777D01*
X066511Y002811D01*
X066494Y002846D01*
X066481Y002883D01*
X066471Y002921D01*
X066465Y002960D01*
X066463Y002999D01*
X065071Y002999D02*
X065073Y003038D01*
X065079Y003077D01*
X065089Y003115D01*
X065102Y003152D01*
X065119Y003187D01*
X065139Y003221D01*
X065163Y003252D01*
X065190Y003281D01*
X065219Y003307D01*
X065251Y003330D01*
X065285Y003350D01*
X065321Y003366D01*
X065358Y003378D01*
X065397Y003387D01*
X065436Y003392D01*
X065475Y003393D01*
X065514Y003390D01*
X065553Y003383D01*
X065590Y003372D01*
X065627Y003358D01*
X065662Y003340D01*
X065695Y003319D01*
X065726Y003294D01*
X065754Y003267D01*
X065779Y003237D01*
X065801Y003204D01*
X065820Y003170D01*
X065835Y003134D01*
X065847Y003096D01*
X065855Y003058D01*
X065859Y003019D01*
X065859Y002979D01*
X065855Y002940D01*
X065847Y002902D01*
X065835Y002864D01*
X065820Y002828D01*
X065801Y002794D01*
X065779Y002761D01*
X065754Y002731D01*
X065726Y002704D01*
X065695Y002679D01*
X065662Y002658D01*
X065627Y002640D01*
X065590Y002626D01*
X065553Y002615D01*
X065514Y002608D01*
X065475Y002605D01*
X065436Y002606D01*
X065397Y002611D01*
X065358Y002620D01*
X065321Y002632D01*
X065285Y002648D01*
X065251Y002668D01*
X065219Y002691D01*
X065190Y002717D01*
X065163Y002746D01*
X065139Y002777D01*
X065119Y002811D01*
X065102Y002846D01*
X065089Y002883D01*
X065079Y002921D01*
X065073Y002960D01*
X065071Y002999D01*
X065767Y003694D02*
X065769Y003733D01*
X065775Y003772D01*
X065785Y003810D01*
X065798Y003847D01*
X065815Y003882D01*
X065835Y003916D01*
X065859Y003947D01*
X065886Y003976D01*
X065915Y004002D01*
X065947Y004025D01*
X065981Y004045D01*
X066017Y004061D01*
X066054Y004073D01*
X066093Y004082D01*
X066132Y004087D01*
X066171Y004088D01*
X066210Y004085D01*
X066249Y004078D01*
X066286Y004067D01*
X066323Y004053D01*
X066358Y004035D01*
X066391Y004014D01*
X066422Y003989D01*
X066450Y003962D01*
X066475Y003932D01*
X066497Y003899D01*
X066516Y003865D01*
X066531Y003829D01*
X066543Y003791D01*
X066551Y003753D01*
X066555Y003714D01*
X066555Y003674D01*
X066551Y003635D01*
X066543Y003597D01*
X066531Y003559D01*
X066516Y003523D01*
X066497Y003489D01*
X066475Y003456D01*
X066450Y003426D01*
X066422Y003399D01*
X066391Y003374D01*
X066358Y003353D01*
X066323Y003335D01*
X066286Y003321D01*
X066249Y003310D01*
X066210Y003303D01*
X066171Y003300D01*
X066132Y003301D01*
X066093Y003306D01*
X066054Y003315D01*
X066017Y003327D01*
X065981Y003343D01*
X065947Y003363D01*
X065915Y003386D01*
X065886Y003412D01*
X065859Y003441D01*
X065835Y003472D01*
X065815Y003506D01*
X065798Y003541D01*
X065785Y003578D01*
X065775Y003616D01*
X065769Y003655D01*
X065767Y003694D01*
X065846Y005780D02*
X065744Y005762D01*
X065643Y005739D01*
X065544Y005712D01*
X065445Y005679D01*
X065349Y005641D01*
X065254Y005599D01*
X065162Y005553D01*
X065072Y005501D01*
X064985Y005446D01*
X064900Y005386D01*
X064819Y005322D01*
X064741Y005255D01*
X064666Y005183D01*
X064595Y005108D01*
X064527Y005029D01*
X064464Y004948D01*
X064404Y004863D01*
X064349Y004776D01*
X064298Y004685D01*
X064252Y004593D01*
X064210Y004498D01*
X064173Y004402D01*
X064141Y004303D01*
X064113Y004204D01*
X064091Y004103D01*
X064073Y004001D01*
X064061Y003898D01*
X064053Y003795D01*
X064051Y003691D01*
X064054Y003588D01*
X064061Y003485D01*
X064074Y003382D01*
X064092Y003280D01*
X064115Y003179D01*
X064143Y003079D01*
X064175Y002981D01*
X064212Y002885D01*
X064254Y002790D01*
X064301Y002698D01*
X064352Y002608D01*
X064408Y002520D01*
X064467Y002436D01*
X064531Y002354D01*
X064599Y002276D01*
X064670Y002201D01*
X064745Y002130D01*
X064823Y002062D01*
X064905Y001999D01*
X064990Y001939D01*
X065077Y001884D01*
X065167Y001833D01*
X065260Y001786D01*
X065354Y001744D01*
X065451Y001707D01*
X065549Y001675D01*
X065649Y001647D01*
X065750Y001624D01*
X065852Y001607D01*
X065954Y001594D01*
X066058Y001587D01*
X066161Y001584D01*
X066264Y001587D01*
X066368Y001594D01*
X066470Y001607D01*
X066572Y001624D01*
X066673Y001647D01*
X066773Y001675D01*
X066871Y001707D01*
X066968Y001744D01*
X067062Y001786D01*
X067155Y001833D01*
X067245Y001884D01*
X067332Y001939D01*
X067417Y001999D01*
X067499Y002062D01*
X067577Y002130D01*
X067652Y002201D01*
X067723Y002276D01*
X067791Y002354D01*
X067855Y002436D01*
X067914Y002520D01*
X067970Y002608D01*
X068021Y002698D01*
X068068Y002790D01*
X068110Y002885D01*
X068147Y002981D01*
X068179Y003079D01*
X068207Y003179D01*
X068230Y003280D01*
X068248Y003382D01*
X068261Y003485D01*
X068268Y003588D01*
X068271Y003691D01*
X068269Y003795D01*
X068261Y003898D01*
X068249Y004001D01*
X068231Y004103D01*
X068209Y004204D01*
X068181Y004303D01*
X068149Y004402D01*
X068112Y004498D01*
X068070Y004593D01*
X068024Y004685D01*
X067973Y004776D01*
X067918Y004863D01*
X067858Y004948D01*
X067795Y005029D01*
X067727Y005108D01*
X067656Y005183D01*
X067581Y005255D01*
X067503Y005322D01*
X067422Y005386D01*
X067337Y005446D01*
X067250Y005501D01*
X067160Y005553D01*
X067068Y005599D01*
X066973Y005641D01*
X066877Y005679D01*
X066778Y005712D01*
X066679Y005739D01*
X066578Y005762D01*
X066476Y005780D01*
X066456Y005781D02*
X066456Y005348D01*
X066454Y005315D01*
X066449Y005282D01*
X066439Y005251D01*
X066427Y005220D01*
X066411Y005191D01*
X066392Y005164D01*
X066370Y005139D01*
X066345Y005117D01*
X066318Y005098D01*
X066289Y005082D01*
X066258Y005070D01*
X066227Y005060D01*
X066194Y005055D01*
X066161Y005053D01*
X066128Y005055D01*
X066095Y005060D01*
X066064Y005070D01*
X066033Y005082D01*
X066004Y005098D01*
X065977Y005117D01*
X065952Y005139D01*
X065930Y005164D01*
X065911Y005191D01*
X065895Y005220D01*
X065883Y005251D01*
X065873Y005282D01*
X065868Y005315D01*
X065866Y005348D01*
X065865Y005348D02*
X065865Y005781D01*
X065071Y004390D02*
X065073Y004429D01*
X065079Y004468D01*
X065089Y004506D01*
X065102Y004543D01*
X065119Y004578D01*
X065139Y004612D01*
X065163Y004643D01*
X065190Y004672D01*
X065219Y004698D01*
X065251Y004721D01*
X065285Y004741D01*
X065321Y004757D01*
X065358Y004769D01*
X065397Y004778D01*
X065436Y004783D01*
X065475Y004784D01*
X065514Y004781D01*
X065553Y004774D01*
X065590Y004763D01*
X065627Y004749D01*
X065662Y004731D01*
X065695Y004710D01*
X065726Y004685D01*
X065754Y004658D01*
X065779Y004628D01*
X065801Y004595D01*
X065820Y004561D01*
X065835Y004525D01*
X065847Y004487D01*
X065855Y004449D01*
X065859Y004410D01*
X065859Y004370D01*
X065855Y004331D01*
X065847Y004293D01*
X065835Y004255D01*
X065820Y004219D01*
X065801Y004185D01*
X065779Y004152D01*
X065754Y004122D01*
X065726Y004095D01*
X065695Y004070D01*
X065662Y004049D01*
X065627Y004031D01*
X065590Y004017D01*
X065553Y004006D01*
X065514Y003999D01*
X065475Y003996D01*
X065436Y003997D01*
X065397Y004002D01*
X065358Y004011D01*
X065321Y004023D01*
X065285Y004039D01*
X065251Y004059D01*
X065219Y004082D01*
X065190Y004108D01*
X065163Y004137D01*
X065139Y004168D01*
X065119Y004202D01*
X065102Y004237D01*
X065089Y004274D01*
X065079Y004312D01*
X065073Y004351D01*
X065071Y004390D01*
X066463Y004390D02*
X066465Y004429D01*
X066471Y004468D01*
X066481Y004506D01*
X066494Y004543D01*
X066511Y004578D01*
X066531Y004612D01*
X066555Y004643D01*
X066582Y004672D01*
X066611Y004698D01*
X066643Y004721D01*
X066677Y004741D01*
X066713Y004757D01*
X066750Y004769D01*
X066789Y004778D01*
X066828Y004783D01*
X066867Y004784D01*
X066906Y004781D01*
X066945Y004774D01*
X066982Y004763D01*
X067019Y004749D01*
X067054Y004731D01*
X067087Y004710D01*
X067118Y004685D01*
X067146Y004658D01*
X067171Y004628D01*
X067193Y004595D01*
X067212Y004561D01*
X067227Y004525D01*
X067239Y004487D01*
X067247Y004449D01*
X067251Y004410D01*
X067251Y004370D01*
X067247Y004331D01*
X067239Y004293D01*
X067227Y004255D01*
X067212Y004219D01*
X067193Y004185D01*
X067171Y004152D01*
X067146Y004122D01*
X067118Y004095D01*
X067087Y004070D01*
X067054Y004049D01*
X067019Y004031D01*
X066982Y004017D01*
X066945Y004006D01*
X066906Y003999D01*
X066867Y003996D01*
X066828Y003997D01*
X066789Y004002D01*
X066750Y004011D01*
X066713Y004023D01*
X066677Y004039D01*
X066643Y004059D01*
X066611Y004082D01*
X066582Y004108D01*
X066555Y004137D01*
X066531Y004168D01*
X066511Y004202D01*
X066494Y004237D01*
X066481Y004274D01*
X066471Y004312D01*
X066465Y004351D01*
X066463Y004390D01*
X057801Y004390D02*
X057803Y004429D01*
X057809Y004468D01*
X057819Y004506D01*
X057832Y004543D01*
X057849Y004578D01*
X057869Y004612D01*
X057893Y004643D01*
X057920Y004672D01*
X057949Y004698D01*
X057981Y004721D01*
X058015Y004741D01*
X058051Y004757D01*
X058088Y004769D01*
X058127Y004778D01*
X058166Y004783D01*
X058205Y004784D01*
X058244Y004781D01*
X058283Y004774D01*
X058320Y004763D01*
X058357Y004749D01*
X058392Y004731D01*
X058425Y004710D01*
X058456Y004685D01*
X058484Y004658D01*
X058509Y004628D01*
X058531Y004595D01*
X058550Y004561D01*
X058565Y004525D01*
X058577Y004487D01*
X058585Y004449D01*
X058589Y004410D01*
X058589Y004370D01*
X058585Y004331D01*
X058577Y004293D01*
X058565Y004255D01*
X058550Y004219D01*
X058531Y004185D01*
X058509Y004152D01*
X058484Y004122D01*
X058456Y004095D01*
X058425Y004070D01*
X058392Y004049D01*
X058357Y004031D01*
X058320Y004017D01*
X058283Y004006D01*
X058244Y003999D01*
X058205Y003996D01*
X058166Y003997D01*
X058127Y004002D01*
X058088Y004011D01*
X058051Y004023D01*
X058015Y004039D01*
X057981Y004059D01*
X057949Y004082D01*
X057920Y004108D01*
X057893Y004137D01*
X057869Y004168D01*
X057849Y004202D01*
X057832Y004237D01*
X057819Y004274D01*
X057809Y004312D01*
X057803Y004351D01*
X057801Y004390D01*
X057105Y003694D02*
X057107Y003733D01*
X057113Y003772D01*
X057123Y003810D01*
X057136Y003847D01*
X057153Y003882D01*
X057173Y003916D01*
X057197Y003947D01*
X057224Y003976D01*
X057253Y004002D01*
X057285Y004025D01*
X057319Y004045D01*
X057355Y004061D01*
X057392Y004073D01*
X057431Y004082D01*
X057470Y004087D01*
X057509Y004088D01*
X057548Y004085D01*
X057587Y004078D01*
X057624Y004067D01*
X057661Y004053D01*
X057696Y004035D01*
X057729Y004014D01*
X057760Y003989D01*
X057788Y003962D01*
X057813Y003932D01*
X057835Y003899D01*
X057854Y003865D01*
X057869Y003829D01*
X057881Y003791D01*
X057889Y003753D01*
X057893Y003714D01*
X057893Y003674D01*
X057889Y003635D01*
X057881Y003597D01*
X057869Y003559D01*
X057854Y003523D01*
X057835Y003489D01*
X057813Y003456D01*
X057788Y003426D01*
X057760Y003399D01*
X057729Y003374D01*
X057696Y003353D01*
X057661Y003335D01*
X057624Y003321D01*
X057587Y003310D01*
X057548Y003303D01*
X057509Y003300D01*
X057470Y003301D01*
X057431Y003306D01*
X057392Y003315D01*
X057355Y003327D01*
X057319Y003343D01*
X057285Y003363D01*
X057253Y003386D01*
X057224Y003412D01*
X057197Y003441D01*
X057173Y003472D01*
X057153Y003506D01*
X057136Y003541D01*
X057123Y003578D01*
X057113Y003616D01*
X057107Y003655D01*
X057105Y003694D01*
X057184Y005780D02*
X057082Y005762D01*
X056981Y005739D01*
X056882Y005712D01*
X056783Y005679D01*
X056687Y005641D01*
X056592Y005599D01*
X056500Y005553D01*
X056410Y005501D01*
X056323Y005446D01*
X056238Y005386D01*
X056157Y005322D01*
X056079Y005255D01*
X056004Y005183D01*
X055933Y005108D01*
X055865Y005029D01*
X055802Y004948D01*
X055742Y004863D01*
X055687Y004776D01*
X055636Y004685D01*
X055590Y004593D01*
X055548Y004498D01*
X055511Y004402D01*
X055479Y004303D01*
X055451Y004204D01*
X055429Y004103D01*
X055411Y004001D01*
X055399Y003898D01*
X055391Y003795D01*
X055389Y003691D01*
X055392Y003588D01*
X055399Y003485D01*
X055412Y003382D01*
X055430Y003280D01*
X055453Y003179D01*
X055481Y003079D01*
X055513Y002981D01*
X055550Y002885D01*
X055592Y002790D01*
X055639Y002698D01*
X055690Y002608D01*
X055746Y002520D01*
X055805Y002436D01*
X055869Y002354D01*
X055937Y002276D01*
X056008Y002201D01*
X056083Y002130D01*
X056161Y002062D01*
X056243Y001999D01*
X056328Y001939D01*
X056415Y001884D01*
X056505Y001833D01*
X056598Y001786D01*
X056692Y001744D01*
X056789Y001707D01*
X056887Y001675D01*
X056987Y001647D01*
X057088Y001624D01*
X057190Y001607D01*
X057292Y001594D01*
X057396Y001587D01*
X057499Y001584D01*
X057602Y001587D01*
X057706Y001594D01*
X057808Y001607D01*
X057910Y001624D01*
X058011Y001647D01*
X058111Y001675D01*
X058209Y001707D01*
X058306Y001744D01*
X058400Y001786D01*
X058493Y001833D01*
X058583Y001884D01*
X058670Y001939D01*
X058755Y001999D01*
X058837Y002062D01*
X058915Y002130D01*
X058990Y002201D01*
X059061Y002276D01*
X059129Y002354D01*
X059193Y002436D01*
X059252Y002520D01*
X059308Y002608D01*
X059359Y002698D01*
X059406Y002790D01*
X059448Y002885D01*
X059485Y002981D01*
X059517Y003079D01*
X059545Y003179D01*
X059568Y003280D01*
X059586Y003382D01*
X059599Y003485D01*
X059606Y003588D01*
X059609Y003691D01*
X059607Y003795D01*
X059599Y003898D01*
X059587Y004001D01*
X059569Y004103D01*
X059547Y004204D01*
X059519Y004303D01*
X059487Y004402D01*
X059450Y004498D01*
X059408Y004593D01*
X059362Y004685D01*
X059311Y004776D01*
X059256Y004863D01*
X059196Y004948D01*
X059133Y005029D01*
X059065Y005108D01*
X058994Y005183D01*
X058919Y005255D01*
X058841Y005322D01*
X058760Y005386D01*
X058675Y005446D01*
X058588Y005501D01*
X058498Y005553D01*
X058406Y005599D01*
X058311Y005641D01*
X058215Y005679D01*
X058116Y005712D01*
X058017Y005739D01*
X057916Y005762D01*
X057814Y005780D01*
X057794Y005781D02*
X057794Y005348D01*
X057792Y005315D01*
X057787Y005282D01*
X057777Y005251D01*
X057765Y005220D01*
X057749Y005191D01*
X057730Y005164D01*
X057708Y005139D01*
X057683Y005117D01*
X057656Y005098D01*
X057627Y005082D01*
X057596Y005070D01*
X057565Y005060D01*
X057532Y005055D01*
X057499Y005053D01*
X057466Y005055D01*
X057433Y005060D01*
X057402Y005070D01*
X057371Y005082D01*
X057342Y005098D01*
X057315Y005117D01*
X057290Y005139D01*
X057268Y005164D01*
X057249Y005191D01*
X057233Y005220D01*
X057221Y005251D01*
X057211Y005282D01*
X057206Y005315D01*
X057204Y005348D01*
X057204Y005781D01*
X056409Y004390D02*
X056411Y004429D01*
X056417Y004468D01*
X056427Y004506D01*
X056440Y004543D01*
X056457Y004578D01*
X056477Y004612D01*
X056501Y004643D01*
X056528Y004672D01*
X056557Y004698D01*
X056589Y004721D01*
X056623Y004741D01*
X056659Y004757D01*
X056696Y004769D01*
X056735Y004778D01*
X056774Y004783D01*
X056813Y004784D01*
X056852Y004781D01*
X056891Y004774D01*
X056928Y004763D01*
X056965Y004749D01*
X057000Y004731D01*
X057033Y004710D01*
X057064Y004685D01*
X057092Y004658D01*
X057117Y004628D01*
X057139Y004595D01*
X057158Y004561D01*
X057173Y004525D01*
X057185Y004487D01*
X057193Y004449D01*
X057197Y004410D01*
X057197Y004370D01*
X057193Y004331D01*
X057185Y004293D01*
X057173Y004255D01*
X057158Y004219D01*
X057139Y004185D01*
X057117Y004152D01*
X057092Y004122D01*
X057064Y004095D01*
X057033Y004070D01*
X057000Y004049D01*
X056965Y004031D01*
X056928Y004017D01*
X056891Y004006D01*
X056852Y003999D01*
X056813Y003996D01*
X056774Y003997D01*
X056735Y004002D01*
X056696Y004011D01*
X056659Y004023D01*
X056623Y004039D01*
X056589Y004059D01*
X056557Y004082D01*
X056528Y004108D01*
X056501Y004137D01*
X056477Y004168D01*
X056457Y004202D01*
X056440Y004237D01*
X056427Y004274D01*
X056417Y004312D01*
X056411Y004351D01*
X056409Y004390D01*
X056409Y002999D02*
X056411Y003038D01*
X056417Y003077D01*
X056427Y003115D01*
X056440Y003152D01*
X056457Y003187D01*
X056477Y003221D01*
X056501Y003252D01*
X056528Y003281D01*
X056557Y003307D01*
X056589Y003330D01*
X056623Y003350D01*
X056659Y003366D01*
X056696Y003378D01*
X056735Y003387D01*
X056774Y003392D01*
X056813Y003393D01*
X056852Y003390D01*
X056891Y003383D01*
X056928Y003372D01*
X056965Y003358D01*
X057000Y003340D01*
X057033Y003319D01*
X057064Y003294D01*
X057092Y003267D01*
X057117Y003237D01*
X057139Y003204D01*
X057158Y003170D01*
X057173Y003134D01*
X057185Y003096D01*
X057193Y003058D01*
X057197Y003019D01*
X057197Y002979D01*
X057193Y002940D01*
X057185Y002902D01*
X057173Y002864D01*
X057158Y002828D01*
X057139Y002794D01*
X057117Y002761D01*
X057092Y002731D01*
X057064Y002704D01*
X057033Y002679D01*
X057000Y002658D01*
X056965Y002640D01*
X056928Y002626D01*
X056891Y002615D01*
X056852Y002608D01*
X056813Y002605D01*
X056774Y002606D01*
X056735Y002611D01*
X056696Y002620D01*
X056659Y002632D01*
X056623Y002648D01*
X056589Y002668D01*
X056557Y002691D01*
X056528Y002717D01*
X056501Y002746D01*
X056477Y002777D01*
X056457Y002811D01*
X056440Y002846D01*
X056427Y002883D01*
X056417Y002921D01*
X056411Y002960D01*
X056409Y002999D01*
X057801Y002999D02*
X057803Y003038D01*
X057809Y003077D01*
X057819Y003115D01*
X057832Y003152D01*
X057849Y003187D01*
X057869Y003221D01*
X057893Y003252D01*
X057920Y003281D01*
X057949Y003307D01*
X057981Y003330D01*
X058015Y003350D01*
X058051Y003366D01*
X058088Y003378D01*
X058127Y003387D01*
X058166Y003392D01*
X058205Y003393D01*
X058244Y003390D01*
X058283Y003383D01*
X058320Y003372D01*
X058357Y003358D01*
X058392Y003340D01*
X058425Y003319D01*
X058456Y003294D01*
X058484Y003267D01*
X058509Y003237D01*
X058531Y003204D01*
X058550Y003170D01*
X058565Y003134D01*
X058577Y003096D01*
X058585Y003058D01*
X058589Y003019D01*
X058589Y002979D01*
X058585Y002940D01*
X058577Y002902D01*
X058565Y002864D01*
X058550Y002828D01*
X058531Y002794D01*
X058509Y002761D01*
X058484Y002731D01*
X058456Y002704D01*
X058425Y002679D01*
X058392Y002658D01*
X058357Y002640D01*
X058320Y002626D01*
X058283Y002615D01*
X058244Y002608D01*
X058205Y002605D01*
X058166Y002606D01*
X058127Y002611D01*
X058088Y002620D01*
X058051Y002632D01*
X058015Y002648D01*
X057981Y002668D01*
X057949Y002691D01*
X057920Y002717D01*
X057893Y002746D01*
X057869Y002777D01*
X057849Y002811D01*
X057832Y002846D01*
X057819Y002883D01*
X057809Y002921D01*
X057803Y002960D01*
X057801Y002999D01*
X049140Y002999D02*
X049142Y003038D01*
X049148Y003077D01*
X049158Y003115D01*
X049171Y003152D01*
X049188Y003187D01*
X049208Y003221D01*
X049232Y003252D01*
X049259Y003281D01*
X049288Y003307D01*
X049320Y003330D01*
X049354Y003350D01*
X049390Y003366D01*
X049427Y003378D01*
X049466Y003387D01*
X049505Y003392D01*
X049544Y003393D01*
X049583Y003390D01*
X049622Y003383D01*
X049659Y003372D01*
X049696Y003358D01*
X049731Y003340D01*
X049764Y003319D01*
X049795Y003294D01*
X049823Y003267D01*
X049848Y003237D01*
X049870Y003204D01*
X049889Y003170D01*
X049904Y003134D01*
X049916Y003096D01*
X049924Y003058D01*
X049928Y003019D01*
X049928Y002979D01*
X049924Y002940D01*
X049916Y002902D01*
X049904Y002864D01*
X049889Y002828D01*
X049870Y002794D01*
X049848Y002761D01*
X049823Y002731D01*
X049795Y002704D01*
X049764Y002679D01*
X049731Y002658D01*
X049696Y002640D01*
X049659Y002626D01*
X049622Y002615D01*
X049583Y002608D01*
X049544Y002605D01*
X049505Y002606D01*
X049466Y002611D01*
X049427Y002620D01*
X049390Y002632D01*
X049354Y002648D01*
X049320Y002668D01*
X049288Y002691D01*
X049259Y002717D01*
X049232Y002746D01*
X049208Y002777D01*
X049188Y002811D01*
X049171Y002846D01*
X049158Y002883D01*
X049148Y002921D01*
X049142Y002960D01*
X049140Y002999D01*
X047748Y002999D02*
X047750Y003038D01*
X047756Y003077D01*
X047766Y003115D01*
X047779Y003152D01*
X047796Y003187D01*
X047816Y003221D01*
X047840Y003252D01*
X047867Y003281D01*
X047896Y003307D01*
X047928Y003330D01*
X047962Y003350D01*
X047998Y003366D01*
X048035Y003378D01*
X048074Y003387D01*
X048113Y003392D01*
X048152Y003393D01*
X048191Y003390D01*
X048230Y003383D01*
X048267Y003372D01*
X048304Y003358D01*
X048339Y003340D01*
X048372Y003319D01*
X048403Y003294D01*
X048431Y003267D01*
X048456Y003237D01*
X048478Y003204D01*
X048497Y003170D01*
X048512Y003134D01*
X048524Y003096D01*
X048532Y003058D01*
X048536Y003019D01*
X048536Y002979D01*
X048532Y002940D01*
X048524Y002902D01*
X048512Y002864D01*
X048497Y002828D01*
X048478Y002794D01*
X048456Y002761D01*
X048431Y002731D01*
X048403Y002704D01*
X048372Y002679D01*
X048339Y002658D01*
X048304Y002640D01*
X048267Y002626D01*
X048230Y002615D01*
X048191Y002608D01*
X048152Y002605D01*
X048113Y002606D01*
X048074Y002611D01*
X048035Y002620D01*
X047998Y002632D01*
X047962Y002648D01*
X047928Y002668D01*
X047896Y002691D01*
X047867Y002717D01*
X047840Y002746D01*
X047816Y002777D01*
X047796Y002811D01*
X047779Y002846D01*
X047766Y002883D01*
X047756Y002921D01*
X047750Y002960D01*
X047748Y002999D01*
X048444Y003694D02*
X048446Y003733D01*
X048452Y003772D01*
X048462Y003810D01*
X048475Y003847D01*
X048492Y003882D01*
X048512Y003916D01*
X048536Y003947D01*
X048563Y003976D01*
X048592Y004002D01*
X048624Y004025D01*
X048658Y004045D01*
X048694Y004061D01*
X048731Y004073D01*
X048770Y004082D01*
X048809Y004087D01*
X048848Y004088D01*
X048887Y004085D01*
X048926Y004078D01*
X048963Y004067D01*
X049000Y004053D01*
X049035Y004035D01*
X049068Y004014D01*
X049099Y003989D01*
X049127Y003962D01*
X049152Y003932D01*
X049174Y003899D01*
X049193Y003865D01*
X049208Y003829D01*
X049220Y003791D01*
X049228Y003753D01*
X049232Y003714D01*
X049232Y003674D01*
X049228Y003635D01*
X049220Y003597D01*
X049208Y003559D01*
X049193Y003523D01*
X049174Y003489D01*
X049152Y003456D01*
X049127Y003426D01*
X049099Y003399D01*
X049068Y003374D01*
X049035Y003353D01*
X049000Y003335D01*
X048963Y003321D01*
X048926Y003310D01*
X048887Y003303D01*
X048848Y003300D01*
X048809Y003301D01*
X048770Y003306D01*
X048731Y003315D01*
X048694Y003327D01*
X048658Y003343D01*
X048624Y003363D01*
X048592Y003386D01*
X048563Y003412D01*
X048536Y003441D01*
X048512Y003472D01*
X048492Y003506D01*
X048475Y003541D01*
X048462Y003578D01*
X048452Y003616D01*
X048446Y003655D01*
X048444Y003694D01*
X048523Y005780D02*
X048421Y005762D01*
X048320Y005739D01*
X048221Y005712D01*
X048122Y005679D01*
X048026Y005641D01*
X047931Y005599D01*
X047839Y005553D01*
X047749Y005501D01*
X047662Y005446D01*
X047577Y005386D01*
X047496Y005322D01*
X047418Y005255D01*
X047343Y005183D01*
X047272Y005108D01*
X047204Y005029D01*
X047141Y004948D01*
X047081Y004863D01*
X047026Y004776D01*
X046975Y004685D01*
X046929Y004593D01*
X046887Y004498D01*
X046850Y004402D01*
X046818Y004303D01*
X046790Y004204D01*
X046768Y004103D01*
X046750Y004001D01*
X046738Y003898D01*
X046730Y003795D01*
X046728Y003691D01*
X046731Y003588D01*
X046738Y003485D01*
X046751Y003382D01*
X046769Y003280D01*
X046792Y003179D01*
X046820Y003079D01*
X046852Y002981D01*
X046889Y002885D01*
X046931Y002790D01*
X046978Y002698D01*
X047029Y002608D01*
X047085Y002520D01*
X047144Y002436D01*
X047208Y002354D01*
X047276Y002276D01*
X047347Y002201D01*
X047422Y002130D01*
X047500Y002062D01*
X047582Y001999D01*
X047667Y001939D01*
X047754Y001884D01*
X047844Y001833D01*
X047937Y001786D01*
X048031Y001744D01*
X048128Y001707D01*
X048226Y001675D01*
X048326Y001647D01*
X048427Y001624D01*
X048529Y001607D01*
X048631Y001594D01*
X048735Y001587D01*
X048838Y001584D01*
X048941Y001587D01*
X049045Y001594D01*
X049147Y001607D01*
X049249Y001624D01*
X049350Y001647D01*
X049450Y001675D01*
X049548Y001707D01*
X049645Y001744D01*
X049739Y001786D01*
X049832Y001833D01*
X049922Y001884D01*
X050009Y001939D01*
X050094Y001999D01*
X050176Y002062D01*
X050254Y002130D01*
X050329Y002201D01*
X050400Y002276D01*
X050468Y002354D01*
X050532Y002436D01*
X050591Y002520D01*
X050647Y002608D01*
X050698Y002698D01*
X050745Y002790D01*
X050787Y002885D01*
X050824Y002981D01*
X050856Y003079D01*
X050884Y003179D01*
X050907Y003280D01*
X050925Y003382D01*
X050938Y003485D01*
X050945Y003588D01*
X050948Y003691D01*
X050946Y003795D01*
X050938Y003898D01*
X050926Y004001D01*
X050908Y004103D01*
X050886Y004204D01*
X050858Y004303D01*
X050826Y004402D01*
X050789Y004498D01*
X050747Y004593D01*
X050701Y004685D01*
X050650Y004776D01*
X050595Y004863D01*
X050535Y004948D01*
X050472Y005029D01*
X050404Y005108D01*
X050333Y005183D01*
X050258Y005255D01*
X050180Y005322D01*
X050099Y005386D01*
X050014Y005446D01*
X049927Y005501D01*
X049837Y005553D01*
X049745Y005599D01*
X049650Y005641D01*
X049554Y005679D01*
X049455Y005712D01*
X049356Y005739D01*
X049255Y005762D01*
X049153Y005780D01*
X049133Y005781D02*
X049133Y005348D01*
X049131Y005315D01*
X049126Y005282D01*
X049116Y005251D01*
X049104Y005220D01*
X049088Y005191D01*
X049069Y005164D01*
X049047Y005139D01*
X049022Y005117D01*
X048995Y005098D01*
X048966Y005082D01*
X048935Y005070D01*
X048904Y005060D01*
X048871Y005055D01*
X048838Y005053D01*
X048805Y005055D01*
X048772Y005060D01*
X048741Y005070D01*
X048710Y005082D01*
X048681Y005098D01*
X048654Y005117D01*
X048629Y005139D01*
X048607Y005164D01*
X048588Y005191D01*
X048572Y005220D01*
X048560Y005251D01*
X048550Y005282D01*
X048545Y005315D01*
X048543Y005348D01*
X048543Y005781D01*
X047748Y004390D02*
X047750Y004429D01*
X047756Y004468D01*
X047766Y004506D01*
X047779Y004543D01*
X047796Y004578D01*
X047816Y004612D01*
X047840Y004643D01*
X047867Y004672D01*
X047896Y004698D01*
X047928Y004721D01*
X047962Y004741D01*
X047998Y004757D01*
X048035Y004769D01*
X048074Y004778D01*
X048113Y004783D01*
X048152Y004784D01*
X048191Y004781D01*
X048230Y004774D01*
X048267Y004763D01*
X048304Y004749D01*
X048339Y004731D01*
X048372Y004710D01*
X048403Y004685D01*
X048431Y004658D01*
X048456Y004628D01*
X048478Y004595D01*
X048497Y004561D01*
X048512Y004525D01*
X048524Y004487D01*
X048532Y004449D01*
X048536Y004410D01*
X048536Y004370D01*
X048532Y004331D01*
X048524Y004293D01*
X048512Y004255D01*
X048497Y004219D01*
X048478Y004185D01*
X048456Y004152D01*
X048431Y004122D01*
X048403Y004095D01*
X048372Y004070D01*
X048339Y004049D01*
X048304Y004031D01*
X048267Y004017D01*
X048230Y004006D01*
X048191Y003999D01*
X048152Y003996D01*
X048113Y003997D01*
X048074Y004002D01*
X048035Y004011D01*
X047998Y004023D01*
X047962Y004039D01*
X047928Y004059D01*
X047896Y004082D01*
X047867Y004108D01*
X047840Y004137D01*
X047816Y004168D01*
X047796Y004202D01*
X047779Y004237D01*
X047766Y004274D01*
X047756Y004312D01*
X047750Y004351D01*
X047748Y004390D01*
X049140Y004390D02*
X049142Y004429D01*
X049148Y004468D01*
X049158Y004506D01*
X049171Y004543D01*
X049188Y004578D01*
X049208Y004612D01*
X049232Y004643D01*
X049259Y004672D01*
X049288Y004698D01*
X049320Y004721D01*
X049354Y004741D01*
X049390Y004757D01*
X049427Y004769D01*
X049466Y004778D01*
X049505Y004783D01*
X049544Y004784D01*
X049583Y004781D01*
X049622Y004774D01*
X049659Y004763D01*
X049696Y004749D01*
X049731Y004731D01*
X049764Y004710D01*
X049795Y004685D01*
X049823Y004658D01*
X049848Y004628D01*
X049870Y004595D01*
X049889Y004561D01*
X049904Y004525D01*
X049916Y004487D01*
X049924Y004449D01*
X049928Y004410D01*
X049928Y004370D01*
X049924Y004331D01*
X049916Y004293D01*
X049904Y004255D01*
X049889Y004219D01*
X049870Y004185D01*
X049848Y004152D01*
X049823Y004122D01*
X049795Y004095D01*
X049764Y004070D01*
X049731Y004049D01*
X049696Y004031D01*
X049659Y004017D01*
X049622Y004006D01*
X049583Y003999D01*
X049544Y003996D01*
X049505Y003997D01*
X049466Y004002D01*
X049427Y004011D01*
X049390Y004023D01*
X049354Y004039D01*
X049320Y004059D01*
X049288Y004082D01*
X049259Y004108D01*
X049232Y004137D01*
X049208Y004168D01*
X049188Y004202D01*
X049171Y004237D01*
X049158Y004274D01*
X049148Y004312D01*
X049142Y004351D01*
X049140Y004390D01*
X040478Y004390D02*
X040480Y004429D01*
X040486Y004468D01*
X040496Y004506D01*
X040509Y004543D01*
X040526Y004578D01*
X040546Y004612D01*
X040570Y004643D01*
X040597Y004672D01*
X040626Y004698D01*
X040658Y004721D01*
X040692Y004741D01*
X040728Y004757D01*
X040765Y004769D01*
X040804Y004778D01*
X040843Y004783D01*
X040882Y004784D01*
X040921Y004781D01*
X040960Y004774D01*
X040997Y004763D01*
X041034Y004749D01*
X041069Y004731D01*
X041102Y004710D01*
X041133Y004685D01*
X041161Y004658D01*
X041186Y004628D01*
X041208Y004595D01*
X041227Y004561D01*
X041242Y004525D01*
X041254Y004487D01*
X041262Y004449D01*
X041266Y004410D01*
X041266Y004370D01*
X041262Y004331D01*
X041254Y004293D01*
X041242Y004255D01*
X041227Y004219D01*
X041208Y004185D01*
X041186Y004152D01*
X041161Y004122D01*
X041133Y004095D01*
X041102Y004070D01*
X041069Y004049D01*
X041034Y004031D01*
X040997Y004017D01*
X040960Y004006D01*
X040921Y003999D01*
X040882Y003996D01*
X040843Y003997D01*
X040804Y004002D01*
X040765Y004011D01*
X040728Y004023D01*
X040692Y004039D01*
X040658Y004059D01*
X040626Y004082D01*
X040597Y004108D01*
X040570Y004137D01*
X040546Y004168D01*
X040526Y004202D01*
X040509Y004237D01*
X040496Y004274D01*
X040486Y004312D01*
X040480Y004351D01*
X040478Y004390D01*
X039086Y004390D02*
X039088Y004429D01*
X039094Y004468D01*
X039104Y004506D01*
X039117Y004543D01*
X039134Y004578D01*
X039154Y004612D01*
X039178Y004643D01*
X039205Y004672D01*
X039234Y004698D01*
X039266Y004721D01*
X039300Y004741D01*
X039336Y004757D01*
X039373Y004769D01*
X039412Y004778D01*
X039451Y004783D01*
X039490Y004784D01*
X039529Y004781D01*
X039568Y004774D01*
X039605Y004763D01*
X039642Y004749D01*
X039677Y004731D01*
X039710Y004710D01*
X039741Y004685D01*
X039769Y004658D01*
X039794Y004628D01*
X039816Y004595D01*
X039835Y004561D01*
X039850Y004525D01*
X039862Y004487D01*
X039870Y004449D01*
X039874Y004410D01*
X039874Y004370D01*
X039870Y004331D01*
X039862Y004293D01*
X039850Y004255D01*
X039835Y004219D01*
X039816Y004185D01*
X039794Y004152D01*
X039769Y004122D01*
X039741Y004095D01*
X039710Y004070D01*
X039677Y004049D01*
X039642Y004031D01*
X039605Y004017D01*
X039568Y004006D01*
X039529Y003999D01*
X039490Y003996D01*
X039451Y003997D01*
X039412Y004002D01*
X039373Y004011D01*
X039336Y004023D01*
X039300Y004039D01*
X039266Y004059D01*
X039234Y004082D01*
X039205Y004108D01*
X039178Y004137D01*
X039154Y004168D01*
X039134Y004202D01*
X039117Y004237D01*
X039104Y004274D01*
X039094Y004312D01*
X039088Y004351D01*
X039086Y004390D01*
X039782Y003694D02*
X039784Y003733D01*
X039790Y003772D01*
X039800Y003810D01*
X039813Y003847D01*
X039830Y003882D01*
X039850Y003916D01*
X039874Y003947D01*
X039901Y003976D01*
X039930Y004002D01*
X039962Y004025D01*
X039996Y004045D01*
X040032Y004061D01*
X040069Y004073D01*
X040108Y004082D01*
X040147Y004087D01*
X040186Y004088D01*
X040225Y004085D01*
X040264Y004078D01*
X040301Y004067D01*
X040338Y004053D01*
X040373Y004035D01*
X040406Y004014D01*
X040437Y003989D01*
X040465Y003962D01*
X040490Y003932D01*
X040512Y003899D01*
X040531Y003865D01*
X040546Y003829D01*
X040558Y003791D01*
X040566Y003753D01*
X040570Y003714D01*
X040570Y003674D01*
X040566Y003635D01*
X040558Y003597D01*
X040546Y003559D01*
X040531Y003523D01*
X040512Y003489D01*
X040490Y003456D01*
X040465Y003426D01*
X040437Y003399D01*
X040406Y003374D01*
X040373Y003353D01*
X040338Y003335D01*
X040301Y003321D01*
X040264Y003310D01*
X040225Y003303D01*
X040186Y003300D01*
X040147Y003301D01*
X040108Y003306D01*
X040069Y003315D01*
X040032Y003327D01*
X039996Y003343D01*
X039962Y003363D01*
X039930Y003386D01*
X039901Y003412D01*
X039874Y003441D01*
X039850Y003472D01*
X039830Y003506D01*
X039813Y003541D01*
X039800Y003578D01*
X039790Y003616D01*
X039784Y003655D01*
X039782Y003694D01*
X039861Y005780D02*
X039759Y005762D01*
X039658Y005739D01*
X039559Y005712D01*
X039460Y005679D01*
X039364Y005641D01*
X039269Y005599D01*
X039177Y005553D01*
X039087Y005501D01*
X039000Y005446D01*
X038915Y005386D01*
X038834Y005322D01*
X038756Y005255D01*
X038681Y005183D01*
X038610Y005108D01*
X038542Y005029D01*
X038479Y004948D01*
X038419Y004863D01*
X038364Y004776D01*
X038313Y004685D01*
X038267Y004593D01*
X038225Y004498D01*
X038188Y004402D01*
X038156Y004303D01*
X038128Y004204D01*
X038106Y004103D01*
X038088Y004001D01*
X038076Y003898D01*
X038068Y003795D01*
X038066Y003691D01*
X038069Y003588D01*
X038076Y003485D01*
X038089Y003382D01*
X038107Y003280D01*
X038130Y003179D01*
X038158Y003079D01*
X038190Y002981D01*
X038227Y002885D01*
X038269Y002790D01*
X038316Y002698D01*
X038367Y002608D01*
X038423Y002520D01*
X038482Y002436D01*
X038546Y002354D01*
X038614Y002276D01*
X038685Y002201D01*
X038760Y002130D01*
X038838Y002062D01*
X038920Y001999D01*
X039005Y001939D01*
X039092Y001884D01*
X039182Y001833D01*
X039275Y001786D01*
X039369Y001744D01*
X039466Y001707D01*
X039564Y001675D01*
X039664Y001647D01*
X039765Y001624D01*
X039867Y001607D01*
X039969Y001594D01*
X040073Y001587D01*
X040176Y001584D01*
X040279Y001587D01*
X040383Y001594D01*
X040485Y001607D01*
X040587Y001624D01*
X040688Y001647D01*
X040788Y001675D01*
X040886Y001707D01*
X040983Y001744D01*
X041077Y001786D01*
X041170Y001833D01*
X041260Y001884D01*
X041347Y001939D01*
X041432Y001999D01*
X041514Y002062D01*
X041592Y002130D01*
X041667Y002201D01*
X041738Y002276D01*
X041806Y002354D01*
X041870Y002436D01*
X041929Y002520D01*
X041985Y002608D01*
X042036Y002698D01*
X042083Y002790D01*
X042125Y002885D01*
X042162Y002981D01*
X042194Y003079D01*
X042222Y003179D01*
X042245Y003280D01*
X042263Y003382D01*
X042276Y003485D01*
X042283Y003588D01*
X042286Y003691D01*
X042284Y003795D01*
X042276Y003898D01*
X042264Y004001D01*
X042246Y004103D01*
X042224Y004204D01*
X042196Y004303D01*
X042164Y004402D01*
X042127Y004498D01*
X042085Y004593D01*
X042039Y004685D01*
X041988Y004776D01*
X041933Y004863D01*
X041873Y004948D01*
X041810Y005029D01*
X041742Y005108D01*
X041671Y005183D01*
X041596Y005255D01*
X041518Y005322D01*
X041437Y005386D01*
X041352Y005446D01*
X041265Y005501D01*
X041175Y005553D01*
X041083Y005599D01*
X040988Y005641D01*
X040892Y005679D01*
X040793Y005712D01*
X040694Y005739D01*
X040593Y005762D01*
X040491Y005780D01*
X040472Y005781D02*
X040472Y005348D01*
X040471Y005348D02*
X040469Y005315D01*
X040464Y005282D01*
X040454Y005251D01*
X040442Y005220D01*
X040426Y005191D01*
X040407Y005164D01*
X040385Y005139D01*
X040360Y005117D01*
X040333Y005098D01*
X040304Y005082D01*
X040273Y005070D01*
X040242Y005060D01*
X040209Y005055D01*
X040176Y005053D01*
X040143Y005055D01*
X040110Y005060D01*
X040079Y005070D01*
X040048Y005082D01*
X040019Y005098D01*
X039992Y005117D01*
X039967Y005139D01*
X039945Y005164D01*
X039926Y005191D01*
X039910Y005220D01*
X039898Y005251D01*
X039888Y005282D01*
X039883Y005315D01*
X039881Y005348D01*
X039881Y005781D01*
X039086Y002999D02*
X039088Y003038D01*
X039094Y003077D01*
X039104Y003115D01*
X039117Y003152D01*
X039134Y003187D01*
X039154Y003221D01*
X039178Y003252D01*
X039205Y003281D01*
X039234Y003307D01*
X039266Y003330D01*
X039300Y003350D01*
X039336Y003366D01*
X039373Y003378D01*
X039412Y003387D01*
X039451Y003392D01*
X039490Y003393D01*
X039529Y003390D01*
X039568Y003383D01*
X039605Y003372D01*
X039642Y003358D01*
X039677Y003340D01*
X039710Y003319D01*
X039741Y003294D01*
X039769Y003267D01*
X039794Y003237D01*
X039816Y003204D01*
X039835Y003170D01*
X039850Y003134D01*
X039862Y003096D01*
X039870Y003058D01*
X039874Y003019D01*
X039874Y002979D01*
X039870Y002940D01*
X039862Y002902D01*
X039850Y002864D01*
X039835Y002828D01*
X039816Y002794D01*
X039794Y002761D01*
X039769Y002731D01*
X039741Y002704D01*
X039710Y002679D01*
X039677Y002658D01*
X039642Y002640D01*
X039605Y002626D01*
X039568Y002615D01*
X039529Y002608D01*
X039490Y002605D01*
X039451Y002606D01*
X039412Y002611D01*
X039373Y002620D01*
X039336Y002632D01*
X039300Y002648D01*
X039266Y002668D01*
X039234Y002691D01*
X039205Y002717D01*
X039178Y002746D01*
X039154Y002777D01*
X039134Y002811D01*
X039117Y002846D01*
X039104Y002883D01*
X039094Y002921D01*
X039088Y002960D01*
X039086Y002999D01*
X040478Y002999D02*
X040480Y003038D01*
X040486Y003077D01*
X040496Y003115D01*
X040509Y003152D01*
X040526Y003187D01*
X040546Y003221D01*
X040570Y003252D01*
X040597Y003281D01*
X040626Y003307D01*
X040658Y003330D01*
X040692Y003350D01*
X040728Y003366D01*
X040765Y003378D01*
X040804Y003387D01*
X040843Y003392D01*
X040882Y003393D01*
X040921Y003390D01*
X040960Y003383D01*
X040997Y003372D01*
X041034Y003358D01*
X041069Y003340D01*
X041102Y003319D01*
X041133Y003294D01*
X041161Y003267D01*
X041186Y003237D01*
X041208Y003204D01*
X041227Y003170D01*
X041242Y003134D01*
X041254Y003096D01*
X041262Y003058D01*
X041266Y003019D01*
X041266Y002979D01*
X041262Y002940D01*
X041254Y002902D01*
X041242Y002864D01*
X041227Y002828D01*
X041208Y002794D01*
X041186Y002761D01*
X041161Y002731D01*
X041133Y002704D01*
X041102Y002679D01*
X041069Y002658D01*
X041034Y002640D01*
X040997Y002626D01*
X040960Y002615D01*
X040921Y002608D01*
X040882Y002605D01*
X040843Y002606D01*
X040804Y002611D01*
X040765Y002620D01*
X040728Y002632D01*
X040692Y002648D01*
X040658Y002668D01*
X040626Y002691D01*
X040597Y002717D01*
X040570Y002746D01*
X040546Y002777D01*
X040526Y002811D01*
X040509Y002846D01*
X040496Y002883D01*
X040486Y002921D01*
X040480Y002960D01*
X040478Y002999D01*
X031817Y002999D02*
X031819Y003038D01*
X031825Y003077D01*
X031835Y003115D01*
X031848Y003152D01*
X031865Y003187D01*
X031885Y003221D01*
X031909Y003252D01*
X031936Y003281D01*
X031965Y003307D01*
X031997Y003330D01*
X032031Y003350D01*
X032067Y003366D01*
X032104Y003378D01*
X032143Y003387D01*
X032182Y003392D01*
X032221Y003393D01*
X032260Y003390D01*
X032299Y003383D01*
X032336Y003372D01*
X032373Y003358D01*
X032408Y003340D01*
X032441Y003319D01*
X032472Y003294D01*
X032500Y003267D01*
X032525Y003237D01*
X032547Y003204D01*
X032566Y003170D01*
X032581Y003134D01*
X032593Y003096D01*
X032601Y003058D01*
X032605Y003019D01*
X032605Y002979D01*
X032601Y002940D01*
X032593Y002902D01*
X032581Y002864D01*
X032566Y002828D01*
X032547Y002794D01*
X032525Y002761D01*
X032500Y002731D01*
X032472Y002704D01*
X032441Y002679D01*
X032408Y002658D01*
X032373Y002640D01*
X032336Y002626D01*
X032299Y002615D01*
X032260Y002608D01*
X032221Y002605D01*
X032182Y002606D01*
X032143Y002611D01*
X032104Y002620D01*
X032067Y002632D01*
X032031Y002648D01*
X031997Y002668D01*
X031965Y002691D01*
X031936Y002717D01*
X031909Y002746D01*
X031885Y002777D01*
X031865Y002811D01*
X031848Y002846D01*
X031835Y002883D01*
X031825Y002921D01*
X031819Y002960D01*
X031817Y002999D01*
X030425Y002999D02*
X030427Y003038D01*
X030433Y003077D01*
X030443Y003115D01*
X030456Y003152D01*
X030473Y003187D01*
X030493Y003221D01*
X030517Y003252D01*
X030544Y003281D01*
X030573Y003307D01*
X030605Y003330D01*
X030639Y003350D01*
X030675Y003366D01*
X030712Y003378D01*
X030751Y003387D01*
X030790Y003392D01*
X030829Y003393D01*
X030868Y003390D01*
X030907Y003383D01*
X030944Y003372D01*
X030981Y003358D01*
X031016Y003340D01*
X031049Y003319D01*
X031080Y003294D01*
X031108Y003267D01*
X031133Y003237D01*
X031155Y003204D01*
X031174Y003170D01*
X031189Y003134D01*
X031201Y003096D01*
X031209Y003058D01*
X031213Y003019D01*
X031213Y002979D01*
X031209Y002940D01*
X031201Y002902D01*
X031189Y002864D01*
X031174Y002828D01*
X031155Y002794D01*
X031133Y002761D01*
X031108Y002731D01*
X031080Y002704D01*
X031049Y002679D01*
X031016Y002658D01*
X030981Y002640D01*
X030944Y002626D01*
X030907Y002615D01*
X030868Y002608D01*
X030829Y002605D01*
X030790Y002606D01*
X030751Y002611D01*
X030712Y002620D01*
X030675Y002632D01*
X030639Y002648D01*
X030605Y002668D01*
X030573Y002691D01*
X030544Y002717D01*
X030517Y002746D01*
X030493Y002777D01*
X030473Y002811D01*
X030456Y002846D01*
X030443Y002883D01*
X030433Y002921D01*
X030427Y002960D01*
X030425Y002999D01*
X031121Y003694D02*
X031123Y003733D01*
X031129Y003772D01*
X031139Y003810D01*
X031152Y003847D01*
X031169Y003882D01*
X031189Y003916D01*
X031213Y003947D01*
X031240Y003976D01*
X031269Y004002D01*
X031301Y004025D01*
X031335Y004045D01*
X031371Y004061D01*
X031408Y004073D01*
X031447Y004082D01*
X031486Y004087D01*
X031525Y004088D01*
X031564Y004085D01*
X031603Y004078D01*
X031640Y004067D01*
X031677Y004053D01*
X031712Y004035D01*
X031745Y004014D01*
X031776Y003989D01*
X031804Y003962D01*
X031829Y003932D01*
X031851Y003899D01*
X031870Y003865D01*
X031885Y003829D01*
X031897Y003791D01*
X031905Y003753D01*
X031909Y003714D01*
X031909Y003674D01*
X031905Y003635D01*
X031897Y003597D01*
X031885Y003559D01*
X031870Y003523D01*
X031851Y003489D01*
X031829Y003456D01*
X031804Y003426D01*
X031776Y003399D01*
X031745Y003374D01*
X031712Y003353D01*
X031677Y003335D01*
X031640Y003321D01*
X031603Y003310D01*
X031564Y003303D01*
X031525Y003300D01*
X031486Y003301D01*
X031447Y003306D01*
X031408Y003315D01*
X031371Y003327D01*
X031335Y003343D01*
X031301Y003363D01*
X031269Y003386D01*
X031240Y003412D01*
X031213Y003441D01*
X031189Y003472D01*
X031169Y003506D01*
X031152Y003541D01*
X031139Y003578D01*
X031129Y003616D01*
X031123Y003655D01*
X031121Y003694D01*
X031200Y005780D02*
X031098Y005762D01*
X030997Y005739D01*
X030898Y005712D01*
X030799Y005679D01*
X030703Y005641D01*
X030608Y005599D01*
X030516Y005553D01*
X030426Y005501D01*
X030339Y005446D01*
X030254Y005386D01*
X030173Y005322D01*
X030095Y005255D01*
X030020Y005183D01*
X029949Y005108D01*
X029881Y005029D01*
X029818Y004948D01*
X029758Y004863D01*
X029703Y004776D01*
X029652Y004685D01*
X029606Y004593D01*
X029564Y004498D01*
X029527Y004402D01*
X029495Y004303D01*
X029467Y004204D01*
X029445Y004103D01*
X029427Y004001D01*
X029415Y003898D01*
X029407Y003795D01*
X029405Y003691D01*
X029408Y003588D01*
X029415Y003485D01*
X029428Y003382D01*
X029446Y003280D01*
X029469Y003179D01*
X029497Y003079D01*
X029529Y002981D01*
X029566Y002885D01*
X029608Y002790D01*
X029655Y002698D01*
X029706Y002608D01*
X029762Y002520D01*
X029821Y002436D01*
X029885Y002354D01*
X029953Y002276D01*
X030024Y002201D01*
X030099Y002130D01*
X030177Y002062D01*
X030259Y001999D01*
X030344Y001939D01*
X030431Y001884D01*
X030521Y001833D01*
X030614Y001786D01*
X030708Y001744D01*
X030805Y001707D01*
X030903Y001675D01*
X031003Y001647D01*
X031104Y001624D01*
X031206Y001607D01*
X031308Y001594D01*
X031412Y001587D01*
X031515Y001584D01*
X031618Y001587D01*
X031722Y001594D01*
X031824Y001607D01*
X031926Y001624D01*
X032027Y001647D01*
X032127Y001675D01*
X032225Y001707D01*
X032322Y001744D01*
X032416Y001786D01*
X032509Y001833D01*
X032599Y001884D01*
X032686Y001939D01*
X032771Y001999D01*
X032853Y002062D01*
X032931Y002130D01*
X033006Y002201D01*
X033077Y002276D01*
X033145Y002354D01*
X033209Y002436D01*
X033268Y002520D01*
X033324Y002608D01*
X033375Y002698D01*
X033422Y002790D01*
X033464Y002885D01*
X033501Y002981D01*
X033533Y003079D01*
X033561Y003179D01*
X033584Y003280D01*
X033602Y003382D01*
X033615Y003485D01*
X033622Y003588D01*
X033625Y003691D01*
X033623Y003795D01*
X033615Y003898D01*
X033603Y004001D01*
X033585Y004103D01*
X033563Y004204D01*
X033535Y004303D01*
X033503Y004402D01*
X033466Y004498D01*
X033424Y004593D01*
X033378Y004685D01*
X033327Y004776D01*
X033272Y004863D01*
X033212Y004948D01*
X033149Y005029D01*
X033081Y005108D01*
X033010Y005183D01*
X032935Y005255D01*
X032857Y005322D01*
X032776Y005386D01*
X032691Y005446D01*
X032604Y005501D01*
X032514Y005553D01*
X032422Y005599D01*
X032327Y005641D01*
X032231Y005679D01*
X032132Y005712D01*
X032033Y005739D01*
X031932Y005762D01*
X031830Y005780D01*
X031810Y005781D02*
X031810Y005348D01*
X031808Y005315D01*
X031803Y005282D01*
X031793Y005251D01*
X031781Y005220D01*
X031765Y005191D01*
X031746Y005164D01*
X031724Y005139D01*
X031699Y005117D01*
X031672Y005098D01*
X031643Y005082D01*
X031612Y005070D01*
X031581Y005060D01*
X031548Y005055D01*
X031515Y005053D01*
X031482Y005055D01*
X031449Y005060D01*
X031418Y005070D01*
X031387Y005082D01*
X031358Y005098D01*
X031331Y005117D01*
X031306Y005139D01*
X031284Y005164D01*
X031265Y005191D01*
X031249Y005220D01*
X031237Y005251D01*
X031227Y005282D01*
X031222Y005315D01*
X031220Y005348D01*
X031220Y005781D01*
X030425Y004390D02*
X030427Y004429D01*
X030433Y004468D01*
X030443Y004506D01*
X030456Y004543D01*
X030473Y004578D01*
X030493Y004612D01*
X030517Y004643D01*
X030544Y004672D01*
X030573Y004698D01*
X030605Y004721D01*
X030639Y004741D01*
X030675Y004757D01*
X030712Y004769D01*
X030751Y004778D01*
X030790Y004783D01*
X030829Y004784D01*
X030868Y004781D01*
X030907Y004774D01*
X030944Y004763D01*
X030981Y004749D01*
X031016Y004731D01*
X031049Y004710D01*
X031080Y004685D01*
X031108Y004658D01*
X031133Y004628D01*
X031155Y004595D01*
X031174Y004561D01*
X031189Y004525D01*
X031201Y004487D01*
X031209Y004449D01*
X031213Y004410D01*
X031213Y004370D01*
X031209Y004331D01*
X031201Y004293D01*
X031189Y004255D01*
X031174Y004219D01*
X031155Y004185D01*
X031133Y004152D01*
X031108Y004122D01*
X031080Y004095D01*
X031049Y004070D01*
X031016Y004049D01*
X030981Y004031D01*
X030944Y004017D01*
X030907Y004006D01*
X030868Y003999D01*
X030829Y003996D01*
X030790Y003997D01*
X030751Y004002D01*
X030712Y004011D01*
X030675Y004023D01*
X030639Y004039D01*
X030605Y004059D01*
X030573Y004082D01*
X030544Y004108D01*
X030517Y004137D01*
X030493Y004168D01*
X030473Y004202D01*
X030456Y004237D01*
X030443Y004274D01*
X030433Y004312D01*
X030427Y004351D01*
X030425Y004390D01*
X031817Y004390D02*
X031819Y004429D01*
X031825Y004468D01*
X031835Y004506D01*
X031848Y004543D01*
X031865Y004578D01*
X031885Y004612D01*
X031909Y004643D01*
X031936Y004672D01*
X031965Y004698D01*
X031997Y004721D01*
X032031Y004741D01*
X032067Y004757D01*
X032104Y004769D01*
X032143Y004778D01*
X032182Y004783D01*
X032221Y004784D01*
X032260Y004781D01*
X032299Y004774D01*
X032336Y004763D01*
X032373Y004749D01*
X032408Y004731D01*
X032441Y004710D01*
X032472Y004685D01*
X032500Y004658D01*
X032525Y004628D01*
X032547Y004595D01*
X032566Y004561D01*
X032581Y004525D01*
X032593Y004487D01*
X032601Y004449D01*
X032605Y004410D01*
X032605Y004370D01*
X032601Y004331D01*
X032593Y004293D01*
X032581Y004255D01*
X032566Y004219D01*
X032547Y004185D01*
X032525Y004152D01*
X032500Y004122D01*
X032472Y004095D01*
X032441Y004070D01*
X032408Y004049D01*
X032373Y004031D01*
X032336Y004017D01*
X032299Y004006D01*
X032260Y003999D01*
X032221Y003996D01*
X032182Y003997D01*
X032143Y004002D01*
X032104Y004011D01*
X032067Y004023D01*
X032031Y004039D01*
X031997Y004059D01*
X031965Y004082D01*
X031936Y004108D01*
X031909Y004137D01*
X031885Y004168D01*
X031865Y004202D01*
X031848Y004237D01*
X031835Y004274D01*
X031825Y004312D01*
X031819Y004351D01*
X031817Y004390D01*
M02*
