G75*
G70*
%OFA0B0*%
%FSLAX24Y24*%
%IPPOS*%
%LPD*%
%AMOC8*
5,1,8,0,0,1.08239X$1,22.5*
%
%ADD10C,0.0789*%
%ADD11C,0.1182*%
%ADD12C,0.1005*%
%ADD13C,0.0848*%
%ADD14C,0.1029*%
%ADD15C,0.0456*%
%ADD16C,0.0496*%
D10*
X029638Y003029D03*
X031030Y003029D03*
X030334Y003725D03*
X031030Y004421D03*
X029638Y004421D03*
X038299Y004421D03*
X039691Y004421D03*
X038995Y003725D03*
X038299Y003029D03*
X039691Y003029D03*
X046961Y003029D03*
X048353Y003029D03*
X047657Y003725D03*
X048353Y004421D03*
X046961Y004421D03*
X055622Y004421D03*
X057014Y004421D03*
X056318Y003725D03*
X055622Y003029D03*
X057014Y003029D03*
X064284Y003029D03*
X065676Y003029D03*
X064980Y003725D03*
X065676Y004421D03*
X064284Y004421D03*
X072945Y004421D03*
X073641Y003725D03*
X074337Y004421D03*
X074337Y003029D03*
X072945Y003029D03*
D11*
X070688Y003725D03*
X067932Y003725D03*
X062027Y003725D03*
X059271Y003725D03*
X053365Y003725D03*
X050609Y003725D03*
X044704Y003725D03*
X041948Y003725D03*
X036043Y003725D03*
X033287Y003725D03*
X027381Y003725D03*
X076594Y003725D03*
D12*
X027381Y001166D03*
X033287Y001166D03*
X036043Y001166D03*
X041948Y001166D03*
X044704Y001166D03*
X050609Y001166D03*
X053365Y001166D03*
X059271Y001166D03*
X062027Y001166D03*
X067932Y001166D03*
X070688Y001166D03*
X076594Y001166D03*
D13*
X073641Y000693D03*
X064980Y000693D03*
X056318Y000693D03*
X047657Y000693D03*
X038995Y000693D03*
X030334Y000693D03*
D14*
X031968Y008449D03*
X033424Y008449D03*
X037480Y008449D03*
X038936Y008449D03*
X042991Y008449D03*
X044448Y008449D03*
X048503Y008449D03*
X049960Y008449D03*
X054015Y008449D03*
X055472Y008449D03*
X059527Y008449D03*
X060983Y008449D03*
X065039Y008449D03*
X066495Y008449D03*
X070550Y008449D03*
X072007Y008449D03*
X076062Y008449D03*
X027913Y008449D03*
D15*
X029940Y009237D03*
X031909Y010418D03*
X035452Y009237D03*
X037420Y010418D03*
X040964Y009237D03*
X042932Y010418D03*
X046476Y009237D03*
X048444Y010418D03*
X051987Y009237D03*
X053956Y010418D03*
X057499Y009237D03*
X059468Y010418D03*
X063011Y009237D03*
X064980Y010418D03*
X068523Y009237D03*
X070491Y010418D03*
X074035Y009237D03*
X076003Y010418D03*
X074035Y007662D03*
X068523Y007662D03*
X063011Y007662D03*
X059468Y006481D03*
X057499Y007662D03*
X053956Y006481D03*
X051987Y007662D03*
X048444Y006481D03*
X046476Y007662D03*
X042932Y006481D03*
X040964Y007662D03*
X037420Y006481D03*
X035452Y007662D03*
X031909Y006481D03*
X030334Y007662D03*
D16*
X028759Y005300D03*
M02*
