G75*
G70*
%OFA0B0*%
%FSLAX24Y24*%
%IPPOS*%
%LPD*%
%AMOC8*
5,1,8,0,0,1.08239X$1,22.5*
%
%ADD10C,0.0789*%
%ADD11C,0.1182*%
%ADD12C,0.1005*%
%ADD13C,0.0848*%
%ADD14C,0.1029*%
%ADD15C,0.0456*%
%ADD16C,0.0496*%
D10*
X030819Y003029D03*
X032211Y003029D03*
X031515Y003725D03*
X032211Y004421D03*
X030819Y004421D03*
X039480Y004421D03*
X040176Y003725D03*
X040872Y004421D03*
X040872Y003029D03*
X039480Y003029D03*
X048142Y003029D03*
X049534Y003029D03*
X048838Y003725D03*
X049534Y004421D03*
X048142Y004421D03*
X056803Y004421D03*
X057499Y003725D03*
X058195Y004421D03*
X058195Y003029D03*
X056803Y003029D03*
X065465Y003029D03*
X066857Y003029D03*
X066161Y003725D03*
X066857Y004421D03*
X065465Y004421D03*
X074126Y004421D03*
X074822Y003725D03*
X075518Y004421D03*
X075518Y003029D03*
X074126Y003029D03*
D11*
X071869Y003725D03*
X069113Y003725D03*
X063208Y003725D03*
X060452Y003725D03*
X054546Y003725D03*
X051791Y003725D03*
X045885Y003725D03*
X043129Y003725D03*
X037224Y003725D03*
X034468Y003725D03*
X028562Y003725D03*
X077775Y003725D03*
D12*
X028562Y001166D03*
X034468Y001166D03*
X037224Y001166D03*
X043129Y001166D03*
X045885Y001166D03*
X051791Y001166D03*
X054546Y001166D03*
X060452Y001166D03*
X063208Y001166D03*
X069113Y001166D03*
X071869Y001166D03*
X077775Y001166D03*
D13*
X074822Y000693D03*
X066161Y000693D03*
X057499Y000693D03*
X048838Y000693D03*
X040176Y000693D03*
X031515Y000693D03*
D14*
X033149Y008449D03*
X034606Y008449D03*
X038661Y008449D03*
X040117Y008449D03*
X044172Y008449D03*
X045629Y008449D03*
X049684Y008449D03*
X051141Y008449D03*
X055196Y008449D03*
X056653Y008449D03*
X060708Y008449D03*
X062165Y008449D03*
X066220Y008449D03*
X067676Y008449D03*
X071731Y008449D03*
X073188Y008449D03*
X077243Y008449D03*
X029094Y008449D03*
D15*
X031121Y009237D03*
X033090Y010418D03*
X036633Y009237D03*
X038602Y010418D03*
X042145Y009237D03*
X044113Y010418D03*
X047657Y009237D03*
X049625Y010418D03*
X053169Y009237D03*
X055137Y010418D03*
X058680Y009237D03*
X060649Y010418D03*
X064192Y009237D03*
X066161Y010418D03*
X069704Y009237D03*
X071672Y010418D03*
X075216Y009237D03*
X077184Y010418D03*
X075216Y007662D03*
X069704Y007662D03*
X064192Y007662D03*
X060649Y006481D03*
X058680Y007662D03*
X055137Y006481D03*
X053169Y007662D03*
X049625Y006481D03*
X047657Y007662D03*
X044113Y006481D03*
X042145Y007662D03*
X038602Y006481D03*
X036633Y007662D03*
X033090Y006481D03*
X031515Y007662D03*
D16*
X029940Y005300D03*
M02*
