G75*
G70*
%OFA0B0*%
%FSLAX24Y24*%
%IPPOS*%
%LPD*%
%AMOC8*
5,1,8,0,0,1.08239X$1,22.5*
%
%ADD10C,0.0060*%
%ADD11C,0.0160*%
%ADD12C,0.0120*%
%ADD13C,0.0070*%
%ADD14C,0.0020*%
%ADD15C,0.0050*%
%ADD16C,0.0079*%
D10*
X029970Y006904D02*
X030397Y007545D01*
X030615Y007225D02*
X031042Y007225D01*
X031259Y007438D02*
X031366Y007545D01*
X031579Y007545D01*
X031686Y007438D01*
X031686Y007331D01*
X031259Y006904D01*
X031686Y006904D01*
X031904Y007011D02*
X032331Y007438D01*
X032331Y007011D01*
X032224Y006904D01*
X032010Y006904D01*
X031904Y007011D01*
X031904Y007438D01*
X032010Y007545D01*
X032224Y007545D01*
X032331Y007438D01*
X032548Y007545D02*
X032548Y007225D01*
X032762Y007331D01*
X032869Y007331D01*
X032975Y007225D01*
X032975Y007011D01*
X032869Y006904D01*
X032655Y006904D01*
X032548Y007011D01*
X032548Y007545D02*
X032975Y007545D01*
X030397Y006904D02*
X029970Y007545D01*
X038632Y007545D02*
X039059Y006904D01*
X038632Y006904D02*
X039059Y007545D01*
X039276Y007225D02*
X039703Y007225D01*
X039921Y007438D02*
X040027Y007545D01*
X040241Y007545D01*
X040348Y007438D01*
X040348Y007331D01*
X039921Y006904D01*
X040348Y006904D01*
X040565Y007011D02*
X040992Y007438D01*
X040992Y007011D01*
X040885Y006904D01*
X040672Y006904D01*
X040565Y007011D01*
X040565Y007438D01*
X040672Y007545D01*
X040885Y007545D01*
X040992Y007438D01*
X041210Y007438D02*
X041316Y007545D01*
X041530Y007545D01*
X041637Y007438D01*
X041637Y007331D01*
X041210Y006904D01*
X041637Y006904D01*
X047293Y006904D02*
X047720Y007545D01*
X047938Y007225D02*
X048365Y007225D01*
X048582Y007438D02*
X048689Y007545D01*
X048902Y007545D01*
X049009Y007438D01*
X049009Y007331D01*
X048582Y006904D01*
X049009Y006904D01*
X049227Y007011D02*
X049654Y007438D01*
X049654Y007011D01*
X049547Y006904D01*
X049333Y006904D01*
X049227Y007011D01*
X049227Y007438D01*
X049333Y007545D01*
X049547Y007545D01*
X049654Y007438D01*
X049871Y007331D02*
X050085Y007545D01*
X050085Y006904D01*
X050298Y006904D02*
X049871Y006904D01*
X047720Y006904D02*
X047293Y007545D01*
X055954Y007545D02*
X056381Y006904D01*
X055954Y006904D02*
X056381Y007545D01*
X056599Y007225D02*
X057026Y007225D01*
X057243Y007438D02*
X057350Y007545D01*
X057564Y007545D01*
X057670Y007438D01*
X057670Y007331D01*
X057243Y006904D01*
X057670Y006904D01*
X057888Y007011D02*
X058315Y007438D01*
X058315Y007011D01*
X058208Y006904D01*
X057995Y006904D01*
X057888Y007011D01*
X057888Y007438D01*
X057995Y007545D01*
X058208Y007545D01*
X058315Y007438D01*
X058533Y007225D02*
X058960Y007225D01*
X058853Y007545D02*
X058533Y007225D01*
X058853Y007545D02*
X058853Y006904D01*
X064616Y006904D02*
X065043Y007545D01*
X065260Y007225D02*
X065687Y007225D01*
X065905Y007438D02*
X066012Y007545D01*
X066225Y007545D01*
X066332Y007438D01*
X066332Y007331D01*
X065905Y006904D01*
X066332Y006904D01*
X066549Y007011D02*
X066976Y007438D01*
X066976Y007011D01*
X066870Y006904D01*
X066656Y006904D01*
X066549Y007011D01*
X066549Y007438D01*
X066656Y007545D01*
X066870Y007545D01*
X066976Y007438D01*
X067194Y007438D02*
X067194Y007331D01*
X067301Y007225D01*
X067514Y007225D01*
X067621Y007118D01*
X067621Y007011D01*
X067514Y006904D01*
X067301Y006904D01*
X067194Y007011D01*
X067194Y007118D01*
X067301Y007225D01*
X067514Y007225D02*
X067621Y007331D01*
X067621Y007438D01*
X067514Y007545D01*
X067301Y007545D01*
X067194Y007438D01*
X065043Y006904D02*
X064616Y007545D01*
X069427Y007440D02*
X069427Y007227D01*
X069534Y007120D01*
X069427Y007440D02*
X069534Y007547D01*
X069641Y007547D01*
X070068Y007120D01*
X070068Y007547D01*
X071002Y007334D02*
X071215Y007547D01*
X071642Y007547D01*
X071322Y007547D02*
X071322Y007120D01*
X071215Y007120D02*
X071002Y007334D01*
X071215Y007120D02*
X071642Y007120D01*
X073277Y006904D02*
X073704Y007545D01*
X073922Y007225D02*
X074349Y007225D01*
X074566Y007438D02*
X074673Y007545D01*
X074887Y007545D01*
X074993Y007438D01*
X074993Y007331D01*
X074566Y006904D01*
X074993Y006904D01*
X075211Y007011D02*
X075318Y006904D01*
X075531Y006904D01*
X075638Y007011D01*
X075638Y007438D01*
X075211Y007011D01*
X075211Y007438D01*
X075318Y007545D01*
X075531Y007545D01*
X075638Y007438D01*
X075855Y007438D02*
X075962Y007545D01*
X076176Y007545D01*
X076282Y007438D01*
X076282Y007331D01*
X076176Y007225D01*
X076282Y007118D01*
X076282Y007011D01*
X076176Y006904D01*
X075962Y006904D01*
X075855Y007011D01*
X076069Y007225D02*
X076176Y007225D01*
X073704Y006904D02*
X073277Y007545D01*
X071642Y006258D02*
X071002Y006258D01*
X071002Y005831D02*
X071642Y006258D01*
X071642Y005831D02*
X071002Y005831D01*
X071215Y005614D02*
X071642Y005614D01*
X071322Y005614D02*
X071322Y005187D01*
X071215Y005187D02*
X071002Y005400D01*
X071215Y005614D01*
X070068Y005614D02*
X069641Y005614D01*
X069427Y005400D01*
X069641Y005187D01*
X070068Y005187D01*
X069961Y004969D02*
X070068Y004862D01*
X070068Y004649D01*
X069961Y004542D01*
X069534Y004542D01*
X069427Y004649D01*
X069427Y004862D01*
X069534Y004969D01*
X069747Y005187D02*
X069747Y005614D01*
X069427Y005831D02*
X070068Y006258D01*
X069427Y006258D01*
X069427Y005831D02*
X070068Y005831D01*
X071215Y005187D02*
X071642Y005187D01*
X071536Y004969D02*
X071642Y004862D01*
X071642Y004649D01*
X071536Y004542D01*
X071109Y004542D01*
X071002Y004649D01*
X071002Y004862D01*
X071109Y004969D01*
D11*
X070491Y004906D02*
X070491Y005300D01*
X070491Y005693D02*
X070491Y006087D01*
X070491Y006481D02*
X070491Y006874D01*
X070491Y007268D02*
X070491Y007662D01*
X070491Y008055D02*
X070491Y008449D01*
X070491Y008843D02*
X070491Y009237D01*
X070491Y009630D02*
X070491Y010024D01*
X070491Y010418D02*
X070491Y010811D01*
X070491Y004512D02*
X070491Y004118D01*
X070491Y003725D02*
X070491Y003331D01*
X070491Y002937D02*
X070491Y002544D01*
X070491Y002150D02*
X070491Y001756D01*
X070491Y001363D02*
X070491Y000969D01*
X070491Y000575D02*
X070491Y000181D01*
D12*
X045920Y008836D02*
X045920Y010217D01*
X046610Y010217D01*
X046841Y009987D01*
X046841Y009527D01*
X046610Y009297D01*
X045920Y009297D01*
X045459Y009297D02*
X044769Y009757D01*
X045459Y010217D01*
X044769Y010678D02*
X044769Y009297D01*
X044308Y009297D02*
X043618Y009297D01*
X043388Y009527D01*
X043388Y009987D01*
X043618Y010217D01*
X044308Y010217D01*
X042927Y009987D02*
X042927Y009297D01*
X042237Y009297D01*
X042007Y009527D01*
X042237Y009757D01*
X042927Y009757D01*
X042927Y009987D02*
X042697Y010217D01*
X042237Y010217D01*
X041546Y010217D02*
X041546Y010447D01*
X041316Y010678D01*
X040625Y010678D01*
X040625Y009297D01*
X041316Y009297D01*
X041546Y009527D01*
X041546Y009757D01*
X041316Y009987D01*
X040625Y009987D01*
X041316Y009987D02*
X041546Y010217D01*
X038784Y010678D02*
X038784Y009297D01*
X037863Y010678D01*
X037863Y009297D01*
X037403Y009297D02*
X037403Y010217D01*
X036942Y010678D01*
X036482Y010217D01*
X036482Y009297D01*
X036022Y009527D02*
X035791Y009297D01*
X035331Y009297D01*
X035101Y009527D01*
X035101Y010447D01*
X035331Y010678D01*
X035791Y010678D01*
X036022Y010447D01*
X036482Y009987D02*
X037403Y009987D01*
X033259Y010217D02*
X032569Y009757D01*
X033259Y009297D01*
X032569Y009297D02*
X032569Y010678D01*
X031878Y010217D02*
X031188Y010217D01*
X031188Y009297D01*
X030727Y009297D02*
X030037Y009297D01*
X029806Y009527D01*
X030037Y009757D01*
X030727Y009757D01*
X030727Y009987D02*
X030727Y009297D01*
X032108Y009297D02*
X032108Y009987D01*
X031878Y010217D01*
X030727Y009987D02*
X030497Y010217D01*
X030037Y010217D01*
X029346Y010678D02*
X028425Y010678D01*
X028886Y010678D02*
X028886Y009297D01*
X047301Y009297D02*
X047761Y009297D01*
X047531Y009297D02*
X047531Y010678D01*
X047301Y010678D01*
X048452Y010217D02*
X048912Y010217D01*
X049142Y009987D01*
X049142Y009297D01*
X048452Y009297D01*
X048222Y009527D01*
X048452Y009757D01*
X049142Y009757D01*
X049603Y010217D02*
X050293Y010217D01*
X050524Y009987D01*
X050524Y009297D01*
X050984Y009527D02*
X050984Y009987D01*
X051214Y010217D01*
X051675Y010217D01*
X051905Y009987D01*
X051905Y009757D01*
X050984Y009757D01*
X050984Y009527D02*
X051214Y009297D01*
X051675Y009297D01*
X049603Y009297D02*
X049603Y010217D01*
D13*
X054542Y010062D02*
X054542Y009535D01*
X054806Y009272D01*
X055069Y009535D01*
X055069Y010062D01*
X055334Y009667D02*
X055466Y009799D01*
X055729Y009799D01*
X055861Y009667D01*
X055861Y009535D01*
X055334Y009535D01*
X055334Y009403D02*
X055334Y009667D01*
X055334Y009403D02*
X055466Y009272D01*
X055729Y009272D01*
X056126Y009272D02*
X056126Y009799D01*
X056389Y009799D02*
X056126Y009535D01*
X056389Y009799D02*
X056521Y009799D01*
X056786Y009667D02*
X056917Y009799D01*
X057313Y009799D01*
X057578Y009799D02*
X057709Y009799D01*
X057709Y009272D01*
X057578Y009272D02*
X057841Y009272D01*
X058105Y009403D02*
X058105Y009667D01*
X058237Y009799D01*
X058501Y009799D01*
X058633Y009667D01*
X058633Y009403D01*
X058501Y009272D01*
X058237Y009272D01*
X058105Y009403D01*
X057313Y009403D02*
X057181Y009535D01*
X056917Y009535D01*
X056786Y009667D01*
X056786Y009272D02*
X057181Y009272D01*
X057313Y009403D01*
X058897Y009272D02*
X058897Y009799D01*
X059293Y009799D01*
X059424Y009667D01*
X059424Y009272D01*
X060481Y009272D02*
X061008Y009272D01*
X060745Y009272D02*
X060745Y010062D01*
X060481Y009799D01*
X061669Y009799D02*
X061932Y010062D01*
X061932Y009272D01*
X061669Y009272D02*
X062196Y009272D01*
X061405Y009272D02*
X061273Y009272D01*
X061273Y009403D01*
X061405Y009403D01*
X061405Y009272D01*
X057709Y010062D02*
X057709Y010194D01*
D14*
X063267Y010197D02*
X063271Y008528D01*
X063287Y008528D01*
X063680Y008134D01*
X064704Y008122D01*
X065106Y008524D01*
X065109Y009075D01*
X064842Y008949D01*
X065109Y008949D01*
X065108Y008931D02*
X064578Y008931D01*
X064578Y008913D02*
X065108Y008913D01*
X065108Y008895D02*
X064578Y008895D01*
X064578Y008876D02*
X065108Y008876D01*
X065108Y008858D02*
X064578Y008858D01*
X064578Y008840D02*
X065108Y008840D01*
X065108Y008822D02*
X064578Y008822D01*
X064578Y008811D02*
X064578Y009071D01*
X064842Y008949D01*
X064841Y008949D02*
X064578Y008949D01*
X064578Y008967D02*
X064802Y008967D01*
X064763Y008986D02*
X064578Y008986D01*
X064578Y009004D02*
X064723Y009004D01*
X064684Y009022D02*
X064578Y009022D01*
X064578Y009040D02*
X064644Y009040D01*
X064605Y009059D02*
X064578Y009059D01*
X064578Y008811D02*
X064460Y008693D01*
X063909Y008697D01*
X063810Y008796D01*
X063810Y009906D01*
X063920Y010012D01*
X064468Y010012D01*
X064574Y009914D01*
X064570Y009713D01*
X064850Y009599D01*
X065109Y009713D01*
X065109Y010201D01*
X064700Y010611D01*
X063688Y010614D01*
X063267Y010197D01*
X063267Y010189D02*
X065109Y010189D01*
X065109Y010171D02*
X063267Y010171D01*
X063267Y010152D02*
X065109Y010152D01*
X065109Y010134D02*
X063267Y010134D01*
X063267Y010116D02*
X065109Y010116D01*
X065109Y010098D02*
X063267Y010098D01*
X063267Y010079D02*
X065109Y010079D01*
X065109Y010061D02*
X063267Y010061D01*
X063267Y010043D02*
X065109Y010043D01*
X065109Y010025D02*
X063267Y010025D01*
X063267Y010006D02*
X063915Y010006D01*
X063896Y009988D02*
X063267Y009988D01*
X063267Y009970D02*
X063877Y009970D01*
X063858Y009952D02*
X063268Y009952D01*
X063268Y009934D02*
X063839Y009934D01*
X063820Y009915D02*
X063268Y009915D01*
X063268Y009897D02*
X063810Y009897D01*
X063810Y009879D02*
X063268Y009879D01*
X063268Y009861D02*
X063810Y009861D01*
X063810Y009842D02*
X063268Y009842D01*
X063268Y009824D02*
X063810Y009824D01*
X063810Y009806D02*
X063268Y009806D01*
X063268Y009788D02*
X063810Y009788D01*
X063810Y009770D02*
X063268Y009770D01*
X063268Y009751D02*
X063810Y009751D01*
X063810Y009733D02*
X063268Y009733D01*
X063268Y009715D02*
X063810Y009715D01*
X063810Y009697D02*
X063268Y009697D01*
X063268Y009678D02*
X063810Y009678D01*
X063810Y009660D02*
X063268Y009660D01*
X063268Y009642D02*
X063810Y009642D01*
X063810Y009624D02*
X063268Y009624D01*
X063268Y009605D02*
X063810Y009605D01*
X063810Y009587D02*
X063268Y009587D01*
X063268Y009569D02*
X063810Y009569D01*
X063810Y009551D02*
X063268Y009551D01*
X063269Y009533D02*
X063810Y009533D01*
X063810Y009514D02*
X063269Y009514D01*
X063269Y009496D02*
X063810Y009496D01*
X063810Y009478D02*
X063269Y009478D01*
X063269Y009460D02*
X063810Y009460D01*
X063810Y009441D02*
X063269Y009441D01*
X063269Y009423D02*
X063810Y009423D01*
X063810Y009405D02*
X063269Y009405D01*
X063269Y009387D02*
X063810Y009387D01*
X063810Y009369D02*
X063269Y009369D01*
X063269Y009350D02*
X063810Y009350D01*
X063810Y009332D02*
X063269Y009332D01*
X063269Y009314D02*
X063810Y009314D01*
X063810Y009296D02*
X063269Y009296D01*
X063269Y009277D02*
X063810Y009277D01*
X063810Y009259D02*
X063269Y009259D01*
X063269Y009241D02*
X063810Y009241D01*
X063810Y009223D02*
X063269Y009223D01*
X063269Y009204D02*
X063810Y009204D01*
X063810Y009186D02*
X063269Y009186D01*
X063269Y009168D02*
X063810Y009168D01*
X063810Y009150D02*
X063269Y009150D01*
X063269Y009132D02*
X063810Y009132D01*
X063810Y009113D02*
X063269Y009113D01*
X063270Y009095D02*
X063810Y009095D01*
X063810Y009077D02*
X063270Y009077D01*
X063270Y009059D02*
X063810Y009059D01*
X063810Y009040D02*
X063270Y009040D01*
X063270Y009022D02*
X063810Y009022D01*
X063810Y009004D02*
X063270Y009004D01*
X063270Y008986D02*
X063810Y008986D01*
X063810Y008967D02*
X063270Y008967D01*
X063270Y008949D02*
X063810Y008949D01*
X063810Y008931D02*
X063270Y008931D01*
X063270Y008913D02*
X063810Y008913D01*
X063810Y008895D02*
X063270Y008895D01*
X063270Y008876D02*
X063810Y008876D01*
X063810Y008858D02*
X063270Y008858D01*
X063270Y008840D02*
X063810Y008840D01*
X063810Y008822D02*
X063270Y008822D01*
X063270Y008803D02*
X063810Y008803D01*
X063821Y008785D02*
X063270Y008785D01*
X063270Y008767D02*
X063839Y008767D01*
X063857Y008749D02*
X063270Y008749D01*
X063270Y008731D02*
X063875Y008731D01*
X063894Y008712D02*
X063270Y008712D01*
X063271Y008694D02*
X064344Y008694D01*
X064461Y008694D02*
X065107Y008694D01*
X065107Y008676D02*
X063271Y008676D01*
X063271Y008658D02*
X065106Y008658D01*
X065106Y008639D02*
X063271Y008639D01*
X063271Y008621D02*
X065106Y008621D01*
X065106Y008603D02*
X063271Y008603D01*
X063271Y008585D02*
X065106Y008585D01*
X065106Y008566D02*
X063271Y008566D01*
X063271Y008548D02*
X065106Y008548D01*
X065106Y008530D02*
X063271Y008530D01*
X063303Y008512D02*
X065093Y008512D01*
X065075Y008494D02*
X063321Y008494D01*
X063339Y008475D02*
X065057Y008475D01*
X065039Y008457D02*
X063357Y008457D01*
X063376Y008439D02*
X065020Y008439D01*
X065002Y008421D02*
X063394Y008421D01*
X063412Y008402D02*
X064984Y008402D01*
X064966Y008384D02*
X063430Y008384D01*
X063449Y008366D02*
X064948Y008366D01*
X064929Y008348D02*
X063467Y008348D01*
X063485Y008329D02*
X064911Y008329D01*
X064893Y008311D02*
X063503Y008311D01*
X063521Y008293D02*
X064875Y008293D01*
X064856Y008275D02*
X063540Y008275D01*
X063558Y008257D02*
X064838Y008257D01*
X064820Y008238D02*
X063576Y008238D01*
X063594Y008220D02*
X064802Y008220D01*
X064783Y008202D02*
X063613Y008202D01*
X063631Y008184D02*
X064765Y008184D01*
X064747Y008165D02*
X063649Y008165D01*
X063667Y008147D02*
X064729Y008147D01*
X064711Y008129D02*
X064131Y008129D01*
X064479Y008712D02*
X065107Y008712D01*
X065107Y008731D02*
X064497Y008731D01*
X064515Y008749D02*
X065107Y008749D01*
X065107Y008767D02*
X064534Y008767D01*
X064552Y008785D02*
X065107Y008785D01*
X065108Y008803D02*
X064570Y008803D01*
X064881Y008967D02*
X065109Y008967D01*
X065109Y008986D02*
X064919Y008986D01*
X064958Y009004D02*
X065109Y009004D01*
X065109Y009022D02*
X064997Y009022D01*
X065036Y009040D02*
X065109Y009040D01*
X065109Y009059D02*
X065074Y009059D01*
X064865Y009605D02*
X064833Y009605D01*
X064789Y009624D02*
X064906Y009624D01*
X064948Y009642D02*
X064744Y009642D01*
X064699Y009660D02*
X064989Y009660D01*
X065031Y009678D02*
X064655Y009678D01*
X064610Y009697D02*
X065072Y009697D01*
X065109Y009715D02*
X064570Y009715D01*
X064570Y009733D02*
X065109Y009733D01*
X065109Y009751D02*
X064571Y009751D01*
X064571Y009770D02*
X065109Y009770D01*
X065109Y009788D02*
X064572Y009788D01*
X064572Y009806D02*
X065109Y009806D01*
X065109Y009824D02*
X064572Y009824D01*
X064573Y009842D02*
X065109Y009842D01*
X065109Y009861D02*
X064573Y009861D01*
X064573Y009879D02*
X065109Y009879D01*
X065109Y009897D02*
X064574Y009897D01*
X064572Y009915D02*
X065109Y009915D01*
X065109Y009934D02*
X064553Y009934D01*
X064533Y009952D02*
X065109Y009952D01*
X065109Y009970D02*
X064513Y009970D01*
X064494Y009988D02*
X065109Y009988D01*
X065109Y010006D02*
X064474Y010006D01*
X064885Y010426D02*
X063498Y010426D01*
X063516Y010444D02*
X064867Y010444D01*
X064848Y010462D02*
X063534Y010462D01*
X063553Y010480D02*
X064830Y010480D01*
X064812Y010499D02*
X063571Y010499D01*
X063590Y010517D02*
X064794Y010517D01*
X064775Y010535D02*
X063608Y010535D01*
X063626Y010553D02*
X064757Y010553D01*
X064739Y010572D02*
X063645Y010572D01*
X063663Y010590D02*
X064721Y010590D01*
X064703Y010608D02*
X063682Y010608D01*
X063479Y010408D02*
X064903Y010408D01*
X064921Y010389D02*
X063461Y010389D01*
X063442Y010371D02*
X064939Y010371D01*
X064958Y010353D02*
X063424Y010353D01*
X063406Y010335D02*
X064976Y010335D01*
X064994Y010316D02*
X063387Y010316D01*
X063369Y010298D02*
X065012Y010298D01*
X065031Y010280D02*
X063350Y010280D01*
X063332Y010262D02*
X065049Y010262D01*
X065067Y010243D02*
X063314Y010243D01*
X063295Y010225D02*
X065085Y010225D01*
X065104Y010207D02*
X063277Y010207D01*
D15*
X028877Y002386D02*
X028169Y001953D01*
X028168Y001954D02*
X028119Y001925D01*
X028072Y001893D01*
X028027Y001858D01*
X027984Y001821D01*
X027944Y001780D01*
X027907Y001737D01*
X027874Y001691D01*
X027843Y001643D01*
X027815Y001593D01*
X027791Y001542D01*
X027771Y001489D01*
X027754Y001434D01*
X027741Y001379D01*
X027732Y001323D01*
X027727Y001266D01*
X027725Y001209D01*
X027727Y001152D01*
X027734Y001096D01*
X027744Y001040D01*
X027757Y000985D01*
X027775Y000930D01*
X027796Y000878D01*
X027821Y000826D01*
X027849Y000777D01*
X027880Y000729D01*
X027915Y000684D01*
X027952Y000641D01*
X027993Y000601D01*
X028036Y000564D01*
X028081Y000530D01*
X028129Y000499D01*
X028179Y000471D01*
X028230Y000447D01*
X028283Y000426D01*
X028337Y000409D01*
X028392Y000395D01*
X028449Y000386D01*
X028505Y000380D01*
X028562Y000378D01*
X034468Y000378D01*
X033220Y000772D02*
X029810Y000772D01*
X028106Y003725D01*
X028102Y003725D02*
X029806Y006677D01*
X029810Y006677D02*
X033220Y006677D01*
X034924Y003725D01*
X033220Y000772D01*
X034468Y000378D02*
X034525Y000380D01*
X034581Y000386D01*
X034638Y000395D01*
X034693Y000409D01*
X034747Y000426D01*
X034800Y000447D01*
X034851Y000471D01*
X034901Y000499D01*
X034949Y000530D01*
X034994Y000564D01*
X035037Y000601D01*
X035078Y000641D01*
X035115Y000684D01*
X035150Y000729D01*
X035181Y000777D01*
X035209Y000826D01*
X035234Y000878D01*
X035255Y000930D01*
X035273Y000985D01*
X035286Y001040D01*
X035296Y001096D01*
X035303Y001152D01*
X035305Y001209D01*
X035303Y001266D01*
X035298Y001323D01*
X035289Y001379D01*
X035276Y001434D01*
X035259Y001489D01*
X035239Y001542D01*
X035215Y001593D01*
X035187Y001643D01*
X035156Y001691D01*
X035123Y001737D01*
X035086Y001780D01*
X035046Y001821D01*
X035003Y001858D01*
X034958Y001893D01*
X034911Y001925D01*
X034862Y001954D01*
X034861Y001953D02*
X034153Y002386D01*
X036830Y001953D02*
X037539Y002386D01*
X036830Y001954D02*
X036781Y001925D01*
X036734Y001893D01*
X036689Y001858D01*
X036646Y001821D01*
X036606Y001780D01*
X036569Y001737D01*
X036536Y001691D01*
X036505Y001643D01*
X036477Y001593D01*
X036453Y001542D01*
X036433Y001489D01*
X036416Y001434D01*
X036403Y001379D01*
X036394Y001323D01*
X036389Y001266D01*
X036387Y001209D01*
X036389Y001152D01*
X036396Y001096D01*
X036406Y001040D01*
X036419Y000985D01*
X036437Y000930D01*
X036458Y000878D01*
X036483Y000826D01*
X036511Y000777D01*
X036542Y000729D01*
X036577Y000684D01*
X036614Y000641D01*
X036655Y000601D01*
X036698Y000564D01*
X036743Y000530D01*
X036791Y000499D01*
X036841Y000471D01*
X036892Y000447D01*
X036945Y000426D01*
X036999Y000409D01*
X037054Y000395D01*
X037111Y000386D01*
X037167Y000380D01*
X037224Y000378D01*
X043129Y000378D01*
X041881Y000772D02*
X038472Y000772D01*
X036767Y003725D01*
X036763Y003725D02*
X038468Y006677D01*
X038472Y006677D02*
X041881Y006677D01*
X043586Y003725D01*
X041881Y000772D01*
X043129Y000378D02*
X043186Y000380D01*
X043242Y000386D01*
X043299Y000395D01*
X043354Y000409D01*
X043408Y000426D01*
X043461Y000447D01*
X043512Y000471D01*
X043562Y000499D01*
X043610Y000530D01*
X043655Y000564D01*
X043698Y000601D01*
X043739Y000641D01*
X043776Y000684D01*
X043811Y000729D01*
X043842Y000777D01*
X043870Y000826D01*
X043895Y000878D01*
X043916Y000930D01*
X043934Y000985D01*
X043947Y001040D01*
X043957Y001096D01*
X043964Y001152D01*
X043966Y001209D01*
X043964Y001266D01*
X043959Y001323D01*
X043950Y001379D01*
X043937Y001434D01*
X043920Y001489D01*
X043900Y001542D01*
X043876Y001593D01*
X043848Y001643D01*
X043817Y001691D01*
X043784Y001737D01*
X043747Y001780D01*
X043707Y001821D01*
X043664Y001858D01*
X043619Y001893D01*
X043572Y001925D01*
X043523Y001954D01*
X043523Y001953D02*
X042814Y002386D01*
X045491Y001953D02*
X046200Y002386D01*
X045491Y001954D02*
X045442Y001925D01*
X045395Y001893D01*
X045350Y001858D01*
X045307Y001821D01*
X045267Y001780D01*
X045230Y001737D01*
X045197Y001691D01*
X045166Y001643D01*
X045138Y001593D01*
X045114Y001542D01*
X045094Y001489D01*
X045077Y001434D01*
X045064Y001379D01*
X045055Y001323D01*
X045050Y001266D01*
X045048Y001209D01*
X045050Y001152D01*
X045057Y001096D01*
X045067Y001040D01*
X045080Y000985D01*
X045098Y000930D01*
X045119Y000878D01*
X045144Y000826D01*
X045172Y000777D01*
X045203Y000729D01*
X045238Y000684D01*
X045275Y000641D01*
X045316Y000601D01*
X045359Y000564D01*
X045404Y000530D01*
X045452Y000499D01*
X045502Y000471D01*
X045553Y000447D01*
X045606Y000426D01*
X045660Y000409D01*
X045715Y000395D01*
X045772Y000386D01*
X045828Y000380D01*
X045885Y000378D01*
X051791Y000378D01*
X050543Y000772D02*
X047133Y000772D01*
X045428Y003725D01*
X045424Y003725D02*
X047129Y006677D01*
X047133Y006677D02*
X050543Y006677D01*
X052247Y003725D01*
X050543Y000772D01*
X051791Y000378D02*
X051848Y000380D01*
X051904Y000386D01*
X051961Y000395D01*
X052016Y000409D01*
X052070Y000426D01*
X052123Y000447D01*
X052174Y000471D01*
X052224Y000499D01*
X052272Y000530D01*
X052317Y000564D01*
X052360Y000601D01*
X052401Y000641D01*
X052438Y000684D01*
X052473Y000729D01*
X052504Y000777D01*
X052532Y000826D01*
X052557Y000878D01*
X052578Y000930D01*
X052596Y000985D01*
X052609Y001040D01*
X052619Y001096D01*
X052626Y001152D01*
X052628Y001209D01*
X052626Y001266D01*
X052621Y001323D01*
X052612Y001379D01*
X052599Y001434D01*
X052582Y001489D01*
X052562Y001542D01*
X052538Y001593D01*
X052510Y001643D01*
X052479Y001691D01*
X052446Y001737D01*
X052409Y001780D01*
X052369Y001821D01*
X052326Y001858D01*
X052281Y001893D01*
X052234Y001925D01*
X052185Y001954D01*
X052184Y001953D02*
X051476Y002386D01*
X054153Y001953D02*
X054861Y002386D01*
X054152Y001954D02*
X054103Y001925D01*
X054056Y001893D01*
X054011Y001858D01*
X053968Y001821D01*
X053928Y001780D01*
X053891Y001737D01*
X053858Y001691D01*
X053827Y001643D01*
X053799Y001593D01*
X053775Y001542D01*
X053755Y001489D01*
X053738Y001434D01*
X053725Y001379D01*
X053716Y001323D01*
X053711Y001266D01*
X053709Y001209D01*
X053711Y001152D01*
X053718Y001096D01*
X053728Y001040D01*
X053741Y000985D01*
X053759Y000930D01*
X053780Y000878D01*
X053805Y000826D01*
X053833Y000777D01*
X053864Y000729D01*
X053899Y000684D01*
X053936Y000641D01*
X053977Y000601D01*
X054020Y000564D01*
X054065Y000530D01*
X054113Y000499D01*
X054163Y000471D01*
X054214Y000447D01*
X054267Y000426D01*
X054321Y000409D01*
X054376Y000395D01*
X054433Y000386D01*
X054489Y000380D01*
X054546Y000378D01*
X060452Y000378D01*
X059204Y000772D02*
X055794Y000772D01*
X054090Y003725D01*
X054086Y003725D02*
X055791Y006677D01*
X055794Y006677D02*
X059204Y006677D01*
X060909Y003725D01*
X059204Y000772D01*
X060452Y000378D02*
X060509Y000380D01*
X060565Y000386D01*
X060622Y000395D01*
X060677Y000409D01*
X060731Y000426D01*
X060784Y000447D01*
X060835Y000471D01*
X060885Y000499D01*
X060933Y000530D01*
X060978Y000564D01*
X061021Y000601D01*
X061062Y000641D01*
X061099Y000684D01*
X061134Y000729D01*
X061165Y000777D01*
X061193Y000826D01*
X061218Y000878D01*
X061239Y000930D01*
X061257Y000985D01*
X061270Y001040D01*
X061280Y001096D01*
X061287Y001152D01*
X061289Y001209D01*
X061287Y001266D01*
X061282Y001323D01*
X061273Y001379D01*
X061260Y001434D01*
X061243Y001489D01*
X061223Y001542D01*
X061199Y001593D01*
X061171Y001643D01*
X061140Y001691D01*
X061107Y001737D01*
X061070Y001780D01*
X061030Y001821D01*
X060987Y001858D01*
X060942Y001893D01*
X060895Y001925D01*
X060846Y001954D01*
X060846Y001953D02*
X060137Y002386D01*
X062814Y001953D02*
X063523Y002386D01*
X062814Y001954D02*
X062765Y001925D01*
X062718Y001893D01*
X062673Y001858D01*
X062630Y001821D01*
X062590Y001780D01*
X062553Y001737D01*
X062520Y001691D01*
X062489Y001643D01*
X062461Y001593D01*
X062437Y001542D01*
X062417Y001489D01*
X062400Y001434D01*
X062387Y001379D01*
X062378Y001323D01*
X062373Y001266D01*
X062371Y001209D01*
X062373Y001152D01*
X062380Y001096D01*
X062390Y001040D01*
X062403Y000985D01*
X062421Y000930D01*
X062442Y000878D01*
X062467Y000826D01*
X062495Y000777D01*
X062526Y000729D01*
X062561Y000684D01*
X062598Y000641D01*
X062639Y000601D01*
X062682Y000564D01*
X062727Y000530D01*
X062775Y000499D01*
X062825Y000471D01*
X062876Y000447D01*
X062929Y000426D01*
X062983Y000409D01*
X063038Y000395D01*
X063095Y000386D01*
X063151Y000380D01*
X063208Y000378D01*
X069113Y000378D01*
X067865Y000772D02*
X064456Y000772D01*
X062751Y003725D01*
X062747Y003725D02*
X064452Y006677D01*
X064456Y006677D02*
X067865Y006677D01*
X069570Y003725D01*
X067865Y000772D01*
X069113Y000378D02*
X069170Y000380D01*
X069226Y000386D01*
X069283Y000395D01*
X069338Y000409D01*
X069392Y000426D01*
X069445Y000447D01*
X069496Y000471D01*
X069546Y000499D01*
X069594Y000530D01*
X069639Y000564D01*
X069682Y000601D01*
X069723Y000641D01*
X069760Y000684D01*
X069795Y000729D01*
X069826Y000777D01*
X069854Y000826D01*
X069879Y000878D01*
X069900Y000930D01*
X069918Y000985D01*
X069931Y001040D01*
X069941Y001096D01*
X069948Y001152D01*
X069950Y001209D01*
X069948Y001266D01*
X069943Y001323D01*
X069934Y001379D01*
X069921Y001434D01*
X069904Y001489D01*
X069884Y001542D01*
X069860Y001593D01*
X069832Y001643D01*
X069801Y001691D01*
X069768Y001737D01*
X069731Y001780D01*
X069691Y001821D01*
X069648Y001858D01*
X069603Y001893D01*
X069556Y001925D01*
X069507Y001954D01*
X069507Y001953D02*
X068798Y002386D01*
X071476Y001953D02*
X072184Y002386D01*
X071475Y001954D02*
X071426Y001925D01*
X071379Y001893D01*
X071334Y001858D01*
X071291Y001821D01*
X071251Y001780D01*
X071214Y001737D01*
X071181Y001691D01*
X071150Y001643D01*
X071122Y001593D01*
X071098Y001542D01*
X071078Y001489D01*
X071061Y001434D01*
X071048Y001379D01*
X071039Y001323D01*
X071034Y001266D01*
X071032Y001209D01*
X071034Y001152D01*
X071041Y001096D01*
X071051Y001040D01*
X071064Y000985D01*
X071082Y000930D01*
X071103Y000878D01*
X071128Y000826D01*
X071156Y000777D01*
X071187Y000729D01*
X071222Y000684D01*
X071259Y000641D01*
X071300Y000601D01*
X071343Y000564D01*
X071388Y000530D01*
X071436Y000499D01*
X071486Y000471D01*
X071537Y000447D01*
X071590Y000426D01*
X071644Y000409D01*
X071699Y000395D01*
X071756Y000386D01*
X071812Y000380D01*
X071869Y000378D01*
X077775Y000378D01*
X076527Y000772D02*
X073117Y000772D01*
X071413Y003725D01*
X071409Y003725D02*
X073113Y006677D01*
X073117Y006677D02*
X076527Y006677D01*
X078231Y003725D01*
X076527Y000772D01*
X077775Y000378D02*
X077832Y000380D01*
X077888Y000386D01*
X077945Y000395D01*
X078000Y000409D01*
X078054Y000426D01*
X078107Y000447D01*
X078158Y000471D01*
X078208Y000499D01*
X078256Y000530D01*
X078301Y000564D01*
X078344Y000601D01*
X078385Y000641D01*
X078422Y000684D01*
X078457Y000729D01*
X078488Y000777D01*
X078516Y000826D01*
X078541Y000878D01*
X078562Y000930D01*
X078580Y000985D01*
X078593Y001040D01*
X078603Y001096D01*
X078610Y001152D01*
X078612Y001209D01*
X078610Y001266D01*
X078605Y001323D01*
X078596Y001379D01*
X078583Y001434D01*
X078566Y001489D01*
X078546Y001542D01*
X078522Y001593D01*
X078494Y001643D01*
X078463Y001691D01*
X078430Y001737D01*
X078393Y001780D01*
X078353Y001821D01*
X078310Y001858D01*
X078265Y001893D01*
X078218Y001925D01*
X078169Y001954D01*
X078169Y001953D02*
X077460Y002386D01*
D16*
X075124Y003029D02*
X075126Y003068D01*
X075132Y003107D01*
X075142Y003145D01*
X075155Y003182D01*
X075172Y003217D01*
X075192Y003251D01*
X075216Y003282D01*
X075243Y003311D01*
X075272Y003337D01*
X075304Y003360D01*
X075338Y003380D01*
X075374Y003396D01*
X075411Y003408D01*
X075450Y003417D01*
X075489Y003422D01*
X075528Y003423D01*
X075567Y003420D01*
X075606Y003413D01*
X075643Y003402D01*
X075680Y003388D01*
X075715Y003370D01*
X075748Y003349D01*
X075779Y003324D01*
X075807Y003297D01*
X075832Y003267D01*
X075854Y003234D01*
X075873Y003200D01*
X075888Y003164D01*
X075900Y003126D01*
X075908Y003088D01*
X075912Y003049D01*
X075912Y003009D01*
X075908Y002970D01*
X075900Y002932D01*
X075888Y002894D01*
X075873Y002858D01*
X075854Y002824D01*
X075832Y002791D01*
X075807Y002761D01*
X075779Y002734D01*
X075748Y002709D01*
X075715Y002688D01*
X075680Y002670D01*
X075643Y002656D01*
X075606Y002645D01*
X075567Y002638D01*
X075528Y002635D01*
X075489Y002636D01*
X075450Y002641D01*
X075411Y002650D01*
X075374Y002662D01*
X075338Y002678D01*
X075304Y002698D01*
X075272Y002721D01*
X075243Y002747D01*
X075216Y002776D01*
X075192Y002807D01*
X075172Y002841D01*
X075155Y002876D01*
X075142Y002913D01*
X075132Y002951D01*
X075126Y002990D01*
X075124Y003029D01*
X073732Y003029D02*
X073734Y003068D01*
X073740Y003107D01*
X073750Y003145D01*
X073763Y003182D01*
X073780Y003217D01*
X073800Y003251D01*
X073824Y003282D01*
X073851Y003311D01*
X073880Y003337D01*
X073912Y003360D01*
X073946Y003380D01*
X073982Y003396D01*
X074019Y003408D01*
X074058Y003417D01*
X074097Y003422D01*
X074136Y003423D01*
X074175Y003420D01*
X074214Y003413D01*
X074251Y003402D01*
X074288Y003388D01*
X074323Y003370D01*
X074356Y003349D01*
X074387Y003324D01*
X074415Y003297D01*
X074440Y003267D01*
X074462Y003234D01*
X074481Y003200D01*
X074496Y003164D01*
X074508Y003126D01*
X074516Y003088D01*
X074520Y003049D01*
X074520Y003009D01*
X074516Y002970D01*
X074508Y002932D01*
X074496Y002894D01*
X074481Y002858D01*
X074462Y002824D01*
X074440Y002791D01*
X074415Y002761D01*
X074387Y002734D01*
X074356Y002709D01*
X074323Y002688D01*
X074288Y002670D01*
X074251Y002656D01*
X074214Y002645D01*
X074175Y002638D01*
X074136Y002635D01*
X074097Y002636D01*
X074058Y002641D01*
X074019Y002650D01*
X073982Y002662D01*
X073946Y002678D01*
X073912Y002698D01*
X073880Y002721D01*
X073851Y002747D01*
X073824Y002776D01*
X073800Y002807D01*
X073780Y002841D01*
X073763Y002876D01*
X073750Y002913D01*
X073740Y002951D01*
X073734Y002990D01*
X073732Y003029D01*
X074428Y003725D02*
X074430Y003764D01*
X074436Y003803D01*
X074446Y003841D01*
X074459Y003878D01*
X074476Y003913D01*
X074496Y003947D01*
X074520Y003978D01*
X074547Y004007D01*
X074576Y004033D01*
X074608Y004056D01*
X074642Y004076D01*
X074678Y004092D01*
X074715Y004104D01*
X074754Y004113D01*
X074793Y004118D01*
X074832Y004119D01*
X074871Y004116D01*
X074910Y004109D01*
X074947Y004098D01*
X074984Y004084D01*
X075019Y004066D01*
X075052Y004045D01*
X075083Y004020D01*
X075111Y003993D01*
X075136Y003963D01*
X075158Y003930D01*
X075177Y003896D01*
X075192Y003860D01*
X075204Y003822D01*
X075212Y003784D01*
X075216Y003745D01*
X075216Y003705D01*
X075212Y003666D01*
X075204Y003628D01*
X075192Y003590D01*
X075177Y003554D01*
X075158Y003520D01*
X075136Y003487D01*
X075111Y003457D01*
X075083Y003430D01*
X075052Y003405D01*
X075019Y003384D01*
X074984Y003366D01*
X074947Y003352D01*
X074910Y003341D01*
X074871Y003334D01*
X074832Y003331D01*
X074793Y003332D01*
X074754Y003337D01*
X074715Y003346D01*
X074678Y003358D01*
X074642Y003374D01*
X074608Y003394D01*
X074576Y003417D01*
X074547Y003443D01*
X074520Y003472D01*
X074496Y003503D01*
X074476Y003537D01*
X074459Y003572D01*
X074446Y003609D01*
X074436Y003647D01*
X074430Y003686D01*
X074428Y003725D01*
X074507Y005811D02*
X074405Y005793D01*
X074304Y005770D01*
X074205Y005743D01*
X074106Y005710D01*
X074010Y005672D01*
X073915Y005630D01*
X073823Y005584D01*
X073733Y005532D01*
X073646Y005477D01*
X073561Y005417D01*
X073480Y005353D01*
X073402Y005286D01*
X073327Y005214D01*
X073256Y005139D01*
X073188Y005060D01*
X073125Y004979D01*
X073065Y004894D01*
X073010Y004807D01*
X072959Y004716D01*
X072913Y004624D01*
X072871Y004529D01*
X072834Y004433D01*
X072802Y004334D01*
X072774Y004235D01*
X072752Y004134D01*
X072734Y004032D01*
X072722Y003929D01*
X072714Y003826D01*
X072712Y003722D01*
X072715Y003619D01*
X072722Y003516D01*
X072735Y003413D01*
X072753Y003311D01*
X072776Y003210D01*
X072804Y003110D01*
X072836Y003012D01*
X072873Y002916D01*
X072915Y002821D01*
X072962Y002729D01*
X073013Y002639D01*
X073069Y002551D01*
X073128Y002467D01*
X073192Y002385D01*
X073260Y002307D01*
X073331Y002232D01*
X073406Y002161D01*
X073484Y002093D01*
X073566Y002030D01*
X073651Y001970D01*
X073738Y001915D01*
X073828Y001864D01*
X073921Y001817D01*
X074015Y001775D01*
X074112Y001738D01*
X074210Y001706D01*
X074310Y001678D01*
X074411Y001655D01*
X074513Y001638D01*
X074615Y001625D01*
X074719Y001618D01*
X074822Y001615D01*
X074925Y001618D01*
X075029Y001625D01*
X075131Y001638D01*
X075233Y001655D01*
X075334Y001678D01*
X075434Y001706D01*
X075532Y001738D01*
X075629Y001775D01*
X075723Y001817D01*
X075816Y001864D01*
X075906Y001915D01*
X075993Y001970D01*
X076078Y002030D01*
X076160Y002093D01*
X076238Y002161D01*
X076313Y002232D01*
X076384Y002307D01*
X076452Y002385D01*
X076516Y002467D01*
X076575Y002551D01*
X076631Y002639D01*
X076682Y002729D01*
X076729Y002821D01*
X076771Y002916D01*
X076808Y003012D01*
X076840Y003110D01*
X076868Y003210D01*
X076891Y003311D01*
X076909Y003413D01*
X076922Y003516D01*
X076929Y003619D01*
X076932Y003722D01*
X076930Y003826D01*
X076922Y003929D01*
X076910Y004032D01*
X076892Y004134D01*
X076870Y004235D01*
X076842Y004334D01*
X076810Y004433D01*
X076773Y004529D01*
X076731Y004624D01*
X076685Y004716D01*
X076634Y004807D01*
X076579Y004894D01*
X076519Y004979D01*
X076456Y005060D01*
X076388Y005139D01*
X076317Y005214D01*
X076242Y005286D01*
X076164Y005353D01*
X076083Y005417D01*
X075998Y005477D01*
X075911Y005532D01*
X075821Y005584D01*
X075729Y005630D01*
X075634Y005672D01*
X075538Y005710D01*
X075439Y005743D01*
X075340Y005770D01*
X075239Y005793D01*
X075137Y005811D01*
X075117Y005811D02*
X075117Y005378D01*
X075115Y005345D01*
X075110Y005312D01*
X075100Y005281D01*
X075088Y005250D01*
X075072Y005221D01*
X075053Y005194D01*
X075031Y005169D01*
X075006Y005147D01*
X074979Y005128D01*
X074950Y005112D01*
X074919Y005100D01*
X074888Y005090D01*
X074855Y005085D01*
X074822Y005083D01*
X074789Y005085D01*
X074756Y005090D01*
X074725Y005100D01*
X074694Y005112D01*
X074665Y005128D01*
X074638Y005147D01*
X074613Y005169D01*
X074591Y005194D01*
X074572Y005221D01*
X074556Y005250D01*
X074544Y005281D01*
X074534Y005312D01*
X074529Y005345D01*
X074527Y005378D01*
X074527Y005811D01*
X073732Y004421D02*
X073734Y004460D01*
X073740Y004499D01*
X073750Y004537D01*
X073763Y004574D01*
X073780Y004609D01*
X073800Y004643D01*
X073824Y004674D01*
X073851Y004703D01*
X073880Y004729D01*
X073912Y004752D01*
X073946Y004772D01*
X073982Y004788D01*
X074019Y004800D01*
X074058Y004809D01*
X074097Y004814D01*
X074136Y004815D01*
X074175Y004812D01*
X074214Y004805D01*
X074251Y004794D01*
X074288Y004780D01*
X074323Y004762D01*
X074356Y004741D01*
X074387Y004716D01*
X074415Y004689D01*
X074440Y004659D01*
X074462Y004626D01*
X074481Y004592D01*
X074496Y004556D01*
X074508Y004518D01*
X074516Y004480D01*
X074520Y004441D01*
X074520Y004401D01*
X074516Y004362D01*
X074508Y004324D01*
X074496Y004286D01*
X074481Y004250D01*
X074462Y004216D01*
X074440Y004183D01*
X074415Y004153D01*
X074387Y004126D01*
X074356Y004101D01*
X074323Y004080D01*
X074288Y004062D01*
X074251Y004048D01*
X074214Y004037D01*
X074175Y004030D01*
X074136Y004027D01*
X074097Y004028D01*
X074058Y004033D01*
X074019Y004042D01*
X073982Y004054D01*
X073946Y004070D01*
X073912Y004090D01*
X073880Y004113D01*
X073851Y004139D01*
X073824Y004168D01*
X073800Y004199D01*
X073780Y004233D01*
X073763Y004268D01*
X073750Y004305D01*
X073740Y004343D01*
X073734Y004382D01*
X073732Y004421D01*
X075124Y004421D02*
X075126Y004460D01*
X075132Y004499D01*
X075142Y004537D01*
X075155Y004574D01*
X075172Y004609D01*
X075192Y004643D01*
X075216Y004674D01*
X075243Y004703D01*
X075272Y004729D01*
X075304Y004752D01*
X075338Y004772D01*
X075374Y004788D01*
X075411Y004800D01*
X075450Y004809D01*
X075489Y004814D01*
X075528Y004815D01*
X075567Y004812D01*
X075606Y004805D01*
X075643Y004794D01*
X075680Y004780D01*
X075715Y004762D01*
X075748Y004741D01*
X075779Y004716D01*
X075807Y004689D01*
X075832Y004659D01*
X075854Y004626D01*
X075873Y004592D01*
X075888Y004556D01*
X075900Y004518D01*
X075908Y004480D01*
X075912Y004441D01*
X075912Y004401D01*
X075908Y004362D01*
X075900Y004324D01*
X075888Y004286D01*
X075873Y004250D01*
X075854Y004216D01*
X075832Y004183D01*
X075807Y004153D01*
X075779Y004126D01*
X075748Y004101D01*
X075715Y004080D01*
X075680Y004062D01*
X075643Y004048D01*
X075606Y004037D01*
X075567Y004030D01*
X075528Y004027D01*
X075489Y004028D01*
X075450Y004033D01*
X075411Y004042D01*
X075374Y004054D01*
X075338Y004070D01*
X075304Y004090D01*
X075272Y004113D01*
X075243Y004139D01*
X075216Y004168D01*
X075192Y004199D01*
X075172Y004233D01*
X075155Y004268D01*
X075142Y004305D01*
X075132Y004343D01*
X075126Y004382D01*
X075124Y004421D01*
X066463Y004421D02*
X066465Y004460D01*
X066471Y004499D01*
X066481Y004537D01*
X066494Y004574D01*
X066511Y004609D01*
X066531Y004643D01*
X066555Y004674D01*
X066582Y004703D01*
X066611Y004729D01*
X066643Y004752D01*
X066677Y004772D01*
X066713Y004788D01*
X066750Y004800D01*
X066789Y004809D01*
X066828Y004814D01*
X066867Y004815D01*
X066906Y004812D01*
X066945Y004805D01*
X066982Y004794D01*
X067019Y004780D01*
X067054Y004762D01*
X067087Y004741D01*
X067118Y004716D01*
X067146Y004689D01*
X067171Y004659D01*
X067193Y004626D01*
X067212Y004592D01*
X067227Y004556D01*
X067239Y004518D01*
X067247Y004480D01*
X067251Y004441D01*
X067251Y004401D01*
X067247Y004362D01*
X067239Y004324D01*
X067227Y004286D01*
X067212Y004250D01*
X067193Y004216D01*
X067171Y004183D01*
X067146Y004153D01*
X067118Y004126D01*
X067087Y004101D01*
X067054Y004080D01*
X067019Y004062D01*
X066982Y004048D01*
X066945Y004037D01*
X066906Y004030D01*
X066867Y004027D01*
X066828Y004028D01*
X066789Y004033D01*
X066750Y004042D01*
X066713Y004054D01*
X066677Y004070D01*
X066643Y004090D01*
X066611Y004113D01*
X066582Y004139D01*
X066555Y004168D01*
X066531Y004199D01*
X066511Y004233D01*
X066494Y004268D01*
X066481Y004305D01*
X066471Y004343D01*
X066465Y004382D01*
X066463Y004421D01*
X065071Y004421D02*
X065073Y004460D01*
X065079Y004499D01*
X065089Y004537D01*
X065102Y004574D01*
X065119Y004609D01*
X065139Y004643D01*
X065163Y004674D01*
X065190Y004703D01*
X065219Y004729D01*
X065251Y004752D01*
X065285Y004772D01*
X065321Y004788D01*
X065358Y004800D01*
X065397Y004809D01*
X065436Y004814D01*
X065475Y004815D01*
X065514Y004812D01*
X065553Y004805D01*
X065590Y004794D01*
X065627Y004780D01*
X065662Y004762D01*
X065695Y004741D01*
X065726Y004716D01*
X065754Y004689D01*
X065779Y004659D01*
X065801Y004626D01*
X065820Y004592D01*
X065835Y004556D01*
X065847Y004518D01*
X065855Y004480D01*
X065859Y004441D01*
X065859Y004401D01*
X065855Y004362D01*
X065847Y004324D01*
X065835Y004286D01*
X065820Y004250D01*
X065801Y004216D01*
X065779Y004183D01*
X065754Y004153D01*
X065726Y004126D01*
X065695Y004101D01*
X065662Y004080D01*
X065627Y004062D01*
X065590Y004048D01*
X065553Y004037D01*
X065514Y004030D01*
X065475Y004027D01*
X065436Y004028D01*
X065397Y004033D01*
X065358Y004042D01*
X065321Y004054D01*
X065285Y004070D01*
X065251Y004090D01*
X065219Y004113D01*
X065190Y004139D01*
X065163Y004168D01*
X065139Y004199D01*
X065119Y004233D01*
X065102Y004268D01*
X065089Y004305D01*
X065079Y004343D01*
X065073Y004382D01*
X065071Y004421D01*
X065767Y003725D02*
X065769Y003764D01*
X065775Y003803D01*
X065785Y003841D01*
X065798Y003878D01*
X065815Y003913D01*
X065835Y003947D01*
X065859Y003978D01*
X065886Y004007D01*
X065915Y004033D01*
X065947Y004056D01*
X065981Y004076D01*
X066017Y004092D01*
X066054Y004104D01*
X066093Y004113D01*
X066132Y004118D01*
X066171Y004119D01*
X066210Y004116D01*
X066249Y004109D01*
X066286Y004098D01*
X066323Y004084D01*
X066358Y004066D01*
X066391Y004045D01*
X066422Y004020D01*
X066450Y003993D01*
X066475Y003963D01*
X066497Y003930D01*
X066516Y003896D01*
X066531Y003860D01*
X066543Y003822D01*
X066551Y003784D01*
X066555Y003745D01*
X066555Y003705D01*
X066551Y003666D01*
X066543Y003628D01*
X066531Y003590D01*
X066516Y003554D01*
X066497Y003520D01*
X066475Y003487D01*
X066450Y003457D01*
X066422Y003430D01*
X066391Y003405D01*
X066358Y003384D01*
X066323Y003366D01*
X066286Y003352D01*
X066249Y003341D01*
X066210Y003334D01*
X066171Y003331D01*
X066132Y003332D01*
X066093Y003337D01*
X066054Y003346D01*
X066017Y003358D01*
X065981Y003374D01*
X065947Y003394D01*
X065915Y003417D01*
X065886Y003443D01*
X065859Y003472D01*
X065835Y003503D01*
X065815Y003537D01*
X065798Y003572D01*
X065785Y003609D01*
X065775Y003647D01*
X065769Y003686D01*
X065767Y003725D01*
X065846Y005811D02*
X065744Y005793D01*
X065643Y005770D01*
X065544Y005743D01*
X065445Y005710D01*
X065349Y005672D01*
X065254Y005630D01*
X065162Y005584D01*
X065072Y005532D01*
X064985Y005477D01*
X064900Y005417D01*
X064819Y005353D01*
X064741Y005286D01*
X064666Y005214D01*
X064595Y005139D01*
X064527Y005060D01*
X064464Y004979D01*
X064404Y004894D01*
X064349Y004807D01*
X064298Y004716D01*
X064252Y004624D01*
X064210Y004529D01*
X064173Y004433D01*
X064141Y004334D01*
X064113Y004235D01*
X064091Y004134D01*
X064073Y004032D01*
X064061Y003929D01*
X064053Y003826D01*
X064051Y003722D01*
X064054Y003619D01*
X064061Y003516D01*
X064074Y003413D01*
X064092Y003311D01*
X064115Y003210D01*
X064143Y003110D01*
X064175Y003012D01*
X064212Y002916D01*
X064254Y002821D01*
X064301Y002729D01*
X064352Y002639D01*
X064408Y002551D01*
X064467Y002467D01*
X064531Y002385D01*
X064599Y002307D01*
X064670Y002232D01*
X064745Y002161D01*
X064823Y002093D01*
X064905Y002030D01*
X064990Y001970D01*
X065077Y001915D01*
X065167Y001864D01*
X065260Y001817D01*
X065354Y001775D01*
X065451Y001738D01*
X065549Y001706D01*
X065649Y001678D01*
X065750Y001655D01*
X065852Y001638D01*
X065954Y001625D01*
X066058Y001618D01*
X066161Y001615D01*
X066264Y001618D01*
X066368Y001625D01*
X066470Y001638D01*
X066572Y001655D01*
X066673Y001678D01*
X066773Y001706D01*
X066871Y001738D01*
X066968Y001775D01*
X067062Y001817D01*
X067155Y001864D01*
X067245Y001915D01*
X067332Y001970D01*
X067417Y002030D01*
X067499Y002093D01*
X067577Y002161D01*
X067652Y002232D01*
X067723Y002307D01*
X067791Y002385D01*
X067855Y002467D01*
X067914Y002551D01*
X067970Y002639D01*
X068021Y002729D01*
X068068Y002821D01*
X068110Y002916D01*
X068147Y003012D01*
X068179Y003110D01*
X068207Y003210D01*
X068230Y003311D01*
X068248Y003413D01*
X068261Y003516D01*
X068268Y003619D01*
X068271Y003722D01*
X068269Y003826D01*
X068261Y003929D01*
X068249Y004032D01*
X068231Y004134D01*
X068209Y004235D01*
X068181Y004334D01*
X068149Y004433D01*
X068112Y004529D01*
X068070Y004624D01*
X068024Y004716D01*
X067973Y004807D01*
X067918Y004894D01*
X067858Y004979D01*
X067795Y005060D01*
X067727Y005139D01*
X067656Y005214D01*
X067581Y005286D01*
X067503Y005353D01*
X067422Y005417D01*
X067337Y005477D01*
X067250Y005532D01*
X067160Y005584D01*
X067068Y005630D01*
X066973Y005672D01*
X066877Y005710D01*
X066778Y005743D01*
X066679Y005770D01*
X066578Y005793D01*
X066476Y005811D01*
X066456Y005811D02*
X066456Y005378D01*
X066454Y005345D01*
X066449Y005312D01*
X066439Y005281D01*
X066427Y005250D01*
X066411Y005221D01*
X066392Y005194D01*
X066370Y005169D01*
X066345Y005147D01*
X066318Y005128D01*
X066289Y005112D01*
X066258Y005100D01*
X066227Y005090D01*
X066194Y005085D01*
X066161Y005083D01*
X066128Y005085D01*
X066095Y005090D01*
X066064Y005100D01*
X066033Y005112D01*
X066004Y005128D01*
X065977Y005147D01*
X065952Y005169D01*
X065930Y005194D01*
X065911Y005221D01*
X065895Y005250D01*
X065883Y005281D01*
X065873Y005312D01*
X065868Y005345D01*
X065866Y005378D01*
X065865Y005378D02*
X065865Y005811D01*
X065071Y003029D02*
X065073Y003068D01*
X065079Y003107D01*
X065089Y003145D01*
X065102Y003182D01*
X065119Y003217D01*
X065139Y003251D01*
X065163Y003282D01*
X065190Y003311D01*
X065219Y003337D01*
X065251Y003360D01*
X065285Y003380D01*
X065321Y003396D01*
X065358Y003408D01*
X065397Y003417D01*
X065436Y003422D01*
X065475Y003423D01*
X065514Y003420D01*
X065553Y003413D01*
X065590Y003402D01*
X065627Y003388D01*
X065662Y003370D01*
X065695Y003349D01*
X065726Y003324D01*
X065754Y003297D01*
X065779Y003267D01*
X065801Y003234D01*
X065820Y003200D01*
X065835Y003164D01*
X065847Y003126D01*
X065855Y003088D01*
X065859Y003049D01*
X065859Y003009D01*
X065855Y002970D01*
X065847Y002932D01*
X065835Y002894D01*
X065820Y002858D01*
X065801Y002824D01*
X065779Y002791D01*
X065754Y002761D01*
X065726Y002734D01*
X065695Y002709D01*
X065662Y002688D01*
X065627Y002670D01*
X065590Y002656D01*
X065553Y002645D01*
X065514Y002638D01*
X065475Y002635D01*
X065436Y002636D01*
X065397Y002641D01*
X065358Y002650D01*
X065321Y002662D01*
X065285Y002678D01*
X065251Y002698D01*
X065219Y002721D01*
X065190Y002747D01*
X065163Y002776D01*
X065139Y002807D01*
X065119Y002841D01*
X065102Y002876D01*
X065089Y002913D01*
X065079Y002951D01*
X065073Y002990D01*
X065071Y003029D01*
X066463Y003029D02*
X066465Y003068D01*
X066471Y003107D01*
X066481Y003145D01*
X066494Y003182D01*
X066511Y003217D01*
X066531Y003251D01*
X066555Y003282D01*
X066582Y003311D01*
X066611Y003337D01*
X066643Y003360D01*
X066677Y003380D01*
X066713Y003396D01*
X066750Y003408D01*
X066789Y003417D01*
X066828Y003422D01*
X066867Y003423D01*
X066906Y003420D01*
X066945Y003413D01*
X066982Y003402D01*
X067019Y003388D01*
X067054Y003370D01*
X067087Y003349D01*
X067118Y003324D01*
X067146Y003297D01*
X067171Y003267D01*
X067193Y003234D01*
X067212Y003200D01*
X067227Y003164D01*
X067239Y003126D01*
X067247Y003088D01*
X067251Y003049D01*
X067251Y003009D01*
X067247Y002970D01*
X067239Y002932D01*
X067227Y002894D01*
X067212Y002858D01*
X067193Y002824D01*
X067171Y002791D01*
X067146Y002761D01*
X067118Y002734D01*
X067087Y002709D01*
X067054Y002688D01*
X067019Y002670D01*
X066982Y002656D01*
X066945Y002645D01*
X066906Y002638D01*
X066867Y002635D01*
X066828Y002636D01*
X066789Y002641D01*
X066750Y002650D01*
X066713Y002662D01*
X066677Y002678D01*
X066643Y002698D01*
X066611Y002721D01*
X066582Y002747D01*
X066555Y002776D01*
X066531Y002807D01*
X066511Y002841D01*
X066494Y002876D01*
X066481Y002913D01*
X066471Y002951D01*
X066465Y002990D01*
X066463Y003029D01*
X057801Y003029D02*
X057803Y003068D01*
X057809Y003107D01*
X057819Y003145D01*
X057832Y003182D01*
X057849Y003217D01*
X057869Y003251D01*
X057893Y003282D01*
X057920Y003311D01*
X057949Y003337D01*
X057981Y003360D01*
X058015Y003380D01*
X058051Y003396D01*
X058088Y003408D01*
X058127Y003417D01*
X058166Y003422D01*
X058205Y003423D01*
X058244Y003420D01*
X058283Y003413D01*
X058320Y003402D01*
X058357Y003388D01*
X058392Y003370D01*
X058425Y003349D01*
X058456Y003324D01*
X058484Y003297D01*
X058509Y003267D01*
X058531Y003234D01*
X058550Y003200D01*
X058565Y003164D01*
X058577Y003126D01*
X058585Y003088D01*
X058589Y003049D01*
X058589Y003009D01*
X058585Y002970D01*
X058577Y002932D01*
X058565Y002894D01*
X058550Y002858D01*
X058531Y002824D01*
X058509Y002791D01*
X058484Y002761D01*
X058456Y002734D01*
X058425Y002709D01*
X058392Y002688D01*
X058357Y002670D01*
X058320Y002656D01*
X058283Y002645D01*
X058244Y002638D01*
X058205Y002635D01*
X058166Y002636D01*
X058127Y002641D01*
X058088Y002650D01*
X058051Y002662D01*
X058015Y002678D01*
X057981Y002698D01*
X057949Y002721D01*
X057920Y002747D01*
X057893Y002776D01*
X057869Y002807D01*
X057849Y002841D01*
X057832Y002876D01*
X057819Y002913D01*
X057809Y002951D01*
X057803Y002990D01*
X057801Y003029D01*
X056409Y003029D02*
X056411Y003068D01*
X056417Y003107D01*
X056427Y003145D01*
X056440Y003182D01*
X056457Y003217D01*
X056477Y003251D01*
X056501Y003282D01*
X056528Y003311D01*
X056557Y003337D01*
X056589Y003360D01*
X056623Y003380D01*
X056659Y003396D01*
X056696Y003408D01*
X056735Y003417D01*
X056774Y003422D01*
X056813Y003423D01*
X056852Y003420D01*
X056891Y003413D01*
X056928Y003402D01*
X056965Y003388D01*
X057000Y003370D01*
X057033Y003349D01*
X057064Y003324D01*
X057092Y003297D01*
X057117Y003267D01*
X057139Y003234D01*
X057158Y003200D01*
X057173Y003164D01*
X057185Y003126D01*
X057193Y003088D01*
X057197Y003049D01*
X057197Y003009D01*
X057193Y002970D01*
X057185Y002932D01*
X057173Y002894D01*
X057158Y002858D01*
X057139Y002824D01*
X057117Y002791D01*
X057092Y002761D01*
X057064Y002734D01*
X057033Y002709D01*
X057000Y002688D01*
X056965Y002670D01*
X056928Y002656D01*
X056891Y002645D01*
X056852Y002638D01*
X056813Y002635D01*
X056774Y002636D01*
X056735Y002641D01*
X056696Y002650D01*
X056659Y002662D01*
X056623Y002678D01*
X056589Y002698D01*
X056557Y002721D01*
X056528Y002747D01*
X056501Y002776D01*
X056477Y002807D01*
X056457Y002841D01*
X056440Y002876D01*
X056427Y002913D01*
X056417Y002951D01*
X056411Y002990D01*
X056409Y003029D01*
X057105Y003725D02*
X057107Y003764D01*
X057113Y003803D01*
X057123Y003841D01*
X057136Y003878D01*
X057153Y003913D01*
X057173Y003947D01*
X057197Y003978D01*
X057224Y004007D01*
X057253Y004033D01*
X057285Y004056D01*
X057319Y004076D01*
X057355Y004092D01*
X057392Y004104D01*
X057431Y004113D01*
X057470Y004118D01*
X057509Y004119D01*
X057548Y004116D01*
X057587Y004109D01*
X057624Y004098D01*
X057661Y004084D01*
X057696Y004066D01*
X057729Y004045D01*
X057760Y004020D01*
X057788Y003993D01*
X057813Y003963D01*
X057835Y003930D01*
X057854Y003896D01*
X057869Y003860D01*
X057881Y003822D01*
X057889Y003784D01*
X057893Y003745D01*
X057893Y003705D01*
X057889Y003666D01*
X057881Y003628D01*
X057869Y003590D01*
X057854Y003554D01*
X057835Y003520D01*
X057813Y003487D01*
X057788Y003457D01*
X057760Y003430D01*
X057729Y003405D01*
X057696Y003384D01*
X057661Y003366D01*
X057624Y003352D01*
X057587Y003341D01*
X057548Y003334D01*
X057509Y003331D01*
X057470Y003332D01*
X057431Y003337D01*
X057392Y003346D01*
X057355Y003358D01*
X057319Y003374D01*
X057285Y003394D01*
X057253Y003417D01*
X057224Y003443D01*
X057197Y003472D01*
X057173Y003503D01*
X057153Y003537D01*
X057136Y003572D01*
X057123Y003609D01*
X057113Y003647D01*
X057107Y003686D01*
X057105Y003725D01*
X057184Y005811D02*
X057082Y005793D01*
X056981Y005770D01*
X056882Y005743D01*
X056783Y005710D01*
X056687Y005672D01*
X056592Y005630D01*
X056500Y005584D01*
X056410Y005532D01*
X056323Y005477D01*
X056238Y005417D01*
X056157Y005353D01*
X056079Y005286D01*
X056004Y005214D01*
X055933Y005139D01*
X055865Y005060D01*
X055802Y004979D01*
X055742Y004894D01*
X055687Y004807D01*
X055636Y004716D01*
X055590Y004624D01*
X055548Y004529D01*
X055511Y004433D01*
X055479Y004334D01*
X055451Y004235D01*
X055429Y004134D01*
X055411Y004032D01*
X055399Y003929D01*
X055391Y003826D01*
X055389Y003722D01*
X055392Y003619D01*
X055399Y003516D01*
X055412Y003413D01*
X055430Y003311D01*
X055453Y003210D01*
X055481Y003110D01*
X055513Y003012D01*
X055550Y002916D01*
X055592Y002821D01*
X055639Y002729D01*
X055690Y002639D01*
X055746Y002551D01*
X055805Y002467D01*
X055869Y002385D01*
X055937Y002307D01*
X056008Y002232D01*
X056083Y002161D01*
X056161Y002093D01*
X056243Y002030D01*
X056328Y001970D01*
X056415Y001915D01*
X056505Y001864D01*
X056598Y001817D01*
X056692Y001775D01*
X056789Y001738D01*
X056887Y001706D01*
X056987Y001678D01*
X057088Y001655D01*
X057190Y001638D01*
X057292Y001625D01*
X057396Y001618D01*
X057499Y001615D01*
X057602Y001618D01*
X057706Y001625D01*
X057808Y001638D01*
X057910Y001655D01*
X058011Y001678D01*
X058111Y001706D01*
X058209Y001738D01*
X058306Y001775D01*
X058400Y001817D01*
X058493Y001864D01*
X058583Y001915D01*
X058670Y001970D01*
X058755Y002030D01*
X058837Y002093D01*
X058915Y002161D01*
X058990Y002232D01*
X059061Y002307D01*
X059129Y002385D01*
X059193Y002467D01*
X059252Y002551D01*
X059308Y002639D01*
X059359Y002729D01*
X059406Y002821D01*
X059448Y002916D01*
X059485Y003012D01*
X059517Y003110D01*
X059545Y003210D01*
X059568Y003311D01*
X059586Y003413D01*
X059599Y003516D01*
X059606Y003619D01*
X059609Y003722D01*
X059607Y003826D01*
X059599Y003929D01*
X059587Y004032D01*
X059569Y004134D01*
X059547Y004235D01*
X059519Y004334D01*
X059487Y004433D01*
X059450Y004529D01*
X059408Y004624D01*
X059362Y004716D01*
X059311Y004807D01*
X059256Y004894D01*
X059196Y004979D01*
X059133Y005060D01*
X059065Y005139D01*
X058994Y005214D01*
X058919Y005286D01*
X058841Y005353D01*
X058760Y005417D01*
X058675Y005477D01*
X058588Y005532D01*
X058498Y005584D01*
X058406Y005630D01*
X058311Y005672D01*
X058215Y005710D01*
X058116Y005743D01*
X058017Y005770D01*
X057916Y005793D01*
X057814Y005811D01*
X057794Y005811D02*
X057794Y005378D01*
X057792Y005345D01*
X057787Y005312D01*
X057777Y005281D01*
X057765Y005250D01*
X057749Y005221D01*
X057730Y005194D01*
X057708Y005169D01*
X057683Y005147D01*
X057656Y005128D01*
X057627Y005112D01*
X057596Y005100D01*
X057565Y005090D01*
X057532Y005085D01*
X057499Y005083D01*
X057466Y005085D01*
X057433Y005090D01*
X057402Y005100D01*
X057371Y005112D01*
X057342Y005128D01*
X057315Y005147D01*
X057290Y005169D01*
X057268Y005194D01*
X057249Y005221D01*
X057233Y005250D01*
X057221Y005281D01*
X057211Y005312D01*
X057206Y005345D01*
X057204Y005378D01*
X057204Y005811D01*
X056409Y004421D02*
X056411Y004460D01*
X056417Y004499D01*
X056427Y004537D01*
X056440Y004574D01*
X056457Y004609D01*
X056477Y004643D01*
X056501Y004674D01*
X056528Y004703D01*
X056557Y004729D01*
X056589Y004752D01*
X056623Y004772D01*
X056659Y004788D01*
X056696Y004800D01*
X056735Y004809D01*
X056774Y004814D01*
X056813Y004815D01*
X056852Y004812D01*
X056891Y004805D01*
X056928Y004794D01*
X056965Y004780D01*
X057000Y004762D01*
X057033Y004741D01*
X057064Y004716D01*
X057092Y004689D01*
X057117Y004659D01*
X057139Y004626D01*
X057158Y004592D01*
X057173Y004556D01*
X057185Y004518D01*
X057193Y004480D01*
X057197Y004441D01*
X057197Y004401D01*
X057193Y004362D01*
X057185Y004324D01*
X057173Y004286D01*
X057158Y004250D01*
X057139Y004216D01*
X057117Y004183D01*
X057092Y004153D01*
X057064Y004126D01*
X057033Y004101D01*
X057000Y004080D01*
X056965Y004062D01*
X056928Y004048D01*
X056891Y004037D01*
X056852Y004030D01*
X056813Y004027D01*
X056774Y004028D01*
X056735Y004033D01*
X056696Y004042D01*
X056659Y004054D01*
X056623Y004070D01*
X056589Y004090D01*
X056557Y004113D01*
X056528Y004139D01*
X056501Y004168D01*
X056477Y004199D01*
X056457Y004233D01*
X056440Y004268D01*
X056427Y004305D01*
X056417Y004343D01*
X056411Y004382D01*
X056409Y004421D01*
X057801Y004421D02*
X057803Y004460D01*
X057809Y004499D01*
X057819Y004537D01*
X057832Y004574D01*
X057849Y004609D01*
X057869Y004643D01*
X057893Y004674D01*
X057920Y004703D01*
X057949Y004729D01*
X057981Y004752D01*
X058015Y004772D01*
X058051Y004788D01*
X058088Y004800D01*
X058127Y004809D01*
X058166Y004814D01*
X058205Y004815D01*
X058244Y004812D01*
X058283Y004805D01*
X058320Y004794D01*
X058357Y004780D01*
X058392Y004762D01*
X058425Y004741D01*
X058456Y004716D01*
X058484Y004689D01*
X058509Y004659D01*
X058531Y004626D01*
X058550Y004592D01*
X058565Y004556D01*
X058577Y004518D01*
X058585Y004480D01*
X058589Y004441D01*
X058589Y004401D01*
X058585Y004362D01*
X058577Y004324D01*
X058565Y004286D01*
X058550Y004250D01*
X058531Y004216D01*
X058509Y004183D01*
X058484Y004153D01*
X058456Y004126D01*
X058425Y004101D01*
X058392Y004080D01*
X058357Y004062D01*
X058320Y004048D01*
X058283Y004037D01*
X058244Y004030D01*
X058205Y004027D01*
X058166Y004028D01*
X058127Y004033D01*
X058088Y004042D01*
X058051Y004054D01*
X058015Y004070D01*
X057981Y004090D01*
X057949Y004113D01*
X057920Y004139D01*
X057893Y004168D01*
X057869Y004199D01*
X057849Y004233D01*
X057832Y004268D01*
X057819Y004305D01*
X057809Y004343D01*
X057803Y004382D01*
X057801Y004421D01*
X049140Y004421D02*
X049142Y004460D01*
X049148Y004499D01*
X049158Y004537D01*
X049171Y004574D01*
X049188Y004609D01*
X049208Y004643D01*
X049232Y004674D01*
X049259Y004703D01*
X049288Y004729D01*
X049320Y004752D01*
X049354Y004772D01*
X049390Y004788D01*
X049427Y004800D01*
X049466Y004809D01*
X049505Y004814D01*
X049544Y004815D01*
X049583Y004812D01*
X049622Y004805D01*
X049659Y004794D01*
X049696Y004780D01*
X049731Y004762D01*
X049764Y004741D01*
X049795Y004716D01*
X049823Y004689D01*
X049848Y004659D01*
X049870Y004626D01*
X049889Y004592D01*
X049904Y004556D01*
X049916Y004518D01*
X049924Y004480D01*
X049928Y004441D01*
X049928Y004401D01*
X049924Y004362D01*
X049916Y004324D01*
X049904Y004286D01*
X049889Y004250D01*
X049870Y004216D01*
X049848Y004183D01*
X049823Y004153D01*
X049795Y004126D01*
X049764Y004101D01*
X049731Y004080D01*
X049696Y004062D01*
X049659Y004048D01*
X049622Y004037D01*
X049583Y004030D01*
X049544Y004027D01*
X049505Y004028D01*
X049466Y004033D01*
X049427Y004042D01*
X049390Y004054D01*
X049354Y004070D01*
X049320Y004090D01*
X049288Y004113D01*
X049259Y004139D01*
X049232Y004168D01*
X049208Y004199D01*
X049188Y004233D01*
X049171Y004268D01*
X049158Y004305D01*
X049148Y004343D01*
X049142Y004382D01*
X049140Y004421D01*
X047748Y004421D02*
X047750Y004460D01*
X047756Y004499D01*
X047766Y004537D01*
X047779Y004574D01*
X047796Y004609D01*
X047816Y004643D01*
X047840Y004674D01*
X047867Y004703D01*
X047896Y004729D01*
X047928Y004752D01*
X047962Y004772D01*
X047998Y004788D01*
X048035Y004800D01*
X048074Y004809D01*
X048113Y004814D01*
X048152Y004815D01*
X048191Y004812D01*
X048230Y004805D01*
X048267Y004794D01*
X048304Y004780D01*
X048339Y004762D01*
X048372Y004741D01*
X048403Y004716D01*
X048431Y004689D01*
X048456Y004659D01*
X048478Y004626D01*
X048497Y004592D01*
X048512Y004556D01*
X048524Y004518D01*
X048532Y004480D01*
X048536Y004441D01*
X048536Y004401D01*
X048532Y004362D01*
X048524Y004324D01*
X048512Y004286D01*
X048497Y004250D01*
X048478Y004216D01*
X048456Y004183D01*
X048431Y004153D01*
X048403Y004126D01*
X048372Y004101D01*
X048339Y004080D01*
X048304Y004062D01*
X048267Y004048D01*
X048230Y004037D01*
X048191Y004030D01*
X048152Y004027D01*
X048113Y004028D01*
X048074Y004033D01*
X048035Y004042D01*
X047998Y004054D01*
X047962Y004070D01*
X047928Y004090D01*
X047896Y004113D01*
X047867Y004139D01*
X047840Y004168D01*
X047816Y004199D01*
X047796Y004233D01*
X047779Y004268D01*
X047766Y004305D01*
X047756Y004343D01*
X047750Y004382D01*
X047748Y004421D01*
X048444Y003725D02*
X048446Y003764D01*
X048452Y003803D01*
X048462Y003841D01*
X048475Y003878D01*
X048492Y003913D01*
X048512Y003947D01*
X048536Y003978D01*
X048563Y004007D01*
X048592Y004033D01*
X048624Y004056D01*
X048658Y004076D01*
X048694Y004092D01*
X048731Y004104D01*
X048770Y004113D01*
X048809Y004118D01*
X048848Y004119D01*
X048887Y004116D01*
X048926Y004109D01*
X048963Y004098D01*
X049000Y004084D01*
X049035Y004066D01*
X049068Y004045D01*
X049099Y004020D01*
X049127Y003993D01*
X049152Y003963D01*
X049174Y003930D01*
X049193Y003896D01*
X049208Y003860D01*
X049220Y003822D01*
X049228Y003784D01*
X049232Y003745D01*
X049232Y003705D01*
X049228Y003666D01*
X049220Y003628D01*
X049208Y003590D01*
X049193Y003554D01*
X049174Y003520D01*
X049152Y003487D01*
X049127Y003457D01*
X049099Y003430D01*
X049068Y003405D01*
X049035Y003384D01*
X049000Y003366D01*
X048963Y003352D01*
X048926Y003341D01*
X048887Y003334D01*
X048848Y003331D01*
X048809Y003332D01*
X048770Y003337D01*
X048731Y003346D01*
X048694Y003358D01*
X048658Y003374D01*
X048624Y003394D01*
X048592Y003417D01*
X048563Y003443D01*
X048536Y003472D01*
X048512Y003503D01*
X048492Y003537D01*
X048475Y003572D01*
X048462Y003609D01*
X048452Y003647D01*
X048446Y003686D01*
X048444Y003725D01*
X048523Y005811D02*
X048421Y005793D01*
X048320Y005770D01*
X048221Y005743D01*
X048122Y005710D01*
X048026Y005672D01*
X047931Y005630D01*
X047839Y005584D01*
X047749Y005532D01*
X047662Y005477D01*
X047577Y005417D01*
X047496Y005353D01*
X047418Y005286D01*
X047343Y005214D01*
X047272Y005139D01*
X047204Y005060D01*
X047141Y004979D01*
X047081Y004894D01*
X047026Y004807D01*
X046975Y004716D01*
X046929Y004624D01*
X046887Y004529D01*
X046850Y004433D01*
X046818Y004334D01*
X046790Y004235D01*
X046768Y004134D01*
X046750Y004032D01*
X046738Y003929D01*
X046730Y003826D01*
X046728Y003722D01*
X046731Y003619D01*
X046738Y003516D01*
X046751Y003413D01*
X046769Y003311D01*
X046792Y003210D01*
X046820Y003110D01*
X046852Y003012D01*
X046889Y002916D01*
X046931Y002821D01*
X046978Y002729D01*
X047029Y002639D01*
X047085Y002551D01*
X047144Y002467D01*
X047208Y002385D01*
X047276Y002307D01*
X047347Y002232D01*
X047422Y002161D01*
X047500Y002093D01*
X047582Y002030D01*
X047667Y001970D01*
X047754Y001915D01*
X047844Y001864D01*
X047937Y001817D01*
X048031Y001775D01*
X048128Y001738D01*
X048226Y001706D01*
X048326Y001678D01*
X048427Y001655D01*
X048529Y001638D01*
X048631Y001625D01*
X048735Y001618D01*
X048838Y001615D01*
X048941Y001618D01*
X049045Y001625D01*
X049147Y001638D01*
X049249Y001655D01*
X049350Y001678D01*
X049450Y001706D01*
X049548Y001738D01*
X049645Y001775D01*
X049739Y001817D01*
X049832Y001864D01*
X049922Y001915D01*
X050009Y001970D01*
X050094Y002030D01*
X050176Y002093D01*
X050254Y002161D01*
X050329Y002232D01*
X050400Y002307D01*
X050468Y002385D01*
X050532Y002467D01*
X050591Y002551D01*
X050647Y002639D01*
X050698Y002729D01*
X050745Y002821D01*
X050787Y002916D01*
X050824Y003012D01*
X050856Y003110D01*
X050884Y003210D01*
X050907Y003311D01*
X050925Y003413D01*
X050938Y003516D01*
X050945Y003619D01*
X050948Y003722D01*
X050946Y003826D01*
X050938Y003929D01*
X050926Y004032D01*
X050908Y004134D01*
X050886Y004235D01*
X050858Y004334D01*
X050826Y004433D01*
X050789Y004529D01*
X050747Y004624D01*
X050701Y004716D01*
X050650Y004807D01*
X050595Y004894D01*
X050535Y004979D01*
X050472Y005060D01*
X050404Y005139D01*
X050333Y005214D01*
X050258Y005286D01*
X050180Y005353D01*
X050099Y005417D01*
X050014Y005477D01*
X049927Y005532D01*
X049837Y005584D01*
X049745Y005630D01*
X049650Y005672D01*
X049554Y005710D01*
X049455Y005743D01*
X049356Y005770D01*
X049255Y005793D01*
X049153Y005811D01*
X049133Y005811D02*
X049133Y005378D01*
X049131Y005345D01*
X049126Y005312D01*
X049116Y005281D01*
X049104Y005250D01*
X049088Y005221D01*
X049069Y005194D01*
X049047Y005169D01*
X049022Y005147D01*
X048995Y005128D01*
X048966Y005112D01*
X048935Y005100D01*
X048904Y005090D01*
X048871Y005085D01*
X048838Y005083D01*
X048805Y005085D01*
X048772Y005090D01*
X048741Y005100D01*
X048710Y005112D01*
X048681Y005128D01*
X048654Y005147D01*
X048629Y005169D01*
X048607Y005194D01*
X048588Y005221D01*
X048572Y005250D01*
X048560Y005281D01*
X048550Y005312D01*
X048545Y005345D01*
X048543Y005378D01*
X048543Y005811D01*
X047748Y003029D02*
X047750Y003068D01*
X047756Y003107D01*
X047766Y003145D01*
X047779Y003182D01*
X047796Y003217D01*
X047816Y003251D01*
X047840Y003282D01*
X047867Y003311D01*
X047896Y003337D01*
X047928Y003360D01*
X047962Y003380D01*
X047998Y003396D01*
X048035Y003408D01*
X048074Y003417D01*
X048113Y003422D01*
X048152Y003423D01*
X048191Y003420D01*
X048230Y003413D01*
X048267Y003402D01*
X048304Y003388D01*
X048339Y003370D01*
X048372Y003349D01*
X048403Y003324D01*
X048431Y003297D01*
X048456Y003267D01*
X048478Y003234D01*
X048497Y003200D01*
X048512Y003164D01*
X048524Y003126D01*
X048532Y003088D01*
X048536Y003049D01*
X048536Y003009D01*
X048532Y002970D01*
X048524Y002932D01*
X048512Y002894D01*
X048497Y002858D01*
X048478Y002824D01*
X048456Y002791D01*
X048431Y002761D01*
X048403Y002734D01*
X048372Y002709D01*
X048339Y002688D01*
X048304Y002670D01*
X048267Y002656D01*
X048230Y002645D01*
X048191Y002638D01*
X048152Y002635D01*
X048113Y002636D01*
X048074Y002641D01*
X048035Y002650D01*
X047998Y002662D01*
X047962Y002678D01*
X047928Y002698D01*
X047896Y002721D01*
X047867Y002747D01*
X047840Y002776D01*
X047816Y002807D01*
X047796Y002841D01*
X047779Y002876D01*
X047766Y002913D01*
X047756Y002951D01*
X047750Y002990D01*
X047748Y003029D01*
X049140Y003029D02*
X049142Y003068D01*
X049148Y003107D01*
X049158Y003145D01*
X049171Y003182D01*
X049188Y003217D01*
X049208Y003251D01*
X049232Y003282D01*
X049259Y003311D01*
X049288Y003337D01*
X049320Y003360D01*
X049354Y003380D01*
X049390Y003396D01*
X049427Y003408D01*
X049466Y003417D01*
X049505Y003422D01*
X049544Y003423D01*
X049583Y003420D01*
X049622Y003413D01*
X049659Y003402D01*
X049696Y003388D01*
X049731Y003370D01*
X049764Y003349D01*
X049795Y003324D01*
X049823Y003297D01*
X049848Y003267D01*
X049870Y003234D01*
X049889Y003200D01*
X049904Y003164D01*
X049916Y003126D01*
X049924Y003088D01*
X049928Y003049D01*
X049928Y003009D01*
X049924Y002970D01*
X049916Y002932D01*
X049904Y002894D01*
X049889Y002858D01*
X049870Y002824D01*
X049848Y002791D01*
X049823Y002761D01*
X049795Y002734D01*
X049764Y002709D01*
X049731Y002688D01*
X049696Y002670D01*
X049659Y002656D01*
X049622Y002645D01*
X049583Y002638D01*
X049544Y002635D01*
X049505Y002636D01*
X049466Y002641D01*
X049427Y002650D01*
X049390Y002662D01*
X049354Y002678D01*
X049320Y002698D01*
X049288Y002721D01*
X049259Y002747D01*
X049232Y002776D01*
X049208Y002807D01*
X049188Y002841D01*
X049171Y002876D01*
X049158Y002913D01*
X049148Y002951D01*
X049142Y002990D01*
X049140Y003029D01*
X040478Y003029D02*
X040480Y003068D01*
X040486Y003107D01*
X040496Y003145D01*
X040509Y003182D01*
X040526Y003217D01*
X040546Y003251D01*
X040570Y003282D01*
X040597Y003311D01*
X040626Y003337D01*
X040658Y003360D01*
X040692Y003380D01*
X040728Y003396D01*
X040765Y003408D01*
X040804Y003417D01*
X040843Y003422D01*
X040882Y003423D01*
X040921Y003420D01*
X040960Y003413D01*
X040997Y003402D01*
X041034Y003388D01*
X041069Y003370D01*
X041102Y003349D01*
X041133Y003324D01*
X041161Y003297D01*
X041186Y003267D01*
X041208Y003234D01*
X041227Y003200D01*
X041242Y003164D01*
X041254Y003126D01*
X041262Y003088D01*
X041266Y003049D01*
X041266Y003009D01*
X041262Y002970D01*
X041254Y002932D01*
X041242Y002894D01*
X041227Y002858D01*
X041208Y002824D01*
X041186Y002791D01*
X041161Y002761D01*
X041133Y002734D01*
X041102Y002709D01*
X041069Y002688D01*
X041034Y002670D01*
X040997Y002656D01*
X040960Y002645D01*
X040921Y002638D01*
X040882Y002635D01*
X040843Y002636D01*
X040804Y002641D01*
X040765Y002650D01*
X040728Y002662D01*
X040692Y002678D01*
X040658Y002698D01*
X040626Y002721D01*
X040597Y002747D01*
X040570Y002776D01*
X040546Y002807D01*
X040526Y002841D01*
X040509Y002876D01*
X040496Y002913D01*
X040486Y002951D01*
X040480Y002990D01*
X040478Y003029D01*
X039086Y003029D02*
X039088Y003068D01*
X039094Y003107D01*
X039104Y003145D01*
X039117Y003182D01*
X039134Y003217D01*
X039154Y003251D01*
X039178Y003282D01*
X039205Y003311D01*
X039234Y003337D01*
X039266Y003360D01*
X039300Y003380D01*
X039336Y003396D01*
X039373Y003408D01*
X039412Y003417D01*
X039451Y003422D01*
X039490Y003423D01*
X039529Y003420D01*
X039568Y003413D01*
X039605Y003402D01*
X039642Y003388D01*
X039677Y003370D01*
X039710Y003349D01*
X039741Y003324D01*
X039769Y003297D01*
X039794Y003267D01*
X039816Y003234D01*
X039835Y003200D01*
X039850Y003164D01*
X039862Y003126D01*
X039870Y003088D01*
X039874Y003049D01*
X039874Y003009D01*
X039870Y002970D01*
X039862Y002932D01*
X039850Y002894D01*
X039835Y002858D01*
X039816Y002824D01*
X039794Y002791D01*
X039769Y002761D01*
X039741Y002734D01*
X039710Y002709D01*
X039677Y002688D01*
X039642Y002670D01*
X039605Y002656D01*
X039568Y002645D01*
X039529Y002638D01*
X039490Y002635D01*
X039451Y002636D01*
X039412Y002641D01*
X039373Y002650D01*
X039336Y002662D01*
X039300Y002678D01*
X039266Y002698D01*
X039234Y002721D01*
X039205Y002747D01*
X039178Y002776D01*
X039154Y002807D01*
X039134Y002841D01*
X039117Y002876D01*
X039104Y002913D01*
X039094Y002951D01*
X039088Y002990D01*
X039086Y003029D01*
X039782Y003725D02*
X039784Y003764D01*
X039790Y003803D01*
X039800Y003841D01*
X039813Y003878D01*
X039830Y003913D01*
X039850Y003947D01*
X039874Y003978D01*
X039901Y004007D01*
X039930Y004033D01*
X039962Y004056D01*
X039996Y004076D01*
X040032Y004092D01*
X040069Y004104D01*
X040108Y004113D01*
X040147Y004118D01*
X040186Y004119D01*
X040225Y004116D01*
X040264Y004109D01*
X040301Y004098D01*
X040338Y004084D01*
X040373Y004066D01*
X040406Y004045D01*
X040437Y004020D01*
X040465Y003993D01*
X040490Y003963D01*
X040512Y003930D01*
X040531Y003896D01*
X040546Y003860D01*
X040558Y003822D01*
X040566Y003784D01*
X040570Y003745D01*
X040570Y003705D01*
X040566Y003666D01*
X040558Y003628D01*
X040546Y003590D01*
X040531Y003554D01*
X040512Y003520D01*
X040490Y003487D01*
X040465Y003457D01*
X040437Y003430D01*
X040406Y003405D01*
X040373Y003384D01*
X040338Y003366D01*
X040301Y003352D01*
X040264Y003341D01*
X040225Y003334D01*
X040186Y003331D01*
X040147Y003332D01*
X040108Y003337D01*
X040069Y003346D01*
X040032Y003358D01*
X039996Y003374D01*
X039962Y003394D01*
X039930Y003417D01*
X039901Y003443D01*
X039874Y003472D01*
X039850Y003503D01*
X039830Y003537D01*
X039813Y003572D01*
X039800Y003609D01*
X039790Y003647D01*
X039784Y003686D01*
X039782Y003725D01*
X039861Y005811D02*
X039759Y005793D01*
X039658Y005770D01*
X039559Y005743D01*
X039460Y005710D01*
X039364Y005672D01*
X039269Y005630D01*
X039177Y005584D01*
X039087Y005532D01*
X039000Y005477D01*
X038915Y005417D01*
X038834Y005353D01*
X038756Y005286D01*
X038681Y005214D01*
X038610Y005139D01*
X038542Y005060D01*
X038479Y004979D01*
X038419Y004894D01*
X038364Y004807D01*
X038313Y004716D01*
X038267Y004624D01*
X038225Y004529D01*
X038188Y004433D01*
X038156Y004334D01*
X038128Y004235D01*
X038106Y004134D01*
X038088Y004032D01*
X038076Y003929D01*
X038068Y003826D01*
X038066Y003722D01*
X038069Y003619D01*
X038076Y003516D01*
X038089Y003413D01*
X038107Y003311D01*
X038130Y003210D01*
X038158Y003110D01*
X038190Y003012D01*
X038227Y002916D01*
X038269Y002821D01*
X038316Y002729D01*
X038367Y002639D01*
X038423Y002551D01*
X038482Y002467D01*
X038546Y002385D01*
X038614Y002307D01*
X038685Y002232D01*
X038760Y002161D01*
X038838Y002093D01*
X038920Y002030D01*
X039005Y001970D01*
X039092Y001915D01*
X039182Y001864D01*
X039275Y001817D01*
X039369Y001775D01*
X039466Y001738D01*
X039564Y001706D01*
X039664Y001678D01*
X039765Y001655D01*
X039867Y001638D01*
X039969Y001625D01*
X040073Y001618D01*
X040176Y001615D01*
X040279Y001618D01*
X040383Y001625D01*
X040485Y001638D01*
X040587Y001655D01*
X040688Y001678D01*
X040788Y001706D01*
X040886Y001738D01*
X040983Y001775D01*
X041077Y001817D01*
X041170Y001864D01*
X041260Y001915D01*
X041347Y001970D01*
X041432Y002030D01*
X041514Y002093D01*
X041592Y002161D01*
X041667Y002232D01*
X041738Y002307D01*
X041806Y002385D01*
X041870Y002467D01*
X041929Y002551D01*
X041985Y002639D01*
X042036Y002729D01*
X042083Y002821D01*
X042125Y002916D01*
X042162Y003012D01*
X042194Y003110D01*
X042222Y003210D01*
X042245Y003311D01*
X042263Y003413D01*
X042276Y003516D01*
X042283Y003619D01*
X042286Y003722D01*
X042284Y003826D01*
X042276Y003929D01*
X042264Y004032D01*
X042246Y004134D01*
X042224Y004235D01*
X042196Y004334D01*
X042164Y004433D01*
X042127Y004529D01*
X042085Y004624D01*
X042039Y004716D01*
X041988Y004807D01*
X041933Y004894D01*
X041873Y004979D01*
X041810Y005060D01*
X041742Y005139D01*
X041671Y005214D01*
X041596Y005286D01*
X041518Y005353D01*
X041437Y005417D01*
X041352Y005477D01*
X041265Y005532D01*
X041175Y005584D01*
X041083Y005630D01*
X040988Y005672D01*
X040892Y005710D01*
X040793Y005743D01*
X040694Y005770D01*
X040593Y005793D01*
X040491Y005811D01*
X040472Y005811D02*
X040472Y005378D01*
X040471Y005378D02*
X040469Y005345D01*
X040464Y005312D01*
X040454Y005281D01*
X040442Y005250D01*
X040426Y005221D01*
X040407Y005194D01*
X040385Y005169D01*
X040360Y005147D01*
X040333Y005128D01*
X040304Y005112D01*
X040273Y005100D01*
X040242Y005090D01*
X040209Y005085D01*
X040176Y005083D01*
X040143Y005085D01*
X040110Y005090D01*
X040079Y005100D01*
X040048Y005112D01*
X040019Y005128D01*
X039992Y005147D01*
X039967Y005169D01*
X039945Y005194D01*
X039926Y005221D01*
X039910Y005250D01*
X039898Y005281D01*
X039888Y005312D01*
X039883Y005345D01*
X039881Y005378D01*
X039881Y005811D01*
X039086Y004421D02*
X039088Y004460D01*
X039094Y004499D01*
X039104Y004537D01*
X039117Y004574D01*
X039134Y004609D01*
X039154Y004643D01*
X039178Y004674D01*
X039205Y004703D01*
X039234Y004729D01*
X039266Y004752D01*
X039300Y004772D01*
X039336Y004788D01*
X039373Y004800D01*
X039412Y004809D01*
X039451Y004814D01*
X039490Y004815D01*
X039529Y004812D01*
X039568Y004805D01*
X039605Y004794D01*
X039642Y004780D01*
X039677Y004762D01*
X039710Y004741D01*
X039741Y004716D01*
X039769Y004689D01*
X039794Y004659D01*
X039816Y004626D01*
X039835Y004592D01*
X039850Y004556D01*
X039862Y004518D01*
X039870Y004480D01*
X039874Y004441D01*
X039874Y004401D01*
X039870Y004362D01*
X039862Y004324D01*
X039850Y004286D01*
X039835Y004250D01*
X039816Y004216D01*
X039794Y004183D01*
X039769Y004153D01*
X039741Y004126D01*
X039710Y004101D01*
X039677Y004080D01*
X039642Y004062D01*
X039605Y004048D01*
X039568Y004037D01*
X039529Y004030D01*
X039490Y004027D01*
X039451Y004028D01*
X039412Y004033D01*
X039373Y004042D01*
X039336Y004054D01*
X039300Y004070D01*
X039266Y004090D01*
X039234Y004113D01*
X039205Y004139D01*
X039178Y004168D01*
X039154Y004199D01*
X039134Y004233D01*
X039117Y004268D01*
X039104Y004305D01*
X039094Y004343D01*
X039088Y004382D01*
X039086Y004421D01*
X040478Y004421D02*
X040480Y004460D01*
X040486Y004499D01*
X040496Y004537D01*
X040509Y004574D01*
X040526Y004609D01*
X040546Y004643D01*
X040570Y004674D01*
X040597Y004703D01*
X040626Y004729D01*
X040658Y004752D01*
X040692Y004772D01*
X040728Y004788D01*
X040765Y004800D01*
X040804Y004809D01*
X040843Y004814D01*
X040882Y004815D01*
X040921Y004812D01*
X040960Y004805D01*
X040997Y004794D01*
X041034Y004780D01*
X041069Y004762D01*
X041102Y004741D01*
X041133Y004716D01*
X041161Y004689D01*
X041186Y004659D01*
X041208Y004626D01*
X041227Y004592D01*
X041242Y004556D01*
X041254Y004518D01*
X041262Y004480D01*
X041266Y004441D01*
X041266Y004401D01*
X041262Y004362D01*
X041254Y004324D01*
X041242Y004286D01*
X041227Y004250D01*
X041208Y004216D01*
X041186Y004183D01*
X041161Y004153D01*
X041133Y004126D01*
X041102Y004101D01*
X041069Y004080D01*
X041034Y004062D01*
X040997Y004048D01*
X040960Y004037D01*
X040921Y004030D01*
X040882Y004027D01*
X040843Y004028D01*
X040804Y004033D01*
X040765Y004042D01*
X040728Y004054D01*
X040692Y004070D01*
X040658Y004090D01*
X040626Y004113D01*
X040597Y004139D01*
X040570Y004168D01*
X040546Y004199D01*
X040526Y004233D01*
X040509Y004268D01*
X040496Y004305D01*
X040486Y004343D01*
X040480Y004382D01*
X040478Y004421D01*
X031817Y004421D02*
X031819Y004460D01*
X031825Y004499D01*
X031835Y004537D01*
X031848Y004574D01*
X031865Y004609D01*
X031885Y004643D01*
X031909Y004674D01*
X031936Y004703D01*
X031965Y004729D01*
X031997Y004752D01*
X032031Y004772D01*
X032067Y004788D01*
X032104Y004800D01*
X032143Y004809D01*
X032182Y004814D01*
X032221Y004815D01*
X032260Y004812D01*
X032299Y004805D01*
X032336Y004794D01*
X032373Y004780D01*
X032408Y004762D01*
X032441Y004741D01*
X032472Y004716D01*
X032500Y004689D01*
X032525Y004659D01*
X032547Y004626D01*
X032566Y004592D01*
X032581Y004556D01*
X032593Y004518D01*
X032601Y004480D01*
X032605Y004441D01*
X032605Y004401D01*
X032601Y004362D01*
X032593Y004324D01*
X032581Y004286D01*
X032566Y004250D01*
X032547Y004216D01*
X032525Y004183D01*
X032500Y004153D01*
X032472Y004126D01*
X032441Y004101D01*
X032408Y004080D01*
X032373Y004062D01*
X032336Y004048D01*
X032299Y004037D01*
X032260Y004030D01*
X032221Y004027D01*
X032182Y004028D01*
X032143Y004033D01*
X032104Y004042D01*
X032067Y004054D01*
X032031Y004070D01*
X031997Y004090D01*
X031965Y004113D01*
X031936Y004139D01*
X031909Y004168D01*
X031885Y004199D01*
X031865Y004233D01*
X031848Y004268D01*
X031835Y004305D01*
X031825Y004343D01*
X031819Y004382D01*
X031817Y004421D01*
X031121Y003725D02*
X031123Y003764D01*
X031129Y003803D01*
X031139Y003841D01*
X031152Y003878D01*
X031169Y003913D01*
X031189Y003947D01*
X031213Y003978D01*
X031240Y004007D01*
X031269Y004033D01*
X031301Y004056D01*
X031335Y004076D01*
X031371Y004092D01*
X031408Y004104D01*
X031447Y004113D01*
X031486Y004118D01*
X031525Y004119D01*
X031564Y004116D01*
X031603Y004109D01*
X031640Y004098D01*
X031677Y004084D01*
X031712Y004066D01*
X031745Y004045D01*
X031776Y004020D01*
X031804Y003993D01*
X031829Y003963D01*
X031851Y003930D01*
X031870Y003896D01*
X031885Y003860D01*
X031897Y003822D01*
X031905Y003784D01*
X031909Y003745D01*
X031909Y003705D01*
X031905Y003666D01*
X031897Y003628D01*
X031885Y003590D01*
X031870Y003554D01*
X031851Y003520D01*
X031829Y003487D01*
X031804Y003457D01*
X031776Y003430D01*
X031745Y003405D01*
X031712Y003384D01*
X031677Y003366D01*
X031640Y003352D01*
X031603Y003341D01*
X031564Y003334D01*
X031525Y003331D01*
X031486Y003332D01*
X031447Y003337D01*
X031408Y003346D01*
X031371Y003358D01*
X031335Y003374D01*
X031301Y003394D01*
X031269Y003417D01*
X031240Y003443D01*
X031213Y003472D01*
X031189Y003503D01*
X031169Y003537D01*
X031152Y003572D01*
X031139Y003609D01*
X031129Y003647D01*
X031123Y003686D01*
X031121Y003725D01*
X031200Y005811D02*
X031098Y005793D01*
X030997Y005770D01*
X030898Y005743D01*
X030799Y005710D01*
X030703Y005672D01*
X030608Y005630D01*
X030516Y005584D01*
X030426Y005532D01*
X030339Y005477D01*
X030254Y005417D01*
X030173Y005353D01*
X030095Y005286D01*
X030020Y005214D01*
X029949Y005139D01*
X029881Y005060D01*
X029818Y004979D01*
X029758Y004894D01*
X029703Y004807D01*
X029652Y004716D01*
X029606Y004624D01*
X029564Y004529D01*
X029527Y004433D01*
X029495Y004334D01*
X029467Y004235D01*
X029445Y004134D01*
X029427Y004032D01*
X029415Y003929D01*
X029407Y003826D01*
X029405Y003722D01*
X029408Y003619D01*
X029415Y003516D01*
X029428Y003413D01*
X029446Y003311D01*
X029469Y003210D01*
X029497Y003110D01*
X029529Y003012D01*
X029566Y002916D01*
X029608Y002821D01*
X029655Y002729D01*
X029706Y002639D01*
X029762Y002551D01*
X029821Y002467D01*
X029885Y002385D01*
X029953Y002307D01*
X030024Y002232D01*
X030099Y002161D01*
X030177Y002093D01*
X030259Y002030D01*
X030344Y001970D01*
X030431Y001915D01*
X030521Y001864D01*
X030614Y001817D01*
X030708Y001775D01*
X030805Y001738D01*
X030903Y001706D01*
X031003Y001678D01*
X031104Y001655D01*
X031206Y001638D01*
X031308Y001625D01*
X031412Y001618D01*
X031515Y001615D01*
X031618Y001618D01*
X031722Y001625D01*
X031824Y001638D01*
X031926Y001655D01*
X032027Y001678D01*
X032127Y001706D01*
X032225Y001738D01*
X032322Y001775D01*
X032416Y001817D01*
X032509Y001864D01*
X032599Y001915D01*
X032686Y001970D01*
X032771Y002030D01*
X032853Y002093D01*
X032931Y002161D01*
X033006Y002232D01*
X033077Y002307D01*
X033145Y002385D01*
X033209Y002467D01*
X033268Y002551D01*
X033324Y002639D01*
X033375Y002729D01*
X033422Y002821D01*
X033464Y002916D01*
X033501Y003012D01*
X033533Y003110D01*
X033561Y003210D01*
X033584Y003311D01*
X033602Y003413D01*
X033615Y003516D01*
X033622Y003619D01*
X033625Y003722D01*
X033623Y003826D01*
X033615Y003929D01*
X033603Y004032D01*
X033585Y004134D01*
X033563Y004235D01*
X033535Y004334D01*
X033503Y004433D01*
X033466Y004529D01*
X033424Y004624D01*
X033378Y004716D01*
X033327Y004807D01*
X033272Y004894D01*
X033212Y004979D01*
X033149Y005060D01*
X033081Y005139D01*
X033010Y005214D01*
X032935Y005286D01*
X032857Y005353D01*
X032776Y005417D01*
X032691Y005477D01*
X032604Y005532D01*
X032514Y005584D01*
X032422Y005630D01*
X032327Y005672D01*
X032231Y005710D01*
X032132Y005743D01*
X032033Y005770D01*
X031932Y005793D01*
X031830Y005811D01*
X031810Y005811D02*
X031810Y005378D01*
X031808Y005345D01*
X031803Y005312D01*
X031793Y005281D01*
X031781Y005250D01*
X031765Y005221D01*
X031746Y005194D01*
X031724Y005169D01*
X031699Y005147D01*
X031672Y005128D01*
X031643Y005112D01*
X031612Y005100D01*
X031581Y005090D01*
X031548Y005085D01*
X031515Y005083D01*
X031482Y005085D01*
X031449Y005090D01*
X031418Y005100D01*
X031387Y005112D01*
X031358Y005128D01*
X031331Y005147D01*
X031306Y005169D01*
X031284Y005194D01*
X031265Y005221D01*
X031249Y005250D01*
X031237Y005281D01*
X031227Y005312D01*
X031222Y005345D01*
X031220Y005378D01*
X031220Y005811D01*
X030425Y004421D02*
X030427Y004460D01*
X030433Y004499D01*
X030443Y004537D01*
X030456Y004574D01*
X030473Y004609D01*
X030493Y004643D01*
X030517Y004674D01*
X030544Y004703D01*
X030573Y004729D01*
X030605Y004752D01*
X030639Y004772D01*
X030675Y004788D01*
X030712Y004800D01*
X030751Y004809D01*
X030790Y004814D01*
X030829Y004815D01*
X030868Y004812D01*
X030907Y004805D01*
X030944Y004794D01*
X030981Y004780D01*
X031016Y004762D01*
X031049Y004741D01*
X031080Y004716D01*
X031108Y004689D01*
X031133Y004659D01*
X031155Y004626D01*
X031174Y004592D01*
X031189Y004556D01*
X031201Y004518D01*
X031209Y004480D01*
X031213Y004441D01*
X031213Y004401D01*
X031209Y004362D01*
X031201Y004324D01*
X031189Y004286D01*
X031174Y004250D01*
X031155Y004216D01*
X031133Y004183D01*
X031108Y004153D01*
X031080Y004126D01*
X031049Y004101D01*
X031016Y004080D01*
X030981Y004062D01*
X030944Y004048D01*
X030907Y004037D01*
X030868Y004030D01*
X030829Y004027D01*
X030790Y004028D01*
X030751Y004033D01*
X030712Y004042D01*
X030675Y004054D01*
X030639Y004070D01*
X030605Y004090D01*
X030573Y004113D01*
X030544Y004139D01*
X030517Y004168D01*
X030493Y004199D01*
X030473Y004233D01*
X030456Y004268D01*
X030443Y004305D01*
X030433Y004343D01*
X030427Y004382D01*
X030425Y004421D01*
X030425Y003029D02*
X030427Y003068D01*
X030433Y003107D01*
X030443Y003145D01*
X030456Y003182D01*
X030473Y003217D01*
X030493Y003251D01*
X030517Y003282D01*
X030544Y003311D01*
X030573Y003337D01*
X030605Y003360D01*
X030639Y003380D01*
X030675Y003396D01*
X030712Y003408D01*
X030751Y003417D01*
X030790Y003422D01*
X030829Y003423D01*
X030868Y003420D01*
X030907Y003413D01*
X030944Y003402D01*
X030981Y003388D01*
X031016Y003370D01*
X031049Y003349D01*
X031080Y003324D01*
X031108Y003297D01*
X031133Y003267D01*
X031155Y003234D01*
X031174Y003200D01*
X031189Y003164D01*
X031201Y003126D01*
X031209Y003088D01*
X031213Y003049D01*
X031213Y003009D01*
X031209Y002970D01*
X031201Y002932D01*
X031189Y002894D01*
X031174Y002858D01*
X031155Y002824D01*
X031133Y002791D01*
X031108Y002761D01*
X031080Y002734D01*
X031049Y002709D01*
X031016Y002688D01*
X030981Y002670D01*
X030944Y002656D01*
X030907Y002645D01*
X030868Y002638D01*
X030829Y002635D01*
X030790Y002636D01*
X030751Y002641D01*
X030712Y002650D01*
X030675Y002662D01*
X030639Y002678D01*
X030605Y002698D01*
X030573Y002721D01*
X030544Y002747D01*
X030517Y002776D01*
X030493Y002807D01*
X030473Y002841D01*
X030456Y002876D01*
X030443Y002913D01*
X030433Y002951D01*
X030427Y002990D01*
X030425Y003029D01*
X031817Y003029D02*
X031819Y003068D01*
X031825Y003107D01*
X031835Y003145D01*
X031848Y003182D01*
X031865Y003217D01*
X031885Y003251D01*
X031909Y003282D01*
X031936Y003311D01*
X031965Y003337D01*
X031997Y003360D01*
X032031Y003380D01*
X032067Y003396D01*
X032104Y003408D01*
X032143Y003417D01*
X032182Y003422D01*
X032221Y003423D01*
X032260Y003420D01*
X032299Y003413D01*
X032336Y003402D01*
X032373Y003388D01*
X032408Y003370D01*
X032441Y003349D01*
X032472Y003324D01*
X032500Y003297D01*
X032525Y003267D01*
X032547Y003234D01*
X032566Y003200D01*
X032581Y003164D01*
X032593Y003126D01*
X032601Y003088D01*
X032605Y003049D01*
X032605Y003009D01*
X032601Y002970D01*
X032593Y002932D01*
X032581Y002894D01*
X032566Y002858D01*
X032547Y002824D01*
X032525Y002791D01*
X032500Y002761D01*
X032472Y002734D01*
X032441Y002709D01*
X032408Y002688D01*
X032373Y002670D01*
X032336Y002656D01*
X032299Y002645D01*
X032260Y002638D01*
X032221Y002635D01*
X032182Y002636D01*
X032143Y002641D01*
X032104Y002650D01*
X032067Y002662D01*
X032031Y002678D01*
X031997Y002698D01*
X031965Y002721D01*
X031936Y002747D01*
X031909Y002776D01*
X031885Y002807D01*
X031865Y002841D01*
X031848Y002876D01*
X031835Y002913D01*
X031825Y002951D01*
X031819Y002990D01*
X031817Y003029D01*
M02*
