G75*
G70*
%OFA0B0*%
%FSLAX24Y24*%
%IPPOS*%
%LPD*%
%AMOC8*
5,1,8,0,0,1.08239X$1,22.5*
%
%ADD10C,0.0100*%
%ADD11C,0.0709*%
%ADD12C,0.0000*%
%ADD13C,0.0768*%
%ADD14C,0.0320*%
%ADD15C,0.0376*%
%ADD16C,0.0591*%
%ADD17C,0.0160*%
D10*
X026003Y001726D02*
X026003Y009600D01*
X026005Y009677D01*
X026011Y009754D01*
X026020Y009831D01*
X026033Y009907D01*
X026050Y009983D01*
X026071Y010057D01*
X026095Y010131D01*
X026123Y010203D01*
X026154Y010273D01*
X026189Y010342D01*
X026227Y010410D01*
X026268Y010475D01*
X026313Y010538D01*
X026361Y010599D01*
X026411Y010658D01*
X026464Y010714D01*
X026520Y010767D01*
X026579Y010817D01*
X026640Y010865D01*
X026703Y010910D01*
X026768Y010951D01*
X026836Y010989D01*
X026905Y011024D01*
X026975Y011055D01*
X027047Y011083D01*
X027121Y011107D01*
X027195Y011128D01*
X027271Y011145D01*
X027347Y011158D01*
X027424Y011167D01*
X027501Y011173D01*
X027578Y011175D01*
X073247Y011175D01*
X073324Y011173D01*
X073401Y011167D01*
X073478Y011158D01*
X073554Y011145D01*
X073630Y011128D01*
X073704Y011107D01*
X073778Y011083D01*
X073850Y011055D01*
X073920Y011024D01*
X073989Y010989D01*
X074057Y010951D01*
X074122Y010910D01*
X074185Y010865D01*
X074246Y010817D01*
X074305Y010767D01*
X074361Y010714D01*
X074414Y010658D01*
X074464Y010599D01*
X074512Y010538D01*
X074557Y010475D01*
X074598Y010410D01*
X074636Y010342D01*
X074671Y010273D01*
X074702Y010203D01*
X074730Y010131D01*
X074754Y010057D01*
X074775Y009983D01*
X074792Y009907D01*
X074805Y009831D01*
X074814Y009754D01*
X074820Y009677D01*
X074822Y009600D01*
X074822Y001726D01*
X074820Y001649D01*
X074814Y001572D01*
X074805Y001495D01*
X074792Y001419D01*
X074775Y001343D01*
X074754Y001269D01*
X074730Y001195D01*
X074702Y001123D01*
X074671Y001053D01*
X074636Y000984D01*
X074598Y000916D01*
X074557Y000851D01*
X074512Y000788D01*
X074464Y000727D01*
X074414Y000668D01*
X074361Y000612D01*
X074305Y000559D01*
X074246Y000509D01*
X074185Y000461D01*
X074122Y000416D01*
X074057Y000375D01*
X073989Y000337D01*
X073920Y000302D01*
X073850Y000271D01*
X073778Y000243D01*
X073704Y000219D01*
X073630Y000198D01*
X073554Y000181D01*
X073478Y000168D01*
X073401Y000159D01*
X073324Y000153D01*
X073247Y000151D01*
X027578Y000151D01*
X027501Y000153D01*
X027424Y000159D01*
X027347Y000168D01*
X027271Y000181D01*
X027195Y000198D01*
X027121Y000219D01*
X027047Y000243D01*
X026975Y000271D01*
X026905Y000302D01*
X026836Y000337D01*
X026768Y000375D01*
X026703Y000416D01*
X026640Y000461D01*
X026579Y000509D01*
X026520Y000559D01*
X026464Y000612D01*
X026411Y000668D01*
X026361Y000727D01*
X026313Y000788D01*
X026268Y000851D01*
X026227Y000916D01*
X026189Y000984D01*
X026154Y001053D01*
X026123Y001123D01*
X026095Y001195D01*
X026071Y001269D01*
X026050Y001343D01*
X026033Y001419D01*
X026020Y001495D01*
X026011Y001572D01*
X026005Y001649D01*
X026003Y001726D01*
D11*
X030819Y002999D03*
X032211Y002999D03*
X031515Y003694D03*
X032211Y004390D03*
X030819Y004390D03*
X039480Y004390D03*
X040176Y003694D03*
X040872Y004390D03*
X040872Y002999D03*
X039480Y002999D03*
X048142Y002999D03*
X049534Y002999D03*
X048838Y003694D03*
X049534Y004390D03*
X048142Y004390D03*
X056803Y004390D03*
X057499Y003694D03*
X058195Y004390D03*
X058195Y002999D03*
X056803Y002999D03*
X065465Y002999D03*
X066857Y002999D03*
X066161Y003694D03*
X066857Y004390D03*
X065465Y004390D03*
D12*
X062657Y003694D02*
X062659Y003741D01*
X062665Y003787D01*
X062675Y003833D01*
X062688Y003878D01*
X062706Y003921D01*
X062727Y003963D01*
X062751Y004003D01*
X062779Y004040D01*
X062810Y004075D01*
X062844Y004108D01*
X062880Y004137D01*
X062919Y004163D01*
X062960Y004186D01*
X063003Y004205D01*
X063047Y004221D01*
X063092Y004233D01*
X063138Y004241D01*
X063185Y004245D01*
X063231Y004245D01*
X063278Y004241D01*
X063324Y004233D01*
X063369Y004221D01*
X063413Y004205D01*
X063456Y004186D01*
X063497Y004163D01*
X063536Y004137D01*
X063572Y004108D01*
X063606Y004075D01*
X063637Y004040D01*
X063665Y004003D01*
X063689Y003963D01*
X063710Y003921D01*
X063728Y003878D01*
X063741Y003833D01*
X063751Y003787D01*
X063757Y003741D01*
X063759Y003694D01*
X063757Y003647D01*
X063751Y003601D01*
X063741Y003555D01*
X063728Y003510D01*
X063710Y003467D01*
X063689Y003425D01*
X063665Y003385D01*
X063637Y003348D01*
X063606Y003313D01*
X063572Y003280D01*
X063536Y003251D01*
X063497Y003225D01*
X063456Y003202D01*
X063413Y003183D01*
X063369Y003167D01*
X063324Y003155D01*
X063278Y003147D01*
X063231Y003143D01*
X063185Y003143D01*
X063138Y003147D01*
X063092Y003155D01*
X063047Y003167D01*
X063003Y003183D01*
X062960Y003202D01*
X062919Y003225D01*
X062880Y003251D01*
X062844Y003280D01*
X062810Y003313D01*
X062779Y003348D01*
X062751Y003385D01*
X062727Y003425D01*
X062706Y003467D01*
X062688Y003510D01*
X062675Y003555D01*
X062665Y003601D01*
X062659Y003647D01*
X062657Y003694D01*
X059901Y003694D02*
X059903Y003741D01*
X059909Y003787D01*
X059919Y003833D01*
X059932Y003878D01*
X059950Y003921D01*
X059971Y003963D01*
X059995Y004003D01*
X060023Y004040D01*
X060054Y004075D01*
X060088Y004108D01*
X060124Y004137D01*
X060163Y004163D01*
X060204Y004186D01*
X060247Y004205D01*
X060291Y004221D01*
X060336Y004233D01*
X060382Y004241D01*
X060429Y004245D01*
X060475Y004245D01*
X060522Y004241D01*
X060568Y004233D01*
X060613Y004221D01*
X060657Y004205D01*
X060700Y004186D01*
X060741Y004163D01*
X060780Y004137D01*
X060816Y004108D01*
X060850Y004075D01*
X060881Y004040D01*
X060909Y004003D01*
X060933Y003963D01*
X060954Y003921D01*
X060972Y003878D01*
X060985Y003833D01*
X060995Y003787D01*
X061001Y003741D01*
X061003Y003694D01*
X061001Y003647D01*
X060995Y003601D01*
X060985Y003555D01*
X060972Y003510D01*
X060954Y003467D01*
X060933Y003425D01*
X060909Y003385D01*
X060881Y003348D01*
X060850Y003313D01*
X060816Y003280D01*
X060780Y003251D01*
X060741Y003225D01*
X060700Y003202D01*
X060657Y003183D01*
X060613Y003167D01*
X060568Y003155D01*
X060522Y003147D01*
X060475Y003143D01*
X060429Y003143D01*
X060382Y003147D01*
X060336Y003155D01*
X060291Y003167D01*
X060247Y003183D01*
X060204Y003202D01*
X060163Y003225D01*
X060124Y003251D01*
X060088Y003280D01*
X060054Y003313D01*
X060023Y003348D01*
X059995Y003385D01*
X059971Y003425D01*
X059950Y003467D01*
X059932Y003510D01*
X059919Y003555D01*
X059909Y003601D01*
X059903Y003647D01*
X059901Y003694D01*
X053995Y003694D02*
X053997Y003741D01*
X054003Y003787D01*
X054013Y003833D01*
X054026Y003878D01*
X054044Y003921D01*
X054065Y003963D01*
X054089Y004003D01*
X054117Y004040D01*
X054148Y004075D01*
X054182Y004108D01*
X054218Y004137D01*
X054257Y004163D01*
X054298Y004186D01*
X054341Y004205D01*
X054385Y004221D01*
X054430Y004233D01*
X054476Y004241D01*
X054523Y004245D01*
X054569Y004245D01*
X054616Y004241D01*
X054662Y004233D01*
X054707Y004221D01*
X054751Y004205D01*
X054794Y004186D01*
X054835Y004163D01*
X054874Y004137D01*
X054910Y004108D01*
X054944Y004075D01*
X054975Y004040D01*
X055003Y004003D01*
X055027Y003963D01*
X055048Y003921D01*
X055066Y003878D01*
X055079Y003833D01*
X055089Y003787D01*
X055095Y003741D01*
X055097Y003694D01*
X055095Y003647D01*
X055089Y003601D01*
X055079Y003555D01*
X055066Y003510D01*
X055048Y003467D01*
X055027Y003425D01*
X055003Y003385D01*
X054975Y003348D01*
X054944Y003313D01*
X054910Y003280D01*
X054874Y003251D01*
X054835Y003225D01*
X054794Y003202D01*
X054751Y003183D01*
X054707Y003167D01*
X054662Y003155D01*
X054616Y003147D01*
X054569Y003143D01*
X054523Y003143D01*
X054476Y003147D01*
X054430Y003155D01*
X054385Y003167D01*
X054341Y003183D01*
X054298Y003202D01*
X054257Y003225D01*
X054218Y003251D01*
X054182Y003280D01*
X054148Y003313D01*
X054117Y003348D01*
X054089Y003385D01*
X054065Y003425D01*
X054044Y003467D01*
X054026Y003510D01*
X054013Y003555D01*
X054003Y003601D01*
X053997Y003647D01*
X053995Y003694D01*
X051240Y003694D02*
X051242Y003741D01*
X051248Y003787D01*
X051258Y003833D01*
X051271Y003878D01*
X051289Y003921D01*
X051310Y003963D01*
X051334Y004003D01*
X051362Y004040D01*
X051393Y004075D01*
X051427Y004108D01*
X051463Y004137D01*
X051502Y004163D01*
X051543Y004186D01*
X051586Y004205D01*
X051630Y004221D01*
X051675Y004233D01*
X051721Y004241D01*
X051768Y004245D01*
X051814Y004245D01*
X051861Y004241D01*
X051907Y004233D01*
X051952Y004221D01*
X051996Y004205D01*
X052039Y004186D01*
X052080Y004163D01*
X052119Y004137D01*
X052155Y004108D01*
X052189Y004075D01*
X052220Y004040D01*
X052248Y004003D01*
X052272Y003963D01*
X052293Y003921D01*
X052311Y003878D01*
X052324Y003833D01*
X052334Y003787D01*
X052340Y003741D01*
X052342Y003694D01*
X052340Y003647D01*
X052334Y003601D01*
X052324Y003555D01*
X052311Y003510D01*
X052293Y003467D01*
X052272Y003425D01*
X052248Y003385D01*
X052220Y003348D01*
X052189Y003313D01*
X052155Y003280D01*
X052119Y003251D01*
X052080Y003225D01*
X052039Y003202D01*
X051996Y003183D01*
X051952Y003167D01*
X051907Y003155D01*
X051861Y003147D01*
X051814Y003143D01*
X051768Y003143D01*
X051721Y003147D01*
X051675Y003155D01*
X051630Y003167D01*
X051586Y003183D01*
X051543Y003202D01*
X051502Y003225D01*
X051463Y003251D01*
X051427Y003280D01*
X051393Y003313D01*
X051362Y003348D01*
X051334Y003385D01*
X051310Y003425D01*
X051289Y003467D01*
X051271Y003510D01*
X051258Y003555D01*
X051248Y003601D01*
X051242Y003647D01*
X051240Y003694D01*
X045334Y003694D02*
X045336Y003741D01*
X045342Y003787D01*
X045352Y003833D01*
X045365Y003878D01*
X045383Y003921D01*
X045404Y003963D01*
X045428Y004003D01*
X045456Y004040D01*
X045487Y004075D01*
X045521Y004108D01*
X045557Y004137D01*
X045596Y004163D01*
X045637Y004186D01*
X045680Y004205D01*
X045724Y004221D01*
X045769Y004233D01*
X045815Y004241D01*
X045862Y004245D01*
X045908Y004245D01*
X045955Y004241D01*
X046001Y004233D01*
X046046Y004221D01*
X046090Y004205D01*
X046133Y004186D01*
X046174Y004163D01*
X046213Y004137D01*
X046249Y004108D01*
X046283Y004075D01*
X046314Y004040D01*
X046342Y004003D01*
X046366Y003963D01*
X046387Y003921D01*
X046405Y003878D01*
X046418Y003833D01*
X046428Y003787D01*
X046434Y003741D01*
X046436Y003694D01*
X046434Y003647D01*
X046428Y003601D01*
X046418Y003555D01*
X046405Y003510D01*
X046387Y003467D01*
X046366Y003425D01*
X046342Y003385D01*
X046314Y003348D01*
X046283Y003313D01*
X046249Y003280D01*
X046213Y003251D01*
X046174Y003225D01*
X046133Y003202D01*
X046090Y003183D01*
X046046Y003167D01*
X046001Y003155D01*
X045955Y003147D01*
X045908Y003143D01*
X045862Y003143D01*
X045815Y003147D01*
X045769Y003155D01*
X045724Y003167D01*
X045680Y003183D01*
X045637Y003202D01*
X045596Y003225D01*
X045557Y003251D01*
X045521Y003280D01*
X045487Y003313D01*
X045456Y003348D01*
X045428Y003385D01*
X045404Y003425D01*
X045383Y003467D01*
X045365Y003510D01*
X045352Y003555D01*
X045342Y003601D01*
X045336Y003647D01*
X045334Y003694D01*
X042578Y003694D02*
X042580Y003741D01*
X042586Y003787D01*
X042596Y003833D01*
X042609Y003878D01*
X042627Y003921D01*
X042648Y003963D01*
X042672Y004003D01*
X042700Y004040D01*
X042731Y004075D01*
X042765Y004108D01*
X042801Y004137D01*
X042840Y004163D01*
X042881Y004186D01*
X042924Y004205D01*
X042968Y004221D01*
X043013Y004233D01*
X043059Y004241D01*
X043106Y004245D01*
X043152Y004245D01*
X043199Y004241D01*
X043245Y004233D01*
X043290Y004221D01*
X043334Y004205D01*
X043377Y004186D01*
X043418Y004163D01*
X043457Y004137D01*
X043493Y004108D01*
X043527Y004075D01*
X043558Y004040D01*
X043586Y004003D01*
X043610Y003963D01*
X043631Y003921D01*
X043649Y003878D01*
X043662Y003833D01*
X043672Y003787D01*
X043678Y003741D01*
X043680Y003694D01*
X043678Y003647D01*
X043672Y003601D01*
X043662Y003555D01*
X043649Y003510D01*
X043631Y003467D01*
X043610Y003425D01*
X043586Y003385D01*
X043558Y003348D01*
X043527Y003313D01*
X043493Y003280D01*
X043457Y003251D01*
X043418Y003225D01*
X043377Y003202D01*
X043334Y003183D01*
X043290Y003167D01*
X043245Y003155D01*
X043199Y003147D01*
X043152Y003143D01*
X043106Y003143D01*
X043059Y003147D01*
X043013Y003155D01*
X042968Y003167D01*
X042924Y003183D01*
X042881Y003202D01*
X042840Y003225D01*
X042801Y003251D01*
X042765Y003280D01*
X042731Y003313D01*
X042700Y003348D01*
X042672Y003385D01*
X042648Y003425D01*
X042627Y003467D01*
X042609Y003510D01*
X042596Y003555D01*
X042586Y003601D01*
X042580Y003647D01*
X042578Y003694D01*
X036673Y003694D02*
X036675Y003741D01*
X036681Y003787D01*
X036691Y003833D01*
X036704Y003878D01*
X036722Y003921D01*
X036743Y003963D01*
X036767Y004003D01*
X036795Y004040D01*
X036826Y004075D01*
X036860Y004108D01*
X036896Y004137D01*
X036935Y004163D01*
X036976Y004186D01*
X037019Y004205D01*
X037063Y004221D01*
X037108Y004233D01*
X037154Y004241D01*
X037201Y004245D01*
X037247Y004245D01*
X037294Y004241D01*
X037340Y004233D01*
X037385Y004221D01*
X037429Y004205D01*
X037472Y004186D01*
X037513Y004163D01*
X037552Y004137D01*
X037588Y004108D01*
X037622Y004075D01*
X037653Y004040D01*
X037681Y004003D01*
X037705Y003963D01*
X037726Y003921D01*
X037744Y003878D01*
X037757Y003833D01*
X037767Y003787D01*
X037773Y003741D01*
X037775Y003694D01*
X037773Y003647D01*
X037767Y003601D01*
X037757Y003555D01*
X037744Y003510D01*
X037726Y003467D01*
X037705Y003425D01*
X037681Y003385D01*
X037653Y003348D01*
X037622Y003313D01*
X037588Y003280D01*
X037552Y003251D01*
X037513Y003225D01*
X037472Y003202D01*
X037429Y003183D01*
X037385Y003167D01*
X037340Y003155D01*
X037294Y003147D01*
X037247Y003143D01*
X037201Y003143D01*
X037154Y003147D01*
X037108Y003155D01*
X037063Y003167D01*
X037019Y003183D01*
X036976Y003202D01*
X036935Y003225D01*
X036896Y003251D01*
X036860Y003280D01*
X036826Y003313D01*
X036795Y003348D01*
X036767Y003385D01*
X036743Y003425D01*
X036722Y003467D01*
X036704Y003510D01*
X036691Y003555D01*
X036681Y003601D01*
X036675Y003647D01*
X036673Y003694D01*
X033917Y003694D02*
X033919Y003741D01*
X033925Y003787D01*
X033935Y003833D01*
X033948Y003878D01*
X033966Y003921D01*
X033987Y003963D01*
X034011Y004003D01*
X034039Y004040D01*
X034070Y004075D01*
X034104Y004108D01*
X034140Y004137D01*
X034179Y004163D01*
X034220Y004186D01*
X034263Y004205D01*
X034307Y004221D01*
X034352Y004233D01*
X034398Y004241D01*
X034445Y004245D01*
X034491Y004245D01*
X034538Y004241D01*
X034584Y004233D01*
X034629Y004221D01*
X034673Y004205D01*
X034716Y004186D01*
X034757Y004163D01*
X034796Y004137D01*
X034832Y004108D01*
X034866Y004075D01*
X034897Y004040D01*
X034925Y004003D01*
X034949Y003963D01*
X034970Y003921D01*
X034988Y003878D01*
X035001Y003833D01*
X035011Y003787D01*
X035017Y003741D01*
X035019Y003694D01*
X035017Y003647D01*
X035011Y003601D01*
X035001Y003555D01*
X034988Y003510D01*
X034970Y003467D01*
X034949Y003425D01*
X034925Y003385D01*
X034897Y003348D01*
X034866Y003313D01*
X034832Y003280D01*
X034796Y003251D01*
X034757Y003225D01*
X034716Y003202D01*
X034673Y003183D01*
X034629Y003167D01*
X034584Y003155D01*
X034538Y003147D01*
X034491Y003143D01*
X034445Y003143D01*
X034398Y003147D01*
X034352Y003155D01*
X034307Y003167D01*
X034263Y003183D01*
X034220Y003202D01*
X034179Y003225D01*
X034140Y003251D01*
X034104Y003280D01*
X034070Y003313D01*
X034039Y003348D01*
X034011Y003385D01*
X033987Y003425D01*
X033966Y003467D01*
X033948Y003510D01*
X033935Y003555D01*
X033925Y003601D01*
X033919Y003647D01*
X033917Y003694D01*
X028011Y003694D02*
X028013Y003741D01*
X028019Y003787D01*
X028029Y003833D01*
X028042Y003878D01*
X028060Y003921D01*
X028081Y003963D01*
X028105Y004003D01*
X028133Y004040D01*
X028164Y004075D01*
X028198Y004108D01*
X028234Y004137D01*
X028273Y004163D01*
X028314Y004186D01*
X028357Y004205D01*
X028401Y004221D01*
X028446Y004233D01*
X028492Y004241D01*
X028539Y004245D01*
X028585Y004245D01*
X028632Y004241D01*
X028678Y004233D01*
X028723Y004221D01*
X028767Y004205D01*
X028810Y004186D01*
X028851Y004163D01*
X028890Y004137D01*
X028926Y004108D01*
X028960Y004075D01*
X028991Y004040D01*
X029019Y004003D01*
X029043Y003963D01*
X029064Y003921D01*
X029082Y003878D01*
X029095Y003833D01*
X029105Y003787D01*
X029111Y003741D01*
X029113Y003694D01*
X029111Y003647D01*
X029105Y003601D01*
X029095Y003555D01*
X029082Y003510D01*
X029064Y003467D01*
X029043Y003425D01*
X029019Y003385D01*
X028991Y003348D01*
X028960Y003313D01*
X028926Y003280D01*
X028890Y003251D01*
X028851Y003225D01*
X028810Y003202D01*
X028767Y003183D01*
X028723Y003167D01*
X028678Y003155D01*
X028632Y003147D01*
X028585Y003143D01*
X028539Y003143D01*
X028492Y003147D01*
X028446Y003155D01*
X028401Y003167D01*
X028357Y003183D01*
X028314Y003202D01*
X028273Y003225D01*
X028234Y003251D01*
X028198Y003280D01*
X028164Y003313D01*
X028133Y003348D01*
X028105Y003385D01*
X028081Y003425D01*
X028060Y003467D01*
X028042Y003510D01*
X028029Y003555D01*
X028019Y003601D01*
X028013Y003647D01*
X028011Y003694D01*
X028099Y001135D02*
X028101Y001178D01*
X028107Y001220D01*
X028117Y001262D01*
X028130Y001302D01*
X028148Y001341D01*
X028168Y001379D01*
X028193Y001414D01*
X028220Y001447D01*
X028250Y001477D01*
X028283Y001504D01*
X028318Y001529D01*
X028356Y001549D01*
X028395Y001567D01*
X028435Y001580D01*
X028477Y001590D01*
X028519Y001596D01*
X028562Y001598D01*
X028605Y001596D01*
X028647Y001590D01*
X028689Y001580D01*
X028729Y001567D01*
X028768Y001549D01*
X028806Y001529D01*
X028841Y001504D01*
X028874Y001477D01*
X028904Y001447D01*
X028931Y001414D01*
X028956Y001379D01*
X028976Y001341D01*
X028994Y001302D01*
X029007Y001262D01*
X029017Y001220D01*
X029023Y001178D01*
X029025Y001135D01*
X029023Y001092D01*
X029017Y001050D01*
X029007Y001008D01*
X028994Y000968D01*
X028976Y000929D01*
X028956Y000891D01*
X028931Y000856D01*
X028904Y000823D01*
X028874Y000793D01*
X028841Y000766D01*
X028806Y000741D01*
X028768Y000721D01*
X028729Y000703D01*
X028689Y000690D01*
X028647Y000680D01*
X028605Y000674D01*
X028562Y000672D01*
X028519Y000674D01*
X028477Y000680D01*
X028435Y000690D01*
X028395Y000703D01*
X028356Y000721D01*
X028318Y000741D01*
X028283Y000766D01*
X028250Y000793D01*
X028220Y000823D01*
X028193Y000856D01*
X028168Y000891D01*
X028148Y000929D01*
X028130Y000968D01*
X028117Y001008D01*
X028107Y001050D01*
X028101Y001092D01*
X028099Y001135D01*
X034005Y001135D02*
X034007Y001178D01*
X034013Y001220D01*
X034023Y001262D01*
X034036Y001302D01*
X034054Y001341D01*
X034074Y001379D01*
X034099Y001414D01*
X034126Y001447D01*
X034156Y001477D01*
X034189Y001504D01*
X034224Y001529D01*
X034262Y001549D01*
X034301Y001567D01*
X034341Y001580D01*
X034383Y001590D01*
X034425Y001596D01*
X034468Y001598D01*
X034511Y001596D01*
X034553Y001590D01*
X034595Y001580D01*
X034635Y001567D01*
X034674Y001549D01*
X034712Y001529D01*
X034747Y001504D01*
X034780Y001477D01*
X034810Y001447D01*
X034837Y001414D01*
X034862Y001379D01*
X034882Y001341D01*
X034900Y001302D01*
X034913Y001262D01*
X034923Y001220D01*
X034929Y001178D01*
X034931Y001135D01*
X034929Y001092D01*
X034923Y001050D01*
X034913Y001008D01*
X034900Y000968D01*
X034882Y000929D01*
X034862Y000891D01*
X034837Y000856D01*
X034810Y000823D01*
X034780Y000793D01*
X034747Y000766D01*
X034712Y000741D01*
X034674Y000721D01*
X034635Y000703D01*
X034595Y000690D01*
X034553Y000680D01*
X034511Y000674D01*
X034468Y000672D01*
X034425Y000674D01*
X034383Y000680D01*
X034341Y000690D01*
X034301Y000703D01*
X034262Y000721D01*
X034224Y000741D01*
X034189Y000766D01*
X034156Y000793D01*
X034126Y000823D01*
X034099Y000856D01*
X034074Y000891D01*
X034054Y000929D01*
X034036Y000968D01*
X034023Y001008D01*
X034013Y001050D01*
X034007Y001092D01*
X034005Y001135D01*
X036761Y001135D02*
X036763Y001178D01*
X036769Y001220D01*
X036779Y001262D01*
X036792Y001302D01*
X036810Y001341D01*
X036830Y001379D01*
X036855Y001414D01*
X036882Y001447D01*
X036912Y001477D01*
X036945Y001504D01*
X036980Y001529D01*
X037018Y001549D01*
X037057Y001567D01*
X037097Y001580D01*
X037139Y001590D01*
X037181Y001596D01*
X037224Y001598D01*
X037267Y001596D01*
X037309Y001590D01*
X037351Y001580D01*
X037391Y001567D01*
X037430Y001549D01*
X037468Y001529D01*
X037503Y001504D01*
X037536Y001477D01*
X037566Y001447D01*
X037593Y001414D01*
X037618Y001379D01*
X037638Y001341D01*
X037656Y001302D01*
X037669Y001262D01*
X037679Y001220D01*
X037685Y001178D01*
X037687Y001135D01*
X037685Y001092D01*
X037679Y001050D01*
X037669Y001008D01*
X037656Y000968D01*
X037638Y000929D01*
X037618Y000891D01*
X037593Y000856D01*
X037566Y000823D01*
X037536Y000793D01*
X037503Y000766D01*
X037468Y000741D01*
X037430Y000721D01*
X037391Y000703D01*
X037351Y000690D01*
X037309Y000680D01*
X037267Y000674D01*
X037224Y000672D01*
X037181Y000674D01*
X037139Y000680D01*
X037097Y000690D01*
X037057Y000703D01*
X037018Y000721D01*
X036980Y000741D01*
X036945Y000766D01*
X036912Y000793D01*
X036882Y000823D01*
X036855Y000856D01*
X036830Y000891D01*
X036810Y000929D01*
X036792Y000968D01*
X036779Y001008D01*
X036769Y001050D01*
X036763Y001092D01*
X036761Y001135D01*
X042666Y001135D02*
X042668Y001178D01*
X042674Y001220D01*
X042684Y001262D01*
X042697Y001302D01*
X042715Y001341D01*
X042735Y001379D01*
X042760Y001414D01*
X042787Y001447D01*
X042817Y001477D01*
X042850Y001504D01*
X042885Y001529D01*
X042923Y001549D01*
X042962Y001567D01*
X043002Y001580D01*
X043044Y001590D01*
X043086Y001596D01*
X043129Y001598D01*
X043172Y001596D01*
X043214Y001590D01*
X043256Y001580D01*
X043296Y001567D01*
X043335Y001549D01*
X043373Y001529D01*
X043408Y001504D01*
X043441Y001477D01*
X043471Y001447D01*
X043498Y001414D01*
X043523Y001379D01*
X043543Y001341D01*
X043561Y001302D01*
X043574Y001262D01*
X043584Y001220D01*
X043590Y001178D01*
X043592Y001135D01*
X043590Y001092D01*
X043584Y001050D01*
X043574Y001008D01*
X043561Y000968D01*
X043543Y000929D01*
X043523Y000891D01*
X043498Y000856D01*
X043471Y000823D01*
X043441Y000793D01*
X043408Y000766D01*
X043373Y000741D01*
X043335Y000721D01*
X043296Y000703D01*
X043256Y000690D01*
X043214Y000680D01*
X043172Y000674D01*
X043129Y000672D01*
X043086Y000674D01*
X043044Y000680D01*
X043002Y000690D01*
X042962Y000703D01*
X042923Y000721D01*
X042885Y000741D01*
X042850Y000766D01*
X042817Y000793D01*
X042787Y000823D01*
X042760Y000856D01*
X042735Y000891D01*
X042715Y000929D01*
X042697Y000968D01*
X042684Y001008D01*
X042674Y001050D01*
X042668Y001092D01*
X042666Y001135D01*
X045422Y001135D02*
X045424Y001178D01*
X045430Y001220D01*
X045440Y001262D01*
X045453Y001302D01*
X045471Y001341D01*
X045491Y001379D01*
X045516Y001414D01*
X045543Y001447D01*
X045573Y001477D01*
X045606Y001504D01*
X045641Y001529D01*
X045679Y001549D01*
X045718Y001567D01*
X045758Y001580D01*
X045800Y001590D01*
X045842Y001596D01*
X045885Y001598D01*
X045928Y001596D01*
X045970Y001590D01*
X046012Y001580D01*
X046052Y001567D01*
X046091Y001549D01*
X046129Y001529D01*
X046164Y001504D01*
X046197Y001477D01*
X046227Y001447D01*
X046254Y001414D01*
X046279Y001379D01*
X046299Y001341D01*
X046317Y001302D01*
X046330Y001262D01*
X046340Y001220D01*
X046346Y001178D01*
X046348Y001135D01*
X046346Y001092D01*
X046340Y001050D01*
X046330Y001008D01*
X046317Y000968D01*
X046299Y000929D01*
X046279Y000891D01*
X046254Y000856D01*
X046227Y000823D01*
X046197Y000793D01*
X046164Y000766D01*
X046129Y000741D01*
X046091Y000721D01*
X046052Y000703D01*
X046012Y000690D01*
X045970Y000680D01*
X045928Y000674D01*
X045885Y000672D01*
X045842Y000674D01*
X045800Y000680D01*
X045758Y000690D01*
X045718Y000703D01*
X045679Y000721D01*
X045641Y000741D01*
X045606Y000766D01*
X045573Y000793D01*
X045543Y000823D01*
X045516Y000856D01*
X045491Y000891D01*
X045471Y000929D01*
X045453Y000968D01*
X045440Y001008D01*
X045430Y001050D01*
X045424Y001092D01*
X045422Y001135D01*
X051328Y001135D02*
X051330Y001178D01*
X051336Y001220D01*
X051346Y001262D01*
X051359Y001302D01*
X051377Y001341D01*
X051397Y001379D01*
X051422Y001414D01*
X051449Y001447D01*
X051479Y001477D01*
X051512Y001504D01*
X051547Y001529D01*
X051585Y001549D01*
X051624Y001567D01*
X051664Y001580D01*
X051706Y001590D01*
X051748Y001596D01*
X051791Y001598D01*
X051834Y001596D01*
X051876Y001590D01*
X051918Y001580D01*
X051958Y001567D01*
X051997Y001549D01*
X052035Y001529D01*
X052070Y001504D01*
X052103Y001477D01*
X052133Y001447D01*
X052160Y001414D01*
X052185Y001379D01*
X052205Y001341D01*
X052223Y001302D01*
X052236Y001262D01*
X052246Y001220D01*
X052252Y001178D01*
X052254Y001135D01*
X052252Y001092D01*
X052246Y001050D01*
X052236Y001008D01*
X052223Y000968D01*
X052205Y000929D01*
X052185Y000891D01*
X052160Y000856D01*
X052133Y000823D01*
X052103Y000793D01*
X052070Y000766D01*
X052035Y000741D01*
X051997Y000721D01*
X051958Y000703D01*
X051918Y000690D01*
X051876Y000680D01*
X051834Y000674D01*
X051791Y000672D01*
X051748Y000674D01*
X051706Y000680D01*
X051664Y000690D01*
X051624Y000703D01*
X051585Y000721D01*
X051547Y000741D01*
X051512Y000766D01*
X051479Y000793D01*
X051449Y000823D01*
X051422Y000856D01*
X051397Y000891D01*
X051377Y000929D01*
X051359Y000968D01*
X051346Y001008D01*
X051336Y001050D01*
X051330Y001092D01*
X051328Y001135D01*
X054083Y001135D02*
X054085Y001178D01*
X054091Y001220D01*
X054101Y001262D01*
X054114Y001302D01*
X054132Y001341D01*
X054152Y001379D01*
X054177Y001414D01*
X054204Y001447D01*
X054234Y001477D01*
X054267Y001504D01*
X054302Y001529D01*
X054340Y001549D01*
X054379Y001567D01*
X054419Y001580D01*
X054461Y001590D01*
X054503Y001596D01*
X054546Y001598D01*
X054589Y001596D01*
X054631Y001590D01*
X054673Y001580D01*
X054713Y001567D01*
X054752Y001549D01*
X054790Y001529D01*
X054825Y001504D01*
X054858Y001477D01*
X054888Y001447D01*
X054915Y001414D01*
X054940Y001379D01*
X054960Y001341D01*
X054978Y001302D01*
X054991Y001262D01*
X055001Y001220D01*
X055007Y001178D01*
X055009Y001135D01*
X055007Y001092D01*
X055001Y001050D01*
X054991Y001008D01*
X054978Y000968D01*
X054960Y000929D01*
X054940Y000891D01*
X054915Y000856D01*
X054888Y000823D01*
X054858Y000793D01*
X054825Y000766D01*
X054790Y000741D01*
X054752Y000721D01*
X054713Y000703D01*
X054673Y000690D01*
X054631Y000680D01*
X054589Y000674D01*
X054546Y000672D01*
X054503Y000674D01*
X054461Y000680D01*
X054419Y000690D01*
X054379Y000703D01*
X054340Y000721D01*
X054302Y000741D01*
X054267Y000766D01*
X054234Y000793D01*
X054204Y000823D01*
X054177Y000856D01*
X054152Y000891D01*
X054132Y000929D01*
X054114Y000968D01*
X054101Y001008D01*
X054091Y001050D01*
X054085Y001092D01*
X054083Y001135D01*
X059989Y001135D02*
X059991Y001178D01*
X059997Y001220D01*
X060007Y001262D01*
X060020Y001302D01*
X060038Y001341D01*
X060058Y001379D01*
X060083Y001414D01*
X060110Y001447D01*
X060140Y001477D01*
X060173Y001504D01*
X060208Y001529D01*
X060246Y001549D01*
X060285Y001567D01*
X060325Y001580D01*
X060367Y001590D01*
X060409Y001596D01*
X060452Y001598D01*
X060495Y001596D01*
X060537Y001590D01*
X060579Y001580D01*
X060619Y001567D01*
X060658Y001549D01*
X060696Y001529D01*
X060731Y001504D01*
X060764Y001477D01*
X060794Y001447D01*
X060821Y001414D01*
X060846Y001379D01*
X060866Y001341D01*
X060884Y001302D01*
X060897Y001262D01*
X060907Y001220D01*
X060913Y001178D01*
X060915Y001135D01*
X060913Y001092D01*
X060907Y001050D01*
X060897Y001008D01*
X060884Y000968D01*
X060866Y000929D01*
X060846Y000891D01*
X060821Y000856D01*
X060794Y000823D01*
X060764Y000793D01*
X060731Y000766D01*
X060696Y000741D01*
X060658Y000721D01*
X060619Y000703D01*
X060579Y000690D01*
X060537Y000680D01*
X060495Y000674D01*
X060452Y000672D01*
X060409Y000674D01*
X060367Y000680D01*
X060325Y000690D01*
X060285Y000703D01*
X060246Y000721D01*
X060208Y000741D01*
X060173Y000766D01*
X060140Y000793D01*
X060110Y000823D01*
X060083Y000856D01*
X060058Y000891D01*
X060038Y000929D01*
X060020Y000968D01*
X060007Y001008D01*
X059997Y001050D01*
X059991Y001092D01*
X059989Y001135D01*
X062745Y001135D02*
X062747Y001178D01*
X062753Y001220D01*
X062763Y001262D01*
X062776Y001302D01*
X062794Y001341D01*
X062814Y001379D01*
X062839Y001414D01*
X062866Y001447D01*
X062896Y001477D01*
X062929Y001504D01*
X062964Y001529D01*
X063002Y001549D01*
X063041Y001567D01*
X063081Y001580D01*
X063123Y001590D01*
X063165Y001596D01*
X063208Y001598D01*
X063251Y001596D01*
X063293Y001590D01*
X063335Y001580D01*
X063375Y001567D01*
X063414Y001549D01*
X063452Y001529D01*
X063487Y001504D01*
X063520Y001477D01*
X063550Y001447D01*
X063577Y001414D01*
X063602Y001379D01*
X063622Y001341D01*
X063640Y001302D01*
X063653Y001262D01*
X063663Y001220D01*
X063669Y001178D01*
X063671Y001135D01*
X063669Y001092D01*
X063663Y001050D01*
X063653Y001008D01*
X063640Y000968D01*
X063622Y000929D01*
X063602Y000891D01*
X063577Y000856D01*
X063550Y000823D01*
X063520Y000793D01*
X063487Y000766D01*
X063452Y000741D01*
X063414Y000721D01*
X063375Y000703D01*
X063335Y000690D01*
X063293Y000680D01*
X063251Y000674D01*
X063208Y000672D01*
X063165Y000674D01*
X063123Y000680D01*
X063081Y000690D01*
X063041Y000703D01*
X063002Y000721D01*
X062964Y000741D01*
X062929Y000766D01*
X062896Y000793D01*
X062866Y000823D01*
X062839Y000856D01*
X062814Y000891D01*
X062794Y000929D01*
X062776Y000968D01*
X062763Y001008D01*
X062753Y001050D01*
X062747Y001092D01*
X062745Y001135D01*
X068650Y001135D02*
X068652Y001178D01*
X068658Y001220D01*
X068668Y001262D01*
X068681Y001302D01*
X068699Y001341D01*
X068719Y001379D01*
X068744Y001414D01*
X068771Y001447D01*
X068801Y001477D01*
X068834Y001504D01*
X068869Y001529D01*
X068907Y001549D01*
X068946Y001567D01*
X068986Y001580D01*
X069028Y001590D01*
X069070Y001596D01*
X069113Y001598D01*
X069156Y001596D01*
X069198Y001590D01*
X069240Y001580D01*
X069280Y001567D01*
X069319Y001549D01*
X069357Y001529D01*
X069392Y001504D01*
X069425Y001477D01*
X069455Y001447D01*
X069482Y001414D01*
X069507Y001379D01*
X069527Y001341D01*
X069545Y001302D01*
X069558Y001262D01*
X069568Y001220D01*
X069574Y001178D01*
X069576Y001135D01*
X069574Y001092D01*
X069568Y001050D01*
X069558Y001008D01*
X069545Y000968D01*
X069527Y000929D01*
X069507Y000891D01*
X069482Y000856D01*
X069455Y000823D01*
X069425Y000793D01*
X069392Y000766D01*
X069357Y000741D01*
X069319Y000721D01*
X069280Y000703D01*
X069240Y000690D01*
X069198Y000680D01*
X069156Y000674D01*
X069113Y000672D01*
X069070Y000674D01*
X069028Y000680D01*
X068986Y000690D01*
X068946Y000703D01*
X068907Y000721D01*
X068869Y000741D01*
X068834Y000766D01*
X068801Y000793D01*
X068771Y000823D01*
X068744Y000856D01*
X068719Y000891D01*
X068699Y000929D01*
X068681Y000968D01*
X068668Y001008D01*
X068658Y001050D01*
X068652Y001092D01*
X068650Y001135D01*
X069565Y002907D02*
X069567Y002950D01*
X069573Y002993D01*
X069583Y003035D01*
X069596Y003076D01*
X069613Y003115D01*
X069634Y003153D01*
X069658Y003189D01*
X069685Y003223D01*
X069715Y003253D01*
X069748Y003281D01*
X069784Y003306D01*
X069821Y003328D01*
X069860Y003346D01*
X069901Y003360D01*
X069943Y003371D01*
X069985Y003378D01*
X070028Y003381D01*
X070071Y003380D01*
X070114Y003375D01*
X070156Y003366D01*
X070198Y003354D01*
X070238Y003337D01*
X070276Y003317D01*
X070312Y003294D01*
X070346Y003268D01*
X070378Y003238D01*
X070407Y003206D01*
X070432Y003171D01*
X070455Y003135D01*
X070474Y003096D01*
X070489Y003056D01*
X070501Y003014D01*
X070509Y002972D01*
X070513Y002929D01*
X070513Y002885D01*
X070509Y002842D01*
X070501Y002800D01*
X070489Y002758D01*
X070474Y002718D01*
X070455Y002679D01*
X070432Y002643D01*
X070407Y002608D01*
X070378Y002576D01*
X070346Y002546D01*
X070312Y002520D01*
X070276Y002497D01*
X070238Y002477D01*
X070198Y002460D01*
X070156Y002448D01*
X070114Y002439D01*
X070071Y002434D01*
X070028Y002433D01*
X069985Y002436D01*
X069943Y002443D01*
X069901Y002454D01*
X069860Y002468D01*
X069821Y002486D01*
X069784Y002508D01*
X069748Y002533D01*
X069715Y002561D01*
X069685Y002591D01*
X069658Y002625D01*
X069634Y002661D01*
X069613Y002699D01*
X069596Y002738D01*
X069583Y002779D01*
X069573Y002821D01*
X069567Y002864D01*
X069565Y002907D01*
X068562Y003694D02*
X068564Y003741D01*
X068570Y003787D01*
X068580Y003833D01*
X068593Y003878D01*
X068611Y003921D01*
X068632Y003963D01*
X068656Y004003D01*
X068684Y004040D01*
X068715Y004075D01*
X068749Y004108D01*
X068785Y004137D01*
X068824Y004163D01*
X068865Y004186D01*
X068908Y004205D01*
X068952Y004221D01*
X068997Y004233D01*
X069043Y004241D01*
X069090Y004245D01*
X069136Y004245D01*
X069183Y004241D01*
X069229Y004233D01*
X069274Y004221D01*
X069318Y004205D01*
X069361Y004186D01*
X069402Y004163D01*
X069441Y004137D01*
X069477Y004108D01*
X069511Y004075D01*
X069542Y004040D01*
X069570Y004003D01*
X069594Y003963D01*
X069615Y003921D01*
X069633Y003878D01*
X069646Y003833D01*
X069656Y003787D01*
X069662Y003741D01*
X069664Y003694D01*
X069662Y003647D01*
X069656Y003601D01*
X069646Y003555D01*
X069633Y003510D01*
X069615Y003467D01*
X069594Y003425D01*
X069570Y003385D01*
X069542Y003348D01*
X069511Y003313D01*
X069477Y003280D01*
X069441Y003251D01*
X069402Y003225D01*
X069361Y003202D01*
X069318Y003183D01*
X069274Y003167D01*
X069229Y003155D01*
X069183Y003147D01*
X069136Y003143D01*
X069090Y003143D01*
X069043Y003147D01*
X068997Y003155D01*
X068952Y003167D01*
X068908Y003183D01*
X068865Y003202D01*
X068824Y003225D01*
X068785Y003251D01*
X068749Y003280D01*
X068715Y003313D01*
X068684Y003348D01*
X068656Y003385D01*
X068632Y003425D01*
X068611Y003467D01*
X068593Y003510D01*
X068580Y003555D01*
X068570Y003601D01*
X068564Y003647D01*
X068562Y003694D01*
X073620Y002907D02*
X073622Y002950D01*
X073628Y002993D01*
X073638Y003035D01*
X073651Y003076D01*
X073668Y003115D01*
X073689Y003153D01*
X073713Y003189D01*
X073740Y003223D01*
X073770Y003253D01*
X073803Y003281D01*
X073839Y003306D01*
X073876Y003328D01*
X073915Y003346D01*
X073956Y003360D01*
X073998Y003371D01*
X074040Y003378D01*
X074083Y003381D01*
X074126Y003380D01*
X074169Y003375D01*
X074211Y003366D01*
X074253Y003354D01*
X074293Y003337D01*
X074331Y003317D01*
X074367Y003294D01*
X074401Y003268D01*
X074433Y003238D01*
X074462Y003206D01*
X074487Y003171D01*
X074510Y003135D01*
X074529Y003096D01*
X074544Y003056D01*
X074556Y003014D01*
X074564Y002972D01*
X074568Y002929D01*
X074568Y002885D01*
X074564Y002842D01*
X074556Y002800D01*
X074544Y002758D01*
X074529Y002718D01*
X074510Y002679D01*
X074487Y002643D01*
X074462Y002608D01*
X074433Y002576D01*
X074401Y002546D01*
X074367Y002520D01*
X074331Y002497D01*
X074293Y002477D01*
X074253Y002460D01*
X074211Y002448D01*
X074169Y002439D01*
X074126Y002434D01*
X074083Y002433D01*
X074040Y002436D01*
X073998Y002443D01*
X073956Y002454D01*
X073915Y002468D01*
X073876Y002486D01*
X073839Y002508D01*
X073803Y002533D01*
X073770Y002561D01*
X073740Y002591D01*
X073713Y002625D01*
X073689Y002661D01*
X073668Y002699D01*
X073651Y002738D01*
X073638Y002779D01*
X073628Y002821D01*
X073622Y002864D01*
X073620Y002907D01*
X071592Y006391D02*
X071594Y006434D01*
X071600Y006477D01*
X071610Y006519D01*
X071623Y006560D01*
X071640Y006599D01*
X071661Y006637D01*
X071685Y006673D01*
X071712Y006707D01*
X071742Y006737D01*
X071775Y006765D01*
X071811Y006790D01*
X071848Y006812D01*
X071887Y006830D01*
X071928Y006844D01*
X071970Y006855D01*
X072012Y006862D01*
X072055Y006865D01*
X072098Y006864D01*
X072141Y006859D01*
X072183Y006850D01*
X072225Y006838D01*
X072265Y006821D01*
X072303Y006801D01*
X072339Y006778D01*
X072373Y006752D01*
X072405Y006722D01*
X072434Y006690D01*
X072459Y006655D01*
X072482Y006619D01*
X072501Y006580D01*
X072516Y006540D01*
X072528Y006498D01*
X072536Y006456D01*
X072540Y006413D01*
X072540Y006369D01*
X072536Y006326D01*
X072528Y006284D01*
X072516Y006242D01*
X072501Y006202D01*
X072482Y006163D01*
X072459Y006127D01*
X072434Y006092D01*
X072405Y006060D01*
X072373Y006030D01*
X072339Y006004D01*
X072303Y005981D01*
X072265Y005961D01*
X072225Y005944D01*
X072183Y005932D01*
X072141Y005923D01*
X072098Y005918D01*
X072055Y005917D01*
X072012Y005920D01*
X071970Y005927D01*
X071928Y005938D01*
X071887Y005952D01*
X071848Y005970D01*
X071811Y005992D01*
X071775Y006017D01*
X071742Y006045D01*
X071712Y006075D01*
X071685Y006109D01*
X071661Y006145D01*
X071640Y006183D01*
X071623Y006222D01*
X071610Y006263D01*
X071600Y006305D01*
X071594Y006348D01*
X071592Y006391D01*
X068108Y008419D02*
X068110Y008462D01*
X068116Y008505D01*
X068126Y008547D01*
X068139Y008588D01*
X068156Y008627D01*
X068177Y008665D01*
X068201Y008701D01*
X068228Y008735D01*
X068258Y008765D01*
X068291Y008793D01*
X068327Y008818D01*
X068364Y008840D01*
X068403Y008858D01*
X068444Y008872D01*
X068486Y008883D01*
X068528Y008890D01*
X068571Y008893D01*
X068614Y008892D01*
X068657Y008887D01*
X068699Y008878D01*
X068741Y008866D01*
X068781Y008849D01*
X068819Y008829D01*
X068855Y008806D01*
X068889Y008780D01*
X068921Y008750D01*
X068950Y008718D01*
X068975Y008683D01*
X068998Y008647D01*
X069017Y008608D01*
X069032Y008568D01*
X069044Y008526D01*
X069052Y008484D01*
X069056Y008441D01*
X069056Y008397D01*
X069052Y008354D01*
X069044Y008312D01*
X069032Y008270D01*
X069017Y008230D01*
X068998Y008191D01*
X068975Y008155D01*
X068950Y008120D01*
X068921Y008088D01*
X068889Y008058D01*
X068855Y008032D01*
X068819Y008009D01*
X068781Y007989D01*
X068741Y007972D01*
X068699Y007960D01*
X068657Y007951D01*
X068614Y007946D01*
X068571Y007945D01*
X068528Y007948D01*
X068486Y007955D01*
X068444Y007966D01*
X068403Y007980D01*
X068364Y007998D01*
X068327Y008020D01*
X068291Y008045D01*
X068258Y008073D01*
X068228Y008103D01*
X068201Y008137D01*
X068177Y008173D01*
X068156Y008211D01*
X068139Y008250D01*
X068126Y008291D01*
X068116Y008333D01*
X068110Y008376D01*
X068108Y008419D01*
X064053Y008419D02*
X064055Y008462D01*
X064061Y008505D01*
X064071Y008547D01*
X064084Y008588D01*
X064101Y008627D01*
X064122Y008665D01*
X064146Y008701D01*
X064173Y008735D01*
X064203Y008765D01*
X064236Y008793D01*
X064272Y008818D01*
X064309Y008840D01*
X064348Y008858D01*
X064389Y008872D01*
X064431Y008883D01*
X064473Y008890D01*
X064516Y008893D01*
X064559Y008892D01*
X064602Y008887D01*
X064644Y008878D01*
X064686Y008866D01*
X064726Y008849D01*
X064764Y008829D01*
X064800Y008806D01*
X064834Y008780D01*
X064866Y008750D01*
X064895Y008718D01*
X064920Y008683D01*
X064943Y008647D01*
X064962Y008608D01*
X064977Y008568D01*
X064989Y008526D01*
X064997Y008484D01*
X065001Y008441D01*
X065001Y008397D01*
X064997Y008354D01*
X064989Y008312D01*
X064977Y008270D01*
X064962Y008230D01*
X064943Y008191D01*
X064920Y008155D01*
X064895Y008120D01*
X064866Y008088D01*
X064834Y008058D01*
X064800Y008032D01*
X064764Y008009D01*
X064726Y007989D01*
X064686Y007972D01*
X064644Y007960D01*
X064602Y007951D01*
X064559Y007946D01*
X064516Y007945D01*
X064473Y007948D01*
X064431Y007955D01*
X064389Y007966D01*
X064348Y007980D01*
X064309Y007998D01*
X064272Y008020D01*
X064236Y008045D01*
X064203Y008073D01*
X064173Y008103D01*
X064146Y008137D01*
X064122Y008173D01*
X064101Y008211D01*
X064084Y008250D01*
X064071Y008291D01*
X064061Y008333D01*
X064055Y008376D01*
X064053Y008419D01*
X062596Y008419D02*
X062598Y008462D01*
X062604Y008505D01*
X062614Y008547D01*
X062627Y008588D01*
X062644Y008627D01*
X062665Y008665D01*
X062689Y008701D01*
X062716Y008735D01*
X062746Y008765D01*
X062779Y008793D01*
X062815Y008818D01*
X062852Y008840D01*
X062891Y008858D01*
X062932Y008872D01*
X062974Y008883D01*
X063016Y008890D01*
X063059Y008893D01*
X063102Y008892D01*
X063145Y008887D01*
X063187Y008878D01*
X063229Y008866D01*
X063269Y008849D01*
X063307Y008829D01*
X063343Y008806D01*
X063377Y008780D01*
X063409Y008750D01*
X063438Y008718D01*
X063463Y008683D01*
X063486Y008647D01*
X063505Y008608D01*
X063520Y008568D01*
X063532Y008526D01*
X063540Y008484D01*
X063544Y008441D01*
X063544Y008397D01*
X063540Y008354D01*
X063532Y008312D01*
X063520Y008270D01*
X063505Y008230D01*
X063486Y008191D01*
X063463Y008155D01*
X063438Y008120D01*
X063409Y008088D01*
X063377Y008058D01*
X063343Y008032D01*
X063307Y008009D01*
X063269Y007989D01*
X063229Y007972D01*
X063187Y007960D01*
X063145Y007951D01*
X063102Y007946D01*
X063059Y007945D01*
X063016Y007948D01*
X062974Y007955D01*
X062932Y007966D01*
X062891Y007980D01*
X062852Y007998D01*
X062815Y008020D01*
X062779Y008045D01*
X062746Y008073D01*
X062716Y008103D01*
X062689Y008137D01*
X062665Y008173D01*
X062644Y008211D01*
X062627Y008250D01*
X062614Y008291D01*
X062604Y008333D01*
X062598Y008376D01*
X062596Y008419D01*
X058541Y008419D02*
X058543Y008462D01*
X058549Y008505D01*
X058559Y008547D01*
X058572Y008588D01*
X058589Y008627D01*
X058610Y008665D01*
X058634Y008701D01*
X058661Y008735D01*
X058691Y008765D01*
X058724Y008793D01*
X058760Y008818D01*
X058797Y008840D01*
X058836Y008858D01*
X058877Y008872D01*
X058919Y008883D01*
X058961Y008890D01*
X059004Y008893D01*
X059047Y008892D01*
X059090Y008887D01*
X059132Y008878D01*
X059174Y008866D01*
X059214Y008849D01*
X059252Y008829D01*
X059288Y008806D01*
X059322Y008780D01*
X059354Y008750D01*
X059383Y008718D01*
X059408Y008683D01*
X059431Y008647D01*
X059450Y008608D01*
X059465Y008568D01*
X059477Y008526D01*
X059485Y008484D01*
X059489Y008441D01*
X059489Y008397D01*
X059485Y008354D01*
X059477Y008312D01*
X059465Y008270D01*
X059450Y008230D01*
X059431Y008191D01*
X059408Y008155D01*
X059383Y008120D01*
X059354Y008088D01*
X059322Y008058D01*
X059288Y008032D01*
X059252Y008009D01*
X059214Y007989D01*
X059174Y007972D01*
X059132Y007960D01*
X059090Y007951D01*
X059047Y007946D01*
X059004Y007945D01*
X058961Y007948D01*
X058919Y007955D01*
X058877Y007966D01*
X058836Y007980D01*
X058797Y007998D01*
X058760Y008020D01*
X058724Y008045D01*
X058691Y008073D01*
X058661Y008103D01*
X058634Y008137D01*
X058610Y008173D01*
X058589Y008211D01*
X058572Y008250D01*
X058559Y008291D01*
X058549Y008333D01*
X058543Y008376D01*
X058541Y008419D01*
X057084Y008419D02*
X057086Y008462D01*
X057092Y008505D01*
X057102Y008547D01*
X057115Y008588D01*
X057132Y008627D01*
X057153Y008665D01*
X057177Y008701D01*
X057204Y008735D01*
X057234Y008765D01*
X057267Y008793D01*
X057303Y008818D01*
X057340Y008840D01*
X057379Y008858D01*
X057420Y008872D01*
X057462Y008883D01*
X057504Y008890D01*
X057547Y008893D01*
X057590Y008892D01*
X057633Y008887D01*
X057675Y008878D01*
X057717Y008866D01*
X057757Y008849D01*
X057795Y008829D01*
X057831Y008806D01*
X057865Y008780D01*
X057897Y008750D01*
X057926Y008718D01*
X057951Y008683D01*
X057974Y008647D01*
X057993Y008608D01*
X058008Y008568D01*
X058020Y008526D01*
X058028Y008484D01*
X058032Y008441D01*
X058032Y008397D01*
X058028Y008354D01*
X058020Y008312D01*
X058008Y008270D01*
X057993Y008230D01*
X057974Y008191D01*
X057951Y008155D01*
X057926Y008120D01*
X057897Y008088D01*
X057865Y008058D01*
X057831Y008032D01*
X057795Y008009D01*
X057757Y007989D01*
X057717Y007972D01*
X057675Y007960D01*
X057633Y007951D01*
X057590Y007946D01*
X057547Y007945D01*
X057504Y007948D01*
X057462Y007955D01*
X057420Y007966D01*
X057379Y007980D01*
X057340Y007998D01*
X057303Y008020D01*
X057267Y008045D01*
X057234Y008073D01*
X057204Y008103D01*
X057177Y008137D01*
X057153Y008173D01*
X057132Y008211D01*
X057115Y008250D01*
X057102Y008291D01*
X057092Y008333D01*
X057086Y008376D01*
X057084Y008419D01*
X053029Y008419D02*
X053031Y008462D01*
X053037Y008505D01*
X053047Y008547D01*
X053060Y008588D01*
X053077Y008627D01*
X053098Y008665D01*
X053122Y008701D01*
X053149Y008735D01*
X053179Y008765D01*
X053212Y008793D01*
X053248Y008818D01*
X053285Y008840D01*
X053324Y008858D01*
X053365Y008872D01*
X053407Y008883D01*
X053449Y008890D01*
X053492Y008893D01*
X053535Y008892D01*
X053578Y008887D01*
X053620Y008878D01*
X053662Y008866D01*
X053702Y008849D01*
X053740Y008829D01*
X053776Y008806D01*
X053810Y008780D01*
X053842Y008750D01*
X053871Y008718D01*
X053896Y008683D01*
X053919Y008647D01*
X053938Y008608D01*
X053953Y008568D01*
X053965Y008526D01*
X053973Y008484D01*
X053977Y008441D01*
X053977Y008397D01*
X053973Y008354D01*
X053965Y008312D01*
X053953Y008270D01*
X053938Y008230D01*
X053919Y008191D01*
X053896Y008155D01*
X053871Y008120D01*
X053842Y008088D01*
X053810Y008058D01*
X053776Y008032D01*
X053740Y008009D01*
X053702Y007989D01*
X053662Y007972D01*
X053620Y007960D01*
X053578Y007951D01*
X053535Y007946D01*
X053492Y007945D01*
X053449Y007948D01*
X053407Y007955D01*
X053365Y007966D01*
X053324Y007980D01*
X053285Y007998D01*
X053248Y008020D01*
X053212Y008045D01*
X053179Y008073D01*
X053149Y008103D01*
X053122Y008137D01*
X053098Y008173D01*
X053077Y008211D01*
X053060Y008250D01*
X053047Y008291D01*
X053037Y008333D01*
X053031Y008376D01*
X053029Y008419D01*
X051572Y008419D02*
X051574Y008462D01*
X051580Y008505D01*
X051590Y008547D01*
X051603Y008588D01*
X051620Y008627D01*
X051641Y008665D01*
X051665Y008701D01*
X051692Y008735D01*
X051722Y008765D01*
X051755Y008793D01*
X051791Y008818D01*
X051828Y008840D01*
X051867Y008858D01*
X051908Y008872D01*
X051950Y008883D01*
X051992Y008890D01*
X052035Y008893D01*
X052078Y008892D01*
X052121Y008887D01*
X052163Y008878D01*
X052205Y008866D01*
X052245Y008849D01*
X052283Y008829D01*
X052319Y008806D01*
X052353Y008780D01*
X052385Y008750D01*
X052414Y008718D01*
X052439Y008683D01*
X052462Y008647D01*
X052481Y008608D01*
X052496Y008568D01*
X052508Y008526D01*
X052516Y008484D01*
X052520Y008441D01*
X052520Y008397D01*
X052516Y008354D01*
X052508Y008312D01*
X052496Y008270D01*
X052481Y008230D01*
X052462Y008191D01*
X052439Y008155D01*
X052414Y008120D01*
X052385Y008088D01*
X052353Y008058D01*
X052319Y008032D01*
X052283Y008009D01*
X052245Y007989D01*
X052205Y007972D01*
X052163Y007960D01*
X052121Y007951D01*
X052078Y007946D01*
X052035Y007945D01*
X051992Y007948D01*
X051950Y007955D01*
X051908Y007966D01*
X051867Y007980D01*
X051828Y007998D01*
X051791Y008020D01*
X051755Y008045D01*
X051722Y008073D01*
X051692Y008103D01*
X051665Y008137D01*
X051641Y008173D01*
X051620Y008211D01*
X051603Y008250D01*
X051590Y008291D01*
X051580Y008333D01*
X051574Y008376D01*
X051572Y008419D01*
X047517Y008419D02*
X047519Y008462D01*
X047525Y008505D01*
X047535Y008547D01*
X047548Y008588D01*
X047565Y008627D01*
X047586Y008665D01*
X047610Y008701D01*
X047637Y008735D01*
X047667Y008765D01*
X047700Y008793D01*
X047736Y008818D01*
X047773Y008840D01*
X047812Y008858D01*
X047853Y008872D01*
X047895Y008883D01*
X047937Y008890D01*
X047980Y008893D01*
X048023Y008892D01*
X048066Y008887D01*
X048108Y008878D01*
X048150Y008866D01*
X048190Y008849D01*
X048228Y008829D01*
X048264Y008806D01*
X048298Y008780D01*
X048330Y008750D01*
X048359Y008718D01*
X048384Y008683D01*
X048407Y008647D01*
X048426Y008608D01*
X048441Y008568D01*
X048453Y008526D01*
X048461Y008484D01*
X048465Y008441D01*
X048465Y008397D01*
X048461Y008354D01*
X048453Y008312D01*
X048441Y008270D01*
X048426Y008230D01*
X048407Y008191D01*
X048384Y008155D01*
X048359Y008120D01*
X048330Y008088D01*
X048298Y008058D01*
X048264Y008032D01*
X048228Y008009D01*
X048190Y007989D01*
X048150Y007972D01*
X048108Y007960D01*
X048066Y007951D01*
X048023Y007946D01*
X047980Y007945D01*
X047937Y007948D01*
X047895Y007955D01*
X047853Y007966D01*
X047812Y007980D01*
X047773Y007998D01*
X047736Y008020D01*
X047700Y008045D01*
X047667Y008073D01*
X047637Y008103D01*
X047610Y008137D01*
X047586Y008173D01*
X047565Y008211D01*
X047548Y008250D01*
X047535Y008291D01*
X047525Y008333D01*
X047519Y008376D01*
X047517Y008419D01*
X046061Y008419D02*
X046063Y008462D01*
X046069Y008505D01*
X046079Y008547D01*
X046092Y008588D01*
X046109Y008627D01*
X046130Y008665D01*
X046154Y008701D01*
X046181Y008735D01*
X046211Y008765D01*
X046244Y008793D01*
X046280Y008818D01*
X046317Y008840D01*
X046356Y008858D01*
X046397Y008872D01*
X046439Y008883D01*
X046481Y008890D01*
X046524Y008893D01*
X046567Y008892D01*
X046610Y008887D01*
X046652Y008878D01*
X046694Y008866D01*
X046734Y008849D01*
X046772Y008829D01*
X046808Y008806D01*
X046842Y008780D01*
X046874Y008750D01*
X046903Y008718D01*
X046928Y008683D01*
X046951Y008647D01*
X046970Y008608D01*
X046985Y008568D01*
X046997Y008526D01*
X047005Y008484D01*
X047009Y008441D01*
X047009Y008397D01*
X047005Y008354D01*
X046997Y008312D01*
X046985Y008270D01*
X046970Y008230D01*
X046951Y008191D01*
X046928Y008155D01*
X046903Y008120D01*
X046874Y008088D01*
X046842Y008058D01*
X046808Y008032D01*
X046772Y008009D01*
X046734Y007989D01*
X046694Y007972D01*
X046652Y007960D01*
X046610Y007951D01*
X046567Y007946D01*
X046524Y007945D01*
X046481Y007948D01*
X046439Y007955D01*
X046397Y007966D01*
X046356Y007980D01*
X046317Y007998D01*
X046280Y008020D01*
X046244Y008045D01*
X046211Y008073D01*
X046181Y008103D01*
X046154Y008137D01*
X046130Y008173D01*
X046109Y008211D01*
X046092Y008250D01*
X046079Y008291D01*
X046069Y008333D01*
X046063Y008376D01*
X046061Y008419D01*
X042006Y008419D02*
X042008Y008462D01*
X042014Y008505D01*
X042024Y008547D01*
X042037Y008588D01*
X042054Y008627D01*
X042075Y008665D01*
X042099Y008701D01*
X042126Y008735D01*
X042156Y008765D01*
X042189Y008793D01*
X042225Y008818D01*
X042262Y008840D01*
X042301Y008858D01*
X042342Y008872D01*
X042384Y008883D01*
X042426Y008890D01*
X042469Y008893D01*
X042512Y008892D01*
X042555Y008887D01*
X042597Y008878D01*
X042639Y008866D01*
X042679Y008849D01*
X042717Y008829D01*
X042753Y008806D01*
X042787Y008780D01*
X042819Y008750D01*
X042848Y008718D01*
X042873Y008683D01*
X042896Y008647D01*
X042915Y008608D01*
X042930Y008568D01*
X042942Y008526D01*
X042950Y008484D01*
X042954Y008441D01*
X042954Y008397D01*
X042950Y008354D01*
X042942Y008312D01*
X042930Y008270D01*
X042915Y008230D01*
X042896Y008191D01*
X042873Y008155D01*
X042848Y008120D01*
X042819Y008088D01*
X042787Y008058D01*
X042753Y008032D01*
X042717Y008009D01*
X042679Y007989D01*
X042639Y007972D01*
X042597Y007960D01*
X042555Y007951D01*
X042512Y007946D01*
X042469Y007945D01*
X042426Y007948D01*
X042384Y007955D01*
X042342Y007966D01*
X042301Y007980D01*
X042262Y007998D01*
X042225Y008020D01*
X042189Y008045D01*
X042156Y008073D01*
X042126Y008103D01*
X042099Y008137D01*
X042075Y008173D01*
X042054Y008211D01*
X042037Y008250D01*
X042024Y008291D01*
X042014Y008333D01*
X042008Y008376D01*
X042006Y008419D01*
X040549Y008419D02*
X040551Y008462D01*
X040557Y008505D01*
X040567Y008547D01*
X040580Y008588D01*
X040597Y008627D01*
X040618Y008665D01*
X040642Y008701D01*
X040669Y008735D01*
X040699Y008765D01*
X040732Y008793D01*
X040768Y008818D01*
X040805Y008840D01*
X040844Y008858D01*
X040885Y008872D01*
X040927Y008883D01*
X040969Y008890D01*
X041012Y008893D01*
X041055Y008892D01*
X041098Y008887D01*
X041140Y008878D01*
X041182Y008866D01*
X041222Y008849D01*
X041260Y008829D01*
X041296Y008806D01*
X041330Y008780D01*
X041362Y008750D01*
X041391Y008718D01*
X041416Y008683D01*
X041439Y008647D01*
X041458Y008608D01*
X041473Y008568D01*
X041485Y008526D01*
X041493Y008484D01*
X041497Y008441D01*
X041497Y008397D01*
X041493Y008354D01*
X041485Y008312D01*
X041473Y008270D01*
X041458Y008230D01*
X041439Y008191D01*
X041416Y008155D01*
X041391Y008120D01*
X041362Y008088D01*
X041330Y008058D01*
X041296Y008032D01*
X041260Y008009D01*
X041222Y007989D01*
X041182Y007972D01*
X041140Y007960D01*
X041098Y007951D01*
X041055Y007946D01*
X041012Y007945D01*
X040969Y007948D01*
X040927Y007955D01*
X040885Y007966D01*
X040844Y007980D01*
X040805Y007998D01*
X040768Y008020D01*
X040732Y008045D01*
X040699Y008073D01*
X040669Y008103D01*
X040642Y008137D01*
X040618Y008173D01*
X040597Y008211D01*
X040580Y008250D01*
X040567Y008291D01*
X040557Y008333D01*
X040551Y008376D01*
X040549Y008419D01*
X036494Y008419D02*
X036496Y008462D01*
X036502Y008505D01*
X036512Y008547D01*
X036525Y008588D01*
X036542Y008627D01*
X036563Y008665D01*
X036587Y008701D01*
X036614Y008735D01*
X036644Y008765D01*
X036677Y008793D01*
X036713Y008818D01*
X036750Y008840D01*
X036789Y008858D01*
X036830Y008872D01*
X036872Y008883D01*
X036914Y008890D01*
X036957Y008893D01*
X037000Y008892D01*
X037043Y008887D01*
X037085Y008878D01*
X037127Y008866D01*
X037167Y008849D01*
X037205Y008829D01*
X037241Y008806D01*
X037275Y008780D01*
X037307Y008750D01*
X037336Y008718D01*
X037361Y008683D01*
X037384Y008647D01*
X037403Y008608D01*
X037418Y008568D01*
X037430Y008526D01*
X037438Y008484D01*
X037442Y008441D01*
X037442Y008397D01*
X037438Y008354D01*
X037430Y008312D01*
X037418Y008270D01*
X037403Y008230D01*
X037384Y008191D01*
X037361Y008155D01*
X037336Y008120D01*
X037307Y008088D01*
X037275Y008058D01*
X037241Y008032D01*
X037205Y008009D01*
X037167Y007989D01*
X037127Y007972D01*
X037085Y007960D01*
X037043Y007951D01*
X037000Y007946D01*
X036957Y007945D01*
X036914Y007948D01*
X036872Y007955D01*
X036830Y007966D01*
X036789Y007980D01*
X036750Y007998D01*
X036713Y008020D01*
X036677Y008045D01*
X036644Y008073D01*
X036614Y008103D01*
X036587Y008137D01*
X036563Y008173D01*
X036542Y008211D01*
X036525Y008250D01*
X036512Y008291D01*
X036502Y008333D01*
X036496Y008376D01*
X036494Y008419D01*
X035037Y008419D02*
X035039Y008462D01*
X035045Y008505D01*
X035055Y008547D01*
X035068Y008588D01*
X035085Y008627D01*
X035106Y008665D01*
X035130Y008701D01*
X035157Y008735D01*
X035187Y008765D01*
X035220Y008793D01*
X035256Y008818D01*
X035293Y008840D01*
X035332Y008858D01*
X035373Y008872D01*
X035415Y008883D01*
X035457Y008890D01*
X035500Y008893D01*
X035543Y008892D01*
X035586Y008887D01*
X035628Y008878D01*
X035670Y008866D01*
X035710Y008849D01*
X035748Y008829D01*
X035784Y008806D01*
X035818Y008780D01*
X035850Y008750D01*
X035879Y008718D01*
X035904Y008683D01*
X035927Y008647D01*
X035946Y008608D01*
X035961Y008568D01*
X035973Y008526D01*
X035981Y008484D01*
X035985Y008441D01*
X035985Y008397D01*
X035981Y008354D01*
X035973Y008312D01*
X035961Y008270D01*
X035946Y008230D01*
X035927Y008191D01*
X035904Y008155D01*
X035879Y008120D01*
X035850Y008088D01*
X035818Y008058D01*
X035784Y008032D01*
X035748Y008009D01*
X035710Y007989D01*
X035670Y007972D01*
X035628Y007960D01*
X035586Y007951D01*
X035543Y007946D01*
X035500Y007945D01*
X035457Y007948D01*
X035415Y007955D01*
X035373Y007966D01*
X035332Y007980D01*
X035293Y007998D01*
X035256Y008020D01*
X035220Y008045D01*
X035187Y008073D01*
X035157Y008103D01*
X035130Y008137D01*
X035106Y008173D01*
X035085Y008211D01*
X035068Y008250D01*
X035055Y008291D01*
X035045Y008333D01*
X035039Y008376D01*
X035037Y008419D01*
X030982Y008419D02*
X030984Y008462D01*
X030990Y008505D01*
X031000Y008547D01*
X031013Y008588D01*
X031030Y008627D01*
X031051Y008665D01*
X031075Y008701D01*
X031102Y008735D01*
X031132Y008765D01*
X031165Y008793D01*
X031201Y008818D01*
X031238Y008840D01*
X031277Y008858D01*
X031318Y008872D01*
X031360Y008883D01*
X031402Y008890D01*
X031445Y008893D01*
X031488Y008892D01*
X031531Y008887D01*
X031573Y008878D01*
X031615Y008866D01*
X031655Y008849D01*
X031693Y008829D01*
X031729Y008806D01*
X031763Y008780D01*
X031795Y008750D01*
X031824Y008718D01*
X031849Y008683D01*
X031872Y008647D01*
X031891Y008608D01*
X031906Y008568D01*
X031918Y008526D01*
X031926Y008484D01*
X031930Y008441D01*
X031930Y008397D01*
X031926Y008354D01*
X031918Y008312D01*
X031906Y008270D01*
X031891Y008230D01*
X031872Y008191D01*
X031849Y008155D01*
X031824Y008120D01*
X031795Y008088D01*
X031763Y008058D01*
X031729Y008032D01*
X031693Y008009D01*
X031655Y007989D01*
X031615Y007972D01*
X031573Y007960D01*
X031531Y007951D01*
X031488Y007946D01*
X031445Y007945D01*
X031402Y007948D01*
X031360Y007955D01*
X031318Y007966D01*
X031277Y007980D01*
X031238Y007998D01*
X031201Y008020D01*
X031165Y008045D01*
X031132Y008073D01*
X031102Y008103D01*
X031075Y008137D01*
X031051Y008173D01*
X031030Y008211D01*
X031013Y008250D01*
X031000Y008291D01*
X030990Y008333D01*
X030984Y008376D01*
X030982Y008419D01*
X071592Y010446D02*
X071594Y010489D01*
X071600Y010532D01*
X071610Y010574D01*
X071623Y010615D01*
X071640Y010654D01*
X071661Y010692D01*
X071685Y010728D01*
X071712Y010762D01*
X071742Y010792D01*
X071775Y010820D01*
X071811Y010845D01*
X071848Y010867D01*
X071887Y010885D01*
X071928Y010899D01*
X071970Y010910D01*
X072012Y010917D01*
X072055Y010920D01*
X072098Y010919D01*
X072141Y010914D01*
X072183Y010905D01*
X072225Y010893D01*
X072265Y010876D01*
X072303Y010856D01*
X072339Y010833D01*
X072373Y010807D01*
X072405Y010777D01*
X072434Y010745D01*
X072459Y010710D01*
X072482Y010674D01*
X072501Y010635D01*
X072516Y010595D01*
X072528Y010553D01*
X072536Y010511D01*
X072540Y010468D01*
X072540Y010424D01*
X072536Y010381D01*
X072528Y010339D01*
X072516Y010297D01*
X072501Y010257D01*
X072482Y010218D01*
X072459Y010182D01*
X072434Y010147D01*
X072405Y010115D01*
X072373Y010085D01*
X072339Y010059D01*
X072303Y010036D01*
X072265Y010016D01*
X072225Y009999D01*
X072183Y009987D01*
X072141Y009978D01*
X072098Y009973D01*
X072055Y009972D01*
X072012Y009975D01*
X071970Y009982D01*
X071928Y009993D01*
X071887Y010007D01*
X071848Y010025D01*
X071811Y010047D01*
X071775Y010072D01*
X071742Y010100D01*
X071712Y010130D01*
X071685Y010164D01*
X071661Y010200D01*
X071640Y010238D01*
X071623Y010277D01*
X071610Y010318D01*
X071600Y010360D01*
X071594Y010403D01*
X071592Y010446D01*
D13*
X066161Y000663D03*
X057499Y000663D03*
X048838Y000663D03*
X040176Y000663D03*
X031515Y000663D03*
D14*
X031909Y002120D02*
X032696Y002120D01*
X033090Y002513D01*
X038995Y002513D01*
X039480Y002999D01*
X039691Y002999D01*
X040570Y002120D01*
X041357Y002120D01*
X041751Y002513D01*
X047657Y002513D01*
X048142Y002999D01*
X048353Y002999D01*
X049231Y002120D01*
X050019Y002120D01*
X050413Y002513D01*
X056318Y002513D01*
X056803Y002999D01*
X057014Y002999D01*
X057893Y002120D01*
X058680Y002120D01*
X059074Y002513D01*
X064980Y002513D01*
X065465Y002999D01*
X066161Y002513D02*
X066554Y002120D01*
X071279Y002120D01*
X071672Y002120D01*
X073247Y003694D01*
X073247Y007238D01*
X072854Y007631D01*
X072854Y008419D01*
X072854Y009600D02*
X074035Y008419D01*
X074035Y005269D01*
X072460Y003694D02*
X071279Y004876D01*
X068734Y004876D01*
X067735Y003877D01*
X066161Y003694D02*
X066161Y002513D01*
X065465Y004390D02*
X065071Y004390D01*
X063798Y005663D01*
X058076Y005663D01*
X056803Y004390D01*
X056410Y004390D01*
X055137Y005663D01*
X049414Y005663D01*
X048142Y004390D01*
X047748Y004390D01*
X046476Y005663D01*
X040753Y005663D01*
X039480Y004390D01*
X039087Y004390D01*
X037814Y005663D01*
X032091Y005663D01*
X030819Y004390D01*
X030425Y004390D01*
X029940Y004876D01*
X027972Y004876D01*
X026791Y006057D01*
X026791Y008419D01*
X028759Y010387D01*
X029153Y010387D01*
X035452Y010387D01*
X040964Y010387D01*
X046476Y010387D01*
X051987Y010387D01*
X057499Y010387D01*
X063011Y010387D01*
X068523Y010387D01*
X069310Y009600D01*
X072854Y009600D01*
X071672Y008813D02*
X071672Y007238D01*
X071279Y006844D01*
X071279Y004876D01*
X063011Y006450D02*
X057499Y006450D01*
X051987Y006450D01*
X046476Y006450D01*
X040964Y006450D01*
X035846Y006450D01*
X035452Y006450D01*
X033877Y007631D02*
X038995Y007631D01*
X044113Y007631D01*
X044507Y007631D01*
X050019Y007631D01*
X055531Y007631D01*
X061043Y007631D01*
X061043Y009206D02*
X066554Y009206D01*
X061043Y009206D02*
X055531Y009206D01*
X050019Y009206D01*
X044507Y009206D01*
X038995Y009206D01*
X033483Y009206D01*
X029802Y005525D01*
X029409Y005525D01*
X031515Y003694D02*
X032696Y003694D01*
X033877Y004876D01*
X037814Y004876D01*
X038995Y003694D01*
X040176Y003694D01*
X041357Y003694D01*
X042539Y004876D01*
X046476Y004876D01*
X047657Y003694D01*
X048838Y003694D01*
X050019Y003694D01*
X051200Y004876D01*
X055137Y004876D01*
X056318Y003694D01*
X057499Y003694D01*
X031909Y002120D02*
X031030Y002999D01*
X030819Y002999D01*
D15*
X029409Y005525D03*
X033877Y007631D03*
X035452Y006450D03*
X038995Y007631D03*
X040964Y006450D03*
X044507Y007631D03*
X046476Y006450D03*
X050019Y007631D03*
X051987Y006450D03*
X055531Y007631D03*
X057499Y006450D03*
X061043Y007631D03*
X063011Y006450D03*
X067735Y003877D03*
X072460Y003694D03*
X071672Y002120D03*
X074035Y005269D03*
X071279Y006844D03*
X072854Y008419D03*
X071672Y008813D03*
X068523Y010387D03*
X066554Y009206D03*
X063011Y010387D03*
X061043Y009206D03*
X057499Y010387D03*
X055531Y009206D03*
X051987Y010387D03*
X050019Y009206D03*
X046476Y010387D03*
X044507Y009206D03*
X040964Y010387D03*
X038995Y009206D03*
X035452Y010387D03*
X033483Y009206D03*
X029153Y010387D03*
D16*
X027184Y004088D03*
D17*
X026725Y004273D02*
X026397Y004273D01*
X026397Y004115D02*
X026689Y004115D01*
X026689Y004187D02*
X026689Y003990D01*
X026764Y003808D01*
X026904Y003668D01*
X027086Y003593D01*
X027283Y003593D01*
X027465Y003668D01*
X027604Y003808D01*
X027679Y003990D01*
X027679Y004187D01*
X027604Y004369D01*
X027465Y004508D01*
X027283Y004583D01*
X027086Y004583D01*
X026904Y004508D01*
X026764Y004369D01*
X026689Y004187D01*
X026703Y003956D02*
X026397Y003956D01*
X026397Y003798D02*
X026774Y003798D01*
X026974Y003639D02*
X026397Y003639D01*
X026397Y003481D02*
X027805Y003481D01*
X027781Y003539D02*
X027900Y003252D01*
X028120Y003032D01*
X028407Y002913D01*
X028718Y002913D01*
X029005Y003032D01*
X029224Y003252D01*
X029343Y003539D01*
X029343Y003850D01*
X029224Y004137D01*
X029005Y004357D01*
X028718Y004476D01*
X028407Y004476D01*
X028120Y004357D01*
X027900Y004137D01*
X027781Y003850D01*
X027781Y003539D01*
X027781Y003639D02*
X027394Y003639D01*
X027594Y003798D02*
X027781Y003798D01*
X027825Y003956D02*
X027666Y003956D01*
X027679Y004115D02*
X027891Y004115D01*
X028036Y004273D02*
X027644Y004273D01*
X027541Y004432D02*
X028301Y004432D01*
X027900Y004516D02*
X029791Y004516D01*
X030120Y004187D01*
X030221Y004085D01*
X030354Y004030D01*
X030395Y004030D01*
X030505Y003921D01*
X030709Y003836D01*
X030929Y003836D01*
X030983Y003858D01*
X030961Y003805D01*
X030961Y003584D01*
X030983Y003531D01*
X030929Y003553D01*
X030709Y003553D01*
X030505Y003468D01*
X030349Y003312D01*
X030265Y003109D01*
X030265Y002888D01*
X030349Y002684D01*
X030505Y002529D01*
X030709Y002444D01*
X030929Y002444D01*
X031032Y002487D01*
X031603Y001916D01*
X031705Y001814D01*
X031837Y001760D01*
X032624Y001760D01*
X032768Y001760D01*
X032900Y001814D01*
X033239Y002153D01*
X038924Y002153D01*
X039067Y002153D01*
X039199Y002208D01*
X039435Y002444D01*
X039591Y002444D01*
X039694Y002487D01*
X040265Y001916D01*
X040265Y001916D01*
X040366Y001814D01*
X040498Y001760D01*
X041429Y001760D01*
X041561Y001814D01*
X041663Y001916D01*
X041900Y002153D01*
X047728Y002153D01*
X047861Y002208D01*
X047962Y002309D01*
X048097Y002444D01*
X048252Y002444D01*
X048355Y002487D01*
X048926Y001916D01*
X048926Y001916D01*
X049028Y001814D01*
X049160Y001760D01*
X050091Y001760D01*
X050223Y001814D01*
X050324Y001916D01*
X050562Y002153D01*
X056390Y002153D01*
X056522Y002208D01*
X056623Y002309D01*
X056758Y002444D01*
X056913Y002444D01*
X057017Y002487D01*
X057689Y001814D01*
X057821Y001760D01*
X057965Y001760D01*
X058752Y001760D01*
X058884Y001814D01*
X058985Y001916D01*
X059223Y002153D01*
X065051Y002153D01*
X065183Y002208D01*
X065285Y002309D01*
X065419Y002444D01*
X065575Y002444D01*
X065779Y002529D01*
X065801Y002529D01*
X065801Y002551D02*
X065801Y002442D01*
X065855Y002309D01*
X066249Y001916D01*
X066350Y001814D01*
X066483Y001760D01*
X068811Y001760D01*
X068721Y001723D01*
X068526Y001528D01*
X068421Y001273D01*
X068421Y000998D01*
X068526Y000743D01*
X068721Y000548D01*
X068729Y000545D01*
X066713Y000545D01*
X066724Y000615D01*
X066209Y000615D01*
X066209Y000711D01*
X066724Y000711D01*
X066711Y000795D01*
X066683Y000879D01*
X066643Y000959D01*
X066591Y001030D01*
X066528Y001093D01*
X066456Y001145D01*
X066377Y001186D01*
X066293Y001213D01*
X066209Y001226D01*
X066209Y000711D01*
X066113Y000711D01*
X066113Y001226D01*
X066029Y001213D01*
X065944Y001186D01*
X065865Y001145D01*
X065793Y001093D01*
X065731Y001030D01*
X065678Y000959D01*
X065638Y000879D01*
X065611Y000795D01*
X065597Y000711D01*
X066112Y000711D01*
X066112Y000615D01*
X065597Y000615D01*
X065608Y000545D01*
X063592Y000545D01*
X063600Y000548D01*
X063795Y000743D01*
X063900Y000998D01*
X063900Y001273D01*
X063795Y001528D01*
X063600Y001723D01*
X063346Y001828D01*
X063070Y001828D01*
X062816Y001723D01*
X062621Y001528D01*
X062515Y001273D01*
X062515Y000998D01*
X062621Y000743D01*
X062816Y000548D01*
X062824Y000545D01*
X060836Y000545D01*
X060844Y000548D01*
X061039Y000743D01*
X061145Y000998D01*
X061145Y001273D01*
X061039Y001528D01*
X060844Y001723D01*
X060590Y001828D01*
X060314Y001828D01*
X060060Y001723D01*
X059865Y001528D01*
X059759Y001273D01*
X059759Y000998D01*
X059865Y000743D01*
X060060Y000548D01*
X060068Y000545D01*
X058051Y000545D01*
X058062Y000615D01*
X057547Y000615D01*
X057547Y000711D01*
X057451Y000711D01*
X057451Y000615D01*
X056936Y000615D01*
X056947Y000545D01*
X054931Y000545D01*
X054939Y000548D01*
X055134Y000743D01*
X055239Y000998D01*
X055239Y001273D01*
X055134Y001528D01*
X054939Y001723D01*
X054684Y001828D01*
X054409Y001828D01*
X054154Y001723D01*
X053959Y001528D01*
X053854Y001273D01*
X053854Y000998D01*
X053959Y000743D01*
X054154Y000548D01*
X054162Y000545D01*
X052175Y000545D01*
X052183Y000548D01*
X052378Y000743D01*
X052483Y000998D01*
X052483Y001273D01*
X052378Y001528D01*
X052183Y001723D01*
X051928Y001828D01*
X051653Y001828D01*
X051398Y001723D01*
X051203Y001528D01*
X051098Y001273D01*
X051098Y000998D01*
X051203Y000743D01*
X051398Y000548D01*
X051406Y000545D01*
X049390Y000545D01*
X049401Y000615D01*
X048886Y000615D01*
X048886Y000711D01*
X049401Y000711D01*
X049388Y000795D01*
X049360Y000879D01*
X049320Y000959D01*
X049268Y001030D01*
X049205Y001093D01*
X049133Y001145D01*
X049054Y001186D01*
X048970Y001213D01*
X048886Y001226D01*
X048886Y000711D01*
X048790Y000711D01*
X048790Y001226D01*
X048706Y001213D01*
X048621Y001186D01*
X048542Y001145D01*
X048470Y001093D01*
X048408Y001030D01*
X048356Y000959D01*
X048315Y000879D01*
X048288Y000795D01*
X048274Y000711D01*
X048790Y000711D01*
X048790Y000615D01*
X048274Y000615D01*
X048286Y000545D01*
X046269Y000545D01*
X046277Y000548D01*
X046472Y000743D01*
X046578Y000998D01*
X046578Y001273D01*
X046472Y001528D01*
X046277Y001723D01*
X046023Y001828D01*
X045747Y001828D01*
X045493Y001723D01*
X045298Y001528D01*
X045192Y001273D01*
X045192Y000998D01*
X045298Y000743D01*
X045493Y000548D01*
X045501Y000545D01*
X043513Y000545D01*
X043521Y000548D01*
X043716Y000743D01*
X043822Y000998D01*
X043822Y001273D01*
X043716Y001528D01*
X043521Y001723D01*
X043267Y001828D01*
X042991Y001828D01*
X042737Y001723D01*
X042542Y001528D01*
X042437Y001273D01*
X042437Y000998D01*
X042542Y000743D01*
X042737Y000548D01*
X042745Y000545D01*
X040729Y000545D01*
X040740Y000615D01*
X040225Y000615D01*
X040225Y000711D01*
X040740Y000711D01*
X040726Y000795D01*
X040699Y000879D01*
X040659Y000959D01*
X040606Y001030D01*
X040544Y001093D01*
X040472Y001145D01*
X040393Y001186D01*
X040308Y001213D01*
X040224Y001226D01*
X040224Y000711D01*
X040128Y000711D01*
X040128Y000615D01*
X039613Y000615D01*
X039624Y000545D01*
X037608Y000545D01*
X037616Y000548D01*
X037811Y000743D01*
X037916Y000998D01*
X037916Y001273D01*
X037811Y001528D01*
X037616Y001723D01*
X037361Y001828D01*
X037086Y001828D01*
X036831Y001723D01*
X036636Y001528D01*
X036531Y001273D01*
X036531Y000998D01*
X036636Y000743D01*
X036831Y000548D01*
X036840Y000545D01*
X034852Y000545D01*
X034860Y000548D01*
X035055Y000743D01*
X035160Y000998D01*
X035160Y001273D01*
X035055Y001528D01*
X034860Y001723D01*
X034605Y001828D01*
X034330Y001828D01*
X034075Y001723D01*
X033881Y001528D01*
X033775Y001273D01*
X033775Y000998D01*
X033881Y000743D01*
X034075Y000548D01*
X034084Y000545D01*
X032067Y000545D01*
X032078Y000615D01*
X031563Y000615D01*
X031563Y000711D01*
X032078Y000711D01*
X032065Y000795D01*
X032037Y000879D01*
X031997Y000959D01*
X031945Y001030D01*
X031882Y001093D01*
X031810Y001145D01*
X031731Y001186D01*
X031647Y001213D01*
X031563Y001226D01*
X031563Y000711D01*
X031467Y000711D01*
X031467Y001226D01*
X031383Y001213D01*
X031299Y001186D01*
X031219Y001145D01*
X031148Y001093D01*
X031085Y001030D01*
X031033Y000959D01*
X030992Y000879D01*
X030965Y000795D01*
X030952Y000711D01*
X031467Y000711D01*
X031467Y000615D01*
X030952Y000615D01*
X030963Y000545D01*
X028946Y000545D01*
X028955Y000548D01*
X029149Y000743D01*
X029255Y000998D01*
X029255Y001273D01*
X029149Y001528D01*
X028955Y001723D01*
X028700Y001828D01*
X028424Y001828D01*
X028170Y001723D01*
X027975Y001528D01*
X027870Y001273D01*
X027870Y000998D01*
X027975Y000743D01*
X028170Y000548D01*
X028178Y000545D01*
X027056Y000545D01*
X026790Y000699D01*
X026551Y000938D01*
X026397Y001204D01*
X026397Y010122D01*
X026551Y010388D01*
X026790Y010627D01*
X027056Y010781D01*
X071442Y010781D01*
X071362Y010587D01*
X071362Y010306D01*
X071469Y010047D01*
X071556Y009960D01*
X069459Y009960D01*
X068880Y010539D01*
X068852Y010607D01*
X068743Y010716D01*
X068600Y010775D01*
X068446Y010775D01*
X068378Y010747D01*
X063156Y010747D01*
X063088Y010775D01*
X062934Y010775D01*
X062866Y010747D01*
X057644Y010747D01*
X057576Y010775D01*
X057422Y010775D01*
X057354Y010747D01*
X052132Y010747D01*
X052065Y010775D01*
X051910Y010775D01*
X051842Y010747D01*
X046621Y010747D01*
X046553Y010775D01*
X046398Y010775D01*
X046331Y010747D01*
X041109Y010747D01*
X041041Y010775D01*
X040887Y010775D01*
X040819Y010747D01*
X035597Y010747D01*
X035529Y010775D01*
X035375Y010775D01*
X035307Y010747D01*
X029298Y010747D01*
X029230Y010775D01*
X029076Y010775D01*
X029008Y010747D01*
X028687Y010747D01*
X028555Y010693D01*
X028454Y010591D01*
X026485Y008623D01*
X026431Y008491D01*
X026431Y008347D01*
X026431Y005985D01*
X026485Y005853D01*
X026587Y005751D01*
X027666Y004672D01*
X027768Y004570D01*
X027900Y004516D01*
X027748Y004590D02*
X026397Y004590D01*
X026397Y004432D02*
X026828Y004432D01*
X026397Y004749D02*
X027589Y004749D01*
X027431Y004907D02*
X026397Y004907D01*
X026397Y005066D02*
X027272Y005066D01*
X027114Y005225D02*
X026397Y005225D01*
X026397Y005383D02*
X026955Y005383D01*
X026796Y005542D02*
X026397Y005542D01*
X026397Y005700D02*
X026638Y005700D01*
X026587Y005751D02*
X026587Y005751D01*
X026483Y005859D02*
X026397Y005859D01*
X026397Y006017D02*
X026431Y006017D01*
X026431Y006176D02*
X026397Y006176D01*
X026397Y006334D02*
X026431Y006334D01*
X026431Y006493D02*
X026397Y006493D01*
X026397Y006651D02*
X026431Y006651D01*
X026431Y006810D02*
X026397Y006810D01*
X026397Y006969D02*
X026431Y006969D01*
X026431Y007127D02*
X026397Y007127D01*
X026397Y007286D02*
X026431Y007286D01*
X026431Y007444D02*
X026397Y007444D01*
X026397Y007603D02*
X026431Y007603D01*
X026431Y007761D02*
X026397Y007761D01*
X026397Y007920D02*
X026431Y007920D01*
X026431Y008078D02*
X026397Y008078D01*
X026397Y008237D02*
X026431Y008237D01*
X026431Y008395D02*
X026397Y008395D01*
X026397Y008554D02*
X026457Y008554D01*
X026397Y008713D02*
X026575Y008713D01*
X026734Y008871D02*
X026397Y008871D01*
X026397Y009030D02*
X026892Y009030D01*
X027051Y009188D02*
X026397Y009188D01*
X026397Y009347D02*
X027209Y009347D01*
X027368Y009505D02*
X026397Y009505D01*
X026397Y009664D02*
X027526Y009664D01*
X027685Y009822D02*
X026397Y009822D01*
X026397Y009981D02*
X027843Y009981D01*
X028002Y010139D02*
X026407Y010139D01*
X026499Y010298D02*
X028161Y010298D01*
X028319Y010456D02*
X026619Y010456D01*
X026777Y010615D02*
X028478Y010615D01*
X029071Y010774D02*
X027043Y010774D01*
X028862Y009981D02*
X068420Y009981D01*
X068374Y010027D02*
X069106Y009295D01*
X069239Y009240D01*
X069382Y009240D01*
X072704Y009240D01*
X073675Y008270D01*
X073675Y005414D01*
X073647Y005346D01*
X073647Y005192D01*
X073706Y005049D01*
X073815Y004940D01*
X073957Y004881D01*
X074112Y004881D01*
X074254Y004940D01*
X074364Y005049D01*
X074423Y005192D01*
X074423Y005346D01*
X074395Y005414D01*
X074395Y008347D01*
X074395Y008491D01*
X074340Y008623D01*
X073159Y009804D01*
X073057Y009905D01*
X072925Y009960D01*
X072576Y009960D01*
X072663Y010047D01*
X072771Y010306D01*
X072771Y010587D01*
X072690Y010781D01*
X073769Y010781D01*
X074035Y010627D01*
X074274Y010388D01*
X074428Y010122D01*
X074428Y003531D01*
X074234Y003611D01*
X073954Y003611D01*
X073695Y003504D01*
X073497Y003306D01*
X073389Y003047D01*
X073389Y002767D01*
X073497Y002508D01*
X073695Y002310D01*
X073954Y002203D01*
X074234Y002203D01*
X074428Y002283D01*
X074428Y001204D01*
X074274Y000938D01*
X074035Y000699D01*
X073769Y000545D01*
X069497Y000545D01*
X069506Y000548D01*
X069701Y000743D01*
X069806Y000998D01*
X069806Y001273D01*
X069701Y001528D01*
X069506Y001723D01*
X069416Y001760D01*
X071207Y001760D01*
X071527Y001760D01*
X071595Y001732D01*
X071750Y001732D01*
X071892Y001791D01*
X072001Y001900D01*
X072030Y001968D01*
X073451Y003389D01*
X073552Y003491D01*
X073607Y003623D01*
X073607Y007166D01*
X073607Y007309D01*
X073552Y007442D01*
X073214Y007781D01*
X073214Y008274D01*
X073242Y008342D01*
X073242Y008496D01*
X073183Y008639D01*
X073073Y008748D01*
X072931Y008807D01*
X072776Y008807D01*
X072634Y008748D01*
X072525Y008639D01*
X072465Y008496D01*
X072465Y008342D01*
X072494Y008274D01*
X072494Y007560D01*
X072548Y007428D01*
X072650Y007326D01*
X072887Y007089D01*
X072887Y003844D01*
X072838Y003795D01*
X072789Y003914D01*
X072680Y004023D01*
X072612Y004052D01*
X071639Y005025D01*
X071639Y005823D01*
X071667Y005794D01*
X071926Y005687D01*
X072206Y005687D01*
X072465Y005794D01*
X072663Y005992D01*
X072771Y006251D01*
X072771Y006531D01*
X072663Y006790D01*
X072465Y006988D01*
X072206Y007096D01*
X072003Y007096D01*
X072032Y007166D01*
X072032Y007309D01*
X072032Y008668D01*
X072061Y008735D01*
X072061Y008890D01*
X072001Y009032D01*
X071892Y009142D01*
X071750Y009201D01*
X071595Y009201D01*
X071453Y009142D01*
X071343Y009032D01*
X071284Y008890D01*
X071284Y008735D01*
X071312Y008668D01*
X071312Y007387D01*
X071127Y007201D01*
X071059Y007173D01*
X070950Y007064D01*
X070891Y006921D01*
X070891Y006767D01*
X070919Y006699D01*
X070919Y005236D01*
X068662Y005236D01*
X068530Y005181D01*
X068429Y005079D01*
X067583Y004234D01*
X067516Y004206D01*
X067406Y004097D01*
X067347Y003955D01*
X067347Y003800D01*
X067406Y003657D01*
X067516Y003548D01*
X067658Y003489D01*
X067813Y003489D01*
X067955Y003548D01*
X068064Y003657D01*
X068093Y003725D01*
X068414Y004046D01*
X068332Y003850D01*
X068332Y003539D01*
X068451Y003252D01*
X068671Y003032D01*
X068958Y002913D01*
X069269Y002913D01*
X069334Y002940D01*
X069334Y002767D01*
X069441Y002508D01*
X069470Y002480D01*
X067052Y002480D01*
X067171Y002529D01*
X069433Y002529D01*
X069367Y002688D02*
X067328Y002688D01*
X067327Y002684D02*
X067411Y002888D01*
X067411Y003109D01*
X067327Y003312D01*
X067171Y003468D01*
X066967Y003553D01*
X066746Y003553D01*
X066693Y003531D01*
X066715Y003584D01*
X066715Y003805D01*
X066681Y003886D01*
X066731Y003869D01*
X066815Y003856D01*
X066818Y003856D01*
X066818Y004352D01*
X066322Y004352D01*
X066322Y004348D01*
X066335Y004265D01*
X066352Y004215D01*
X066271Y004249D01*
X066050Y004249D01*
X065997Y004227D01*
X066019Y004280D01*
X066019Y004501D01*
X065935Y004704D01*
X065779Y004860D01*
X065575Y004945D01*
X065354Y004945D01*
X065151Y004860D01*
X065130Y004840D01*
X064104Y005867D01*
X064002Y005968D01*
X063870Y006023D01*
X058147Y006023D01*
X058004Y006023D01*
X057872Y005968D01*
X056848Y004945D01*
X056693Y004945D01*
X056489Y004860D01*
X056469Y004840D01*
X055442Y005867D01*
X055341Y005968D01*
X055209Y006023D01*
X049486Y006023D01*
X049343Y006023D01*
X049210Y005968D01*
X048187Y004945D01*
X048032Y004945D01*
X047828Y004860D01*
X047808Y004840D01*
X046679Y005968D01*
X046547Y006023D01*
X046404Y006023D01*
X040681Y006023D01*
X040549Y005968D01*
X040448Y005867D01*
X039526Y004945D01*
X039370Y004945D01*
X039166Y004860D01*
X039146Y004840D01*
X038018Y005968D01*
X037886Y006023D01*
X037743Y006023D01*
X032020Y006023D01*
X031888Y005968D01*
X031786Y005867D01*
X030864Y004945D01*
X030709Y004945D01*
X030505Y004860D01*
X030485Y004840D01*
X030144Y005181D01*
X030019Y005233D01*
X030108Y005321D01*
X033633Y008846D01*
X034942Y008846D01*
X034914Y008818D01*
X034807Y008559D01*
X034807Y008279D01*
X034914Y008020D01*
X034942Y007991D01*
X034022Y007991D01*
X033954Y008020D01*
X033800Y008020D01*
X033657Y007960D01*
X033548Y007851D01*
X033489Y007709D01*
X033489Y007554D01*
X033548Y007412D01*
X033657Y007302D01*
X033800Y007243D01*
X033954Y007243D01*
X034022Y007271D01*
X038850Y007271D01*
X038918Y007243D01*
X039072Y007243D01*
X039140Y007271D01*
X044185Y007271D01*
X044362Y007271D01*
X044430Y007243D01*
X044584Y007243D01*
X044652Y007271D01*
X049874Y007271D01*
X049942Y007243D01*
X050096Y007243D01*
X050164Y007271D01*
X055386Y007271D01*
X055453Y007243D01*
X055608Y007243D01*
X055676Y007271D01*
X060897Y007271D01*
X060965Y007243D01*
X061120Y007243D01*
X061262Y007302D01*
X061371Y007412D01*
X061431Y007554D01*
X061431Y007709D01*
X061371Y007851D01*
X061262Y007960D01*
X061120Y008020D01*
X060965Y008020D01*
X060897Y007991D01*
X059584Y007991D01*
X059612Y008020D01*
X059719Y008279D01*
X059719Y008559D01*
X059612Y008818D01*
X059584Y008846D01*
X060897Y008846D01*
X060965Y008818D01*
X061120Y008818D01*
X061188Y008846D01*
X062501Y008846D01*
X062473Y008818D01*
X062366Y008559D01*
X062366Y008279D01*
X062473Y008020D01*
X062671Y007822D01*
X062930Y007714D01*
X063210Y007714D01*
X063469Y007822D01*
X063667Y008020D01*
X063774Y008279D01*
X063774Y008559D01*
X063667Y008818D01*
X063639Y008846D01*
X063958Y008846D01*
X063930Y008818D01*
X063822Y008559D01*
X063822Y008279D01*
X063930Y008020D01*
X064128Y007822D01*
X064387Y007714D01*
X064667Y007714D01*
X064926Y007822D01*
X065124Y008020D01*
X065231Y008279D01*
X065231Y008559D01*
X065124Y008818D01*
X065095Y008846D01*
X066409Y008846D01*
X066477Y008818D01*
X066632Y008818D01*
X066774Y008877D01*
X066883Y008986D01*
X066942Y009129D01*
X066942Y009284D01*
X066883Y009426D01*
X066774Y009535D01*
X066632Y009594D01*
X066477Y009594D01*
X066409Y009566D01*
X061188Y009566D01*
X061120Y009594D01*
X060965Y009594D01*
X060897Y009566D01*
X055676Y009566D01*
X055608Y009594D01*
X055453Y009594D01*
X055386Y009566D01*
X050164Y009566D01*
X050096Y009594D01*
X049942Y009594D01*
X049874Y009566D01*
X044652Y009566D01*
X044584Y009594D01*
X044430Y009594D01*
X044362Y009566D01*
X039140Y009566D01*
X039072Y009594D01*
X038918Y009594D01*
X038850Y009566D01*
X033629Y009566D01*
X033561Y009594D01*
X033406Y009594D01*
X033264Y009535D01*
X033154Y009426D01*
X033126Y009358D01*
X032160Y008392D01*
X032160Y008559D01*
X032053Y008818D01*
X031855Y009016D01*
X031596Y009123D01*
X031316Y009123D01*
X031057Y009016D01*
X030859Y008818D01*
X030751Y008559D01*
X030751Y008279D01*
X030859Y008020D01*
X031057Y007822D01*
X031316Y007714D01*
X031483Y007714D01*
X029653Y005885D01*
X029554Y005885D01*
X029486Y005913D01*
X029331Y005913D01*
X029189Y005854D01*
X029080Y005745D01*
X029021Y005602D01*
X029021Y005448D01*
X029080Y005305D01*
X029149Y005236D01*
X028121Y005236D01*
X027151Y006206D01*
X027151Y008270D01*
X028908Y010027D01*
X029008Y010027D01*
X029076Y009999D01*
X029230Y009999D01*
X029298Y010027D01*
X035307Y010027D01*
X035375Y009999D01*
X035529Y009999D01*
X035597Y010027D01*
X040819Y010027D01*
X040887Y009999D01*
X041041Y009999D01*
X041109Y010027D01*
X046331Y010027D01*
X046398Y009999D01*
X046553Y009999D01*
X046621Y010027D01*
X051842Y010027D01*
X051910Y009999D01*
X052065Y009999D01*
X052132Y010027D01*
X057354Y010027D01*
X057422Y009999D01*
X057576Y009999D01*
X057644Y010027D01*
X062866Y010027D01*
X062934Y009999D01*
X063088Y009999D01*
X063156Y010027D01*
X068374Y010027D01*
X068579Y009822D02*
X028703Y009822D01*
X028545Y009664D02*
X068737Y009664D01*
X068896Y009505D02*
X066804Y009505D01*
X066916Y009347D02*
X069054Y009347D01*
X068948Y009030D02*
X071342Y009030D01*
X071284Y008871D02*
X069126Y008871D01*
X069179Y008818D02*
X068981Y009016D01*
X068722Y009123D01*
X068442Y009123D01*
X068183Y009016D01*
X067985Y008818D01*
X067877Y008559D01*
X067877Y008279D01*
X067985Y008020D01*
X068183Y007822D01*
X068442Y007714D01*
X068722Y007714D01*
X068981Y007822D01*
X069179Y008020D01*
X069286Y008279D01*
X069286Y008559D01*
X069179Y008818D01*
X069223Y008713D02*
X071294Y008713D01*
X071312Y008554D02*
X069286Y008554D01*
X069286Y008395D02*
X071312Y008395D01*
X071312Y008237D02*
X069269Y008237D01*
X069203Y008078D02*
X071312Y008078D01*
X071312Y007920D02*
X069079Y007920D01*
X068835Y007761D02*
X071312Y007761D01*
X071312Y007603D02*
X061431Y007603D01*
X061409Y007761D02*
X062817Y007761D01*
X062573Y007920D02*
X061303Y007920D01*
X061385Y007444D02*
X071312Y007444D01*
X071211Y007286D02*
X061222Y007286D01*
X062866Y006810D02*
X057644Y006810D01*
X057576Y006838D01*
X057422Y006838D01*
X057354Y006810D01*
X052132Y006810D01*
X052065Y006838D01*
X051910Y006838D01*
X051842Y006810D01*
X046621Y006810D01*
X046553Y006838D01*
X046398Y006838D01*
X046331Y006810D01*
X041109Y006810D01*
X041041Y006838D01*
X040887Y006838D01*
X040819Y006810D01*
X035917Y006810D01*
X035597Y006810D01*
X035529Y006838D01*
X035375Y006838D01*
X035232Y006779D01*
X035123Y006670D01*
X035064Y006528D01*
X035064Y006373D01*
X035123Y006231D01*
X035232Y006121D01*
X035375Y006062D01*
X035529Y006062D01*
X035597Y006090D01*
X035917Y006090D01*
X040819Y006090D01*
X040887Y006062D01*
X041041Y006062D01*
X041109Y006090D01*
X046331Y006090D01*
X046398Y006062D01*
X046553Y006062D01*
X046621Y006090D01*
X051842Y006090D01*
X051910Y006062D01*
X052065Y006062D01*
X052132Y006090D01*
X057354Y006090D01*
X057422Y006062D01*
X057576Y006062D01*
X057644Y006090D01*
X062866Y006090D01*
X062934Y006062D01*
X063088Y006062D01*
X063231Y006121D01*
X063340Y006231D01*
X063399Y006373D01*
X063399Y006528D01*
X063340Y006670D01*
X063231Y006779D01*
X063088Y006838D01*
X062934Y006838D01*
X062866Y006810D01*
X063157Y006810D02*
X070891Y006810D01*
X070910Y006969D02*
X031755Y006969D01*
X031913Y007127D02*
X071013Y007127D01*
X070919Y006651D02*
X063348Y006651D01*
X063399Y006493D02*
X070919Y006493D01*
X070919Y006334D02*
X063383Y006334D01*
X063285Y006176D02*
X070919Y006176D01*
X070919Y006017D02*
X063884Y006017D01*
X064112Y005859D02*
X070919Y005859D01*
X070919Y005700D02*
X064270Y005700D01*
X064429Y005542D02*
X070919Y005542D01*
X070919Y005383D02*
X064587Y005383D01*
X064746Y005225D02*
X068636Y005225D01*
X068415Y005066D02*
X064904Y005066D01*
X065063Y004907D02*
X065264Y004907D01*
X065665Y004907D02*
X066719Y004907D01*
X066731Y004912D02*
X066651Y004886D01*
X066577Y004847D01*
X066509Y004798D01*
X066449Y004739D01*
X066400Y004671D01*
X066361Y004596D01*
X066335Y004516D01*
X066322Y004433D01*
X066322Y004429D01*
X066818Y004429D01*
X066818Y004352D01*
X066895Y004352D01*
X066895Y004429D01*
X066818Y004429D01*
X066818Y004925D01*
X066815Y004925D01*
X066731Y004912D01*
X066818Y004907D02*
X066895Y004907D01*
X066895Y004925D02*
X066895Y004429D01*
X067391Y004429D01*
X067391Y004433D01*
X067378Y004516D01*
X067352Y004596D01*
X067314Y004671D01*
X067264Y004739D01*
X067205Y004798D01*
X067137Y004847D01*
X067062Y004886D01*
X066982Y004912D01*
X066899Y004925D01*
X066895Y004925D01*
X066994Y004907D02*
X068257Y004907D01*
X068098Y004749D02*
X067254Y004749D01*
X067353Y004590D02*
X067939Y004590D01*
X067781Y004432D02*
X067391Y004432D01*
X067391Y004352D02*
X066895Y004352D01*
X066895Y003856D01*
X066899Y003856D01*
X066982Y003869D01*
X067062Y003895D01*
X067137Y003933D01*
X067205Y003983D01*
X067264Y004042D01*
X067314Y004110D01*
X067352Y004185D01*
X067378Y004265D01*
X067391Y004348D01*
X067391Y004352D01*
X067379Y004273D02*
X067622Y004273D01*
X067424Y004115D02*
X067316Y004115D01*
X067348Y003956D02*
X067168Y003956D01*
X067348Y003798D02*
X066715Y003798D01*
X066715Y003639D02*
X067425Y003639D01*
X067141Y003481D02*
X068356Y003481D01*
X068332Y003639D02*
X068046Y003639D01*
X068165Y003798D02*
X068332Y003798D01*
X068323Y003956D02*
X068376Y003956D01*
X068422Y003322D02*
X067317Y003322D01*
X067388Y003164D02*
X068540Y003164D01*
X068737Y003005D02*
X067411Y003005D01*
X067394Y002846D02*
X069334Y002846D01*
X067327Y002684D02*
X067171Y002529D01*
X066111Y002054D02*
X059123Y002054D01*
X058985Y001916D02*
X058985Y001916D01*
X058965Y001895D02*
X066270Y001895D01*
X065953Y002212D02*
X065187Y002212D01*
X065346Y002371D02*
X065830Y002371D01*
X065779Y002529D02*
X065801Y002551D01*
X064910Y002953D02*
X064830Y002873D01*
X059002Y002873D01*
X058870Y002819D01*
X058769Y002717D01*
X058531Y002480D01*
X058391Y002480D01*
X058509Y002529D01*
X058665Y002684D01*
X058749Y002888D01*
X058749Y003109D01*
X058665Y003312D01*
X058509Y003468D01*
X058305Y003553D01*
X058085Y003553D01*
X058031Y003531D01*
X058054Y003584D01*
X058054Y003805D01*
X058020Y003886D01*
X058070Y003869D01*
X058153Y003856D01*
X058157Y003856D01*
X058157Y004352D01*
X058233Y004352D01*
X058233Y003856D01*
X058237Y003856D01*
X058320Y003869D01*
X058400Y003895D01*
X058475Y003933D01*
X058543Y003983D01*
X058603Y004042D01*
X058652Y004110D01*
X058690Y004185D01*
X058716Y004265D01*
X058729Y004348D01*
X058729Y004352D01*
X058234Y004352D01*
X058234Y004429D01*
X058729Y004429D01*
X058729Y004433D01*
X058716Y004516D01*
X058690Y004596D01*
X058652Y004671D01*
X058603Y004739D01*
X058543Y004798D01*
X058475Y004847D01*
X058400Y004886D01*
X058320Y004912D01*
X058237Y004925D01*
X058233Y004925D01*
X058233Y004429D01*
X058157Y004429D01*
X058157Y004925D01*
X058153Y004925D01*
X058070Y004912D01*
X057990Y004886D01*
X057915Y004847D01*
X057847Y004798D01*
X057788Y004739D01*
X057738Y004671D01*
X057700Y004596D01*
X057674Y004516D01*
X057661Y004433D01*
X057661Y004429D01*
X058157Y004429D01*
X058157Y004352D01*
X057661Y004352D01*
X057661Y004348D01*
X057674Y004265D01*
X057690Y004215D01*
X057609Y004249D01*
X057389Y004249D01*
X057335Y004227D01*
X057358Y004280D01*
X057358Y004436D01*
X058225Y005303D01*
X063649Y005303D01*
X064867Y004085D01*
X064999Y004030D01*
X065041Y004030D01*
X065151Y003921D01*
X065354Y003836D01*
X065575Y003836D01*
X065629Y003858D01*
X065606Y003805D01*
X065606Y003584D01*
X065629Y003531D01*
X065575Y003553D01*
X065354Y003553D01*
X065151Y003468D01*
X064995Y003312D01*
X064910Y003109D01*
X064910Y002953D01*
X064910Y003005D02*
X063584Y003005D01*
X063650Y003032D02*
X063870Y003252D01*
X063989Y003539D01*
X063989Y003850D01*
X063870Y004137D01*
X063650Y004357D01*
X063363Y004476D01*
X063052Y004476D01*
X062765Y004357D01*
X062546Y004137D01*
X062427Y003850D01*
X062427Y003539D01*
X062546Y003252D01*
X062765Y003032D01*
X063052Y002913D01*
X063363Y002913D01*
X063650Y003032D01*
X063782Y003164D02*
X064933Y003164D01*
X065004Y003322D02*
X063899Y003322D01*
X063965Y003481D02*
X065180Y003481D01*
X065606Y003639D02*
X063989Y003639D01*
X063989Y003798D02*
X065606Y003798D01*
X065115Y003956D02*
X063945Y003956D01*
X063879Y004115D02*
X064838Y004115D01*
X064679Y004273D02*
X063734Y004273D01*
X063469Y004432D02*
X064520Y004432D01*
X064362Y004590D02*
X058692Y004590D01*
X058729Y004432D02*
X060191Y004432D01*
X060297Y004476D02*
X060009Y004357D01*
X059790Y004137D01*
X059671Y003850D01*
X059671Y003539D01*
X059790Y003252D01*
X060009Y003032D01*
X060297Y002913D01*
X060607Y002913D01*
X060894Y003032D01*
X061114Y003252D01*
X061233Y003539D01*
X061233Y003850D01*
X061114Y004137D01*
X060894Y004357D01*
X060607Y004476D01*
X060297Y004476D01*
X060713Y004432D02*
X062947Y004432D01*
X062682Y004273D02*
X060978Y004273D01*
X061123Y004115D02*
X062536Y004115D01*
X062471Y003956D02*
X061189Y003956D01*
X061233Y003798D02*
X062427Y003798D01*
X062427Y003639D02*
X061233Y003639D01*
X061209Y003481D02*
X062451Y003481D01*
X062517Y003322D02*
X061143Y003322D01*
X061026Y003164D02*
X062634Y003164D01*
X062831Y003005D02*
X060829Y003005D01*
X060075Y003005D02*
X058749Y003005D01*
X058732Y002846D02*
X058937Y002846D01*
X058769Y002717D02*
X058769Y002717D01*
X058739Y002688D02*
X058666Y002688D01*
X058581Y002529D02*
X058510Y002529D01*
X058727Y003164D02*
X059878Y003164D01*
X059761Y003322D02*
X058656Y003322D01*
X058480Y003481D02*
X059695Y003481D01*
X059671Y003639D02*
X058054Y003639D01*
X058054Y003798D02*
X059671Y003798D01*
X059715Y003956D02*
X058507Y003956D01*
X058654Y004115D02*
X059781Y004115D01*
X059926Y004273D02*
X058718Y004273D01*
X058233Y004273D02*
X058157Y004273D01*
X058157Y004115D02*
X058233Y004115D01*
X058233Y003956D02*
X058157Y003956D01*
X057673Y004273D02*
X057355Y004273D01*
X057358Y004432D02*
X057661Y004432D01*
X057698Y004590D02*
X057512Y004590D01*
X057671Y004749D02*
X057798Y004749D01*
X057829Y004907D02*
X058057Y004907D01*
X058157Y004907D02*
X058233Y004907D01*
X058333Y004907D02*
X064045Y004907D01*
X064203Y004749D02*
X058592Y004749D01*
X058233Y004749D02*
X058157Y004749D01*
X058157Y004590D02*
X058233Y004590D01*
X058233Y004432D02*
X058157Y004432D01*
X057988Y005066D02*
X063886Y005066D01*
X063728Y005225D02*
X058146Y005225D01*
X057287Y005383D02*
X055926Y005383D01*
X056084Y005225D02*
X057128Y005225D01*
X056970Y005066D02*
X056243Y005066D01*
X056402Y004907D02*
X056603Y004907D01*
X055055Y005236D02*
X054988Y005303D01*
X049563Y005303D01*
X048696Y004436D01*
X048696Y004280D01*
X048674Y004227D01*
X048728Y004249D01*
X048948Y004249D01*
X049029Y004215D01*
X049013Y004265D01*
X048999Y004348D01*
X048999Y004352D01*
X049495Y004352D01*
X049495Y004429D01*
X048999Y004429D01*
X048999Y004433D01*
X049013Y004516D01*
X049039Y004596D01*
X049077Y004671D01*
X049126Y004739D01*
X049186Y004798D01*
X049254Y004847D01*
X049329Y004886D01*
X049409Y004912D01*
X049492Y004925D01*
X049496Y004925D01*
X049496Y004429D01*
X049572Y004429D01*
X049572Y004925D01*
X049576Y004925D01*
X049659Y004912D01*
X049739Y004886D01*
X049814Y004847D01*
X049882Y004798D01*
X049941Y004739D01*
X049991Y004671D01*
X050029Y004596D01*
X050055Y004516D01*
X050068Y004433D01*
X050068Y004429D01*
X049572Y004429D01*
X049572Y004352D01*
X050068Y004352D01*
X050068Y004348D01*
X050055Y004265D01*
X050043Y004227D01*
X050895Y005079D01*
X050996Y005181D01*
X051128Y005236D01*
X055055Y005236D01*
X055609Y005700D02*
X057604Y005700D01*
X057445Y005542D02*
X055767Y005542D01*
X055450Y005859D02*
X057762Y005859D01*
X057990Y006017D02*
X055222Y006017D01*
X051102Y005225D02*
X049485Y005225D01*
X049326Y005066D02*
X050881Y005066D01*
X050723Y004907D02*
X049672Y004907D01*
X049572Y004907D02*
X049496Y004907D01*
X049396Y004907D02*
X049168Y004907D01*
X049137Y004749D02*
X049009Y004749D01*
X049037Y004590D02*
X048851Y004590D01*
X048999Y004432D02*
X048696Y004432D01*
X048693Y004273D02*
X049011Y004273D01*
X049496Y004432D02*
X049572Y004432D01*
X049572Y004590D02*
X049496Y004590D01*
X049496Y004749D02*
X049572Y004749D01*
X049931Y004749D02*
X050564Y004749D01*
X050406Y004590D02*
X050031Y004590D01*
X050068Y004432D02*
X050247Y004432D01*
X050089Y004273D02*
X050056Y004273D01*
X048467Y005225D02*
X047423Y005225D01*
X047265Y005383D02*
X048625Y005383D01*
X048784Y005542D02*
X047106Y005542D01*
X046947Y005700D02*
X048942Y005700D01*
X049101Y005859D02*
X046789Y005859D01*
X046561Y006017D02*
X049329Y006017D01*
X048308Y005066D02*
X047582Y005066D01*
X047740Y004907D02*
X047942Y004907D01*
X046394Y005236D02*
X046326Y005303D01*
X040902Y005303D01*
X040035Y004436D01*
X040035Y004280D01*
X040012Y004227D01*
X040066Y004249D01*
X040287Y004249D01*
X040367Y004215D01*
X040351Y004265D01*
X040338Y004348D01*
X040338Y004352D01*
X040834Y004352D01*
X040834Y004429D01*
X040834Y004925D01*
X040830Y004925D01*
X040747Y004912D01*
X040667Y004886D01*
X040592Y004847D01*
X040524Y004798D01*
X040465Y004739D01*
X040415Y004671D01*
X040377Y004596D01*
X040351Y004516D01*
X040338Y004433D01*
X040338Y004429D01*
X040834Y004429D01*
X040910Y004429D01*
X040910Y004925D01*
X040914Y004925D01*
X040997Y004912D01*
X041077Y004886D01*
X041152Y004847D01*
X041220Y004798D01*
X041280Y004739D01*
X041329Y004671D01*
X041368Y004596D01*
X041394Y004516D01*
X041407Y004433D01*
X041407Y004429D01*
X040911Y004429D01*
X040911Y004352D01*
X041407Y004352D01*
X041407Y004348D01*
X041394Y004265D01*
X041381Y004227D01*
X042233Y005079D01*
X042335Y005181D01*
X042467Y005236D01*
X046394Y005236D01*
X042440Y005225D02*
X040824Y005225D01*
X040665Y005066D02*
X042220Y005066D01*
X042061Y004907D02*
X041010Y004907D01*
X040910Y004907D02*
X040834Y004907D01*
X040734Y004907D02*
X040506Y004907D01*
X040475Y004749D02*
X040348Y004749D01*
X040376Y004590D02*
X040189Y004590D01*
X040338Y004432D02*
X040035Y004432D01*
X040032Y004273D02*
X040350Y004273D01*
X040834Y004432D02*
X040910Y004432D01*
X040910Y004590D02*
X040834Y004590D01*
X040834Y004749D02*
X040910Y004749D01*
X041269Y004749D02*
X041903Y004749D01*
X041744Y004590D02*
X041369Y004590D01*
X041407Y004432D02*
X041586Y004432D01*
X041427Y004273D02*
X041395Y004273D01*
X039805Y005225D02*
X038762Y005225D01*
X038603Y005383D02*
X039964Y005383D01*
X040122Y005542D02*
X038445Y005542D01*
X038286Y005700D02*
X040281Y005700D01*
X040440Y005859D02*
X038127Y005859D01*
X037899Y006017D02*
X040668Y006017D01*
X039647Y005066D02*
X038920Y005066D01*
X039079Y004907D02*
X039280Y004907D01*
X037733Y005236D02*
X037665Y005303D01*
X032241Y005303D01*
X031373Y004436D01*
X031373Y004280D01*
X031351Y004227D01*
X031405Y004249D01*
X031625Y004249D01*
X031706Y004215D01*
X031690Y004265D01*
X031677Y004348D01*
X031677Y004352D01*
X032173Y004352D01*
X032173Y004429D01*
X032173Y004925D01*
X032169Y004925D01*
X032086Y004912D01*
X032006Y004886D01*
X031931Y004847D01*
X031863Y004798D01*
X031803Y004739D01*
X031754Y004671D01*
X031716Y004596D01*
X031690Y004516D01*
X031677Y004433D01*
X031677Y004429D01*
X032173Y004429D01*
X032249Y004429D01*
X032249Y004925D01*
X032253Y004925D01*
X032336Y004912D01*
X032416Y004886D01*
X032491Y004847D01*
X032559Y004798D01*
X032618Y004739D01*
X032668Y004671D01*
X032706Y004596D01*
X032732Y004516D01*
X032745Y004433D01*
X032745Y004429D01*
X032249Y004429D01*
X032249Y004352D01*
X032745Y004352D01*
X032745Y004348D01*
X032732Y004265D01*
X032720Y004227D01*
X033572Y005079D01*
X033673Y005181D01*
X033806Y005236D01*
X037733Y005236D01*
X035178Y006176D02*
X030962Y006176D01*
X031121Y006334D02*
X035080Y006334D01*
X035064Y006493D02*
X031279Y006493D01*
X031438Y006651D02*
X035115Y006651D01*
X035306Y006810D02*
X031596Y006810D01*
X030895Y007127D02*
X027151Y007127D01*
X027151Y006969D02*
X030737Y006969D01*
X030578Y006810D02*
X027151Y006810D01*
X027151Y006651D02*
X030420Y006651D01*
X030261Y006493D02*
X027151Y006493D01*
X027151Y006334D02*
X030102Y006334D01*
X029944Y006176D02*
X027180Y006176D01*
X027339Y006017D02*
X029785Y006017D01*
X029200Y005859D02*
X027498Y005859D01*
X027656Y005700D02*
X029061Y005700D01*
X029021Y005542D02*
X027815Y005542D01*
X027973Y005383D02*
X029047Y005383D01*
X030038Y005225D02*
X031144Y005225D01*
X031303Y005383D02*
X030169Y005383D01*
X030328Y005542D02*
X031461Y005542D01*
X031620Y005700D02*
X030486Y005700D01*
X030645Y005859D02*
X031778Y005859D01*
X032006Y006017D02*
X030804Y006017D01*
X030985Y005066D02*
X030259Y005066D01*
X030417Y004907D02*
X030619Y004907D01*
X029875Y004432D02*
X028823Y004432D01*
X029088Y004273D02*
X030033Y004273D01*
X030192Y004115D02*
X029234Y004115D01*
X029299Y003956D02*
X030469Y003956D01*
X030961Y003798D02*
X029343Y003798D01*
X029343Y003639D02*
X030961Y003639D01*
X030534Y003481D02*
X029319Y003481D01*
X029253Y003322D02*
X030359Y003322D01*
X030287Y003164D02*
X029136Y003164D01*
X028939Y003005D02*
X030265Y003005D01*
X030282Y002846D02*
X026397Y002846D01*
X026397Y002688D02*
X030348Y002688D01*
X030504Y002529D02*
X026397Y002529D01*
X026397Y002371D02*
X031148Y002371D01*
X031307Y002212D02*
X026397Y002212D01*
X026397Y002054D02*
X031466Y002054D01*
X031603Y001916D02*
X031603Y001916D01*
X031624Y001895D02*
X026397Y001895D01*
X026397Y001737D02*
X028204Y001737D01*
X028025Y001578D02*
X026397Y001578D01*
X026397Y001420D02*
X027930Y001420D01*
X027870Y001261D02*
X026397Y001261D01*
X026456Y001102D02*
X027870Y001102D01*
X027892Y000944D02*
X026547Y000944D01*
X026703Y000785D02*
X027958Y000785D01*
X028091Y000627D02*
X026914Y000627D01*
X029033Y000627D02*
X031467Y000627D01*
X031563Y000627D02*
X033997Y000627D01*
X033863Y000785D02*
X032066Y000785D01*
X032005Y000944D02*
X033797Y000944D01*
X033775Y001102D02*
X031869Y001102D01*
X031563Y001102D02*
X031467Y001102D01*
X031467Y000944D02*
X031563Y000944D01*
X031563Y000785D02*
X031467Y000785D01*
X031161Y001102D02*
X029255Y001102D01*
X029255Y001261D02*
X033775Y001261D01*
X033836Y001420D02*
X029194Y001420D01*
X029099Y001578D02*
X033931Y001578D01*
X034109Y001737D02*
X028921Y001737D01*
X029232Y000944D02*
X031025Y000944D01*
X030963Y000785D02*
X029167Y000785D01*
X032981Y001895D02*
X040285Y001895D01*
X040127Y002054D02*
X033139Y002054D01*
X034826Y001737D02*
X036865Y001737D01*
X036687Y001578D02*
X035005Y001578D01*
X035100Y001420D02*
X036592Y001420D01*
X036531Y001261D02*
X035160Y001261D01*
X035160Y001102D02*
X036531Y001102D01*
X036553Y000944D02*
X035138Y000944D01*
X035072Y000785D02*
X036619Y000785D01*
X036753Y000627D02*
X034939Y000627D01*
X037694Y000627D02*
X040128Y000627D01*
X040128Y000711D02*
X039613Y000711D01*
X039626Y000795D01*
X039654Y000879D01*
X039694Y000959D01*
X039746Y001030D01*
X039809Y001093D01*
X039881Y001145D01*
X039960Y001186D01*
X040044Y001213D01*
X040128Y001226D01*
X040128Y000711D01*
X040128Y000785D02*
X040224Y000785D01*
X040225Y000627D02*
X042658Y000627D01*
X042524Y000785D02*
X040728Y000785D01*
X040666Y000944D02*
X042459Y000944D01*
X042437Y001102D02*
X040531Y001102D01*
X040224Y001102D02*
X040128Y001102D01*
X040128Y000944D02*
X040224Y000944D01*
X039822Y001102D02*
X037916Y001102D01*
X037916Y001261D02*
X042437Y001261D01*
X042497Y001420D02*
X037856Y001420D01*
X037760Y001578D02*
X042592Y001578D01*
X042771Y001737D02*
X037582Y001737D01*
X039203Y002212D02*
X039968Y002212D01*
X039810Y002371D02*
X039362Y002371D01*
X041642Y001895D02*
X048947Y001895D01*
X048788Y002054D02*
X041801Y002054D01*
X043488Y001737D02*
X045527Y001737D01*
X045348Y001578D02*
X043666Y001578D01*
X043761Y001420D02*
X045253Y001420D01*
X045192Y001261D02*
X043822Y001261D01*
X043822Y001102D02*
X045192Y001102D01*
X045215Y000944D02*
X043799Y000944D01*
X043734Y000785D02*
X045280Y000785D01*
X045414Y000627D02*
X043600Y000627D01*
X046356Y000627D02*
X048790Y000627D01*
X048886Y000627D02*
X051320Y000627D01*
X051186Y000785D02*
X049389Y000785D01*
X049327Y000944D02*
X051120Y000944D01*
X051098Y001102D02*
X049192Y001102D01*
X048886Y001102D02*
X048790Y001102D01*
X048790Y000944D02*
X048886Y000944D01*
X048886Y000785D02*
X048790Y000785D01*
X048483Y001102D02*
X046578Y001102D01*
X046578Y001261D02*
X051098Y001261D01*
X051159Y001420D02*
X046517Y001420D01*
X046422Y001578D02*
X051254Y001578D01*
X051432Y001737D02*
X046243Y001737D01*
X047865Y002212D02*
X048630Y002212D01*
X048471Y002371D02*
X048023Y002371D01*
X050303Y001895D02*
X057608Y001895D01*
X057450Y002054D02*
X050462Y002054D01*
X052149Y001737D02*
X054188Y001737D01*
X054010Y001578D02*
X052327Y001578D01*
X052423Y001420D02*
X053914Y001420D01*
X053854Y001261D02*
X052483Y001261D01*
X052483Y001102D02*
X053854Y001102D01*
X053876Y000944D02*
X052461Y000944D01*
X052395Y000785D02*
X053942Y000785D01*
X054076Y000627D02*
X052261Y000627D01*
X055017Y000627D02*
X057451Y000627D01*
X057451Y000711D02*
X056936Y000711D01*
X056949Y000795D01*
X056977Y000879D01*
X057017Y000959D01*
X057069Y001030D01*
X057132Y001093D01*
X057204Y001145D01*
X057283Y001186D01*
X057367Y001213D01*
X057451Y001226D01*
X057451Y000711D01*
X057451Y000785D02*
X057547Y000785D01*
X057547Y000711D02*
X057547Y001226D01*
X057631Y001213D01*
X057716Y001186D01*
X057795Y001145D01*
X057867Y001093D01*
X057929Y001030D01*
X057981Y000959D01*
X058022Y000879D01*
X058049Y000795D01*
X058062Y000711D01*
X057547Y000711D01*
X057547Y000627D02*
X059981Y000627D01*
X059847Y000785D02*
X058051Y000785D01*
X057989Y000944D02*
X059782Y000944D01*
X059759Y001102D02*
X057854Y001102D01*
X057547Y001102D02*
X057451Y001102D01*
X057451Y000944D02*
X057547Y000944D01*
X057145Y001102D02*
X055239Y001102D01*
X055239Y001261D02*
X059759Y001261D01*
X059820Y001420D02*
X055178Y001420D01*
X055083Y001578D02*
X059915Y001578D01*
X060094Y001737D02*
X054905Y001737D01*
X056526Y002212D02*
X057291Y002212D01*
X057133Y002371D02*
X056685Y002371D01*
X057010Y000944D02*
X055217Y000944D01*
X055151Y000785D02*
X056948Y000785D01*
X060810Y001737D02*
X062849Y001737D01*
X062671Y001578D02*
X060989Y001578D01*
X061084Y001420D02*
X062576Y001420D01*
X062515Y001261D02*
X061145Y001261D01*
X061145Y001102D02*
X062515Y001102D01*
X062538Y000944D02*
X061122Y000944D01*
X061057Y000785D02*
X062603Y000785D01*
X062737Y000627D02*
X060923Y000627D01*
X063679Y000627D02*
X066112Y000627D01*
X066209Y000627D02*
X068642Y000627D01*
X068509Y000785D02*
X066712Y000785D01*
X066650Y000944D02*
X068443Y000944D01*
X068421Y001102D02*
X066515Y001102D01*
X066209Y001102D02*
X066113Y001102D01*
X066113Y000944D02*
X066209Y000944D01*
X066209Y000785D02*
X066113Y000785D01*
X065806Y001102D02*
X063900Y001102D01*
X063900Y001261D02*
X068421Y001261D01*
X068481Y001420D02*
X063840Y001420D01*
X063745Y001578D02*
X068577Y001578D01*
X068755Y001737D02*
X063566Y001737D01*
X063878Y000944D02*
X065671Y000944D01*
X065609Y000785D02*
X063812Y000785D01*
X069472Y001737D02*
X071583Y001737D01*
X071762Y001737D02*
X074428Y001737D01*
X074428Y001895D02*
X071997Y001895D01*
X072116Y002054D02*
X074428Y002054D01*
X074428Y002212D02*
X074257Y002212D01*
X073930Y002212D02*
X072274Y002212D01*
X072433Y002371D02*
X073634Y002371D01*
X073488Y002529D02*
X072591Y002529D01*
X072750Y002688D02*
X073422Y002688D01*
X073389Y002846D02*
X072908Y002846D01*
X073067Y003005D02*
X073389Y003005D01*
X073437Y003164D02*
X073225Y003164D01*
X073384Y003322D02*
X073513Y003322D01*
X073542Y003481D02*
X073671Y003481D01*
X073607Y003639D02*
X074428Y003639D01*
X074428Y003798D02*
X073607Y003798D01*
X073607Y003956D02*
X074428Y003956D01*
X074428Y004115D02*
X073607Y004115D01*
X073607Y004273D02*
X074428Y004273D01*
X074428Y004432D02*
X073607Y004432D01*
X073607Y004590D02*
X074428Y004590D01*
X074428Y004749D02*
X073607Y004749D01*
X073607Y004907D02*
X073894Y004907D01*
X073699Y005066D02*
X073607Y005066D01*
X073607Y005225D02*
X073647Y005225D01*
X073662Y005383D02*
X073607Y005383D01*
X073607Y005542D02*
X073675Y005542D01*
X073675Y005700D02*
X073607Y005700D01*
X073607Y005859D02*
X073675Y005859D01*
X073675Y006017D02*
X073607Y006017D01*
X073607Y006176D02*
X073675Y006176D01*
X073675Y006334D02*
X073607Y006334D01*
X073607Y006493D02*
X073675Y006493D01*
X073675Y006651D02*
X073607Y006651D01*
X073607Y006810D02*
X073675Y006810D01*
X073675Y006969D02*
X073607Y006969D01*
X073607Y007127D02*
X073675Y007127D01*
X073675Y007286D02*
X073607Y007286D01*
X073550Y007444D02*
X073675Y007444D01*
X073675Y007603D02*
X073391Y007603D01*
X073233Y007761D02*
X073675Y007761D01*
X073675Y007920D02*
X073214Y007920D01*
X073214Y008078D02*
X073675Y008078D01*
X073675Y008237D02*
X073214Y008237D01*
X073242Y008395D02*
X073549Y008395D01*
X073390Y008554D02*
X073218Y008554D01*
X073232Y008713D02*
X073109Y008713D01*
X073073Y008871D02*
X072061Y008871D01*
X072051Y008713D02*
X072598Y008713D01*
X072489Y008554D02*
X072032Y008554D01*
X072032Y008395D02*
X072465Y008395D01*
X072494Y008237D02*
X072032Y008237D01*
X072032Y008078D02*
X072494Y008078D01*
X072494Y007920D02*
X072032Y007920D01*
X072032Y007761D02*
X072494Y007761D01*
X072494Y007603D02*
X072032Y007603D01*
X072032Y007444D02*
X072541Y007444D01*
X072690Y007286D02*
X072032Y007286D01*
X072016Y007127D02*
X072849Y007127D01*
X072887Y006969D02*
X072485Y006969D01*
X072644Y006810D02*
X072887Y006810D01*
X072887Y006651D02*
X072721Y006651D01*
X072771Y006493D02*
X072887Y006493D01*
X072887Y006334D02*
X072771Y006334D01*
X072739Y006176D02*
X072887Y006176D01*
X072887Y006017D02*
X072674Y006017D01*
X072530Y005859D02*
X072887Y005859D01*
X072887Y005700D02*
X072238Y005700D01*
X071894Y005700D02*
X071639Y005700D01*
X071639Y005542D02*
X072887Y005542D01*
X072887Y005383D02*
X071639Y005383D01*
X071639Y005225D02*
X072887Y005225D01*
X072887Y005066D02*
X071639Y005066D01*
X071756Y004907D02*
X072887Y004907D01*
X072887Y004749D02*
X071914Y004749D01*
X072073Y004590D02*
X072887Y004590D01*
X072887Y004432D02*
X072232Y004432D01*
X072390Y004273D02*
X072887Y004273D01*
X072887Y004115D02*
X072549Y004115D01*
X072747Y003956D02*
X072887Y003956D01*
X072841Y003798D02*
X072837Y003798D01*
X074175Y004907D02*
X074428Y004907D01*
X074428Y005066D02*
X074370Y005066D01*
X074423Y005225D02*
X074428Y005225D01*
X074428Y005383D02*
X074408Y005383D01*
X074395Y005542D02*
X074428Y005542D01*
X074428Y005700D02*
X074395Y005700D01*
X074395Y005859D02*
X074428Y005859D01*
X074428Y006017D02*
X074395Y006017D01*
X074395Y006176D02*
X074428Y006176D01*
X074428Y006334D02*
X074395Y006334D01*
X074395Y006493D02*
X074428Y006493D01*
X074428Y006651D02*
X074395Y006651D01*
X074395Y006810D02*
X074428Y006810D01*
X074428Y006969D02*
X074395Y006969D01*
X074395Y007127D02*
X074428Y007127D01*
X074428Y007286D02*
X074395Y007286D01*
X074395Y007444D02*
X074428Y007444D01*
X074428Y007603D02*
X074395Y007603D01*
X074395Y007761D02*
X074428Y007761D01*
X074428Y007920D02*
X074395Y007920D01*
X074395Y008078D02*
X074428Y008078D01*
X074428Y008237D02*
X074395Y008237D01*
X074395Y008395D02*
X074428Y008395D01*
X074428Y008554D02*
X074368Y008554D01*
X074428Y008713D02*
X074250Y008713D01*
X074092Y008871D02*
X074428Y008871D01*
X074428Y009030D02*
X073933Y009030D01*
X073774Y009188D02*
X074428Y009188D01*
X074428Y009347D02*
X073616Y009347D01*
X073457Y009505D02*
X074428Y009505D01*
X074428Y009664D02*
X073299Y009664D01*
X073140Y009822D02*
X074428Y009822D01*
X074428Y009981D02*
X072597Y009981D01*
X072701Y010139D02*
X074418Y010139D01*
X074327Y010298D02*
X072767Y010298D01*
X072771Y010456D02*
X074206Y010456D01*
X074048Y010615D02*
X072759Y010615D01*
X072693Y010774D02*
X073782Y010774D01*
X071439Y010774D02*
X068605Y010774D01*
X068441Y010774D02*
X063093Y010774D01*
X062929Y010774D02*
X057581Y010774D01*
X057417Y010774D02*
X052069Y010774D01*
X051906Y010774D02*
X046557Y010774D01*
X046394Y010774D02*
X041046Y010774D01*
X040882Y010774D02*
X035534Y010774D01*
X035370Y010774D02*
X029235Y010774D01*
X028386Y009505D02*
X033234Y009505D01*
X033115Y009347D02*
X028227Y009347D01*
X028069Y009188D02*
X032956Y009188D01*
X032798Y009030D02*
X031822Y009030D01*
X032000Y008871D02*
X032639Y008871D01*
X032481Y008713D02*
X032097Y008713D01*
X032160Y008554D02*
X032322Y008554D01*
X032164Y008395D02*
X032160Y008395D01*
X032865Y008078D02*
X034890Y008078D01*
X034824Y008237D02*
X033023Y008237D01*
X033182Y008395D02*
X034807Y008395D01*
X034807Y008554D02*
X033340Y008554D01*
X033499Y008713D02*
X034870Y008713D01*
X033617Y007920D02*
X032706Y007920D01*
X032547Y007761D02*
X033511Y007761D01*
X033489Y007603D02*
X032389Y007603D01*
X032230Y007444D02*
X033535Y007444D01*
X033698Y007286D02*
X032072Y007286D01*
X031371Y007603D02*
X027151Y007603D01*
X027151Y007761D02*
X031203Y007761D01*
X030959Y007920D02*
X027151Y007920D01*
X027151Y008078D02*
X030834Y008078D01*
X030769Y008237D02*
X027151Y008237D01*
X027276Y008395D02*
X030751Y008395D01*
X030751Y008554D02*
X027435Y008554D01*
X027593Y008713D02*
X030815Y008713D01*
X030912Y008871D02*
X027752Y008871D01*
X027910Y009030D02*
X031090Y009030D01*
X031212Y007444D02*
X027151Y007444D01*
X027151Y007286D02*
X031054Y007286D01*
X032162Y005225D02*
X033779Y005225D01*
X033559Y005066D02*
X032004Y005066D01*
X032073Y004907D02*
X031845Y004907D01*
X031814Y004749D02*
X031686Y004749D01*
X031714Y004590D02*
X031528Y004590D01*
X031677Y004432D02*
X031373Y004432D01*
X031370Y004273D02*
X031688Y004273D01*
X032173Y004432D02*
X032249Y004432D01*
X032249Y004590D02*
X032173Y004590D01*
X032173Y004749D02*
X032249Y004749D01*
X032249Y004907D02*
X032173Y004907D01*
X032349Y004907D02*
X033400Y004907D01*
X033241Y004749D02*
X032608Y004749D01*
X032708Y004590D02*
X033083Y004590D01*
X032924Y004432D02*
X032745Y004432D01*
X032733Y004273D02*
X032766Y004273D01*
X028186Y003005D02*
X026397Y003005D01*
X026397Y003164D02*
X027988Y003164D01*
X027871Y003322D02*
X026397Y003322D01*
X037828Y000785D02*
X039625Y000785D01*
X039687Y000944D02*
X037894Y000944D01*
X046490Y000785D02*
X048286Y000785D01*
X048348Y000944D02*
X046555Y000944D01*
X063323Y007761D02*
X064274Y007761D01*
X064030Y007920D02*
X063567Y007920D01*
X063691Y008078D02*
X063905Y008078D01*
X063840Y008237D02*
X063757Y008237D01*
X063774Y008395D02*
X063822Y008395D01*
X063822Y008554D02*
X063774Y008554D01*
X063711Y008713D02*
X063886Y008713D01*
X065168Y008713D02*
X067941Y008713D01*
X067877Y008554D02*
X065231Y008554D01*
X065231Y008395D02*
X067877Y008395D01*
X067895Y008237D02*
X065214Y008237D01*
X065148Y008078D02*
X067960Y008078D01*
X068085Y007920D02*
X065024Y007920D01*
X064780Y007761D02*
X068329Y007761D01*
X068038Y008871D02*
X066759Y008871D01*
X066901Y009030D02*
X068216Y009030D01*
X066942Y009188D02*
X071565Y009188D01*
X071780Y009188D02*
X072756Y009188D01*
X072915Y009030D02*
X072003Y009030D01*
X071536Y009981D02*
X069438Y009981D01*
X069280Y010139D02*
X071431Y010139D01*
X071365Y010298D02*
X069121Y010298D01*
X068963Y010456D02*
X071362Y010456D01*
X071374Y010615D02*
X068844Y010615D01*
X062429Y008713D02*
X059656Y008713D01*
X059719Y008554D02*
X062366Y008554D01*
X062366Y008395D02*
X059719Y008395D01*
X059702Y008237D02*
X062383Y008237D01*
X062449Y008078D02*
X059636Y008078D01*
X065890Y004749D02*
X066459Y004749D01*
X066360Y004590D02*
X065982Y004590D01*
X066019Y004432D02*
X066322Y004432D01*
X066334Y004273D02*
X066016Y004273D01*
X066818Y004273D02*
X066895Y004273D01*
X066895Y004115D02*
X066818Y004115D01*
X066818Y003956D02*
X066895Y003956D01*
X066895Y004432D02*
X066818Y004432D01*
X066818Y004590D02*
X066895Y004590D01*
X066895Y004749D02*
X066818Y004749D01*
X069650Y001578D02*
X074428Y001578D01*
X074428Y001420D02*
X069745Y001420D01*
X069806Y001261D02*
X074428Y001261D01*
X074370Y001102D02*
X069806Y001102D01*
X069784Y000944D02*
X074278Y000944D01*
X074122Y000785D02*
X069718Y000785D01*
X069584Y000627D02*
X073911Y000627D01*
M02*
