G75*
G70*
%OFA0B0*%
%FSLAX24Y24*%
%IPPOS*%
%LPD*%
%AMOC8*
5,1,8,0,0,1.08239X$1,22.5*
%
%ADD10C,0.0060*%
%ADD11C,0.0160*%
%ADD12C,0.0120*%
%ADD13C,0.0070*%
%ADD14C,0.0020*%
%ADD15C,0.0050*%
%ADD16C,0.0079*%
D10*
X028789Y006904D02*
X029216Y007545D01*
X029434Y007225D02*
X029861Y007225D01*
X030078Y007438D02*
X030185Y007545D01*
X030398Y007545D01*
X030505Y007438D01*
X030505Y007331D01*
X030078Y006904D01*
X030505Y006904D01*
X030723Y007011D02*
X030829Y006904D01*
X031043Y006904D01*
X031150Y007011D01*
X031150Y007438D01*
X030723Y007011D01*
X030723Y007438D01*
X030829Y007545D01*
X031043Y007545D01*
X031150Y007438D01*
X031367Y007545D02*
X031367Y007225D01*
X031581Y007331D01*
X031687Y007331D01*
X031794Y007225D01*
X031794Y007011D01*
X031687Y006904D01*
X031474Y006904D01*
X031367Y007011D01*
X031367Y007545D02*
X031794Y007545D01*
X029216Y006904D02*
X028789Y007545D01*
X037450Y007545D02*
X037877Y006904D01*
X037450Y006904D02*
X037877Y007545D01*
X038095Y007225D02*
X038522Y007225D01*
X038740Y007438D02*
X038846Y007545D01*
X039060Y007545D01*
X039167Y007438D01*
X039167Y007331D01*
X038740Y006904D01*
X039167Y006904D01*
X039384Y007011D02*
X039491Y006904D01*
X039704Y006904D01*
X039811Y007011D01*
X039811Y007438D01*
X039384Y007011D01*
X039384Y007438D01*
X039491Y007545D01*
X039704Y007545D01*
X039811Y007438D01*
X040029Y007438D02*
X040135Y007545D01*
X040349Y007545D01*
X040456Y007438D01*
X040456Y007331D01*
X040029Y006904D01*
X040456Y006904D01*
X046112Y006904D02*
X046539Y007545D01*
X046756Y007225D02*
X047183Y007225D01*
X047401Y007438D02*
X047508Y007545D01*
X047721Y007545D01*
X047828Y007438D01*
X047828Y007331D01*
X047401Y006904D01*
X047828Y006904D01*
X048045Y007011D02*
X048152Y006904D01*
X048366Y006904D01*
X048472Y007011D01*
X048472Y007438D01*
X048045Y007011D01*
X048045Y007438D01*
X048152Y007545D01*
X048366Y007545D01*
X048472Y007438D01*
X048690Y007331D02*
X048904Y007545D01*
X048904Y006904D01*
X049117Y006904D02*
X048690Y006904D01*
X046539Y006904D02*
X046112Y007545D01*
X054773Y007545D02*
X055200Y006904D01*
X054773Y006904D02*
X055200Y007545D01*
X055418Y007225D02*
X055845Y007225D01*
X056062Y007438D02*
X056169Y007545D01*
X056383Y007545D01*
X056489Y007438D01*
X056489Y007331D01*
X056062Y006904D01*
X056489Y006904D01*
X056707Y007011D02*
X056814Y006904D01*
X057027Y006904D01*
X057134Y007011D01*
X057134Y007438D01*
X056707Y007011D01*
X056707Y007438D01*
X056814Y007545D01*
X057027Y007545D01*
X057134Y007438D01*
X057351Y007225D02*
X057778Y007225D01*
X057672Y007545D02*
X057351Y007225D01*
X057672Y006904D02*
X057672Y007545D01*
X063435Y007545D02*
X063862Y006904D01*
X063435Y006904D02*
X063862Y007545D01*
X064079Y007225D02*
X064506Y007225D01*
X064724Y007438D02*
X064831Y007545D01*
X065044Y007545D01*
X065151Y007438D01*
X065151Y007331D01*
X064724Y006904D01*
X065151Y006904D01*
X065368Y007011D02*
X065475Y006904D01*
X065689Y006904D01*
X065795Y007011D01*
X065795Y007438D01*
X065368Y007011D01*
X065368Y007438D01*
X065475Y007545D01*
X065689Y007545D01*
X065795Y007438D01*
X066013Y007438D02*
X066013Y007331D01*
X066120Y007225D01*
X066333Y007225D01*
X066440Y007118D01*
X066440Y007011D01*
X066333Y006904D01*
X066120Y006904D01*
X066013Y007011D01*
X066013Y007118D01*
X066120Y007225D01*
X066333Y007225D02*
X066440Y007331D01*
X066440Y007438D01*
X066333Y007545D01*
X066120Y007545D01*
X066013Y007438D01*
X068246Y007440D02*
X068246Y007227D01*
X068353Y007120D01*
X068246Y007440D02*
X068353Y007547D01*
X068460Y007547D01*
X068887Y007120D01*
X068887Y007547D01*
X069821Y007334D02*
X070034Y007547D01*
X070461Y007547D01*
X070141Y007547D02*
X070141Y007120D01*
X070034Y007120D02*
X069821Y007334D01*
X070034Y007120D02*
X070461Y007120D01*
X072096Y006904D02*
X072523Y007545D01*
X072741Y007225D02*
X073168Y007225D01*
X073385Y007438D02*
X073492Y007545D01*
X073705Y007545D01*
X073812Y007438D01*
X073812Y007331D01*
X073385Y006904D01*
X073812Y006904D01*
X074030Y007011D02*
X074136Y006904D01*
X074350Y006904D01*
X074457Y007011D01*
X074457Y007438D01*
X074030Y007011D01*
X074030Y007438D01*
X074136Y007545D01*
X074350Y007545D01*
X074457Y007438D01*
X074674Y007438D02*
X074781Y007545D01*
X074994Y007545D01*
X075101Y007438D01*
X075101Y007331D01*
X074994Y007225D01*
X075101Y007118D01*
X075101Y007011D01*
X074994Y006904D01*
X074781Y006904D01*
X074674Y007011D01*
X074888Y007225D02*
X074994Y007225D01*
X072523Y006904D02*
X072096Y007545D01*
X070461Y006258D02*
X069821Y006258D01*
X069821Y005831D02*
X070461Y006258D01*
X070461Y005831D02*
X069821Y005831D01*
X070034Y005614D02*
X070461Y005614D01*
X070141Y005614D02*
X070141Y005187D01*
X070034Y005187D02*
X069821Y005400D01*
X070034Y005614D01*
X068887Y005614D02*
X068460Y005614D01*
X068246Y005400D01*
X068460Y005187D01*
X068887Y005187D01*
X068780Y004969D02*
X068887Y004862D01*
X068887Y004649D01*
X068780Y004542D01*
X068353Y004542D01*
X068246Y004649D01*
X068246Y004862D01*
X068353Y004969D01*
X068566Y005187D02*
X068566Y005614D01*
X068246Y005831D02*
X068887Y006258D01*
X068246Y006258D01*
X068246Y005831D02*
X068887Y005831D01*
X070034Y005187D02*
X070461Y005187D01*
X070355Y004969D02*
X070461Y004862D01*
X070461Y004649D01*
X070355Y004542D01*
X069928Y004542D01*
X069821Y004649D01*
X069821Y004862D01*
X069928Y004969D01*
D11*
X069310Y004906D02*
X069310Y005300D01*
X069310Y005693D02*
X069310Y006087D01*
X069310Y006481D02*
X069310Y006874D01*
X069310Y007268D02*
X069310Y007662D01*
X069310Y008055D02*
X069310Y008449D01*
X069310Y008843D02*
X069310Y009237D01*
X069310Y009630D02*
X069310Y010024D01*
X069310Y010418D02*
X069310Y010811D01*
X069310Y004512D02*
X069310Y004118D01*
X069310Y003725D02*
X069310Y003331D01*
X069310Y002937D02*
X069310Y002544D01*
X069310Y002150D02*
X069310Y001756D01*
X069310Y001363D02*
X069310Y000969D01*
X069310Y000575D02*
X069310Y000181D01*
D12*
X044739Y008836D02*
X044739Y010217D01*
X045429Y010217D01*
X045659Y009987D01*
X045659Y009527D01*
X045429Y009297D01*
X044739Y009297D01*
X044278Y009297D02*
X043588Y009757D01*
X044278Y010217D01*
X043127Y010217D02*
X042437Y010217D01*
X042207Y009987D01*
X042207Y009527D01*
X042437Y009297D01*
X043127Y009297D01*
X043588Y009297D02*
X043588Y010678D01*
X041746Y009987D02*
X041746Y009297D01*
X041056Y009297D01*
X040825Y009527D01*
X041056Y009757D01*
X041746Y009757D01*
X041746Y009987D02*
X041516Y010217D01*
X041056Y010217D01*
X040365Y010217D02*
X040365Y010447D01*
X040135Y010678D01*
X039444Y010678D01*
X039444Y009297D01*
X040135Y009297D01*
X040365Y009527D01*
X040365Y009757D01*
X040135Y009987D01*
X039444Y009987D01*
X040135Y009987D02*
X040365Y010217D01*
X037603Y010678D02*
X037603Y009297D01*
X036682Y010678D01*
X036682Y009297D01*
X036222Y009297D02*
X036222Y010217D01*
X035761Y010678D01*
X035301Y010217D01*
X035301Y009297D01*
X034841Y009527D02*
X034610Y009297D01*
X034150Y009297D01*
X033920Y009527D01*
X033920Y010447D01*
X034150Y010678D01*
X034610Y010678D01*
X034841Y010447D01*
X035301Y009987D02*
X036222Y009987D01*
X032078Y010217D02*
X031388Y009757D01*
X032078Y009297D01*
X031388Y009297D02*
X031388Y010678D01*
X030697Y010217D02*
X030007Y010217D01*
X030007Y009297D01*
X029546Y009297D02*
X028856Y009297D01*
X028625Y009527D01*
X028856Y009757D01*
X029546Y009757D01*
X029546Y009987D02*
X029546Y009297D01*
X030927Y009297D02*
X030927Y009987D01*
X030697Y010217D01*
X029546Y009987D02*
X029316Y010217D01*
X028856Y010217D01*
X028165Y010678D02*
X027244Y010678D01*
X027705Y010678D02*
X027705Y009297D01*
X046120Y009297D02*
X046580Y009297D01*
X046350Y009297D02*
X046350Y010678D01*
X046120Y010678D01*
X047271Y010217D02*
X047731Y010217D01*
X047961Y009987D01*
X047961Y009297D01*
X047271Y009297D01*
X047041Y009527D01*
X047271Y009757D01*
X047961Y009757D01*
X048422Y010217D02*
X049112Y010217D01*
X049342Y009987D01*
X049342Y009297D01*
X049803Y009527D02*
X049803Y009987D01*
X050033Y010217D01*
X050493Y010217D01*
X050724Y009987D01*
X050724Y009757D01*
X049803Y009757D01*
X049803Y009527D02*
X050033Y009297D01*
X050493Y009297D01*
X048422Y009297D02*
X048422Y010217D01*
D13*
X053361Y010062D02*
X053361Y009535D01*
X053625Y009272D01*
X053888Y009535D01*
X053888Y010062D01*
X054153Y009667D02*
X054285Y009799D01*
X054548Y009799D01*
X054680Y009667D01*
X054680Y009535D01*
X054153Y009535D01*
X054153Y009403D02*
X054153Y009667D01*
X054153Y009403D02*
X054285Y009272D01*
X054548Y009272D01*
X054945Y009272D02*
X054945Y009799D01*
X055208Y009799D02*
X055340Y009799D01*
X055208Y009799D02*
X054945Y009535D01*
X055605Y009667D02*
X055736Y009799D01*
X056132Y009799D01*
X056396Y009799D02*
X056528Y009799D01*
X056528Y009272D01*
X056396Y009272D02*
X056660Y009272D01*
X056924Y009403D02*
X057056Y009272D01*
X057320Y009272D01*
X057451Y009403D01*
X057451Y009667D01*
X057320Y009799D01*
X057056Y009799D01*
X056924Y009667D01*
X056924Y009403D01*
X056132Y009403D02*
X056000Y009535D01*
X055736Y009535D01*
X055605Y009667D01*
X055605Y009272D02*
X056000Y009272D01*
X056132Y009403D01*
X057716Y009272D02*
X057716Y009799D01*
X058111Y009799D01*
X058243Y009667D01*
X058243Y009272D01*
X059300Y009272D02*
X059827Y009272D01*
X059563Y009272D02*
X059563Y010062D01*
X059300Y009799D01*
X060092Y009403D02*
X060224Y009403D01*
X060224Y009272D01*
X060092Y009272D01*
X060092Y009403D01*
X060488Y009403D02*
X061015Y009930D01*
X061015Y009403D01*
X060883Y009272D01*
X060619Y009272D01*
X060488Y009403D01*
X060488Y009930D01*
X060619Y010062D01*
X060883Y010062D01*
X061015Y009930D01*
X056528Y010062D02*
X056528Y010194D01*
D14*
X062086Y010197D02*
X062090Y008528D01*
X062106Y008528D01*
X062499Y008134D01*
X063523Y008122D01*
X063924Y008524D01*
X063928Y009075D01*
X063661Y008949D01*
X063927Y008949D01*
X063927Y008931D02*
X063397Y008931D01*
X063397Y008913D02*
X063927Y008913D01*
X063927Y008895D02*
X063397Y008895D01*
X063397Y008876D02*
X063927Y008876D01*
X063927Y008858D02*
X063397Y008858D01*
X063397Y008840D02*
X063927Y008840D01*
X063927Y008822D02*
X063397Y008822D01*
X063397Y008811D02*
X063397Y009071D01*
X063661Y008949D01*
X063660Y008949D02*
X063397Y008949D01*
X063397Y008967D02*
X063621Y008967D01*
X063582Y008986D02*
X063397Y008986D01*
X063397Y009004D02*
X063542Y009004D01*
X063503Y009022D02*
X063397Y009022D01*
X063397Y009040D02*
X063463Y009040D01*
X063424Y009059D02*
X063397Y009059D01*
X063397Y008811D02*
X063279Y008693D01*
X062728Y008697D01*
X062629Y008796D01*
X062629Y009906D01*
X062739Y010012D01*
X063287Y010012D01*
X063393Y009914D01*
X063389Y009713D01*
X063669Y009599D01*
X063928Y009713D01*
X063928Y010201D01*
X063519Y010611D01*
X062507Y010614D01*
X062086Y010197D01*
X062086Y010189D02*
X063928Y010189D01*
X063928Y010171D02*
X062086Y010171D01*
X062086Y010152D02*
X063928Y010152D01*
X063928Y010134D02*
X062086Y010134D01*
X062086Y010116D02*
X063928Y010116D01*
X063928Y010098D02*
X062086Y010098D01*
X062086Y010079D02*
X063928Y010079D01*
X063928Y010061D02*
X062086Y010061D01*
X062086Y010043D02*
X063928Y010043D01*
X063928Y010025D02*
X062086Y010025D01*
X062086Y010006D02*
X062734Y010006D01*
X062715Y009988D02*
X062086Y009988D01*
X062086Y009970D02*
X062696Y009970D01*
X062677Y009952D02*
X062086Y009952D01*
X062086Y009934D02*
X062658Y009934D01*
X062639Y009915D02*
X062086Y009915D01*
X062087Y009897D02*
X062629Y009897D01*
X062629Y009879D02*
X062087Y009879D01*
X062087Y009861D02*
X062629Y009861D01*
X062629Y009842D02*
X062087Y009842D01*
X062087Y009824D02*
X062629Y009824D01*
X062629Y009806D02*
X062087Y009806D01*
X062087Y009788D02*
X062629Y009788D01*
X062629Y009770D02*
X062087Y009770D01*
X062087Y009751D02*
X062629Y009751D01*
X062629Y009733D02*
X062087Y009733D01*
X062087Y009715D02*
X062629Y009715D01*
X062629Y009697D02*
X062087Y009697D01*
X062087Y009678D02*
X062629Y009678D01*
X062629Y009660D02*
X062087Y009660D01*
X062087Y009642D02*
X062629Y009642D01*
X062629Y009624D02*
X062087Y009624D01*
X062087Y009605D02*
X062629Y009605D01*
X062629Y009587D02*
X062087Y009587D01*
X062087Y009569D02*
X062629Y009569D01*
X062629Y009551D02*
X062087Y009551D01*
X062087Y009533D02*
X062629Y009533D01*
X062629Y009514D02*
X062087Y009514D01*
X062087Y009496D02*
X062629Y009496D01*
X062629Y009478D02*
X062088Y009478D01*
X062088Y009460D02*
X062629Y009460D01*
X062629Y009441D02*
X062088Y009441D01*
X062088Y009423D02*
X062629Y009423D01*
X062629Y009405D02*
X062088Y009405D01*
X062088Y009387D02*
X062629Y009387D01*
X062629Y009369D02*
X062088Y009369D01*
X062088Y009350D02*
X062629Y009350D01*
X062629Y009332D02*
X062088Y009332D01*
X062088Y009314D02*
X062629Y009314D01*
X062629Y009296D02*
X062088Y009296D01*
X062088Y009277D02*
X062629Y009277D01*
X062629Y009259D02*
X062088Y009259D01*
X062088Y009241D02*
X062629Y009241D01*
X062629Y009223D02*
X062088Y009223D01*
X062088Y009204D02*
X062629Y009204D01*
X062629Y009186D02*
X062088Y009186D01*
X062088Y009168D02*
X062629Y009168D01*
X062629Y009150D02*
X062088Y009150D01*
X062088Y009132D02*
X062629Y009132D01*
X062629Y009113D02*
X062088Y009113D01*
X062088Y009095D02*
X062629Y009095D01*
X062629Y009077D02*
X062089Y009077D01*
X062089Y009059D02*
X062629Y009059D01*
X062629Y009040D02*
X062089Y009040D01*
X062089Y009022D02*
X062629Y009022D01*
X062629Y009004D02*
X062089Y009004D01*
X062089Y008986D02*
X062629Y008986D01*
X062629Y008967D02*
X062089Y008967D01*
X062089Y008949D02*
X062629Y008949D01*
X062629Y008931D02*
X062089Y008931D01*
X062089Y008913D02*
X062629Y008913D01*
X062629Y008895D02*
X062089Y008895D01*
X062089Y008876D02*
X062629Y008876D01*
X062629Y008858D02*
X062089Y008858D01*
X062089Y008840D02*
X062629Y008840D01*
X062629Y008822D02*
X062089Y008822D01*
X062089Y008803D02*
X062629Y008803D01*
X062640Y008785D02*
X062089Y008785D01*
X062089Y008767D02*
X062658Y008767D01*
X062676Y008749D02*
X062089Y008749D01*
X062089Y008731D02*
X062694Y008731D01*
X062712Y008712D02*
X062089Y008712D01*
X062089Y008694D02*
X063163Y008694D01*
X063280Y008694D02*
X063926Y008694D01*
X063926Y008676D02*
X062089Y008676D01*
X062089Y008658D02*
X063925Y008658D01*
X063925Y008639D02*
X062090Y008639D01*
X062090Y008621D02*
X063925Y008621D01*
X063925Y008603D02*
X062090Y008603D01*
X062090Y008585D02*
X063925Y008585D01*
X063925Y008566D02*
X062090Y008566D01*
X062090Y008548D02*
X063925Y008548D01*
X063924Y008530D02*
X062090Y008530D01*
X062122Y008512D02*
X063912Y008512D01*
X063894Y008494D02*
X062140Y008494D01*
X062158Y008475D02*
X063876Y008475D01*
X063858Y008457D02*
X062176Y008457D01*
X062195Y008439D02*
X063839Y008439D01*
X063821Y008421D02*
X062213Y008421D01*
X062231Y008402D02*
X063803Y008402D01*
X063785Y008384D02*
X062249Y008384D01*
X062267Y008366D02*
X063766Y008366D01*
X063748Y008348D02*
X062286Y008348D01*
X062304Y008329D02*
X063730Y008329D01*
X063712Y008311D02*
X062322Y008311D01*
X062340Y008293D02*
X063694Y008293D01*
X063675Y008275D02*
X062359Y008275D01*
X062377Y008257D02*
X063657Y008257D01*
X063639Y008238D02*
X062395Y008238D01*
X062413Y008220D02*
X063621Y008220D01*
X063602Y008202D02*
X062431Y008202D01*
X062450Y008184D02*
X063584Y008184D01*
X063566Y008165D02*
X062468Y008165D01*
X062486Y008147D02*
X063548Y008147D01*
X063529Y008129D02*
X062950Y008129D01*
X063298Y008712D02*
X063926Y008712D01*
X063926Y008731D02*
X063316Y008731D01*
X063334Y008749D02*
X063926Y008749D01*
X063926Y008767D02*
X063352Y008767D01*
X063371Y008785D02*
X063926Y008785D01*
X063926Y008803D02*
X063389Y008803D01*
X063700Y008967D02*
X063928Y008967D01*
X063928Y008986D02*
X063738Y008986D01*
X063777Y009004D02*
X063928Y009004D01*
X063928Y009022D02*
X063816Y009022D01*
X063855Y009040D02*
X063928Y009040D01*
X063928Y009059D02*
X063893Y009059D01*
X063684Y009605D02*
X063652Y009605D01*
X063607Y009624D02*
X063725Y009624D01*
X063767Y009642D02*
X063563Y009642D01*
X063518Y009660D02*
X063808Y009660D01*
X063850Y009678D02*
X063474Y009678D01*
X063429Y009697D02*
X063891Y009697D01*
X063928Y009715D02*
X063389Y009715D01*
X063389Y009733D02*
X063928Y009733D01*
X063928Y009751D02*
X063390Y009751D01*
X063390Y009770D02*
X063928Y009770D01*
X063928Y009788D02*
X063390Y009788D01*
X063391Y009806D02*
X063928Y009806D01*
X063928Y009824D02*
X063391Y009824D01*
X063391Y009842D02*
X063928Y009842D01*
X063928Y009861D02*
X063392Y009861D01*
X063392Y009879D02*
X063928Y009879D01*
X063928Y009897D02*
X063393Y009897D01*
X063391Y009915D02*
X063928Y009915D01*
X063928Y009934D02*
X063371Y009934D01*
X063352Y009952D02*
X063928Y009952D01*
X063928Y009970D02*
X063332Y009970D01*
X063312Y009988D02*
X063928Y009988D01*
X063928Y010006D02*
X063293Y010006D01*
X063704Y010426D02*
X062317Y010426D01*
X062335Y010444D02*
X063685Y010444D01*
X063667Y010462D02*
X062353Y010462D01*
X062372Y010480D02*
X063649Y010480D01*
X063631Y010499D02*
X062390Y010499D01*
X062409Y010517D02*
X063613Y010517D01*
X063594Y010535D02*
X062427Y010535D01*
X062445Y010553D02*
X063576Y010553D01*
X063558Y010572D02*
X062464Y010572D01*
X062482Y010590D02*
X063540Y010590D01*
X063521Y010608D02*
X062501Y010608D01*
X062298Y010408D02*
X063722Y010408D01*
X063740Y010389D02*
X062280Y010389D01*
X062261Y010371D02*
X063758Y010371D01*
X063777Y010353D02*
X062243Y010353D01*
X062225Y010335D02*
X063795Y010335D01*
X063813Y010316D02*
X062206Y010316D01*
X062188Y010298D02*
X063831Y010298D01*
X063850Y010280D02*
X062169Y010280D01*
X062151Y010262D02*
X063868Y010262D01*
X063886Y010243D02*
X062133Y010243D01*
X062114Y010225D02*
X063904Y010225D01*
X063922Y010207D02*
X062096Y010207D01*
D15*
X027696Y002386D02*
X026987Y001953D01*
X026987Y001954D02*
X026938Y001925D01*
X026891Y001893D01*
X026846Y001858D01*
X026803Y001821D01*
X026763Y001780D01*
X026726Y001737D01*
X026693Y001691D01*
X026662Y001643D01*
X026634Y001593D01*
X026610Y001542D01*
X026590Y001489D01*
X026573Y001434D01*
X026560Y001379D01*
X026551Y001323D01*
X026546Y001266D01*
X026544Y001209D01*
X026546Y001152D01*
X026553Y001096D01*
X026563Y001040D01*
X026576Y000985D01*
X026594Y000930D01*
X026615Y000878D01*
X026640Y000826D01*
X026668Y000777D01*
X026699Y000729D01*
X026734Y000684D01*
X026771Y000641D01*
X026812Y000601D01*
X026855Y000564D01*
X026900Y000530D01*
X026948Y000499D01*
X026998Y000471D01*
X027049Y000447D01*
X027102Y000426D01*
X027156Y000409D01*
X027211Y000395D01*
X027268Y000386D01*
X027324Y000380D01*
X027381Y000378D01*
X033287Y000378D01*
X032039Y000772D02*
X028629Y000772D01*
X026924Y003725D01*
X026920Y003725D02*
X028625Y006677D01*
X028629Y006677D02*
X032039Y006677D01*
X033743Y003725D01*
X032039Y000772D01*
X033287Y000378D02*
X033344Y000380D01*
X033400Y000386D01*
X033457Y000395D01*
X033512Y000409D01*
X033566Y000426D01*
X033619Y000447D01*
X033670Y000471D01*
X033720Y000499D01*
X033768Y000530D01*
X033813Y000564D01*
X033856Y000601D01*
X033897Y000641D01*
X033934Y000684D01*
X033969Y000729D01*
X034000Y000777D01*
X034028Y000826D01*
X034053Y000878D01*
X034074Y000930D01*
X034092Y000985D01*
X034105Y001040D01*
X034115Y001096D01*
X034122Y001152D01*
X034124Y001209D01*
X034122Y001266D01*
X034117Y001323D01*
X034108Y001379D01*
X034095Y001434D01*
X034078Y001489D01*
X034058Y001542D01*
X034034Y001593D01*
X034006Y001643D01*
X033975Y001691D01*
X033942Y001737D01*
X033905Y001780D01*
X033865Y001821D01*
X033822Y001858D01*
X033777Y001893D01*
X033730Y001925D01*
X033681Y001954D01*
X033680Y001953D02*
X032972Y002386D01*
X035649Y001953D02*
X036357Y002386D01*
X035649Y001954D02*
X035600Y001925D01*
X035553Y001893D01*
X035508Y001858D01*
X035465Y001821D01*
X035425Y001780D01*
X035388Y001737D01*
X035355Y001691D01*
X035324Y001643D01*
X035296Y001593D01*
X035272Y001542D01*
X035252Y001489D01*
X035235Y001434D01*
X035222Y001379D01*
X035213Y001323D01*
X035208Y001266D01*
X035206Y001209D01*
X035208Y001152D01*
X035215Y001096D01*
X035225Y001040D01*
X035238Y000985D01*
X035256Y000930D01*
X035277Y000878D01*
X035302Y000826D01*
X035330Y000777D01*
X035361Y000729D01*
X035396Y000684D01*
X035433Y000641D01*
X035474Y000601D01*
X035517Y000564D01*
X035562Y000530D01*
X035610Y000499D01*
X035660Y000471D01*
X035711Y000447D01*
X035764Y000426D01*
X035818Y000409D01*
X035873Y000395D01*
X035930Y000386D01*
X035986Y000380D01*
X036043Y000378D01*
X041948Y000378D01*
X040700Y000772D02*
X037291Y000772D01*
X035586Y003725D01*
X035582Y003725D02*
X037287Y006677D01*
X037291Y006677D02*
X040700Y006677D01*
X042405Y003725D01*
X040700Y000772D01*
X041948Y000378D02*
X042005Y000380D01*
X042061Y000386D01*
X042118Y000395D01*
X042173Y000409D01*
X042227Y000426D01*
X042280Y000447D01*
X042331Y000471D01*
X042381Y000499D01*
X042429Y000530D01*
X042474Y000564D01*
X042517Y000601D01*
X042558Y000641D01*
X042595Y000684D01*
X042630Y000729D01*
X042661Y000777D01*
X042689Y000826D01*
X042714Y000878D01*
X042735Y000930D01*
X042753Y000985D01*
X042766Y001040D01*
X042776Y001096D01*
X042783Y001152D01*
X042785Y001209D01*
X042783Y001266D01*
X042778Y001323D01*
X042769Y001379D01*
X042756Y001434D01*
X042739Y001489D01*
X042719Y001542D01*
X042695Y001593D01*
X042667Y001643D01*
X042636Y001691D01*
X042603Y001737D01*
X042566Y001780D01*
X042526Y001821D01*
X042483Y001858D01*
X042438Y001893D01*
X042391Y001925D01*
X042342Y001954D01*
X042342Y001953D02*
X041633Y002386D01*
X044310Y001953D02*
X045019Y002386D01*
X044310Y001954D02*
X044261Y001925D01*
X044214Y001893D01*
X044169Y001858D01*
X044126Y001821D01*
X044086Y001780D01*
X044049Y001737D01*
X044016Y001691D01*
X043985Y001643D01*
X043957Y001593D01*
X043933Y001542D01*
X043913Y001489D01*
X043896Y001434D01*
X043883Y001379D01*
X043874Y001323D01*
X043869Y001266D01*
X043867Y001209D01*
X043869Y001152D01*
X043876Y001096D01*
X043886Y001040D01*
X043899Y000985D01*
X043917Y000930D01*
X043938Y000878D01*
X043963Y000826D01*
X043991Y000777D01*
X044022Y000729D01*
X044057Y000684D01*
X044094Y000641D01*
X044135Y000601D01*
X044178Y000564D01*
X044223Y000530D01*
X044271Y000499D01*
X044321Y000471D01*
X044372Y000447D01*
X044425Y000426D01*
X044479Y000409D01*
X044534Y000395D01*
X044591Y000386D01*
X044647Y000380D01*
X044704Y000378D01*
X050609Y000378D01*
X049361Y000772D02*
X045952Y000772D01*
X044247Y003725D01*
X044243Y003725D02*
X045948Y006677D01*
X045952Y006677D02*
X049361Y006677D01*
X051066Y003725D01*
X049361Y000772D01*
X050609Y000378D02*
X050666Y000380D01*
X050722Y000386D01*
X050779Y000395D01*
X050834Y000409D01*
X050888Y000426D01*
X050941Y000447D01*
X050992Y000471D01*
X051042Y000499D01*
X051090Y000530D01*
X051135Y000564D01*
X051178Y000601D01*
X051219Y000641D01*
X051256Y000684D01*
X051291Y000729D01*
X051322Y000777D01*
X051350Y000826D01*
X051375Y000878D01*
X051396Y000930D01*
X051414Y000985D01*
X051427Y001040D01*
X051437Y001096D01*
X051444Y001152D01*
X051446Y001209D01*
X051444Y001266D01*
X051439Y001323D01*
X051430Y001379D01*
X051417Y001434D01*
X051400Y001489D01*
X051380Y001542D01*
X051356Y001593D01*
X051328Y001643D01*
X051297Y001691D01*
X051264Y001737D01*
X051227Y001780D01*
X051187Y001821D01*
X051144Y001858D01*
X051099Y001893D01*
X051052Y001925D01*
X051003Y001954D01*
X051003Y001953D02*
X050294Y002386D01*
X052972Y001953D02*
X053680Y002386D01*
X052971Y001954D02*
X052922Y001925D01*
X052875Y001893D01*
X052830Y001858D01*
X052787Y001821D01*
X052747Y001780D01*
X052710Y001737D01*
X052677Y001691D01*
X052646Y001643D01*
X052618Y001593D01*
X052594Y001542D01*
X052574Y001489D01*
X052557Y001434D01*
X052544Y001379D01*
X052535Y001323D01*
X052530Y001266D01*
X052528Y001209D01*
X052530Y001152D01*
X052537Y001096D01*
X052547Y001040D01*
X052560Y000985D01*
X052578Y000930D01*
X052599Y000878D01*
X052624Y000826D01*
X052652Y000777D01*
X052683Y000729D01*
X052718Y000684D01*
X052755Y000641D01*
X052796Y000601D01*
X052839Y000564D01*
X052884Y000530D01*
X052932Y000499D01*
X052982Y000471D01*
X053033Y000447D01*
X053086Y000426D01*
X053140Y000409D01*
X053195Y000395D01*
X053252Y000386D01*
X053308Y000380D01*
X053365Y000378D01*
X059271Y000378D01*
X058023Y000772D02*
X054613Y000772D01*
X052909Y003725D01*
X052905Y003725D02*
X054609Y006677D01*
X054613Y006677D02*
X058023Y006677D01*
X059728Y003725D01*
X058023Y000772D01*
X059271Y000378D02*
X059328Y000380D01*
X059384Y000386D01*
X059441Y000395D01*
X059496Y000409D01*
X059550Y000426D01*
X059603Y000447D01*
X059654Y000471D01*
X059704Y000499D01*
X059752Y000530D01*
X059797Y000564D01*
X059840Y000601D01*
X059881Y000641D01*
X059918Y000684D01*
X059953Y000729D01*
X059984Y000777D01*
X060012Y000826D01*
X060037Y000878D01*
X060058Y000930D01*
X060076Y000985D01*
X060089Y001040D01*
X060099Y001096D01*
X060106Y001152D01*
X060108Y001209D01*
X060106Y001266D01*
X060101Y001323D01*
X060092Y001379D01*
X060079Y001434D01*
X060062Y001489D01*
X060042Y001542D01*
X060018Y001593D01*
X059990Y001643D01*
X059959Y001691D01*
X059926Y001737D01*
X059889Y001780D01*
X059849Y001821D01*
X059806Y001858D01*
X059761Y001893D01*
X059714Y001925D01*
X059665Y001954D01*
X059665Y001953D02*
X058956Y002386D01*
X061633Y001953D02*
X062342Y002386D01*
X061633Y001954D02*
X061584Y001925D01*
X061537Y001893D01*
X061492Y001858D01*
X061449Y001821D01*
X061409Y001780D01*
X061372Y001737D01*
X061339Y001691D01*
X061308Y001643D01*
X061280Y001593D01*
X061256Y001542D01*
X061236Y001489D01*
X061219Y001434D01*
X061206Y001379D01*
X061197Y001323D01*
X061192Y001266D01*
X061190Y001209D01*
X061192Y001152D01*
X061199Y001096D01*
X061209Y001040D01*
X061222Y000985D01*
X061240Y000930D01*
X061261Y000878D01*
X061286Y000826D01*
X061314Y000777D01*
X061345Y000729D01*
X061380Y000684D01*
X061417Y000641D01*
X061458Y000601D01*
X061501Y000564D01*
X061546Y000530D01*
X061594Y000499D01*
X061644Y000471D01*
X061695Y000447D01*
X061748Y000426D01*
X061802Y000409D01*
X061857Y000395D01*
X061914Y000386D01*
X061970Y000380D01*
X062027Y000378D01*
X067932Y000378D01*
X066684Y000772D02*
X063275Y000772D01*
X061570Y003725D01*
X061566Y003725D02*
X063271Y006677D01*
X063275Y006677D02*
X066684Y006677D01*
X068389Y003725D01*
X066684Y000772D01*
X067932Y000378D02*
X067989Y000380D01*
X068045Y000386D01*
X068102Y000395D01*
X068157Y000409D01*
X068211Y000426D01*
X068264Y000447D01*
X068315Y000471D01*
X068365Y000499D01*
X068413Y000530D01*
X068458Y000564D01*
X068501Y000601D01*
X068542Y000641D01*
X068579Y000684D01*
X068614Y000729D01*
X068645Y000777D01*
X068673Y000826D01*
X068698Y000878D01*
X068719Y000930D01*
X068737Y000985D01*
X068750Y001040D01*
X068760Y001096D01*
X068767Y001152D01*
X068769Y001209D01*
X068767Y001266D01*
X068762Y001323D01*
X068753Y001379D01*
X068740Y001434D01*
X068723Y001489D01*
X068703Y001542D01*
X068679Y001593D01*
X068651Y001643D01*
X068620Y001691D01*
X068587Y001737D01*
X068550Y001780D01*
X068510Y001821D01*
X068467Y001858D01*
X068422Y001893D01*
X068375Y001925D01*
X068326Y001954D01*
X068326Y001953D02*
X067617Y002386D01*
X070294Y001953D02*
X071003Y002386D01*
X070294Y001954D02*
X070245Y001925D01*
X070198Y001893D01*
X070153Y001858D01*
X070110Y001821D01*
X070070Y001780D01*
X070033Y001737D01*
X070000Y001691D01*
X069969Y001643D01*
X069941Y001593D01*
X069917Y001542D01*
X069897Y001489D01*
X069880Y001434D01*
X069867Y001379D01*
X069858Y001323D01*
X069853Y001266D01*
X069851Y001209D01*
X069853Y001152D01*
X069860Y001096D01*
X069870Y001040D01*
X069883Y000985D01*
X069901Y000930D01*
X069922Y000878D01*
X069947Y000826D01*
X069975Y000777D01*
X070006Y000729D01*
X070041Y000684D01*
X070078Y000641D01*
X070119Y000601D01*
X070162Y000564D01*
X070207Y000530D01*
X070255Y000499D01*
X070305Y000471D01*
X070356Y000447D01*
X070409Y000426D01*
X070463Y000409D01*
X070518Y000395D01*
X070575Y000386D01*
X070631Y000380D01*
X070688Y000378D01*
X076594Y000378D01*
X075346Y000772D02*
X071936Y000772D01*
X070231Y003725D01*
X070228Y003725D02*
X071932Y006677D01*
X071936Y006677D02*
X075346Y006677D01*
X077050Y003725D01*
X075346Y000772D01*
X076594Y000378D02*
X076651Y000380D01*
X076707Y000386D01*
X076764Y000395D01*
X076819Y000409D01*
X076873Y000426D01*
X076926Y000447D01*
X076977Y000471D01*
X077027Y000499D01*
X077075Y000530D01*
X077120Y000564D01*
X077163Y000601D01*
X077204Y000641D01*
X077241Y000684D01*
X077276Y000729D01*
X077307Y000777D01*
X077335Y000826D01*
X077360Y000878D01*
X077381Y000930D01*
X077399Y000985D01*
X077412Y001040D01*
X077422Y001096D01*
X077429Y001152D01*
X077431Y001209D01*
X077429Y001266D01*
X077424Y001323D01*
X077415Y001379D01*
X077402Y001434D01*
X077385Y001489D01*
X077365Y001542D01*
X077341Y001593D01*
X077313Y001643D01*
X077282Y001691D01*
X077249Y001737D01*
X077212Y001780D01*
X077172Y001821D01*
X077129Y001858D01*
X077084Y001893D01*
X077037Y001925D01*
X076988Y001954D01*
X076987Y001953D02*
X076279Y002386D01*
D16*
X073943Y003029D02*
X073945Y003068D01*
X073951Y003107D01*
X073961Y003145D01*
X073974Y003182D01*
X073991Y003217D01*
X074011Y003251D01*
X074035Y003282D01*
X074062Y003311D01*
X074091Y003337D01*
X074123Y003360D01*
X074157Y003380D01*
X074193Y003396D01*
X074230Y003408D01*
X074269Y003417D01*
X074308Y003422D01*
X074347Y003423D01*
X074386Y003420D01*
X074425Y003413D01*
X074462Y003402D01*
X074499Y003388D01*
X074534Y003370D01*
X074567Y003349D01*
X074598Y003324D01*
X074626Y003297D01*
X074651Y003267D01*
X074673Y003234D01*
X074692Y003200D01*
X074707Y003164D01*
X074719Y003126D01*
X074727Y003088D01*
X074731Y003049D01*
X074731Y003009D01*
X074727Y002970D01*
X074719Y002932D01*
X074707Y002894D01*
X074692Y002858D01*
X074673Y002824D01*
X074651Y002791D01*
X074626Y002761D01*
X074598Y002734D01*
X074567Y002709D01*
X074534Y002688D01*
X074499Y002670D01*
X074462Y002656D01*
X074425Y002645D01*
X074386Y002638D01*
X074347Y002635D01*
X074308Y002636D01*
X074269Y002641D01*
X074230Y002650D01*
X074193Y002662D01*
X074157Y002678D01*
X074123Y002698D01*
X074091Y002721D01*
X074062Y002747D01*
X074035Y002776D01*
X074011Y002807D01*
X073991Y002841D01*
X073974Y002876D01*
X073961Y002913D01*
X073951Y002951D01*
X073945Y002990D01*
X073943Y003029D01*
X072551Y003029D02*
X072553Y003068D01*
X072559Y003107D01*
X072569Y003145D01*
X072582Y003182D01*
X072599Y003217D01*
X072619Y003251D01*
X072643Y003282D01*
X072670Y003311D01*
X072699Y003337D01*
X072731Y003360D01*
X072765Y003380D01*
X072801Y003396D01*
X072838Y003408D01*
X072877Y003417D01*
X072916Y003422D01*
X072955Y003423D01*
X072994Y003420D01*
X073033Y003413D01*
X073070Y003402D01*
X073107Y003388D01*
X073142Y003370D01*
X073175Y003349D01*
X073206Y003324D01*
X073234Y003297D01*
X073259Y003267D01*
X073281Y003234D01*
X073300Y003200D01*
X073315Y003164D01*
X073327Y003126D01*
X073335Y003088D01*
X073339Y003049D01*
X073339Y003009D01*
X073335Y002970D01*
X073327Y002932D01*
X073315Y002894D01*
X073300Y002858D01*
X073281Y002824D01*
X073259Y002791D01*
X073234Y002761D01*
X073206Y002734D01*
X073175Y002709D01*
X073142Y002688D01*
X073107Y002670D01*
X073070Y002656D01*
X073033Y002645D01*
X072994Y002638D01*
X072955Y002635D01*
X072916Y002636D01*
X072877Y002641D01*
X072838Y002650D01*
X072801Y002662D01*
X072765Y002678D01*
X072731Y002698D01*
X072699Y002721D01*
X072670Y002747D01*
X072643Y002776D01*
X072619Y002807D01*
X072599Y002841D01*
X072582Y002876D01*
X072569Y002913D01*
X072559Y002951D01*
X072553Y002990D01*
X072551Y003029D01*
X073247Y003725D02*
X073249Y003764D01*
X073255Y003803D01*
X073265Y003841D01*
X073278Y003878D01*
X073295Y003913D01*
X073315Y003947D01*
X073339Y003978D01*
X073366Y004007D01*
X073395Y004033D01*
X073427Y004056D01*
X073461Y004076D01*
X073497Y004092D01*
X073534Y004104D01*
X073573Y004113D01*
X073612Y004118D01*
X073651Y004119D01*
X073690Y004116D01*
X073729Y004109D01*
X073766Y004098D01*
X073803Y004084D01*
X073838Y004066D01*
X073871Y004045D01*
X073902Y004020D01*
X073930Y003993D01*
X073955Y003963D01*
X073977Y003930D01*
X073996Y003896D01*
X074011Y003860D01*
X074023Y003822D01*
X074031Y003784D01*
X074035Y003745D01*
X074035Y003705D01*
X074031Y003666D01*
X074023Y003628D01*
X074011Y003590D01*
X073996Y003554D01*
X073977Y003520D01*
X073955Y003487D01*
X073930Y003457D01*
X073902Y003430D01*
X073871Y003405D01*
X073838Y003384D01*
X073803Y003366D01*
X073766Y003352D01*
X073729Y003341D01*
X073690Y003334D01*
X073651Y003331D01*
X073612Y003332D01*
X073573Y003337D01*
X073534Y003346D01*
X073497Y003358D01*
X073461Y003374D01*
X073427Y003394D01*
X073395Y003417D01*
X073366Y003443D01*
X073339Y003472D01*
X073315Y003503D01*
X073295Y003537D01*
X073278Y003572D01*
X073265Y003609D01*
X073255Y003647D01*
X073249Y003686D01*
X073247Y003725D01*
X073326Y005811D02*
X073224Y005793D01*
X073123Y005770D01*
X073024Y005743D01*
X072925Y005710D01*
X072829Y005672D01*
X072734Y005630D01*
X072642Y005584D01*
X072552Y005532D01*
X072465Y005477D01*
X072380Y005417D01*
X072299Y005353D01*
X072221Y005286D01*
X072146Y005214D01*
X072075Y005139D01*
X072007Y005060D01*
X071944Y004979D01*
X071884Y004894D01*
X071829Y004807D01*
X071778Y004716D01*
X071732Y004624D01*
X071690Y004529D01*
X071653Y004433D01*
X071621Y004334D01*
X071593Y004235D01*
X071571Y004134D01*
X071553Y004032D01*
X071541Y003929D01*
X071533Y003826D01*
X071531Y003722D01*
X071534Y003619D01*
X071541Y003516D01*
X071554Y003413D01*
X071572Y003311D01*
X071595Y003210D01*
X071623Y003110D01*
X071655Y003012D01*
X071692Y002916D01*
X071734Y002821D01*
X071781Y002729D01*
X071832Y002639D01*
X071888Y002551D01*
X071947Y002467D01*
X072011Y002385D01*
X072079Y002307D01*
X072150Y002232D01*
X072225Y002161D01*
X072303Y002093D01*
X072385Y002030D01*
X072470Y001970D01*
X072557Y001915D01*
X072647Y001864D01*
X072740Y001817D01*
X072834Y001775D01*
X072931Y001738D01*
X073029Y001706D01*
X073129Y001678D01*
X073230Y001655D01*
X073332Y001638D01*
X073434Y001625D01*
X073538Y001618D01*
X073641Y001615D01*
X073744Y001618D01*
X073848Y001625D01*
X073950Y001638D01*
X074052Y001655D01*
X074153Y001678D01*
X074253Y001706D01*
X074351Y001738D01*
X074448Y001775D01*
X074542Y001817D01*
X074635Y001864D01*
X074725Y001915D01*
X074812Y001970D01*
X074897Y002030D01*
X074979Y002093D01*
X075057Y002161D01*
X075132Y002232D01*
X075203Y002307D01*
X075271Y002385D01*
X075335Y002467D01*
X075394Y002551D01*
X075450Y002639D01*
X075501Y002729D01*
X075548Y002821D01*
X075590Y002916D01*
X075627Y003012D01*
X075659Y003110D01*
X075687Y003210D01*
X075710Y003311D01*
X075728Y003413D01*
X075741Y003516D01*
X075748Y003619D01*
X075751Y003722D01*
X075749Y003826D01*
X075741Y003929D01*
X075729Y004032D01*
X075711Y004134D01*
X075689Y004235D01*
X075661Y004334D01*
X075629Y004433D01*
X075592Y004529D01*
X075550Y004624D01*
X075504Y004716D01*
X075453Y004807D01*
X075398Y004894D01*
X075338Y004979D01*
X075275Y005060D01*
X075207Y005139D01*
X075136Y005214D01*
X075061Y005286D01*
X074983Y005353D01*
X074902Y005417D01*
X074817Y005477D01*
X074730Y005532D01*
X074640Y005584D01*
X074548Y005630D01*
X074453Y005672D01*
X074357Y005710D01*
X074258Y005743D01*
X074159Y005770D01*
X074058Y005793D01*
X073956Y005811D01*
X073936Y005811D02*
X073936Y005378D01*
X073934Y005345D01*
X073929Y005312D01*
X073919Y005281D01*
X073907Y005250D01*
X073891Y005221D01*
X073872Y005194D01*
X073850Y005169D01*
X073825Y005147D01*
X073798Y005128D01*
X073769Y005112D01*
X073738Y005100D01*
X073707Y005090D01*
X073674Y005085D01*
X073641Y005083D01*
X073608Y005085D01*
X073575Y005090D01*
X073544Y005100D01*
X073513Y005112D01*
X073484Y005128D01*
X073457Y005147D01*
X073432Y005169D01*
X073410Y005194D01*
X073391Y005221D01*
X073375Y005250D01*
X073363Y005281D01*
X073353Y005312D01*
X073348Y005345D01*
X073346Y005378D01*
X073346Y005811D01*
X072551Y004421D02*
X072553Y004460D01*
X072559Y004499D01*
X072569Y004537D01*
X072582Y004574D01*
X072599Y004609D01*
X072619Y004643D01*
X072643Y004674D01*
X072670Y004703D01*
X072699Y004729D01*
X072731Y004752D01*
X072765Y004772D01*
X072801Y004788D01*
X072838Y004800D01*
X072877Y004809D01*
X072916Y004814D01*
X072955Y004815D01*
X072994Y004812D01*
X073033Y004805D01*
X073070Y004794D01*
X073107Y004780D01*
X073142Y004762D01*
X073175Y004741D01*
X073206Y004716D01*
X073234Y004689D01*
X073259Y004659D01*
X073281Y004626D01*
X073300Y004592D01*
X073315Y004556D01*
X073327Y004518D01*
X073335Y004480D01*
X073339Y004441D01*
X073339Y004401D01*
X073335Y004362D01*
X073327Y004324D01*
X073315Y004286D01*
X073300Y004250D01*
X073281Y004216D01*
X073259Y004183D01*
X073234Y004153D01*
X073206Y004126D01*
X073175Y004101D01*
X073142Y004080D01*
X073107Y004062D01*
X073070Y004048D01*
X073033Y004037D01*
X072994Y004030D01*
X072955Y004027D01*
X072916Y004028D01*
X072877Y004033D01*
X072838Y004042D01*
X072801Y004054D01*
X072765Y004070D01*
X072731Y004090D01*
X072699Y004113D01*
X072670Y004139D01*
X072643Y004168D01*
X072619Y004199D01*
X072599Y004233D01*
X072582Y004268D01*
X072569Y004305D01*
X072559Y004343D01*
X072553Y004382D01*
X072551Y004421D01*
X073943Y004421D02*
X073945Y004460D01*
X073951Y004499D01*
X073961Y004537D01*
X073974Y004574D01*
X073991Y004609D01*
X074011Y004643D01*
X074035Y004674D01*
X074062Y004703D01*
X074091Y004729D01*
X074123Y004752D01*
X074157Y004772D01*
X074193Y004788D01*
X074230Y004800D01*
X074269Y004809D01*
X074308Y004814D01*
X074347Y004815D01*
X074386Y004812D01*
X074425Y004805D01*
X074462Y004794D01*
X074499Y004780D01*
X074534Y004762D01*
X074567Y004741D01*
X074598Y004716D01*
X074626Y004689D01*
X074651Y004659D01*
X074673Y004626D01*
X074692Y004592D01*
X074707Y004556D01*
X074719Y004518D01*
X074727Y004480D01*
X074731Y004441D01*
X074731Y004401D01*
X074727Y004362D01*
X074719Y004324D01*
X074707Y004286D01*
X074692Y004250D01*
X074673Y004216D01*
X074651Y004183D01*
X074626Y004153D01*
X074598Y004126D01*
X074567Y004101D01*
X074534Y004080D01*
X074499Y004062D01*
X074462Y004048D01*
X074425Y004037D01*
X074386Y004030D01*
X074347Y004027D01*
X074308Y004028D01*
X074269Y004033D01*
X074230Y004042D01*
X074193Y004054D01*
X074157Y004070D01*
X074123Y004090D01*
X074091Y004113D01*
X074062Y004139D01*
X074035Y004168D01*
X074011Y004199D01*
X073991Y004233D01*
X073974Y004268D01*
X073961Y004305D01*
X073951Y004343D01*
X073945Y004382D01*
X073943Y004421D01*
X065282Y004421D02*
X065284Y004460D01*
X065290Y004499D01*
X065300Y004537D01*
X065313Y004574D01*
X065330Y004609D01*
X065350Y004643D01*
X065374Y004674D01*
X065401Y004703D01*
X065430Y004729D01*
X065462Y004752D01*
X065496Y004772D01*
X065532Y004788D01*
X065569Y004800D01*
X065608Y004809D01*
X065647Y004814D01*
X065686Y004815D01*
X065725Y004812D01*
X065764Y004805D01*
X065801Y004794D01*
X065838Y004780D01*
X065873Y004762D01*
X065906Y004741D01*
X065937Y004716D01*
X065965Y004689D01*
X065990Y004659D01*
X066012Y004626D01*
X066031Y004592D01*
X066046Y004556D01*
X066058Y004518D01*
X066066Y004480D01*
X066070Y004441D01*
X066070Y004401D01*
X066066Y004362D01*
X066058Y004324D01*
X066046Y004286D01*
X066031Y004250D01*
X066012Y004216D01*
X065990Y004183D01*
X065965Y004153D01*
X065937Y004126D01*
X065906Y004101D01*
X065873Y004080D01*
X065838Y004062D01*
X065801Y004048D01*
X065764Y004037D01*
X065725Y004030D01*
X065686Y004027D01*
X065647Y004028D01*
X065608Y004033D01*
X065569Y004042D01*
X065532Y004054D01*
X065496Y004070D01*
X065462Y004090D01*
X065430Y004113D01*
X065401Y004139D01*
X065374Y004168D01*
X065350Y004199D01*
X065330Y004233D01*
X065313Y004268D01*
X065300Y004305D01*
X065290Y004343D01*
X065284Y004382D01*
X065282Y004421D01*
X063890Y004421D02*
X063892Y004460D01*
X063898Y004499D01*
X063908Y004537D01*
X063921Y004574D01*
X063938Y004609D01*
X063958Y004643D01*
X063982Y004674D01*
X064009Y004703D01*
X064038Y004729D01*
X064070Y004752D01*
X064104Y004772D01*
X064140Y004788D01*
X064177Y004800D01*
X064216Y004809D01*
X064255Y004814D01*
X064294Y004815D01*
X064333Y004812D01*
X064372Y004805D01*
X064409Y004794D01*
X064446Y004780D01*
X064481Y004762D01*
X064514Y004741D01*
X064545Y004716D01*
X064573Y004689D01*
X064598Y004659D01*
X064620Y004626D01*
X064639Y004592D01*
X064654Y004556D01*
X064666Y004518D01*
X064674Y004480D01*
X064678Y004441D01*
X064678Y004401D01*
X064674Y004362D01*
X064666Y004324D01*
X064654Y004286D01*
X064639Y004250D01*
X064620Y004216D01*
X064598Y004183D01*
X064573Y004153D01*
X064545Y004126D01*
X064514Y004101D01*
X064481Y004080D01*
X064446Y004062D01*
X064409Y004048D01*
X064372Y004037D01*
X064333Y004030D01*
X064294Y004027D01*
X064255Y004028D01*
X064216Y004033D01*
X064177Y004042D01*
X064140Y004054D01*
X064104Y004070D01*
X064070Y004090D01*
X064038Y004113D01*
X064009Y004139D01*
X063982Y004168D01*
X063958Y004199D01*
X063938Y004233D01*
X063921Y004268D01*
X063908Y004305D01*
X063898Y004343D01*
X063892Y004382D01*
X063890Y004421D01*
X064586Y003725D02*
X064588Y003764D01*
X064594Y003803D01*
X064604Y003841D01*
X064617Y003878D01*
X064634Y003913D01*
X064654Y003947D01*
X064678Y003978D01*
X064705Y004007D01*
X064734Y004033D01*
X064766Y004056D01*
X064800Y004076D01*
X064836Y004092D01*
X064873Y004104D01*
X064912Y004113D01*
X064951Y004118D01*
X064990Y004119D01*
X065029Y004116D01*
X065068Y004109D01*
X065105Y004098D01*
X065142Y004084D01*
X065177Y004066D01*
X065210Y004045D01*
X065241Y004020D01*
X065269Y003993D01*
X065294Y003963D01*
X065316Y003930D01*
X065335Y003896D01*
X065350Y003860D01*
X065362Y003822D01*
X065370Y003784D01*
X065374Y003745D01*
X065374Y003705D01*
X065370Y003666D01*
X065362Y003628D01*
X065350Y003590D01*
X065335Y003554D01*
X065316Y003520D01*
X065294Y003487D01*
X065269Y003457D01*
X065241Y003430D01*
X065210Y003405D01*
X065177Y003384D01*
X065142Y003366D01*
X065105Y003352D01*
X065068Y003341D01*
X065029Y003334D01*
X064990Y003331D01*
X064951Y003332D01*
X064912Y003337D01*
X064873Y003346D01*
X064836Y003358D01*
X064800Y003374D01*
X064766Y003394D01*
X064734Y003417D01*
X064705Y003443D01*
X064678Y003472D01*
X064654Y003503D01*
X064634Y003537D01*
X064617Y003572D01*
X064604Y003609D01*
X064594Y003647D01*
X064588Y003686D01*
X064586Y003725D01*
X064665Y005811D02*
X064563Y005793D01*
X064462Y005770D01*
X064363Y005743D01*
X064264Y005710D01*
X064168Y005672D01*
X064073Y005630D01*
X063981Y005584D01*
X063891Y005532D01*
X063804Y005477D01*
X063719Y005417D01*
X063638Y005353D01*
X063560Y005286D01*
X063485Y005214D01*
X063414Y005139D01*
X063346Y005060D01*
X063283Y004979D01*
X063223Y004894D01*
X063168Y004807D01*
X063117Y004716D01*
X063071Y004624D01*
X063029Y004529D01*
X062992Y004433D01*
X062960Y004334D01*
X062932Y004235D01*
X062910Y004134D01*
X062892Y004032D01*
X062880Y003929D01*
X062872Y003826D01*
X062870Y003722D01*
X062873Y003619D01*
X062880Y003516D01*
X062893Y003413D01*
X062911Y003311D01*
X062934Y003210D01*
X062962Y003110D01*
X062994Y003012D01*
X063031Y002916D01*
X063073Y002821D01*
X063120Y002729D01*
X063171Y002639D01*
X063227Y002551D01*
X063286Y002467D01*
X063350Y002385D01*
X063418Y002307D01*
X063489Y002232D01*
X063564Y002161D01*
X063642Y002093D01*
X063724Y002030D01*
X063809Y001970D01*
X063896Y001915D01*
X063986Y001864D01*
X064079Y001817D01*
X064173Y001775D01*
X064270Y001738D01*
X064368Y001706D01*
X064468Y001678D01*
X064569Y001655D01*
X064671Y001638D01*
X064773Y001625D01*
X064877Y001618D01*
X064980Y001615D01*
X065083Y001618D01*
X065187Y001625D01*
X065289Y001638D01*
X065391Y001655D01*
X065492Y001678D01*
X065592Y001706D01*
X065690Y001738D01*
X065787Y001775D01*
X065881Y001817D01*
X065974Y001864D01*
X066064Y001915D01*
X066151Y001970D01*
X066236Y002030D01*
X066318Y002093D01*
X066396Y002161D01*
X066471Y002232D01*
X066542Y002307D01*
X066610Y002385D01*
X066674Y002467D01*
X066733Y002551D01*
X066789Y002639D01*
X066840Y002729D01*
X066887Y002821D01*
X066929Y002916D01*
X066966Y003012D01*
X066998Y003110D01*
X067026Y003210D01*
X067049Y003311D01*
X067067Y003413D01*
X067080Y003516D01*
X067087Y003619D01*
X067090Y003722D01*
X067088Y003826D01*
X067080Y003929D01*
X067068Y004032D01*
X067050Y004134D01*
X067028Y004235D01*
X067000Y004334D01*
X066968Y004433D01*
X066931Y004529D01*
X066889Y004624D01*
X066843Y004716D01*
X066792Y004807D01*
X066737Y004894D01*
X066677Y004979D01*
X066614Y005060D01*
X066546Y005139D01*
X066475Y005214D01*
X066400Y005286D01*
X066322Y005353D01*
X066241Y005417D01*
X066156Y005477D01*
X066069Y005532D01*
X065979Y005584D01*
X065887Y005630D01*
X065792Y005672D01*
X065696Y005710D01*
X065597Y005743D01*
X065498Y005770D01*
X065397Y005793D01*
X065295Y005811D01*
X065275Y005811D02*
X065275Y005378D01*
X065273Y005345D01*
X065268Y005312D01*
X065258Y005281D01*
X065246Y005250D01*
X065230Y005221D01*
X065211Y005194D01*
X065189Y005169D01*
X065164Y005147D01*
X065137Y005128D01*
X065108Y005112D01*
X065077Y005100D01*
X065046Y005090D01*
X065013Y005085D01*
X064980Y005083D01*
X064947Y005085D01*
X064914Y005090D01*
X064883Y005100D01*
X064852Y005112D01*
X064823Y005128D01*
X064796Y005147D01*
X064771Y005169D01*
X064749Y005194D01*
X064730Y005221D01*
X064714Y005250D01*
X064702Y005281D01*
X064692Y005312D01*
X064687Y005345D01*
X064685Y005378D01*
X064684Y005378D02*
X064684Y005811D01*
X063890Y003029D02*
X063892Y003068D01*
X063898Y003107D01*
X063908Y003145D01*
X063921Y003182D01*
X063938Y003217D01*
X063958Y003251D01*
X063982Y003282D01*
X064009Y003311D01*
X064038Y003337D01*
X064070Y003360D01*
X064104Y003380D01*
X064140Y003396D01*
X064177Y003408D01*
X064216Y003417D01*
X064255Y003422D01*
X064294Y003423D01*
X064333Y003420D01*
X064372Y003413D01*
X064409Y003402D01*
X064446Y003388D01*
X064481Y003370D01*
X064514Y003349D01*
X064545Y003324D01*
X064573Y003297D01*
X064598Y003267D01*
X064620Y003234D01*
X064639Y003200D01*
X064654Y003164D01*
X064666Y003126D01*
X064674Y003088D01*
X064678Y003049D01*
X064678Y003009D01*
X064674Y002970D01*
X064666Y002932D01*
X064654Y002894D01*
X064639Y002858D01*
X064620Y002824D01*
X064598Y002791D01*
X064573Y002761D01*
X064545Y002734D01*
X064514Y002709D01*
X064481Y002688D01*
X064446Y002670D01*
X064409Y002656D01*
X064372Y002645D01*
X064333Y002638D01*
X064294Y002635D01*
X064255Y002636D01*
X064216Y002641D01*
X064177Y002650D01*
X064140Y002662D01*
X064104Y002678D01*
X064070Y002698D01*
X064038Y002721D01*
X064009Y002747D01*
X063982Y002776D01*
X063958Y002807D01*
X063938Y002841D01*
X063921Y002876D01*
X063908Y002913D01*
X063898Y002951D01*
X063892Y002990D01*
X063890Y003029D01*
X065282Y003029D02*
X065284Y003068D01*
X065290Y003107D01*
X065300Y003145D01*
X065313Y003182D01*
X065330Y003217D01*
X065350Y003251D01*
X065374Y003282D01*
X065401Y003311D01*
X065430Y003337D01*
X065462Y003360D01*
X065496Y003380D01*
X065532Y003396D01*
X065569Y003408D01*
X065608Y003417D01*
X065647Y003422D01*
X065686Y003423D01*
X065725Y003420D01*
X065764Y003413D01*
X065801Y003402D01*
X065838Y003388D01*
X065873Y003370D01*
X065906Y003349D01*
X065937Y003324D01*
X065965Y003297D01*
X065990Y003267D01*
X066012Y003234D01*
X066031Y003200D01*
X066046Y003164D01*
X066058Y003126D01*
X066066Y003088D01*
X066070Y003049D01*
X066070Y003009D01*
X066066Y002970D01*
X066058Y002932D01*
X066046Y002894D01*
X066031Y002858D01*
X066012Y002824D01*
X065990Y002791D01*
X065965Y002761D01*
X065937Y002734D01*
X065906Y002709D01*
X065873Y002688D01*
X065838Y002670D01*
X065801Y002656D01*
X065764Y002645D01*
X065725Y002638D01*
X065686Y002635D01*
X065647Y002636D01*
X065608Y002641D01*
X065569Y002650D01*
X065532Y002662D01*
X065496Y002678D01*
X065462Y002698D01*
X065430Y002721D01*
X065401Y002747D01*
X065374Y002776D01*
X065350Y002807D01*
X065330Y002841D01*
X065313Y002876D01*
X065300Y002913D01*
X065290Y002951D01*
X065284Y002990D01*
X065282Y003029D01*
X056620Y003029D02*
X056622Y003068D01*
X056628Y003107D01*
X056638Y003145D01*
X056651Y003182D01*
X056668Y003217D01*
X056688Y003251D01*
X056712Y003282D01*
X056739Y003311D01*
X056768Y003337D01*
X056800Y003360D01*
X056834Y003380D01*
X056870Y003396D01*
X056907Y003408D01*
X056946Y003417D01*
X056985Y003422D01*
X057024Y003423D01*
X057063Y003420D01*
X057102Y003413D01*
X057139Y003402D01*
X057176Y003388D01*
X057211Y003370D01*
X057244Y003349D01*
X057275Y003324D01*
X057303Y003297D01*
X057328Y003267D01*
X057350Y003234D01*
X057369Y003200D01*
X057384Y003164D01*
X057396Y003126D01*
X057404Y003088D01*
X057408Y003049D01*
X057408Y003009D01*
X057404Y002970D01*
X057396Y002932D01*
X057384Y002894D01*
X057369Y002858D01*
X057350Y002824D01*
X057328Y002791D01*
X057303Y002761D01*
X057275Y002734D01*
X057244Y002709D01*
X057211Y002688D01*
X057176Y002670D01*
X057139Y002656D01*
X057102Y002645D01*
X057063Y002638D01*
X057024Y002635D01*
X056985Y002636D01*
X056946Y002641D01*
X056907Y002650D01*
X056870Y002662D01*
X056834Y002678D01*
X056800Y002698D01*
X056768Y002721D01*
X056739Y002747D01*
X056712Y002776D01*
X056688Y002807D01*
X056668Y002841D01*
X056651Y002876D01*
X056638Y002913D01*
X056628Y002951D01*
X056622Y002990D01*
X056620Y003029D01*
X055228Y003029D02*
X055230Y003068D01*
X055236Y003107D01*
X055246Y003145D01*
X055259Y003182D01*
X055276Y003217D01*
X055296Y003251D01*
X055320Y003282D01*
X055347Y003311D01*
X055376Y003337D01*
X055408Y003360D01*
X055442Y003380D01*
X055478Y003396D01*
X055515Y003408D01*
X055554Y003417D01*
X055593Y003422D01*
X055632Y003423D01*
X055671Y003420D01*
X055710Y003413D01*
X055747Y003402D01*
X055784Y003388D01*
X055819Y003370D01*
X055852Y003349D01*
X055883Y003324D01*
X055911Y003297D01*
X055936Y003267D01*
X055958Y003234D01*
X055977Y003200D01*
X055992Y003164D01*
X056004Y003126D01*
X056012Y003088D01*
X056016Y003049D01*
X056016Y003009D01*
X056012Y002970D01*
X056004Y002932D01*
X055992Y002894D01*
X055977Y002858D01*
X055958Y002824D01*
X055936Y002791D01*
X055911Y002761D01*
X055883Y002734D01*
X055852Y002709D01*
X055819Y002688D01*
X055784Y002670D01*
X055747Y002656D01*
X055710Y002645D01*
X055671Y002638D01*
X055632Y002635D01*
X055593Y002636D01*
X055554Y002641D01*
X055515Y002650D01*
X055478Y002662D01*
X055442Y002678D01*
X055408Y002698D01*
X055376Y002721D01*
X055347Y002747D01*
X055320Y002776D01*
X055296Y002807D01*
X055276Y002841D01*
X055259Y002876D01*
X055246Y002913D01*
X055236Y002951D01*
X055230Y002990D01*
X055228Y003029D01*
X055924Y003725D02*
X055926Y003764D01*
X055932Y003803D01*
X055942Y003841D01*
X055955Y003878D01*
X055972Y003913D01*
X055992Y003947D01*
X056016Y003978D01*
X056043Y004007D01*
X056072Y004033D01*
X056104Y004056D01*
X056138Y004076D01*
X056174Y004092D01*
X056211Y004104D01*
X056250Y004113D01*
X056289Y004118D01*
X056328Y004119D01*
X056367Y004116D01*
X056406Y004109D01*
X056443Y004098D01*
X056480Y004084D01*
X056515Y004066D01*
X056548Y004045D01*
X056579Y004020D01*
X056607Y003993D01*
X056632Y003963D01*
X056654Y003930D01*
X056673Y003896D01*
X056688Y003860D01*
X056700Y003822D01*
X056708Y003784D01*
X056712Y003745D01*
X056712Y003705D01*
X056708Y003666D01*
X056700Y003628D01*
X056688Y003590D01*
X056673Y003554D01*
X056654Y003520D01*
X056632Y003487D01*
X056607Y003457D01*
X056579Y003430D01*
X056548Y003405D01*
X056515Y003384D01*
X056480Y003366D01*
X056443Y003352D01*
X056406Y003341D01*
X056367Y003334D01*
X056328Y003331D01*
X056289Y003332D01*
X056250Y003337D01*
X056211Y003346D01*
X056174Y003358D01*
X056138Y003374D01*
X056104Y003394D01*
X056072Y003417D01*
X056043Y003443D01*
X056016Y003472D01*
X055992Y003503D01*
X055972Y003537D01*
X055955Y003572D01*
X055942Y003609D01*
X055932Y003647D01*
X055926Y003686D01*
X055924Y003725D01*
X056003Y005811D02*
X055901Y005793D01*
X055800Y005770D01*
X055701Y005743D01*
X055602Y005710D01*
X055506Y005672D01*
X055411Y005630D01*
X055319Y005584D01*
X055229Y005532D01*
X055142Y005477D01*
X055057Y005417D01*
X054976Y005353D01*
X054898Y005286D01*
X054823Y005214D01*
X054752Y005139D01*
X054684Y005060D01*
X054621Y004979D01*
X054561Y004894D01*
X054506Y004807D01*
X054455Y004716D01*
X054409Y004624D01*
X054367Y004529D01*
X054330Y004433D01*
X054298Y004334D01*
X054270Y004235D01*
X054248Y004134D01*
X054230Y004032D01*
X054218Y003929D01*
X054210Y003826D01*
X054208Y003722D01*
X054211Y003619D01*
X054218Y003516D01*
X054231Y003413D01*
X054249Y003311D01*
X054272Y003210D01*
X054300Y003110D01*
X054332Y003012D01*
X054369Y002916D01*
X054411Y002821D01*
X054458Y002729D01*
X054509Y002639D01*
X054565Y002551D01*
X054624Y002467D01*
X054688Y002385D01*
X054756Y002307D01*
X054827Y002232D01*
X054902Y002161D01*
X054980Y002093D01*
X055062Y002030D01*
X055147Y001970D01*
X055234Y001915D01*
X055324Y001864D01*
X055417Y001817D01*
X055511Y001775D01*
X055608Y001738D01*
X055706Y001706D01*
X055806Y001678D01*
X055907Y001655D01*
X056009Y001638D01*
X056111Y001625D01*
X056215Y001618D01*
X056318Y001615D01*
X056421Y001618D01*
X056525Y001625D01*
X056627Y001638D01*
X056729Y001655D01*
X056830Y001678D01*
X056930Y001706D01*
X057028Y001738D01*
X057125Y001775D01*
X057219Y001817D01*
X057312Y001864D01*
X057402Y001915D01*
X057489Y001970D01*
X057574Y002030D01*
X057656Y002093D01*
X057734Y002161D01*
X057809Y002232D01*
X057880Y002307D01*
X057948Y002385D01*
X058012Y002467D01*
X058071Y002551D01*
X058127Y002639D01*
X058178Y002729D01*
X058225Y002821D01*
X058267Y002916D01*
X058304Y003012D01*
X058336Y003110D01*
X058364Y003210D01*
X058387Y003311D01*
X058405Y003413D01*
X058418Y003516D01*
X058425Y003619D01*
X058428Y003722D01*
X058426Y003826D01*
X058418Y003929D01*
X058406Y004032D01*
X058388Y004134D01*
X058366Y004235D01*
X058338Y004334D01*
X058306Y004433D01*
X058269Y004529D01*
X058227Y004624D01*
X058181Y004716D01*
X058130Y004807D01*
X058075Y004894D01*
X058015Y004979D01*
X057952Y005060D01*
X057884Y005139D01*
X057813Y005214D01*
X057738Y005286D01*
X057660Y005353D01*
X057579Y005417D01*
X057494Y005477D01*
X057407Y005532D01*
X057317Y005584D01*
X057225Y005630D01*
X057130Y005672D01*
X057034Y005710D01*
X056935Y005743D01*
X056836Y005770D01*
X056735Y005793D01*
X056633Y005811D01*
X056613Y005811D02*
X056613Y005378D01*
X056611Y005345D01*
X056606Y005312D01*
X056596Y005281D01*
X056584Y005250D01*
X056568Y005221D01*
X056549Y005194D01*
X056527Y005169D01*
X056502Y005147D01*
X056475Y005128D01*
X056446Y005112D01*
X056415Y005100D01*
X056384Y005090D01*
X056351Y005085D01*
X056318Y005083D01*
X056285Y005085D01*
X056252Y005090D01*
X056221Y005100D01*
X056190Y005112D01*
X056161Y005128D01*
X056134Y005147D01*
X056109Y005169D01*
X056087Y005194D01*
X056068Y005221D01*
X056052Y005250D01*
X056040Y005281D01*
X056030Y005312D01*
X056025Y005345D01*
X056023Y005378D01*
X056023Y005811D01*
X055228Y004421D02*
X055230Y004460D01*
X055236Y004499D01*
X055246Y004537D01*
X055259Y004574D01*
X055276Y004609D01*
X055296Y004643D01*
X055320Y004674D01*
X055347Y004703D01*
X055376Y004729D01*
X055408Y004752D01*
X055442Y004772D01*
X055478Y004788D01*
X055515Y004800D01*
X055554Y004809D01*
X055593Y004814D01*
X055632Y004815D01*
X055671Y004812D01*
X055710Y004805D01*
X055747Y004794D01*
X055784Y004780D01*
X055819Y004762D01*
X055852Y004741D01*
X055883Y004716D01*
X055911Y004689D01*
X055936Y004659D01*
X055958Y004626D01*
X055977Y004592D01*
X055992Y004556D01*
X056004Y004518D01*
X056012Y004480D01*
X056016Y004441D01*
X056016Y004401D01*
X056012Y004362D01*
X056004Y004324D01*
X055992Y004286D01*
X055977Y004250D01*
X055958Y004216D01*
X055936Y004183D01*
X055911Y004153D01*
X055883Y004126D01*
X055852Y004101D01*
X055819Y004080D01*
X055784Y004062D01*
X055747Y004048D01*
X055710Y004037D01*
X055671Y004030D01*
X055632Y004027D01*
X055593Y004028D01*
X055554Y004033D01*
X055515Y004042D01*
X055478Y004054D01*
X055442Y004070D01*
X055408Y004090D01*
X055376Y004113D01*
X055347Y004139D01*
X055320Y004168D01*
X055296Y004199D01*
X055276Y004233D01*
X055259Y004268D01*
X055246Y004305D01*
X055236Y004343D01*
X055230Y004382D01*
X055228Y004421D01*
X056620Y004421D02*
X056622Y004460D01*
X056628Y004499D01*
X056638Y004537D01*
X056651Y004574D01*
X056668Y004609D01*
X056688Y004643D01*
X056712Y004674D01*
X056739Y004703D01*
X056768Y004729D01*
X056800Y004752D01*
X056834Y004772D01*
X056870Y004788D01*
X056907Y004800D01*
X056946Y004809D01*
X056985Y004814D01*
X057024Y004815D01*
X057063Y004812D01*
X057102Y004805D01*
X057139Y004794D01*
X057176Y004780D01*
X057211Y004762D01*
X057244Y004741D01*
X057275Y004716D01*
X057303Y004689D01*
X057328Y004659D01*
X057350Y004626D01*
X057369Y004592D01*
X057384Y004556D01*
X057396Y004518D01*
X057404Y004480D01*
X057408Y004441D01*
X057408Y004401D01*
X057404Y004362D01*
X057396Y004324D01*
X057384Y004286D01*
X057369Y004250D01*
X057350Y004216D01*
X057328Y004183D01*
X057303Y004153D01*
X057275Y004126D01*
X057244Y004101D01*
X057211Y004080D01*
X057176Y004062D01*
X057139Y004048D01*
X057102Y004037D01*
X057063Y004030D01*
X057024Y004027D01*
X056985Y004028D01*
X056946Y004033D01*
X056907Y004042D01*
X056870Y004054D01*
X056834Y004070D01*
X056800Y004090D01*
X056768Y004113D01*
X056739Y004139D01*
X056712Y004168D01*
X056688Y004199D01*
X056668Y004233D01*
X056651Y004268D01*
X056638Y004305D01*
X056628Y004343D01*
X056622Y004382D01*
X056620Y004421D01*
X047959Y004421D02*
X047961Y004460D01*
X047967Y004499D01*
X047977Y004537D01*
X047990Y004574D01*
X048007Y004609D01*
X048027Y004643D01*
X048051Y004674D01*
X048078Y004703D01*
X048107Y004729D01*
X048139Y004752D01*
X048173Y004772D01*
X048209Y004788D01*
X048246Y004800D01*
X048285Y004809D01*
X048324Y004814D01*
X048363Y004815D01*
X048402Y004812D01*
X048441Y004805D01*
X048478Y004794D01*
X048515Y004780D01*
X048550Y004762D01*
X048583Y004741D01*
X048614Y004716D01*
X048642Y004689D01*
X048667Y004659D01*
X048689Y004626D01*
X048708Y004592D01*
X048723Y004556D01*
X048735Y004518D01*
X048743Y004480D01*
X048747Y004441D01*
X048747Y004401D01*
X048743Y004362D01*
X048735Y004324D01*
X048723Y004286D01*
X048708Y004250D01*
X048689Y004216D01*
X048667Y004183D01*
X048642Y004153D01*
X048614Y004126D01*
X048583Y004101D01*
X048550Y004080D01*
X048515Y004062D01*
X048478Y004048D01*
X048441Y004037D01*
X048402Y004030D01*
X048363Y004027D01*
X048324Y004028D01*
X048285Y004033D01*
X048246Y004042D01*
X048209Y004054D01*
X048173Y004070D01*
X048139Y004090D01*
X048107Y004113D01*
X048078Y004139D01*
X048051Y004168D01*
X048027Y004199D01*
X048007Y004233D01*
X047990Y004268D01*
X047977Y004305D01*
X047967Y004343D01*
X047961Y004382D01*
X047959Y004421D01*
X046567Y004421D02*
X046569Y004460D01*
X046575Y004499D01*
X046585Y004537D01*
X046598Y004574D01*
X046615Y004609D01*
X046635Y004643D01*
X046659Y004674D01*
X046686Y004703D01*
X046715Y004729D01*
X046747Y004752D01*
X046781Y004772D01*
X046817Y004788D01*
X046854Y004800D01*
X046893Y004809D01*
X046932Y004814D01*
X046971Y004815D01*
X047010Y004812D01*
X047049Y004805D01*
X047086Y004794D01*
X047123Y004780D01*
X047158Y004762D01*
X047191Y004741D01*
X047222Y004716D01*
X047250Y004689D01*
X047275Y004659D01*
X047297Y004626D01*
X047316Y004592D01*
X047331Y004556D01*
X047343Y004518D01*
X047351Y004480D01*
X047355Y004441D01*
X047355Y004401D01*
X047351Y004362D01*
X047343Y004324D01*
X047331Y004286D01*
X047316Y004250D01*
X047297Y004216D01*
X047275Y004183D01*
X047250Y004153D01*
X047222Y004126D01*
X047191Y004101D01*
X047158Y004080D01*
X047123Y004062D01*
X047086Y004048D01*
X047049Y004037D01*
X047010Y004030D01*
X046971Y004027D01*
X046932Y004028D01*
X046893Y004033D01*
X046854Y004042D01*
X046817Y004054D01*
X046781Y004070D01*
X046747Y004090D01*
X046715Y004113D01*
X046686Y004139D01*
X046659Y004168D01*
X046635Y004199D01*
X046615Y004233D01*
X046598Y004268D01*
X046585Y004305D01*
X046575Y004343D01*
X046569Y004382D01*
X046567Y004421D01*
X047263Y003725D02*
X047265Y003764D01*
X047271Y003803D01*
X047281Y003841D01*
X047294Y003878D01*
X047311Y003913D01*
X047331Y003947D01*
X047355Y003978D01*
X047382Y004007D01*
X047411Y004033D01*
X047443Y004056D01*
X047477Y004076D01*
X047513Y004092D01*
X047550Y004104D01*
X047589Y004113D01*
X047628Y004118D01*
X047667Y004119D01*
X047706Y004116D01*
X047745Y004109D01*
X047782Y004098D01*
X047819Y004084D01*
X047854Y004066D01*
X047887Y004045D01*
X047918Y004020D01*
X047946Y003993D01*
X047971Y003963D01*
X047993Y003930D01*
X048012Y003896D01*
X048027Y003860D01*
X048039Y003822D01*
X048047Y003784D01*
X048051Y003745D01*
X048051Y003705D01*
X048047Y003666D01*
X048039Y003628D01*
X048027Y003590D01*
X048012Y003554D01*
X047993Y003520D01*
X047971Y003487D01*
X047946Y003457D01*
X047918Y003430D01*
X047887Y003405D01*
X047854Y003384D01*
X047819Y003366D01*
X047782Y003352D01*
X047745Y003341D01*
X047706Y003334D01*
X047667Y003331D01*
X047628Y003332D01*
X047589Y003337D01*
X047550Y003346D01*
X047513Y003358D01*
X047477Y003374D01*
X047443Y003394D01*
X047411Y003417D01*
X047382Y003443D01*
X047355Y003472D01*
X047331Y003503D01*
X047311Y003537D01*
X047294Y003572D01*
X047281Y003609D01*
X047271Y003647D01*
X047265Y003686D01*
X047263Y003725D01*
X047342Y005811D02*
X047240Y005793D01*
X047139Y005770D01*
X047040Y005743D01*
X046941Y005710D01*
X046845Y005672D01*
X046750Y005630D01*
X046658Y005584D01*
X046568Y005532D01*
X046481Y005477D01*
X046396Y005417D01*
X046315Y005353D01*
X046237Y005286D01*
X046162Y005214D01*
X046091Y005139D01*
X046023Y005060D01*
X045960Y004979D01*
X045900Y004894D01*
X045845Y004807D01*
X045794Y004716D01*
X045748Y004624D01*
X045706Y004529D01*
X045669Y004433D01*
X045637Y004334D01*
X045609Y004235D01*
X045587Y004134D01*
X045569Y004032D01*
X045557Y003929D01*
X045549Y003826D01*
X045547Y003722D01*
X045550Y003619D01*
X045557Y003516D01*
X045570Y003413D01*
X045588Y003311D01*
X045611Y003210D01*
X045639Y003110D01*
X045671Y003012D01*
X045708Y002916D01*
X045750Y002821D01*
X045797Y002729D01*
X045848Y002639D01*
X045904Y002551D01*
X045963Y002467D01*
X046027Y002385D01*
X046095Y002307D01*
X046166Y002232D01*
X046241Y002161D01*
X046319Y002093D01*
X046401Y002030D01*
X046486Y001970D01*
X046573Y001915D01*
X046663Y001864D01*
X046756Y001817D01*
X046850Y001775D01*
X046947Y001738D01*
X047045Y001706D01*
X047145Y001678D01*
X047246Y001655D01*
X047348Y001638D01*
X047450Y001625D01*
X047554Y001618D01*
X047657Y001615D01*
X047760Y001618D01*
X047864Y001625D01*
X047966Y001638D01*
X048068Y001655D01*
X048169Y001678D01*
X048269Y001706D01*
X048367Y001738D01*
X048464Y001775D01*
X048558Y001817D01*
X048651Y001864D01*
X048741Y001915D01*
X048828Y001970D01*
X048913Y002030D01*
X048995Y002093D01*
X049073Y002161D01*
X049148Y002232D01*
X049219Y002307D01*
X049287Y002385D01*
X049351Y002467D01*
X049410Y002551D01*
X049466Y002639D01*
X049517Y002729D01*
X049564Y002821D01*
X049606Y002916D01*
X049643Y003012D01*
X049675Y003110D01*
X049703Y003210D01*
X049726Y003311D01*
X049744Y003413D01*
X049757Y003516D01*
X049764Y003619D01*
X049767Y003722D01*
X049765Y003826D01*
X049757Y003929D01*
X049745Y004032D01*
X049727Y004134D01*
X049705Y004235D01*
X049677Y004334D01*
X049645Y004433D01*
X049608Y004529D01*
X049566Y004624D01*
X049520Y004716D01*
X049469Y004807D01*
X049414Y004894D01*
X049354Y004979D01*
X049291Y005060D01*
X049223Y005139D01*
X049152Y005214D01*
X049077Y005286D01*
X048999Y005353D01*
X048918Y005417D01*
X048833Y005477D01*
X048746Y005532D01*
X048656Y005584D01*
X048564Y005630D01*
X048469Y005672D01*
X048373Y005710D01*
X048274Y005743D01*
X048175Y005770D01*
X048074Y005793D01*
X047972Y005811D01*
X047952Y005811D02*
X047952Y005378D01*
X047950Y005345D01*
X047945Y005312D01*
X047935Y005281D01*
X047923Y005250D01*
X047907Y005221D01*
X047888Y005194D01*
X047866Y005169D01*
X047841Y005147D01*
X047814Y005128D01*
X047785Y005112D01*
X047754Y005100D01*
X047723Y005090D01*
X047690Y005085D01*
X047657Y005083D01*
X047624Y005085D01*
X047591Y005090D01*
X047560Y005100D01*
X047529Y005112D01*
X047500Y005128D01*
X047473Y005147D01*
X047448Y005169D01*
X047426Y005194D01*
X047407Y005221D01*
X047391Y005250D01*
X047379Y005281D01*
X047369Y005312D01*
X047364Y005345D01*
X047362Y005378D01*
X047361Y005378D02*
X047361Y005811D01*
X046567Y003029D02*
X046569Y003068D01*
X046575Y003107D01*
X046585Y003145D01*
X046598Y003182D01*
X046615Y003217D01*
X046635Y003251D01*
X046659Y003282D01*
X046686Y003311D01*
X046715Y003337D01*
X046747Y003360D01*
X046781Y003380D01*
X046817Y003396D01*
X046854Y003408D01*
X046893Y003417D01*
X046932Y003422D01*
X046971Y003423D01*
X047010Y003420D01*
X047049Y003413D01*
X047086Y003402D01*
X047123Y003388D01*
X047158Y003370D01*
X047191Y003349D01*
X047222Y003324D01*
X047250Y003297D01*
X047275Y003267D01*
X047297Y003234D01*
X047316Y003200D01*
X047331Y003164D01*
X047343Y003126D01*
X047351Y003088D01*
X047355Y003049D01*
X047355Y003009D01*
X047351Y002970D01*
X047343Y002932D01*
X047331Y002894D01*
X047316Y002858D01*
X047297Y002824D01*
X047275Y002791D01*
X047250Y002761D01*
X047222Y002734D01*
X047191Y002709D01*
X047158Y002688D01*
X047123Y002670D01*
X047086Y002656D01*
X047049Y002645D01*
X047010Y002638D01*
X046971Y002635D01*
X046932Y002636D01*
X046893Y002641D01*
X046854Y002650D01*
X046817Y002662D01*
X046781Y002678D01*
X046747Y002698D01*
X046715Y002721D01*
X046686Y002747D01*
X046659Y002776D01*
X046635Y002807D01*
X046615Y002841D01*
X046598Y002876D01*
X046585Y002913D01*
X046575Y002951D01*
X046569Y002990D01*
X046567Y003029D01*
X047959Y003029D02*
X047961Y003068D01*
X047967Y003107D01*
X047977Y003145D01*
X047990Y003182D01*
X048007Y003217D01*
X048027Y003251D01*
X048051Y003282D01*
X048078Y003311D01*
X048107Y003337D01*
X048139Y003360D01*
X048173Y003380D01*
X048209Y003396D01*
X048246Y003408D01*
X048285Y003417D01*
X048324Y003422D01*
X048363Y003423D01*
X048402Y003420D01*
X048441Y003413D01*
X048478Y003402D01*
X048515Y003388D01*
X048550Y003370D01*
X048583Y003349D01*
X048614Y003324D01*
X048642Y003297D01*
X048667Y003267D01*
X048689Y003234D01*
X048708Y003200D01*
X048723Y003164D01*
X048735Y003126D01*
X048743Y003088D01*
X048747Y003049D01*
X048747Y003009D01*
X048743Y002970D01*
X048735Y002932D01*
X048723Y002894D01*
X048708Y002858D01*
X048689Y002824D01*
X048667Y002791D01*
X048642Y002761D01*
X048614Y002734D01*
X048583Y002709D01*
X048550Y002688D01*
X048515Y002670D01*
X048478Y002656D01*
X048441Y002645D01*
X048402Y002638D01*
X048363Y002635D01*
X048324Y002636D01*
X048285Y002641D01*
X048246Y002650D01*
X048209Y002662D01*
X048173Y002678D01*
X048139Y002698D01*
X048107Y002721D01*
X048078Y002747D01*
X048051Y002776D01*
X048027Y002807D01*
X048007Y002841D01*
X047990Y002876D01*
X047977Y002913D01*
X047967Y002951D01*
X047961Y002990D01*
X047959Y003029D01*
X039297Y003029D02*
X039299Y003068D01*
X039305Y003107D01*
X039315Y003145D01*
X039328Y003182D01*
X039345Y003217D01*
X039365Y003251D01*
X039389Y003282D01*
X039416Y003311D01*
X039445Y003337D01*
X039477Y003360D01*
X039511Y003380D01*
X039547Y003396D01*
X039584Y003408D01*
X039623Y003417D01*
X039662Y003422D01*
X039701Y003423D01*
X039740Y003420D01*
X039779Y003413D01*
X039816Y003402D01*
X039853Y003388D01*
X039888Y003370D01*
X039921Y003349D01*
X039952Y003324D01*
X039980Y003297D01*
X040005Y003267D01*
X040027Y003234D01*
X040046Y003200D01*
X040061Y003164D01*
X040073Y003126D01*
X040081Y003088D01*
X040085Y003049D01*
X040085Y003009D01*
X040081Y002970D01*
X040073Y002932D01*
X040061Y002894D01*
X040046Y002858D01*
X040027Y002824D01*
X040005Y002791D01*
X039980Y002761D01*
X039952Y002734D01*
X039921Y002709D01*
X039888Y002688D01*
X039853Y002670D01*
X039816Y002656D01*
X039779Y002645D01*
X039740Y002638D01*
X039701Y002635D01*
X039662Y002636D01*
X039623Y002641D01*
X039584Y002650D01*
X039547Y002662D01*
X039511Y002678D01*
X039477Y002698D01*
X039445Y002721D01*
X039416Y002747D01*
X039389Y002776D01*
X039365Y002807D01*
X039345Y002841D01*
X039328Y002876D01*
X039315Y002913D01*
X039305Y002951D01*
X039299Y002990D01*
X039297Y003029D01*
X037905Y003029D02*
X037907Y003068D01*
X037913Y003107D01*
X037923Y003145D01*
X037936Y003182D01*
X037953Y003217D01*
X037973Y003251D01*
X037997Y003282D01*
X038024Y003311D01*
X038053Y003337D01*
X038085Y003360D01*
X038119Y003380D01*
X038155Y003396D01*
X038192Y003408D01*
X038231Y003417D01*
X038270Y003422D01*
X038309Y003423D01*
X038348Y003420D01*
X038387Y003413D01*
X038424Y003402D01*
X038461Y003388D01*
X038496Y003370D01*
X038529Y003349D01*
X038560Y003324D01*
X038588Y003297D01*
X038613Y003267D01*
X038635Y003234D01*
X038654Y003200D01*
X038669Y003164D01*
X038681Y003126D01*
X038689Y003088D01*
X038693Y003049D01*
X038693Y003009D01*
X038689Y002970D01*
X038681Y002932D01*
X038669Y002894D01*
X038654Y002858D01*
X038635Y002824D01*
X038613Y002791D01*
X038588Y002761D01*
X038560Y002734D01*
X038529Y002709D01*
X038496Y002688D01*
X038461Y002670D01*
X038424Y002656D01*
X038387Y002645D01*
X038348Y002638D01*
X038309Y002635D01*
X038270Y002636D01*
X038231Y002641D01*
X038192Y002650D01*
X038155Y002662D01*
X038119Y002678D01*
X038085Y002698D01*
X038053Y002721D01*
X038024Y002747D01*
X037997Y002776D01*
X037973Y002807D01*
X037953Y002841D01*
X037936Y002876D01*
X037923Y002913D01*
X037913Y002951D01*
X037907Y002990D01*
X037905Y003029D01*
X038601Y003725D02*
X038603Y003764D01*
X038609Y003803D01*
X038619Y003841D01*
X038632Y003878D01*
X038649Y003913D01*
X038669Y003947D01*
X038693Y003978D01*
X038720Y004007D01*
X038749Y004033D01*
X038781Y004056D01*
X038815Y004076D01*
X038851Y004092D01*
X038888Y004104D01*
X038927Y004113D01*
X038966Y004118D01*
X039005Y004119D01*
X039044Y004116D01*
X039083Y004109D01*
X039120Y004098D01*
X039157Y004084D01*
X039192Y004066D01*
X039225Y004045D01*
X039256Y004020D01*
X039284Y003993D01*
X039309Y003963D01*
X039331Y003930D01*
X039350Y003896D01*
X039365Y003860D01*
X039377Y003822D01*
X039385Y003784D01*
X039389Y003745D01*
X039389Y003705D01*
X039385Y003666D01*
X039377Y003628D01*
X039365Y003590D01*
X039350Y003554D01*
X039331Y003520D01*
X039309Y003487D01*
X039284Y003457D01*
X039256Y003430D01*
X039225Y003405D01*
X039192Y003384D01*
X039157Y003366D01*
X039120Y003352D01*
X039083Y003341D01*
X039044Y003334D01*
X039005Y003331D01*
X038966Y003332D01*
X038927Y003337D01*
X038888Y003346D01*
X038851Y003358D01*
X038815Y003374D01*
X038781Y003394D01*
X038749Y003417D01*
X038720Y003443D01*
X038693Y003472D01*
X038669Y003503D01*
X038649Y003537D01*
X038632Y003572D01*
X038619Y003609D01*
X038609Y003647D01*
X038603Y003686D01*
X038601Y003725D01*
X038680Y005811D02*
X038578Y005793D01*
X038477Y005770D01*
X038378Y005743D01*
X038279Y005710D01*
X038183Y005672D01*
X038088Y005630D01*
X037996Y005584D01*
X037906Y005532D01*
X037819Y005477D01*
X037734Y005417D01*
X037653Y005353D01*
X037575Y005286D01*
X037500Y005214D01*
X037429Y005139D01*
X037361Y005060D01*
X037298Y004979D01*
X037238Y004894D01*
X037183Y004807D01*
X037132Y004716D01*
X037086Y004624D01*
X037044Y004529D01*
X037007Y004433D01*
X036975Y004334D01*
X036947Y004235D01*
X036925Y004134D01*
X036907Y004032D01*
X036895Y003929D01*
X036887Y003826D01*
X036885Y003722D01*
X036888Y003619D01*
X036895Y003516D01*
X036908Y003413D01*
X036926Y003311D01*
X036949Y003210D01*
X036977Y003110D01*
X037009Y003012D01*
X037046Y002916D01*
X037088Y002821D01*
X037135Y002729D01*
X037186Y002639D01*
X037242Y002551D01*
X037301Y002467D01*
X037365Y002385D01*
X037433Y002307D01*
X037504Y002232D01*
X037579Y002161D01*
X037657Y002093D01*
X037739Y002030D01*
X037824Y001970D01*
X037911Y001915D01*
X038001Y001864D01*
X038094Y001817D01*
X038188Y001775D01*
X038285Y001738D01*
X038383Y001706D01*
X038483Y001678D01*
X038584Y001655D01*
X038686Y001638D01*
X038788Y001625D01*
X038892Y001618D01*
X038995Y001615D01*
X039098Y001618D01*
X039202Y001625D01*
X039304Y001638D01*
X039406Y001655D01*
X039507Y001678D01*
X039607Y001706D01*
X039705Y001738D01*
X039802Y001775D01*
X039896Y001817D01*
X039989Y001864D01*
X040079Y001915D01*
X040166Y001970D01*
X040251Y002030D01*
X040333Y002093D01*
X040411Y002161D01*
X040486Y002232D01*
X040557Y002307D01*
X040625Y002385D01*
X040689Y002467D01*
X040748Y002551D01*
X040804Y002639D01*
X040855Y002729D01*
X040902Y002821D01*
X040944Y002916D01*
X040981Y003012D01*
X041013Y003110D01*
X041041Y003210D01*
X041064Y003311D01*
X041082Y003413D01*
X041095Y003516D01*
X041102Y003619D01*
X041105Y003722D01*
X041103Y003826D01*
X041095Y003929D01*
X041083Y004032D01*
X041065Y004134D01*
X041043Y004235D01*
X041015Y004334D01*
X040983Y004433D01*
X040946Y004529D01*
X040904Y004624D01*
X040858Y004716D01*
X040807Y004807D01*
X040752Y004894D01*
X040692Y004979D01*
X040629Y005060D01*
X040561Y005139D01*
X040490Y005214D01*
X040415Y005286D01*
X040337Y005353D01*
X040256Y005417D01*
X040171Y005477D01*
X040084Y005532D01*
X039994Y005584D01*
X039902Y005630D01*
X039807Y005672D01*
X039711Y005710D01*
X039612Y005743D01*
X039513Y005770D01*
X039412Y005793D01*
X039310Y005811D01*
X039291Y005811D02*
X039291Y005378D01*
X039290Y005378D02*
X039288Y005345D01*
X039283Y005312D01*
X039273Y005281D01*
X039261Y005250D01*
X039245Y005221D01*
X039226Y005194D01*
X039204Y005169D01*
X039179Y005147D01*
X039152Y005128D01*
X039123Y005112D01*
X039092Y005100D01*
X039061Y005090D01*
X039028Y005085D01*
X038995Y005083D01*
X038962Y005085D01*
X038929Y005090D01*
X038898Y005100D01*
X038867Y005112D01*
X038838Y005128D01*
X038811Y005147D01*
X038786Y005169D01*
X038764Y005194D01*
X038745Y005221D01*
X038729Y005250D01*
X038717Y005281D01*
X038707Y005312D01*
X038702Y005345D01*
X038700Y005378D01*
X038700Y005811D01*
X037905Y004421D02*
X037907Y004460D01*
X037913Y004499D01*
X037923Y004537D01*
X037936Y004574D01*
X037953Y004609D01*
X037973Y004643D01*
X037997Y004674D01*
X038024Y004703D01*
X038053Y004729D01*
X038085Y004752D01*
X038119Y004772D01*
X038155Y004788D01*
X038192Y004800D01*
X038231Y004809D01*
X038270Y004814D01*
X038309Y004815D01*
X038348Y004812D01*
X038387Y004805D01*
X038424Y004794D01*
X038461Y004780D01*
X038496Y004762D01*
X038529Y004741D01*
X038560Y004716D01*
X038588Y004689D01*
X038613Y004659D01*
X038635Y004626D01*
X038654Y004592D01*
X038669Y004556D01*
X038681Y004518D01*
X038689Y004480D01*
X038693Y004441D01*
X038693Y004401D01*
X038689Y004362D01*
X038681Y004324D01*
X038669Y004286D01*
X038654Y004250D01*
X038635Y004216D01*
X038613Y004183D01*
X038588Y004153D01*
X038560Y004126D01*
X038529Y004101D01*
X038496Y004080D01*
X038461Y004062D01*
X038424Y004048D01*
X038387Y004037D01*
X038348Y004030D01*
X038309Y004027D01*
X038270Y004028D01*
X038231Y004033D01*
X038192Y004042D01*
X038155Y004054D01*
X038119Y004070D01*
X038085Y004090D01*
X038053Y004113D01*
X038024Y004139D01*
X037997Y004168D01*
X037973Y004199D01*
X037953Y004233D01*
X037936Y004268D01*
X037923Y004305D01*
X037913Y004343D01*
X037907Y004382D01*
X037905Y004421D01*
X039297Y004421D02*
X039299Y004460D01*
X039305Y004499D01*
X039315Y004537D01*
X039328Y004574D01*
X039345Y004609D01*
X039365Y004643D01*
X039389Y004674D01*
X039416Y004703D01*
X039445Y004729D01*
X039477Y004752D01*
X039511Y004772D01*
X039547Y004788D01*
X039584Y004800D01*
X039623Y004809D01*
X039662Y004814D01*
X039701Y004815D01*
X039740Y004812D01*
X039779Y004805D01*
X039816Y004794D01*
X039853Y004780D01*
X039888Y004762D01*
X039921Y004741D01*
X039952Y004716D01*
X039980Y004689D01*
X040005Y004659D01*
X040027Y004626D01*
X040046Y004592D01*
X040061Y004556D01*
X040073Y004518D01*
X040081Y004480D01*
X040085Y004441D01*
X040085Y004401D01*
X040081Y004362D01*
X040073Y004324D01*
X040061Y004286D01*
X040046Y004250D01*
X040027Y004216D01*
X040005Y004183D01*
X039980Y004153D01*
X039952Y004126D01*
X039921Y004101D01*
X039888Y004080D01*
X039853Y004062D01*
X039816Y004048D01*
X039779Y004037D01*
X039740Y004030D01*
X039701Y004027D01*
X039662Y004028D01*
X039623Y004033D01*
X039584Y004042D01*
X039547Y004054D01*
X039511Y004070D01*
X039477Y004090D01*
X039445Y004113D01*
X039416Y004139D01*
X039389Y004168D01*
X039365Y004199D01*
X039345Y004233D01*
X039328Y004268D01*
X039315Y004305D01*
X039305Y004343D01*
X039299Y004382D01*
X039297Y004421D01*
X030636Y004421D02*
X030638Y004460D01*
X030644Y004499D01*
X030654Y004537D01*
X030667Y004574D01*
X030684Y004609D01*
X030704Y004643D01*
X030728Y004674D01*
X030755Y004703D01*
X030784Y004729D01*
X030816Y004752D01*
X030850Y004772D01*
X030886Y004788D01*
X030923Y004800D01*
X030962Y004809D01*
X031001Y004814D01*
X031040Y004815D01*
X031079Y004812D01*
X031118Y004805D01*
X031155Y004794D01*
X031192Y004780D01*
X031227Y004762D01*
X031260Y004741D01*
X031291Y004716D01*
X031319Y004689D01*
X031344Y004659D01*
X031366Y004626D01*
X031385Y004592D01*
X031400Y004556D01*
X031412Y004518D01*
X031420Y004480D01*
X031424Y004441D01*
X031424Y004401D01*
X031420Y004362D01*
X031412Y004324D01*
X031400Y004286D01*
X031385Y004250D01*
X031366Y004216D01*
X031344Y004183D01*
X031319Y004153D01*
X031291Y004126D01*
X031260Y004101D01*
X031227Y004080D01*
X031192Y004062D01*
X031155Y004048D01*
X031118Y004037D01*
X031079Y004030D01*
X031040Y004027D01*
X031001Y004028D01*
X030962Y004033D01*
X030923Y004042D01*
X030886Y004054D01*
X030850Y004070D01*
X030816Y004090D01*
X030784Y004113D01*
X030755Y004139D01*
X030728Y004168D01*
X030704Y004199D01*
X030684Y004233D01*
X030667Y004268D01*
X030654Y004305D01*
X030644Y004343D01*
X030638Y004382D01*
X030636Y004421D01*
X029940Y003725D02*
X029942Y003764D01*
X029948Y003803D01*
X029958Y003841D01*
X029971Y003878D01*
X029988Y003913D01*
X030008Y003947D01*
X030032Y003978D01*
X030059Y004007D01*
X030088Y004033D01*
X030120Y004056D01*
X030154Y004076D01*
X030190Y004092D01*
X030227Y004104D01*
X030266Y004113D01*
X030305Y004118D01*
X030344Y004119D01*
X030383Y004116D01*
X030422Y004109D01*
X030459Y004098D01*
X030496Y004084D01*
X030531Y004066D01*
X030564Y004045D01*
X030595Y004020D01*
X030623Y003993D01*
X030648Y003963D01*
X030670Y003930D01*
X030689Y003896D01*
X030704Y003860D01*
X030716Y003822D01*
X030724Y003784D01*
X030728Y003745D01*
X030728Y003705D01*
X030724Y003666D01*
X030716Y003628D01*
X030704Y003590D01*
X030689Y003554D01*
X030670Y003520D01*
X030648Y003487D01*
X030623Y003457D01*
X030595Y003430D01*
X030564Y003405D01*
X030531Y003384D01*
X030496Y003366D01*
X030459Y003352D01*
X030422Y003341D01*
X030383Y003334D01*
X030344Y003331D01*
X030305Y003332D01*
X030266Y003337D01*
X030227Y003346D01*
X030190Y003358D01*
X030154Y003374D01*
X030120Y003394D01*
X030088Y003417D01*
X030059Y003443D01*
X030032Y003472D01*
X030008Y003503D01*
X029988Y003537D01*
X029971Y003572D01*
X029958Y003609D01*
X029948Y003647D01*
X029942Y003686D01*
X029940Y003725D01*
X030019Y005811D02*
X029917Y005793D01*
X029816Y005770D01*
X029717Y005743D01*
X029618Y005710D01*
X029522Y005672D01*
X029427Y005630D01*
X029335Y005584D01*
X029245Y005532D01*
X029158Y005477D01*
X029073Y005417D01*
X028992Y005353D01*
X028914Y005286D01*
X028839Y005214D01*
X028768Y005139D01*
X028700Y005060D01*
X028637Y004979D01*
X028577Y004894D01*
X028522Y004807D01*
X028471Y004716D01*
X028425Y004624D01*
X028383Y004529D01*
X028346Y004433D01*
X028314Y004334D01*
X028286Y004235D01*
X028264Y004134D01*
X028246Y004032D01*
X028234Y003929D01*
X028226Y003826D01*
X028224Y003722D01*
X028227Y003619D01*
X028234Y003516D01*
X028247Y003413D01*
X028265Y003311D01*
X028288Y003210D01*
X028316Y003110D01*
X028348Y003012D01*
X028385Y002916D01*
X028427Y002821D01*
X028474Y002729D01*
X028525Y002639D01*
X028581Y002551D01*
X028640Y002467D01*
X028704Y002385D01*
X028772Y002307D01*
X028843Y002232D01*
X028918Y002161D01*
X028996Y002093D01*
X029078Y002030D01*
X029163Y001970D01*
X029250Y001915D01*
X029340Y001864D01*
X029433Y001817D01*
X029527Y001775D01*
X029624Y001738D01*
X029722Y001706D01*
X029822Y001678D01*
X029923Y001655D01*
X030025Y001638D01*
X030127Y001625D01*
X030231Y001618D01*
X030334Y001615D01*
X030437Y001618D01*
X030541Y001625D01*
X030643Y001638D01*
X030745Y001655D01*
X030846Y001678D01*
X030946Y001706D01*
X031044Y001738D01*
X031141Y001775D01*
X031235Y001817D01*
X031328Y001864D01*
X031418Y001915D01*
X031505Y001970D01*
X031590Y002030D01*
X031672Y002093D01*
X031750Y002161D01*
X031825Y002232D01*
X031896Y002307D01*
X031964Y002385D01*
X032028Y002467D01*
X032087Y002551D01*
X032143Y002639D01*
X032194Y002729D01*
X032241Y002821D01*
X032283Y002916D01*
X032320Y003012D01*
X032352Y003110D01*
X032380Y003210D01*
X032403Y003311D01*
X032421Y003413D01*
X032434Y003516D01*
X032441Y003619D01*
X032444Y003722D01*
X032442Y003826D01*
X032434Y003929D01*
X032422Y004032D01*
X032404Y004134D01*
X032382Y004235D01*
X032354Y004334D01*
X032322Y004433D01*
X032285Y004529D01*
X032243Y004624D01*
X032197Y004716D01*
X032146Y004807D01*
X032091Y004894D01*
X032031Y004979D01*
X031968Y005060D01*
X031900Y005139D01*
X031829Y005214D01*
X031754Y005286D01*
X031676Y005353D01*
X031595Y005417D01*
X031510Y005477D01*
X031423Y005532D01*
X031333Y005584D01*
X031241Y005630D01*
X031146Y005672D01*
X031050Y005710D01*
X030951Y005743D01*
X030852Y005770D01*
X030751Y005793D01*
X030649Y005811D01*
X030629Y005811D02*
X030629Y005378D01*
X030627Y005345D01*
X030622Y005312D01*
X030612Y005281D01*
X030600Y005250D01*
X030584Y005221D01*
X030565Y005194D01*
X030543Y005169D01*
X030518Y005147D01*
X030491Y005128D01*
X030462Y005112D01*
X030431Y005100D01*
X030400Y005090D01*
X030367Y005085D01*
X030334Y005083D01*
X030301Y005085D01*
X030268Y005090D01*
X030237Y005100D01*
X030206Y005112D01*
X030177Y005128D01*
X030150Y005147D01*
X030125Y005169D01*
X030103Y005194D01*
X030084Y005221D01*
X030068Y005250D01*
X030056Y005281D01*
X030046Y005312D01*
X030041Y005345D01*
X030039Y005378D01*
X030039Y005811D01*
X029244Y004421D02*
X029246Y004460D01*
X029252Y004499D01*
X029262Y004537D01*
X029275Y004574D01*
X029292Y004609D01*
X029312Y004643D01*
X029336Y004674D01*
X029363Y004703D01*
X029392Y004729D01*
X029424Y004752D01*
X029458Y004772D01*
X029494Y004788D01*
X029531Y004800D01*
X029570Y004809D01*
X029609Y004814D01*
X029648Y004815D01*
X029687Y004812D01*
X029726Y004805D01*
X029763Y004794D01*
X029800Y004780D01*
X029835Y004762D01*
X029868Y004741D01*
X029899Y004716D01*
X029927Y004689D01*
X029952Y004659D01*
X029974Y004626D01*
X029993Y004592D01*
X030008Y004556D01*
X030020Y004518D01*
X030028Y004480D01*
X030032Y004441D01*
X030032Y004401D01*
X030028Y004362D01*
X030020Y004324D01*
X030008Y004286D01*
X029993Y004250D01*
X029974Y004216D01*
X029952Y004183D01*
X029927Y004153D01*
X029899Y004126D01*
X029868Y004101D01*
X029835Y004080D01*
X029800Y004062D01*
X029763Y004048D01*
X029726Y004037D01*
X029687Y004030D01*
X029648Y004027D01*
X029609Y004028D01*
X029570Y004033D01*
X029531Y004042D01*
X029494Y004054D01*
X029458Y004070D01*
X029424Y004090D01*
X029392Y004113D01*
X029363Y004139D01*
X029336Y004168D01*
X029312Y004199D01*
X029292Y004233D01*
X029275Y004268D01*
X029262Y004305D01*
X029252Y004343D01*
X029246Y004382D01*
X029244Y004421D01*
X029244Y003029D02*
X029246Y003068D01*
X029252Y003107D01*
X029262Y003145D01*
X029275Y003182D01*
X029292Y003217D01*
X029312Y003251D01*
X029336Y003282D01*
X029363Y003311D01*
X029392Y003337D01*
X029424Y003360D01*
X029458Y003380D01*
X029494Y003396D01*
X029531Y003408D01*
X029570Y003417D01*
X029609Y003422D01*
X029648Y003423D01*
X029687Y003420D01*
X029726Y003413D01*
X029763Y003402D01*
X029800Y003388D01*
X029835Y003370D01*
X029868Y003349D01*
X029899Y003324D01*
X029927Y003297D01*
X029952Y003267D01*
X029974Y003234D01*
X029993Y003200D01*
X030008Y003164D01*
X030020Y003126D01*
X030028Y003088D01*
X030032Y003049D01*
X030032Y003009D01*
X030028Y002970D01*
X030020Y002932D01*
X030008Y002894D01*
X029993Y002858D01*
X029974Y002824D01*
X029952Y002791D01*
X029927Y002761D01*
X029899Y002734D01*
X029868Y002709D01*
X029835Y002688D01*
X029800Y002670D01*
X029763Y002656D01*
X029726Y002645D01*
X029687Y002638D01*
X029648Y002635D01*
X029609Y002636D01*
X029570Y002641D01*
X029531Y002650D01*
X029494Y002662D01*
X029458Y002678D01*
X029424Y002698D01*
X029392Y002721D01*
X029363Y002747D01*
X029336Y002776D01*
X029312Y002807D01*
X029292Y002841D01*
X029275Y002876D01*
X029262Y002913D01*
X029252Y002951D01*
X029246Y002990D01*
X029244Y003029D01*
X030636Y003029D02*
X030638Y003068D01*
X030644Y003107D01*
X030654Y003145D01*
X030667Y003182D01*
X030684Y003217D01*
X030704Y003251D01*
X030728Y003282D01*
X030755Y003311D01*
X030784Y003337D01*
X030816Y003360D01*
X030850Y003380D01*
X030886Y003396D01*
X030923Y003408D01*
X030962Y003417D01*
X031001Y003422D01*
X031040Y003423D01*
X031079Y003420D01*
X031118Y003413D01*
X031155Y003402D01*
X031192Y003388D01*
X031227Y003370D01*
X031260Y003349D01*
X031291Y003324D01*
X031319Y003297D01*
X031344Y003267D01*
X031366Y003234D01*
X031385Y003200D01*
X031400Y003164D01*
X031412Y003126D01*
X031420Y003088D01*
X031424Y003049D01*
X031424Y003009D01*
X031420Y002970D01*
X031412Y002932D01*
X031400Y002894D01*
X031385Y002858D01*
X031366Y002824D01*
X031344Y002791D01*
X031319Y002761D01*
X031291Y002734D01*
X031260Y002709D01*
X031227Y002688D01*
X031192Y002670D01*
X031155Y002656D01*
X031118Y002645D01*
X031079Y002638D01*
X031040Y002635D01*
X031001Y002636D01*
X030962Y002641D01*
X030923Y002650D01*
X030886Y002662D01*
X030850Y002678D01*
X030816Y002698D01*
X030784Y002721D01*
X030755Y002747D01*
X030728Y002776D01*
X030704Y002807D01*
X030684Y002841D01*
X030667Y002876D01*
X030654Y002913D01*
X030644Y002951D01*
X030638Y002990D01*
X030636Y003029D01*
M02*
